G04 #@! TF.GenerationSoftware,KiCad,Pcbnew,9.0.7-9.0.7~ubuntu24.04.1*
G04 #@! TF.CreationDate,2026-03-19T15:38:18-06:00*
G04 #@! TF.ProjectId,ckt-defect,636b742d-6465-4666-9563-742e6b696361,rev?*
G04 #@! TF.SameCoordinates,Original*
G04 #@! TF.FileFunction,Soldermask,Top*
G04 #@! TF.FilePolarity,Negative*
%FSLAX46Y46*%
G04 Gerber Fmt 4.6, Leading zero omitted, Abs format (unit mm)*
G04 Created by KiCad (PCBNEW 9.0.7-9.0.7~ubuntu24.04.1) date 2026-03-19 15:38:18*
%MOMM*%
%LPD*%
G01*
G04 APERTURE LIST*
%ADD10C,2.652400*%
%ADD11C,1.052400*%
%ADD12C,6.552400*%
%ADD13O,5.204000X2.704000*%
%ADD14O,4.704000X2.454000*%
%ADD15O,2.454000X4.704000*%
%ADD16C,1.152400*%
G04 APERTURE END LIST*
G36*
G01*
X72517000Y-76339700D02*
X72517000Y-81902300D01*
G75*
G02*
X72440800Y-81978500I-76200J0D01*
G01*
X70332600Y-81978500D01*
G75*
G02*
X70256400Y-81902300I0J76200D01*
G01*
X70256400Y-76339700D01*
G75*
G02*
X70332600Y-76263500I76200J0D01*
G01*
X72440800Y-76263500D01*
G75*
G02*
X72517000Y-76339700I0J-76200D01*
G01*
G37*
G36*
G01*
X67919600Y-76339700D02*
X67919600Y-81902300D01*
G75*
G02*
X67843400Y-81978500I-76200J0D01*
G01*
X65735200Y-81978500D01*
G75*
G02*
X65659000Y-81902300I0J76200D01*
G01*
X65659000Y-76339700D01*
G75*
G02*
X65735200Y-76263500I76200J0D01*
G01*
X67843400Y-76263500D01*
G75*
G02*
X67919600Y-76339700I0J-76200D01*
G01*
G37*
G36*
G01*
X127863200Y-62795000D02*
X127863200Y-63695000D01*
G75*
G02*
X127787000Y-63771200I-76200J0D01*
G01*
X126287000Y-63771200D01*
G75*
G02*
X126210800Y-63695000I0J76200D01*
G01*
X126210800Y-62795000D01*
G75*
G02*
X126287000Y-62718800I76200J0D01*
G01*
X127787000Y-62718800D01*
G75*
G02*
X127863200Y-62795000I0J-76200D01*
G01*
G37*
G36*
G01*
X127863200Y-59495000D02*
X127863200Y-60395000D01*
G75*
G02*
X127787000Y-60471200I-76200J0D01*
G01*
X126287000Y-60471200D01*
G75*
G02*
X126210800Y-60395000I0J76200D01*
G01*
X126210800Y-59495000D01*
G75*
G02*
X126287000Y-59418800I76200J0D01*
G01*
X127787000Y-59418800D01*
G75*
G02*
X127863200Y-59495000I0J-76200D01*
G01*
G37*
G36*
G01*
X122963200Y-59495000D02*
X122963200Y-60395000D01*
G75*
G02*
X122887000Y-60471200I-76200J0D01*
G01*
X121387000Y-60471200D01*
G75*
G02*
X121310800Y-60395000I0J76200D01*
G01*
X121310800Y-59495000D01*
G75*
G02*
X121387000Y-59418800I76200J0D01*
G01*
X122887000Y-59418800D01*
G75*
G02*
X122963200Y-59495000I0J-76200D01*
G01*
G37*
G36*
G01*
X122963200Y-62795000D02*
X122963200Y-63695000D01*
G75*
G02*
X122887000Y-63771200I-76200J0D01*
G01*
X121387000Y-63771200D01*
G75*
G02*
X121310800Y-63695000I0J76200D01*
G01*
X121310800Y-62795000D01*
G75*
G02*
X121387000Y-62718800I76200J0D01*
G01*
X122887000Y-62718800D01*
G75*
G02*
X122963200Y-62795000I0J-76200D01*
G01*
G37*
G36*
G01*
X63862030Y-57889200D02*
X62883970Y-57889200D01*
G75*
G02*
X62596800Y-57602030I0J287170D01*
G01*
X62596800Y-56998970D01*
G75*
G02*
X62883970Y-56711800I287170J0D01*
G01*
X63862030Y-56711800D01*
G75*
G02*
X64149200Y-56998970I0J-287170D01*
G01*
X64149200Y-57602030D01*
G75*
G02*
X63862030Y-57889200I-287170J0D01*
G01*
G37*
G36*
G01*
X63862030Y-56064200D02*
X62883970Y-56064200D01*
G75*
G02*
X62596800Y-55777030I0J287170D01*
G01*
X62596800Y-55173970D01*
G75*
G02*
X62883970Y-54886800I287170J0D01*
G01*
X63862030Y-54886800D01*
G75*
G02*
X64149200Y-55173970I0J-287170D01*
G01*
X64149200Y-55777030D01*
G75*
G02*
X63862030Y-56064200I-287170J0D01*
G01*
G37*
G36*
G01*
X78711200Y-81533900D02*
X78711200Y-81910100D01*
G75*
G02*
X78523100Y-82098200I-188100J0D01*
G01*
X77421900Y-82098200D01*
G75*
G02*
X77233800Y-81910100I0J188100D01*
G01*
X77233800Y-81533900D01*
G75*
G02*
X77421900Y-81345800I188100J0D01*
G01*
X78523100Y-81345800D01*
G75*
G02*
X78711200Y-81533900I0J-188100D01*
G01*
G37*
G36*
G01*
X78711200Y-80583900D02*
X78711200Y-80960100D01*
G75*
G02*
X78523100Y-81148200I-188100J0D01*
G01*
X77421900Y-81148200D01*
G75*
G02*
X77233800Y-80960100I0J188100D01*
G01*
X77233800Y-80583900D01*
G75*
G02*
X77421900Y-80395800I188100J0D01*
G01*
X78523100Y-80395800D01*
G75*
G02*
X78711200Y-80583900I0J-188100D01*
G01*
G37*
G36*
G01*
X78711200Y-79633900D02*
X78711200Y-80010100D01*
G75*
G02*
X78523100Y-80198200I-188100J0D01*
G01*
X77421900Y-80198200D01*
G75*
G02*
X77233800Y-80010100I0J188100D01*
G01*
X77233800Y-79633900D01*
G75*
G02*
X77421900Y-79445800I188100J0D01*
G01*
X78523100Y-79445800D01*
G75*
G02*
X78711200Y-79633900I0J-188100D01*
G01*
G37*
G36*
G01*
X76436200Y-79633900D02*
X76436200Y-80010100D01*
G75*
G02*
X76248100Y-80198200I-188100J0D01*
G01*
X75146900Y-80198200D01*
G75*
G02*
X74958800Y-80010100I0J188100D01*
G01*
X74958800Y-79633900D01*
G75*
G02*
X75146900Y-79445800I188100J0D01*
G01*
X76248100Y-79445800D01*
G75*
G02*
X76436200Y-79633900I0J-188100D01*
G01*
G37*
G36*
G01*
X76436200Y-80583900D02*
X76436200Y-80960100D01*
G75*
G02*
X76248100Y-81148200I-188100J0D01*
G01*
X75146900Y-81148200D01*
G75*
G02*
X74958800Y-80960100I0J188100D01*
G01*
X74958800Y-80583900D01*
G75*
G02*
X75146900Y-80395800I188100J0D01*
G01*
X76248100Y-80395800D01*
G75*
G02*
X76436200Y-80583900I0J-188100D01*
G01*
G37*
G36*
G01*
X76436200Y-81533900D02*
X76436200Y-81910100D01*
G75*
G02*
X76248100Y-82098200I-188100J0D01*
G01*
X75146900Y-82098200D01*
G75*
G02*
X74958800Y-81910100I0J188100D01*
G01*
X74958800Y-81533900D01*
G75*
G02*
X75146900Y-81345800I188100J0D01*
G01*
X76248100Y-81345800D01*
G75*
G02*
X76436200Y-81533900I0J-188100D01*
G01*
G37*
G36*
G01*
X99062200Y-92958900D02*
X99062200Y-93985100D01*
G75*
G02*
X98774100Y-94273200I-288100J0D01*
G01*
X98197900Y-94273200D01*
G75*
G02*
X97909800Y-93985100I0J288100D01*
G01*
X97909800Y-92958900D01*
G75*
G02*
X98197900Y-92670800I288100J0D01*
G01*
X98774100Y-92670800D01*
G75*
G02*
X99062200Y-92958900I0J-288100D01*
G01*
G37*
G36*
G01*
X97162200Y-92958900D02*
X97162200Y-93985100D01*
G75*
G02*
X96874100Y-94273200I-288100J0D01*
G01*
X96297900Y-94273200D01*
G75*
G02*
X96009800Y-93985100I0J288100D01*
G01*
X96009800Y-92958900D01*
G75*
G02*
X96297900Y-92670800I288100J0D01*
G01*
X96874100Y-92670800D01*
G75*
G02*
X97162200Y-92958900I0J-288100D01*
G01*
G37*
G36*
G01*
X136572300Y-85464700D02*
X136572300Y-86264700D01*
G75*
G02*
X136496100Y-86340900I-76200J0D01*
G01*
X133836100Y-86340900D01*
G75*
G02*
X133759900Y-86264700I0J76200D01*
G01*
X133759900Y-85464700D01*
G75*
G02*
X133836100Y-85388500I76200J0D01*
G01*
X136496100Y-85388500D01*
G75*
G02*
X136572300Y-85464700I0J-76200D01*
G01*
G37*
G36*
G01*
X136572300Y-82264300D02*
X136572300Y-83064300D01*
G75*
G02*
X136496100Y-83140500I-76200J0D01*
G01*
X133836100Y-83140500D01*
G75*
G02*
X133759900Y-83064300I0J76200D01*
G01*
X133759900Y-82264300D01*
G75*
G02*
X133836100Y-82188100I76200J0D01*
G01*
X136496100Y-82188100D01*
G75*
G02*
X136572300Y-82264300I0J-76200D01*
G01*
G37*
G36*
G01*
X136572300Y-80054500D02*
X136572300Y-80854500D01*
G75*
G02*
X136496100Y-80930700I-76200J0D01*
G01*
X133836100Y-80930700D01*
G75*
G02*
X133759900Y-80854500I0J76200D01*
G01*
X133759900Y-80054500D01*
G75*
G02*
X133836100Y-79978300I76200J0D01*
G01*
X136496100Y-79978300D01*
G75*
G02*
X136572300Y-80054500I0J-76200D01*
G01*
G37*
G36*
G01*
X136572300Y-77844700D02*
X136572300Y-78644700D01*
G75*
G02*
X136496100Y-78720900I-76200J0D01*
G01*
X133836100Y-78720900D01*
G75*
G02*
X133759900Y-78644700I0J76200D01*
G01*
X133759900Y-77844700D01*
G75*
G02*
X133836100Y-77768500I76200J0D01*
G01*
X136496100Y-77768500D01*
G75*
G02*
X136572300Y-77844700I0J-76200D01*
G01*
G37*
G36*
G01*
X129384100Y-77844700D02*
X129384100Y-78644700D01*
G75*
G02*
X129307900Y-78720900I-76200J0D01*
G01*
X126647900Y-78720900D01*
G75*
G02*
X126571700Y-78644700I0J76200D01*
G01*
X126571700Y-77844700D01*
G75*
G02*
X126647900Y-77768500I76200J0D01*
G01*
X129307900Y-77768500D01*
G75*
G02*
X129384100Y-77844700I0J-76200D01*
G01*
G37*
G36*
G01*
X129384100Y-80054500D02*
X129384100Y-80854500D01*
G75*
G02*
X129307900Y-80930700I-76200J0D01*
G01*
X126647900Y-80930700D01*
G75*
G02*
X126571700Y-80854500I0J76200D01*
G01*
X126571700Y-80054500D01*
G75*
G02*
X126647900Y-79978300I76200J0D01*
G01*
X129307900Y-79978300D01*
G75*
G02*
X129384100Y-80054500I0J-76200D01*
G01*
G37*
G36*
G01*
X129384100Y-82264300D02*
X129384100Y-83064300D01*
G75*
G02*
X129307900Y-83140500I-76200J0D01*
G01*
X126647900Y-83140500D01*
G75*
G02*
X126571700Y-83064300I0J76200D01*
G01*
X126571700Y-82264300D01*
G75*
G02*
X126647900Y-82188100I76200J0D01*
G01*
X129307900Y-82188100D01*
G75*
G02*
X129384100Y-82264300I0J-76200D01*
G01*
G37*
G36*
G01*
X129384100Y-85464700D02*
X129384100Y-86264700D01*
G75*
G02*
X129307900Y-86340900I-76200J0D01*
G01*
X126647900Y-86340900D01*
G75*
G02*
X126571700Y-86264700I0J76200D01*
G01*
X126571700Y-85464700D01*
G75*
G02*
X126647900Y-85388500I76200J0D01*
G01*
X129307900Y-85388500D01*
G75*
G02*
X129384100Y-85464700I0J-76200D01*
G01*
G37*
G36*
G01*
X93246800Y-107121100D02*
X93246800Y-105794900D01*
G75*
G02*
X93434900Y-105606800I188100J0D01*
G01*
X93811100Y-105606800D01*
G75*
G02*
X93999200Y-105794900I0J-188100D01*
G01*
X93999200Y-107121100D01*
G75*
G02*
X93811100Y-107309200I-188100J0D01*
G01*
X93434900Y-107309200D01*
G75*
G02*
X93246800Y-107121100I0J188100D01*
G01*
G37*
G36*
G01*
X94246800Y-107121100D02*
X94246800Y-105794900D01*
G75*
G02*
X94434900Y-105606800I188100J0D01*
G01*
X94811100Y-105606800D01*
G75*
G02*
X94999200Y-105794900I0J-188100D01*
G01*
X94999200Y-107121100D01*
G75*
G02*
X94811100Y-107309200I-188100J0D01*
G01*
X94434900Y-107309200D01*
G75*
G02*
X94246800Y-107121100I0J188100D01*
G01*
G37*
G36*
G01*
X95246800Y-107121100D02*
X95246800Y-105794900D01*
G75*
G02*
X95434900Y-105606800I188100J0D01*
G01*
X95811100Y-105606800D01*
G75*
G02*
X95999200Y-105794900I0J-188100D01*
G01*
X95999200Y-107121100D01*
G75*
G02*
X95811100Y-107309200I-188100J0D01*
G01*
X95434900Y-107309200D01*
G75*
G02*
X95246800Y-107121100I0J188100D01*
G01*
G37*
G36*
G01*
X96246800Y-107121100D02*
X96246800Y-105794900D01*
G75*
G02*
X96434900Y-105606800I188100J0D01*
G01*
X96811100Y-105606800D01*
G75*
G02*
X96999200Y-105794900I0J-188100D01*
G01*
X96999200Y-107121100D01*
G75*
G02*
X96811100Y-107309200I-188100J0D01*
G01*
X96434900Y-107309200D01*
G75*
G02*
X96246800Y-107121100I0J188100D01*
G01*
G37*
G36*
G01*
X91646800Y-111027450D02*
X91646800Y-109638550D01*
G75*
G02*
X91928550Y-109356800I281750J0D01*
G01*
X92717450Y-109356800D01*
G75*
G02*
X92999200Y-109638550I0J-281750D01*
G01*
X92999200Y-111027450D01*
G75*
G02*
X92717450Y-111309200I-281750J0D01*
G01*
X91928550Y-111309200D01*
G75*
G02*
X91646800Y-111027450I0J281750D01*
G01*
G37*
G36*
G01*
X97246800Y-111027450D02*
X97246800Y-109638550D01*
G75*
G02*
X97528550Y-109356800I281750J0D01*
G01*
X98317450Y-109356800D01*
G75*
G02*
X98599200Y-109638550I0J-281750D01*
G01*
X98599200Y-111027450D01*
G75*
G02*
X98317450Y-111309200I-281750J0D01*
G01*
X97528550Y-111309200D01*
G75*
G02*
X97246800Y-111027450I0J281750D01*
G01*
G37*
G36*
G01*
X66672800Y-87000100D02*
X66672800Y-85973900D01*
G75*
G02*
X66960900Y-85685800I288100J0D01*
G01*
X67537100Y-85685800D01*
G75*
G02*
X67825200Y-85973900I0J-288100D01*
G01*
X67825200Y-87000100D01*
G75*
G02*
X67537100Y-87288200I-288100J0D01*
G01*
X66960900Y-87288200D01*
G75*
G02*
X66672800Y-87000100I0J288100D01*
G01*
G37*
G36*
G01*
X68572800Y-87000100D02*
X68572800Y-85973900D01*
G75*
G02*
X68860900Y-85685800I288100J0D01*
G01*
X69437100Y-85685800D01*
G75*
G02*
X69725200Y-85973900I0J-288100D01*
G01*
X69725200Y-87000100D01*
G75*
G02*
X69437100Y-87288200I-288100J0D01*
G01*
X68860900Y-87288200D01*
G75*
G02*
X68572800Y-87000100I0J288100D01*
G01*
G37*
G36*
G01*
X104169800Y-83500100D02*
X104169800Y-83123900D01*
G75*
G02*
X104357900Y-82935800I188100J0D01*
G01*
X106084100Y-82935800D01*
G75*
G02*
X106272200Y-83123900I0J-188100D01*
G01*
X106272200Y-83500100D01*
G75*
G02*
X106084100Y-83688200I-188100J0D01*
G01*
X104357900Y-83688200D01*
G75*
G02*
X104169800Y-83500100I0J188100D01*
G01*
G37*
G36*
G01*
X104169800Y-84770100D02*
X104169800Y-84393900D01*
G75*
G02*
X104357900Y-84205800I188100J0D01*
G01*
X106084100Y-84205800D01*
G75*
G02*
X106272200Y-84393900I0J-188100D01*
G01*
X106272200Y-84770100D01*
G75*
G02*
X106084100Y-84958200I-188100J0D01*
G01*
X104357900Y-84958200D01*
G75*
G02*
X104169800Y-84770100I0J188100D01*
G01*
G37*
G36*
G01*
X104169800Y-86040100D02*
X104169800Y-85663900D01*
G75*
G02*
X104357900Y-85475800I188100J0D01*
G01*
X106084100Y-85475800D01*
G75*
G02*
X106272200Y-85663900I0J-188100D01*
G01*
X106272200Y-86040100D01*
G75*
G02*
X106084100Y-86228200I-188100J0D01*
G01*
X104357900Y-86228200D01*
G75*
G02*
X104169800Y-86040100I0J188100D01*
G01*
G37*
G36*
G01*
X104169800Y-87310100D02*
X104169800Y-86933900D01*
G75*
G02*
X104357900Y-86745800I188100J0D01*
G01*
X106084100Y-86745800D01*
G75*
G02*
X106272200Y-86933900I0J-188100D01*
G01*
X106272200Y-87310100D01*
G75*
G02*
X106084100Y-87498200I-188100J0D01*
G01*
X104357900Y-87498200D01*
G75*
G02*
X104169800Y-87310100I0J188100D01*
G01*
G37*
G36*
G01*
X104169800Y-88580100D02*
X104169800Y-88203900D01*
G75*
G02*
X104357900Y-88015800I188100J0D01*
G01*
X106084100Y-88015800D01*
G75*
G02*
X106272200Y-88203900I0J-188100D01*
G01*
X106272200Y-88580100D01*
G75*
G02*
X106084100Y-88768200I-188100J0D01*
G01*
X104357900Y-88768200D01*
G75*
G02*
X104169800Y-88580100I0J188100D01*
G01*
G37*
G36*
G01*
X104169800Y-89850100D02*
X104169800Y-89473900D01*
G75*
G02*
X104357900Y-89285800I188100J0D01*
G01*
X106084100Y-89285800D01*
G75*
G02*
X106272200Y-89473900I0J-188100D01*
G01*
X106272200Y-89850100D01*
G75*
G02*
X106084100Y-90038200I-188100J0D01*
G01*
X104357900Y-90038200D01*
G75*
G02*
X104169800Y-89850100I0J188100D01*
G01*
G37*
G36*
G01*
X104169800Y-91120100D02*
X104169800Y-90743900D01*
G75*
G02*
X104357900Y-90555800I188100J0D01*
G01*
X106084100Y-90555800D01*
G75*
G02*
X106272200Y-90743900I0J-188100D01*
G01*
X106272200Y-91120100D01*
G75*
G02*
X106084100Y-91308200I-188100J0D01*
G01*
X104357900Y-91308200D01*
G75*
G02*
X104169800Y-91120100I0J188100D01*
G01*
G37*
G36*
G01*
X109119800Y-91120100D02*
X109119800Y-90743900D01*
G75*
G02*
X109307900Y-90555800I188100J0D01*
G01*
X111034100Y-90555800D01*
G75*
G02*
X111222200Y-90743900I0J-188100D01*
G01*
X111222200Y-91120100D01*
G75*
G02*
X111034100Y-91308200I-188100J0D01*
G01*
X109307900Y-91308200D01*
G75*
G02*
X109119800Y-91120100I0J188100D01*
G01*
G37*
G36*
G01*
X109119800Y-89850100D02*
X109119800Y-89473900D01*
G75*
G02*
X109307900Y-89285800I188100J0D01*
G01*
X111034100Y-89285800D01*
G75*
G02*
X111222200Y-89473900I0J-188100D01*
G01*
X111222200Y-89850100D01*
G75*
G02*
X111034100Y-90038200I-188100J0D01*
G01*
X109307900Y-90038200D01*
G75*
G02*
X109119800Y-89850100I0J188100D01*
G01*
G37*
G36*
G01*
X109119800Y-88580100D02*
X109119800Y-88203900D01*
G75*
G02*
X109307900Y-88015800I188100J0D01*
G01*
X111034100Y-88015800D01*
G75*
G02*
X111222200Y-88203900I0J-188100D01*
G01*
X111222200Y-88580100D01*
G75*
G02*
X111034100Y-88768200I-188100J0D01*
G01*
X109307900Y-88768200D01*
G75*
G02*
X109119800Y-88580100I0J188100D01*
G01*
G37*
G36*
G01*
X109119800Y-87310100D02*
X109119800Y-86933900D01*
G75*
G02*
X109307900Y-86745800I188100J0D01*
G01*
X111034100Y-86745800D01*
G75*
G02*
X111222200Y-86933900I0J-188100D01*
G01*
X111222200Y-87310100D01*
G75*
G02*
X111034100Y-87498200I-188100J0D01*
G01*
X109307900Y-87498200D01*
G75*
G02*
X109119800Y-87310100I0J188100D01*
G01*
G37*
G36*
G01*
X109119800Y-86040100D02*
X109119800Y-85663900D01*
G75*
G02*
X109307900Y-85475800I188100J0D01*
G01*
X111034100Y-85475800D01*
G75*
G02*
X111222200Y-85663900I0J-188100D01*
G01*
X111222200Y-86040100D01*
G75*
G02*
X111034100Y-86228200I-188100J0D01*
G01*
X109307900Y-86228200D01*
G75*
G02*
X109119800Y-86040100I0J188100D01*
G01*
G37*
G36*
G01*
X109119800Y-84770100D02*
X109119800Y-84393900D01*
G75*
G02*
X109307900Y-84205800I188100J0D01*
G01*
X111034100Y-84205800D01*
G75*
G02*
X111222200Y-84393900I0J-188100D01*
G01*
X111222200Y-84770100D01*
G75*
G02*
X111034100Y-84958200I-188100J0D01*
G01*
X109307900Y-84958200D01*
G75*
G02*
X109119800Y-84770100I0J188100D01*
G01*
G37*
G36*
G01*
X109119800Y-83500100D02*
X109119800Y-83123900D01*
G75*
G02*
X109307900Y-82935800I188100J0D01*
G01*
X111034100Y-82935800D01*
G75*
G02*
X111222200Y-83123900I0J-188100D01*
G01*
X111222200Y-83500100D01*
G75*
G02*
X111034100Y-83688200I-188100J0D01*
G01*
X109307900Y-83688200D01*
G75*
G02*
X109119800Y-83500100I0J188100D01*
G01*
G37*
G36*
G01*
X72503800Y-90485000D02*
X72503800Y-88585000D01*
G75*
G02*
X72580000Y-88508800I76200J0D01*
G01*
X73980000Y-88508800D01*
G75*
G02*
X74056200Y-88585000I0J-76200D01*
G01*
X74056200Y-90485000D01*
G75*
G02*
X73980000Y-90561200I-76200J0D01*
G01*
X72580000Y-90561200D01*
G75*
G02*
X72503800Y-90485000I0J76200D01*
G01*
G37*
G36*
G01*
X75803800Y-90485000D02*
X75803800Y-88585000D01*
G75*
G02*
X75880000Y-88508800I76200J0D01*
G01*
X77280000Y-88508800D01*
G75*
G02*
X77356200Y-88585000I0J-76200D01*
G01*
X77356200Y-90485000D01*
G75*
G02*
X77280000Y-90561200I-76200J0D01*
G01*
X75880000Y-90561200D01*
G75*
G02*
X75803800Y-90485000I0J76200D01*
G01*
G37*
G36*
G01*
X95255100Y-60962200D02*
X94228900Y-60962200D01*
G75*
G02*
X93940800Y-60674100I0J288100D01*
G01*
X93940800Y-60097900D01*
G75*
G02*
X94228900Y-59809800I288100J0D01*
G01*
X95255100Y-59809800D01*
G75*
G02*
X95543200Y-60097900I0J-288100D01*
G01*
X95543200Y-60674100D01*
G75*
G02*
X95255100Y-60962200I-288100J0D01*
G01*
G37*
G36*
G01*
X95255100Y-59062200D02*
X94228900Y-59062200D01*
G75*
G02*
X93940800Y-58774100I0J288100D01*
G01*
X93940800Y-58197900D01*
G75*
G02*
X94228900Y-57909800I288100J0D01*
G01*
X95255100Y-57909800D01*
G75*
G02*
X95543200Y-58197900I0J-288100D01*
G01*
X95543200Y-58774100D01*
G75*
G02*
X95255100Y-59062200I-288100J0D01*
G01*
G37*
G36*
G01*
X133886800Y-107121100D02*
X133886800Y-105794900D01*
G75*
G02*
X134074900Y-105606800I188100J0D01*
G01*
X134451100Y-105606800D01*
G75*
G02*
X134639200Y-105794900I0J-188100D01*
G01*
X134639200Y-107121100D01*
G75*
G02*
X134451100Y-107309200I-188100J0D01*
G01*
X134074900Y-107309200D01*
G75*
G02*
X133886800Y-107121100I0J188100D01*
G01*
G37*
G36*
G01*
X134886800Y-107121100D02*
X134886800Y-105794900D01*
G75*
G02*
X135074900Y-105606800I188100J0D01*
G01*
X135451100Y-105606800D01*
G75*
G02*
X135639200Y-105794900I0J-188100D01*
G01*
X135639200Y-107121100D01*
G75*
G02*
X135451100Y-107309200I-188100J0D01*
G01*
X135074900Y-107309200D01*
G75*
G02*
X134886800Y-107121100I0J188100D01*
G01*
G37*
G36*
G01*
X135886800Y-107121100D02*
X135886800Y-105794900D01*
G75*
G02*
X136074900Y-105606800I188100J0D01*
G01*
X136451100Y-105606800D01*
G75*
G02*
X136639200Y-105794900I0J-188100D01*
G01*
X136639200Y-107121100D01*
G75*
G02*
X136451100Y-107309200I-188100J0D01*
G01*
X136074900Y-107309200D01*
G75*
G02*
X135886800Y-107121100I0J188100D01*
G01*
G37*
G36*
G01*
X136886800Y-107121100D02*
X136886800Y-105794900D01*
G75*
G02*
X137074900Y-105606800I188100J0D01*
G01*
X137451100Y-105606800D01*
G75*
G02*
X137639200Y-105794900I0J-188100D01*
G01*
X137639200Y-107121100D01*
G75*
G02*
X137451100Y-107309200I-188100J0D01*
G01*
X137074900Y-107309200D01*
G75*
G02*
X136886800Y-107121100I0J188100D01*
G01*
G37*
G36*
G01*
X132286800Y-111027450D02*
X132286800Y-109638550D01*
G75*
G02*
X132568550Y-109356800I281750J0D01*
G01*
X133357450Y-109356800D01*
G75*
G02*
X133639200Y-109638550I0J-281750D01*
G01*
X133639200Y-111027450D01*
G75*
G02*
X133357450Y-111309200I-281750J0D01*
G01*
X132568550Y-111309200D01*
G75*
G02*
X132286800Y-111027450I0J281750D01*
G01*
G37*
G36*
G01*
X137886800Y-111027450D02*
X137886800Y-109638550D01*
G75*
G02*
X138168550Y-109356800I281750J0D01*
G01*
X138957450Y-109356800D01*
G75*
G02*
X139239200Y-109638550I0J-281750D01*
G01*
X139239200Y-111027450D01*
G75*
G02*
X138957450Y-111309200I-281750J0D01*
G01*
X138168550Y-111309200D01*
G75*
G02*
X137886800Y-111027450I0J281750D01*
G01*
G37*
G36*
G01*
X80007800Y-59314100D02*
X80007800Y-58287900D01*
G75*
G02*
X80295900Y-57999800I288100J0D01*
G01*
X80872100Y-57999800D01*
G75*
G02*
X81160200Y-58287900I0J-288100D01*
G01*
X81160200Y-59314100D01*
G75*
G02*
X80872100Y-59602200I-288100J0D01*
G01*
X80295900Y-59602200D01*
G75*
G02*
X80007800Y-59314100I0J288100D01*
G01*
G37*
G36*
G01*
X81907800Y-59314100D02*
X81907800Y-58287900D01*
G75*
G02*
X82195900Y-57999800I288100J0D01*
G01*
X82772100Y-57999800D01*
G75*
G02*
X83060200Y-58287900I0J-288100D01*
G01*
X83060200Y-59314100D01*
G75*
G02*
X82772100Y-59602200I-288100J0D01*
G01*
X82195900Y-59602200D01*
G75*
G02*
X81907800Y-59314100I0J288100D01*
G01*
G37*
G36*
G01*
X113566800Y-107121100D02*
X113566800Y-105794900D01*
G75*
G02*
X113754900Y-105606800I188100J0D01*
G01*
X114131100Y-105606800D01*
G75*
G02*
X114319200Y-105794900I0J-188100D01*
G01*
X114319200Y-107121100D01*
G75*
G02*
X114131100Y-107309200I-188100J0D01*
G01*
X113754900Y-107309200D01*
G75*
G02*
X113566800Y-107121100I0J188100D01*
G01*
G37*
G36*
G01*
X114566800Y-107121100D02*
X114566800Y-105794900D01*
G75*
G02*
X114754900Y-105606800I188100J0D01*
G01*
X115131100Y-105606800D01*
G75*
G02*
X115319200Y-105794900I0J-188100D01*
G01*
X115319200Y-107121100D01*
G75*
G02*
X115131100Y-107309200I-188100J0D01*
G01*
X114754900Y-107309200D01*
G75*
G02*
X114566800Y-107121100I0J188100D01*
G01*
G37*
G36*
G01*
X115566800Y-107121100D02*
X115566800Y-105794900D01*
G75*
G02*
X115754900Y-105606800I188100J0D01*
G01*
X116131100Y-105606800D01*
G75*
G02*
X116319200Y-105794900I0J-188100D01*
G01*
X116319200Y-107121100D01*
G75*
G02*
X116131100Y-107309200I-188100J0D01*
G01*
X115754900Y-107309200D01*
G75*
G02*
X115566800Y-107121100I0J188100D01*
G01*
G37*
G36*
G01*
X116566800Y-107121100D02*
X116566800Y-105794900D01*
G75*
G02*
X116754900Y-105606800I188100J0D01*
G01*
X117131100Y-105606800D01*
G75*
G02*
X117319200Y-105794900I0J-188100D01*
G01*
X117319200Y-107121100D01*
G75*
G02*
X117131100Y-107309200I-188100J0D01*
G01*
X116754900Y-107309200D01*
G75*
G02*
X116566800Y-107121100I0J188100D01*
G01*
G37*
G36*
G01*
X111966800Y-111027450D02*
X111966800Y-109638550D01*
G75*
G02*
X112248550Y-109356800I281750J0D01*
G01*
X113037450Y-109356800D01*
G75*
G02*
X113319200Y-109638550I0J-281750D01*
G01*
X113319200Y-111027450D01*
G75*
G02*
X113037450Y-111309200I-281750J0D01*
G01*
X112248550Y-111309200D01*
G75*
G02*
X111966800Y-111027450I0J281750D01*
G01*
G37*
G36*
G01*
X117566800Y-111027450D02*
X117566800Y-109638550D01*
G75*
G02*
X117848550Y-109356800I281750J0D01*
G01*
X118637450Y-109356800D01*
G75*
G02*
X118919200Y-109638550I0J-281750D01*
G01*
X118919200Y-111027450D01*
G75*
G02*
X118637450Y-111309200I-281750J0D01*
G01*
X117848550Y-111309200D01*
G75*
G02*
X117566800Y-111027450I0J281750D01*
G01*
G37*
G36*
G01*
X77475100Y-56390200D02*
X76448900Y-56390200D01*
G75*
G02*
X76160800Y-56102100I0J288100D01*
G01*
X76160800Y-55525900D01*
G75*
G02*
X76448900Y-55237800I288100J0D01*
G01*
X77475100Y-55237800D01*
G75*
G02*
X77763200Y-55525900I0J-288100D01*
G01*
X77763200Y-56102100D01*
G75*
G02*
X77475100Y-56390200I-288100J0D01*
G01*
G37*
G36*
G01*
X77475100Y-54490200D02*
X76448900Y-54490200D01*
G75*
G02*
X76160800Y-54202100I0J288100D01*
G01*
X76160800Y-53625900D01*
G75*
G02*
X76448900Y-53337800I288100J0D01*
G01*
X77475100Y-53337800D01*
G75*
G02*
X77763200Y-53625900I0J-288100D01*
G01*
X77763200Y-54202100D01*
G75*
G02*
X77475100Y-54490200I-288100J0D01*
G01*
G37*
G36*
G01*
X143380800Y-92334100D02*
X143380800Y-91307900D01*
G75*
G02*
X143668900Y-91019800I288100J0D01*
G01*
X144245100Y-91019800D01*
G75*
G02*
X144533200Y-91307900I0J-288100D01*
G01*
X144533200Y-92334100D01*
G75*
G02*
X144245100Y-92622200I-288100J0D01*
G01*
X143668900Y-92622200D01*
G75*
G02*
X143380800Y-92334100I0J288100D01*
G01*
G37*
G36*
G01*
X145280800Y-92334100D02*
X145280800Y-91307900D01*
G75*
G02*
X145568900Y-91019800I288100J0D01*
G01*
X146145100Y-91019800D01*
G75*
G02*
X146433200Y-91307900I0J-288100D01*
G01*
X146433200Y-92334100D01*
G75*
G02*
X146145100Y-92622200I-288100J0D01*
G01*
X145568900Y-92622200D01*
G75*
G02*
X145280800Y-92334100I0J288100D01*
G01*
G37*
G36*
G01*
X85057387Y-87584200D02*
X83852613Y-87584200D01*
G75*
G02*
X83578800Y-87310387I0J273813D01*
G01*
X83578800Y-84205613D01*
G75*
G02*
X83852613Y-83931800I273813J0D01*
G01*
X85057387Y-83931800D01*
G75*
G02*
X85331200Y-84205613I0J-273813D01*
G01*
X85331200Y-87310387D01*
G75*
G02*
X85057387Y-87584200I-273813J0D01*
G01*
G37*
G36*
G01*
X85057387Y-82184200D02*
X83852613Y-82184200D01*
G75*
G02*
X83578800Y-81910387I0J273813D01*
G01*
X83578800Y-78805613D01*
G75*
G02*
X83852613Y-78531800I273813J0D01*
G01*
X85057387Y-78531800D01*
G75*
G02*
X85331200Y-78805613I0J-273813D01*
G01*
X85331200Y-81910387D01*
G75*
G02*
X85057387Y-82184200I-273813J0D01*
G01*
G37*
G36*
G01*
X129542200Y-92958900D02*
X129542200Y-93985100D01*
G75*
G02*
X129254100Y-94273200I-288100J0D01*
G01*
X128677900Y-94273200D01*
G75*
G02*
X128389800Y-93985100I0J288100D01*
G01*
X128389800Y-92958900D01*
G75*
G02*
X128677900Y-92670800I288100J0D01*
G01*
X129254100Y-92670800D01*
G75*
G02*
X129542200Y-92958900I0J-288100D01*
G01*
G37*
G36*
G01*
X127642200Y-92958900D02*
X127642200Y-93985100D01*
G75*
G02*
X127354100Y-94273200I-288100J0D01*
G01*
X126777900Y-94273200D01*
G75*
G02*
X126489800Y-93985100I0J288100D01*
G01*
X126489800Y-92958900D01*
G75*
G02*
X126777900Y-92670800I288100J0D01*
G01*
X127354100Y-92670800D01*
G75*
G02*
X127642200Y-92958900I0J-288100D01*
G01*
G37*
G36*
G01*
X97103800Y-59202000D02*
X97103800Y-58302000D01*
G75*
G02*
X97180000Y-58225800I76200J0D01*
G01*
X98680000Y-58225800D01*
G75*
G02*
X98756200Y-58302000I0J-76200D01*
G01*
X98756200Y-59202000D01*
G75*
G02*
X98680000Y-59278200I-76200J0D01*
G01*
X97180000Y-59278200D01*
G75*
G02*
X97103800Y-59202000I0J76200D01*
G01*
G37*
G36*
G01*
X97103800Y-60472000D02*
X97103800Y-59572000D01*
G75*
G02*
X97180000Y-59495800I76200J0D01*
G01*
X98680000Y-59495800D01*
G75*
G02*
X98756200Y-59572000I0J-76200D01*
G01*
X98756200Y-60472000D01*
G75*
G02*
X98680000Y-60548200I-76200J0D01*
G01*
X97180000Y-60548200D01*
G75*
G02*
X97103800Y-60472000I0J76200D01*
G01*
G37*
G36*
G01*
X97103800Y-61742000D02*
X97103800Y-60842000D01*
G75*
G02*
X97180000Y-60765800I76200J0D01*
G01*
X98680000Y-60765800D01*
G75*
G02*
X98756200Y-60842000I0J-76200D01*
G01*
X98756200Y-61742000D01*
G75*
G02*
X98680000Y-61818200I-76200J0D01*
G01*
X97180000Y-61818200D01*
G75*
G02*
X97103800Y-61742000I0J76200D01*
G01*
G37*
G36*
G01*
X97103800Y-63012000D02*
X97103800Y-62112000D01*
G75*
G02*
X97180000Y-62035800I76200J0D01*
G01*
X98680000Y-62035800D01*
G75*
G02*
X98756200Y-62112000I0J-76200D01*
G01*
X98756200Y-63012000D01*
G75*
G02*
X98680000Y-63088200I-76200J0D01*
G01*
X97180000Y-63088200D01*
G75*
G02*
X97103800Y-63012000I0J76200D01*
G01*
G37*
G36*
G01*
X97103800Y-64282000D02*
X97103800Y-63382000D01*
G75*
G02*
X97180000Y-63305800I76200J0D01*
G01*
X98680000Y-63305800D01*
G75*
G02*
X98756200Y-63382000I0J-76200D01*
G01*
X98756200Y-64282000D01*
G75*
G02*
X98680000Y-64358200I-76200J0D01*
G01*
X97180000Y-64358200D01*
G75*
G02*
X97103800Y-64282000I0J76200D01*
G01*
G37*
G36*
G01*
X97103800Y-65552000D02*
X97103800Y-64652000D01*
G75*
G02*
X97180000Y-64575800I76200J0D01*
G01*
X98680000Y-64575800D01*
G75*
G02*
X98756200Y-64652000I0J-76200D01*
G01*
X98756200Y-65552000D01*
G75*
G02*
X98680000Y-65628200I-76200J0D01*
G01*
X97180000Y-65628200D01*
G75*
G02*
X97103800Y-65552000I0J76200D01*
G01*
G37*
G36*
G01*
X97103800Y-66822000D02*
X97103800Y-65922000D01*
G75*
G02*
X97180000Y-65845800I76200J0D01*
G01*
X98680000Y-65845800D01*
G75*
G02*
X98756200Y-65922000I0J-76200D01*
G01*
X98756200Y-66822000D01*
G75*
G02*
X98680000Y-66898200I-76200J0D01*
G01*
X97180000Y-66898200D01*
G75*
G02*
X97103800Y-66822000I0J76200D01*
G01*
G37*
G36*
G01*
X97103800Y-68092000D02*
X97103800Y-67192000D01*
G75*
G02*
X97180000Y-67115800I76200J0D01*
G01*
X98680000Y-67115800D01*
G75*
G02*
X98756200Y-67192000I0J-76200D01*
G01*
X98756200Y-68092000D01*
G75*
G02*
X98680000Y-68168200I-76200J0D01*
G01*
X97180000Y-68168200D01*
G75*
G02*
X97103800Y-68092000I0J76200D01*
G01*
G37*
G36*
G01*
X97103800Y-69362000D02*
X97103800Y-68462000D01*
G75*
G02*
X97180000Y-68385800I76200J0D01*
G01*
X98680000Y-68385800D01*
G75*
G02*
X98756200Y-68462000I0J-76200D01*
G01*
X98756200Y-69362000D01*
G75*
G02*
X98680000Y-69438200I-76200J0D01*
G01*
X97180000Y-69438200D01*
G75*
G02*
X97103800Y-69362000I0J76200D01*
G01*
G37*
G36*
G01*
X97103800Y-70632000D02*
X97103800Y-69732000D01*
G75*
G02*
X97180000Y-69655800I76200J0D01*
G01*
X98680000Y-69655800D01*
G75*
G02*
X98756200Y-69732000I0J-76200D01*
G01*
X98756200Y-70632000D01*
G75*
G02*
X98680000Y-70708200I-76200J0D01*
G01*
X97180000Y-70708200D01*
G75*
G02*
X97103800Y-70632000I0J76200D01*
G01*
G37*
G36*
G01*
X97103800Y-71902000D02*
X97103800Y-71002000D01*
G75*
G02*
X97180000Y-70925800I76200J0D01*
G01*
X98680000Y-70925800D01*
G75*
G02*
X98756200Y-71002000I0J-76200D01*
G01*
X98756200Y-71902000D01*
G75*
G02*
X98680000Y-71978200I-76200J0D01*
G01*
X97180000Y-71978200D01*
G75*
G02*
X97103800Y-71902000I0J76200D01*
G01*
G37*
G36*
G01*
X97103800Y-73172000D02*
X97103800Y-72272000D01*
G75*
G02*
X97180000Y-72195800I76200J0D01*
G01*
X98680000Y-72195800D01*
G75*
G02*
X98756200Y-72272000I0J-76200D01*
G01*
X98756200Y-73172000D01*
G75*
G02*
X98680000Y-73248200I-76200J0D01*
G01*
X97180000Y-73248200D01*
G75*
G02*
X97103800Y-73172000I0J76200D01*
G01*
G37*
G36*
G01*
X97103800Y-74442000D02*
X97103800Y-73542000D01*
G75*
G02*
X97180000Y-73465800I76200J0D01*
G01*
X98680000Y-73465800D01*
G75*
G02*
X98756200Y-73542000I0J-76200D01*
G01*
X98756200Y-74442000D01*
G75*
G02*
X98680000Y-74518200I-76200J0D01*
G01*
X97180000Y-74518200D01*
G75*
G02*
X97103800Y-74442000I0J76200D01*
G01*
G37*
G36*
G01*
X97103800Y-75712000D02*
X97103800Y-74812000D01*
G75*
G02*
X97180000Y-74735800I76200J0D01*
G01*
X98680000Y-74735800D01*
G75*
G02*
X98756200Y-74812000I0J-76200D01*
G01*
X98756200Y-75712000D01*
G75*
G02*
X98680000Y-75788200I-76200J0D01*
G01*
X97180000Y-75788200D01*
G75*
G02*
X97103800Y-75712000I0J76200D01*
G01*
G37*
G36*
G01*
X100145000Y-77338200D02*
X99245000Y-77338200D01*
G75*
G02*
X99168800Y-77262000I0J76200D01*
G01*
X99168800Y-75762000D01*
G75*
G02*
X99245000Y-75685800I76200J0D01*
G01*
X100145000Y-75685800D01*
G75*
G02*
X100221200Y-75762000I0J-76200D01*
G01*
X100221200Y-77262000D01*
G75*
G02*
X100145000Y-77338200I-76200J0D01*
G01*
G37*
G36*
G01*
X101415000Y-77338200D02*
X100515000Y-77338200D01*
G75*
G02*
X100438800Y-77262000I0J76200D01*
G01*
X100438800Y-75762000D01*
G75*
G02*
X100515000Y-75685800I76200J0D01*
G01*
X101415000Y-75685800D01*
G75*
G02*
X101491200Y-75762000I0J-76200D01*
G01*
X101491200Y-77262000D01*
G75*
G02*
X101415000Y-77338200I-76200J0D01*
G01*
G37*
G36*
G01*
X102685000Y-77338200D02*
X101785000Y-77338200D01*
G75*
G02*
X101708800Y-77262000I0J76200D01*
G01*
X101708800Y-75762000D01*
G75*
G02*
X101785000Y-75685800I76200J0D01*
G01*
X102685000Y-75685800D01*
G75*
G02*
X102761200Y-75762000I0J-76200D01*
G01*
X102761200Y-77262000D01*
G75*
G02*
X102685000Y-77338200I-76200J0D01*
G01*
G37*
G36*
G01*
X103955000Y-77338200D02*
X103055000Y-77338200D01*
G75*
G02*
X102978800Y-77262000I0J76200D01*
G01*
X102978800Y-75762000D01*
G75*
G02*
X103055000Y-75685800I76200J0D01*
G01*
X103955000Y-75685800D01*
G75*
G02*
X104031200Y-75762000I0J-76200D01*
G01*
X104031200Y-77262000D01*
G75*
G02*
X103955000Y-77338200I-76200J0D01*
G01*
G37*
G36*
G01*
X105225000Y-77338200D02*
X104325000Y-77338200D01*
G75*
G02*
X104248800Y-77262000I0J76200D01*
G01*
X104248800Y-75762000D01*
G75*
G02*
X104325000Y-75685800I76200J0D01*
G01*
X105225000Y-75685800D01*
G75*
G02*
X105301200Y-75762000I0J-76200D01*
G01*
X105301200Y-77262000D01*
G75*
G02*
X105225000Y-77338200I-76200J0D01*
G01*
G37*
G36*
G01*
X106495000Y-77338200D02*
X105595000Y-77338200D01*
G75*
G02*
X105518800Y-77262000I0J76200D01*
G01*
X105518800Y-75762000D01*
G75*
G02*
X105595000Y-75685800I76200J0D01*
G01*
X106495000Y-75685800D01*
G75*
G02*
X106571200Y-75762000I0J-76200D01*
G01*
X106571200Y-77262000D01*
G75*
G02*
X106495000Y-77338200I-76200J0D01*
G01*
G37*
G36*
G01*
X107765000Y-77338200D02*
X106865000Y-77338200D01*
G75*
G02*
X106788800Y-77262000I0J76200D01*
G01*
X106788800Y-75762000D01*
G75*
G02*
X106865000Y-75685800I76200J0D01*
G01*
X107765000Y-75685800D01*
G75*
G02*
X107841200Y-75762000I0J-76200D01*
G01*
X107841200Y-77262000D01*
G75*
G02*
X107765000Y-77338200I-76200J0D01*
G01*
G37*
G36*
G01*
X109035000Y-77338200D02*
X108135000Y-77338200D01*
G75*
G02*
X108058800Y-77262000I0J76200D01*
G01*
X108058800Y-75762000D01*
G75*
G02*
X108135000Y-75685800I76200J0D01*
G01*
X109035000Y-75685800D01*
G75*
G02*
X109111200Y-75762000I0J-76200D01*
G01*
X109111200Y-77262000D01*
G75*
G02*
X109035000Y-77338200I-76200J0D01*
G01*
G37*
G36*
G01*
X110305000Y-77338200D02*
X109405000Y-77338200D01*
G75*
G02*
X109328800Y-77262000I0J76200D01*
G01*
X109328800Y-75762000D01*
G75*
G02*
X109405000Y-75685800I76200J0D01*
G01*
X110305000Y-75685800D01*
G75*
G02*
X110381200Y-75762000I0J-76200D01*
G01*
X110381200Y-77262000D01*
G75*
G02*
X110305000Y-77338200I-76200J0D01*
G01*
G37*
G36*
G01*
X111575000Y-77338200D02*
X110675000Y-77338200D01*
G75*
G02*
X110598800Y-77262000I0J76200D01*
G01*
X110598800Y-75762000D01*
G75*
G02*
X110675000Y-75685800I76200J0D01*
G01*
X111575000Y-75685800D01*
G75*
G02*
X111651200Y-75762000I0J-76200D01*
G01*
X111651200Y-77262000D01*
G75*
G02*
X111575000Y-77338200I-76200J0D01*
G01*
G37*
G36*
G01*
X112845000Y-77338200D02*
X111945000Y-77338200D01*
G75*
G02*
X111868800Y-77262000I0J76200D01*
G01*
X111868800Y-75762000D01*
G75*
G02*
X111945000Y-75685800I76200J0D01*
G01*
X112845000Y-75685800D01*
G75*
G02*
X112921200Y-75762000I0J-76200D01*
G01*
X112921200Y-77262000D01*
G75*
G02*
X112845000Y-77338200I-76200J0D01*
G01*
G37*
G36*
G01*
X114115000Y-77338200D02*
X113215000Y-77338200D01*
G75*
G02*
X113138800Y-77262000I0J76200D01*
G01*
X113138800Y-75762000D01*
G75*
G02*
X113215000Y-75685800I76200J0D01*
G01*
X114115000Y-75685800D01*
G75*
G02*
X114191200Y-75762000I0J-76200D01*
G01*
X114191200Y-77262000D01*
G75*
G02*
X114115000Y-77338200I-76200J0D01*
G01*
G37*
G36*
G01*
X116256200Y-74812000D02*
X116256200Y-75712000D01*
G75*
G02*
X116180000Y-75788200I-76200J0D01*
G01*
X114680000Y-75788200D01*
G75*
G02*
X114603800Y-75712000I0J76200D01*
G01*
X114603800Y-74812000D01*
G75*
G02*
X114680000Y-74735800I76200J0D01*
G01*
X116180000Y-74735800D01*
G75*
G02*
X116256200Y-74812000I0J-76200D01*
G01*
G37*
G36*
G01*
X116256200Y-73542000D02*
X116256200Y-74442000D01*
G75*
G02*
X116180000Y-74518200I-76200J0D01*
G01*
X114680000Y-74518200D01*
G75*
G02*
X114603800Y-74442000I0J76200D01*
G01*
X114603800Y-73542000D01*
G75*
G02*
X114680000Y-73465800I76200J0D01*
G01*
X116180000Y-73465800D01*
G75*
G02*
X116256200Y-73542000I0J-76200D01*
G01*
G37*
G36*
G01*
X116256200Y-72272000D02*
X116256200Y-73172000D01*
G75*
G02*
X116180000Y-73248200I-76200J0D01*
G01*
X114680000Y-73248200D01*
G75*
G02*
X114603800Y-73172000I0J76200D01*
G01*
X114603800Y-72272000D01*
G75*
G02*
X114680000Y-72195800I76200J0D01*
G01*
X116180000Y-72195800D01*
G75*
G02*
X116256200Y-72272000I0J-76200D01*
G01*
G37*
G36*
G01*
X116256200Y-71002000D02*
X116256200Y-71902000D01*
G75*
G02*
X116180000Y-71978200I-76200J0D01*
G01*
X114680000Y-71978200D01*
G75*
G02*
X114603800Y-71902000I0J76200D01*
G01*
X114603800Y-71002000D01*
G75*
G02*
X114680000Y-70925800I76200J0D01*
G01*
X116180000Y-70925800D01*
G75*
G02*
X116256200Y-71002000I0J-76200D01*
G01*
G37*
G36*
G01*
X116256200Y-69732000D02*
X116256200Y-70632000D01*
G75*
G02*
X116180000Y-70708200I-76200J0D01*
G01*
X114680000Y-70708200D01*
G75*
G02*
X114603800Y-70632000I0J76200D01*
G01*
X114603800Y-69732000D01*
G75*
G02*
X114680000Y-69655800I76200J0D01*
G01*
X116180000Y-69655800D01*
G75*
G02*
X116256200Y-69732000I0J-76200D01*
G01*
G37*
G36*
G01*
X116256200Y-68462000D02*
X116256200Y-69362000D01*
G75*
G02*
X116180000Y-69438200I-76200J0D01*
G01*
X114680000Y-69438200D01*
G75*
G02*
X114603800Y-69362000I0J76200D01*
G01*
X114603800Y-68462000D01*
G75*
G02*
X114680000Y-68385800I76200J0D01*
G01*
X116180000Y-68385800D01*
G75*
G02*
X116256200Y-68462000I0J-76200D01*
G01*
G37*
G36*
G01*
X116256200Y-67192000D02*
X116256200Y-68092000D01*
G75*
G02*
X116180000Y-68168200I-76200J0D01*
G01*
X114680000Y-68168200D01*
G75*
G02*
X114603800Y-68092000I0J76200D01*
G01*
X114603800Y-67192000D01*
G75*
G02*
X114680000Y-67115800I76200J0D01*
G01*
X116180000Y-67115800D01*
G75*
G02*
X116256200Y-67192000I0J-76200D01*
G01*
G37*
G36*
G01*
X116256200Y-65922000D02*
X116256200Y-66822000D01*
G75*
G02*
X116180000Y-66898200I-76200J0D01*
G01*
X114680000Y-66898200D01*
G75*
G02*
X114603800Y-66822000I0J76200D01*
G01*
X114603800Y-65922000D01*
G75*
G02*
X114680000Y-65845800I76200J0D01*
G01*
X116180000Y-65845800D01*
G75*
G02*
X116256200Y-65922000I0J-76200D01*
G01*
G37*
G36*
G01*
X116256200Y-64652000D02*
X116256200Y-65552000D01*
G75*
G02*
X116180000Y-65628200I-76200J0D01*
G01*
X114680000Y-65628200D01*
G75*
G02*
X114603800Y-65552000I0J76200D01*
G01*
X114603800Y-64652000D01*
G75*
G02*
X114680000Y-64575800I76200J0D01*
G01*
X116180000Y-64575800D01*
G75*
G02*
X116256200Y-64652000I0J-76200D01*
G01*
G37*
G36*
G01*
X116256200Y-63382000D02*
X116256200Y-64282000D01*
G75*
G02*
X116180000Y-64358200I-76200J0D01*
G01*
X114680000Y-64358200D01*
G75*
G02*
X114603800Y-64282000I0J76200D01*
G01*
X114603800Y-63382000D01*
G75*
G02*
X114680000Y-63305800I76200J0D01*
G01*
X116180000Y-63305800D01*
G75*
G02*
X116256200Y-63382000I0J-76200D01*
G01*
G37*
G36*
G01*
X116256200Y-62112000D02*
X116256200Y-63012000D01*
G75*
G02*
X116180000Y-63088200I-76200J0D01*
G01*
X114680000Y-63088200D01*
G75*
G02*
X114603800Y-63012000I0J76200D01*
G01*
X114603800Y-62112000D01*
G75*
G02*
X114680000Y-62035800I76200J0D01*
G01*
X116180000Y-62035800D01*
G75*
G02*
X116256200Y-62112000I0J-76200D01*
G01*
G37*
G36*
G01*
X116256200Y-60842000D02*
X116256200Y-61742000D01*
G75*
G02*
X116180000Y-61818200I-76200J0D01*
G01*
X114680000Y-61818200D01*
G75*
G02*
X114603800Y-61742000I0J76200D01*
G01*
X114603800Y-60842000D01*
G75*
G02*
X114680000Y-60765800I76200J0D01*
G01*
X116180000Y-60765800D01*
G75*
G02*
X116256200Y-60842000I0J-76200D01*
G01*
G37*
G36*
G01*
X116256200Y-59572000D02*
X116256200Y-60472000D01*
G75*
G02*
X116180000Y-60548200I-76200J0D01*
G01*
X114680000Y-60548200D01*
G75*
G02*
X114603800Y-60472000I0J76200D01*
G01*
X114603800Y-59572000D01*
G75*
G02*
X114680000Y-59495800I76200J0D01*
G01*
X116180000Y-59495800D01*
G75*
G02*
X116256200Y-59572000I0J-76200D01*
G01*
G37*
G36*
G01*
X116256200Y-58302000D02*
X116256200Y-59202000D01*
G75*
G02*
X116180000Y-59278200I-76200J0D01*
G01*
X114680000Y-59278200D01*
G75*
G02*
X114603800Y-59202000I0J76200D01*
G01*
X114603800Y-58302000D01*
G75*
G02*
X114680000Y-58225800I76200J0D01*
G01*
X116180000Y-58225800D01*
G75*
G02*
X116256200Y-58302000I0J-76200D01*
G01*
G37*
G36*
G01*
X104306200Y-64622000D02*
X104306200Y-65522000D01*
G75*
G02*
X104230000Y-65598200I-76200J0D01*
G01*
X103330000Y-65598200D01*
G75*
G02*
X103253800Y-65522000I0J76200D01*
G01*
X103253800Y-64622000D01*
G75*
G02*
X103330000Y-64545800I76200J0D01*
G01*
X104230000Y-64545800D01*
G75*
G02*
X104306200Y-64622000I0J-76200D01*
G01*
G37*
G36*
G01*
X104306200Y-66022000D02*
X104306200Y-66922000D01*
G75*
G02*
X104230000Y-66998200I-76200J0D01*
G01*
X103330000Y-66998200D01*
G75*
G02*
X103253800Y-66922000I0J76200D01*
G01*
X103253800Y-66022000D01*
G75*
G02*
X103330000Y-65945800I76200J0D01*
G01*
X104230000Y-65945800D01*
G75*
G02*
X104306200Y-66022000I0J-76200D01*
G01*
G37*
G36*
G01*
X104306200Y-67422000D02*
X104306200Y-68322000D01*
G75*
G02*
X104230000Y-68398200I-76200J0D01*
G01*
X103330000Y-68398200D01*
G75*
G02*
X103253800Y-68322000I0J76200D01*
G01*
X103253800Y-67422000D01*
G75*
G02*
X103330000Y-67345800I76200J0D01*
G01*
X104230000Y-67345800D01*
G75*
G02*
X104306200Y-67422000I0J-76200D01*
G01*
G37*
G36*
G01*
X105706200Y-64622000D02*
X105706200Y-65522000D01*
G75*
G02*
X105630000Y-65598200I-76200J0D01*
G01*
X104730000Y-65598200D01*
G75*
G02*
X104653800Y-65522000I0J76200D01*
G01*
X104653800Y-64622000D01*
G75*
G02*
X104730000Y-64545800I76200J0D01*
G01*
X105630000Y-64545800D01*
G75*
G02*
X105706200Y-64622000I0J-76200D01*
G01*
G37*
G36*
G01*
X105706200Y-66022000D02*
X105706200Y-66922000D01*
G75*
G02*
X105630000Y-66998200I-76200J0D01*
G01*
X104730000Y-66998200D01*
G75*
G02*
X104653800Y-66922000I0J76200D01*
G01*
X104653800Y-66022000D01*
G75*
G02*
X104730000Y-65945800I76200J0D01*
G01*
X105630000Y-65945800D01*
G75*
G02*
X105706200Y-66022000I0J-76200D01*
G01*
G37*
G36*
G01*
X105706200Y-67422000D02*
X105706200Y-68322000D01*
G75*
G02*
X105630000Y-68398200I-76200J0D01*
G01*
X104730000Y-68398200D01*
G75*
G02*
X104653800Y-68322000I0J76200D01*
G01*
X104653800Y-67422000D01*
G75*
G02*
X104730000Y-67345800I76200J0D01*
G01*
X105630000Y-67345800D01*
G75*
G02*
X105706200Y-67422000I0J-76200D01*
G01*
G37*
G36*
G01*
X107106200Y-64622000D02*
X107106200Y-65522000D01*
G75*
G02*
X107030000Y-65598200I-76200J0D01*
G01*
X106130000Y-65598200D01*
G75*
G02*
X106053800Y-65522000I0J76200D01*
G01*
X106053800Y-64622000D01*
G75*
G02*
X106130000Y-64545800I76200J0D01*
G01*
X107030000Y-64545800D01*
G75*
G02*
X107106200Y-64622000I0J-76200D01*
G01*
G37*
G36*
G01*
X107106200Y-66022000D02*
X107106200Y-66922000D01*
G75*
G02*
X107030000Y-66998200I-76200J0D01*
G01*
X106130000Y-66998200D01*
G75*
G02*
X106053800Y-66922000I0J76200D01*
G01*
X106053800Y-66022000D01*
G75*
G02*
X106130000Y-65945800I76200J0D01*
G01*
X107030000Y-65945800D01*
G75*
G02*
X107106200Y-66022000I0J-76200D01*
G01*
G37*
G36*
G01*
X107106200Y-67422000D02*
X107106200Y-68322000D01*
G75*
G02*
X107030000Y-68398200I-76200J0D01*
G01*
X106130000Y-68398200D01*
G75*
G02*
X106053800Y-68322000I0J76200D01*
G01*
X106053800Y-67422000D01*
G75*
G02*
X106130000Y-67345800I76200J0D01*
G01*
X107030000Y-67345800D01*
G75*
G02*
X107106200Y-67422000I0J-76200D01*
G01*
G37*
G36*
G01*
X88902200Y-92958900D02*
X88902200Y-93985100D01*
G75*
G02*
X88614100Y-94273200I-288100J0D01*
G01*
X88037900Y-94273200D01*
G75*
G02*
X87749800Y-93985100I0J288100D01*
G01*
X87749800Y-92958900D01*
G75*
G02*
X88037900Y-92670800I288100J0D01*
G01*
X88614100Y-92670800D01*
G75*
G02*
X88902200Y-92958900I0J-288100D01*
G01*
G37*
G36*
G01*
X87002200Y-92958900D02*
X87002200Y-93985100D01*
G75*
G02*
X86714100Y-94273200I-288100J0D01*
G01*
X86137900Y-94273200D01*
G75*
G02*
X85849800Y-93985100I0J288100D01*
G01*
X85849800Y-92958900D01*
G75*
G02*
X86137900Y-92670800I288100J0D01*
G01*
X86714100Y-92670800D01*
G75*
G02*
X87002200Y-92958900I0J-288100D01*
G01*
G37*
G36*
G01*
X72503800Y-94549000D02*
X72503800Y-92649000D01*
G75*
G02*
X72580000Y-92572800I76200J0D01*
G01*
X73980000Y-92572800D01*
G75*
G02*
X74056200Y-92649000I0J-76200D01*
G01*
X74056200Y-94549000D01*
G75*
G02*
X73980000Y-94625200I-76200J0D01*
G01*
X72580000Y-94625200D01*
G75*
G02*
X72503800Y-94549000I0J76200D01*
G01*
G37*
G36*
G01*
X75803800Y-94549000D02*
X75803800Y-92649000D01*
G75*
G02*
X75880000Y-92572800I76200J0D01*
G01*
X77280000Y-92572800D01*
G75*
G02*
X77356200Y-92649000I0J-76200D01*
G01*
X77356200Y-94549000D01*
G75*
G02*
X77280000Y-94625200I-76200J0D01*
G01*
X75880000Y-94625200D01*
G75*
G02*
X75803800Y-94549000I0J76200D01*
G01*
G37*
G36*
G01*
X144206100Y-100935200D02*
X143829900Y-100935200D01*
G75*
G02*
X143641800Y-100747100I0J188100D01*
G01*
X143641800Y-99220900D01*
G75*
G02*
X143829900Y-99032800I188100J0D01*
G01*
X144206100Y-99032800D01*
G75*
G02*
X144394200Y-99220900I0J-188100D01*
G01*
X144394200Y-100747100D01*
G75*
G02*
X144206100Y-100935200I-188100J0D01*
G01*
G37*
G36*
G01*
X145476100Y-100935200D02*
X145099900Y-100935200D01*
G75*
G02*
X144911800Y-100747100I0J188100D01*
G01*
X144911800Y-99220900D01*
G75*
G02*
X145099900Y-99032800I188100J0D01*
G01*
X145476100Y-99032800D01*
G75*
G02*
X145664200Y-99220900I0J-188100D01*
G01*
X145664200Y-100747100D01*
G75*
G02*
X145476100Y-100935200I-188100J0D01*
G01*
G37*
G36*
G01*
X146746100Y-100935200D02*
X146369900Y-100935200D01*
G75*
G02*
X146181800Y-100747100I0J188100D01*
G01*
X146181800Y-99220900D01*
G75*
G02*
X146369900Y-99032800I188100J0D01*
G01*
X146746100Y-99032800D01*
G75*
G02*
X146934200Y-99220900I0J-188100D01*
G01*
X146934200Y-100747100D01*
G75*
G02*
X146746100Y-100935200I-188100J0D01*
G01*
G37*
G36*
G01*
X148016100Y-100935200D02*
X147639900Y-100935200D01*
G75*
G02*
X147451800Y-100747100I0J188100D01*
G01*
X147451800Y-99220900D01*
G75*
G02*
X147639900Y-99032800I188100J0D01*
G01*
X148016100Y-99032800D01*
G75*
G02*
X148204200Y-99220900I0J-188100D01*
G01*
X148204200Y-100747100D01*
G75*
G02*
X148016100Y-100935200I-188100J0D01*
G01*
G37*
G36*
G01*
X148016100Y-95785200D02*
X147639900Y-95785200D01*
G75*
G02*
X147451800Y-95597100I0J188100D01*
G01*
X147451800Y-94070900D01*
G75*
G02*
X147639900Y-93882800I188100J0D01*
G01*
X148016100Y-93882800D01*
G75*
G02*
X148204200Y-94070900I0J-188100D01*
G01*
X148204200Y-95597100D01*
G75*
G02*
X148016100Y-95785200I-188100J0D01*
G01*
G37*
G36*
G01*
X146746100Y-95785200D02*
X146369900Y-95785200D01*
G75*
G02*
X146181800Y-95597100I0J188100D01*
G01*
X146181800Y-94070900D01*
G75*
G02*
X146369900Y-93882800I188100J0D01*
G01*
X146746100Y-93882800D01*
G75*
G02*
X146934200Y-94070900I0J-188100D01*
G01*
X146934200Y-95597100D01*
G75*
G02*
X146746100Y-95785200I-188100J0D01*
G01*
G37*
G36*
G01*
X145476100Y-95785200D02*
X145099900Y-95785200D01*
G75*
G02*
X144911800Y-95597100I0J188100D01*
G01*
X144911800Y-94070900D01*
G75*
G02*
X145099900Y-93882800I188100J0D01*
G01*
X145476100Y-93882800D01*
G75*
G02*
X145664200Y-94070900I0J-188100D01*
G01*
X145664200Y-95597100D01*
G75*
G02*
X145476100Y-95785200I-188100J0D01*
G01*
G37*
G36*
G01*
X144206100Y-95785200D02*
X143829900Y-95785200D01*
G75*
G02*
X143641800Y-95597100I0J188100D01*
G01*
X143641800Y-94070900D01*
G75*
G02*
X143829900Y-93882800I188100J0D01*
G01*
X144206100Y-93882800D01*
G75*
G02*
X144394200Y-94070900I0J-188100D01*
G01*
X144394200Y-95597100D01*
G75*
G02*
X144206100Y-95785200I-188100J0D01*
G01*
G37*
G36*
G01*
X78361200Y-76448900D02*
X78361200Y-77475100D01*
G75*
G02*
X78073100Y-77763200I-288100J0D01*
G01*
X77496900Y-77763200D01*
G75*
G02*
X77208800Y-77475100I0J288100D01*
G01*
X77208800Y-76448900D01*
G75*
G02*
X77496900Y-76160800I288100J0D01*
G01*
X78073100Y-76160800D01*
G75*
G02*
X78361200Y-76448900I0J-288100D01*
G01*
G37*
G36*
G01*
X76461200Y-76448900D02*
X76461200Y-77475100D01*
G75*
G02*
X76173100Y-77763200I-288100J0D01*
G01*
X75596900Y-77763200D01*
G75*
G02*
X75308800Y-77475100I0J288100D01*
G01*
X75308800Y-76448900D01*
G75*
G02*
X75596900Y-76160800I288100J0D01*
G01*
X76173100Y-76160800D01*
G75*
G02*
X76461200Y-76448900I0J-288100D01*
G01*
G37*
G36*
G01*
X60941030Y-57889200D02*
X59962970Y-57889200D01*
G75*
G02*
X59675800Y-57602030I0J287170D01*
G01*
X59675800Y-56998970D01*
G75*
G02*
X59962970Y-56711800I287170J0D01*
G01*
X60941030Y-56711800D01*
G75*
G02*
X61228200Y-56998970I0J-287170D01*
G01*
X61228200Y-57602030D01*
G75*
G02*
X60941030Y-57889200I-287170J0D01*
G01*
G37*
G36*
G01*
X60941030Y-56064200D02*
X59962970Y-56064200D01*
G75*
G02*
X59675800Y-55777030I0J287170D01*
G01*
X59675800Y-55173970D01*
G75*
G02*
X59962970Y-54886800I287170J0D01*
G01*
X60941030Y-54886800D01*
G75*
G02*
X61228200Y-55173970I0J-287170D01*
G01*
X61228200Y-55777030D01*
G75*
G02*
X60941030Y-56064200I-287170J0D01*
G01*
G37*
G36*
G01*
X73510200Y-62502970D02*
X73510200Y-63481030D01*
G75*
G02*
X73223030Y-63768200I-287170J0D01*
G01*
X72619970Y-63768200D01*
G75*
G02*
X72332800Y-63481030I0J287170D01*
G01*
X72332800Y-62502970D01*
G75*
G02*
X72619970Y-62215800I287170J0D01*
G01*
X73223030Y-62215800D01*
G75*
G02*
X73510200Y-62502970I0J-287170D01*
G01*
G37*
G36*
G01*
X71685200Y-62502970D02*
X71685200Y-63481030D01*
G75*
G02*
X71398030Y-63768200I-287170J0D01*
G01*
X70794970Y-63768200D01*
G75*
G02*
X70507800Y-63481030I0J287170D01*
G01*
X70507800Y-62502970D01*
G75*
G02*
X70794970Y-62215800I287170J0D01*
G01*
X71398030Y-62215800D01*
G75*
G02*
X71685200Y-62502970I0J-287170D01*
G01*
G37*
G36*
G01*
X99037200Y-95776970D02*
X99037200Y-96755030D01*
G75*
G02*
X98750030Y-97042200I-287170J0D01*
G01*
X98146970Y-97042200D01*
G75*
G02*
X97859800Y-96755030I0J287170D01*
G01*
X97859800Y-95776970D01*
G75*
G02*
X98146970Y-95489800I287170J0D01*
G01*
X98750030Y-95489800D01*
G75*
G02*
X99037200Y-95776970I0J-287170D01*
G01*
G37*
G36*
G01*
X97212200Y-95776970D02*
X97212200Y-96755030D01*
G75*
G02*
X96925030Y-97042200I-287170J0D01*
G01*
X96321970Y-97042200D01*
G75*
G02*
X96034800Y-96755030I0J287170D01*
G01*
X96034800Y-95776970D01*
G75*
G02*
X96321970Y-95489800I287170J0D01*
G01*
X96925030Y-95489800D01*
G75*
G02*
X97212200Y-95776970I0J-287170D01*
G01*
G37*
G36*
G01*
X109598800Y-81412100D02*
X109598800Y-80385900D01*
G75*
G02*
X109886900Y-80097800I288100J0D01*
G01*
X110463100Y-80097800D01*
G75*
G02*
X110751200Y-80385900I0J-288100D01*
G01*
X110751200Y-81412100D01*
G75*
G02*
X110463100Y-81700200I-288100J0D01*
G01*
X109886900Y-81700200D01*
G75*
G02*
X109598800Y-81412100I0J288100D01*
G01*
G37*
G36*
G01*
X111498800Y-81412100D02*
X111498800Y-80385900D01*
G75*
G02*
X111786900Y-80097800I288100J0D01*
G01*
X112363100Y-80097800D01*
G75*
G02*
X112651200Y-80385900I0J-288100D01*
G01*
X112651200Y-81412100D01*
G75*
G02*
X112363100Y-81700200I-288100J0D01*
G01*
X111786900Y-81700200D01*
G75*
G02*
X111498800Y-81412100I0J288100D01*
G01*
G37*
G36*
G01*
X66672800Y-84460100D02*
X66672800Y-83433900D01*
G75*
G02*
X66960900Y-83145800I288100J0D01*
G01*
X67537100Y-83145800D01*
G75*
G02*
X67825200Y-83433900I0J-288100D01*
G01*
X67825200Y-84460100D01*
G75*
G02*
X67537100Y-84748200I-288100J0D01*
G01*
X66960900Y-84748200D01*
G75*
G02*
X66672800Y-84460100I0J288100D01*
G01*
G37*
G36*
G01*
X68572800Y-84460100D02*
X68572800Y-83433900D01*
G75*
G02*
X68860900Y-83145800I288100J0D01*
G01*
X69437100Y-83145800D01*
G75*
G02*
X69725200Y-83433900I0J-288100D01*
G01*
X69725200Y-84460100D01*
G75*
G02*
X69437100Y-84748200I-288100J0D01*
G01*
X68860900Y-84748200D01*
G75*
G02*
X68572800Y-84460100I0J288100D01*
G01*
G37*
G36*
G01*
X55438900Y-69751800D02*
X56765100Y-69751800D01*
G75*
G02*
X56953200Y-69939900I0J-188100D01*
G01*
X56953200Y-70316100D01*
G75*
G02*
X56765100Y-70504200I-188100J0D01*
G01*
X55438900Y-70504200D01*
G75*
G02*
X55250800Y-70316100I0J188100D01*
G01*
X55250800Y-69939900D01*
G75*
G02*
X55438900Y-69751800I188100J0D01*
G01*
G37*
G36*
G01*
X55438900Y-70751800D02*
X56765100Y-70751800D01*
G75*
G02*
X56953200Y-70939900I0J-188100D01*
G01*
X56953200Y-71316100D01*
G75*
G02*
X56765100Y-71504200I-188100J0D01*
G01*
X55438900Y-71504200D01*
G75*
G02*
X55250800Y-71316100I0J188100D01*
G01*
X55250800Y-70939900D01*
G75*
G02*
X55438900Y-70751800I188100J0D01*
G01*
G37*
G36*
G01*
X55438900Y-71751800D02*
X56765100Y-71751800D01*
G75*
G02*
X56953200Y-71939900I0J-188100D01*
G01*
X56953200Y-72316100D01*
G75*
G02*
X56765100Y-72504200I-188100J0D01*
G01*
X55438900Y-72504200D01*
G75*
G02*
X55250800Y-72316100I0J188100D01*
G01*
X55250800Y-71939900D01*
G75*
G02*
X55438900Y-71751800I188100J0D01*
G01*
G37*
G36*
G01*
X55438900Y-72751800D02*
X56765100Y-72751800D01*
G75*
G02*
X56953200Y-72939900I0J-188100D01*
G01*
X56953200Y-73316100D01*
G75*
G02*
X56765100Y-73504200I-188100J0D01*
G01*
X55438900Y-73504200D01*
G75*
G02*
X55250800Y-73316100I0J188100D01*
G01*
X55250800Y-72939900D01*
G75*
G02*
X55438900Y-72751800I188100J0D01*
G01*
G37*
G36*
G01*
X51532550Y-68151800D02*
X52921450Y-68151800D01*
G75*
G02*
X53203200Y-68433550I0J-281750D01*
G01*
X53203200Y-69222450D01*
G75*
G02*
X52921450Y-69504200I-281750J0D01*
G01*
X51532550Y-69504200D01*
G75*
G02*
X51250800Y-69222450I0J281750D01*
G01*
X51250800Y-68433550D01*
G75*
G02*
X51532550Y-68151800I281750J0D01*
G01*
G37*
G36*
G01*
X51532550Y-73751800D02*
X52921450Y-73751800D01*
G75*
G02*
X53203200Y-74033550I0J-281750D01*
G01*
X53203200Y-74822450D01*
G75*
G02*
X52921450Y-75104200I-281750J0D01*
G01*
X51532550Y-75104200D01*
G75*
G02*
X51250800Y-74822450I0J281750D01*
G01*
X51250800Y-74033550D01*
G75*
G02*
X51532550Y-73751800I281750J0D01*
G01*
G37*
G36*
G01*
X92334100Y-60962200D02*
X91307900Y-60962200D01*
G75*
G02*
X91019800Y-60674100I0J288100D01*
G01*
X91019800Y-60097900D01*
G75*
G02*
X91307900Y-59809800I288100J0D01*
G01*
X92334100Y-59809800D01*
G75*
G02*
X92622200Y-60097900I0J-288100D01*
G01*
X92622200Y-60674100D01*
G75*
G02*
X92334100Y-60962200I-288100J0D01*
G01*
G37*
G36*
G01*
X92334100Y-59062200D02*
X91307900Y-59062200D01*
G75*
G02*
X91019800Y-58774100I0J288100D01*
G01*
X91019800Y-58197900D01*
G75*
G02*
X91307900Y-57909800I288100J0D01*
G01*
X92334100Y-57909800D01*
G75*
G02*
X92622200Y-58197900I0J-288100D01*
G01*
X92622200Y-58774100D01*
G75*
G02*
X92334100Y-59062200I-288100J0D01*
G01*
G37*
G36*
G01*
X144170999Y-85741195D02*
X141670999Y-85741195D01*
G75*
G02*
X141594799Y-85664995I0J76200D01*
G01*
X141594799Y-83164995D01*
G75*
G02*
X141670999Y-83088795I76200J0D01*
G01*
X144170999Y-83088795D01*
G75*
G02*
X144247199Y-83164995I0J-76200D01*
G01*
X144247199Y-85664995D01*
G75*
G02*
X144170999Y-85741195I-76200J0D01*
G01*
G37*
D10*
X142920999Y-79414995D03*
G36*
G01*
X66164800Y-63505100D02*
X66164800Y-62478900D01*
G75*
G02*
X66452900Y-62190800I288100J0D01*
G01*
X67029100Y-62190800D01*
G75*
G02*
X67317200Y-62478900I0J-288100D01*
G01*
X67317200Y-63505100D01*
G75*
G02*
X67029100Y-63793200I-288100J0D01*
G01*
X66452900Y-63793200D01*
G75*
G02*
X66164800Y-63505100I0J288100D01*
G01*
G37*
G36*
G01*
X68064800Y-63505100D02*
X68064800Y-62478900D01*
G75*
G02*
X68352900Y-62190800I288100J0D01*
G01*
X68929100Y-62190800D01*
G75*
G02*
X69217200Y-62478900I0J-288100D01*
G01*
X69217200Y-63505100D01*
G75*
G02*
X68929100Y-63793200I-288100J0D01*
G01*
X68352900Y-63793200D01*
G75*
G02*
X68064800Y-63505100I0J288100D01*
G01*
G37*
G36*
G01*
X82068000Y-61305800D02*
X83568000Y-61305800D01*
G75*
G02*
X83644200Y-61382000I0J-76200D01*
G01*
X83644200Y-63382000D01*
G75*
G02*
X83568000Y-63458200I-76200J0D01*
G01*
X82068000Y-63458200D01*
G75*
G02*
X81991800Y-63382000I0J76200D01*
G01*
X81991800Y-61382000D01*
G75*
G02*
X82068000Y-61305800I76200J0D01*
G01*
G37*
G36*
G01*
X79768000Y-61305800D02*
X81268000Y-61305800D01*
G75*
G02*
X81344200Y-61382000I0J-76200D01*
G01*
X81344200Y-63382000D01*
G75*
G02*
X81268000Y-63458200I-76200J0D01*
G01*
X79768000Y-63458200D01*
G75*
G02*
X79691800Y-63382000I0J76200D01*
G01*
X79691800Y-61382000D01*
G75*
G02*
X79768000Y-61305800I76200J0D01*
G01*
G37*
G36*
G01*
X78618000Y-67605800D02*
X82418000Y-67605800D01*
G75*
G02*
X82494200Y-67682000I0J-76200D01*
G01*
X82494200Y-69682000D01*
G75*
G02*
X82418000Y-69758200I-76200J0D01*
G01*
X78618000Y-69758200D01*
G75*
G02*
X78541800Y-69682000I0J76200D01*
G01*
X78541800Y-67682000D01*
G75*
G02*
X78618000Y-67605800I76200J0D01*
G01*
G37*
G36*
G01*
X77468000Y-61305800D02*
X78968000Y-61305800D01*
G75*
G02*
X79044200Y-61382000I0J-76200D01*
G01*
X79044200Y-63382000D01*
G75*
G02*
X78968000Y-63458200I-76200J0D01*
G01*
X77468000Y-63458200D01*
G75*
G02*
X77391800Y-63382000I0J76200D01*
G01*
X77391800Y-61382000D01*
G75*
G02*
X77468000Y-61305800I76200J0D01*
G01*
G37*
G36*
G01*
X139677200Y-95776970D02*
X139677200Y-96755030D01*
G75*
G02*
X139390030Y-97042200I-287170J0D01*
G01*
X138786970Y-97042200D01*
G75*
G02*
X138499800Y-96755030I0J287170D01*
G01*
X138499800Y-95776970D01*
G75*
G02*
X138786970Y-95489800I287170J0D01*
G01*
X139390030Y-95489800D01*
G75*
G02*
X139677200Y-95776970I0J-287170D01*
G01*
G37*
G36*
G01*
X137852200Y-95776970D02*
X137852200Y-96755030D01*
G75*
G02*
X137565030Y-97042200I-287170J0D01*
G01*
X136961970Y-97042200D01*
G75*
G02*
X136674800Y-96755030I0J287170D01*
G01*
X136674800Y-95776970D01*
G75*
G02*
X136961970Y-95489800I287170J0D01*
G01*
X137565030Y-95489800D01*
G75*
G02*
X137852200Y-95776970I0J-287170D01*
G01*
G37*
D11*
X56896000Y-80477000D03*
X56896000Y-84877000D03*
G36*
G01*
X58396000Y-80725000D02*
X60696000Y-80725000D01*
G75*
G02*
X60798000Y-80827000I0J-102000D01*
G01*
X60798000Y-81327000D01*
G75*
G02*
X60696000Y-81429000I-102000J0D01*
G01*
X58396000Y-81429000D01*
G75*
G02*
X58294000Y-81327000I0J102000D01*
G01*
X58294000Y-80827000D01*
G75*
G02*
X58396000Y-80725000I102000J0D01*
G01*
G37*
G36*
G01*
X58396000Y-81525000D02*
X60696000Y-81525000D01*
G75*
G02*
X60798000Y-81627000I0J-102000D01*
G01*
X60798000Y-82127000D01*
G75*
G02*
X60696000Y-82229000I-102000J0D01*
G01*
X58396000Y-82229000D01*
G75*
G02*
X58294000Y-82127000I0J102000D01*
G01*
X58294000Y-81627000D01*
G75*
G02*
X58396000Y-81525000I102000J0D01*
G01*
G37*
G36*
G01*
X58396000Y-82325000D02*
X60696000Y-82325000D01*
G75*
G02*
X60798000Y-82427000I0J-102000D01*
G01*
X60798000Y-82927000D01*
G75*
G02*
X60696000Y-83029000I-102000J0D01*
G01*
X58396000Y-83029000D01*
G75*
G02*
X58294000Y-82927000I0J102000D01*
G01*
X58294000Y-82427000D01*
G75*
G02*
X58396000Y-82325000I102000J0D01*
G01*
G37*
G36*
G01*
X58396000Y-83125000D02*
X60696000Y-83125000D01*
G75*
G02*
X60798000Y-83227000I0J-102000D01*
G01*
X60798000Y-83727000D01*
G75*
G02*
X60696000Y-83829000I-102000J0D01*
G01*
X58396000Y-83829000D01*
G75*
G02*
X58294000Y-83727000I0J102000D01*
G01*
X58294000Y-83227000D01*
G75*
G02*
X58396000Y-83125000I102000J0D01*
G01*
G37*
G36*
G01*
X58396000Y-83925000D02*
X60696000Y-83925000D01*
G75*
G02*
X60798000Y-84027000I0J-102000D01*
G01*
X60798000Y-84527000D01*
G75*
G02*
X60696000Y-84629000I-102000J0D01*
G01*
X58396000Y-84629000D01*
G75*
G02*
X58294000Y-84527000I0J102000D01*
G01*
X58294000Y-84027000D01*
G75*
G02*
X58396000Y-83925000I102000J0D01*
G01*
G37*
G36*
G01*
X58196000Y-77125000D02*
X60696000Y-77125000D01*
G75*
G02*
X60798000Y-77227000I0J-102000D01*
G01*
X60798000Y-79227000D01*
G75*
G02*
X60696000Y-79329000I-102000J0D01*
G01*
X58196000Y-79329000D01*
G75*
G02*
X58094000Y-79227000I0J102000D01*
G01*
X58094000Y-77227000D01*
G75*
G02*
X58196000Y-77125000I102000J0D01*
G01*
G37*
G36*
G01*
X52696000Y-77125000D02*
X55196000Y-77125000D01*
G75*
G02*
X55298000Y-77227000I0J-102000D01*
G01*
X55298000Y-79227000D01*
G75*
G02*
X55196000Y-79329000I-102000J0D01*
G01*
X52696000Y-79329000D01*
G75*
G02*
X52594000Y-79227000I0J102000D01*
G01*
X52594000Y-77227000D01*
G75*
G02*
X52696000Y-77125000I102000J0D01*
G01*
G37*
G36*
G01*
X58196000Y-86025000D02*
X60696000Y-86025000D01*
G75*
G02*
X60798000Y-86127000I0J-102000D01*
G01*
X60798000Y-88127000D01*
G75*
G02*
X60696000Y-88229000I-102000J0D01*
G01*
X58196000Y-88229000D01*
G75*
G02*
X58094000Y-88127000I0J102000D01*
G01*
X58094000Y-86127000D01*
G75*
G02*
X58196000Y-86025000I102000J0D01*
G01*
G37*
G36*
G01*
X52696000Y-86025000D02*
X55196000Y-86025000D01*
G75*
G02*
X55298000Y-86127000I0J-102000D01*
G01*
X55298000Y-88127000D01*
G75*
G02*
X55196000Y-88229000I-102000J0D01*
G01*
X52696000Y-88229000D01*
G75*
G02*
X52594000Y-88127000I0J102000D01*
G01*
X52594000Y-86127000D01*
G75*
G02*
X52696000Y-86025000I102000J0D01*
G01*
G37*
D12*
X145542000Y-55118000D03*
D13*
X72136000Y-97767000D03*
D14*
X72136000Y-103767000D03*
D15*
X76836000Y-100767000D03*
G36*
G01*
X93591000Y-65727200D02*
X92591000Y-65727200D01*
G75*
G02*
X92514800Y-65651000I0J76200D01*
G01*
X92514800Y-64651000D01*
G75*
G02*
X92591000Y-64574800I76200J0D01*
G01*
X93591000Y-64574800D01*
G75*
G02*
X93667200Y-64651000I0J-76200D01*
G01*
X93667200Y-65651000D01*
G75*
G02*
X93591000Y-65727200I-76200J0D01*
G01*
G37*
D16*
X94361000Y-65151000D03*
X95631000Y-65151000D03*
G36*
G01*
X73276800Y-84968100D02*
X73276800Y-83941900D01*
G75*
G02*
X73564900Y-83653800I288100J0D01*
G01*
X74141100Y-83653800D01*
G75*
G02*
X74429200Y-83941900I0J-288100D01*
G01*
X74429200Y-84968100D01*
G75*
G02*
X74141100Y-85256200I-288100J0D01*
G01*
X73564900Y-85256200D01*
G75*
G02*
X73276800Y-84968100I0J288100D01*
G01*
G37*
G36*
G01*
X75176800Y-84968100D02*
X75176800Y-83941900D01*
G75*
G02*
X75464900Y-83653800I288100J0D01*
G01*
X76041100Y-83653800D01*
G75*
G02*
X76329200Y-83941900I0J-288100D01*
G01*
X76329200Y-84968100D01*
G75*
G02*
X76041100Y-85256200I-288100J0D01*
G01*
X75464900Y-85256200D01*
G75*
G02*
X75176800Y-84968100I0J288100D01*
G01*
G37*
G36*
G01*
X139702200Y-92958900D02*
X139702200Y-93985100D01*
G75*
G02*
X139414100Y-94273200I-288100J0D01*
G01*
X138837900Y-94273200D01*
G75*
G02*
X138549800Y-93985100I0J288100D01*
G01*
X138549800Y-92958900D01*
G75*
G02*
X138837900Y-92670800I288100J0D01*
G01*
X139414100Y-92670800D01*
G75*
G02*
X139702200Y-92958900I0J-288100D01*
G01*
G37*
G36*
G01*
X137802200Y-92958900D02*
X137802200Y-93985100D01*
G75*
G02*
X137514100Y-94273200I-288100J0D01*
G01*
X136937900Y-94273200D01*
G75*
G02*
X136649800Y-93985100I0J288100D01*
G01*
X136649800Y-92958900D01*
G75*
G02*
X136937900Y-92670800I288100J0D01*
G01*
X137514100Y-92670800D01*
G75*
G02*
X137802200Y-92958900I0J-288100D01*
G01*
G37*
G36*
G01*
X129517200Y-95776970D02*
X129517200Y-96755030D01*
G75*
G02*
X129230030Y-97042200I-287170J0D01*
G01*
X128626970Y-97042200D01*
G75*
G02*
X128339800Y-96755030I0J287170D01*
G01*
X128339800Y-95776970D01*
G75*
G02*
X128626970Y-95489800I287170J0D01*
G01*
X129230030Y-95489800D01*
G75*
G02*
X129517200Y-95776970I0J-287170D01*
G01*
G37*
G36*
G01*
X127692200Y-95776970D02*
X127692200Y-96755030D01*
G75*
G02*
X127405030Y-97042200I-287170J0D01*
G01*
X126801970Y-97042200D01*
G75*
G02*
X126514800Y-96755030I0J287170D01*
G01*
X126514800Y-95776970D01*
G75*
G02*
X126801970Y-95489800I287170J0D01*
G01*
X127405030Y-95489800D01*
G75*
G02*
X127692200Y-95776970I0J-287170D01*
G01*
G37*
G36*
G01*
X133337000Y-64690200D02*
X132137000Y-64690200D01*
G75*
G02*
X132060800Y-64614000I0J76200D01*
G01*
X132060800Y-63914000D01*
G75*
G02*
X132137000Y-63837800I76200J0D01*
G01*
X133337000Y-63837800D01*
G75*
G02*
X133413200Y-63914000I0J-76200D01*
G01*
X133413200Y-64614000D01*
G75*
G02*
X133337000Y-64690200I-76200J0D01*
G01*
G37*
G36*
G01*
X133337000Y-65790200D02*
X132137000Y-65790200D01*
G75*
G02*
X132060800Y-65714000I0J76200D01*
G01*
X132060800Y-65014000D01*
G75*
G02*
X132137000Y-64937800I76200J0D01*
G01*
X133337000Y-64937800D01*
G75*
G02*
X133413200Y-65014000I0J-76200D01*
G01*
X133413200Y-65714000D01*
G75*
G02*
X133337000Y-65790200I-76200J0D01*
G01*
G37*
G36*
G01*
X133337000Y-66890200D02*
X132137000Y-66890200D01*
G75*
G02*
X132060800Y-66814000I0J76200D01*
G01*
X132060800Y-66114000D01*
G75*
G02*
X132137000Y-66037800I76200J0D01*
G01*
X133337000Y-66037800D01*
G75*
G02*
X133413200Y-66114000I0J-76200D01*
G01*
X133413200Y-66814000D01*
G75*
G02*
X133337000Y-66890200I-76200J0D01*
G01*
G37*
G36*
G01*
X133337000Y-67990200D02*
X132137000Y-67990200D01*
G75*
G02*
X132060800Y-67914000I0J76200D01*
G01*
X132060800Y-67214000D01*
G75*
G02*
X132137000Y-67137800I76200J0D01*
G01*
X133337000Y-67137800D01*
G75*
G02*
X133413200Y-67214000I0J-76200D01*
G01*
X133413200Y-67914000D01*
G75*
G02*
X133337000Y-67990200I-76200J0D01*
G01*
G37*
G36*
G01*
X133337000Y-69090200D02*
X132137000Y-69090200D01*
G75*
G02*
X132060800Y-69014000I0J76200D01*
G01*
X132060800Y-68314000D01*
G75*
G02*
X132137000Y-68237800I76200J0D01*
G01*
X133337000Y-68237800D01*
G75*
G02*
X133413200Y-68314000I0J-76200D01*
G01*
X133413200Y-69014000D01*
G75*
G02*
X133337000Y-69090200I-76200J0D01*
G01*
G37*
G36*
G01*
X133337000Y-70190200D02*
X132137000Y-70190200D01*
G75*
G02*
X132060800Y-70114000I0J76200D01*
G01*
X132060800Y-69414000D01*
G75*
G02*
X132137000Y-69337800I76200J0D01*
G01*
X133337000Y-69337800D01*
G75*
G02*
X133413200Y-69414000I0J-76200D01*
G01*
X133413200Y-70114000D01*
G75*
G02*
X133337000Y-70190200I-76200J0D01*
G01*
G37*
G36*
G01*
X133337000Y-71290200D02*
X132137000Y-71290200D01*
G75*
G02*
X132060800Y-71214000I0J76200D01*
G01*
X132060800Y-70514000D01*
G75*
G02*
X132137000Y-70437800I76200J0D01*
G01*
X133337000Y-70437800D01*
G75*
G02*
X133413200Y-70514000I0J-76200D01*
G01*
X133413200Y-71214000D01*
G75*
G02*
X133337000Y-71290200I-76200J0D01*
G01*
G37*
G36*
G01*
X133337000Y-72390200D02*
X132137000Y-72390200D01*
G75*
G02*
X132060800Y-72314000I0J76200D01*
G01*
X132060800Y-71614000D01*
G75*
G02*
X132137000Y-71537800I76200J0D01*
G01*
X133337000Y-71537800D01*
G75*
G02*
X133413200Y-71614000I0J-76200D01*
G01*
X133413200Y-72314000D01*
G75*
G02*
X133337000Y-72390200I-76200J0D01*
G01*
G37*
G36*
G01*
X133337000Y-73340200D02*
X132137000Y-73340200D01*
G75*
G02*
X132060800Y-73264000I0J76200D01*
G01*
X132060800Y-72564000D01*
G75*
G02*
X132137000Y-72487800I76200J0D01*
G01*
X133337000Y-72487800D01*
G75*
G02*
X133413200Y-72564000I0J-76200D01*
G01*
X133413200Y-73264000D01*
G75*
G02*
X133337000Y-73340200I-76200J0D01*
G01*
G37*
G36*
G01*
X143637000Y-74440200D02*
X142837000Y-74440200D01*
G75*
G02*
X142760800Y-74364000I0J76200D01*
G01*
X142760800Y-73364000D01*
G75*
G02*
X142837000Y-73287800I76200J0D01*
G01*
X143637000Y-73287800D01*
G75*
G02*
X143713200Y-73364000I0J-76200D01*
G01*
X143713200Y-74364000D01*
G75*
G02*
X143637000Y-74440200I-76200J0D01*
G01*
G37*
G36*
G01*
X137637000Y-74440200D02*
X136437000Y-74440200D01*
G75*
G02*
X136360800Y-74364000I0J76200D01*
G01*
X136360800Y-73364000D01*
G75*
G02*
X136437000Y-73287800I76200J0D01*
G01*
X137637000Y-73287800D01*
G75*
G02*
X137713200Y-73364000I0J-76200D01*
G01*
X137713200Y-74364000D01*
G75*
G02*
X137637000Y-74440200I-76200J0D01*
G01*
G37*
G36*
G01*
X148787000Y-74440200D02*
X145987000Y-74440200D01*
G75*
G02*
X145910800Y-74364000I0J76200D01*
G01*
X145910800Y-73364000D01*
G75*
G02*
X145987000Y-73287800I76200J0D01*
G01*
X148787000Y-73287800D01*
G75*
G02*
X148863200Y-73364000I0J-76200D01*
G01*
X148863200Y-74364000D01*
G75*
G02*
X148787000Y-74440200I-76200J0D01*
G01*
G37*
G36*
G01*
X133337000Y-63290200D02*
X132137000Y-63290200D01*
G75*
G02*
X132060800Y-63214000I0J76200D01*
G01*
X132060800Y-62214000D01*
G75*
G02*
X132137000Y-62137800I76200J0D01*
G01*
X133337000Y-62137800D01*
G75*
G02*
X133413200Y-62214000I0J-76200D01*
G01*
X133413200Y-63214000D01*
G75*
G02*
X133337000Y-63290200I-76200J0D01*
G01*
G37*
G36*
G01*
X148787000Y-61090200D02*
X146887000Y-61090200D01*
G75*
G02*
X146810800Y-61014000I0J76200D01*
G01*
X146810800Y-59714000D01*
G75*
G02*
X146887000Y-59637800I76200J0D01*
G01*
X148787000Y-59637800D01*
G75*
G02*
X148863200Y-59714000I0J-76200D01*
G01*
X148863200Y-61014000D01*
G75*
G02*
X148787000Y-61090200I-76200J0D01*
G01*
G37*
G36*
G01*
X86849030Y-70335200D02*
X85870970Y-70335200D01*
G75*
G02*
X85583800Y-70048030I0J287170D01*
G01*
X85583800Y-69444970D01*
G75*
G02*
X85870970Y-69157800I287170J0D01*
G01*
X86849030Y-69157800D01*
G75*
G02*
X87136200Y-69444970I0J-287170D01*
G01*
X87136200Y-70048030D01*
G75*
G02*
X86849030Y-70335200I-287170J0D01*
G01*
G37*
G36*
G01*
X86849030Y-68510200D02*
X85870970Y-68510200D01*
G75*
G02*
X85583800Y-68223030I0J287170D01*
G01*
X85583800Y-67619970D01*
G75*
G02*
X85870970Y-67332800I287170J0D01*
G01*
X86849030Y-67332800D01*
G75*
G02*
X87136200Y-67619970I0J-287170D01*
G01*
X87136200Y-68223030D01*
G75*
G02*
X86849030Y-68510200I-287170J0D01*
G01*
G37*
G36*
G01*
X134597200Y-95776970D02*
X134597200Y-96755030D01*
G75*
G02*
X134310030Y-97042200I-287170J0D01*
G01*
X133706970Y-97042200D01*
G75*
G02*
X133419800Y-96755030I0J287170D01*
G01*
X133419800Y-95776970D01*
G75*
G02*
X133706970Y-95489800I287170J0D01*
G01*
X134310030Y-95489800D01*
G75*
G02*
X134597200Y-95776970I0J-287170D01*
G01*
G37*
G36*
G01*
X132772200Y-95776970D02*
X132772200Y-96755030D01*
G75*
G02*
X132485030Y-97042200I-287170J0D01*
G01*
X131881970Y-97042200D01*
G75*
G02*
X131594800Y-96755030I0J287170D01*
G01*
X131594800Y-95776970D01*
G75*
G02*
X131881970Y-95489800I287170J0D01*
G01*
X132485030Y-95489800D01*
G75*
G02*
X132772200Y-95776970I0J-287170D01*
G01*
G37*
G36*
G01*
X80753030Y-56365200D02*
X79774970Y-56365200D01*
G75*
G02*
X79487800Y-56078030I0J287170D01*
G01*
X79487800Y-55474970D01*
G75*
G02*
X79774970Y-55187800I287170J0D01*
G01*
X80753030Y-55187800D01*
G75*
G02*
X81040200Y-55474970I0J-287170D01*
G01*
X81040200Y-56078030D01*
G75*
G02*
X80753030Y-56365200I-287170J0D01*
G01*
G37*
G36*
G01*
X80753030Y-54540200D02*
X79774970Y-54540200D01*
G75*
G02*
X79487800Y-54253030I0J287170D01*
G01*
X79487800Y-53649970D01*
G75*
G02*
X79774970Y-53362800I287170J0D01*
G01*
X80753030Y-53362800D01*
G75*
G02*
X81040200Y-53649970I0J-287170D01*
G01*
X81040200Y-54253030D01*
G75*
G02*
X80753030Y-54540200I-287170J0D01*
G01*
G37*
G36*
G01*
X103406800Y-107121100D02*
X103406800Y-105794900D01*
G75*
G02*
X103594900Y-105606800I188100J0D01*
G01*
X103971100Y-105606800D01*
G75*
G02*
X104159200Y-105794900I0J-188100D01*
G01*
X104159200Y-107121100D01*
G75*
G02*
X103971100Y-107309200I-188100J0D01*
G01*
X103594900Y-107309200D01*
G75*
G02*
X103406800Y-107121100I0J188100D01*
G01*
G37*
G36*
G01*
X104406800Y-107121100D02*
X104406800Y-105794900D01*
G75*
G02*
X104594900Y-105606800I188100J0D01*
G01*
X104971100Y-105606800D01*
G75*
G02*
X105159200Y-105794900I0J-188100D01*
G01*
X105159200Y-107121100D01*
G75*
G02*
X104971100Y-107309200I-188100J0D01*
G01*
X104594900Y-107309200D01*
G75*
G02*
X104406800Y-107121100I0J188100D01*
G01*
G37*
G36*
G01*
X105406800Y-107121100D02*
X105406800Y-105794900D01*
G75*
G02*
X105594900Y-105606800I188100J0D01*
G01*
X105971100Y-105606800D01*
G75*
G02*
X106159200Y-105794900I0J-188100D01*
G01*
X106159200Y-107121100D01*
G75*
G02*
X105971100Y-107309200I-188100J0D01*
G01*
X105594900Y-107309200D01*
G75*
G02*
X105406800Y-107121100I0J188100D01*
G01*
G37*
G36*
G01*
X106406800Y-107121100D02*
X106406800Y-105794900D01*
G75*
G02*
X106594900Y-105606800I188100J0D01*
G01*
X106971100Y-105606800D01*
G75*
G02*
X107159200Y-105794900I0J-188100D01*
G01*
X107159200Y-107121100D01*
G75*
G02*
X106971100Y-107309200I-188100J0D01*
G01*
X106594900Y-107309200D01*
G75*
G02*
X106406800Y-107121100I0J188100D01*
G01*
G37*
G36*
G01*
X101806800Y-111027450D02*
X101806800Y-109638550D01*
G75*
G02*
X102088550Y-109356800I281750J0D01*
G01*
X102877450Y-109356800D01*
G75*
G02*
X103159200Y-109638550I0J-281750D01*
G01*
X103159200Y-111027450D01*
G75*
G02*
X102877450Y-111309200I-281750J0D01*
G01*
X102088550Y-111309200D01*
G75*
G02*
X101806800Y-111027450I0J281750D01*
G01*
G37*
G36*
G01*
X107406800Y-111027450D02*
X107406800Y-109638550D01*
G75*
G02*
X107688550Y-109356800I281750J0D01*
G01*
X108477450Y-109356800D01*
G75*
G02*
X108759200Y-109638550I0J-281750D01*
G01*
X108759200Y-111027450D01*
G75*
G02*
X108477450Y-111309200I-281750J0D01*
G01*
X107688550Y-111309200D01*
G75*
G02*
X107406800Y-111027450I0J281750D01*
G01*
G37*
D12*
X145542000Y-107442000D03*
G36*
G01*
X60172001Y-91931805D02*
X62672001Y-91931805D01*
G75*
G02*
X62748201Y-92008005I0J-76200D01*
G01*
X62748201Y-94508005D01*
G75*
G02*
X62672001Y-94584205I-76200J0D01*
G01*
X60172001Y-94584205D01*
G75*
G02*
X60095801Y-94508005I0J76200D01*
G01*
X60095801Y-92008005D01*
G75*
G02*
X60172001Y-91931805I76200J0D01*
G01*
G37*
D10*
X61422001Y-98258005D03*
G36*
G01*
X123726800Y-107121100D02*
X123726800Y-105794900D01*
G75*
G02*
X123914900Y-105606800I188100J0D01*
G01*
X124291100Y-105606800D01*
G75*
G02*
X124479200Y-105794900I0J-188100D01*
G01*
X124479200Y-107121100D01*
G75*
G02*
X124291100Y-107309200I-188100J0D01*
G01*
X123914900Y-107309200D01*
G75*
G02*
X123726800Y-107121100I0J188100D01*
G01*
G37*
G36*
G01*
X124726800Y-107121100D02*
X124726800Y-105794900D01*
G75*
G02*
X124914900Y-105606800I188100J0D01*
G01*
X125291100Y-105606800D01*
G75*
G02*
X125479200Y-105794900I0J-188100D01*
G01*
X125479200Y-107121100D01*
G75*
G02*
X125291100Y-107309200I-188100J0D01*
G01*
X124914900Y-107309200D01*
G75*
G02*
X124726800Y-107121100I0J188100D01*
G01*
G37*
G36*
G01*
X125726800Y-107121100D02*
X125726800Y-105794900D01*
G75*
G02*
X125914900Y-105606800I188100J0D01*
G01*
X126291100Y-105606800D01*
G75*
G02*
X126479200Y-105794900I0J-188100D01*
G01*
X126479200Y-107121100D01*
G75*
G02*
X126291100Y-107309200I-188100J0D01*
G01*
X125914900Y-107309200D01*
G75*
G02*
X125726800Y-107121100I0J188100D01*
G01*
G37*
G36*
G01*
X126726800Y-107121100D02*
X126726800Y-105794900D01*
G75*
G02*
X126914900Y-105606800I188100J0D01*
G01*
X127291100Y-105606800D01*
G75*
G02*
X127479200Y-105794900I0J-188100D01*
G01*
X127479200Y-107121100D01*
G75*
G02*
X127291100Y-107309200I-188100J0D01*
G01*
X126914900Y-107309200D01*
G75*
G02*
X126726800Y-107121100I0J188100D01*
G01*
G37*
G36*
G01*
X122126800Y-111027450D02*
X122126800Y-109638550D01*
G75*
G02*
X122408550Y-109356800I281750J0D01*
G01*
X123197450Y-109356800D01*
G75*
G02*
X123479200Y-109638550I0J-281750D01*
G01*
X123479200Y-111027450D01*
G75*
G02*
X123197450Y-111309200I-281750J0D01*
G01*
X122408550Y-111309200D01*
G75*
G02*
X122126800Y-111027450I0J281750D01*
G01*
G37*
G36*
G01*
X127726800Y-111027450D02*
X127726800Y-109638550D01*
G75*
G02*
X128008550Y-109356800I281750J0D01*
G01*
X128797450Y-109356800D01*
G75*
G02*
X129079200Y-109638550I0J-281750D01*
G01*
X129079200Y-111027450D01*
G75*
G02*
X128797450Y-111309200I-281750J0D01*
G01*
X128008550Y-111309200D01*
G75*
G02*
X127726800Y-111027450I0J281750D01*
G01*
G37*
G36*
G01*
X109197200Y-95776970D02*
X109197200Y-96755030D01*
G75*
G02*
X108910030Y-97042200I-287170J0D01*
G01*
X108306970Y-97042200D01*
G75*
G02*
X108019800Y-96755030I0J287170D01*
G01*
X108019800Y-95776970D01*
G75*
G02*
X108306970Y-95489800I287170J0D01*
G01*
X108910030Y-95489800D01*
G75*
G02*
X109197200Y-95776970I0J-287170D01*
G01*
G37*
G36*
G01*
X107372200Y-95776970D02*
X107372200Y-96755030D01*
G75*
G02*
X107085030Y-97042200I-287170J0D01*
G01*
X106481970Y-97042200D01*
G75*
G02*
X106194800Y-96755030I0J287170D01*
G01*
X106194800Y-95776970D01*
G75*
G02*
X106481970Y-95489800I287170J0D01*
G01*
X107085030Y-95489800D01*
G75*
G02*
X107372200Y-95776970I0J-287170D01*
G01*
G37*
D12*
X55118000Y-107442000D03*
X55118000Y-55118000D03*
G36*
G01*
X119357200Y-95776970D02*
X119357200Y-96755030D01*
G75*
G02*
X119070030Y-97042200I-287170J0D01*
G01*
X118466970Y-97042200D01*
G75*
G02*
X118179800Y-96755030I0J287170D01*
G01*
X118179800Y-95776970D01*
G75*
G02*
X118466970Y-95489800I287170J0D01*
G01*
X119070030Y-95489800D01*
G75*
G02*
X119357200Y-95776970I0J-287170D01*
G01*
G37*
G36*
G01*
X117532200Y-95776970D02*
X117532200Y-96755030D01*
G75*
G02*
X117245030Y-97042200I-287170J0D01*
G01*
X116641970Y-97042200D01*
G75*
G02*
X116354800Y-96755030I0J287170D01*
G01*
X116354800Y-95776970D01*
G75*
G02*
X116641970Y-95489800I287170J0D01*
G01*
X117245030Y-95489800D01*
G75*
G02*
X117532200Y-95776970I0J-287170D01*
G01*
G37*
G36*
G01*
X71091200Y-55438900D02*
X71091200Y-56765100D01*
G75*
G02*
X70903100Y-56953200I-188100J0D01*
G01*
X70526900Y-56953200D01*
G75*
G02*
X70338800Y-56765100I0J188100D01*
G01*
X70338800Y-55438900D01*
G75*
G02*
X70526900Y-55250800I188100J0D01*
G01*
X70903100Y-55250800D01*
G75*
G02*
X71091200Y-55438900I0J-188100D01*
G01*
G37*
G36*
G01*
X70091200Y-55438900D02*
X70091200Y-56765100D01*
G75*
G02*
X69903100Y-56953200I-188100J0D01*
G01*
X69526900Y-56953200D01*
G75*
G02*
X69338800Y-56765100I0J188100D01*
G01*
X69338800Y-55438900D01*
G75*
G02*
X69526900Y-55250800I188100J0D01*
G01*
X69903100Y-55250800D01*
G75*
G02*
X70091200Y-55438900I0J-188100D01*
G01*
G37*
G36*
G01*
X69091200Y-55438900D02*
X69091200Y-56765100D01*
G75*
G02*
X68903100Y-56953200I-188100J0D01*
G01*
X68526900Y-56953200D01*
G75*
G02*
X68338800Y-56765100I0J188100D01*
G01*
X68338800Y-55438900D01*
G75*
G02*
X68526900Y-55250800I188100J0D01*
G01*
X68903100Y-55250800D01*
G75*
G02*
X69091200Y-55438900I0J-188100D01*
G01*
G37*
G36*
G01*
X68091200Y-55438900D02*
X68091200Y-56765100D01*
G75*
G02*
X67903100Y-56953200I-188100J0D01*
G01*
X67526900Y-56953200D01*
G75*
G02*
X67338800Y-56765100I0J188100D01*
G01*
X67338800Y-55438900D01*
G75*
G02*
X67526900Y-55250800I188100J0D01*
G01*
X67903100Y-55250800D01*
G75*
G02*
X68091200Y-55438900I0J-188100D01*
G01*
G37*
G36*
G01*
X72691200Y-51532550D02*
X72691200Y-52921450D01*
G75*
G02*
X72409450Y-53203200I-281750J0D01*
G01*
X71620550Y-53203200D01*
G75*
G02*
X71338800Y-52921450I0J281750D01*
G01*
X71338800Y-51532550D01*
G75*
G02*
X71620550Y-51250800I281750J0D01*
G01*
X72409450Y-51250800D01*
G75*
G02*
X72691200Y-51532550I0J-281750D01*
G01*
G37*
G36*
G01*
X67091200Y-51532550D02*
X67091200Y-52921450D01*
G75*
G02*
X66809450Y-53203200I-281750J0D01*
G01*
X66020550Y-53203200D01*
G75*
G02*
X65738800Y-52921450I0J281750D01*
G01*
X65738800Y-51532550D01*
G75*
G02*
X66020550Y-51250800I281750J0D01*
G01*
X66809450Y-51250800D01*
G75*
G02*
X67091200Y-51532550I0J-281750D01*
G01*
G37*
G36*
G01*
X70507800Y-66656030D02*
X70507800Y-65677970D01*
G75*
G02*
X70794970Y-65390800I287170J0D01*
G01*
X71398030Y-65390800D01*
G75*
G02*
X71685200Y-65677970I0J-287170D01*
G01*
X71685200Y-66656030D01*
G75*
G02*
X71398030Y-66943200I-287170J0D01*
G01*
X70794970Y-66943200D01*
G75*
G02*
X70507800Y-66656030I0J287170D01*
G01*
G37*
G36*
G01*
X72332800Y-66656030D02*
X72332800Y-65677970D01*
G75*
G02*
X72619970Y-65390800I287170J0D01*
G01*
X73223030Y-65390800D01*
G75*
G02*
X73510200Y-65677970I0J-287170D01*
G01*
X73510200Y-66656030D01*
G75*
G02*
X73223030Y-66943200I-287170J0D01*
G01*
X72619970Y-66943200D01*
G75*
G02*
X72332800Y-66656030I0J287170D01*
G01*
G37*
G36*
G01*
X134847200Y-91119900D02*
X134847200Y-91496100D01*
G75*
G02*
X134659100Y-91684200I-188100J0D01*
G01*
X133407900Y-91684200D01*
G75*
G02*
X133219800Y-91496100I0J188100D01*
G01*
X133219800Y-91119900D01*
G75*
G02*
X133407900Y-90931800I188100J0D01*
G01*
X134659100Y-90931800D01*
G75*
G02*
X134847200Y-91119900I0J-188100D01*
G01*
G37*
G36*
G01*
X134847200Y-89219900D02*
X134847200Y-89596100D01*
G75*
G02*
X134659100Y-89784200I-188100J0D01*
G01*
X133407900Y-89784200D01*
G75*
G02*
X133219800Y-89596100I0J188100D01*
G01*
X133219800Y-89219900D01*
G75*
G02*
X133407900Y-89031800I188100J0D01*
G01*
X134659100Y-89031800D01*
G75*
G02*
X134847200Y-89219900I0J-188100D01*
G01*
G37*
G36*
G01*
X132972200Y-90169900D02*
X132972200Y-90546100D01*
G75*
G02*
X132784100Y-90734200I-188100J0D01*
G01*
X131532900Y-90734200D01*
G75*
G02*
X131344800Y-90546100I0J188100D01*
G01*
X131344800Y-90169900D01*
G75*
G02*
X131532900Y-89981800I188100J0D01*
G01*
X132784100Y-89981800D01*
G75*
G02*
X132972200Y-90169900I0J-188100D01*
G01*
G37*
G36*
G01*
X124412600Y-78517000D02*
X123145400Y-78517000D01*
G75*
G02*
X122987000Y-78358600I0J158400D01*
G01*
X122987000Y-76371400D01*
G75*
G02*
X123145400Y-76213000I158400J0D01*
G01*
X124412600Y-76213000D01*
G75*
G02*
X124571000Y-76371400I0J-158400D01*
G01*
X124571000Y-78358600D01*
G75*
G02*
X124412600Y-78517000I-158400J0D01*
G01*
G37*
G36*
G01*
X124412600Y-87617000D02*
X123145400Y-87617000D01*
G75*
G02*
X122987000Y-87458600I0J158400D01*
G01*
X122987000Y-85471400D01*
G75*
G02*
X123145400Y-85313000I158400J0D01*
G01*
X124412600Y-85313000D01*
G75*
G02*
X124571000Y-85471400I0J-158400D01*
G01*
X124571000Y-87458600D01*
G75*
G02*
X124412600Y-87617000I-158400J0D01*
G01*
G37*
G36*
G01*
X119932600Y-78517000D02*
X118665400Y-78517000D01*
G75*
G02*
X118507000Y-78358600I0J158400D01*
G01*
X118507000Y-76371400D01*
G75*
G02*
X118665400Y-76213000I158400J0D01*
G01*
X119932600Y-76213000D01*
G75*
G02*
X120091000Y-76371400I0J-158400D01*
G01*
X120091000Y-78358600D01*
G75*
G02*
X119932600Y-78517000I-158400J0D01*
G01*
G37*
G36*
G01*
X119932600Y-87617000D02*
X118665400Y-87617000D01*
G75*
G02*
X118507000Y-87458600I0J158400D01*
G01*
X118507000Y-85471400D01*
G75*
G02*
X118665400Y-85313000I158400J0D01*
G01*
X119932600Y-85313000D01*
G75*
G02*
X120091000Y-85471400I0J-158400D01*
G01*
X120091000Y-87458600D01*
G75*
G02*
X119932600Y-87617000I-158400J0D01*
G01*
G37*
G36*
G01*
X63259650Y-103527800D02*
X64248350Y-103527800D01*
G75*
G02*
X64530200Y-103809650I0J-281850D01*
G01*
X64530200Y-104373350D01*
G75*
G02*
X64248350Y-104655200I-281850J0D01*
G01*
X63259650Y-104655200D01*
G75*
G02*
X62977800Y-104373350I0J281850D01*
G01*
X62977800Y-103809650D01*
G75*
G02*
X63259650Y-103527800I281850J0D01*
G01*
G37*
G36*
G01*
X63259650Y-105402800D02*
X64248350Y-105402800D01*
G75*
G02*
X64530200Y-105684650I0J-281850D01*
G01*
X64530200Y-106248350D01*
G75*
G02*
X64248350Y-106530200I-281850J0D01*
G01*
X63259650Y-106530200D01*
G75*
G02*
X62977800Y-106248350I0J281850D01*
G01*
X62977800Y-105684650D01*
G75*
G02*
X63259650Y-105402800I281850J0D01*
G01*
G37*
G36*
G01*
X66164800Y-66680100D02*
X66164800Y-65653900D01*
G75*
G02*
X66452900Y-65365800I288100J0D01*
G01*
X67029100Y-65365800D01*
G75*
G02*
X67317200Y-65653900I0J-288100D01*
G01*
X67317200Y-66680100D01*
G75*
G02*
X67029100Y-66968200I-288100J0D01*
G01*
X66452900Y-66968200D01*
G75*
G02*
X66164800Y-66680100I0J288100D01*
G01*
G37*
G36*
G01*
X68064800Y-66680100D02*
X68064800Y-65653900D01*
G75*
G02*
X68352900Y-65365800I288100J0D01*
G01*
X68929100Y-65365800D01*
G75*
G02*
X69217200Y-65653900I0J-288100D01*
G01*
X69217200Y-66680100D01*
G75*
G02*
X68929100Y-66968200I-288100J0D01*
G01*
X68352900Y-66968200D01*
G75*
G02*
X68064800Y-66680100I0J288100D01*
G01*
G37*
G36*
G01*
X88877200Y-95776970D02*
X88877200Y-96755030D01*
G75*
G02*
X88590030Y-97042200I-287170J0D01*
G01*
X87986970Y-97042200D01*
G75*
G02*
X87699800Y-96755030I0J287170D01*
G01*
X87699800Y-95776970D01*
G75*
G02*
X87986970Y-95489800I287170J0D01*
G01*
X88590030Y-95489800D01*
G75*
G02*
X88877200Y-95776970I0J-287170D01*
G01*
G37*
G36*
G01*
X87052200Y-95776970D02*
X87052200Y-96755030D01*
G75*
G02*
X86765030Y-97042200I-287170J0D01*
G01*
X86161970Y-97042200D01*
G75*
G02*
X85874800Y-96755030I0J287170D01*
G01*
X85874800Y-95776970D01*
G75*
G02*
X86161970Y-95489800I287170J0D01*
G01*
X86765030Y-95489800D01*
G75*
G02*
X87052200Y-95776970I0J-287170D01*
G01*
G37*
G36*
G01*
X61617800Y-110090030D02*
X61617800Y-109111970D01*
G75*
G02*
X61904970Y-108824800I287170J0D01*
G01*
X62508030Y-108824800D01*
G75*
G02*
X62795200Y-109111970I0J-287170D01*
G01*
X62795200Y-110090030D01*
G75*
G02*
X62508030Y-110377200I-287170J0D01*
G01*
X61904970Y-110377200D01*
G75*
G02*
X61617800Y-110090030I0J287170D01*
G01*
G37*
G36*
G01*
X63442800Y-110090030D02*
X63442800Y-109111970D01*
G75*
G02*
X63729970Y-108824800I287170J0D01*
G01*
X64333030Y-108824800D01*
G75*
G02*
X64620200Y-109111970I0J-287170D01*
G01*
X64620200Y-110090030D01*
G75*
G02*
X64333030Y-110377200I-287170J0D01*
G01*
X63729970Y-110377200D01*
G75*
G02*
X63442800Y-110090030I0J287170D01*
G01*
G37*
G36*
G01*
X89294650Y-67332800D02*
X90283350Y-67332800D01*
G75*
G02*
X90565200Y-67614650I0J-281850D01*
G01*
X90565200Y-68178350D01*
G75*
G02*
X90283350Y-68460200I-281850J0D01*
G01*
X89294650Y-68460200D01*
G75*
G02*
X89012800Y-68178350I0J281850D01*
G01*
X89012800Y-67614650D01*
G75*
G02*
X89294650Y-67332800I281850J0D01*
G01*
G37*
G36*
G01*
X89294650Y-69207800D02*
X90283350Y-69207800D01*
G75*
G02*
X90565200Y-69489650I0J-281850D01*
G01*
X90565200Y-70053350D01*
G75*
G02*
X90283350Y-70335200I-281850J0D01*
G01*
X89294650Y-70335200D01*
G75*
G02*
X89012800Y-70053350I0J281850D01*
G01*
X89012800Y-69489650D01*
G75*
G02*
X89294650Y-69207800I281850J0D01*
G01*
G37*
G36*
G01*
X83086800Y-107121100D02*
X83086800Y-105794900D01*
G75*
G02*
X83274900Y-105606800I188100J0D01*
G01*
X83651100Y-105606800D01*
G75*
G02*
X83839200Y-105794900I0J-188100D01*
G01*
X83839200Y-107121100D01*
G75*
G02*
X83651100Y-107309200I-188100J0D01*
G01*
X83274900Y-107309200D01*
G75*
G02*
X83086800Y-107121100I0J188100D01*
G01*
G37*
G36*
G01*
X84086800Y-107121100D02*
X84086800Y-105794900D01*
G75*
G02*
X84274900Y-105606800I188100J0D01*
G01*
X84651100Y-105606800D01*
G75*
G02*
X84839200Y-105794900I0J-188100D01*
G01*
X84839200Y-107121100D01*
G75*
G02*
X84651100Y-107309200I-188100J0D01*
G01*
X84274900Y-107309200D01*
G75*
G02*
X84086800Y-107121100I0J188100D01*
G01*
G37*
G36*
G01*
X85086800Y-107121100D02*
X85086800Y-105794900D01*
G75*
G02*
X85274900Y-105606800I188100J0D01*
G01*
X85651100Y-105606800D01*
G75*
G02*
X85839200Y-105794900I0J-188100D01*
G01*
X85839200Y-107121100D01*
G75*
G02*
X85651100Y-107309200I-188100J0D01*
G01*
X85274900Y-107309200D01*
G75*
G02*
X85086800Y-107121100I0J188100D01*
G01*
G37*
G36*
G01*
X86086800Y-107121100D02*
X86086800Y-105794900D01*
G75*
G02*
X86274900Y-105606800I188100J0D01*
G01*
X86651100Y-105606800D01*
G75*
G02*
X86839200Y-105794900I0J-188100D01*
G01*
X86839200Y-107121100D01*
G75*
G02*
X86651100Y-107309200I-188100J0D01*
G01*
X86274900Y-107309200D01*
G75*
G02*
X86086800Y-107121100I0J188100D01*
G01*
G37*
G36*
G01*
X81486800Y-111027450D02*
X81486800Y-109638550D01*
G75*
G02*
X81768550Y-109356800I281750J0D01*
G01*
X82557450Y-109356800D01*
G75*
G02*
X82839200Y-109638550I0J-281750D01*
G01*
X82839200Y-111027450D01*
G75*
G02*
X82557450Y-111309200I-281750J0D01*
G01*
X81768550Y-111309200D01*
G75*
G02*
X81486800Y-111027450I0J281750D01*
G01*
G37*
G36*
G01*
X87086800Y-111027450D02*
X87086800Y-109638550D01*
G75*
G02*
X87368550Y-109356800I281750J0D01*
G01*
X88157450Y-109356800D01*
G75*
G02*
X88439200Y-109638550I0J-281750D01*
G01*
X88439200Y-111027450D01*
G75*
G02*
X88157450Y-111309200I-281750J0D01*
G01*
X87368550Y-111309200D01*
G75*
G02*
X87086800Y-111027450I0J281750D01*
G01*
G37*
G36*
G01*
X60675000Y-65992600D02*
X60675000Y-64725400D01*
G75*
G02*
X60833400Y-64567000I158400J0D01*
G01*
X62820600Y-64567000D01*
G75*
G02*
X62979000Y-64725400I0J-158400D01*
G01*
X62979000Y-65992600D01*
G75*
G02*
X62820600Y-66151000I-158400J0D01*
G01*
X60833400Y-66151000D01*
G75*
G02*
X60675000Y-65992600I0J158400D01*
G01*
G37*
G36*
G01*
X51575000Y-65992600D02*
X51575000Y-64725400D01*
G75*
G02*
X51733400Y-64567000I158400J0D01*
G01*
X53720600Y-64567000D01*
G75*
G02*
X53879000Y-64725400I0J-158400D01*
G01*
X53879000Y-65992600D01*
G75*
G02*
X53720600Y-66151000I-158400J0D01*
G01*
X51733400Y-66151000D01*
G75*
G02*
X51575000Y-65992600I0J158400D01*
G01*
G37*
G36*
G01*
X60675000Y-61512600D02*
X60675000Y-60245400D01*
G75*
G02*
X60833400Y-60087000I158400J0D01*
G01*
X62820600Y-60087000D01*
G75*
G02*
X62979000Y-60245400I0J-158400D01*
G01*
X62979000Y-61512600D01*
G75*
G02*
X62820600Y-61671000I-158400J0D01*
G01*
X60833400Y-61671000D01*
G75*
G02*
X60675000Y-61512600I0J158400D01*
G01*
G37*
G36*
G01*
X51575000Y-61512600D02*
X51575000Y-60245400D01*
G75*
G02*
X51733400Y-60087000I158400J0D01*
G01*
X53720600Y-60087000D01*
G75*
G02*
X53879000Y-60245400I0J-158400D01*
G01*
X53879000Y-61512600D01*
G75*
G02*
X53720600Y-61671000I-158400J0D01*
G01*
X51733400Y-61671000D01*
G75*
G02*
X51575000Y-61512600I0J158400D01*
G01*
G37*
G36*
G01*
X119382200Y-92958900D02*
X119382200Y-93985100D01*
G75*
G02*
X119094100Y-94273200I-288100J0D01*
G01*
X118517900Y-94273200D01*
G75*
G02*
X118229800Y-93985100I0J288100D01*
G01*
X118229800Y-92958900D01*
G75*
G02*
X118517900Y-92670800I288100J0D01*
G01*
X119094100Y-92670800D01*
G75*
G02*
X119382200Y-92958900I0J-288100D01*
G01*
G37*
G36*
G01*
X117482200Y-92958900D02*
X117482200Y-93985100D01*
G75*
G02*
X117194100Y-94273200I-288100J0D01*
G01*
X116617900Y-94273200D01*
G75*
G02*
X116329800Y-93985100I0J288100D01*
G01*
X116329800Y-92958900D01*
G75*
G02*
X116617900Y-92670800I288100J0D01*
G01*
X117194100Y-92670800D01*
G75*
G02*
X117482200Y-92958900I0J-288100D01*
G01*
G37*
G36*
G01*
X109222200Y-92958900D02*
X109222200Y-93985100D01*
G75*
G02*
X108934100Y-94273200I-288100J0D01*
G01*
X108357900Y-94273200D01*
G75*
G02*
X108069800Y-93985100I0J288100D01*
G01*
X108069800Y-92958900D01*
G75*
G02*
X108357900Y-92670800I288100J0D01*
G01*
X108934100Y-92670800D01*
G75*
G02*
X109222200Y-92958900I0J-288100D01*
G01*
G37*
G36*
G01*
X107322200Y-92958900D02*
X107322200Y-93985100D01*
G75*
G02*
X107034100Y-94273200I-288100J0D01*
G01*
X106457900Y-94273200D01*
G75*
G02*
X106169800Y-93985100I0J288100D01*
G01*
X106169800Y-92958900D01*
G75*
G02*
X106457900Y-92670800I288100J0D01*
G01*
X107034100Y-92670800D01*
G75*
G02*
X107322200Y-92958900I0J-288100D01*
G01*
G37*
G36*
G01*
X79060000Y-88759800D02*
X80960000Y-88759800D01*
G75*
G02*
X81036200Y-88836000I0J-76200D01*
G01*
X81036200Y-90236000D01*
G75*
G02*
X80960000Y-90312200I-76200J0D01*
G01*
X79060000Y-90312200D01*
G75*
G02*
X78983800Y-90236000I0J76200D01*
G01*
X78983800Y-88836000D01*
G75*
G02*
X79060000Y-88759800I76200J0D01*
G01*
G37*
G36*
G01*
X79060000Y-92059800D02*
X80960000Y-92059800D01*
G75*
G02*
X81036200Y-92136000I0J-76200D01*
G01*
X81036200Y-93536000D01*
G75*
G02*
X80960000Y-93612200I-76200J0D01*
G01*
X79060000Y-93612200D01*
G75*
G02*
X78983800Y-93536000I0J76200D01*
G01*
X78983800Y-92136000D01*
G75*
G02*
X79060000Y-92059800I76200J0D01*
G01*
G37*
G36*
G01*
X61280000Y-68439800D02*
X63180000Y-68439800D01*
G75*
G02*
X63256200Y-68516000I0J-76200D01*
G01*
X63256200Y-69916000D01*
G75*
G02*
X63180000Y-69992200I-76200J0D01*
G01*
X61280000Y-69992200D01*
G75*
G02*
X61203800Y-69916000I0J76200D01*
G01*
X61203800Y-68516000D01*
G75*
G02*
X61280000Y-68439800I76200J0D01*
G01*
G37*
G36*
G01*
X61280000Y-71739800D02*
X63180000Y-71739800D01*
G75*
G02*
X63256200Y-71816000I0J-76200D01*
G01*
X63256200Y-73216000D01*
G75*
G02*
X63180000Y-73292200I-76200J0D01*
G01*
X61280000Y-73292200D01*
G75*
G02*
X61203800Y-73216000I0J76200D01*
G01*
X61203800Y-71816000D01*
G75*
G02*
X61280000Y-71739800I76200J0D01*
G01*
G37*
G36*
G01*
X119194200Y-67064000D02*
X119194200Y-68064000D01*
G75*
G02*
X119118000Y-68140200I-76200J0D01*
G01*
X118118000Y-68140200D01*
G75*
G02*
X118041800Y-68064000I0J76200D01*
G01*
X118041800Y-67064000D01*
G75*
G02*
X118118000Y-66987800I76200J0D01*
G01*
X119118000Y-66987800D01*
G75*
G02*
X119194200Y-67064000I0J-76200D01*
G01*
G37*
D16*
X118618000Y-66294000D03*
X118618000Y-65024000D03*
G36*
G01*
X104117200Y-95776970D02*
X104117200Y-96755030D01*
G75*
G02*
X103830030Y-97042200I-287170J0D01*
G01*
X103226970Y-97042200D01*
G75*
G02*
X102939800Y-96755030I0J287170D01*
G01*
X102939800Y-95776970D01*
G75*
G02*
X103226970Y-95489800I287170J0D01*
G01*
X103830030Y-95489800D01*
G75*
G02*
X104117200Y-95776970I0J-287170D01*
G01*
G37*
G36*
G01*
X102292200Y-95776970D02*
X102292200Y-96755030D01*
G75*
G02*
X102005030Y-97042200I-287170J0D01*
G01*
X101401970Y-97042200D01*
G75*
G02*
X101114800Y-96755030I0J287170D01*
G01*
X101114800Y-95776970D01*
G75*
G02*
X101401970Y-95489800I287170J0D01*
G01*
X102005030Y-95489800D01*
G75*
G02*
X102292200Y-95776970I0J-287170D01*
G01*
G37*
G36*
G01*
X68900000Y-88759800D02*
X70800000Y-88759800D01*
G75*
G02*
X70876200Y-88836000I0J-76200D01*
G01*
X70876200Y-90236000D01*
G75*
G02*
X70800000Y-90312200I-76200J0D01*
G01*
X68900000Y-90312200D01*
G75*
G02*
X68823800Y-90236000I0J76200D01*
G01*
X68823800Y-88836000D01*
G75*
G02*
X68900000Y-88759800I76200J0D01*
G01*
G37*
G36*
G01*
X68900000Y-92059800D02*
X70800000Y-92059800D01*
G75*
G02*
X70876200Y-92136000I0J-76200D01*
G01*
X70876200Y-93536000D01*
G75*
G02*
X70800000Y-93612200I-76200J0D01*
G01*
X68900000Y-93612200D01*
G75*
G02*
X68823800Y-93536000I0J76200D01*
G01*
X68823800Y-92136000D01*
G75*
G02*
X68900000Y-92059800I76200J0D01*
G01*
G37*
G36*
G01*
X128242900Y-67133800D02*
X129269100Y-67133800D01*
G75*
G02*
X129557200Y-67421900I0J-288100D01*
G01*
X129557200Y-67998100D01*
G75*
G02*
X129269100Y-68286200I-288100J0D01*
G01*
X128242900Y-68286200D01*
G75*
G02*
X127954800Y-67998100I0J288100D01*
G01*
X127954800Y-67421900D01*
G75*
G02*
X128242900Y-67133800I288100J0D01*
G01*
G37*
G36*
G01*
X128242900Y-69033800D02*
X129269100Y-69033800D01*
G75*
G02*
X129557200Y-69321900I0J-288100D01*
G01*
X129557200Y-69898100D01*
G75*
G02*
X129269100Y-70186200I-288100J0D01*
G01*
X128242900Y-70186200D01*
G75*
G02*
X127954800Y-69898100I0J288100D01*
G01*
X127954800Y-69321900D01*
G75*
G02*
X128242900Y-69033800I288100J0D01*
G01*
G37*
G36*
G01*
X68478400Y-71920801D02*
X69291200Y-71920801D01*
G75*
G02*
X69367400Y-71997001I0J-76200D01*
G01*
X69367400Y-72251001D01*
G75*
G02*
X69291200Y-72327201I-76200J0D01*
G01*
X68478400Y-72327201D01*
G75*
G02*
X68402200Y-72251001I0J76200D01*
G01*
X68402200Y-71997001D01*
G75*
G02*
X68478400Y-71920801I76200J0D01*
G01*
G37*
G36*
G01*
X68478400Y-71420800D02*
X69291200Y-71420800D01*
G75*
G02*
X69367400Y-71497000I0J-76200D01*
G01*
X69367400Y-71751000D01*
G75*
G02*
X69291200Y-71827200I-76200J0D01*
G01*
X68478400Y-71827200D01*
G75*
G02*
X68402200Y-71751000I0J76200D01*
G01*
X68402200Y-71497000D01*
G75*
G02*
X68478400Y-71420800I76200J0D01*
G01*
G37*
G36*
G01*
X68478400Y-70920800D02*
X69291200Y-70920800D01*
G75*
G02*
X69367400Y-70997000I0J-76200D01*
G01*
X69367400Y-71251000D01*
G75*
G02*
X69291200Y-71327200I-76200J0D01*
G01*
X68478400Y-71327200D01*
G75*
G02*
X68402200Y-71251000I0J76200D01*
G01*
X68402200Y-70997000D01*
G75*
G02*
X68478400Y-70920800I76200J0D01*
G01*
G37*
G36*
G01*
X68478400Y-70420799D02*
X69291200Y-70420799D01*
G75*
G02*
X69367400Y-70496999I0J-76200D01*
G01*
X69367400Y-70750999D01*
G75*
G02*
X69291200Y-70827199I-76200J0D01*
G01*
X68478400Y-70827199D01*
G75*
G02*
X68402200Y-70750999I0J76200D01*
G01*
X68402200Y-70496999D01*
G75*
G02*
X68478400Y-70420799I76200J0D01*
G01*
G37*
G36*
G01*
X68390201Y-69519800D02*
X68390201Y-70332600D01*
G75*
G02*
X68314001Y-70408800I-76200J0D01*
G01*
X68060001Y-70408800D01*
G75*
G02*
X67983801Y-70332600I0J76200D01*
G01*
X67983801Y-69519800D01*
G75*
G02*
X68060001Y-69443600I76200J0D01*
G01*
X68314001Y-69443600D01*
G75*
G02*
X68390201Y-69519800I0J-76200D01*
G01*
G37*
G36*
G01*
X67890200Y-69519800D02*
X67890200Y-70332600D01*
G75*
G02*
X67814000Y-70408800I-76200J0D01*
G01*
X67560000Y-70408800D01*
G75*
G02*
X67483800Y-70332600I0J76200D01*
G01*
X67483800Y-69519800D01*
G75*
G02*
X67560000Y-69443600I76200J0D01*
G01*
X67814000Y-69443600D01*
G75*
G02*
X67890200Y-69519800I0J-76200D01*
G01*
G37*
G36*
G01*
X67390200Y-69519800D02*
X67390200Y-70332600D01*
G75*
G02*
X67314000Y-70408800I-76200J0D01*
G01*
X67060000Y-70408800D01*
G75*
G02*
X66983800Y-70332600I0J76200D01*
G01*
X66983800Y-69519800D01*
G75*
G02*
X67060000Y-69443600I76200J0D01*
G01*
X67314000Y-69443600D01*
G75*
G02*
X67390200Y-69519800I0J-76200D01*
G01*
G37*
G36*
G01*
X66890199Y-69519800D02*
X66890199Y-70332600D01*
G75*
G02*
X66813999Y-70408800I-76200J0D01*
G01*
X66559999Y-70408800D01*
G75*
G02*
X66483799Y-70332600I0J76200D01*
G01*
X66483799Y-69519800D01*
G75*
G02*
X66559999Y-69443600I76200J0D01*
G01*
X66813999Y-69443600D01*
G75*
G02*
X66890199Y-69519800I0J-76200D01*
G01*
G37*
G36*
G01*
X65582800Y-70420799D02*
X66395600Y-70420799D01*
G75*
G02*
X66471800Y-70496999I0J-76200D01*
G01*
X66471800Y-70750999D01*
G75*
G02*
X66395600Y-70827199I-76200J0D01*
G01*
X65582800Y-70827199D01*
G75*
G02*
X65506600Y-70750999I0J76200D01*
G01*
X65506600Y-70496999D01*
G75*
G02*
X65582800Y-70420799I76200J0D01*
G01*
G37*
G36*
G01*
X65582800Y-70920800D02*
X66395600Y-70920800D01*
G75*
G02*
X66471800Y-70997000I0J-76200D01*
G01*
X66471800Y-71251000D01*
G75*
G02*
X66395600Y-71327200I-76200J0D01*
G01*
X65582800Y-71327200D01*
G75*
G02*
X65506600Y-71251000I0J76200D01*
G01*
X65506600Y-70997000D01*
G75*
G02*
X65582800Y-70920800I76200J0D01*
G01*
G37*
G36*
G01*
X65582800Y-71420800D02*
X66395600Y-71420800D01*
G75*
G02*
X66471800Y-71497000I0J-76200D01*
G01*
X66471800Y-71751000D01*
G75*
G02*
X66395600Y-71827200I-76200J0D01*
G01*
X65582800Y-71827200D01*
G75*
G02*
X65506600Y-71751000I0J76200D01*
G01*
X65506600Y-71497000D01*
G75*
G02*
X65582800Y-71420800I76200J0D01*
G01*
G37*
G36*
G01*
X65582800Y-71920801D02*
X66395600Y-71920801D01*
G75*
G02*
X66471800Y-71997001I0J-76200D01*
G01*
X66471800Y-72251001D01*
G75*
G02*
X66395600Y-72327201I-76200J0D01*
G01*
X65582800Y-72327201D01*
G75*
G02*
X65506600Y-72251001I0J76200D01*
G01*
X65506600Y-71997001D01*
G75*
G02*
X65582800Y-71920801I76200J0D01*
G01*
G37*
G36*
G01*
X66890199Y-72415400D02*
X66890199Y-73228200D01*
G75*
G02*
X66813999Y-73304400I-76200J0D01*
G01*
X66559999Y-73304400D01*
G75*
G02*
X66483799Y-73228200I0J76200D01*
G01*
X66483799Y-72415400D01*
G75*
G02*
X66559999Y-72339200I76200J0D01*
G01*
X66813999Y-72339200D01*
G75*
G02*
X66890199Y-72415400I0J-76200D01*
G01*
G37*
G36*
G01*
X67390200Y-72415400D02*
X67390200Y-73228200D01*
G75*
G02*
X67314000Y-73304400I-76200J0D01*
G01*
X67060000Y-73304400D01*
G75*
G02*
X66983800Y-73228200I0J76200D01*
G01*
X66983800Y-72415400D01*
G75*
G02*
X67060000Y-72339200I76200J0D01*
G01*
X67314000Y-72339200D01*
G75*
G02*
X67390200Y-72415400I0J-76200D01*
G01*
G37*
G36*
G01*
X67890200Y-72415400D02*
X67890200Y-73228200D01*
G75*
G02*
X67814000Y-73304400I-76200J0D01*
G01*
X67560000Y-73304400D01*
G75*
G02*
X67483800Y-73228200I0J76200D01*
G01*
X67483800Y-72415400D01*
G75*
G02*
X67560000Y-72339200I76200J0D01*
G01*
X67814000Y-72339200D01*
G75*
G02*
X67890200Y-72415400I0J-76200D01*
G01*
G37*
G36*
G01*
X68390201Y-72415400D02*
X68390201Y-73228200D01*
G75*
G02*
X68314001Y-73304400I-76200J0D01*
G01*
X68060001Y-73304400D01*
G75*
G02*
X67983801Y-73228200I0J76200D01*
G01*
X67983801Y-72415400D01*
G75*
G02*
X68060001Y-72339200I76200J0D01*
G01*
X68314001Y-72339200D01*
G75*
G02*
X68390201Y-72415400I0J-76200D01*
G01*
G37*
G36*
G01*
X68135500Y-70751700D02*
X68135500Y-71996300D01*
G75*
G02*
X68059300Y-72072500I-76200J0D01*
G01*
X66814700Y-72072500D01*
G75*
G02*
X66738500Y-71996300I0J76200D01*
G01*
X66738500Y-70751700D01*
G75*
G02*
X66814700Y-70675500I76200J0D01*
G01*
X68059300Y-70675500D01*
G75*
G02*
X68135500Y-70751700I0J-76200D01*
G01*
G37*
M02*
