G04 #@! TF.GenerationSoftware,KiCad,Pcbnew,9.0.7-9.0.7~ubuntu24.04.1*
G04 #@! TF.CreationDate,2026-03-19T15:38:18-06:00*
G04 #@! TF.ProjectId,ckt-defect,636b742d-6465-4666-9563-742e6b696361,rev?*
G04 #@! TF.SameCoordinates,Original*
G04 #@! TF.FileFunction,Copper,L1,Top*
G04 #@! TF.FilePolarity,Positive*
%FSLAX46Y46*%
G04 Gerber Fmt 4.6, Leading zero omitted, Abs format (unit mm)*
G04 Created by KiCad (PCBNEW 9.0.7-9.0.7~ubuntu24.04.1) date 2026-03-19 15:38:18*
%MOMM*%
%LPD*%
G01*
G04 APERTURE LIST*
G04 #@! TA.AperFunction,SMDPad,CuDef*
%ADD10R,2.108200X5.562600*%
G04 #@! TD*
G04 #@! TA.AperFunction,SMDPad,CuDef*
%ADD11R,1.500000X0.900000*%
G04 #@! TD*
G04 #@! TA.AperFunction,SMDPad,CuDef*
%ADD12R,2.660000X0.800000*%
G04 #@! TD*
G04 #@! TA.AperFunction,SMDPad,CuDef*
%ADD13R,1.400000X1.900000*%
G04 #@! TD*
G04 #@! TA.AperFunction,SMDPad,CuDef*
%ADD14R,0.900000X1.500000*%
G04 #@! TD*
G04 #@! TA.AperFunction,SMDPad,CuDef*
%ADD15R,0.900000X0.900000*%
G04 #@! TD*
G04 #@! TA.AperFunction,ComponentPad*
%ADD16R,2.500000X2.500000*%
G04 #@! TD*
G04 #@! TA.AperFunction,ComponentPad*
%ADD17C,2.500000*%
G04 #@! TD*
G04 #@! TA.AperFunction,SMDPad,CuDef*
%ADD18R,1.500000X2.000000*%
G04 #@! TD*
G04 #@! TA.AperFunction,SMDPad,CuDef*
%ADD19R,3.800000X2.000000*%
G04 #@! TD*
G04 #@! TA.AperFunction,SMDPad,CuDef*
%ADD20R,2.300000X0.500000*%
G04 #@! TD*
G04 #@! TA.AperFunction,SMDPad,CuDef*
%ADD21R,2.500000X2.000000*%
G04 #@! TD*
G04 #@! TA.AperFunction,ComponentPad*
%ADD22C,6.400000*%
G04 #@! TD*
G04 #@! TA.AperFunction,ComponentPad*
%ADD23O,5.000000X2.500000*%
G04 #@! TD*
G04 #@! TA.AperFunction,ComponentPad*
%ADD24O,4.500000X2.250000*%
G04 #@! TD*
G04 #@! TA.AperFunction,ComponentPad*
%ADD25O,2.250000X4.500000*%
G04 #@! TD*
G04 #@! TA.AperFunction,ComponentPad*
%ADD26R,1.000000X1.000000*%
G04 #@! TD*
G04 #@! TA.AperFunction,ComponentPad*
%ADD27C,1.000000*%
G04 #@! TD*
G04 #@! TA.AperFunction,SMDPad,CuDef*
%ADD28R,1.200000X0.700000*%
G04 #@! TD*
G04 #@! TA.AperFunction,SMDPad,CuDef*
%ADD29R,0.800000X1.000000*%
G04 #@! TD*
G04 #@! TA.AperFunction,SMDPad,CuDef*
%ADD30R,1.200000X1.000000*%
G04 #@! TD*
G04 #@! TA.AperFunction,SMDPad,CuDef*
%ADD31R,2.800000X1.000000*%
G04 #@! TD*
G04 #@! TA.AperFunction,SMDPad,CuDef*
%ADD32R,1.900000X1.300000*%
G04 #@! TD*
G04 #@! TA.AperFunction,SMDPad,CuDef*
%ADD33R,1.900000X1.400000*%
G04 #@! TD*
G04 #@! TA.AperFunction,SMDPad,CuDef*
%ADD34R,0.812800X0.254000*%
G04 #@! TD*
G04 #@! TA.AperFunction,SMDPad,CuDef*
%ADD35R,0.254000X0.812800*%
G04 #@! TD*
G04 #@! TA.AperFunction,SMDPad,CuDef*
%ADD36R,1.244600X1.244600*%
G04 #@! TD*
G04 #@! TA.AperFunction,ViaPad*
%ADD37C,0.609600*%
G04 #@! TD*
G04 #@! TA.AperFunction,Conductor*
%ADD38C,0.635000*%
G04 #@! TD*
G04 #@! TA.AperFunction,Conductor*
%ADD39C,0.508000*%
G04 #@! TD*
G04 #@! TA.AperFunction,Conductor*
%ADD40C,1.905000*%
G04 #@! TD*
G04 #@! TA.AperFunction,Conductor*
%ADD41C,0.254000*%
G04 #@! TD*
G04 #@! TA.AperFunction,Conductor*
%ADD42C,0.203200*%
G04 #@! TD*
G04 #@! TA.AperFunction,Conductor*
%ADD43C,0.457200*%
G04 #@! TD*
G04 APERTURE END LIST*
D10*
X71386700Y-79121000D03*
X66789300Y-79121000D03*
D11*
X127037000Y-63245000D03*
X127037000Y-59945000D03*
X122137000Y-59945000D03*
X122137000Y-63245000D03*
G04 #@! TA.AperFunction,SMDPad,CuDef*
G36*
G01*
X63823000Y-57813000D02*
X62923000Y-57813000D01*
G75*
G02*
X62673000Y-57563000I0J250000D01*
G01*
X62673000Y-57038000D01*
G75*
G02*
X62923000Y-56788000I250000J0D01*
G01*
X63823000Y-56788000D01*
G75*
G02*
X64073000Y-57038000I0J-250000D01*
G01*
X64073000Y-57563000D01*
G75*
G02*
X63823000Y-57813000I-250000J0D01*
G01*
G37*
G04 #@! TD.AperFunction*
G04 #@! TA.AperFunction,SMDPad,CuDef*
G36*
G01*
X63823000Y-55988000D02*
X62923000Y-55988000D01*
G75*
G02*
X62673000Y-55738000I0J250000D01*
G01*
X62673000Y-55213000D01*
G75*
G02*
X62923000Y-54963000I250000J0D01*
G01*
X63823000Y-54963000D01*
G75*
G02*
X64073000Y-55213000I0J-250000D01*
G01*
X64073000Y-55738000D01*
G75*
G02*
X63823000Y-55988000I-250000J0D01*
G01*
G37*
G04 #@! TD.AperFunction*
G04 #@! TA.AperFunction,SMDPad,CuDef*
G36*
G01*
X78635000Y-81572000D02*
X78635000Y-81872000D01*
G75*
G02*
X78485000Y-82022000I-150000J0D01*
G01*
X77460000Y-82022000D01*
G75*
G02*
X77310000Y-81872000I0J150000D01*
G01*
X77310000Y-81572000D01*
G75*
G02*
X77460000Y-81422000I150000J0D01*
G01*
X78485000Y-81422000D01*
G75*
G02*
X78635000Y-81572000I0J-150000D01*
G01*
G37*
G04 #@! TD.AperFunction*
G04 #@! TA.AperFunction,SMDPad,CuDef*
G36*
G01*
X78635000Y-80622000D02*
X78635000Y-80922000D01*
G75*
G02*
X78485000Y-81072000I-150000J0D01*
G01*
X77460000Y-81072000D01*
G75*
G02*
X77310000Y-80922000I0J150000D01*
G01*
X77310000Y-80622000D01*
G75*
G02*
X77460000Y-80472000I150000J0D01*
G01*
X78485000Y-80472000D01*
G75*
G02*
X78635000Y-80622000I0J-150000D01*
G01*
G37*
G04 #@! TD.AperFunction*
G04 #@! TA.AperFunction,SMDPad,CuDef*
G36*
G01*
X78635000Y-79672000D02*
X78635000Y-79972000D01*
G75*
G02*
X78485000Y-80122000I-150000J0D01*
G01*
X77460000Y-80122000D01*
G75*
G02*
X77310000Y-79972000I0J150000D01*
G01*
X77310000Y-79672000D01*
G75*
G02*
X77460000Y-79522000I150000J0D01*
G01*
X78485000Y-79522000D01*
G75*
G02*
X78635000Y-79672000I0J-150000D01*
G01*
G37*
G04 #@! TD.AperFunction*
G04 #@! TA.AperFunction,SMDPad,CuDef*
G36*
G01*
X76360000Y-79672000D02*
X76360000Y-79972000D01*
G75*
G02*
X76210000Y-80122000I-150000J0D01*
G01*
X75185000Y-80122000D01*
G75*
G02*
X75035000Y-79972000I0J150000D01*
G01*
X75035000Y-79672000D01*
G75*
G02*
X75185000Y-79522000I150000J0D01*
G01*
X76210000Y-79522000D01*
G75*
G02*
X76360000Y-79672000I0J-150000D01*
G01*
G37*
G04 #@! TD.AperFunction*
G04 #@! TA.AperFunction,SMDPad,CuDef*
G36*
G01*
X76360000Y-80622000D02*
X76360000Y-80922000D01*
G75*
G02*
X76210000Y-81072000I-150000J0D01*
G01*
X75185000Y-81072000D01*
G75*
G02*
X75035000Y-80922000I0J150000D01*
G01*
X75035000Y-80622000D01*
G75*
G02*
X75185000Y-80472000I150000J0D01*
G01*
X76210000Y-80472000D01*
G75*
G02*
X76360000Y-80622000I0J-150000D01*
G01*
G37*
G04 #@! TD.AperFunction*
G04 #@! TA.AperFunction,SMDPad,CuDef*
G36*
G01*
X76360000Y-81572000D02*
X76360000Y-81872000D01*
G75*
G02*
X76210000Y-82022000I-150000J0D01*
G01*
X75185000Y-82022000D01*
G75*
G02*
X75035000Y-81872000I0J150000D01*
G01*
X75035000Y-81572000D01*
G75*
G02*
X75185000Y-81422000I150000J0D01*
G01*
X76210000Y-81422000D01*
G75*
G02*
X76360000Y-81572000I0J-150000D01*
G01*
G37*
G04 #@! TD.AperFunction*
G04 #@! TA.AperFunction,SMDPad,CuDef*
G36*
G01*
X98986000Y-92997000D02*
X98986000Y-93947000D01*
G75*
G02*
X98736000Y-94197000I-250000J0D01*
G01*
X98236000Y-94197000D01*
G75*
G02*
X97986000Y-93947000I0J250000D01*
G01*
X97986000Y-92997000D01*
G75*
G02*
X98236000Y-92747000I250000J0D01*
G01*
X98736000Y-92747000D01*
G75*
G02*
X98986000Y-92997000I0J-250000D01*
G01*
G37*
G04 #@! TD.AperFunction*
G04 #@! TA.AperFunction,SMDPad,CuDef*
G36*
G01*
X97086000Y-92997000D02*
X97086000Y-93947000D01*
G75*
G02*
X96836000Y-94197000I-250000J0D01*
G01*
X96336000Y-94197000D01*
G75*
G02*
X96086000Y-93947000I0J250000D01*
G01*
X96086000Y-92997000D01*
G75*
G02*
X96336000Y-92747000I250000J0D01*
G01*
X96836000Y-92747000D01*
G75*
G02*
X97086000Y-92997000I0J-250000D01*
G01*
G37*
G04 #@! TD.AperFunction*
D12*
X135166100Y-85864700D03*
X135166100Y-82664300D03*
X135166100Y-80454500D03*
X135166100Y-78244700D03*
X127977900Y-78244700D03*
X127977900Y-80454500D03*
X127977900Y-82664300D03*
X127977900Y-85864700D03*
G04 #@! TA.AperFunction,SMDPad,CuDef*
G36*
G01*
X93323000Y-107083000D02*
X93323000Y-105833000D01*
G75*
G02*
X93473000Y-105683000I150000J0D01*
G01*
X93773000Y-105683000D01*
G75*
G02*
X93923000Y-105833000I0J-150000D01*
G01*
X93923000Y-107083000D01*
G75*
G02*
X93773000Y-107233000I-150000J0D01*
G01*
X93473000Y-107233000D01*
G75*
G02*
X93323000Y-107083000I0J150000D01*
G01*
G37*
G04 #@! TD.AperFunction*
G04 #@! TA.AperFunction,SMDPad,CuDef*
G36*
G01*
X94323000Y-107083000D02*
X94323000Y-105833000D01*
G75*
G02*
X94473000Y-105683000I150000J0D01*
G01*
X94773000Y-105683000D01*
G75*
G02*
X94923000Y-105833000I0J-150000D01*
G01*
X94923000Y-107083000D01*
G75*
G02*
X94773000Y-107233000I-150000J0D01*
G01*
X94473000Y-107233000D01*
G75*
G02*
X94323000Y-107083000I0J150000D01*
G01*
G37*
G04 #@! TD.AperFunction*
G04 #@! TA.AperFunction,SMDPad,CuDef*
G36*
G01*
X95323000Y-107083000D02*
X95323000Y-105833000D01*
G75*
G02*
X95473000Y-105683000I150000J0D01*
G01*
X95773000Y-105683000D01*
G75*
G02*
X95923000Y-105833000I0J-150000D01*
G01*
X95923000Y-107083000D01*
G75*
G02*
X95773000Y-107233000I-150000J0D01*
G01*
X95473000Y-107233000D01*
G75*
G02*
X95323000Y-107083000I0J150000D01*
G01*
G37*
G04 #@! TD.AperFunction*
G04 #@! TA.AperFunction,SMDPad,CuDef*
G36*
G01*
X96323000Y-107083000D02*
X96323000Y-105833000D01*
G75*
G02*
X96473000Y-105683000I150000J0D01*
G01*
X96773000Y-105683000D01*
G75*
G02*
X96923000Y-105833000I0J-150000D01*
G01*
X96923000Y-107083000D01*
G75*
G02*
X96773000Y-107233000I-150000J0D01*
G01*
X96473000Y-107233000D01*
G75*
G02*
X96323000Y-107083000I0J150000D01*
G01*
G37*
G04 #@! TD.AperFunction*
G04 #@! TA.AperFunction,SMDPad,CuDef*
G36*
G01*
X91723000Y-110983000D02*
X91723000Y-109683000D01*
G75*
G02*
X91973000Y-109433000I250000J0D01*
G01*
X92673000Y-109433000D01*
G75*
G02*
X92923000Y-109683000I0J-250000D01*
G01*
X92923000Y-110983000D01*
G75*
G02*
X92673000Y-111233000I-250000J0D01*
G01*
X91973000Y-111233000D01*
G75*
G02*
X91723000Y-110983000I0J250000D01*
G01*
G37*
G04 #@! TD.AperFunction*
G04 #@! TA.AperFunction,SMDPad,CuDef*
G36*
G01*
X97323000Y-110983000D02*
X97323000Y-109683000D01*
G75*
G02*
X97573000Y-109433000I250000J0D01*
G01*
X98273000Y-109433000D01*
G75*
G02*
X98523000Y-109683000I0J-250000D01*
G01*
X98523000Y-110983000D01*
G75*
G02*
X98273000Y-111233000I-250000J0D01*
G01*
X97573000Y-111233000D01*
G75*
G02*
X97323000Y-110983000I0J250000D01*
G01*
G37*
G04 #@! TD.AperFunction*
G04 #@! TA.AperFunction,SMDPad,CuDef*
G36*
G01*
X66749000Y-86962000D02*
X66749000Y-86012000D01*
G75*
G02*
X66999000Y-85762000I250000J0D01*
G01*
X67499000Y-85762000D01*
G75*
G02*
X67749000Y-86012000I0J-250000D01*
G01*
X67749000Y-86962000D01*
G75*
G02*
X67499000Y-87212000I-250000J0D01*
G01*
X66999000Y-87212000D01*
G75*
G02*
X66749000Y-86962000I0J250000D01*
G01*
G37*
G04 #@! TD.AperFunction*
G04 #@! TA.AperFunction,SMDPad,CuDef*
G36*
G01*
X68649000Y-86962000D02*
X68649000Y-86012000D01*
G75*
G02*
X68899000Y-85762000I250000J0D01*
G01*
X69399000Y-85762000D01*
G75*
G02*
X69649000Y-86012000I0J-250000D01*
G01*
X69649000Y-86962000D01*
G75*
G02*
X69399000Y-87212000I-250000J0D01*
G01*
X68899000Y-87212000D01*
G75*
G02*
X68649000Y-86962000I0J250000D01*
G01*
G37*
G04 #@! TD.AperFunction*
G04 #@! TA.AperFunction,SMDPad,CuDef*
G36*
G01*
X104246000Y-83462000D02*
X104246000Y-83162000D01*
G75*
G02*
X104396000Y-83012000I150000J0D01*
G01*
X106046000Y-83012000D01*
G75*
G02*
X106196000Y-83162000I0J-150000D01*
G01*
X106196000Y-83462000D01*
G75*
G02*
X106046000Y-83612000I-150000J0D01*
G01*
X104396000Y-83612000D01*
G75*
G02*
X104246000Y-83462000I0J150000D01*
G01*
G37*
G04 #@! TD.AperFunction*
G04 #@! TA.AperFunction,SMDPad,CuDef*
G36*
G01*
X104246000Y-84732000D02*
X104246000Y-84432000D01*
G75*
G02*
X104396000Y-84282000I150000J0D01*
G01*
X106046000Y-84282000D01*
G75*
G02*
X106196000Y-84432000I0J-150000D01*
G01*
X106196000Y-84732000D01*
G75*
G02*
X106046000Y-84882000I-150000J0D01*
G01*
X104396000Y-84882000D01*
G75*
G02*
X104246000Y-84732000I0J150000D01*
G01*
G37*
G04 #@! TD.AperFunction*
G04 #@! TA.AperFunction,SMDPad,CuDef*
G36*
G01*
X104246000Y-86002000D02*
X104246000Y-85702000D01*
G75*
G02*
X104396000Y-85552000I150000J0D01*
G01*
X106046000Y-85552000D01*
G75*
G02*
X106196000Y-85702000I0J-150000D01*
G01*
X106196000Y-86002000D01*
G75*
G02*
X106046000Y-86152000I-150000J0D01*
G01*
X104396000Y-86152000D01*
G75*
G02*
X104246000Y-86002000I0J150000D01*
G01*
G37*
G04 #@! TD.AperFunction*
G04 #@! TA.AperFunction,SMDPad,CuDef*
G36*
G01*
X104246000Y-87272000D02*
X104246000Y-86972000D01*
G75*
G02*
X104396000Y-86822000I150000J0D01*
G01*
X106046000Y-86822000D01*
G75*
G02*
X106196000Y-86972000I0J-150000D01*
G01*
X106196000Y-87272000D01*
G75*
G02*
X106046000Y-87422000I-150000J0D01*
G01*
X104396000Y-87422000D01*
G75*
G02*
X104246000Y-87272000I0J150000D01*
G01*
G37*
G04 #@! TD.AperFunction*
G04 #@! TA.AperFunction,SMDPad,CuDef*
G36*
G01*
X104246000Y-88542000D02*
X104246000Y-88242000D01*
G75*
G02*
X104396000Y-88092000I150000J0D01*
G01*
X106046000Y-88092000D01*
G75*
G02*
X106196000Y-88242000I0J-150000D01*
G01*
X106196000Y-88542000D01*
G75*
G02*
X106046000Y-88692000I-150000J0D01*
G01*
X104396000Y-88692000D01*
G75*
G02*
X104246000Y-88542000I0J150000D01*
G01*
G37*
G04 #@! TD.AperFunction*
G04 #@! TA.AperFunction,SMDPad,CuDef*
G36*
G01*
X104246000Y-89812000D02*
X104246000Y-89512000D01*
G75*
G02*
X104396000Y-89362000I150000J0D01*
G01*
X106046000Y-89362000D01*
G75*
G02*
X106196000Y-89512000I0J-150000D01*
G01*
X106196000Y-89812000D01*
G75*
G02*
X106046000Y-89962000I-150000J0D01*
G01*
X104396000Y-89962000D01*
G75*
G02*
X104246000Y-89812000I0J150000D01*
G01*
G37*
G04 #@! TD.AperFunction*
G04 #@! TA.AperFunction,SMDPad,CuDef*
G36*
G01*
X104246000Y-91082000D02*
X104246000Y-90782000D01*
G75*
G02*
X104396000Y-90632000I150000J0D01*
G01*
X106046000Y-90632000D01*
G75*
G02*
X106196000Y-90782000I0J-150000D01*
G01*
X106196000Y-91082000D01*
G75*
G02*
X106046000Y-91232000I-150000J0D01*
G01*
X104396000Y-91232000D01*
G75*
G02*
X104246000Y-91082000I0J150000D01*
G01*
G37*
G04 #@! TD.AperFunction*
G04 #@! TA.AperFunction,SMDPad,CuDef*
G36*
G01*
X109196000Y-91082000D02*
X109196000Y-90782000D01*
G75*
G02*
X109346000Y-90632000I150000J0D01*
G01*
X110996000Y-90632000D01*
G75*
G02*
X111146000Y-90782000I0J-150000D01*
G01*
X111146000Y-91082000D01*
G75*
G02*
X110996000Y-91232000I-150000J0D01*
G01*
X109346000Y-91232000D01*
G75*
G02*
X109196000Y-91082000I0J150000D01*
G01*
G37*
G04 #@! TD.AperFunction*
G04 #@! TA.AperFunction,SMDPad,CuDef*
G36*
G01*
X109196000Y-89812000D02*
X109196000Y-89512000D01*
G75*
G02*
X109346000Y-89362000I150000J0D01*
G01*
X110996000Y-89362000D01*
G75*
G02*
X111146000Y-89512000I0J-150000D01*
G01*
X111146000Y-89812000D01*
G75*
G02*
X110996000Y-89962000I-150000J0D01*
G01*
X109346000Y-89962000D01*
G75*
G02*
X109196000Y-89812000I0J150000D01*
G01*
G37*
G04 #@! TD.AperFunction*
G04 #@! TA.AperFunction,SMDPad,CuDef*
G36*
G01*
X109196000Y-88542000D02*
X109196000Y-88242000D01*
G75*
G02*
X109346000Y-88092000I150000J0D01*
G01*
X110996000Y-88092000D01*
G75*
G02*
X111146000Y-88242000I0J-150000D01*
G01*
X111146000Y-88542000D01*
G75*
G02*
X110996000Y-88692000I-150000J0D01*
G01*
X109346000Y-88692000D01*
G75*
G02*
X109196000Y-88542000I0J150000D01*
G01*
G37*
G04 #@! TD.AperFunction*
G04 #@! TA.AperFunction,SMDPad,CuDef*
G36*
G01*
X109196000Y-87272000D02*
X109196000Y-86972000D01*
G75*
G02*
X109346000Y-86822000I150000J0D01*
G01*
X110996000Y-86822000D01*
G75*
G02*
X111146000Y-86972000I0J-150000D01*
G01*
X111146000Y-87272000D01*
G75*
G02*
X110996000Y-87422000I-150000J0D01*
G01*
X109346000Y-87422000D01*
G75*
G02*
X109196000Y-87272000I0J150000D01*
G01*
G37*
G04 #@! TD.AperFunction*
G04 #@! TA.AperFunction,SMDPad,CuDef*
G36*
G01*
X109196000Y-86002000D02*
X109196000Y-85702000D01*
G75*
G02*
X109346000Y-85552000I150000J0D01*
G01*
X110996000Y-85552000D01*
G75*
G02*
X111146000Y-85702000I0J-150000D01*
G01*
X111146000Y-86002000D01*
G75*
G02*
X110996000Y-86152000I-150000J0D01*
G01*
X109346000Y-86152000D01*
G75*
G02*
X109196000Y-86002000I0J150000D01*
G01*
G37*
G04 #@! TD.AperFunction*
G04 #@! TA.AperFunction,SMDPad,CuDef*
G36*
G01*
X109196000Y-84732000D02*
X109196000Y-84432000D01*
G75*
G02*
X109346000Y-84282000I150000J0D01*
G01*
X110996000Y-84282000D01*
G75*
G02*
X111146000Y-84432000I0J-150000D01*
G01*
X111146000Y-84732000D01*
G75*
G02*
X110996000Y-84882000I-150000J0D01*
G01*
X109346000Y-84882000D01*
G75*
G02*
X109196000Y-84732000I0J150000D01*
G01*
G37*
G04 #@! TD.AperFunction*
G04 #@! TA.AperFunction,SMDPad,CuDef*
G36*
G01*
X109196000Y-83462000D02*
X109196000Y-83162000D01*
G75*
G02*
X109346000Y-83012000I150000J0D01*
G01*
X110996000Y-83012000D01*
G75*
G02*
X111146000Y-83162000I0J-150000D01*
G01*
X111146000Y-83462000D01*
G75*
G02*
X110996000Y-83612000I-150000J0D01*
G01*
X109346000Y-83612000D01*
G75*
G02*
X109196000Y-83462000I0J150000D01*
G01*
G37*
G04 #@! TD.AperFunction*
D13*
X73280000Y-89535000D03*
X76580000Y-89535000D03*
G04 #@! TA.AperFunction,SMDPad,CuDef*
G36*
G01*
X95217000Y-60886000D02*
X94267000Y-60886000D01*
G75*
G02*
X94017000Y-60636000I0J250000D01*
G01*
X94017000Y-60136000D01*
G75*
G02*
X94267000Y-59886000I250000J0D01*
G01*
X95217000Y-59886000D01*
G75*
G02*
X95467000Y-60136000I0J-250000D01*
G01*
X95467000Y-60636000D01*
G75*
G02*
X95217000Y-60886000I-250000J0D01*
G01*
G37*
G04 #@! TD.AperFunction*
G04 #@! TA.AperFunction,SMDPad,CuDef*
G36*
G01*
X95217000Y-58986000D02*
X94267000Y-58986000D01*
G75*
G02*
X94017000Y-58736000I0J250000D01*
G01*
X94017000Y-58236000D01*
G75*
G02*
X94267000Y-57986000I250000J0D01*
G01*
X95217000Y-57986000D01*
G75*
G02*
X95467000Y-58236000I0J-250000D01*
G01*
X95467000Y-58736000D01*
G75*
G02*
X95217000Y-58986000I-250000J0D01*
G01*
G37*
G04 #@! TD.AperFunction*
G04 #@! TA.AperFunction,SMDPad,CuDef*
G36*
G01*
X133963000Y-107083000D02*
X133963000Y-105833000D01*
G75*
G02*
X134113000Y-105683000I150000J0D01*
G01*
X134413000Y-105683000D01*
G75*
G02*
X134563000Y-105833000I0J-150000D01*
G01*
X134563000Y-107083000D01*
G75*
G02*
X134413000Y-107233000I-150000J0D01*
G01*
X134113000Y-107233000D01*
G75*
G02*
X133963000Y-107083000I0J150000D01*
G01*
G37*
G04 #@! TD.AperFunction*
G04 #@! TA.AperFunction,SMDPad,CuDef*
G36*
G01*
X134963000Y-107083000D02*
X134963000Y-105833000D01*
G75*
G02*
X135113000Y-105683000I150000J0D01*
G01*
X135413000Y-105683000D01*
G75*
G02*
X135563000Y-105833000I0J-150000D01*
G01*
X135563000Y-107083000D01*
G75*
G02*
X135413000Y-107233000I-150000J0D01*
G01*
X135113000Y-107233000D01*
G75*
G02*
X134963000Y-107083000I0J150000D01*
G01*
G37*
G04 #@! TD.AperFunction*
G04 #@! TA.AperFunction,SMDPad,CuDef*
G36*
G01*
X135963000Y-107083000D02*
X135963000Y-105833000D01*
G75*
G02*
X136113000Y-105683000I150000J0D01*
G01*
X136413000Y-105683000D01*
G75*
G02*
X136563000Y-105833000I0J-150000D01*
G01*
X136563000Y-107083000D01*
G75*
G02*
X136413000Y-107233000I-150000J0D01*
G01*
X136113000Y-107233000D01*
G75*
G02*
X135963000Y-107083000I0J150000D01*
G01*
G37*
G04 #@! TD.AperFunction*
G04 #@! TA.AperFunction,SMDPad,CuDef*
G36*
G01*
X136963000Y-107083000D02*
X136963000Y-105833000D01*
G75*
G02*
X137113000Y-105683000I150000J0D01*
G01*
X137413000Y-105683000D01*
G75*
G02*
X137563000Y-105833000I0J-150000D01*
G01*
X137563000Y-107083000D01*
G75*
G02*
X137413000Y-107233000I-150000J0D01*
G01*
X137113000Y-107233000D01*
G75*
G02*
X136963000Y-107083000I0J150000D01*
G01*
G37*
G04 #@! TD.AperFunction*
G04 #@! TA.AperFunction,SMDPad,CuDef*
G36*
G01*
X132363000Y-110983000D02*
X132363000Y-109683000D01*
G75*
G02*
X132613000Y-109433000I250000J0D01*
G01*
X133313000Y-109433000D01*
G75*
G02*
X133563000Y-109683000I0J-250000D01*
G01*
X133563000Y-110983000D01*
G75*
G02*
X133313000Y-111233000I-250000J0D01*
G01*
X132613000Y-111233000D01*
G75*
G02*
X132363000Y-110983000I0J250000D01*
G01*
G37*
G04 #@! TD.AperFunction*
G04 #@! TA.AperFunction,SMDPad,CuDef*
G36*
G01*
X137963000Y-110983000D02*
X137963000Y-109683000D01*
G75*
G02*
X138213000Y-109433000I250000J0D01*
G01*
X138913000Y-109433000D01*
G75*
G02*
X139163000Y-109683000I0J-250000D01*
G01*
X139163000Y-110983000D01*
G75*
G02*
X138913000Y-111233000I-250000J0D01*
G01*
X138213000Y-111233000D01*
G75*
G02*
X137963000Y-110983000I0J250000D01*
G01*
G37*
G04 #@! TD.AperFunction*
G04 #@! TA.AperFunction,SMDPad,CuDef*
G36*
G01*
X80084000Y-59276000D02*
X80084000Y-58326000D01*
G75*
G02*
X80334000Y-58076000I250000J0D01*
G01*
X80834000Y-58076000D01*
G75*
G02*
X81084000Y-58326000I0J-250000D01*
G01*
X81084000Y-59276000D01*
G75*
G02*
X80834000Y-59526000I-250000J0D01*
G01*
X80334000Y-59526000D01*
G75*
G02*
X80084000Y-59276000I0J250000D01*
G01*
G37*
G04 #@! TD.AperFunction*
G04 #@! TA.AperFunction,SMDPad,CuDef*
G36*
G01*
X81984000Y-59276000D02*
X81984000Y-58326000D01*
G75*
G02*
X82234000Y-58076000I250000J0D01*
G01*
X82734000Y-58076000D01*
G75*
G02*
X82984000Y-58326000I0J-250000D01*
G01*
X82984000Y-59276000D01*
G75*
G02*
X82734000Y-59526000I-250000J0D01*
G01*
X82234000Y-59526000D01*
G75*
G02*
X81984000Y-59276000I0J250000D01*
G01*
G37*
G04 #@! TD.AperFunction*
G04 #@! TA.AperFunction,SMDPad,CuDef*
G36*
G01*
X113643000Y-107083000D02*
X113643000Y-105833000D01*
G75*
G02*
X113793000Y-105683000I150000J0D01*
G01*
X114093000Y-105683000D01*
G75*
G02*
X114243000Y-105833000I0J-150000D01*
G01*
X114243000Y-107083000D01*
G75*
G02*
X114093000Y-107233000I-150000J0D01*
G01*
X113793000Y-107233000D01*
G75*
G02*
X113643000Y-107083000I0J150000D01*
G01*
G37*
G04 #@! TD.AperFunction*
G04 #@! TA.AperFunction,SMDPad,CuDef*
G36*
G01*
X114643000Y-107083000D02*
X114643000Y-105833000D01*
G75*
G02*
X114793000Y-105683000I150000J0D01*
G01*
X115093000Y-105683000D01*
G75*
G02*
X115243000Y-105833000I0J-150000D01*
G01*
X115243000Y-107083000D01*
G75*
G02*
X115093000Y-107233000I-150000J0D01*
G01*
X114793000Y-107233000D01*
G75*
G02*
X114643000Y-107083000I0J150000D01*
G01*
G37*
G04 #@! TD.AperFunction*
G04 #@! TA.AperFunction,SMDPad,CuDef*
G36*
G01*
X115643000Y-107083000D02*
X115643000Y-105833000D01*
G75*
G02*
X115793000Y-105683000I150000J0D01*
G01*
X116093000Y-105683000D01*
G75*
G02*
X116243000Y-105833000I0J-150000D01*
G01*
X116243000Y-107083000D01*
G75*
G02*
X116093000Y-107233000I-150000J0D01*
G01*
X115793000Y-107233000D01*
G75*
G02*
X115643000Y-107083000I0J150000D01*
G01*
G37*
G04 #@! TD.AperFunction*
G04 #@! TA.AperFunction,SMDPad,CuDef*
G36*
G01*
X116643000Y-107083000D02*
X116643000Y-105833000D01*
G75*
G02*
X116793000Y-105683000I150000J0D01*
G01*
X117093000Y-105683000D01*
G75*
G02*
X117243000Y-105833000I0J-150000D01*
G01*
X117243000Y-107083000D01*
G75*
G02*
X117093000Y-107233000I-150000J0D01*
G01*
X116793000Y-107233000D01*
G75*
G02*
X116643000Y-107083000I0J150000D01*
G01*
G37*
G04 #@! TD.AperFunction*
G04 #@! TA.AperFunction,SMDPad,CuDef*
G36*
G01*
X112043000Y-110983000D02*
X112043000Y-109683000D01*
G75*
G02*
X112293000Y-109433000I250000J0D01*
G01*
X112993000Y-109433000D01*
G75*
G02*
X113243000Y-109683000I0J-250000D01*
G01*
X113243000Y-110983000D01*
G75*
G02*
X112993000Y-111233000I-250000J0D01*
G01*
X112293000Y-111233000D01*
G75*
G02*
X112043000Y-110983000I0J250000D01*
G01*
G37*
G04 #@! TD.AperFunction*
G04 #@! TA.AperFunction,SMDPad,CuDef*
G36*
G01*
X117643000Y-110983000D02*
X117643000Y-109683000D01*
G75*
G02*
X117893000Y-109433000I250000J0D01*
G01*
X118593000Y-109433000D01*
G75*
G02*
X118843000Y-109683000I0J-250000D01*
G01*
X118843000Y-110983000D01*
G75*
G02*
X118593000Y-111233000I-250000J0D01*
G01*
X117893000Y-111233000D01*
G75*
G02*
X117643000Y-110983000I0J250000D01*
G01*
G37*
G04 #@! TD.AperFunction*
G04 #@! TA.AperFunction,SMDPad,CuDef*
G36*
G01*
X77437000Y-56314000D02*
X76487000Y-56314000D01*
G75*
G02*
X76237000Y-56064000I0J250000D01*
G01*
X76237000Y-55564000D01*
G75*
G02*
X76487000Y-55314000I250000J0D01*
G01*
X77437000Y-55314000D01*
G75*
G02*
X77687000Y-55564000I0J-250000D01*
G01*
X77687000Y-56064000D01*
G75*
G02*
X77437000Y-56314000I-250000J0D01*
G01*
G37*
G04 #@! TD.AperFunction*
G04 #@! TA.AperFunction,SMDPad,CuDef*
G36*
G01*
X77437000Y-54414000D02*
X76487000Y-54414000D01*
G75*
G02*
X76237000Y-54164000I0J250000D01*
G01*
X76237000Y-53664000D01*
G75*
G02*
X76487000Y-53414000I250000J0D01*
G01*
X77437000Y-53414000D01*
G75*
G02*
X77687000Y-53664000I0J-250000D01*
G01*
X77687000Y-54164000D01*
G75*
G02*
X77437000Y-54414000I-250000J0D01*
G01*
G37*
G04 #@! TD.AperFunction*
G04 #@! TA.AperFunction,SMDPad,CuDef*
G36*
G01*
X143457000Y-92296000D02*
X143457000Y-91346000D01*
G75*
G02*
X143707000Y-91096000I250000J0D01*
G01*
X144207000Y-91096000D01*
G75*
G02*
X144457000Y-91346000I0J-250000D01*
G01*
X144457000Y-92296000D01*
G75*
G02*
X144207000Y-92546000I-250000J0D01*
G01*
X143707000Y-92546000D01*
G75*
G02*
X143457000Y-92296000I0J250000D01*
G01*
G37*
G04 #@! TD.AperFunction*
G04 #@! TA.AperFunction,SMDPad,CuDef*
G36*
G01*
X145357000Y-92296000D02*
X145357000Y-91346000D01*
G75*
G02*
X145607000Y-91096000I250000J0D01*
G01*
X146107000Y-91096000D01*
G75*
G02*
X146357000Y-91346000I0J-250000D01*
G01*
X146357000Y-92296000D01*
G75*
G02*
X146107000Y-92546000I-250000J0D01*
G01*
X145607000Y-92546000D01*
G75*
G02*
X145357000Y-92296000I0J250000D01*
G01*
G37*
G04 #@! TD.AperFunction*
G04 #@! TA.AperFunction,SMDPad,CuDef*
G36*
G01*
X85005000Y-87508000D02*
X83905000Y-87508000D01*
G75*
G02*
X83655000Y-87258000I0J250000D01*
G01*
X83655000Y-84258000D01*
G75*
G02*
X83905000Y-84008000I250000J0D01*
G01*
X85005000Y-84008000D01*
G75*
G02*
X85255000Y-84258000I0J-250000D01*
G01*
X85255000Y-87258000D01*
G75*
G02*
X85005000Y-87508000I-250000J0D01*
G01*
G37*
G04 #@! TD.AperFunction*
G04 #@! TA.AperFunction,SMDPad,CuDef*
G36*
G01*
X85005000Y-82108000D02*
X83905000Y-82108000D01*
G75*
G02*
X83655000Y-81858000I0J250000D01*
G01*
X83655000Y-78858000D01*
G75*
G02*
X83905000Y-78608000I250000J0D01*
G01*
X85005000Y-78608000D01*
G75*
G02*
X85255000Y-78858000I0J-250000D01*
G01*
X85255000Y-81858000D01*
G75*
G02*
X85005000Y-82108000I-250000J0D01*
G01*
G37*
G04 #@! TD.AperFunction*
G04 #@! TA.AperFunction,SMDPad,CuDef*
G36*
G01*
X129466000Y-92997000D02*
X129466000Y-93947000D01*
G75*
G02*
X129216000Y-94197000I-250000J0D01*
G01*
X128716000Y-94197000D01*
G75*
G02*
X128466000Y-93947000I0J250000D01*
G01*
X128466000Y-92997000D01*
G75*
G02*
X128716000Y-92747000I250000J0D01*
G01*
X129216000Y-92747000D01*
G75*
G02*
X129466000Y-92997000I0J-250000D01*
G01*
G37*
G04 #@! TD.AperFunction*
G04 #@! TA.AperFunction,SMDPad,CuDef*
G36*
G01*
X127566000Y-92997000D02*
X127566000Y-93947000D01*
G75*
G02*
X127316000Y-94197000I-250000J0D01*
G01*
X126816000Y-94197000D01*
G75*
G02*
X126566000Y-93947000I0J250000D01*
G01*
X126566000Y-92997000D01*
G75*
G02*
X126816000Y-92747000I250000J0D01*
G01*
X127316000Y-92747000D01*
G75*
G02*
X127566000Y-92997000I0J-250000D01*
G01*
G37*
G04 #@! TD.AperFunction*
D11*
X97930000Y-58752000D03*
X97930000Y-60022000D03*
X97930000Y-61292000D03*
X97930000Y-62562000D03*
X97930000Y-63832000D03*
X97930000Y-65102000D03*
X97930000Y-66372000D03*
X97930000Y-67642000D03*
X97930000Y-68912000D03*
X97930000Y-70182000D03*
X97930000Y-71452000D03*
X97930000Y-72722000D03*
X97930000Y-73992000D03*
X97930000Y-75262000D03*
D14*
X99695000Y-76512000D03*
X100965000Y-76512000D03*
X102235000Y-76512000D03*
X103505000Y-76512000D03*
X104775000Y-76512000D03*
X106045000Y-76512000D03*
X107315000Y-76512000D03*
X108585000Y-76512000D03*
X109855000Y-76512000D03*
X111125000Y-76512000D03*
X112395000Y-76512000D03*
X113665000Y-76512000D03*
D11*
X115430000Y-75262000D03*
X115430000Y-73992000D03*
X115430000Y-72722000D03*
X115430000Y-71452000D03*
X115430000Y-70182000D03*
X115430000Y-68912000D03*
X115430000Y-67642000D03*
X115430000Y-66372000D03*
X115430000Y-65102000D03*
X115430000Y-63832000D03*
X115430000Y-62562000D03*
X115430000Y-61292000D03*
X115430000Y-60022000D03*
X115430000Y-58752000D03*
D15*
X103780000Y-65072000D03*
X103780000Y-66472000D03*
X103780000Y-67872000D03*
X105180000Y-65072000D03*
X105180000Y-66472000D03*
X105180000Y-67872000D03*
X106580000Y-65072000D03*
X106580000Y-66472000D03*
X106580000Y-67872000D03*
G04 #@! TA.AperFunction,SMDPad,CuDef*
G36*
G01*
X88826000Y-92997000D02*
X88826000Y-93947000D01*
G75*
G02*
X88576000Y-94197000I-250000J0D01*
G01*
X88076000Y-94197000D01*
G75*
G02*
X87826000Y-93947000I0J250000D01*
G01*
X87826000Y-92997000D01*
G75*
G02*
X88076000Y-92747000I250000J0D01*
G01*
X88576000Y-92747000D01*
G75*
G02*
X88826000Y-92997000I0J-250000D01*
G01*
G37*
G04 #@! TD.AperFunction*
G04 #@! TA.AperFunction,SMDPad,CuDef*
G36*
G01*
X86926000Y-92997000D02*
X86926000Y-93947000D01*
G75*
G02*
X86676000Y-94197000I-250000J0D01*
G01*
X86176000Y-94197000D01*
G75*
G02*
X85926000Y-93947000I0J250000D01*
G01*
X85926000Y-92997000D01*
G75*
G02*
X86176000Y-92747000I250000J0D01*
G01*
X86676000Y-92747000D01*
G75*
G02*
X86926000Y-92997000I0J-250000D01*
G01*
G37*
G04 #@! TD.AperFunction*
D13*
X73280000Y-93599000D03*
X76580000Y-93599000D03*
G04 #@! TA.AperFunction,SMDPad,CuDef*
G36*
G01*
X144168000Y-100859000D02*
X143868000Y-100859000D01*
G75*
G02*
X143718000Y-100709000I0J150000D01*
G01*
X143718000Y-99259000D01*
G75*
G02*
X143868000Y-99109000I150000J0D01*
G01*
X144168000Y-99109000D01*
G75*
G02*
X144318000Y-99259000I0J-150000D01*
G01*
X144318000Y-100709000D01*
G75*
G02*
X144168000Y-100859000I-150000J0D01*
G01*
G37*
G04 #@! TD.AperFunction*
G04 #@! TA.AperFunction,SMDPad,CuDef*
G36*
G01*
X145438000Y-100859000D02*
X145138000Y-100859000D01*
G75*
G02*
X144988000Y-100709000I0J150000D01*
G01*
X144988000Y-99259000D01*
G75*
G02*
X145138000Y-99109000I150000J0D01*
G01*
X145438000Y-99109000D01*
G75*
G02*
X145588000Y-99259000I0J-150000D01*
G01*
X145588000Y-100709000D01*
G75*
G02*
X145438000Y-100859000I-150000J0D01*
G01*
G37*
G04 #@! TD.AperFunction*
G04 #@! TA.AperFunction,SMDPad,CuDef*
G36*
G01*
X146708000Y-100859000D02*
X146408000Y-100859000D01*
G75*
G02*
X146258000Y-100709000I0J150000D01*
G01*
X146258000Y-99259000D01*
G75*
G02*
X146408000Y-99109000I150000J0D01*
G01*
X146708000Y-99109000D01*
G75*
G02*
X146858000Y-99259000I0J-150000D01*
G01*
X146858000Y-100709000D01*
G75*
G02*
X146708000Y-100859000I-150000J0D01*
G01*
G37*
G04 #@! TD.AperFunction*
G04 #@! TA.AperFunction,SMDPad,CuDef*
G36*
G01*
X147978000Y-100859000D02*
X147678000Y-100859000D01*
G75*
G02*
X147528000Y-100709000I0J150000D01*
G01*
X147528000Y-99259000D01*
G75*
G02*
X147678000Y-99109000I150000J0D01*
G01*
X147978000Y-99109000D01*
G75*
G02*
X148128000Y-99259000I0J-150000D01*
G01*
X148128000Y-100709000D01*
G75*
G02*
X147978000Y-100859000I-150000J0D01*
G01*
G37*
G04 #@! TD.AperFunction*
G04 #@! TA.AperFunction,SMDPad,CuDef*
G36*
G01*
X147978000Y-95709000D02*
X147678000Y-95709000D01*
G75*
G02*
X147528000Y-95559000I0J150000D01*
G01*
X147528000Y-94109000D01*
G75*
G02*
X147678000Y-93959000I150000J0D01*
G01*
X147978000Y-93959000D01*
G75*
G02*
X148128000Y-94109000I0J-150000D01*
G01*
X148128000Y-95559000D01*
G75*
G02*
X147978000Y-95709000I-150000J0D01*
G01*
G37*
G04 #@! TD.AperFunction*
G04 #@! TA.AperFunction,SMDPad,CuDef*
G36*
G01*
X146708000Y-95709000D02*
X146408000Y-95709000D01*
G75*
G02*
X146258000Y-95559000I0J150000D01*
G01*
X146258000Y-94109000D01*
G75*
G02*
X146408000Y-93959000I150000J0D01*
G01*
X146708000Y-93959000D01*
G75*
G02*
X146858000Y-94109000I0J-150000D01*
G01*
X146858000Y-95559000D01*
G75*
G02*
X146708000Y-95709000I-150000J0D01*
G01*
G37*
G04 #@! TD.AperFunction*
G04 #@! TA.AperFunction,SMDPad,CuDef*
G36*
G01*
X145438000Y-95709000D02*
X145138000Y-95709000D01*
G75*
G02*
X144988000Y-95559000I0J150000D01*
G01*
X144988000Y-94109000D01*
G75*
G02*
X145138000Y-93959000I150000J0D01*
G01*
X145438000Y-93959000D01*
G75*
G02*
X145588000Y-94109000I0J-150000D01*
G01*
X145588000Y-95559000D01*
G75*
G02*
X145438000Y-95709000I-150000J0D01*
G01*
G37*
G04 #@! TD.AperFunction*
G04 #@! TA.AperFunction,SMDPad,CuDef*
G36*
G01*
X144168000Y-95709000D02*
X143868000Y-95709000D01*
G75*
G02*
X143718000Y-95559000I0J150000D01*
G01*
X143718000Y-94109000D01*
G75*
G02*
X143868000Y-93959000I150000J0D01*
G01*
X144168000Y-93959000D01*
G75*
G02*
X144318000Y-94109000I0J-150000D01*
G01*
X144318000Y-95559000D01*
G75*
G02*
X144168000Y-95709000I-150000J0D01*
G01*
G37*
G04 #@! TD.AperFunction*
G04 #@! TA.AperFunction,SMDPad,CuDef*
G36*
G01*
X78285000Y-76487000D02*
X78285000Y-77437000D01*
G75*
G02*
X78035000Y-77687000I-250000J0D01*
G01*
X77535000Y-77687000D01*
G75*
G02*
X77285000Y-77437000I0J250000D01*
G01*
X77285000Y-76487000D01*
G75*
G02*
X77535000Y-76237000I250000J0D01*
G01*
X78035000Y-76237000D01*
G75*
G02*
X78285000Y-76487000I0J-250000D01*
G01*
G37*
G04 #@! TD.AperFunction*
G04 #@! TA.AperFunction,SMDPad,CuDef*
G36*
G01*
X76385000Y-76487000D02*
X76385000Y-77437000D01*
G75*
G02*
X76135000Y-77687000I-250000J0D01*
G01*
X75635000Y-77687000D01*
G75*
G02*
X75385000Y-77437000I0J250000D01*
G01*
X75385000Y-76487000D01*
G75*
G02*
X75635000Y-76237000I250000J0D01*
G01*
X76135000Y-76237000D01*
G75*
G02*
X76385000Y-76487000I0J-250000D01*
G01*
G37*
G04 #@! TD.AperFunction*
G04 #@! TA.AperFunction,SMDPad,CuDef*
G36*
G01*
X60902000Y-57813000D02*
X60002000Y-57813000D01*
G75*
G02*
X59752000Y-57563000I0J250000D01*
G01*
X59752000Y-57038000D01*
G75*
G02*
X60002000Y-56788000I250000J0D01*
G01*
X60902000Y-56788000D01*
G75*
G02*
X61152000Y-57038000I0J-250000D01*
G01*
X61152000Y-57563000D01*
G75*
G02*
X60902000Y-57813000I-250000J0D01*
G01*
G37*
G04 #@! TD.AperFunction*
G04 #@! TA.AperFunction,SMDPad,CuDef*
G36*
G01*
X60902000Y-55988000D02*
X60002000Y-55988000D01*
G75*
G02*
X59752000Y-55738000I0J250000D01*
G01*
X59752000Y-55213000D01*
G75*
G02*
X60002000Y-54963000I250000J0D01*
G01*
X60902000Y-54963000D01*
G75*
G02*
X61152000Y-55213000I0J-250000D01*
G01*
X61152000Y-55738000D01*
G75*
G02*
X60902000Y-55988000I-250000J0D01*
G01*
G37*
G04 #@! TD.AperFunction*
G04 #@! TA.AperFunction,SMDPad,CuDef*
G36*
G01*
X73434000Y-62542000D02*
X73434000Y-63442000D01*
G75*
G02*
X73184000Y-63692000I-250000J0D01*
G01*
X72659000Y-63692000D01*
G75*
G02*
X72409000Y-63442000I0J250000D01*
G01*
X72409000Y-62542000D01*
G75*
G02*
X72659000Y-62292000I250000J0D01*
G01*
X73184000Y-62292000D01*
G75*
G02*
X73434000Y-62542000I0J-250000D01*
G01*
G37*
G04 #@! TD.AperFunction*
G04 #@! TA.AperFunction,SMDPad,CuDef*
G36*
G01*
X71609000Y-62542000D02*
X71609000Y-63442000D01*
G75*
G02*
X71359000Y-63692000I-250000J0D01*
G01*
X70834000Y-63692000D01*
G75*
G02*
X70584000Y-63442000I0J250000D01*
G01*
X70584000Y-62542000D01*
G75*
G02*
X70834000Y-62292000I250000J0D01*
G01*
X71359000Y-62292000D01*
G75*
G02*
X71609000Y-62542000I0J-250000D01*
G01*
G37*
G04 #@! TD.AperFunction*
G04 #@! TA.AperFunction,SMDPad,CuDef*
G36*
G01*
X98961000Y-95816000D02*
X98961000Y-96716000D01*
G75*
G02*
X98711000Y-96966000I-250000J0D01*
G01*
X98186000Y-96966000D01*
G75*
G02*
X97936000Y-96716000I0J250000D01*
G01*
X97936000Y-95816000D01*
G75*
G02*
X98186000Y-95566000I250000J0D01*
G01*
X98711000Y-95566000D01*
G75*
G02*
X98961000Y-95816000I0J-250000D01*
G01*
G37*
G04 #@! TD.AperFunction*
G04 #@! TA.AperFunction,SMDPad,CuDef*
G36*
G01*
X97136000Y-95816000D02*
X97136000Y-96716000D01*
G75*
G02*
X96886000Y-96966000I-250000J0D01*
G01*
X96361000Y-96966000D01*
G75*
G02*
X96111000Y-96716000I0J250000D01*
G01*
X96111000Y-95816000D01*
G75*
G02*
X96361000Y-95566000I250000J0D01*
G01*
X96886000Y-95566000D01*
G75*
G02*
X97136000Y-95816000I0J-250000D01*
G01*
G37*
G04 #@! TD.AperFunction*
G04 #@! TA.AperFunction,SMDPad,CuDef*
G36*
G01*
X109675000Y-81374000D02*
X109675000Y-80424000D01*
G75*
G02*
X109925000Y-80174000I250000J0D01*
G01*
X110425000Y-80174000D01*
G75*
G02*
X110675000Y-80424000I0J-250000D01*
G01*
X110675000Y-81374000D01*
G75*
G02*
X110425000Y-81624000I-250000J0D01*
G01*
X109925000Y-81624000D01*
G75*
G02*
X109675000Y-81374000I0J250000D01*
G01*
G37*
G04 #@! TD.AperFunction*
G04 #@! TA.AperFunction,SMDPad,CuDef*
G36*
G01*
X111575000Y-81374000D02*
X111575000Y-80424000D01*
G75*
G02*
X111825000Y-80174000I250000J0D01*
G01*
X112325000Y-80174000D01*
G75*
G02*
X112575000Y-80424000I0J-250000D01*
G01*
X112575000Y-81374000D01*
G75*
G02*
X112325000Y-81624000I-250000J0D01*
G01*
X111825000Y-81624000D01*
G75*
G02*
X111575000Y-81374000I0J250000D01*
G01*
G37*
G04 #@! TD.AperFunction*
G04 #@! TA.AperFunction,SMDPad,CuDef*
G36*
G01*
X66749000Y-84422000D02*
X66749000Y-83472000D01*
G75*
G02*
X66999000Y-83222000I250000J0D01*
G01*
X67499000Y-83222000D01*
G75*
G02*
X67749000Y-83472000I0J-250000D01*
G01*
X67749000Y-84422000D01*
G75*
G02*
X67499000Y-84672000I-250000J0D01*
G01*
X66999000Y-84672000D01*
G75*
G02*
X66749000Y-84422000I0J250000D01*
G01*
G37*
G04 #@! TD.AperFunction*
G04 #@! TA.AperFunction,SMDPad,CuDef*
G36*
G01*
X68649000Y-84422000D02*
X68649000Y-83472000D01*
G75*
G02*
X68899000Y-83222000I250000J0D01*
G01*
X69399000Y-83222000D01*
G75*
G02*
X69649000Y-83472000I0J-250000D01*
G01*
X69649000Y-84422000D01*
G75*
G02*
X69399000Y-84672000I-250000J0D01*
G01*
X68899000Y-84672000D01*
G75*
G02*
X68649000Y-84422000I0J250000D01*
G01*
G37*
G04 #@! TD.AperFunction*
G04 #@! TA.AperFunction,SMDPad,CuDef*
G36*
G01*
X55477000Y-69828000D02*
X56727000Y-69828000D01*
G75*
G02*
X56877000Y-69978000I0J-150000D01*
G01*
X56877000Y-70278000D01*
G75*
G02*
X56727000Y-70428000I-150000J0D01*
G01*
X55477000Y-70428000D01*
G75*
G02*
X55327000Y-70278000I0J150000D01*
G01*
X55327000Y-69978000D01*
G75*
G02*
X55477000Y-69828000I150000J0D01*
G01*
G37*
G04 #@! TD.AperFunction*
G04 #@! TA.AperFunction,SMDPad,CuDef*
G36*
G01*
X55477000Y-70828000D02*
X56727000Y-70828000D01*
G75*
G02*
X56877000Y-70978000I0J-150000D01*
G01*
X56877000Y-71278000D01*
G75*
G02*
X56727000Y-71428000I-150000J0D01*
G01*
X55477000Y-71428000D01*
G75*
G02*
X55327000Y-71278000I0J150000D01*
G01*
X55327000Y-70978000D01*
G75*
G02*
X55477000Y-70828000I150000J0D01*
G01*
G37*
G04 #@! TD.AperFunction*
G04 #@! TA.AperFunction,SMDPad,CuDef*
G36*
G01*
X55477000Y-71828000D02*
X56727000Y-71828000D01*
G75*
G02*
X56877000Y-71978000I0J-150000D01*
G01*
X56877000Y-72278000D01*
G75*
G02*
X56727000Y-72428000I-150000J0D01*
G01*
X55477000Y-72428000D01*
G75*
G02*
X55327000Y-72278000I0J150000D01*
G01*
X55327000Y-71978000D01*
G75*
G02*
X55477000Y-71828000I150000J0D01*
G01*
G37*
G04 #@! TD.AperFunction*
G04 #@! TA.AperFunction,SMDPad,CuDef*
G36*
G01*
X55477000Y-72828000D02*
X56727000Y-72828000D01*
G75*
G02*
X56877000Y-72978000I0J-150000D01*
G01*
X56877000Y-73278000D01*
G75*
G02*
X56727000Y-73428000I-150000J0D01*
G01*
X55477000Y-73428000D01*
G75*
G02*
X55327000Y-73278000I0J150000D01*
G01*
X55327000Y-72978000D01*
G75*
G02*
X55477000Y-72828000I150000J0D01*
G01*
G37*
G04 #@! TD.AperFunction*
G04 #@! TA.AperFunction,SMDPad,CuDef*
G36*
G01*
X51577000Y-68228000D02*
X52877000Y-68228000D01*
G75*
G02*
X53127000Y-68478000I0J-250000D01*
G01*
X53127000Y-69178000D01*
G75*
G02*
X52877000Y-69428000I-250000J0D01*
G01*
X51577000Y-69428000D01*
G75*
G02*
X51327000Y-69178000I0J250000D01*
G01*
X51327000Y-68478000D01*
G75*
G02*
X51577000Y-68228000I250000J0D01*
G01*
G37*
G04 #@! TD.AperFunction*
G04 #@! TA.AperFunction,SMDPad,CuDef*
G36*
G01*
X51577000Y-73828000D02*
X52877000Y-73828000D01*
G75*
G02*
X53127000Y-74078000I0J-250000D01*
G01*
X53127000Y-74778000D01*
G75*
G02*
X52877000Y-75028000I-250000J0D01*
G01*
X51577000Y-75028000D01*
G75*
G02*
X51327000Y-74778000I0J250000D01*
G01*
X51327000Y-74078000D01*
G75*
G02*
X51577000Y-73828000I250000J0D01*
G01*
G37*
G04 #@! TD.AperFunction*
G04 #@! TA.AperFunction,SMDPad,CuDef*
G36*
G01*
X92296000Y-60886000D02*
X91346000Y-60886000D01*
G75*
G02*
X91096000Y-60636000I0J250000D01*
G01*
X91096000Y-60136000D01*
G75*
G02*
X91346000Y-59886000I250000J0D01*
G01*
X92296000Y-59886000D01*
G75*
G02*
X92546000Y-60136000I0J-250000D01*
G01*
X92546000Y-60636000D01*
G75*
G02*
X92296000Y-60886000I-250000J0D01*
G01*
G37*
G04 #@! TD.AperFunction*
G04 #@! TA.AperFunction,SMDPad,CuDef*
G36*
G01*
X92296000Y-58986000D02*
X91346000Y-58986000D01*
G75*
G02*
X91096000Y-58736000I0J250000D01*
G01*
X91096000Y-58236000D01*
G75*
G02*
X91346000Y-57986000I250000J0D01*
G01*
X92296000Y-57986000D01*
G75*
G02*
X92546000Y-58236000I0J-250000D01*
G01*
X92546000Y-58736000D01*
G75*
G02*
X92296000Y-58986000I-250000J0D01*
G01*
G37*
G04 #@! TD.AperFunction*
D16*
X142920999Y-84414995D03*
D17*
X142920999Y-79414995D03*
G04 #@! TA.AperFunction,SMDPad,CuDef*
G36*
G01*
X66241000Y-63467000D02*
X66241000Y-62517000D01*
G75*
G02*
X66491000Y-62267000I250000J0D01*
G01*
X66991000Y-62267000D01*
G75*
G02*
X67241000Y-62517000I0J-250000D01*
G01*
X67241000Y-63467000D01*
G75*
G02*
X66991000Y-63717000I-250000J0D01*
G01*
X66491000Y-63717000D01*
G75*
G02*
X66241000Y-63467000I0J250000D01*
G01*
G37*
G04 #@! TD.AperFunction*
G04 #@! TA.AperFunction,SMDPad,CuDef*
G36*
G01*
X68141000Y-63467000D02*
X68141000Y-62517000D01*
G75*
G02*
X68391000Y-62267000I250000J0D01*
G01*
X68891000Y-62267000D01*
G75*
G02*
X69141000Y-62517000I0J-250000D01*
G01*
X69141000Y-63467000D01*
G75*
G02*
X68891000Y-63717000I-250000J0D01*
G01*
X68391000Y-63717000D01*
G75*
G02*
X68141000Y-63467000I0J250000D01*
G01*
G37*
G04 #@! TD.AperFunction*
D18*
X82818000Y-62382000D03*
X80518000Y-62382000D03*
D19*
X80518000Y-68682000D03*
D18*
X78218000Y-62382000D03*
G04 #@! TA.AperFunction,SMDPad,CuDef*
G36*
G01*
X139601000Y-95816000D02*
X139601000Y-96716000D01*
G75*
G02*
X139351000Y-96966000I-250000J0D01*
G01*
X138826000Y-96966000D01*
G75*
G02*
X138576000Y-96716000I0J250000D01*
G01*
X138576000Y-95816000D01*
G75*
G02*
X138826000Y-95566000I250000J0D01*
G01*
X139351000Y-95566000D01*
G75*
G02*
X139601000Y-95816000I0J-250000D01*
G01*
G37*
G04 #@! TD.AperFunction*
G04 #@! TA.AperFunction,SMDPad,CuDef*
G36*
G01*
X137776000Y-95816000D02*
X137776000Y-96716000D01*
G75*
G02*
X137526000Y-96966000I-250000J0D01*
G01*
X137001000Y-96966000D01*
G75*
G02*
X136751000Y-96716000I0J250000D01*
G01*
X136751000Y-95816000D01*
G75*
G02*
X137001000Y-95566000I250000J0D01*
G01*
X137526000Y-95566000D01*
G75*
G02*
X137776000Y-95816000I0J-250000D01*
G01*
G37*
G04 #@! TD.AperFunction*
D20*
X59546000Y-81077000D03*
X59546000Y-81877000D03*
X59546000Y-82677000D03*
X59546000Y-83477000D03*
X59546000Y-84277000D03*
D21*
X59446000Y-78227000D03*
X53946000Y-78227000D03*
X59446000Y-87127000D03*
X53946000Y-87127000D03*
D22*
X145542000Y-55118000D03*
D23*
X72136000Y-97767000D03*
D24*
X72136000Y-103767000D03*
D25*
X76836000Y-100767000D03*
D26*
X93091000Y-65151000D03*
D27*
X94361000Y-65151000D03*
X95631000Y-65151000D03*
G04 #@! TA.AperFunction,SMDPad,CuDef*
G36*
G01*
X73353000Y-84930000D02*
X73353000Y-83980000D01*
G75*
G02*
X73603000Y-83730000I250000J0D01*
G01*
X74103000Y-83730000D01*
G75*
G02*
X74353000Y-83980000I0J-250000D01*
G01*
X74353000Y-84930000D01*
G75*
G02*
X74103000Y-85180000I-250000J0D01*
G01*
X73603000Y-85180000D01*
G75*
G02*
X73353000Y-84930000I0J250000D01*
G01*
G37*
G04 #@! TD.AperFunction*
G04 #@! TA.AperFunction,SMDPad,CuDef*
G36*
G01*
X75253000Y-84930000D02*
X75253000Y-83980000D01*
G75*
G02*
X75503000Y-83730000I250000J0D01*
G01*
X76003000Y-83730000D01*
G75*
G02*
X76253000Y-83980000I0J-250000D01*
G01*
X76253000Y-84930000D01*
G75*
G02*
X76003000Y-85180000I-250000J0D01*
G01*
X75503000Y-85180000D01*
G75*
G02*
X75253000Y-84930000I0J250000D01*
G01*
G37*
G04 #@! TD.AperFunction*
G04 #@! TA.AperFunction,SMDPad,CuDef*
G36*
G01*
X139626000Y-92997000D02*
X139626000Y-93947000D01*
G75*
G02*
X139376000Y-94197000I-250000J0D01*
G01*
X138876000Y-94197000D01*
G75*
G02*
X138626000Y-93947000I0J250000D01*
G01*
X138626000Y-92997000D01*
G75*
G02*
X138876000Y-92747000I250000J0D01*
G01*
X139376000Y-92747000D01*
G75*
G02*
X139626000Y-92997000I0J-250000D01*
G01*
G37*
G04 #@! TD.AperFunction*
G04 #@! TA.AperFunction,SMDPad,CuDef*
G36*
G01*
X137726000Y-92997000D02*
X137726000Y-93947000D01*
G75*
G02*
X137476000Y-94197000I-250000J0D01*
G01*
X136976000Y-94197000D01*
G75*
G02*
X136726000Y-93947000I0J250000D01*
G01*
X136726000Y-92997000D01*
G75*
G02*
X136976000Y-92747000I250000J0D01*
G01*
X137476000Y-92747000D01*
G75*
G02*
X137726000Y-92997000I0J-250000D01*
G01*
G37*
G04 #@! TD.AperFunction*
G04 #@! TA.AperFunction,SMDPad,CuDef*
G36*
G01*
X129441000Y-95816000D02*
X129441000Y-96716000D01*
G75*
G02*
X129191000Y-96966000I-250000J0D01*
G01*
X128666000Y-96966000D01*
G75*
G02*
X128416000Y-96716000I0J250000D01*
G01*
X128416000Y-95816000D01*
G75*
G02*
X128666000Y-95566000I250000J0D01*
G01*
X129191000Y-95566000D01*
G75*
G02*
X129441000Y-95816000I0J-250000D01*
G01*
G37*
G04 #@! TD.AperFunction*
G04 #@! TA.AperFunction,SMDPad,CuDef*
G36*
G01*
X127616000Y-95816000D02*
X127616000Y-96716000D01*
G75*
G02*
X127366000Y-96966000I-250000J0D01*
G01*
X126841000Y-96966000D01*
G75*
G02*
X126591000Y-96716000I0J250000D01*
G01*
X126591000Y-95816000D01*
G75*
G02*
X126841000Y-95566000I250000J0D01*
G01*
X127366000Y-95566000D01*
G75*
G02*
X127616000Y-95816000I0J-250000D01*
G01*
G37*
G04 #@! TD.AperFunction*
D28*
X132737000Y-64264000D03*
X132737000Y-65364000D03*
X132737000Y-66464000D03*
X132737000Y-67564000D03*
X132737000Y-68664000D03*
X132737000Y-69764000D03*
X132737000Y-70864000D03*
X132737000Y-71964000D03*
X132737000Y-72914000D03*
D29*
X143237000Y-73864000D03*
D30*
X137037000Y-73864000D03*
D31*
X147387000Y-73864000D03*
D30*
X132737000Y-62714000D03*
D32*
X147837000Y-60364000D03*
G04 #@! TA.AperFunction,SMDPad,CuDef*
G36*
G01*
X86810000Y-70259000D02*
X85910000Y-70259000D01*
G75*
G02*
X85660000Y-70009000I0J250000D01*
G01*
X85660000Y-69484000D01*
G75*
G02*
X85910000Y-69234000I250000J0D01*
G01*
X86810000Y-69234000D01*
G75*
G02*
X87060000Y-69484000I0J-250000D01*
G01*
X87060000Y-70009000D01*
G75*
G02*
X86810000Y-70259000I-250000J0D01*
G01*
G37*
G04 #@! TD.AperFunction*
G04 #@! TA.AperFunction,SMDPad,CuDef*
G36*
G01*
X86810000Y-68434000D02*
X85910000Y-68434000D01*
G75*
G02*
X85660000Y-68184000I0J250000D01*
G01*
X85660000Y-67659000D01*
G75*
G02*
X85910000Y-67409000I250000J0D01*
G01*
X86810000Y-67409000D01*
G75*
G02*
X87060000Y-67659000I0J-250000D01*
G01*
X87060000Y-68184000D01*
G75*
G02*
X86810000Y-68434000I-250000J0D01*
G01*
G37*
G04 #@! TD.AperFunction*
G04 #@! TA.AperFunction,SMDPad,CuDef*
G36*
G01*
X134521000Y-95816000D02*
X134521000Y-96716000D01*
G75*
G02*
X134271000Y-96966000I-250000J0D01*
G01*
X133746000Y-96966000D01*
G75*
G02*
X133496000Y-96716000I0J250000D01*
G01*
X133496000Y-95816000D01*
G75*
G02*
X133746000Y-95566000I250000J0D01*
G01*
X134271000Y-95566000D01*
G75*
G02*
X134521000Y-95816000I0J-250000D01*
G01*
G37*
G04 #@! TD.AperFunction*
G04 #@! TA.AperFunction,SMDPad,CuDef*
G36*
G01*
X132696000Y-95816000D02*
X132696000Y-96716000D01*
G75*
G02*
X132446000Y-96966000I-250000J0D01*
G01*
X131921000Y-96966000D01*
G75*
G02*
X131671000Y-96716000I0J250000D01*
G01*
X131671000Y-95816000D01*
G75*
G02*
X131921000Y-95566000I250000J0D01*
G01*
X132446000Y-95566000D01*
G75*
G02*
X132696000Y-95816000I0J-250000D01*
G01*
G37*
G04 #@! TD.AperFunction*
G04 #@! TA.AperFunction,SMDPad,CuDef*
G36*
G01*
X80714000Y-56289000D02*
X79814000Y-56289000D01*
G75*
G02*
X79564000Y-56039000I0J250000D01*
G01*
X79564000Y-55514000D01*
G75*
G02*
X79814000Y-55264000I250000J0D01*
G01*
X80714000Y-55264000D01*
G75*
G02*
X80964000Y-55514000I0J-250000D01*
G01*
X80964000Y-56039000D01*
G75*
G02*
X80714000Y-56289000I-250000J0D01*
G01*
G37*
G04 #@! TD.AperFunction*
G04 #@! TA.AperFunction,SMDPad,CuDef*
G36*
G01*
X80714000Y-54464000D02*
X79814000Y-54464000D01*
G75*
G02*
X79564000Y-54214000I0J250000D01*
G01*
X79564000Y-53689000D01*
G75*
G02*
X79814000Y-53439000I250000J0D01*
G01*
X80714000Y-53439000D01*
G75*
G02*
X80964000Y-53689000I0J-250000D01*
G01*
X80964000Y-54214000D01*
G75*
G02*
X80714000Y-54464000I-250000J0D01*
G01*
G37*
G04 #@! TD.AperFunction*
G04 #@! TA.AperFunction,SMDPad,CuDef*
G36*
G01*
X103483000Y-107083000D02*
X103483000Y-105833000D01*
G75*
G02*
X103633000Y-105683000I150000J0D01*
G01*
X103933000Y-105683000D01*
G75*
G02*
X104083000Y-105833000I0J-150000D01*
G01*
X104083000Y-107083000D01*
G75*
G02*
X103933000Y-107233000I-150000J0D01*
G01*
X103633000Y-107233000D01*
G75*
G02*
X103483000Y-107083000I0J150000D01*
G01*
G37*
G04 #@! TD.AperFunction*
G04 #@! TA.AperFunction,SMDPad,CuDef*
G36*
G01*
X104483000Y-107083000D02*
X104483000Y-105833000D01*
G75*
G02*
X104633000Y-105683000I150000J0D01*
G01*
X104933000Y-105683000D01*
G75*
G02*
X105083000Y-105833000I0J-150000D01*
G01*
X105083000Y-107083000D01*
G75*
G02*
X104933000Y-107233000I-150000J0D01*
G01*
X104633000Y-107233000D01*
G75*
G02*
X104483000Y-107083000I0J150000D01*
G01*
G37*
G04 #@! TD.AperFunction*
G04 #@! TA.AperFunction,SMDPad,CuDef*
G36*
G01*
X105483000Y-107083000D02*
X105483000Y-105833000D01*
G75*
G02*
X105633000Y-105683000I150000J0D01*
G01*
X105933000Y-105683000D01*
G75*
G02*
X106083000Y-105833000I0J-150000D01*
G01*
X106083000Y-107083000D01*
G75*
G02*
X105933000Y-107233000I-150000J0D01*
G01*
X105633000Y-107233000D01*
G75*
G02*
X105483000Y-107083000I0J150000D01*
G01*
G37*
G04 #@! TD.AperFunction*
G04 #@! TA.AperFunction,SMDPad,CuDef*
G36*
G01*
X106483000Y-107083000D02*
X106483000Y-105833000D01*
G75*
G02*
X106633000Y-105683000I150000J0D01*
G01*
X106933000Y-105683000D01*
G75*
G02*
X107083000Y-105833000I0J-150000D01*
G01*
X107083000Y-107083000D01*
G75*
G02*
X106933000Y-107233000I-150000J0D01*
G01*
X106633000Y-107233000D01*
G75*
G02*
X106483000Y-107083000I0J150000D01*
G01*
G37*
G04 #@! TD.AperFunction*
G04 #@! TA.AperFunction,SMDPad,CuDef*
G36*
G01*
X101883000Y-110983000D02*
X101883000Y-109683000D01*
G75*
G02*
X102133000Y-109433000I250000J0D01*
G01*
X102833000Y-109433000D01*
G75*
G02*
X103083000Y-109683000I0J-250000D01*
G01*
X103083000Y-110983000D01*
G75*
G02*
X102833000Y-111233000I-250000J0D01*
G01*
X102133000Y-111233000D01*
G75*
G02*
X101883000Y-110983000I0J250000D01*
G01*
G37*
G04 #@! TD.AperFunction*
G04 #@! TA.AperFunction,SMDPad,CuDef*
G36*
G01*
X107483000Y-110983000D02*
X107483000Y-109683000D01*
G75*
G02*
X107733000Y-109433000I250000J0D01*
G01*
X108433000Y-109433000D01*
G75*
G02*
X108683000Y-109683000I0J-250000D01*
G01*
X108683000Y-110983000D01*
G75*
G02*
X108433000Y-111233000I-250000J0D01*
G01*
X107733000Y-111233000D01*
G75*
G02*
X107483000Y-110983000I0J250000D01*
G01*
G37*
G04 #@! TD.AperFunction*
D22*
X145542000Y-107442000D03*
D16*
X61422001Y-93258005D03*
D17*
X61422001Y-98258005D03*
G04 #@! TA.AperFunction,SMDPad,CuDef*
G36*
G01*
X123803000Y-107083000D02*
X123803000Y-105833000D01*
G75*
G02*
X123953000Y-105683000I150000J0D01*
G01*
X124253000Y-105683000D01*
G75*
G02*
X124403000Y-105833000I0J-150000D01*
G01*
X124403000Y-107083000D01*
G75*
G02*
X124253000Y-107233000I-150000J0D01*
G01*
X123953000Y-107233000D01*
G75*
G02*
X123803000Y-107083000I0J150000D01*
G01*
G37*
G04 #@! TD.AperFunction*
G04 #@! TA.AperFunction,SMDPad,CuDef*
G36*
G01*
X124803000Y-107083000D02*
X124803000Y-105833000D01*
G75*
G02*
X124953000Y-105683000I150000J0D01*
G01*
X125253000Y-105683000D01*
G75*
G02*
X125403000Y-105833000I0J-150000D01*
G01*
X125403000Y-107083000D01*
G75*
G02*
X125253000Y-107233000I-150000J0D01*
G01*
X124953000Y-107233000D01*
G75*
G02*
X124803000Y-107083000I0J150000D01*
G01*
G37*
G04 #@! TD.AperFunction*
G04 #@! TA.AperFunction,SMDPad,CuDef*
G36*
G01*
X125803000Y-107083000D02*
X125803000Y-105833000D01*
G75*
G02*
X125953000Y-105683000I150000J0D01*
G01*
X126253000Y-105683000D01*
G75*
G02*
X126403000Y-105833000I0J-150000D01*
G01*
X126403000Y-107083000D01*
G75*
G02*
X126253000Y-107233000I-150000J0D01*
G01*
X125953000Y-107233000D01*
G75*
G02*
X125803000Y-107083000I0J150000D01*
G01*
G37*
G04 #@! TD.AperFunction*
G04 #@! TA.AperFunction,SMDPad,CuDef*
G36*
G01*
X126803000Y-107083000D02*
X126803000Y-105833000D01*
G75*
G02*
X126953000Y-105683000I150000J0D01*
G01*
X127253000Y-105683000D01*
G75*
G02*
X127403000Y-105833000I0J-150000D01*
G01*
X127403000Y-107083000D01*
G75*
G02*
X127253000Y-107233000I-150000J0D01*
G01*
X126953000Y-107233000D01*
G75*
G02*
X126803000Y-107083000I0J150000D01*
G01*
G37*
G04 #@! TD.AperFunction*
G04 #@! TA.AperFunction,SMDPad,CuDef*
G36*
G01*
X122203000Y-110983000D02*
X122203000Y-109683000D01*
G75*
G02*
X122453000Y-109433000I250000J0D01*
G01*
X123153000Y-109433000D01*
G75*
G02*
X123403000Y-109683000I0J-250000D01*
G01*
X123403000Y-110983000D01*
G75*
G02*
X123153000Y-111233000I-250000J0D01*
G01*
X122453000Y-111233000D01*
G75*
G02*
X122203000Y-110983000I0J250000D01*
G01*
G37*
G04 #@! TD.AperFunction*
G04 #@! TA.AperFunction,SMDPad,CuDef*
G36*
G01*
X127803000Y-110983000D02*
X127803000Y-109683000D01*
G75*
G02*
X128053000Y-109433000I250000J0D01*
G01*
X128753000Y-109433000D01*
G75*
G02*
X129003000Y-109683000I0J-250000D01*
G01*
X129003000Y-110983000D01*
G75*
G02*
X128753000Y-111233000I-250000J0D01*
G01*
X128053000Y-111233000D01*
G75*
G02*
X127803000Y-110983000I0J250000D01*
G01*
G37*
G04 #@! TD.AperFunction*
G04 #@! TA.AperFunction,SMDPad,CuDef*
G36*
G01*
X109121000Y-95816000D02*
X109121000Y-96716000D01*
G75*
G02*
X108871000Y-96966000I-250000J0D01*
G01*
X108346000Y-96966000D01*
G75*
G02*
X108096000Y-96716000I0J250000D01*
G01*
X108096000Y-95816000D01*
G75*
G02*
X108346000Y-95566000I250000J0D01*
G01*
X108871000Y-95566000D01*
G75*
G02*
X109121000Y-95816000I0J-250000D01*
G01*
G37*
G04 #@! TD.AperFunction*
G04 #@! TA.AperFunction,SMDPad,CuDef*
G36*
G01*
X107296000Y-95816000D02*
X107296000Y-96716000D01*
G75*
G02*
X107046000Y-96966000I-250000J0D01*
G01*
X106521000Y-96966000D01*
G75*
G02*
X106271000Y-96716000I0J250000D01*
G01*
X106271000Y-95816000D01*
G75*
G02*
X106521000Y-95566000I250000J0D01*
G01*
X107046000Y-95566000D01*
G75*
G02*
X107296000Y-95816000I0J-250000D01*
G01*
G37*
G04 #@! TD.AperFunction*
D22*
X55118000Y-107442000D03*
X55118000Y-55118000D03*
G04 #@! TA.AperFunction,SMDPad,CuDef*
G36*
G01*
X119281000Y-95816000D02*
X119281000Y-96716000D01*
G75*
G02*
X119031000Y-96966000I-250000J0D01*
G01*
X118506000Y-96966000D01*
G75*
G02*
X118256000Y-96716000I0J250000D01*
G01*
X118256000Y-95816000D01*
G75*
G02*
X118506000Y-95566000I250000J0D01*
G01*
X119031000Y-95566000D01*
G75*
G02*
X119281000Y-95816000I0J-250000D01*
G01*
G37*
G04 #@! TD.AperFunction*
G04 #@! TA.AperFunction,SMDPad,CuDef*
G36*
G01*
X117456000Y-95816000D02*
X117456000Y-96716000D01*
G75*
G02*
X117206000Y-96966000I-250000J0D01*
G01*
X116681000Y-96966000D01*
G75*
G02*
X116431000Y-96716000I0J250000D01*
G01*
X116431000Y-95816000D01*
G75*
G02*
X116681000Y-95566000I250000J0D01*
G01*
X117206000Y-95566000D01*
G75*
G02*
X117456000Y-95816000I0J-250000D01*
G01*
G37*
G04 #@! TD.AperFunction*
G04 #@! TA.AperFunction,SMDPad,CuDef*
G36*
G01*
X71015000Y-55477000D02*
X71015000Y-56727000D01*
G75*
G02*
X70865000Y-56877000I-150000J0D01*
G01*
X70565000Y-56877000D01*
G75*
G02*
X70415000Y-56727000I0J150000D01*
G01*
X70415000Y-55477000D01*
G75*
G02*
X70565000Y-55327000I150000J0D01*
G01*
X70865000Y-55327000D01*
G75*
G02*
X71015000Y-55477000I0J-150000D01*
G01*
G37*
G04 #@! TD.AperFunction*
G04 #@! TA.AperFunction,SMDPad,CuDef*
G36*
G01*
X70015000Y-55477000D02*
X70015000Y-56727000D01*
G75*
G02*
X69865000Y-56877000I-150000J0D01*
G01*
X69565000Y-56877000D01*
G75*
G02*
X69415000Y-56727000I0J150000D01*
G01*
X69415000Y-55477000D01*
G75*
G02*
X69565000Y-55327000I150000J0D01*
G01*
X69865000Y-55327000D01*
G75*
G02*
X70015000Y-55477000I0J-150000D01*
G01*
G37*
G04 #@! TD.AperFunction*
G04 #@! TA.AperFunction,SMDPad,CuDef*
G36*
G01*
X69015000Y-55477000D02*
X69015000Y-56727000D01*
G75*
G02*
X68865000Y-56877000I-150000J0D01*
G01*
X68565000Y-56877000D01*
G75*
G02*
X68415000Y-56727000I0J150000D01*
G01*
X68415000Y-55477000D01*
G75*
G02*
X68565000Y-55327000I150000J0D01*
G01*
X68865000Y-55327000D01*
G75*
G02*
X69015000Y-55477000I0J-150000D01*
G01*
G37*
G04 #@! TD.AperFunction*
G04 #@! TA.AperFunction,SMDPad,CuDef*
G36*
G01*
X68015000Y-55477000D02*
X68015000Y-56727000D01*
G75*
G02*
X67865000Y-56877000I-150000J0D01*
G01*
X67565000Y-56877000D01*
G75*
G02*
X67415000Y-56727000I0J150000D01*
G01*
X67415000Y-55477000D01*
G75*
G02*
X67565000Y-55327000I150000J0D01*
G01*
X67865000Y-55327000D01*
G75*
G02*
X68015000Y-55477000I0J-150000D01*
G01*
G37*
G04 #@! TD.AperFunction*
G04 #@! TA.AperFunction,SMDPad,CuDef*
G36*
G01*
X72615000Y-51577000D02*
X72615000Y-52877000D01*
G75*
G02*
X72365000Y-53127000I-250000J0D01*
G01*
X71665000Y-53127000D01*
G75*
G02*
X71415000Y-52877000I0J250000D01*
G01*
X71415000Y-51577000D01*
G75*
G02*
X71665000Y-51327000I250000J0D01*
G01*
X72365000Y-51327000D01*
G75*
G02*
X72615000Y-51577000I0J-250000D01*
G01*
G37*
G04 #@! TD.AperFunction*
G04 #@! TA.AperFunction,SMDPad,CuDef*
G36*
G01*
X67015000Y-51577000D02*
X67015000Y-52877000D01*
G75*
G02*
X66765000Y-53127000I-250000J0D01*
G01*
X66065000Y-53127000D01*
G75*
G02*
X65815000Y-52877000I0J250000D01*
G01*
X65815000Y-51577000D01*
G75*
G02*
X66065000Y-51327000I250000J0D01*
G01*
X66765000Y-51327000D01*
G75*
G02*
X67015000Y-51577000I0J-250000D01*
G01*
G37*
G04 #@! TD.AperFunction*
G04 #@! TA.AperFunction,SMDPad,CuDef*
G36*
G01*
X70584000Y-66617000D02*
X70584000Y-65717000D01*
G75*
G02*
X70834000Y-65467000I250000J0D01*
G01*
X71359000Y-65467000D01*
G75*
G02*
X71609000Y-65717000I0J-250000D01*
G01*
X71609000Y-66617000D01*
G75*
G02*
X71359000Y-66867000I-250000J0D01*
G01*
X70834000Y-66867000D01*
G75*
G02*
X70584000Y-66617000I0J250000D01*
G01*
G37*
G04 #@! TD.AperFunction*
G04 #@! TA.AperFunction,SMDPad,CuDef*
G36*
G01*
X72409000Y-66617000D02*
X72409000Y-65717000D01*
G75*
G02*
X72659000Y-65467000I250000J0D01*
G01*
X73184000Y-65467000D01*
G75*
G02*
X73434000Y-65717000I0J-250000D01*
G01*
X73434000Y-66617000D01*
G75*
G02*
X73184000Y-66867000I-250000J0D01*
G01*
X72659000Y-66867000D01*
G75*
G02*
X72409000Y-66617000I0J250000D01*
G01*
G37*
G04 #@! TD.AperFunction*
G04 #@! TA.AperFunction,SMDPad,CuDef*
G36*
G01*
X134771000Y-91158000D02*
X134771000Y-91458000D01*
G75*
G02*
X134621000Y-91608000I-150000J0D01*
G01*
X133446000Y-91608000D01*
G75*
G02*
X133296000Y-91458000I0J150000D01*
G01*
X133296000Y-91158000D01*
G75*
G02*
X133446000Y-91008000I150000J0D01*
G01*
X134621000Y-91008000D01*
G75*
G02*
X134771000Y-91158000I0J-150000D01*
G01*
G37*
G04 #@! TD.AperFunction*
G04 #@! TA.AperFunction,SMDPad,CuDef*
G36*
G01*
X134771000Y-89258000D02*
X134771000Y-89558000D01*
G75*
G02*
X134621000Y-89708000I-150000J0D01*
G01*
X133446000Y-89708000D01*
G75*
G02*
X133296000Y-89558000I0J150000D01*
G01*
X133296000Y-89258000D01*
G75*
G02*
X133446000Y-89108000I150000J0D01*
G01*
X134621000Y-89108000D01*
G75*
G02*
X134771000Y-89258000I0J-150000D01*
G01*
G37*
G04 #@! TD.AperFunction*
G04 #@! TA.AperFunction,SMDPad,CuDef*
G36*
G01*
X132896000Y-90208000D02*
X132896000Y-90508000D01*
G75*
G02*
X132746000Y-90658000I-150000J0D01*
G01*
X131571000Y-90658000D01*
G75*
G02*
X131421000Y-90508000I0J150000D01*
G01*
X131421000Y-90208000D01*
G75*
G02*
X131571000Y-90058000I150000J0D01*
G01*
X132746000Y-90058000D01*
G75*
G02*
X132896000Y-90208000I0J-150000D01*
G01*
G37*
G04 #@! TD.AperFunction*
G04 #@! TA.AperFunction,SMDPad,CuDef*
G36*
G01*
X124331000Y-78415000D02*
X123227000Y-78415000D01*
G75*
G02*
X123089000Y-78277000I0J138000D01*
G01*
X123089000Y-76453000D01*
G75*
G02*
X123227000Y-76315000I138000J0D01*
G01*
X124331000Y-76315000D01*
G75*
G02*
X124469000Y-76453000I0J-138000D01*
G01*
X124469000Y-78277000D01*
G75*
G02*
X124331000Y-78415000I-138000J0D01*
G01*
G37*
G04 #@! TD.AperFunction*
G04 #@! TA.AperFunction,SMDPad,CuDef*
G36*
G01*
X124331000Y-87515000D02*
X123227000Y-87515000D01*
G75*
G02*
X123089000Y-87377000I0J138000D01*
G01*
X123089000Y-85553000D01*
G75*
G02*
X123227000Y-85415000I138000J0D01*
G01*
X124331000Y-85415000D01*
G75*
G02*
X124469000Y-85553000I0J-138000D01*
G01*
X124469000Y-87377000D01*
G75*
G02*
X124331000Y-87515000I-138000J0D01*
G01*
G37*
G04 #@! TD.AperFunction*
G04 #@! TA.AperFunction,SMDPad,CuDef*
G36*
G01*
X119851000Y-78415000D02*
X118747000Y-78415000D01*
G75*
G02*
X118609000Y-78277000I0J138000D01*
G01*
X118609000Y-76453000D01*
G75*
G02*
X118747000Y-76315000I138000J0D01*
G01*
X119851000Y-76315000D01*
G75*
G02*
X119989000Y-76453000I0J-138000D01*
G01*
X119989000Y-78277000D01*
G75*
G02*
X119851000Y-78415000I-138000J0D01*
G01*
G37*
G04 #@! TD.AperFunction*
G04 #@! TA.AperFunction,SMDPad,CuDef*
G36*
G01*
X119851000Y-87515000D02*
X118747000Y-87515000D01*
G75*
G02*
X118609000Y-87377000I0J138000D01*
G01*
X118609000Y-85553000D01*
G75*
G02*
X118747000Y-85415000I138000J0D01*
G01*
X119851000Y-85415000D01*
G75*
G02*
X119989000Y-85553000I0J-138000D01*
G01*
X119989000Y-87377000D01*
G75*
G02*
X119851000Y-87515000I-138000J0D01*
G01*
G37*
G04 #@! TD.AperFunction*
G04 #@! TA.AperFunction,SMDPad,CuDef*
G36*
G01*
X63297750Y-103604000D02*
X64210250Y-103604000D01*
G75*
G02*
X64454000Y-103847750I0J-243750D01*
G01*
X64454000Y-104335250D01*
G75*
G02*
X64210250Y-104579000I-243750J0D01*
G01*
X63297750Y-104579000D01*
G75*
G02*
X63054000Y-104335250I0J243750D01*
G01*
X63054000Y-103847750D01*
G75*
G02*
X63297750Y-103604000I243750J0D01*
G01*
G37*
G04 #@! TD.AperFunction*
G04 #@! TA.AperFunction,SMDPad,CuDef*
G36*
G01*
X63297750Y-105479000D02*
X64210250Y-105479000D01*
G75*
G02*
X64454000Y-105722750I0J-243750D01*
G01*
X64454000Y-106210250D01*
G75*
G02*
X64210250Y-106454000I-243750J0D01*
G01*
X63297750Y-106454000D01*
G75*
G02*
X63054000Y-106210250I0J243750D01*
G01*
X63054000Y-105722750D01*
G75*
G02*
X63297750Y-105479000I243750J0D01*
G01*
G37*
G04 #@! TD.AperFunction*
G04 #@! TA.AperFunction,SMDPad,CuDef*
G36*
G01*
X66241000Y-66642000D02*
X66241000Y-65692000D01*
G75*
G02*
X66491000Y-65442000I250000J0D01*
G01*
X66991000Y-65442000D01*
G75*
G02*
X67241000Y-65692000I0J-250000D01*
G01*
X67241000Y-66642000D01*
G75*
G02*
X66991000Y-66892000I-250000J0D01*
G01*
X66491000Y-66892000D01*
G75*
G02*
X66241000Y-66642000I0J250000D01*
G01*
G37*
G04 #@! TD.AperFunction*
G04 #@! TA.AperFunction,SMDPad,CuDef*
G36*
G01*
X68141000Y-66642000D02*
X68141000Y-65692000D01*
G75*
G02*
X68391000Y-65442000I250000J0D01*
G01*
X68891000Y-65442000D01*
G75*
G02*
X69141000Y-65692000I0J-250000D01*
G01*
X69141000Y-66642000D01*
G75*
G02*
X68891000Y-66892000I-250000J0D01*
G01*
X68391000Y-66892000D01*
G75*
G02*
X68141000Y-66642000I0J250000D01*
G01*
G37*
G04 #@! TD.AperFunction*
G04 #@! TA.AperFunction,SMDPad,CuDef*
G36*
G01*
X88801000Y-95816000D02*
X88801000Y-96716000D01*
G75*
G02*
X88551000Y-96966000I-250000J0D01*
G01*
X88026000Y-96966000D01*
G75*
G02*
X87776000Y-96716000I0J250000D01*
G01*
X87776000Y-95816000D01*
G75*
G02*
X88026000Y-95566000I250000J0D01*
G01*
X88551000Y-95566000D01*
G75*
G02*
X88801000Y-95816000I0J-250000D01*
G01*
G37*
G04 #@! TD.AperFunction*
G04 #@! TA.AperFunction,SMDPad,CuDef*
G36*
G01*
X86976000Y-95816000D02*
X86976000Y-96716000D01*
G75*
G02*
X86726000Y-96966000I-250000J0D01*
G01*
X86201000Y-96966000D01*
G75*
G02*
X85951000Y-96716000I0J250000D01*
G01*
X85951000Y-95816000D01*
G75*
G02*
X86201000Y-95566000I250000J0D01*
G01*
X86726000Y-95566000D01*
G75*
G02*
X86976000Y-95816000I0J-250000D01*
G01*
G37*
G04 #@! TD.AperFunction*
G04 #@! TA.AperFunction,SMDPad,CuDef*
G36*
G01*
X61694000Y-110051000D02*
X61694000Y-109151000D01*
G75*
G02*
X61944000Y-108901000I250000J0D01*
G01*
X62469000Y-108901000D01*
G75*
G02*
X62719000Y-109151000I0J-250000D01*
G01*
X62719000Y-110051000D01*
G75*
G02*
X62469000Y-110301000I-250000J0D01*
G01*
X61944000Y-110301000D01*
G75*
G02*
X61694000Y-110051000I0J250000D01*
G01*
G37*
G04 #@! TD.AperFunction*
G04 #@! TA.AperFunction,SMDPad,CuDef*
G36*
G01*
X63519000Y-110051000D02*
X63519000Y-109151000D01*
G75*
G02*
X63769000Y-108901000I250000J0D01*
G01*
X64294000Y-108901000D01*
G75*
G02*
X64544000Y-109151000I0J-250000D01*
G01*
X64544000Y-110051000D01*
G75*
G02*
X64294000Y-110301000I-250000J0D01*
G01*
X63769000Y-110301000D01*
G75*
G02*
X63519000Y-110051000I0J250000D01*
G01*
G37*
G04 #@! TD.AperFunction*
G04 #@! TA.AperFunction,SMDPad,CuDef*
G36*
G01*
X89332750Y-67409000D02*
X90245250Y-67409000D01*
G75*
G02*
X90489000Y-67652750I0J-243750D01*
G01*
X90489000Y-68140250D01*
G75*
G02*
X90245250Y-68384000I-243750J0D01*
G01*
X89332750Y-68384000D01*
G75*
G02*
X89089000Y-68140250I0J243750D01*
G01*
X89089000Y-67652750D01*
G75*
G02*
X89332750Y-67409000I243750J0D01*
G01*
G37*
G04 #@! TD.AperFunction*
G04 #@! TA.AperFunction,SMDPad,CuDef*
G36*
G01*
X89332750Y-69284000D02*
X90245250Y-69284000D01*
G75*
G02*
X90489000Y-69527750I0J-243750D01*
G01*
X90489000Y-70015250D01*
G75*
G02*
X90245250Y-70259000I-243750J0D01*
G01*
X89332750Y-70259000D01*
G75*
G02*
X89089000Y-70015250I0J243750D01*
G01*
X89089000Y-69527750D01*
G75*
G02*
X89332750Y-69284000I243750J0D01*
G01*
G37*
G04 #@! TD.AperFunction*
G04 #@! TA.AperFunction,SMDPad,CuDef*
G36*
G01*
X83163000Y-107083000D02*
X83163000Y-105833000D01*
G75*
G02*
X83313000Y-105683000I150000J0D01*
G01*
X83613000Y-105683000D01*
G75*
G02*
X83763000Y-105833000I0J-150000D01*
G01*
X83763000Y-107083000D01*
G75*
G02*
X83613000Y-107233000I-150000J0D01*
G01*
X83313000Y-107233000D01*
G75*
G02*
X83163000Y-107083000I0J150000D01*
G01*
G37*
G04 #@! TD.AperFunction*
G04 #@! TA.AperFunction,SMDPad,CuDef*
G36*
G01*
X84163000Y-107083000D02*
X84163000Y-105833000D01*
G75*
G02*
X84313000Y-105683000I150000J0D01*
G01*
X84613000Y-105683000D01*
G75*
G02*
X84763000Y-105833000I0J-150000D01*
G01*
X84763000Y-107083000D01*
G75*
G02*
X84613000Y-107233000I-150000J0D01*
G01*
X84313000Y-107233000D01*
G75*
G02*
X84163000Y-107083000I0J150000D01*
G01*
G37*
G04 #@! TD.AperFunction*
G04 #@! TA.AperFunction,SMDPad,CuDef*
G36*
G01*
X85163000Y-107083000D02*
X85163000Y-105833000D01*
G75*
G02*
X85313000Y-105683000I150000J0D01*
G01*
X85613000Y-105683000D01*
G75*
G02*
X85763000Y-105833000I0J-150000D01*
G01*
X85763000Y-107083000D01*
G75*
G02*
X85613000Y-107233000I-150000J0D01*
G01*
X85313000Y-107233000D01*
G75*
G02*
X85163000Y-107083000I0J150000D01*
G01*
G37*
G04 #@! TD.AperFunction*
G04 #@! TA.AperFunction,SMDPad,CuDef*
G36*
G01*
X86163000Y-107083000D02*
X86163000Y-105833000D01*
G75*
G02*
X86313000Y-105683000I150000J0D01*
G01*
X86613000Y-105683000D01*
G75*
G02*
X86763000Y-105833000I0J-150000D01*
G01*
X86763000Y-107083000D01*
G75*
G02*
X86613000Y-107233000I-150000J0D01*
G01*
X86313000Y-107233000D01*
G75*
G02*
X86163000Y-107083000I0J150000D01*
G01*
G37*
G04 #@! TD.AperFunction*
G04 #@! TA.AperFunction,SMDPad,CuDef*
G36*
G01*
X81563000Y-110983000D02*
X81563000Y-109683000D01*
G75*
G02*
X81813000Y-109433000I250000J0D01*
G01*
X82513000Y-109433000D01*
G75*
G02*
X82763000Y-109683000I0J-250000D01*
G01*
X82763000Y-110983000D01*
G75*
G02*
X82513000Y-111233000I-250000J0D01*
G01*
X81813000Y-111233000D01*
G75*
G02*
X81563000Y-110983000I0J250000D01*
G01*
G37*
G04 #@! TD.AperFunction*
G04 #@! TA.AperFunction,SMDPad,CuDef*
G36*
G01*
X87163000Y-110983000D02*
X87163000Y-109683000D01*
G75*
G02*
X87413000Y-109433000I250000J0D01*
G01*
X88113000Y-109433000D01*
G75*
G02*
X88363000Y-109683000I0J-250000D01*
G01*
X88363000Y-110983000D01*
G75*
G02*
X88113000Y-111233000I-250000J0D01*
G01*
X87413000Y-111233000D01*
G75*
G02*
X87163000Y-110983000I0J250000D01*
G01*
G37*
G04 #@! TD.AperFunction*
G04 #@! TA.AperFunction,SMDPad,CuDef*
G36*
G01*
X60777000Y-65911000D02*
X60777000Y-64807000D01*
G75*
G02*
X60915000Y-64669000I138000J0D01*
G01*
X62739000Y-64669000D01*
G75*
G02*
X62877000Y-64807000I0J-138000D01*
G01*
X62877000Y-65911000D01*
G75*
G02*
X62739000Y-66049000I-138000J0D01*
G01*
X60915000Y-66049000D01*
G75*
G02*
X60777000Y-65911000I0J138000D01*
G01*
G37*
G04 #@! TD.AperFunction*
G04 #@! TA.AperFunction,SMDPad,CuDef*
G36*
G01*
X51677000Y-65911000D02*
X51677000Y-64807000D01*
G75*
G02*
X51815000Y-64669000I138000J0D01*
G01*
X53639000Y-64669000D01*
G75*
G02*
X53777000Y-64807000I0J-138000D01*
G01*
X53777000Y-65911000D01*
G75*
G02*
X53639000Y-66049000I-138000J0D01*
G01*
X51815000Y-66049000D01*
G75*
G02*
X51677000Y-65911000I0J138000D01*
G01*
G37*
G04 #@! TD.AperFunction*
G04 #@! TA.AperFunction,SMDPad,CuDef*
G36*
G01*
X60777000Y-61431000D02*
X60777000Y-60327000D01*
G75*
G02*
X60915000Y-60189000I138000J0D01*
G01*
X62739000Y-60189000D01*
G75*
G02*
X62877000Y-60327000I0J-138000D01*
G01*
X62877000Y-61431000D01*
G75*
G02*
X62739000Y-61569000I-138000J0D01*
G01*
X60915000Y-61569000D01*
G75*
G02*
X60777000Y-61431000I0J138000D01*
G01*
G37*
G04 #@! TD.AperFunction*
G04 #@! TA.AperFunction,SMDPad,CuDef*
G36*
G01*
X51677000Y-61431000D02*
X51677000Y-60327000D01*
G75*
G02*
X51815000Y-60189000I138000J0D01*
G01*
X53639000Y-60189000D01*
G75*
G02*
X53777000Y-60327000I0J-138000D01*
G01*
X53777000Y-61431000D01*
G75*
G02*
X53639000Y-61569000I-138000J0D01*
G01*
X51815000Y-61569000D01*
G75*
G02*
X51677000Y-61431000I0J138000D01*
G01*
G37*
G04 #@! TD.AperFunction*
G04 #@! TA.AperFunction,SMDPad,CuDef*
G36*
G01*
X119306000Y-92997000D02*
X119306000Y-93947000D01*
G75*
G02*
X119056000Y-94197000I-250000J0D01*
G01*
X118556000Y-94197000D01*
G75*
G02*
X118306000Y-93947000I0J250000D01*
G01*
X118306000Y-92997000D01*
G75*
G02*
X118556000Y-92747000I250000J0D01*
G01*
X119056000Y-92747000D01*
G75*
G02*
X119306000Y-92997000I0J-250000D01*
G01*
G37*
G04 #@! TD.AperFunction*
G04 #@! TA.AperFunction,SMDPad,CuDef*
G36*
G01*
X117406000Y-92997000D02*
X117406000Y-93947000D01*
G75*
G02*
X117156000Y-94197000I-250000J0D01*
G01*
X116656000Y-94197000D01*
G75*
G02*
X116406000Y-93947000I0J250000D01*
G01*
X116406000Y-92997000D01*
G75*
G02*
X116656000Y-92747000I250000J0D01*
G01*
X117156000Y-92747000D01*
G75*
G02*
X117406000Y-92997000I0J-250000D01*
G01*
G37*
G04 #@! TD.AperFunction*
G04 #@! TA.AperFunction,SMDPad,CuDef*
G36*
G01*
X109146000Y-92997000D02*
X109146000Y-93947000D01*
G75*
G02*
X108896000Y-94197000I-250000J0D01*
G01*
X108396000Y-94197000D01*
G75*
G02*
X108146000Y-93947000I0J250000D01*
G01*
X108146000Y-92997000D01*
G75*
G02*
X108396000Y-92747000I250000J0D01*
G01*
X108896000Y-92747000D01*
G75*
G02*
X109146000Y-92997000I0J-250000D01*
G01*
G37*
G04 #@! TD.AperFunction*
G04 #@! TA.AperFunction,SMDPad,CuDef*
G36*
G01*
X107246000Y-92997000D02*
X107246000Y-93947000D01*
G75*
G02*
X106996000Y-94197000I-250000J0D01*
G01*
X106496000Y-94197000D01*
G75*
G02*
X106246000Y-93947000I0J250000D01*
G01*
X106246000Y-92997000D01*
G75*
G02*
X106496000Y-92747000I250000J0D01*
G01*
X106996000Y-92747000D01*
G75*
G02*
X107246000Y-92997000I0J-250000D01*
G01*
G37*
G04 #@! TD.AperFunction*
D33*
X80010000Y-89536000D03*
X80010000Y-92836000D03*
X62230000Y-69216000D03*
X62230000Y-72516000D03*
D26*
X118618000Y-67564000D03*
D27*
X118618000Y-66294000D03*
X118618000Y-65024000D03*
G04 #@! TA.AperFunction,SMDPad,CuDef*
G36*
G01*
X104041000Y-95816000D02*
X104041000Y-96716000D01*
G75*
G02*
X103791000Y-96966000I-250000J0D01*
G01*
X103266000Y-96966000D01*
G75*
G02*
X103016000Y-96716000I0J250000D01*
G01*
X103016000Y-95816000D01*
G75*
G02*
X103266000Y-95566000I250000J0D01*
G01*
X103791000Y-95566000D01*
G75*
G02*
X104041000Y-95816000I0J-250000D01*
G01*
G37*
G04 #@! TD.AperFunction*
G04 #@! TA.AperFunction,SMDPad,CuDef*
G36*
G01*
X102216000Y-95816000D02*
X102216000Y-96716000D01*
G75*
G02*
X101966000Y-96966000I-250000J0D01*
G01*
X101441000Y-96966000D01*
G75*
G02*
X101191000Y-96716000I0J250000D01*
G01*
X101191000Y-95816000D01*
G75*
G02*
X101441000Y-95566000I250000J0D01*
G01*
X101966000Y-95566000D01*
G75*
G02*
X102216000Y-95816000I0J-250000D01*
G01*
G37*
G04 #@! TD.AperFunction*
D33*
X69850000Y-89536000D03*
X69850000Y-92836000D03*
G04 #@! TA.AperFunction,SMDPad,CuDef*
G36*
G01*
X128281000Y-67210000D02*
X129231000Y-67210000D01*
G75*
G02*
X129481000Y-67460000I0J-250000D01*
G01*
X129481000Y-67960000D01*
G75*
G02*
X129231000Y-68210000I-250000J0D01*
G01*
X128281000Y-68210000D01*
G75*
G02*
X128031000Y-67960000I0J250000D01*
G01*
X128031000Y-67460000D01*
G75*
G02*
X128281000Y-67210000I250000J0D01*
G01*
G37*
G04 #@! TD.AperFunction*
G04 #@! TA.AperFunction,SMDPad,CuDef*
G36*
G01*
X128281000Y-69110000D02*
X129231000Y-69110000D01*
G75*
G02*
X129481000Y-69360000I0J-250000D01*
G01*
X129481000Y-69860000D01*
G75*
G02*
X129231000Y-70110000I-250000J0D01*
G01*
X128281000Y-70110000D01*
G75*
G02*
X128031000Y-69860000I0J250000D01*
G01*
X128031000Y-69360000D01*
G75*
G02*
X128281000Y-69110000I250000J0D01*
G01*
G37*
G04 #@! TD.AperFunction*
D34*
X68884800Y-72124001D03*
X68884800Y-71624000D03*
X68884800Y-71124000D03*
X68884800Y-70623999D03*
D35*
X68187001Y-69926200D03*
X67687000Y-69926200D03*
X67187000Y-69926200D03*
X66686999Y-69926200D03*
D34*
X65989200Y-70623999D03*
X65989200Y-71124000D03*
X65989200Y-71624000D03*
X65989200Y-72124001D03*
D35*
X66686999Y-72821800D03*
X67187000Y-72821800D03*
X67687000Y-72821800D03*
X68187001Y-72821800D03*
D36*
X67437000Y-71374000D03*
D37*
X59436000Y-76200000D03*
X85979000Y-78740000D03*
X96520000Y-94869000D03*
X89281000Y-58547000D03*
X147320000Y-92329000D03*
X130937000Y-74168000D03*
X58547000Y-68834000D03*
X103759000Y-69088000D03*
X123779000Y-84501000D03*
X62484000Y-85344000D03*
X68961000Y-68453000D03*
X59436000Y-75311000D03*
X103759000Y-63881000D03*
X70612000Y-86106000D03*
X85979000Y-77851000D03*
X59436000Y-74422000D03*
X73533000Y-53213000D03*
X70866000Y-70993000D03*
X70104000Y-70993000D03*
X85979000Y-76962000D03*
X117094000Y-58674000D03*
X58547000Y-75311000D03*
X78994000Y-94234000D03*
X86868000Y-76962000D03*
X78105000Y-94234000D03*
X122174000Y-106172000D03*
X71501000Y-86995000D03*
X61595000Y-84455000D03*
X79883000Y-94234000D03*
X82296000Y-106172000D03*
X137160000Y-94869000D03*
X123779000Y-79294000D03*
X69850000Y-68453000D03*
X71501000Y-84328000D03*
X130048000Y-74168000D03*
X112014000Y-106172000D03*
X59563000Y-68834000D03*
X68961000Y-67691000D03*
X71501000Y-86106000D03*
X78105000Y-93345000D03*
X106680000Y-94869000D03*
X69215000Y-52451000D03*
X87757000Y-78740000D03*
X61595000Y-85344000D03*
X130937000Y-59817000D03*
X83312000Y-60579000D03*
X107823000Y-66421000D03*
X112649000Y-82296000D03*
X70612000Y-83439000D03*
X86614000Y-58166000D03*
X62484000Y-84455000D03*
X61595000Y-86233000D03*
X67818000Y-52451000D03*
X130642000Y-69764000D03*
X102489000Y-65024000D03*
X81534000Y-106172000D03*
X85725000Y-58547000D03*
X127000000Y-94869000D03*
X148209000Y-92329000D03*
X148209000Y-93218000D03*
X92456000Y-106172000D03*
X131404000Y-69764000D03*
X59563000Y-67945000D03*
X64897000Y-52324000D03*
X83820000Y-59055000D03*
X62484000Y-83566000D03*
X86868000Y-78740000D03*
X102489000Y-66421000D03*
X106553000Y-69088000D03*
X85090000Y-77851000D03*
X130937000Y-62484000D03*
X102616000Y-106172000D03*
X129159000Y-74168000D03*
X90170000Y-58166000D03*
X103505000Y-90932000D03*
X102743000Y-90932000D03*
X88392000Y-58166000D03*
X83820000Y-58166000D03*
X85090000Y-76962000D03*
X107823000Y-65024000D03*
X91694000Y-106172000D03*
X60325000Y-76200000D03*
X87757000Y-77851000D03*
X58547000Y-67945000D03*
X130937000Y-61595000D03*
X82423000Y-60579000D03*
X107823000Y-67818000D03*
X64897000Y-53213000D03*
X70612000Y-84328000D03*
X75311000Y-78486000D03*
X58547000Y-74422000D03*
X70612000Y-85217000D03*
X70612000Y-52451000D03*
X86868000Y-77851000D03*
X64770000Y-71755000D03*
X123571000Y-59944000D03*
X76200000Y-78486000D03*
X133096000Y-106172000D03*
X58547000Y-76200000D03*
X117856000Y-58674000D03*
X60325000Y-75311000D03*
X112776000Y-106172000D03*
X116840000Y-94869000D03*
X66167000Y-103378000D03*
X69850000Y-67691000D03*
X147320000Y-93218000D03*
X71501000Y-85217000D03*
X87757000Y-67945000D03*
X111887000Y-82296000D03*
X122936000Y-106172000D03*
X135382000Y-89408000D03*
X87503000Y-58547000D03*
X130937000Y-60706000D03*
X136144000Y-89408000D03*
X106553000Y-63881000D03*
X62484000Y-86233000D03*
X61595000Y-83566000D03*
X70612000Y-86995000D03*
X130937000Y-64262000D03*
X73533000Y-52324000D03*
X148209000Y-91440000D03*
X132334000Y-106172000D03*
X105156000Y-63881000D03*
X84201000Y-76962000D03*
X64770000Y-72517000D03*
X60325000Y-74422000D03*
X147320000Y-91440000D03*
X128270000Y-74168000D03*
X83820000Y-59944000D03*
X87757000Y-76962000D03*
X86360000Y-94869000D03*
X84836000Y-58166000D03*
X124460000Y-59944000D03*
X84201000Y-77851000D03*
X70739000Y-68453000D03*
X105156000Y-69088000D03*
X70739000Y-67691000D03*
X101854000Y-106172000D03*
X71501000Y-83439000D03*
X130937000Y-63373000D03*
X78105000Y-92456000D03*
X78613000Y-53848000D03*
X102489000Y-67818000D03*
X145161000Y-75692000D03*
X78740000Y-108331000D03*
X65659000Y-87884000D03*
X65278000Y-65532000D03*
X66548000Y-87884000D03*
X65913000Y-107950000D03*
X65278000Y-64643000D03*
X77216000Y-107696000D03*
X75565000Y-66421000D03*
X66548000Y-88773000D03*
X65659000Y-89662000D03*
X75565000Y-65532000D03*
X67437000Y-87884000D03*
X78232000Y-107696000D03*
X77724000Y-108331000D03*
X75565000Y-64643000D03*
X67437000Y-89662000D03*
X64389000Y-65532000D03*
X134874000Y-58293000D03*
X64389000Y-66421000D03*
X65659000Y-88773000D03*
X64389000Y-64643000D03*
X66548000Y-89662000D03*
X79248000Y-107696000D03*
X67437000Y-88773000D03*
X65278000Y-66421000D03*
X110363000Y-105918000D03*
X75565000Y-63373000D03*
X134112000Y-59817000D03*
X146050000Y-75311000D03*
X146050000Y-76073000D03*
X96139000Y-60833000D03*
X75565000Y-61595000D03*
X96139000Y-60071000D03*
X75565000Y-62484000D03*
X134112000Y-59055000D03*
X110363000Y-106553000D03*
X111760000Y-85852000D03*
X113538000Y-85852000D03*
X75184000Y-51435000D03*
X96139000Y-61849000D03*
X78547000Y-55814000D03*
X58928000Y-51435000D03*
X144272000Y-75565000D03*
X135763000Y-59182000D03*
X72390000Y-70104000D03*
X75311000Y-70104000D03*
X68707000Y-57404000D03*
X144018000Y-102489000D03*
X145288000Y-102108000D03*
X67691000Y-57404000D03*
X111760000Y-87630000D03*
X115062000Y-87630000D03*
X111760000Y-86741000D03*
X115570000Y-85852000D03*
X111760000Y-84963000D03*
X115570000Y-84963000D03*
D38*
X75697500Y-80772000D02*
X73660000Y-80772000D01*
D39*
X73853000Y-84201000D02*
X73853000Y-80965000D01*
X75753000Y-84201000D02*
X75753000Y-81777500D01*
D40*
X69850000Y-89536000D02*
X69851000Y-89535000D01*
X69851000Y-89535000D02*
X72899000Y-89535000D01*
X75311000Y-87122000D02*
X82550000Y-87122000D01*
X73280000Y-89153000D02*
X75311000Y-87122000D01*
X73280000Y-89535000D02*
X73280000Y-89153000D01*
D39*
X123779000Y-84501000D02*
X123779000Y-79294000D01*
D38*
X97852000Y-58674000D02*
X94930000Y-58674000D01*
D41*
X86426000Y-94803000D02*
X86360000Y-94869000D01*
X106746000Y-93472000D02*
X106746000Y-94803000D01*
X127066000Y-93472000D02*
X127066000Y-94803000D01*
X64770000Y-71755000D02*
X64901000Y-71624000D01*
X67187000Y-71624000D02*
X67437000Y-71374000D01*
D39*
X131445000Y-69723000D02*
X131404000Y-69764000D01*
D38*
X101854000Y-106172000D02*
X103759000Y-106172000D01*
D41*
X67687000Y-71124000D02*
X67437000Y-71374000D01*
X67687000Y-71624000D02*
X67437000Y-71374000D01*
D39*
X131404000Y-69764000D02*
X130642000Y-69764000D01*
D38*
X64770000Y-71755000D02*
X64770000Y-72517000D01*
D41*
X63754000Y-104091500D02*
X65453500Y-104091500D01*
D39*
X130642000Y-69764000D02*
X128910000Y-69764000D01*
D38*
X91694000Y-106172000D02*
X93599000Y-106172000D01*
D41*
X67687000Y-72821800D02*
X67687000Y-71624000D01*
X68884800Y-71124000D02*
X69465000Y-71124000D01*
X69465000Y-71124000D02*
X69596000Y-70993000D01*
D38*
X132334000Y-106172000D02*
X134239000Y-106172000D01*
D39*
X122138000Y-59944000D02*
X122137000Y-59945000D01*
D41*
X65453500Y-104091500D02*
X66167000Y-103378000D01*
D39*
X70715000Y-56102000D02*
X70715000Y-53443000D01*
D38*
X122174000Y-106172000D02*
X124079000Y-106172000D01*
D39*
X132715000Y-69764000D02*
X131486000Y-69764000D01*
D41*
X68884800Y-71124000D02*
X67687000Y-71124000D01*
D38*
X94930000Y-58674000D02*
X94742000Y-58486000D01*
D41*
X64897000Y-72517000D02*
X64897000Y-72074179D01*
X78613000Y-53848000D02*
X76962000Y-53848000D01*
D38*
X97930000Y-58752000D02*
X97852000Y-58674000D01*
D41*
X96586000Y-93472000D02*
X96586000Y-94803000D01*
D39*
X123779000Y-79294000D02*
X123779000Y-77365000D01*
X131486000Y-69764000D02*
X131445000Y-69723000D01*
D41*
X86426000Y-93472000D02*
X86426000Y-94803000D01*
X65989200Y-71624000D02*
X67187000Y-71624000D01*
D39*
X134033500Y-89408000D02*
X136144000Y-89408000D01*
D38*
X112014000Y-106172000D02*
X113919000Y-106172000D01*
D39*
X103505000Y-90932000D02*
X102743000Y-90932000D01*
D41*
X87757000Y-67945000D02*
X89789000Y-67945000D01*
D39*
X123779000Y-86465000D02*
X123779000Y-84501000D01*
D41*
X116906000Y-93472000D02*
X116906000Y-94803000D01*
D39*
X124460000Y-59944000D02*
X122138000Y-59944000D01*
D38*
X81534000Y-106172000D02*
X83439000Y-106172000D01*
D41*
X69596000Y-70993000D02*
X70866000Y-70993000D01*
D38*
X117856000Y-58674000D02*
X115508000Y-58674000D01*
D39*
X105221000Y-90932000D02*
X103505000Y-90932000D01*
D41*
X64901000Y-71624000D02*
X65989200Y-71624000D01*
X137226000Y-93472000D02*
X137226000Y-94803000D01*
X135255000Y-106426000D02*
X135255000Y-101068000D01*
X132175500Y-97988500D02*
X132175500Y-96234000D01*
D39*
X129159000Y-59055000D02*
X129159000Y-62738000D01*
D41*
X65532000Y-109601000D02*
X64031500Y-109601000D01*
X70739000Y-61468000D02*
X67056000Y-61468000D01*
X77972500Y-84841500D02*
X77972500Y-81722000D01*
X84455000Y-108037000D02*
X84455000Y-106426000D01*
X135255000Y-101068000D02*
X132175500Y-97988500D01*
X74422000Y-85725000D02*
X77089000Y-85725000D01*
X104775000Y-106466000D02*
X104783000Y-106458000D01*
X67187000Y-69926200D02*
X67187000Y-68584000D01*
X66741000Y-61783000D02*
X66741000Y-62992000D01*
X65913000Y-107950000D02*
X65913000Y-109220000D01*
D39*
X128651000Y-63246000D02*
X128650000Y-63245000D01*
D41*
X135255000Y-106466000D02*
X135263000Y-106458000D01*
X72136000Y-88011000D02*
X74422000Y-85725000D01*
X135255000Y-108077000D02*
X135255000Y-106466000D01*
X94615000Y-108037000D02*
X94615000Y-106426000D01*
D39*
X129921000Y-58293000D02*
X129159000Y-59055000D01*
X145161000Y-75692000D02*
X145161000Y-87757000D01*
D41*
X104783000Y-101100000D02*
X101703500Y-98020500D01*
X67437000Y-88011000D02*
X72136000Y-88011000D01*
X114935000Y-108037000D02*
X114935000Y-106426000D01*
X65913000Y-109220000D02*
X65532000Y-109601000D01*
X104783000Y-106458000D02*
X104783000Y-101100000D01*
X67056000Y-61468000D02*
X66741000Y-61783000D01*
X66686999Y-69926200D02*
X66686999Y-68591999D01*
X71096500Y-61825500D02*
X70739000Y-61468000D01*
D39*
X128650000Y-63245000D02*
X127037000Y-63245000D01*
X145161000Y-87757000D02*
X144526000Y-88392000D01*
X134874000Y-58293000D02*
X129921000Y-58293000D01*
D41*
X77089000Y-85725000D02*
X77972500Y-84841500D01*
D39*
X129159000Y-62738000D02*
X128651000Y-63246000D01*
D41*
X71096500Y-62992000D02*
X71096500Y-61825500D01*
D39*
X144526000Y-88392000D02*
X141732000Y-88392000D01*
D41*
X125095000Y-108037000D02*
X125095000Y-106426000D01*
X104775000Y-108077000D02*
X104775000Y-106466000D01*
X101703500Y-98020500D02*
X101703500Y-96266000D01*
D39*
X134112000Y-59817000D02*
X134112000Y-59055000D01*
D38*
X110171000Y-83312000D02*
X110171000Y-80903000D01*
X69715000Y-54983000D02*
X68961000Y-54229000D01*
X69715000Y-57777000D02*
X70739000Y-58801000D01*
D40*
X80584000Y-68616000D02*
X80518000Y-68682000D01*
D41*
X81661000Y-56388000D02*
X80584000Y-57465000D01*
D38*
X110363000Y-106553000D02*
X110363000Y-105918000D01*
D39*
X134112000Y-67183000D02*
X133731000Y-67564000D01*
D38*
X110171000Y-80903000D02*
X110175000Y-80899000D01*
D39*
X134112000Y-59817000D02*
X134112000Y-67183000D01*
X133731000Y-67564000D02*
X128778000Y-67564000D01*
D38*
X110363000Y-99441000D02*
X112649000Y-97155000D01*
X97930000Y-60022000D02*
X95106000Y-60022000D01*
X70739000Y-58801000D02*
X80711000Y-58801000D01*
D39*
X146050000Y-88011000D02*
X144018000Y-90043000D01*
X146050000Y-75311000D02*
X146050000Y-88011000D01*
D38*
X68961000Y-54229000D02*
X66548000Y-54229000D01*
X65301500Y-55475500D02*
X60452000Y-55475500D01*
D39*
X144018000Y-90043000D02*
X144018000Y-94834000D01*
D38*
X69715000Y-56102000D02*
X69715000Y-54983000D01*
X112649000Y-83820000D02*
X112141000Y-83312000D01*
X112141000Y-83312000D02*
X110171000Y-83312000D01*
X112649000Y-97155000D02*
X112649000Y-83820000D01*
D41*
X80584000Y-57465000D02*
X80584000Y-58801000D01*
X80264000Y-53951500D02*
X81383500Y-53951500D01*
D40*
X80584000Y-58801000D02*
X80584000Y-68616000D01*
D38*
X66548000Y-54229000D02*
X65301500Y-55475500D01*
D41*
X81661000Y-54229000D02*
X81661000Y-56388000D01*
X81383500Y-53951500D02*
X81661000Y-54229000D01*
D38*
X110363000Y-105918000D02*
X110363000Y-99441000D01*
X69715000Y-56102000D02*
X69715000Y-57777000D01*
D41*
X105221000Y-89662000D02*
X107061000Y-89662000D01*
X107696000Y-81788000D02*
X106045000Y-80137000D01*
X107696000Y-89027000D02*
X107696000Y-81788000D01*
X107061000Y-89662000D02*
X107696000Y-89027000D01*
X106045000Y-80137000D02*
X106045000Y-76512000D01*
X106426000Y-84582000D02*
X106680000Y-84328000D01*
X103505000Y-79375000D02*
X103505000Y-76512000D01*
X105221000Y-84582000D02*
X106426000Y-84582000D01*
X106680000Y-82550000D02*
X103505000Y-79375000D01*
X106680000Y-84328000D02*
X106680000Y-82550000D01*
X106807000Y-87122000D02*
X107188000Y-86741000D01*
X104775000Y-79756000D02*
X104775000Y-76512000D01*
X107188000Y-86741000D02*
X107188000Y-82169000D01*
X107188000Y-82169000D02*
X104775000Y-79756000D01*
X105221000Y-87122000D02*
X106807000Y-87122000D01*
D40*
X66842000Y-98258000D02*
X61422000Y-98258000D01*
X75080000Y-97767000D02*
X75819000Y-97028000D01*
X82550000Y-94742000D02*
X82550000Y-90932000D01*
X75819000Y-97028000D02*
X80264000Y-97028000D01*
X72136000Y-97767000D02*
X75080000Y-97767000D01*
X80264000Y-97028000D02*
X82550000Y-94742000D01*
X67333000Y-97767000D02*
X66842000Y-98258000D01*
X81153000Y-89535000D02*
X76580000Y-89535000D01*
X67333000Y-97767000D02*
X72136000Y-97767000D01*
X82550000Y-90932000D02*
X81153000Y-89535000D01*
D41*
X108966000Y-88392000D02*
X108712000Y-88138000D01*
X110171000Y-88392000D02*
X108966000Y-88392000D01*
X108712000Y-88138000D02*
X108712000Y-76639000D01*
X110744000Y-78867000D02*
X109855000Y-77978000D01*
X109855000Y-77978000D02*
X109855000Y-76512000D01*
X112776000Y-78867000D02*
X110744000Y-78867000D01*
X110171000Y-85852000D02*
X111760000Y-85852000D01*
X113538000Y-79629000D02*
X112776000Y-78867000D01*
X113538000Y-85852000D02*
X113538000Y-79629000D01*
D42*
X97930000Y-61292000D02*
X96696000Y-61292000D01*
D41*
X75184000Y-51435000D02*
X75184000Y-55372000D01*
X75626000Y-55814000D02*
X76962000Y-55814000D01*
X75184000Y-55372000D02*
X75626000Y-55814000D01*
X53154000Y-60452000D02*
X52727000Y-60879000D01*
X80226500Y-55814000D02*
X80264000Y-55776500D01*
X78547000Y-55814000D02*
X80226500Y-55814000D01*
X76962000Y-55814000D02*
X78547000Y-55814000D01*
X58928000Y-51435000D02*
X58928000Y-60833000D01*
D42*
X96696000Y-61292000D02*
X96139000Y-61849000D01*
D43*
X62103000Y-80391000D02*
X62103000Y-72643000D01*
X62103000Y-72643000D02*
X62230000Y-72516000D01*
X59546000Y-81077000D02*
X61417000Y-81077000D01*
X61417000Y-81077000D02*
X62103000Y-80391000D01*
D40*
X59817000Y-101473000D02*
X66929000Y-101473000D01*
X61422001Y-93258005D02*
X71287005Y-93258005D01*
X71628000Y-93599000D02*
X73280000Y-93599000D01*
X71287005Y-93258005D02*
X71628000Y-93599000D01*
X61422001Y-93258005D02*
X59268995Y-93258005D01*
X59268995Y-93258005D02*
X58293000Y-94234000D01*
X58293000Y-99949000D02*
X59817000Y-101473000D01*
X66929000Y-101473000D02*
X69223000Y-103767000D01*
X69223000Y-103767000D02*
X72136000Y-103767000D01*
X58293000Y-94234000D02*
X58293000Y-99949000D01*
D41*
X86614000Y-69746500D02*
X89764000Y-69746500D01*
X63754000Y-105966500D02*
X63754000Y-106934000D01*
X62206500Y-108481500D02*
X62206500Y-109601000D01*
X63754000Y-106934000D02*
X62206500Y-108481500D01*
X92583000Y-89027000D02*
X99695000Y-81915000D01*
X86741000Y-89027000D02*
X92583000Y-89027000D01*
X99695000Y-81915000D02*
X99695000Y-76512000D01*
X85463000Y-106458000D02*
X85463000Y-90305000D01*
X85463000Y-90305000D02*
X86741000Y-89027000D01*
X54864000Y-71374000D02*
X54864000Y-72898000D01*
X55094000Y-73128000D02*
X56102000Y-73128000D01*
X58543000Y-71124000D02*
X58166000Y-71501000D01*
X58166000Y-71501000D02*
X58166000Y-72644000D01*
X54864000Y-72898000D02*
X55094000Y-73128000D01*
X56102000Y-71128000D02*
X55110000Y-71128000D01*
X65989200Y-71124000D02*
X58543000Y-71124000D01*
X57682000Y-73128000D02*
X56102000Y-73128000D01*
X58166000Y-72644000D02*
X57682000Y-73128000D01*
X55110000Y-71128000D02*
X54864000Y-71374000D01*
X88011000Y-89662000D02*
X87376000Y-90297000D01*
X87376000Y-97282000D02*
X87884000Y-97790000D01*
X87884000Y-97790000D02*
X94996000Y-97790000D01*
D42*
X87376000Y-90297000D02*
X87376000Y-97282000D01*
D41*
X102235000Y-80264000D02*
X92837000Y-89662000D01*
X92837000Y-89662000D02*
X88011000Y-89662000D01*
X102235000Y-76512000D02*
X102235000Y-80264000D01*
X94996000Y-97790000D02*
X95623000Y-98417000D01*
X95623000Y-98417000D02*
X95623000Y-106458000D01*
X57531000Y-70358000D02*
X57531000Y-71882000D01*
X57285000Y-72128000D02*
X56102000Y-72128000D01*
X56102000Y-70128000D02*
X57301000Y-70128000D01*
X57531000Y-71882000D02*
X57285000Y-72128000D01*
X57301000Y-70128000D02*
X57531000Y-70358000D01*
X65989200Y-70623999D02*
X57531000Y-70623999D01*
X114300000Y-79502000D02*
X113157000Y-78359000D01*
X111125000Y-77597000D02*
X111125000Y-76512000D01*
X115943000Y-89876250D02*
X114300000Y-88233250D01*
X113157000Y-78359000D02*
X111887000Y-78359000D01*
X111887000Y-78359000D02*
X111125000Y-77597000D01*
X114300000Y-88233250D02*
X114300000Y-79502000D01*
X115943000Y-106585000D02*
X115943000Y-89876250D01*
X112395000Y-76512000D02*
X112395000Y-77597000D01*
X115824000Y-87122000D02*
X115824000Y-88011000D01*
X117983000Y-90170000D02*
X124714000Y-90170000D01*
X112649000Y-77851000D02*
X113601500Y-77851000D01*
X124714000Y-90170000D02*
X126103000Y-91559000D01*
X112395000Y-77597000D02*
X112649000Y-77851000D01*
X126103000Y-91559000D02*
X126103000Y-106458000D01*
X114808000Y-86106000D02*
X115824000Y-87122000D01*
X113601500Y-77851000D02*
X114808000Y-79057500D01*
X114808000Y-79057500D02*
X114808000Y-86106000D01*
X115824000Y-88011000D02*
X117983000Y-90170000D01*
X105783000Y-99195000D02*
X105783000Y-106458000D01*
X106783500Y-98194500D02*
X105783000Y-99195000D01*
X103528500Y-96266000D02*
X106783500Y-96266000D01*
X106783500Y-96266000D02*
X106783500Y-98194500D01*
X86463000Y-106458000D02*
X86463000Y-96266500D01*
X86463000Y-96266500D02*
X86463500Y-96266000D01*
X96623500Y-106457500D02*
X96623000Y-106458000D01*
X96623500Y-96266000D02*
X96623500Y-106457500D01*
X116943000Y-106585000D02*
X116943000Y-96393500D01*
X127103000Y-106458000D02*
X127103000Y-96266500D01*
X127103000Y-96266500D02*
X127103500Y-96266000D01*
X115430000Y-68912000D02*
X120127500Y-68912000D01*
X120127500Y-68912000D02*
X123675500Y-65364000D01*
X123675500Y-65364000D02*
X132737000Y-65364000D01*
X123655000Y-66464000D02*
X132737000Y-66464000D01*
X115430000Y-70182000D02*
X119937000Y-70182000D01*
X119937000Y-70182000D02*
X123655000Y-66464000D01*
X122534500Y-68664000D02*
X132737000Y-68664000D01*
X119746500Y-71452000D02*
X122534500Y-68664000D01*
X115430000Y-71452000D02*
X119746500Y-71452000D01*
X115430000Y-72722000D02*
X119556000Y-72722000D01*
X121414000Y-70864000D02*
X132737000Y-70864000D01*
X119556000Y-72722000D02*
X121414000Y-70864000D01*
X137263500Y-98194500D02*
X136263000Y-99195000D01*
X137263500Y-96266000D02*
X137263500Y-98194500D01*
X136263000Y-99195000D02*
X136263000Y-106458000D01*
X134008500Y-96266000D02*
X137263500Y-96266000D01*
X120380000Y-72914000D02*
X132737000Y-72914000D01*
X115430000Y-73992000D02*
X119302000Y-73992000D01*
X119302000Y-73992000D02*
X120380000Y-72914000D01*
D42*
X59546000Y-81877000D02*
X59546051Y-81876949D01*
X64999671Y-74226950D02*
X96570049Y-74226950D01*
X63099950Y-81114292D02*
X63099950Y-76126671D01*
X96570049Y-74226950D02*
X96804999Y-73992000D01*
X59546051Y-81876949D02*
X62337293Y-81876949D01*
X96804999Y-73992000D02*
X97930000Y-73992000D01*
X63099950Y-76126671D02*
X64999671Y-74226950D01*
X62337293Y-81876949D02*
X63099950Y-81114292D01*
X63900050Y-81445708D02*
X63900050Y-76434950D01*
X65307950Y-75027050D02*
X96570049Y-75027050D01*
X96570049Y-75027050D02*
X96804999Y-75262000D01*
X59546051Y-82677051D02*
X62668707Y-82677051D01*
X59546000Y-82677000D02*
X59546051Y-82677051D01*
X62668707Y-82677051D02*
X63900050Y-81445708D01*
X96804999Y-75262000D02*
X97930000Y-75262000D01*
X63900050Y-76434950D02*
X65307950Y-75027050D01*
D40*
X127350698Y-80454500D02*
X138960504Y-80454500D01*
X138960504Y-80454500D02*
X142920999Y-84414995D01*
X141263995Y-79414995D02*
X142920999Y-79414995D01*
X140093700Y-78244700D02*
X141263995Y-79414995D01*
X127350698Y-78244700D02*
X140093700Y-78244700D01*
D42*
X93091000Y-64262000D02*
X93091000Y-65151000D01*
X97930000Y-62562000D02*
X94791000Y-62562000D01*
X94791000Y-62562000D02*
X93091000Y-64262000D01*
D41*
X118492000Y-63245000D02*
X122137000Y-63245000D01*
X117905000Y-63832000D02*
X118492000Y-63245000D01*
X115430000Y-63832000D02*
X117905000Y-63832000D01*
X135763000Y-58039000D02*
X135255000Y-57531000D01*
X135763000Y-59182000D02*
X135763000Y-58039000D01*
X135255000Y-57531000D02*
X120777000Y-57531000D01*
X129794000Y-87757000D02*
X130810000Y-88773000D01*
X125603000Y-86741000D02*
X126619000Y-87757000D01*
X130810000Y-90932000D02*
X131186000Y-91308000D01*
X120777000Y-57531000D02*
X118286000Y-60022000D01*
X125603000Y-76708000D02*
X125603000Y-86741000D01*
X126746000Y-75565000D02*
X125603000Y-76708000D01*
X131186000Y-91308000D02*
X134033500Y-91308000D01*
X130810000Y-88773000D02*
X130810000Y-90932000D01*
X126619000Y-87757000D02*
X129794000Y-87757000D01*
X118286000Y-60022000D02*
X115430000Y-60022000D01*
X144272000Y-75565000D02*
X126746000Y-75565000D01*
D42*
X73152000Y-70644092D02*
X73152000Y-63222500D01*
X72172092Y-71624000D02*
X73152000Y-70644092D01*
X68884800Y-71624000D02*
X72172092Y-71624000D01*
X73152000Y-63222500D02*
X72921500Y-62992000D01*
D41*
X117553000Y-75262000D02*
X118745000Y-76454000D01*
X115430000Y-75262000D02*
X117553000Y-75262000D01*
D42*
X68884800Y-72124001D02*
X94372999Y-72124001D01*
X94372999Y-72124001D02*
X96315000Y-70182000D01*
X96315000Y-70182000D02*
X97930000Y-70182000D01*
X91440000Y-68834000D02*
X93902000Y-66372000D01*
X69723000Y-70104000D02*
X69203001Y-70623999D01*
X75311000Y-70104000D02*
X84159079Y-70104000D01*
X72390000Y-70104000D02*
X69723000Y-70104000D01*
X93902000Y-66372000D02*
X97930000Y-66372000D01*
X85429079Y-68834000D02*
X91440000Y-68834000D01*
X84159079Y-70104000D02*
X85429079Y-68834000D01*
X69203001Y-70623999D02*
X68884800Y-70623999D01*
X97930000Y-63832000D02*
X94791000Y-63832000D01*
X94791000Y-63832000D02*
X94361000Y-64262000D01*
X94361000Y-64262000D02*
X94361000Y-65151000D01*
X95680000Y-65102000D02*
X95631000Y-65151000D01*
X97930000Y-65102000D02*
X95680000Y-65102000D01*
X115430000Y-67642000D02*
X118540000Y-67642000D01*
X118540000Y-67642000D02*
X118618000Y-67564000D01*
X115430000Y-65102000D02*
X118540000Y-65102000D01*
X118540000Y-65102000D02*
X118618000Y-65024000D01*
X67288600Y-73533000D02*
X95313500Y-73533000D01*
X67187000Y-73431400D02*
X67288600Y-73533000D01*
X95313500Y-73533000D02*
X96124500Y-72722000D01*
X67187000Y-72821800D02*
X67187000Y-73431400D01*
X96124500Y-72722000D02*
X97930000Y-72722000D01*
X68187001Y-72821800D02*
X94818200Y-72821800D01*
X96188000Y-71452000D02*
X97930000Y-71452000D01*
X94818200Y-72821800D02*
X96188000Y-71452000D01*
X73660000Y-59563000D02*
X74549000Y-60452000D01*
X74803000Y-70739000D02*
X92202000Y-70739000D01*
X74549000Y-60452000D02*
X74549000Y-70485000D01*
D41*
X144018000Y-102489000D02*
X144018000Y-99984000D01*
D42*
X68707000Y-57404000D02*
X68707000Y-58928000D01*
D41*
X64746500Y-57300500D02*
X63373000Y-57300500D01*
X68707000Y-56110000D02*
X68715000Y-56102000D01*
X67183000Y-54864000D02*
X64746500Y-57300500D01*
D42*
X68707000Y-58928000D02*
X69342000Y-59563000D01*
X92202000Y-70739000D02*
X95299000Y-67642000D01*
X95299000Y-67642000D02*
X97930000Y-67642000D01*
X74549000Y-70485000D02*
X74803000Y-70739000D01*
D41*
X68715000Y-56102000D02*
X68715000Y-55126000D01*
X68453000Y-54864000D02*
X67183000Y-54864000D01*
X68707000Y-57404000D02*
X68707000Y-56110000D01*
D42*
X69342000Y-59563000D02*
X73660000Y-59563000D01*
D41*
X68715000Y-55126000D02*
X68453000Y-54864000D01*
X67691000Y-57404000D02*
X67691000Y-56126000D01*
X67691000Y-56126000D02*
X67715000Y-56102000D01*
X67715000Y-56102000D02*
X66834000Y-56102000D01*
D42*
X95172000Y-68912000D02*
X97930000Y-68912000D01*
X74041000Y-70739000D02*
X74549000Y-71247000D01*
D41*
X61595000Y-58293000D02*
X60706000Y-57404000D01*
X145288000Y-102108000D02*
X145288000Y-99984000D01*
X66834000Y-56102000D02*
X64643000Y-58293000D01*
D42*
X92837000Y-71247000D02*
X95172000Y-68912000D01*
X74041000Y-60706000D02*
X74041000Y-70739000D01*
X68834000Y-60071000D02*
X73406000Y-60071000D01*
X73406000Y-60071000D02*
X74041000Y-60706000D01*
X67691000Y-58928000D02*
X68834000Y-60071000D01*
X74549000Y-71247000D02*
X92837000Y-71247000D01*
D41*
X64643000Y-58293000D02*
X61595000Y-58293000D01*
D42*
X67691000Y-57404000D02*
X67691000Y-58928000D01*
X115430000Y-66372000D02*
X118540000Y-66372000D01*
X118540000Y-66372000D02*
X118618000Y-66294000D01*
D39*
X130822700Y-85864700D02*
X132158500Y-87200500D01*
X132158500Y-87200500D02*
X132158500Y-90358000D01*
X127977900Y-85864700D02*
X130822700Y-85864700D01*
D41*
X108204000Y-81407000D02*
X107315000Y-80518000D01*
X107315000Y-80518000D02*
X107315000Y-76512000D01*
X110171000Y-90932000D02*
X108585000Y-90932000D01*
X108204000Y-90551000D02*
X108204000Y-81407000D01*
X108585000Y-90932000D02*
X108204000Y-90551000D01*
X88326000Y-96228500D02*
X88288500Y-96266000D01*
X101346000Y-83312000D02*
X91186000Y-93472000D01*
X88326000Y-93472000D02*
X88326000Y-96228500D01*
X105221000Y-83312000D02*
X101346000Y-83312000D01*
X91186000Y-93472000D02*
X88326000Y-93472000D01*
X98448500Y-93697500D02*
X98448500Y-96266000D01*
X98486000Y-93472000D02*
X98486000Y-88331000D01*
X98486000Y-93660000D02*
X98448500Y-93697500D01*
X98486000Y-93472000D02*
X98486000Y-93660000D01*
X100965000Y-85852000D02*
X105221000Y-85852000D01*
X98486000Y-88331000D02*
X100965000Y-85852000D01*
X118806000Y-91882000D02*
X118806000Y-93472000D01*
X111506000Y-89662000D02*
X111760000Y-89408000D01*
X118806000Y-93472000D02*
X118806000Y-96228500D01*
X110171000Y-89662000D02*
X111506000Y-89662000D01*
X115062000Y-87630000D02*
X115062000Y-88138000D01*
X111760000Y-89408000D02*
X111760000Y-87630000D01*
X115062000Y-88138000D02*
X118806000Y-91882000D01*
X118806000Y-96228500D02*
X118768500Y-96266000D01*
X126492000Y-89408000D02*
X128966000Y-91882000D01*
X128966000Y-91882000D02*
X128966000Y-93472000D01*
X118110000Y-89408000D02*
X126492000Y-89408000D01*
X111252000Y-86741000D02*
X110871000Y-87122000D01*
X128966000Y-93472000D02*
X128966000Y-96228500D01*
X111760000Y-86741000D02*
X111252000Y-86741000D01*
X115570000Y-85852000D02*
X116332000Y-86614000D01*
X128966000Y-96228500D02*
X128928500Y-96266000D01*
X116332000Y-86614000D02*
X116332000Y-87630000D01*
X116332000Y-87630000D02*
X118110000Y-89408000D01*
X101854000Y-91440000D02*
X101854000Y-89027000D01*
X108646000Y-92390000D02*
X108331000Y-92075000D01*
X102489000Y-88392000D02*
X105221000Y-88392000D01*
X101854000Y-89027000D02*
X102489000Y-88392000D01*
X108646000Y-96228500D02*
X108608500Y-96266000D01*
X108646000Y-93472000D02*
X108646000Y-92390000D01*
X108646000Y-93472000D02*
X108646000Y-96228500D01*
X108331000Y-92075000D02*
X102489000Y-92075000D01*
X102489000Y-92075000D02*
X101854000Y-91440000D01*
X117094000Y-85979000D02*
X117094000Y-87630000D01*
X139088500Y-96266000D02*
X139126000Y-96228500D01*
X115570000Y-84963000D02*
X116078000Y-84963000D01*
X118110000Y-88646000D02*
X127000000Y-88646000D01*
X139126000Y-96228500D02*
X139126000Y-93472000D01*
X116078000Y-84963000D02*
X117094000Y-85979000D01*
X139126000Y-92390000D02*
X139126000Y-93472000D01*
X135255000Y-92583000D02*
X135763000Y-92075000D01*
X127000000Y-88646000D02*
X130937000Y-92583000D01*
X135763000Y-92075000D02*
X138811000Y-92075000D01*
X117094000Y-87630000D02*
X118110000Y-88646000D01*
X111760000Y-84963000D02*
X111379000Y-84582000D01*
X111379000Y-84582000D02*
X110171000Y-84582000D01*
X130937000Y-92583000D02*
X135255000Y-92583000D01*
X138811000Y-92075000D02*
X139126000Y-92390000D01*
G04 #@! TA.AperFunction,Conductor*
G36*
X67887121Y-76347002D02*
G01*
X67933614Y-76400658D01*
X67945000Y-76453000D01*
X67945000Y-90044000D01*
X67924998Y-90112121D01*
X67871342Y-90158614D01*
X67819000Y-90170000D01*
X65277000Y-90170000D01*
X65208879Y-90149998D01*
X65162386Y-90096342D01*
X65151000Y-90044000D01*
X65151000Y-76453000D01*
X65171002Y-76384879D01*
X65224658Y-76338386D01*
X65277000Y-76327000D01*
X67819000Y-76327000D01*
X67887121Y-76347002D01*
G37*
G04 #@! TD.AperFunction*
G04 #@! TA.AperFunction,Conductor*
G36*
X63061121Y-59837002D02*
G01*
X63107614Y-59890658D01*
X63119000Y-59943000D01*
X63119000Y-62739000D01*
X63098998Y-62807121D01*
X63045342Y-62853614D01*
X62993000Y-62865000D01*
X51180500Y-62865000D01*
X51112379Y-62844998D01*
X51065886Y-62791342D01*
X51054500Y-62739000D01*
X51054500Y-59943000D01*
X51074502Y-59874879D01*
X51128158Y-59828386D01*
X51180500Y-59817000D01*
X62993000Y-59817000D01*
X63061121Y-59837002D01*
G37*
G04 #@! TD.AperFunction*
G04 #@! TA.AperFunction,Conductor*
G36*
X63061121Y-63393002D02*
G01*
X63107614Y-63446658D01*
X63119000Y-63499000D01*
X63119000Y-66797500D01*
X63098998Y-66865621D01*
X63045342Y-66912114D01*
X62993000Y-66923500D01*
X60958993Y-66923500D01*
X60903838Y-66929430D01*
X60851516Y-66940812D01*
X60851510Y-66940813D01*
X60851499Y-66940816D01*
X60838707Y-66944325D01*
X60824710Y-66948165D01*
X60824709Y-66948166D01*
X60753971Y-66988446D01*
X60736720Y-66998270D01*
X60736713Y-66998275D01*
X60683076Y-67044752D01*
X60683058Y-67044769D01*
X60650944Y-67078049D01*
X60650944Y-67078050D01*
X60604014Y-67167767D01*
X60604013Y-67167770D01*
X60584011Y-67235891D01*
X60573500Y-67309000D01*
X60573500Y-67309002D01*
X60573500Y-69851006D01*
X60579430Y-69906161D01*
X60588133Y-69946166D01*
X60590816Y-69958501D01*
X60595777Y-69976584D01*
X60598165Y-69985289D01*
X60598168Y-69985295D01*
X60637377Y-70054150D01*
X60653704Y-70123244D01*
X60630085Y-70190196D01*
X60574017Y-70233750D01*
X60527885Y-70242499D01*
X57977580Y-70242499D01*
X57909459Y-70222497D01*
X57879486Y-70195579D01*
X57873350Y-70187967D01*
X57836276Y-70123753D01*
X57765247Y-70052724D01*
X57535247Y-69822724D01*
X57535245Y-69822723D01*
X57535243Y-69822721D01*
X57448258Y-69772500D01*
X57436792Y-69769427D01*
X57351225Y-69746500D01*
X57351223Y-69746500D01*
X57119740Y-69746500D01*
X57051619Y-69726498D01*
X57030645Y-69709595D01*
X56967723Y-69646673D01*
X56853553Y-69588501D01*
X56788836Y-69578251D01*
X56758834Y-69573500D01*
X55445166Y-69573500D01*
X55419266Y-69577602D01*
X55350446Y-69588501D01*
X55236276Y-69646673D01*
X55145673Y-69737276D01*
X55087501Y-69851446D01*
X55072500Y-69946167D01*
X55072500Y-70309832D01*
X55087501Y-70404553D01*
X55145673Y-70518723D01*
X55158354Y-70531404D01*
X55192380Y-70593716D01*
X55187315Y-70664531D01*
X55144768Y-70721367D01*
X55078248Y-70746178D01*
X55069259Y-70746499D01*
X55059775Y-70746499D01*
X55011261Y-70759498D01*
X54962745Y-70772498D01*
X54925979Y-70793726D01*
X54875756Y-70822721D01*
X54875746Y-70822729D01*
X54811910Y-70886566D01*
X54811898Y-70886576D01*
X54612030Y-71086445D01*
X54612028Y-71086448D01*
X54558729Y-71139746D01*
X54558721Y-71139756D01*
X54508500Y-71226741D01*
X54482500Y-71323776D01*
X54482500Y-72948223D01*
X54482499Y-72948223D01*
X54508498Y-73045251D01*
X54508501Y-73045258D01*
X54527274Y-73077773D01*
X54527274Y-73077774D01*
X54558721Y-73132243D01*
X54558723Y-73132245D01*
X54558724Y-73132247D01*
X54788724Y-73362247D01*
X54859753Y-73433276D01*
X54859754Y-73433277D01*
X54859756Y-73433278D01*
X54946741Y-73483499D01*
X54946743Y-73483499D01*
X54946746Y-73483501D01*
X55043775Y-73509500D01*
X55084260Y-73509500D01*
X55152381Y-73529502D01*
X55173355Y-73546405D01*
X55236276Y-73609326D01*
X55293361Y-73638412D01*
X55350445Y-73667498D01*
X55445166Y-73682500D01*
X55445168Y-73682500D01*
X56758832Y-73682500D01*
X56758834Y-73682500D01*
X56853555Y-73667498D01*
X56967723Y-73609326D01*
X56980550Y-73596499D01*
X57030645Y-73546405D01*
X57092957Y-73512379D01*
X57119740Y-73509500D01*
X57732223Y-73509500D01*
X57732225Y-73509500D01*
X57829254Y-73483501D01*
X57829257Y-73483499D01*
X57829258Y-73483499D01*
X57877350Y-73455733D01*
X57916247Y-73433276D01*
X57987276Y-73362247D01*
X58004985Y-73344538D01*
X58004991Y-73344530D01*
X58389871Y-72959649D01*
X58389881Y-72959642D01*
X58471270Y-72878253D01*
X58471276Y-72878247D01*
X58521501Y-72791254D01*
X58547500Y-72694225D01*
X58547500Y-71711212D01*
X58556283Y-71681296D01*
X58562912Y-71650827D01*
X58566726Y-71645731D01*
X58567502Y-71643091D01*
X58584405Y-71622117D01*
X58664117Y-71542405D01*
X58726429Y-71508379D01*
X58753212Y-71505500D01*
X60945655Y-71505500D01*
X61013776Y-71525502D01*
X61060269Y-71579158D01*
X61070373Y-71649432D01*
X61050419Y-71701503D01*
X61040266Y-71716697D01*
X61025500Y-71790930D01*
X61025500Y-73241063D01*
X61025501Y-73241073D01*
X61040265Y-73315300D01*
X61096516Y-73399484D01*
X61180697Y-73455733D01*
X61180699Y-73455734D01*
X61254933Y-73470500D01*
X61493900Y-73470499D01*
X61562020Y-73490501D01*
X61608513Y-73544156D01*
X61619900Y-73596499D01*
X61619900Y-80138703D01*
X61599898Y-80206824D01*
X61582995Y-80227798D01*
X61253798Y-80556995D01*
X61191486Y-80591021D01*
X61164703Y-80593900D01*
X60836380Y-80593900D01*
X60804252Y-80589735D01*
X60795569Y-80587445D01*
X60795301Y-80587266D01*
X60793624Y-80586932D01*
X60789872Y-80585943D01*
X60784997Y-80582998D01*
X60783833Y-80582516D01*
X60783906Y-80582339D01*
X60762665Y-80569507D01*
X60734508Y-80554778D01*
X60732529Y-80551302D01*
X60729103Y-80549233D01*
X60715097Y-80520690D01*
X60699377Y-80493083D01*
X60698699Y-80487272D01*
X60697828Y-80485496D01*
X60698158Y-80482631D01*
X60696000Y-80464108D01*
X60696000Y-79227000D01*
X52896000Y-79227000D01*
X51696000Y-79227000D01*
X51696000Y-86127000D01*
X60696000Y-86127000D01*
X60696000Y-84527000D01*
X58522000Y-84527000D01*
X58453879Y-84506998D01*
X58407386Y-84453342D01*
X58396000Y-84401000D01*
X58396000Y-84107499D01*
X58416002Y-84039378D01*
X58469658Y-83992885D01*
X58522000Y-83981499D01*
X60721064Y-83981499D01*
X60721066Y-83981499D01*
X60721069Y-83981498D01*
X60721072Y-83981498D01*
X60757663Y-83974219D01*
X60795301Y-83966734D01*
X60879484Y-83910484D01*
X60935734Y-83826301D01*
X60950500Y-83752067D01*
X60950499Y-83201934D01*
X60950440Y-83201638D01*
X60946879Y-83183730D01*
X60953208Y-83113016D01*
X60996763Y-83056950D01*
X61063716Y-83033332D01*
X61070458Y-83033151D01*
X62715586Y-83033151D01*
X62715588Y-83033151D01*
X62806157Y-83008884D01*
X62887358Y-82962002D01*
X62903903Y-82945457D01*
X62966214Y-82911430D01*
X63037030Y-82916493D01*
X63093867Y-82959039D01*
X63118679Y-83025558D01*
X63119000Y-83034550D01*
X63119000Y-90044000D01*
X63098998Y-90112121D01*
X63045342Y-90158614D01*
X62993000Y-90170000D01*
X51180500Y-90170000D01*
X51112379Y-90149998D01*
X51065886Y-90096342D01*
X51054500Y-90044000D01*
X51054500Y-63499000D01*
X51074502Y-63430879D01*
X51128158Y-63384386D01*
X51180500Y-63373000D01*
X62993000Y-63373000D01*
X63061121Y-63393002D01*
G37*
G04 #@! TD.AperFunction*
G04 #@! TA.AperFunction,Conductor*
G36*
X71951121Y-82951002D02*
G01*
X71997614Y-83004658D01*
X72009000Y-83057000D01*
X72009000Y-87377000D01*
X71988998Y-87445121D01*
X71935342Y-87491614D01*
X71883000Y-87503000D01*
X68579000Y-87503000D01*
X68510879Y-87482998D01*
X68464386Y-87429342D01*
X68453000Y-87377000D01*
X68453000Y-83057000D01*
X68473002Y-82988879D01*
X68526658Y-82942386D01*
X68579000Y-82931000D01*
X71883000Y-82931000D01*
X71951121Y-82951002D01*
G37*
G04 #@! TD.AperFunction*
G04 #@! TA.AperFunction,Conductor*
G36*
X135145821Y-59075002D02*
G01*
X135192314Y-59128658D01*
X135203700Y-59181000D01*
X135203700Y-59255631D01*
X135203699Y-59255631D01*
X135241816Y-59397882D01*
X135315446Y-59525414D01*
X135315454Y-59525424D01*
X135419575Y-59629545D01*
X135419580Y-59629549D01*
X135419582Y-59629551D01*
X135547118Y-59703184D01*
X135689367Y-59741300D01*
X135689369Y-59741300D01*
X135836631Y-59741300D01*
X135836633Y-59741300D01*
X135978882Y-59703184D01*
X136106418Y-59629551D01*
X136210551Y-59525418D01*
X136284184Y-59397882D01*
X136322300Y-59255633D01*
X136322300Y-59181000D01*
X136342302Y-59112879D01*
X136395958Y-59066386D01*
X136448300Y-59055000D01*
X149226000Y-59055000D01*
X149294121Y-59075002D01*
X149340614Y-59128658D01*
X149352000Y-59181000D01*
X149352000Y-74804000D01*
X149331998Y-74872121D01*
X149278342Y-74918614D01*
X149226000Y-74930000D01*
X146512160Y-74930000D01*
X146444039Y-74909998D01*
X146423065Y-74893095D01*
X146393424Y-74863454D01*
X146393414Y-74863446D01*
X146265882Y-74789816D01*
X146123633Y-74751700D01*
X145976367Y-74751700D01*
X145881534Y-74777110D01*
X145834117Y-74789816D01*
X145706585Y-74863446D01*
X145706575Y-74863454D01*
X145676935Y-74893095D01*
X145614623Y-74927121D01*
X145587840Y-74930000D01*
X127761000Y-74930000D01*
X127692879Y-74909998D01*
X127646386Y-74856342D01*
X127635000Y-74804000D01*
X127635000Y-73532000D01*
X127655002Y-73463879D01*
X127708658Y-73417386D01*
X127761000Y-73406000D01*
X130175001Y-73406000D01*
X130181442Y-73399558D01*
X130195002Y-73353379D01*
X130248658Y-73306886D01*
X130301000Y-73295500D01*
X131784991Y-73295500D01*
X131853112Y-73315502D01*
X131887342Y-73355005D01*
X131890371Y-73352982D01*
X131953516Y-73447484D01*
X132037697Y-73503733D01*
X132037699Y-73503734D01*
X132111933Y-73518500D01*
X133061000Y-73518499D01*
X133129121Y-73538501D01*
X133175614Y-73592157D01*
X133187000Y-73644499D01*
X133187000Y-74264000D01*
X136437000Y-74264000D01*
X137637000Y-74264000D01*
X141237000Y-74264000D01*
X141237000Y-73514000D01*
X137637000Y-73514000D01*
X137637000Y-74264000D01*
X136437000Y-74264000D01*
X136437000Y-73514000D01*
X133700290Y-73514000D01*
X133632169Y-73493998D01*
X133585676Y-73440342D01*
X133575572Y-73370068D01*
X133576711Y-73363419D01*
X133591499Y-73289072D01*
X133591500Y-73289067D01*
X133591499Y-72538934D01*
X133576734Y-72464699D01*
X133576733Y-72464697D01*
X133576594Y-72464000D01*
X137737000Y-72464000D01*
X138911000Y-72464000D01*
X138979121Y-72484002D01*
X139025614Y-72537658D01*
X139037000Y-72590000D01*
X139037000Y-73164000D01*
X146637000Y-73164000D01*
X146637000Y-72464000D01*
X139463000Y-72464000D01*
X139394879Y-72443998D01*
X139348386Y-72390342D01*
X139337000Y-72338000D01*
X139337000Y-64114000D01*
X147437000Y-64114000D01*
X148787000Y-64114000D01*
X148787000Y-61564000D01*
X147437000Y-61564000D01*
X147437000Y-64114000D01*
X139337000Y-64114000D01*
X139337000Y-63764000D01*
X137737000Y-63764000D01*
X137737000Y-72464000D01*
X133576594Y-72464000D01*
X133576511Y-72463581D01*
X133576511Y-72414417D01*
X133576732Y-72413303D01*
X133576734Y-72413301D01*
X133591500Y-72339067D01*
X133591499Y-71588934D01*
X133591498Y-71588930D01*
X133591498Y-71588926D01*
X133576734Y-71514700D01*
X133576734Y-71514699D01*
X133556222Y-71484001D01*
X133535007Y-71416251D01*
X133553789Y-71347784D01*
X133556207Y-71344020D01*
X133576734Y-71313301D01*
X133591500Y-71239067D01*
X133591499Y-70488934D01*
X133591498Y-70488931D01*
X133591498Y-70488926D01*
X133576734Y-70414699D01*
X133520483Y-70330515D01*
X133436302Y-70274266D01*
X133362067Y-70259500D01*
X132111936Y-70259500D01*
X132111926Y-70259501D01*
X132037699Y-70274265D01*
X131953515Y-70330516D01*
X131890370Y-70425018D01*
X131886905Y-70422703D01*
X131856858Y-70459995D01*
X131789496Y-70482419D01*
X131784991Y-70482500D01*
X130301000Y-70482500D01*
X130232879Y-70462498D01*
X130186386Y-70408842D01*
X130175000Y-70356500D01*
X130175000Y-69171500D01*
X130195002Y-69103379D01*
X130248658Y-69056886D01*
X130301000Y-69045500D01*
X131784991Y-69045500D01*
X131853112Y-69065502D01*
X131887342Y-69105005D01*
X131890371Y-69102982D01*
X131953516Y-69197484D01*
X132037697Y-69253733D01*
X132037699Y-69253734D01*
X132111933Y-69268500D01*
X133362066Y-69268499D01*
X133362069Y-69268498D01*
X133362073Y-69268498D01*
X133411326Y-69258701D01*
X133436301Y-69253734D01*
X133520484Y-69197484D01*
X133576734Y-69113301D01*
X133591500Y-69039067D01*
X133591499Y-68288934D01*
X133591498Y-68288931D01*
X133591498Y-68288926D01*
X133578401Y-68223080D01*
X133584730Y-68152366D01*
X133628284Y-68096299D01*
X133695237Y-68072681D01*
X133701980Y-68072500D01*
X133797943Y-68072500D01*
X133797945Y-68072500D01*
X133927274Y-68037847D01*
X134043227Y-67970901D01*
X134518901Y-67495227D01*
X134585847Y-67379274D01*
X134588940Y-67367729D01*
X134588942Y-67367726D01*
X134588941Y-67367726D01*
X134620500Y-67249945D01*
X134620500Y-60088566D01*
X134630092Y-60040345D01*
X134633181Y-60032887D01*
X134633184Y-60032882D01*
X134671300Y-59890633D01*
X134671300Y-59743367D01*
X134633184Y-59601118D01*
X134633181Y-59601112D01*
X134630089Y-59593645D01*
X134628436Y-59585337D01*
X134625604Y-59580930D01*
X134620500Y-59545432D01*
X134620500Y-59326566D01*
X134630092Y-59278345D01*
X134633180Y-59270888D01*
X134633184Y-59270882D01*
X134666007Y-59148386D01*
X134702958Y-59087766D01*
X134766819Y-59056744D01*
X134787713Y-59055000D01*
X135077700Y-59055000D01*
X135145821Y-59075002D01*
G37*
G04 #@! TD.AperFunction*
G04 #@! TA.AperFunction,Conductor*
G36*
X133462613Y-59062730D02*
G01*
X133489738Y-59066899D01*
X133496171Y-59072583D01*
X133504408Y-59075002D01*
X133522376Y-59095739D01*
X133542941Y-59113910D01*
X133548028Y-59125343D01*
X133550901Y-59128658D01*
X133556775Y-59144998D01*
X133557522Y-59146676D01*
X133557758Y-59147511D01*
X133590816Y-59270882D01*
X133594488Y-59277242D01*
X133598735Y-59292242D01*
X133603500Y-59326566D01*
X133603500Y-59545432D01*
X133593911Y-59593645D01*
X133590818Y-59601112D01*
X133590816Y-59601116D01*
X133590816Y-59601118D01*
X133552700Y-59743367D01*
X133552700Y-59743369D01*
X133552700Y-59890631D01*
X133552699Y-59890631D01*
X133590815Y-60032880D01*
X133593908Y-60040345D01*
X133603500Y-60088566D01*
X133603500Y-63554949D01*
X133583498Y-63623070D01*
X133529842Y-63669563D01*
X133459568Y-63679667D01*
X133448484Y-63676626D01*
X133448472Y-63676687D01*
X133362067Y-63659500D01*
X132111936Y-63659500D01*
X132111926Y-63659501D01*
X132037699Y-63674265D01*
X131953515Y-63730516D01*
X131897266Y-63814697D01*
X131882500Y-63888930D01*
X131882500Y-64639063D01*
X131882501Y-64639073D01*
X131897266Y-64713301D01*
X131897265Y-64713301D01*
X131917776Y-64743996D01*
X131923732Y-64763018D01*
X131934315Y-64779916D01*
X131934124Y-64796204D01*
X131938992Y-64811749D01*
X131933718Y-64830974D01*
X131933485Y-64850908D01*
X131921081Y-64877039D01*
X131920210Y-64880216D01*
X131918207Y-64883354D01*
X131917960Y-64883728D01*
X131897266Y-64914699D01*
X131897147Y-64915296D01*
X131890186Y-64925855D01*
X131871893Y-64941335D01*
X131856858Y-64959995D01*
X131845294Y-64963844D01*
X131835990Y-64971718D01*
X131812231Y-64974850D01*
X131789496Y-64982419D01*
X131784991Y-64982500D01*
X130301000Y-64982500D01*
X130232879Y-64962498D01*
X130186386Y-64908842D01*
X130175000Y-64856500D01*
X130175000Y-59181000D01*
X130195002Y-59112879D01*
X130248658Y-59066386D01*
X130301000Y-59055000D01*
X133436287Y-59055000D01*
X133462613Y-59062730D01*
G37*
G04 #@! TD.AperFunction*
G04 #@! TA.AperFunction,Conductor*
G36*
X96081121Y-57297002D02*
G01*
X96127614Y-57350658D01*
X96139000Y-57403000D01*
X96139000Y-59177500D01*
X96118998Y-59245621D01*
X96065342Y-59292114D01*
X96013000Y-59303500D01*
X85088993Y-59303500D01*
X85033838Y-59309430D01*
X84981516Y-59320812D01*
X84981510Y-59320813D01*
X84981499Y-59320816D01*
X84968707Y-59324325D01*
X84954710Y-59328165D01*
X84954709Y-59328166D01*
X84883971Y-59368446D01*
X84866720Y-59378270D01*
X84866713Y-59378275D01*
X84813076Y-59424752D01*
X84813058Y-59424769D01*
X84780944Y-59458049D01*
X84780944Y-59458050D01*
X84734014Y-59547767D01*
X84734013Y-59547770D01*
X84714011Y-59615891D01*
X84706119Y-59670784D01*
X84703500Y-59689002D01*
X84703500Y-63628000D01*
X84683498Y-63696121D01*
X84629842Y-63742614D01*
X84577500Y-63754000D01*
X82041000Y-63754000D01*
X81972879Y-63733998D01*
X81926386Y-63680342D01*
X81915000Y-63628000D01*
X81915000Y-57403000D01*
X81935002Y-57334879D01*
X81988658Y-57288386D01*
X82041000Y-57277000D01*
X96013000Y-57277000D01*
X96081121Y-57297002D01*
G37*
G04 #@! TD.AperFunction*
G04 #@! TA.AperFunction,Conductor*
G36*
X79063121Y-61107002D02*
G01*
X79109614Y-61160658D01*
X79121000Y-61213000D01*
X79121000Y-67057000D01*
X79100998Y-67125121D01*
X79047342Y-67171614D01*
X78995000Y-67183000D01*
X75056000Y-67183000D01*
X74987879Y-67162998D01*
X74941386Y-67109342D01*
X74930000Y-67057000D01*
X74930000Y-64261000D01*
X74950002Y-64192879D01*
X75003658Y-64146386D01*
X75056000Y-64135000D01*
X76962000Y-64135000D01*
X76962000Y-61213000D01*
X76982002Y-61144879D01*
X77035658Y-61098386D01*
X77088000Y-61087000D01*
X78995000Y-61087000D01*
X79063121Y-61107002D01*
G37*
G04 #@! TD.AperFunction*
G04 #@! TA.AperFunction,Conductor*
G36*
X88461121Y-76220002D02*
G01*
X88507614Y-76273658D01*
X88519000Y-76326000D01*
X88519000Y-82297000D01*
X88498998Y-82365121D01*
X88445342Y-82411614D01*
X88393000Y-82423000D01*
X83565000Y-82423000D01*
X83496879Y-82402998D01*
X83450386Y-82349342D01*
X83439000Y-82297000D01*
X83439000Y-76326000D01*
X83459002Y-76257879D01*
X83512658Y-76211386D01*
X83565000Y-76200000D01*
X88393000Y-76200000D01*
X88461121Y-76220002D01*
G37*
G04 #@! TD.AperFunction*
G04 #@! TA.AperFunction,Conductor*
G36*
X74237121Y-76347002D02*
G01*
X74283614Y-76400658D01*
X74295000Y-76453000D01*
X74295000Y-81789000D01*
X74274998Y-81857121D01*
X74221342Y-81903614D01*
X74169000Y-81915000D01*
X70230000Y-81915000D01*
X70161879Y-81894998D01*
X70115386Y-81841342D01*
X70104000Y-81789000D01*
X70104000Y-76453000D01*
X70124002Y-76384879D01*
X70177658Y-76338386D01*
X70230000Y-76327000D01*
X74169000Y-76327000D01*
X74237121Y-76347002D01*
G37*
G04 #@! TD.AperFunction*
G04 #@! TA.AperFunction,Conductor*
G36*
X74491121Y-51074502D02*
G01*
X74537614Y-51128158D01*
X74549000Y-51180500D01*
X74549000Y-53976000D01*
X74528998Y-54044121D01*
X74475342Y-54090614D01*
X74423000Y-54102000D01*
X69695120Y-54102000D01*
X69626999Y-54081998D01*
X69606029Y-54065099D01*
X69312216Y-53771286D01*
X69312214Y-53771285D01*
X69312212Y-53771283D01*
X69181788Y-53695983D01*
X69181785Y-53695982D01*
X69181784Y-53695981D01*
X69181782Y-53695980D01*
X69181781Y-53695980D01*
X69142800Y-53685535D01*
X69036305Y-53657000D01*
X66623305Y-53657000D01*
X66472694Y-53657000D01*
X66383659Y-53680856D01*
X66327211Y-53695982D01*
X66196786Y-53771283D01*
X66196780Y-53771288D01*
X66031984Y-53936084D01*
X65902973Y-54065095D01*
X65840662Y-54099120D01*
X65813879Y-54102000D01*
X60832000Y-54102000D01*
X60763879Y-54081998D01*
X60717386Y-54028342D01*
X60706000Y-53976000D01*
X60706000Y-51180500D01*
X60726002Y-51112379D01*
X60779658Y-51065886D01*
X60832000Y-51054500D01*
X74423000Y-51054500D01*
X74491121Y-51074502D01*
G37*
G04 #@! TD.AperFunction*
G04 #@! TA.AperFunction,Conductor*
G36*
X83121621Y-76220002D02*
G01*
X83168114Y-76273658D01*
X83179500Y-76326000D01*
X83179500Y-82297006D01*
X83185430Y-82352161D01*
X83196812Y-82404483D01*
X83196816Y-82404501D01*
X83201777Y-82422584D01*
X83204165Y-82431289D01*
X83254270Y-82519279D01*
X83254275Y-82519286D01*
X83261782Y-82527949D01*
X83300762Y-82572934D01*
X83334051Y-82605056D01*
X83423770Y-82651987D01*
X83491891Y-82671989D01*
X83565000Y-82682500D01*
X83565003Y-82682500D01*
X85472000Y-82682500D01*
X85540121Y-82702502D01*
X85586614Y-82756158D01*
X85598000Y-82808500D01*
X85598000Y-88012000D01*
X85577998Y-88080121D01*
X85524342Y-88126614D01*
X85472000Y-88138000D01*
X79374000Y-88138000D01*
X79305879Y-88117998D01*
X79259386Y-88064342D01*
X79248000Y-88012000D01*
X79248000Y-81153000D01*
X77088000Y-81153000D01*
X77019879Y-81132998D01*
X76973386Y-81079342D01*
X76962000Y-81027000D01*
X76962000Y-80058268D01*
X76963282Y-80040338D01*
X76967500Y-80010998D01*
X76967500Y-76326000D01*
X76987502Y-76257879D01*
X77041158Y-76211386D01*
X77093500Y-76200000D01*
X83053500Y-76200000D01*
X83121621Y-76220002D01*
G37*
G04 #@! TD.AperFunction*
G04 #@! TA.AperFunction,Conductor*
G36*
X96462121Y-59583002D02*
G01*
X96508614Y-59636658D01*
X96520000Y-59689000D01*
X96520000Y-60912207D01*
X96499998Y-60980328D01*
X96483096Y-61001302D01*
X96477349Y-61007048D01*
X96477349Y-61007049D01*
X96231601Y-61252796D01*
X96169291Y-61286820D01*
X96142508Y-61289700D01*
X96065367Y-61289700D01*
X95970534Y-61315110D01*
X95923117Y-61327816D01*
X95795585Y-61401446D01*
X95795575Y-61401454D01*
X95691454Y-61505575D01*
X95691446Y-61505585D01*
X95617816Y-61633117D01*
X95579700Y-61775368D01*
X95579700Y-61922631D01*
X95579699Y-61922631D01*
X95613102Y-62047289D01*
X95611412Y-62118265D01*
X95571618Y-62177061D01*
X95506354Y-62205009D01*
X95491395Y-62205900D01*
X94744119Y-62205900D01*
X94653553Y-62230166D01*
X94653545Y-62230169D01*
X94572352Y-62277046D01*
X94572342Y-62277054D01*
X93283914Y-63565484D01*
X92872349Y-63977049D01*
X92852636Y-63996762D01*
X92806050Y-64043347D01*
X92806046Y-64043352D01*
X92759169Y-64124545D01*
X92759166Y-64124553D01*
X92734900Y-64215119D01*
X92734900Y-64270500D01*
X92714898Y-64338621D01*
X92661242Y-64385114D01*
X92608903Y-64396500D01*
X92565937Y-64396500D01*
X92565926Y-64396501D01*
X92491699Y-64411265D01*
X92407515Y-64467516D01*
X92351266Y-64551697D01*
X92336500Y-64625930D01*
X92336500Y-65676063D01*
X92336501Y-65676073D01*
X92351265Y-65750300D01*
X92407516Y-65834484D01*
X92491697Y-65890733D01*
X92491699Y-65890734D01*
X92565933Y-65905500D01*
X93560707Y-65905499D01*
X93628828Y-65925501D01*
X93675321Y-65979157D01*
X93685425Y-66049431D01*
X93655932Y-66114011D01*
X93649802Y-66120594D01*
X91329403Y-68440995D01*
X91267091Y-68475020D01*
X91240308Y-68477900D01*
X90832566Y-68477900D01*
X90764445Y-68457898D01*
X90717952Y-68404242D01*
X90707848Y-68333968D01*
X90714507Y-68307876D01*
X90737120Y-68247250D01*
X90743500Y-68187909D01*
X90743499Y-67605092D01*
X90737120Y-67545750D01*
X90687051Y-67411509D01*
X90687049Y-67411507D01*
X90687049Y-67411505D01*
X90601189Y-67296810D01*
X90486494Y-67210950D01*
X90452387Y-67198229D01*
X90352250Y-67160880D01*
X90322579Y-67157690D01*
X90292910Y-67154500D01*
X89285099Y-67154500D01*
X89285078Y-67154502D01*
X89225753Y-67160879D01*
X89091505Y-67210950D01*
X88976810Y-67296810D01*
X88890951Y-67411504D01*
X88890949Y-67411508D01*
X88890949Y-67411509D01*
X88875144Y-67453886D01*
X88864832Y-67481533D01*
X88822285Y-67538368D01*
X88755764Y-67563179D01*
X88746776Y-67563500D01*
X88218660Y-67563500D01*
X88150539Y-67543498D01*
X88129565Y-67526595D01*
X88100424Y-67497454D01*
X88100414Y-67497446D01*
X87972882Y-67423816D01*
X87926937Y-67411505D01*
X87830633Y-67385700D01*
X87683367Y-67385700D01*
X87588534Y-67411110D01*
X87541117Y-67423816D01*
X87413585Y-67497446D01*
X87413575Y-67497454D01*
X87309454Y-67601575D01*
X87309446Y-67601585D01*
X87235816Y-67729117D01*
X87235816Y-67729118D01*
X87200572Y-67860651D01*
X87197700Y-67871368D01*
X87197700Y-68018631D01*
X87197699Y-68018631D01*
X87235816Y-68160882D01*
X87309727Y-68288900D01*
X87326465Y-68357896D01*
X87303244Y-68424987D01*
X87247437Y-68468874D01*
X87200608Y-68477900D01*
X85382198Y-68477900D01*
X85291632Y-68502166D01*
X85291624Y-68502169D01*
X85210431Y-68549046D01*
X85210426Y-68549050D01*
X85184439Y-68575038D01*
X85144128Y-68615349D01*
X84073382Y-69686095D01*
X84011070Y-69720121D01*
X83984287Y-69723000D01*
X78485000Y-69723000D01*
X78416879Y-69702998D01*
X78370386Y-69649342D01*
X78359000Y-69597000D01*
X78359000Y-67568500D01*
X78379002Y-67500379D01*
X78432658Y-67453886D01*
X78485000Y-67442500D01*
X78994994Y-67442500D01*
X78995000Y-67442500D01*
X79050159Y-67436570D01*
X79102501Y-67425184D01*
X79129291Y-67417834D01*
X79217278Y-67367731D01*
X79270934Y-67321238D01*
X79303056Y-67287949D01*
X79349987Y-67198230D01*
X79369989Y-67130109D01*
X79380500Y-67057000D01*
X79380500Y-64388000D01*
X79400502Y-64319879D01*
X79454158Y-64273386D01*
X79506500Y-64262000D01*
X84963000Y-64262000D01*
X84963000Y-59689000D01*
X84983002Y-59620879D01*
X85036658Y-59574386D01*
X85089000Y-59563000D01*
X96394000Y-59563000D01*
X96462121Y-59583002D01*
G37*
G04 #@! TD.AperFunction*
G04 #@! TA.AperFunction,Conductor*
G36*
X108400121Y-63266002D02*
G01*
X108446614Y-63319658D01*
X108458000Y-63372000D01*
X108458000Y-69597000D01*
X108437998Y-69665121D01*
X108384342Y-69711614D01*
X108332000Y-69723000D01*
X101980000Y-69723000D01*
X101911879Y-69702998D01*
X101865386Y-69649342D01*
X101854000Y-69597000D01*
X101854000Y-63372000D01*
X101874002Y-63303879D01*
X101927658Y-63257386D01*
X101980000Y-63246000D01*
X108332000Y-63246000D01*
X108400121Y-63266002D01*
G37*
G04 #@! TD.AperFunction*
G04 #@! TA.AperFunction,Conductor*
G36*
X67379121Y-61996002D02*
G01*
X67425614Y-62049658D01*
X67437000Y-62102000D01*
X67437000Y-68962000D01*
X67416998Y-69030121D01*
X67363342Y-69076614D01*
X67311000Y-69088000D01*
X66294000Y-69088000D01*
X66294000Y-69851000D01*
X66273998Y-69919121D01*
X66220342Y-69965614D01*
X66168000Y-69977000D01*
X60959000Y-69977000D01*
X60890879Y-69956998D01*
X60844386Y-69903342D01*
X60833000Y-69851000D01*
X60833000Y-67309000D01*
X60853002Y-67240879D01*
X60906658Y-67194386D01*
X60959000Y-67183000D01*
X63627000Y-67183000D01*
X63627000Y-62102000D01*
X63647002Y-62033879D01*
X63700658Y-61987386D01*
X63753000Y-61976000D01*
X67311000Y-61976000D01*
X67379121Y-61996002D01*
G37*
G04 #@! TD.AperFunction*
G04 #@! TA.AperFunction,Conductor*
G36*
X121227121Y-75966002D02*
G01*
X121273614Y-76019658D01*
X121285000Y-76072000D01*
X121285000Y-87758000D01*
X121264998Y-87826121D01*
X121211342Y-87872614D01*
X121159000Y-87884000D01*
X118363000Y-87884000D01*
X118294879Y-87863998D01*
X118248386Y-87810342D01*
X118237000Y-87758000D01*
X118237000Y-76072000D01*
X118257002Y-76003879D01*
X118310658Y-75957386D01*
X118363000Y-75946000D01*
X121159000Y-75946000D01*
X121227121Y-75966002D01*
G37*
G04 #@! TD.AperFunction*
G04 #@! TA.AperFunction,Conductor*
G36*
X82988881Y-107335002D02*
G01*
X83009855Y-107351905D01*
X83072276Y-107414326D01*
X83124627Y-107441000D01*
X83186445Y-107472498D01*
X83281166Y-107487500D01*
X83281168Y-107487500D01*
X83644832Y-107487500D01*
X83644834Y-107487500D01*
X83739555Y-107472498D01*
X83853723Y-107414326D01*
X83873904Y-107394145D01*
X83916145Y-107351905D01*
X83978457Y-107317879D01*
X84005240Y-107315000D01*
X84920760Y-107315000D01*
X84988881Y-107335002D01*
X85009855Y-107351905D01*
X85072276Y-107414326D01*
X85124627Y-107441000D01*
X85186445Y-107472498D01*
X85281166Y-107487500D01*
X85281168Y-107487500D01*
X85644832Y-107487500D01*
X85644834Y-107487500D01*
X85739555Y-107472498D01*
X85853723Y-107414326D01*
X85853725Y-107414324D01*
X85873905Y-107394145D01*
X85936217Y-107360119D01*
X86007032Y-107365184D01*
X86052095Y-107394145D01*
X86072276Y-107414326D01*
X86124627Y-107441000D01*
X86186445Y-107472498D01*
X86281166Y-107487500D01*
X86281168Y-107487500D01*
X86644832Y-107487500D01*
X86644834Y-107487500D01*
X86739555Y-107472498D01*
X86853723Y-107414326D01*
X86873904Y-107394145D01*
X86916145Y-107351905D01*
X86978457Y-107317879D01*
X87005240Y-107315000D01*
X93080760Y-107315000D01*
X93148881Y-107335002D01*
X93169855Y-107351905D01*
X93232276Y-107414326D01*
X93284627Y-107441000D01*
X93346445Y-107472498D01*
X93441166Y-107487500D01*
X93441168Y-107487500D01*
X93804832Y-107487500D01*
X93804834Y-107487500D01*
X93899555Y-107472498D01*
X94013723Y-107414326D01*
X94033904Y-107394145D01*
X94076145Y-107351905D01*
X94138457Y-107317879D01*
X94165240Y-107315000D01*
X95080760Y-107315000D01*
X95148881Y-107335002D01*
X95169855Y-107351905D01*
X95232276Y-107414326D01*
X95284627Y-107441000D01*
X95346445Y-107472498D01*
X95441166Y-107487500D01*
X95441168Y-107487500D01*
X95804832Y-107487500D01*
X95804834Y-107487500D01*
X95899555Y-107472498D01*
X96013723Y-107414326D01*
X96013725Y-107414324D01*
X96033905Y-107394145D01*
X96096217Y-107360119D01*
X96167032Y-107365184D01*
X96212095Y-107394145D01*
X96232276Y-107414326D01*
X96284627Y-107441000D01*
X96346445Y-107472498D01*
X96441166Y-107487500D01*
X96441168Y-107487500D01*
X96804832Y-107487500D01*
X96804834Y-107487500D01*
X96899555Y-107472498D01*
X97013723Y-107414326D01*
X97033904Y-107394145D01*
X97076145Y-107351905D01*
X97138457Y-107317879D01*
X97165240Y-107315000D01*
X103240760Y-107315000D01*
X103308881Y-107335002D01*
X103329855Y-107351905D01*
X103392276Y-107414326D01*
X103444627Y-107441000D01*
X103506445Y-107472498D01*
X103601166Y-107487500D01*
X103601168Y-107487500D01*
X103964832Y-107487500D01*
X103964834Y-107487500D01*
X104059555Y-107472498D01*
X104173723Y-107414326D01*
X104193904Y-107394145D01*
X104236145Y-107351905D01*
X104298457Y-107317879D01*
X104325240Y-107315000D01*
X105240760Y-107315000D01*
X105308881Y-107335002D01*
X105329855Y-107351905D01*
X105392276Y-107414326D01*
X105444627Y-107441000D01*
X105506445Y-107472498D01*
X105601166Y-107487500D01*
X105601168Y-107487500D01*
X105964832Y-107487500D01*
X105964834Y-107487500D01*
X106059555Y-107472498D01*
X106173723Y-107414326D01*
X106173725Y-107414324D01*
X106193905Y-107394145D01*
X106256217Y-107360119D01*
X106327032Y-107365184D01*
X106372095Y-107394145D01*
X106392276Y-107414326D01*
X106444627Y-107441000D01*
X106506445Y-107472498D01*
X106601166Y-107487500D01*
X106601168Y-107487500D01*
X106964832Y-107487500D01*
X106964834Y-107487500D01*
X107059555Y-107472498D01*
X107173723Y-107414326D01*
X107193904Y-107394145D01*
X107236145Y-107351905D01*
X107298457Y-107317879D01*
X107325240Y-107315000D01*
X113400760Y-107315000D01*
X113468881Y-107335002D01*
X113489855Y-107351905D01*
X113552276Y-107414326D01*
X113604627Y-107441000D01*
X113666445Y-107472498D01*
X113761166Y-107487500D01*
X113761168Y-107487500D01*
X114124832Y-107487500D01*
X114124834Y-107487500D01*
X114219555Y-107472498D01*
X114333723Y-107414326D01*
X114353904Y-107394145D01*
X114396145Y-107351905D01*
X114458457Y-107317879D01*
X114485240Y-107315000D01*
X115400760Y-107315000D01*
X115468881Y-107335002D01*
X115489855Y-107351905D01*
X115552276Y-107414326D01*
X115604627Y-107441000D01*
X115666445Y-107472498D01*
X115761166Y-107487500D01*
X115761168Y-107487500D01*
X116124832Y-107487500D01*
X116124834Y-107487500D01*
X116219555Y-107472498D01*
X116333723Y-107414326D01*
X116333725Y-107414324D01*
X116353905Y-107394145D01*
X116416217Y-107360119D01*
X116487032Y-107365184D01*
X116532095Y-107394145D01*
X116552276Y-107414326D01*
X116604627Y-107441000D01*
X116666445Y-107472498D01*
X116761166Y-107487500D01*
X116761168Y-107487500D01*
X117124832Y-107487500D01*
X117124834Y-107487500D01*
X117219555Y-107472498D01*
X117333723Y-107414326D01*
X117353904Y-107394145D01*
X117396145Y-107351905D01*
X117458457Y-107317879D01*
X117485240Y-107315000D01*
X123560760Y-107315000D01*
X123628881Y-107335002D01*
X123649855Y-107351905D01*
X123712276Y-107414326D01*
X123764627Y-107441000D01*
X123826445Y-107472498D01*
X123921166Y-107487500D01*
X123921168Y-107487500D01*
X124284832Y-107487500D01*
X124284834Y-107487500D01*
X124379555Y-107472498D01*
X124493723Y-107414326D01*
X124513904Y-107394145D01*
X124556145Y-107351905D01*
X124618457Y-107317879D01*
X124645240Y-107315000D01*
X125560760Y-107315000D01*
X125628881Y-107335002D01*
X125649855Y-107351905D01*
X125712276Y-107414326D01*
X125764627Y-107441000D01*
X125826445Y-107472498D01*
X125921166Y-107487500D01*
X125921168Y-107487500D01*
X126284832Y-107487500D01*
X126284834Y-107487500D01*
X126379555Y-107472498D01*
X126493723Y-107414326D01*
X126493725Y-107414324D01*
X126513905Y-107394145D01*
X126576217Y-107360119D01*
X126647032Y-107365184D01*
X126692095Y-107394145D01*
X126712276Y-107414326D01*
X126764627Y-107441000D01*
X126826445Y-107472498D01*
X126921166Y-107487500D01*
X126921168Y-107487500D01*
X127284832Y-107487500D01*
X127284834Y-107487500D01*
X127379555Y-107472498D01*
X127493723Y-107414326D01*
X127513904Y-107394145D01*
X127556145Y-107351905D01*
X127618457Y-107317879D01*
X127645240Y-107315000D01*
X133720760Y-107315000D01*
X133788881Y-107335002D01*
X133809855Y-107351905D01*
X133872276Y-107414326D01*
X133924627Y-107441000D01*
X133986445Y-107472498D01*
X134081166Y-107487500D01*
X134081168Y-107487500D01*
X134444832Y-107487500D01*
X134444834Y-107487500D01*
X134539555Y-107472498D01*
X134653723Y-107414326D01*
X134673904Y-107394145D01*
X134716145Y-107351905D01*
X134778457Y-107317879D01*
X134805240Y-107315000D01*
X135720760Y-107315000D01*
X135788881Y-107335002D01*
X135809855Y-107351905D01*
X135872276Y-107414326D01*
X135924627Y-107441000D01*
X135986445Y-107472498D01*
X136081166Y-107487500D01*
X136081168Y-107487500D01*
X136444832Y-107487500D01*
X136444834Y-107487500D01*
X136539555Y-107472498D01*
X136653723Y-107414326D01*
X136653725Y-107414324D01*
X136673905Y-107394145D01*
X136736217Y-107360119D01*
X136807032Y-107365184D01*
X136852095Y-107394145D01*
X136872276Y-107414326D01*
X136924627Y-107441000D01*
X136986445Y-107472498D01*
X137081166Y-107487500D01*
X137081168Y-107487500D01*
X137444832Y-107487500D01*
X137444834Y-107487500D01*
X137539555Y-107472498D01*
X137653723Y-107414326D01*
X137673904Y-107394145D01*
X137716145Y-107351905D01*
X137778457Y-107317879D01*
X137805240Y-107315000D01*
X139954000Y-107315000D01*
X140589000Y-107315000D01*
X140589000Y-111505500D01*
X76707000Y-111505500D01*
X76638879Y-111485498D01*
X76592386Y-111431842D01*
X76581000Y-111379500D01*
X76581000Y-107441000D01*
X76601002Y-107372879D01*
X76654658Y-107326386D01*
X76707000Y-107315000D01*
X82920760Y-107315000D01*
X82988881Y-107335002D01*
G37*
G04 #@! TD.AperFunction*
G04 #@! TA.AperFunction,Conductor*
G36*
X112633908Y-79268502D02*
G01*
X112654882Y-79285405D01*
X113119595Y-79750118D01*
X113153621Y-79812430D01*
X113156500Y-79839213D01*
X113156500Y-82551000D01*
X113136498Y-82619121D01*
X113082842Y-82665614D01*
X113030500Y-82677000D01*
X111505000Y-82677000D01*
X111436879Y-82656998D01*
X111390386Y-82603342D01*
X111379000Y-82551000D01*
X111379000Y-79374500D01*
X111399002Y-79306379D01*
X111452658Y-79259886D01*
X111505000Y-79248500D01*
X112565787Y-79248500D01*
X112633908Y-79268502D01*
G37*
G04 #@! TD.AperFunction*
G04 #@! TA.AperFunction,Conductor*
G36*
X148659121Y-90825002D02*
G01*
X148705614Y-90878658D01*
X148717000Y-90931000D01*
X148717000Y-101093000D01*
X148696998Y-101161121D01*
X148643342Y-101207614D01*
X148591000Y-101219000D01*
X147446000Y-101219000D01*
X147377879Y-101198998D01*
X147331386Y-101145342D01*
X147320000Y-101093000D01*
X147320000Y-97409000D01*
X145033000Y-97409000D01*
X144964879Y-97388998D01*
X144918386Y-97335342D01*
X144907000Y-97283000D01*
X144907000Y-90931000D01*
X144927002Y-90862879D01*
X144980658Y-90816386D01*
X145033000Y-90805000D01*
X148591000Y-90805000D01*
X148659121Y-90825002D01*
G37*
G04 #@! TD.AperFunction*
G04 #@! TA.AperFunction,Conductor*
G36*
X76650121Y-76220002D02*
G01*
X76696614Y-76273658D01*
X76708000Y-76326000D01*
X76708000Y-80011000D01*
X76687998Y-80079121D01*
X76634342Y-80125614D01*
X76582000Y-80137000D01*
X74929000Y-80137000D01*
X74860879Y-80116998D01*
X74814386Y-80063342D01*
X74803000Y-80011000D01*
X74803000Y-76326000D01*
X74823002Y-76257879D01*
X74876658Y-76211386D01*
X74929000Y-76200000D01*
X76582000Y-76200000D01*
X76650121Y-76220002D01*
G37*
G04 #@! TD.AperFunction*
G04 #@! TA.AperFunction,Conductor*
G36*
X140350931Y-85237002D02*
G01*
X140371905Y-85253905D01*
X143092095Y-87974095D01*
X143126121Y-88036407D01*
X143129000Y-88063190D01*
X143129000Y-104917409D01*
X143108998Y-104985530D01*
X143092095Y-105006504D01*
X142979310Y-105119288D01*
X142979292Y-105119307D01*
X142763971Y-105381677D01*
X142763966Y-105381683D01*
X142575404Y-105663887D01*
X142415403Y-105963229D01*
X142285515Y-106276806D01*
X142285514Y-106276810D01*
X142186985Y-106601616D01*
X142120770Y-106934502D01*
X142120767Y-106934523D01*
X142087500Y-107272284D01*
X142087500Y-107611715D01*
X142120767Y-107949476D01*
X142120770Y-107949497D01*
X142186985Y-108282383D01*
X142285514Y-108607189D01*
X142285515Y-108607193D01*
X142415403Y-108920770D01*
X142575404Y-109220112D01*
X142763966Y-109502316D01*
X142763971Y-109502322D01*
X142979292Y-109764692D01*
X142979298Y-109764698D01*
X143092096Y-109877496D01*
X143126120Y-109939806D01*
X143129000Y-109966590D01*
X143129000Y-111379500D01*
X143108998Y-111447621D01*
X143055342Y-111494114D01*
X143003000Y-111505500D01*
X140589000Y-111505500D01*
X140589000Y-107315000D01*
X139954000Y-107315000D01*
X139954000Y-88519000D01*
X139953999Y-88518998D01*
X137922001Y-86487000D01*
X137922000Y-86487000D01*
X133730000Y-86487000D01*
X133661879Y-86466998D01*
X133615386Y-86413342D01*
X133604000Y-86361000D01*
X133604000Y-85343000D01*
X133624002Y-85274879D01*
X133677658Y-85228386D01*
X133730000Y-85217000D01*
X140282810Y-85217000D01*
X140350931Y-85237002D01*
G37*
G04 #@! TD.AperFunction*
G04 #@! TA.AperFunction,Conductor*
G36*
X70073876Y-62123502D02*
G01*
X70120369Y-62177158D01*
X70130473Y-62247432D01*
X70125360Y-62269132D01*
X70086113Y-62387572D01*
X70086112Y-62387579D01*
X70075500Y-62491446D01*
X70075500Y-63492544D01*
X70086112Y-63596425D01*
X70141885Y-63764738D01*
X70234970Y-63915652D01*
X70234975Y-63915658D01*
X70360341Y-64041024D01*
X70360347Y-64041029D01*
X70360348Y-64041030D01*
X70511262Y-64134115D01*
X70679574Y-64189887D01*
X70783455Y-64200500D01*
X71409544Y-64200499D01*
X71513426Y-64189887D01*
X71681738Y-64134115D01*
X71689854Y-64129108D01*
X71758332Y-64110372D01*
X71826071Y-64131631D01*
X71871563Y-64186138D01*
X71882000Y-64236350D01*
X71882000Y-68835000D01*
X71861998Y-68903121D01*
X71808342Y-68949614D01*
X71756000Y-68961000D01*
X68071000Y-68961000D01*
X68002879Y-68940998D01*
X67956386Y-68887342D01*
X67945000Y-68835000D01*
X67945000Y-62229500D01*
X67965002Y-62161379D01*
X68018658Y-62114886D01*
X68071000Y-62103500D01*
X70005755Y-62103500D01*
X70073876Y-62123502D01*
G37*
G04 #@! TD.AperFunction*
G04 #@! TA.AperFunction,Conductor*
G36*
X80968121Y-91968002D02*
G01*
X81014614Y-92021658D01*
X81026000Y-92074000D01*
X81026000Y-94147644D01*
X81005998Y-94215765D01*
X80989095Y-94236739D01*
X80393739Y-94832095D01*
X80331427Y-94866121D01*
X80304644Y-94869000D01*
X75818000Y-94869000D01*
X75749879Y-94848998D01*
X75703386Y-94795342D01*
X75692000Y-94743000D01*
X75692000Y-92074000D01*
X75712002Y-92005879D01*
X75765658Y-91959386D01*
X75818000Y-91948000D01*
X80900000Y-91948000D01*
X80968121Y-91968002D01*
G37*
G04 #@! TD.AperFunction*
G04 #@! TA.AperFunction,Conductor*
G36*
X124783121Y-75966002D02*
G01*
X124829614Y-76019658D01*
X124841000Y-76072000D01*
X124841000Y-87758000D01*
X124820998Y-87826121D01*
X124767342Y-87872614D01*
X124715000Y-87884000D01*
X121919000Y-87884000D01*
X121850879Y-87863998D01*
X121804386Y-87810342D01*
X121793000Y-87758000D01*
X121793000Y-76072000D01*
X121813002Y-76003879D01*
X121866658Y-75957386D01*
X121919000Y-75946000D01*
X124715000Y-75946000D01*
X124783121Y-75966002D01*
G37*
G04 #@! TD.AperFunction*
G04 #@! TA.AperFunction,Conductor*
G36*
X80587121Y-58821002D02*
G01*
X80633614Y-58874658D01*
X80645000Y-58927000D01*
X80645000Y-60707000D01*
X80624998Y-60775121D01*
X80571342Y-60821614D01*
X80519000Y-60833000D01*
X79042269Y-60833000D01*
X79024339Y-60831718D01*
X79011249Y-60829836D01*
X78995000Y-60827500D01*
X77088000Y-60827500D01*
X77087990Y-60827500D01*
X77043557Y-60832278D01*
X77030088Y-60833000D01*
X76708000Y-60833000D01*
X76708000Y-61165731D01*
X76706718Y-61183660D01*
X76702500Y-61213001D01*
X76702500Y-63749500D01*
X76682498Y-63817621D01*
X76628842Y-63864114D01*
X76576500Y-63875500D01*
X75056000Y-63875500D01*
X74987879Y-63855498D01*
X74941386Y-63801842D01*
X74930000Y-63749500D01*
X74930000Y-58927000D01*
X74950002Y-58858879D01*
X75003658Y-58812386D01*
X75056000Y-58801000D01*
X80519000Y-58801000D01*
X80587121Y-58821002D01*
G37*
G04 #@! TD.AperFunction*
M02*
