G04 #@! TF.GenerationSoftware,KiCad,Pcbnew,9.0.7-9.0.7~ubuntu24.04.1*
G04 #@! TF.CreationDate,2026-03-19T15:38:18-06:00*
G04 #@! TF.ProjectId,ckt-defect,636b742d-6465-4666-9563-742e6b696361,rev?*
G04 #@! TF.SameCoordinates,Original*
G04 #@! TF.FileFunction,Soldermask,Bot*
G04 #@! TF.FilePolarity,Negative*
%FSLAX46Y46*%
G04 Gerber Fmt 4.6, Leading zero omitted, Abs format (unit mm)*
G04 Created by KiCad (PCBNEW 9.0.7-9.0.7~ubuntu24.04.1) date 2026-03-19 15:38:18*
%MOMM*%
%LPD*%
G01*
G04 APERTURE LIST*
%ADD10C,2.652400*%
%ADD11C,1.052400*%
%ADD12C,6.552400*%
%ADD13O,5.204000X2.704000*%
%ADD14O,4.704000X2.454000*%
%ADD15O,2.454000X4.704000*%
%ADD16C,1.152400*%
G04 APERTURE END LIST*
G36*
G01*
X144170999Y-85741195D02*
X141670999Y-85741195D01*
G75*
G02*
X141594799Y-85664995I0J76200D01*
G01*
X141594799Y-83164995D01*
G75*
G02*
X141670999Y-83088795I76200J0D01*
G01*
X144170999Y-83088795D01*
G75*
G02*
X144247199Y-83164995I0J-76200D01*
G01*
X144247199Y-85664995D01*
G75*
G02*
X144170999Y-85741195I-76200J0D01*
G01*
G37*
D10*
X142920999Y-79414995D03*
D11*
X56896000Y-80477000D03*
X56896000Y-84877000D03*
D12*
X145542000Y-55118000D03*
D13*
X72136000Y-97767000D03*
D14*
X72136000Y-103767000D03*
D15*
X76836000Y-100767000D03*
G36*
G01*
X93591000Y-65727200D02*
X92591000Y-65727200D01*
G75*
G02*
X92514800Y-65651000I0J76200D01*
G01*
X92514800Y-64651000D01*
G75*
G02*
X92591000Y-64574800I76200J0D01*
G01*
X93591000Y-64574800D01*
G75*
G02*
X93667200Y-64651000I0J-76200D01*
G01*
X93667200Y-65651000D01*
G75*
G02*
X93591000Y-65727200I-76200J0D01*
G01*
G37*
D16*
X94361000Y-65151000D03*
X95631000Y-65151000D03*
D12*
X145542000Y-107442000D03*
G36*
G01*
X60172001Y-91931805D02*
X62672001Y-91931805D01*
G75*
G02*
X62748201Y-92008005I0J-76200D01*
G01*
X62748201Y-94508005D01*
G75*
G02*
X62672001Y-94584205I-76200J0D01*
G01*
X60172001Y-94584205D01*
G75*
G02*
X60095801Y-94508005I0J76200D01*
G01*
X60095801Y-92008005D01*
G75*
G02*
X60172001Y-91931805I76200J0D01*
G01*
G37*
D10*
X61422001Y-98258005D03*
D12*
X55118000Y-107442000D03*
X55118000Y-55118000D03*
G36*
G01*
X119194200Y-67064000D02*
X119194200Y-68064000D01*
G75*
G02*
X119118000Y-68140200I-76200J0D01*
G01*
X118118000Y-68140200D01*
G75*
G02*
X118041800Y-68064000I0J76200D01*
G01*
X118041800Y-67064000D01*
G75*
G02*
X118118000Y-66987800I76200J0D01*
G01*
X119118000Y-66987800D01*
G75*
G02*
X119194200Y-67064000I0J-76200D01*
G01*
G37*
D16*
X118618000Y-66294000D03*
X118618000Y-65024000D03*
M02*
