G04 #@! TF.GenerationSoftware,KiCad,Pcbnew,9.0.9-9.0.9~ubuntu24.04.1*
G04 #@! TF.CreationDate,2026-08-31T15:25:59-06:00*
G04 #@! TF.ProjectId,ckt-defect-array,636b742d-6465-4666-9563-742d61727261,rev?*
G04 #@! TF.SameCoordinates,Original*
G04 #@! TF.FileFunction,Soldermask,Bot*
G04 #@! TF.FilePolarity,Negative*
%FSLAX46Y46*%
G04 Gerber Fmt 4.6, Leading zero omitted, Abs format (unit mm)*
G04 Created by KiCad (PCBNEW 9.0.9-9.0.9~ubuntu24.04.1) date 2026-08-31 15:25:59*
%MOMM*%
%LPD*%
G01*
G04 APERTURE LIST*
%ADD10C,0.500000*%
%ADD11C,6.552400*%
%ADD12C,1.152400*%
%ADD13O,5.204000X2.704000*%
%ADD14O,4.704000X2.454000*%
%ADD15O,2.454000X4.704000*%
%ADD16C,1.052400*%
%ADD17C,2.652400*%
%ADD18C,2.000000*%
G04 APERTURE END LIST*
D10*
X198030000Y-51750000D03*
X148923333Y-144460000D03*
D11*
X103288000Y-87818000D03*
D10*
X149770000Y-147000000D03*
X98970000Y-51750000D03*
D11*
X193712000Y-151318000D03*
G36*
G01*
X167364200Y-163264000D02*
X167364200Y-164264000D01*
G75*
G02*
X167288000Y-164340200I-76200J0D01*
G01*
X166288000Y-164340200D01*
G75*
G02*
X166211800Y-164264000I0J76200D01*
G01*
X166211800Y-163264000D01*
G75*
G02*
X166288000Y-163187800I76200J0D01*
G01*
X167288000Y-163187800D01*
G75*
G02*
X167364200Y-163264000I0J-76200D01*
G01*
G37*
D12*
X166788000Y-162494000D03*
X166788000Y-161224000D03*
D10*
X148923333Y-80960000D03*
G36*
G01*
X141761000Y-161927200D02*
X140761000Y-161927200D01*
G75*
G02*
X140684800Y-161851000I0J76200D01*
G01*
X140684800Y-160851000D01*
G75*
G02*
X140761000Y-160774800I76200J0D01*
G01*
X141761000Y-160774800D01*
G75*
G02*
X141837200Y-160851000I0J-76200D01*
G01*
X141837200Y-161851000D01*
G75*
G02*
X141761000Y-161927200I-76200J0D01*
G01*
G37*
D12*
X142531000Y-161351000D03*
X143801000Y-161351000D03*
D13*
X120306000Y-193967000D03*
D14*
X120306000Y-199967000D03*
D15*
X125006000Y-196967000D03*
D11*
X193712000Y-87818000D03*
D10*
X148076667Y-80960000D03*
X148076667Y-144460000D03*
D16*
X105066000Y-49677000D03*
X105066000Y-54077000D03*
G36*
G01*
X192340999Y-54941195D02*
X189840999Y-54941195D01*
G75*
G02*
X189764799Y-54864995I0J76200D01*
G01*
X189764799Y-52364995D01*
G75*
G02*
X189840999Y-52288795I76200J0D01*
G01*
X192340999Y-52288795D01*
G75*
G02*
X192417199Y-52364995I0J-76200D01*
G01*
X192417199Y-54864995D01*
G75*
G02*
X192340999Y-54941195I-76200J0D01*
G01*
G37*
D17*
X191090999Y-48614995D03*
D10*
X148076667Y-147000000D03*
G36*
G01*
X108342001Y-124631805D02*
X110842001Y-124631805D01*
G75*
G02*
X110918201Y-124708005I0J-76200D01*
G01*
X110918201Y-127208005D01*
G75*
G02*
X110842001Y-127284205I-76200J0D01*
G01*
X108342001Y-127284205D01*
G75*
G02*
X108265801Y-127208005I0J76200D01*
G01*
X108265801Y-124708005D01*
G75*
G02*
X108342001Y-124631805I76200J0D01*
G01*
G37*
D17*
X109592001Y-130958005D03*
G36*
G01*
X167364200Y-36264000D02*
X167364200Y-37264000D01*
G75*
G02*
X167288000Y-37340200I-76200J0D01*
G01*
X166288000Y-37340200D01*
G75*
G02*
X166211800Y-37264000I0J76200D01*
G01*
X166211800Y-36264000D01*
G75*
G02*
X166288000Y-36187800I76200J0D01*
G01*
X167288000Y-36187800D01*
G75*
G02*
X167364200Y-36264000I0J-76200D01*
G01*
G37*
D12*
X166788000Y-35494000D03*
X166788000Y-34224000D03*
D11*
X103288000Y-203642000D03*
G36*
G01*
X141761000Y-34927200D02*
X140761000Y-34927200D01*
G75*
G02*
X140684800Y-34851000I0J76200D01*
G01*
X140684800Y-33851000D01*
G75*
G02*
X140761000Y-33774800I76200J0D01*
G01*
X141761000Y-33774800D01*
G75*
G02*
X141837200Y-33851000I0J-76200D01*
G01*
X141837200Y-34851000D01*
G75*
G02*
X141761000Y-34927200I-76200J0D01*
G01*
G37*
D12*
X142531000Y-34351000D03*
X143801000Y-34351000D03*
D10*
X98970000Y-112710000D03*
G36*
G01*
X192340999Y-118441195D02*
X189840999Y-118441195D01*
G75*
G02*
X189764799Y-118364995I0J76200D01*
G01*
X189764799Y-115864995D01*
G75*
G02*
X189840999Y-115788795I76200J0D01*
G01*
X192340999Y-115788795D01*
G75*
G02*
X192417199Y-115864995I0J-76200D01*
G01*
X192417199Y-118364995D01*
G75*
G02*
X192340999Y-118441195I-76200J0D01*
G01*
G37*
D17*
X191090999Y-112114995D03*
D10*
X198030000Y-112710000D03*
X98970000Y-50903333D03*
X98970000Y-177903333D03*
X198030000Y-176210000D03*
G36*
G01*
X141761000Y-98427200D02*
X140761000Y-98427200D01*
G75*
G02*
X140684800Y-98351000I0J76200D01*
G01*
X140684800Y-97351000D01*
G75*
G02*
X140761000Y-97274800I76200J0D01*
G01*
X141761000Y-97274800D01*
G75*
G02*
X141837200Y-97351000I0J-76200D01*
G01*
X141837200Y-98351000D01*
G75*
G02*
X141761000Y-98427200I-76200J0D01*
G01*
G37*
D12*
X142531000Y-97851000D03*
X143801000Y-97851000D03*
D11*
X193712000Y-76642000D03*
D16*
X105066000Y-113177000D03*
X105066000Y-117577000D03*
D10*
X198030000Y-115250000D03*
X98970000Y-115250000D03*
X147230000Y-147000000D03*
G36*
G01*
X167364200Y-99764000D02*
X167364200Y-100764000D01*
G75*
G02*
X167288000Y-100840200I-76200J0D01*
G01*
X166288000Y-100840200D01*
G75*
G02*
X166211800Y-100764000I0J76200D01*
G01*
X166211800Y-99764000D01*
G75*
G02*
X166288000Y-99687800I76200J0D01*
G01*
X167288000Y-99687800D01*
G75*
G02*
X167364200Y-99764000I0J-76200D01*
G01*
G37*
D12*
X166788000Y-98994000D03*
X166788000Y-97724000D03*
D10*
X98970000Y-177056666D03*
D11*
X103288000Y-24318000D03*
X103288000Y-140142000D03*
X193712000Y-24318000D03*
D10*
X98970000Y-114403333D03*
X148923333Y-147000000D03*
X198030000Y-177056666D03*
X147230000Y-144460000D03*
G36*
G01*
X192340999Y-181941195D02*
X189840999Y-181941195D01*
G75*
G02*
X189764799Y-181864995I0J76200D01*
G01*
X189764799Y-179364995D01*
G75*
G02*
X189840999Y-179288795I76200J0D01*
G01*
X192340999Y-179288795D01*
G75*
G02*
X192417199Y-179364995I0J-76200D01*
G01*
X192417199Y-181864995D01*
G75*
G02*
X192340999Y-181941195I-76200J0D01*
G01*
G37*
D17*
X191090999Y-175614995D03*
D10*
X198030000Y-178750000D03*
X198030000Y-177903333D03*
X149770000Y-80960000D03*
X98970000Y-50056667D03*
X98970000Y-178750000D03*
X148076667Y-83500000D03*
X148923333Y-83500000D03*
G36*
G01*
X108342001Y-188131805D02*
X110842001Y-188131805D01*
G75*
G02*
X110918201Y-188208005I0J-76200D01*
G01*
X110918201Y-190708005D01*
G75*
G02*
X110842001Y-190784205I-76200J0D01*
G01*
X108342001Y-190784205D01*
G75*
G02*
X108265801Y-190708005I0J76200D01*
G01*
X108265801Y-188208005D01*
G75*
G02*
X108342001Y-188131805I76200J0D01*
G01*
G37*
D17*
X109592001Y-194458005D03*
D10*
X98970000Y-49210000D03*
X198030000Y-114403333D03*
D16*
X105066000Y-176677000D03*
X105066000Y-181077000D03*
D10*
X98970000Y-113556666D03*
X198030000Y-50903333D03*
D11*
X193712000Y-203642000D03*
D10*
X198030000Y-113556666D03*
X147230000Y-83500000D03*
X198030000Y-49210000D03*
X149770000Y-144460000D03*
D11*
X103288000Y-76642000D03*
G36*
G01*
X108342001Y-61131805D02*
X110842001Y-61131805D01*
G75*
G02*
X110918201Y-61208005I0J-76200D01*
G01*
X110918201Y-63708005D01*
G75*
G02*
X110842001Y-63784205I-76200J0D01*
G01*
X108342001Y-63784205D01*
G75*
G02*
X108265801Y-63708005I0J76200D01*
G01*
X108265801Y-61208005D01*
G75*
G02*
X108342001Y-61131805I76200J0D01*
G01*
G37*
D17*
X109592001Y-67458005D03*
D11*
X103288000Y-151318000D03*
X193712000Y-140142000D03*
D10*
X98970000Y-176210000D03*
D13*
X120306000Y-66967000D03*
D14*
X120306000Y-72967000D03*
D15*
X125006000Y-69967000D03*
D10*
X149770000Y-83500000D03*
X198030000Y-50056667D03*
D13*
X120306000Y-130467000D03*
D14*
X120306000Y-136467000D03*
D15*
X125006000Y-133467000D03*
D10*
X147230000Y-80960000D03*
D18*
X203111000Y-27620000D03*
X93889000Y-200340000D03*
X93889000Y-27620000D03*
M02*
