M48
INCH,TZ
T1C0.0197
T2C0.0354
%
G90
G05
T1
X38965Y-19374
X38965Y-19707
X38965Y-20041
X38965Y-20374
X38965Y-44374
X38965Y-44707
X38965Y-45041
X38965Y-45374
X38965Y-69374
X38965Y-69707
X38965Y-70041
X38965Y-70374
X57965Y-31874
X57965Y-32874
X57965Y-56874
X57965Y-57874
X58298Y-31874
X58298Y-32874
X58298Y-56874
X58298Y-57874
X58631Y-31874
X58631Y-32874
X58631Y-56874
X58631Y-57874
X58965Y-31874
X58965Y-32874
X58965Y-56874
X58965Y-57874
X77965Y-19374
X77965Y-19707
X77965Y-20041
X77965Y-20374
X77965Y-44374
X77965Y-44707
X77965Y-45041
X77965Y-45374
X77965Y-69374
X77965Y-69707
X77965Y-70041
X77965Y-70374
T2
X41365Y-19558
X41365Y-21290
X41365Y-44558
X41365Y-46290
X41365Y-69558
X41365Y-71290
M30
