M48
INCH,TZ
T1C0.0120
T2C0.0256
T3C0.0394
T4C0.0512
T5C0.1260
%
G90
G05
T1
X42015Y-14624
X42015Y-14974
X42015Y-39624
X42015Y-39974
X42015Y-64624
X42015Y-64974
X42135Y-17174
X42135Y-17524
X42135Y-17874
X42135Y-42174
X42135Y-42524
X42135Y-42874
X42135Y-67174
X42135Y-67524
X42135Y-67874
X42165Y-8124
X42165Y-33124
X42165Y-58124
X42415Y-14624
X42415Y-14974
X42415Y-39624
X42415Y-39974
X42415Y-64624
X42415Y-64974
X42485Y-17174
X42485Y-17524
X42485Y-17874
X42485Y-42174
X42485Y-42524
X42485Y-42874
X42485Y-67174
X42485Y-67524
X42485Y-67874
X42835Y-17174
X42835Y-17524
X42835Y-17874
X42835Y-42174
X42835Y-42524
X42835Y-42874
X42835Y-67174
X42835Y-67524
X42835Y-67874
X43215Y-20774
X43215Y-21124
X43215Y-21474
X43215Y-21824
X43215Y-45774
X43215Y-46124
X43215Y-46474
X43215Y-46824
X43215Y-70774
X43215Y-71124
X43215Y-71474
X43215Y-71824
X43565Y-20774
X43565Y-21124
X43565Y-21474
X43565Y-21824
X43565Y-45774
X43565Y-46124
X43565Y-46474
X43565Y-46824
X43565Y-70774
X43565Y-71124
X43565Y-71474
X43565Y-71824
X44315Y-13324
X44315Y-13674
X44315Y-14024
X44315Y-38324
X44315Y-38674
X44315Y-39024
X44315Y-63324
X44315Y-63674
X44315Y-64024
X44465Y-16124
X44465Y-16424
X44465Y-41124
X44465Y-41424
X44465Y-66124
X44465Y-66424
X44515Y-8474
X44515Y-8824
X44515Y-33474
X44515Y-33824
X44515Y-58474
X44515Y-58824
X44665Y-13324
X44665Y-13674
X44665Y-14024
X44665Y-38324
X44665Y-38674
X44665Y-39024
X44665Y-63324
X44665Y-63674
X44665Y-64024
X44815Y-22474
X44815Y-22824
X44815Y-23174
X44815Y-47474
X44815Y-47824
X44815Y-48174
X44815Y-72474
X44815Y-72824
X44815Y-73174
X44915Y-30374
X44915Y-55374
X44915Y-80374
X45015Y-28574
X45015Y-53574
X45015Y-78574
X45165Y-22474
X45165Y-22824
X45165Y-23174
X45165Y-47474
X45165Y-47824
X45165Y-48174
X45165Y-72474
X45165Y-72824
X45165Y-73174
X45515Y-22474
X45515Y-22824
X45515Y-23174
X45515Y-47474
X45515Y-47824
X45515Y-48174
X45515Y-72474
X45515Y-72824
X45515Y-73174
X45615Y-10474
X45615Y-35474
X45615Y-60474
X45665Y-8524
X45665Y-33524
X45665Y-58524
X46015Y-10474
X46015Y-35474
X46015Y-60474
X46115Y-14524
X46115Y-14824
X46115Y-39524
X46115Y-39824
X46115Y-64524
X46115Y-64824
X46215Y-8524
X46215Y-33524
X46215Y-58524
X46465Y-14524
X46465Y-14824
X46465Y-39524
X46465Y-39824
X46465Y-64524
X46465Y-64824
X46565Y-15824
X46565Y-40824
X46565Y-65824
X46765Y-8524
X46765Y-20724
X46765Y-21074
X46765Y-21424
X46765Y-21774
X46765Y-22124
X46765Y-33524
X46765Y-45724
X46765Y-46074
X46765Y-46424
X46765Y-46774
X46765Y-47124
X46765Y-58524
X46765Y-70724
X46765Y-71074
X46765Y-71424
X46765Y-71774
X46765Y-72124
X46815Y-14524
X46815Y-14824
X46815Y-39524
X46815Y-39824
X46815Y-64524
X46815Y-64824
X46865Y-15824
X46865Y-40824
X46865Y-65824
X47115Y-20724
X47115Y-21074
X47115Y-21424
X47115Y-21774
X47115Y-22124
X47115Y-45724
X47115Y-46074
X47115Y-46424
X47115Y-46774
X47115Y-47124
X47115Y-70724
X47115Y-71074
X47115Y-71424
X47115Y-71774
X47115Y-72124
X47465Y-15474
X47465Y-40474
X47465Y-65474
X47915Y-8474
X47915Y-8824
X47915Y-33474
X47915Y-33824
X47915Y-58474
X47915Y-58824
X48565Y-8124
X48565Y-33124
X48565Y-58124
X48615Y-15474
X48615Y-18774
X48615Y-40474
X48615Y-43774
X48615Y-65474
X48615Y-68774
X48715Y-12124
X48715Y-12474
X48715Y-12824
X48715Y-13324
X48715Y-13674
X48715Y-14024
X48715Y-37124
X48715Y-37474
X48715Y-37824
X48715Y-38324
X48715Y-38674
X48715Y-39024
X48715Y-62124
X48715Y-62474
X48715Y-62824
X48715Y-63324
X48715Y-63674
X48715Y-64024
X48965Y-18774
X48965Y-43774
X48965Y-68774
X49365Y-30274
X49365Y-55274
X49365Y-80274
X49565Y-30524
X49565Y-55524
X49565Y-80524
X49715Y-24274
X49715Y-24624
X49715Y-24974
X49715Y-49274
X49715Y-49624
X49715Y-49974
X49715Y-74274
X49715Y-74624
X49715Y-74974
X49765Y-30274
X49765Y-55274
X49765Y-80274
X49889Y-9848
X49889Y-34848
X49889Y-59848
X49915Y-9074
X49915Y-34074
X49915Y-59074
X49965Y-30524
X49965Y-55524
X49965Y-80524
X50065Y-24974
X50065Y-49974
X50065Y-74974
X50165Y-30274
X50165Y-55274
X50165Y-80274
X50415Y-24974
X50415Y-49974
X50415Y-74974
X51065Y-29674
X51065Y-54674
X51065Y-79674
X51365Y-29674
X51365Y-54674
X51365Y-79674
X51415Y-11724
X51415Y-36724
X51415Y-61724
X51765Y-11724
X51765Y-36724
X51765Y-61724
X51965Y-10774
X51965Y-11124
X51965Y-11474
X51965Y-35774
X51965Y-36124
X51965Y-36474
X51965Y-60774
X51965Y-61124
X51965Y-61474
X52115Y-18174
X52115Y-18524
X52115Y-43174
X52115Y-43524
X52115Y-68174
X52115Y-68524
X52365Y-10774
X52365Y-35774
X52365Y-60774
X52465Y-18174
X52465Y-18524
X52465Y-43174
X52465Y-43524
X52465Y-68174
X52465Y-68524
X52715Y-10924
X52715Y-35924
X52715Y-60924
X52815Y-18174
X52815Y-18524
X52815Y-18874
X52815Y-43174
X52815Y-43524
X52815Y-43874
X52815Y-68174
X52815Y-68524
X52815Y-68874
X53065Y-10774
X53065Y-35774
X53065Y-60774
X53165Y-18174
X53165Y-18524
X53165Y-18874
X53165Y-43174
X53165Y-43524
X53165Y-43874
X53165Y-68174
X53165Y-68524
X53165Y-68874
X53415Y-10924
X53415Y-35924
X53415Y-60924
X53515Y-14624
X53515Y-18174
X53515Y-18524
X53515Y-18874
X53515Y-39624
X53515Y-43174
X53515Y-43524
X53515Y-43874
X53515Y-64624
X53515Y-68174
X53515Y-68524
X53515Y-68874
X53665Y-23774
X53665Y-48774
X53665Y-73774
X53765Y-10774
X53765Y-35774
X53765Y-60774
X54115Y-10924
X54115Y-35924
X54115Y-60924
X54465Y-10774
X54465Y-35774
X54465Y-60774
X55065Y-29674
X55065Y-54674
X55065Y-79674
X55365Y-29674
X55365Y-54674
X55365Y-79674
X56815Y-11524
X56815Y-11824
X56815Y-12224
X56815Y-36524
X56815Y-36824
X56815Y-37224
X56815Y-61524
X56815Y-61824
X56815Y-62224
X57015Y-22174
X57015Y-22774
X57015Y-23774
X57015Y-47174
X57015Y-47774
X57015Y-48774
X57015Y-72174
X57015Y-72774
X57015Y-73774
X59065Y-29674
X59065Y-54674
X59065Y-79674
X59315Y-13474
X59315Y-14024
X59315Y-14574
X59315Y-38474
X59315Y-39024
X59315Y-39574
X59315Y-63474
X59315Y-64024
X59315Y-64574
X59365Y-29674
X59365Y-54674
X59365Y-79674
X59415Y-23674
X59415Y-48674
X59415Y-73674
X59715Y-23674
X59715Y-48674
X59715Y-73674
X59815Y-13024
X59815Y-15074
X59815Y-38024
X59815Y-40074
X59815Y-63024
X59815Y-65074
X60365Y-13024
X60365Y-15074
X60365Y-38024
X60365Y-40074
X60365Y-63024
X60365Y-65074
X60915Y-13024
X60915Y-15074
X60915Y-38024
X60915Y-40074
X60915Y-63024
X60915Y-65074
X60965Y-25224
X60965Y-50224
X60965Y-75224
X61415Y-13474
X61415Y-14024
X61415Y-14574
X61415Y-38474
X61415Y-39024
X61415Y-39574
X61415Y-63474
X61415Y-64024
X61415Y-64574
X62415Y-29574
X62415Y-29824
X62415Y-54574
X62415Y-54824
X62415Y-79574
X62415Y-79824
X62965Y-21324
X62965Y-21674
X62965Y-22024
X62965Y-22374
X62965Y-46324
X62965Y-46674
X62965Y-47024
X62965Y-47374
X62965Y-71324
X62965Y-71674
X62965Y-72024
X62965Y-72374
X63015Y-20274
X63015Y-45274
X63015Y-70274
X63065Y-29674
X63065Y-54674
X63065Y-79674
X63315Y-20274
X63315Y-45274
X63315Y-70274
X63365Y-29674
X63365Y-54674
X63365Y-79674
X63665Y-21674
X63665Y-46674
X63665Y-71674
X64265Y-22374
X64265Y-47374
X64265Y-72374
X64465Y-21324
X64465Y-21674
X64465Y-46324
X64465Y-46674
X64465Y-71324
X64465Y-71674
X65065Y-10974
X65065Y-35974
X65065Y-60974
X65115Y-23774
X65115Y-48774
X65115Y-73774
X65365Y-10974
X65365Y-35974
X65365Y-60974
X67065Y-29674
X67065Y-54674
X67065Y-79674
X67365Y-29674
X67365Y-54674
X67365Y-79674
X67615Y-11474
X67615Y-36474
X67615Y-61474
X67696Y-19092
X67696Y-20824
X67696Y-44092
X67696Y-45824
X67696Y-69092
X67696Y-70824
X67965Y-11474
X67965Y-36474
X67965Y-61474
X68965Y-23774
X68965Y-48774
X68965Y-73774
X69465Y-17074
X69465Y-42074
X69465Y-67074
X69715Y-19524
X69715Y-19824
X69715Y-44524
X69715Y-44824
X69715Y-69524
X69715Y-69824
X69815Y-17074
X69815Y-42074
X69815Y-67074
X70165Y-17074
X70165Y-42074
X70165Y-67074
X70398Y-15340
X70398Y-40340
X70398Y-65340
X70515Y-11424
X70515Y-11774
X70515Y-12124
X70515Y-12474
X70515Y-12824
X70515Y-13174
X70515Y-17074
X70515Y-36424
X70515Y-36774
X70515Y-37124
X70515Y-37474
X70515Y-37824
X70515Y-38174
X70515Y-42074
X70515Y-61424
X70515Y-61774
X70515Y-62124
X70515Y-62474
X70515Y-62824
X70515Y-63174
X70515Y-67074
X70698Y-15340
X70698Y-40340
X70698Y-65340
X71065Y-29674
X71065Y-54674
X71065Y-79674
X71365Y-29674
X71365Y-54674
X71365Y-79674
X71765Y-11124
X71765Y-11424
X71765Y-36124
X71765Y-36424
X71765Y-61124
X71765Y-61424
X72065Y-10824
X72065Y-35824
X72065Y-60824
X72415Y-11174
X72415Y-36174
X72415Y-61174
X72965Y-25224
X72965Y-50224
X72965Y-75224
X73215Y-21574
X73215Y-46574
X73215Y-71574
X74165Y-30524
X74165Y-30824
X74165Y-31124
X74165Y-55524
X74165Y-55824
X74165Y-56124
X74165Y-80524
X74165Y-80824
X74165Y-81124
X75665Y-28224
X75665Y-53224
X75665Y-78224
X75765Y-17624
X75765Y-42624
X75765Y-67624
X76165Y-28074
X76165Y-53074
X76165Y-78074
X76465Y-17524
X76465Y-17824
X76465Y-42524
X76465Y-42824
X76465Y-67524
X76465Y-67824
X76965Y-23874
X76965Y-24224
X76965Y-24574
X76965Y-48874
X76965Y-49224
X76965Y-49574
X76965Y-73874
X76965Y-74224
X76965Y-74574
X77315Y-23874
X77315Y-24224
X77315Y-24574
X77315Y-48874
X77315Y-49224
X77315Y-49574
X77315Y-73874
X77315Y-74224
X77315Y-74574
T2
X55615Y-13524
X55615Y-38524
X55615Y-63524
X56115Y-13524
X56115Y-38524
X56115Y-63524
X56615Y-13524
X56615Y-38524
X56615Y-63524
X65665Y-13474
X65665Y-13974
X65665Y-14474
X65665Y-38474
X65665Y-38974
X65665Y-39474
X65665Y-63474
X65665Y-63974
X65665Y-64474
T4
X43146Y-24590
X43146Y-26558
X43146Y-49590
X43146Y-51558
X43146Y-74590
X43146Y-76558
X75233Y-19140
X75233Y-21108
X75233Y-44140
X75233Y-46108
X75233Y-69140
X75233Y-71108
T5
X40665Y-9574
X40665Y-30174
X40665Y-34574
X40665Y-55174
X40665Y-59574
X40665Y-80174
X76265Y-9574
X76265Y-30174
X76265Y-34574
X76265Y-55174
X76265Y-59574
X76265Y-80174
T3
G00X47857Y-26365
M15
G01X46872Y-26365
M16
G05
G00X47758Y-28727
M15
G01X46971Y-28727
M16
G05
G00X47857Y-51365
M15
G01X46872Y-51365
M16
G05
G00X47758Y-53727
M15
G01X46971Y-53727
M16
G05
G00X47857Y-76365
M15
G01X46872Y-76365
M16
G05
G00X47758Y-78727
M15
G01X46971Y-78727
M16
G05
G00X49215Y-27152
M15
G01X49215Y-27940
M16
G05
G00X49215Y-52152
M15
G01X49215Y-52940
M16
G05
G00X49215Y-77152
M15
G01X49215Y-77940
M16
G05
M30
