G04 #@! TF.GenerationSoftware,KiCad,Pcbnew,9.0.9-9.0.9~ubuntu24.04.1*
G04 #@! TF.CreationDate,2026-09-01T14:10:39-06:00*
G04 #@! TF.ProjectId,ckt-defect-array,636b742d-6465-4666-9563-742d61727261,rev?*
G04 #@! TF.SameCoordinates,Original*
G04 #@! TF.FileFunction,Profile,NP*
%FSLAX46Y46*%
G04 Gerber Fmt 4.6, Leading zero omitted, Abs format (unit mm)*
G04 Created by KiCad (PCBNEW 9.0.9-9.0.9~ubuntu24.04.1) date 2026-09-01 14:10:39*
%MOMM*%
%LPD*%
G01*
G04 APERTURE LIST*
G04 #@! TA.AperFunction,Profile*
%ADD10C,0.100000*%
G04 #@! TD*
G04 APERTURE END LIST*
D10*
X91350504Y-207959185D02*
X96429564Y-207959055D01*
X91350659Y-20000625D02*
X91350504Y-207959185D01*
X91365586Y-20000000D02*
X91350659Y-20000625D01*
X96429520Y-20000856D02*
X91365586Y-20000000D01*
X96429564Y-207959055D02*
X96430000Y-195184212D01*
X96430000Y-29575387D02*
X96429520Y-20000856D01*
X96430000Y-35113412D02*
X96431528Y-35051133D01*
X96430000Y-62646187D02*
X96430000Y-35113412D01*
X96430000Y-68184212D02*
X96431528Y-68121933D01*
X96430000Y-93075387D02*
X96430000Y-68184212D01*
X96430000Y-98613412D02*
X96431528Y-98551133D01*
X96430000Y-126146187D02*
X96430000Y-98613412D01*
X96430000Y-131684212D02*
X96431528Y-131621933D01*
X96430000Y-156575387D02*
X96430000Y-131684212D01*
X96430000Y-162113412D02*
X96431528Y-162051133D01*
X96430000Y-189646187D02*
X96430000Y-162113412D01*
X96430000Y-195184212D02*
X96431528Y-195121933D01*
X96431528Y-29637666D02*
X96430000Y-29575387D01*
X96431528Y-35051133D02*
X96436110Y-34989016D01*
X96431528Y-62708466D02*
X96430000Y-62646187D01*
X96431528Y-68121933D02*
X96436110Y-68059816D01*
X96431528Y-93137666D02*
X96430000Y-93075387D01*
X96431528Y-98551133D02*
X96436110Y-98489016D01*
X96431528Y-126208466D02*
X96430000Y-126146187D01*
X96431528Y-131621933D02*
X96436110Y-131559816D01*
X96431528Y-156637666D02*
X96430000Y-156575387D01*
X96431528Y-162051133D02*
X96436110Y-161989016D01*
X96431528Y-189708466D02*
X96430000Y-189646187D01*
X96431528Y-195121933D02*
X96436110Y-195059816D01*
X96436110Y-29699783D02*
X96431528Y-29637666D01*
X96436110Y-34989016D02*
X96443735Y-34927199D01*
X96436110Y-62770583D02*
X96431528Y-62708466D01*
X96436110Y-68059816D02*
X96443735Y-67997999D01*
X96436110Y-93199783D02*
X96431528Y-93137666D01*
X96436110Y-98489016D02*
X96443735Y-98427199D01*
X96436110Y-126270583D02*
X96431528Y-126208466D01*
X96436110Y-131559816D02*
X96443735Y-131497999D01*
X96436110Y-156699783D02*
X96431528Y-156637666D01*
X96436110Y-161989016D02*
X96443735Y-161927199D01*
X96436110Y-189770583D02*
X96431528Y-189708466D01*
X96436110Y-195059816D02*
X96443735Y-194997999D01*
X96443735Y-29761600D02*
X96436110Y-29699783D01*
X96443735Y-34927199D02*
X96454383Y-34865830D01*
X96443735Y-62832400D02*
X96436110Y-62770583D01*
X96443735Y-67997999D02*
X96454383Y-67936630D01*
X96443735Y-93261600D02*
X96436110Y-93199783D01*
X96443735Y-98427199D02*
X96454383Y-98365830D01*
X96443735Y-126332400D02*
X96436110Y-126270583D01*
X96443735Y-131497999D02*
X96454383Y-131436630D01*
X96443735Y-156761600D02*
X96436110Y-156699783D01*
X96443735Y-161927199D02*
X96454383Y-161865830D01*
X96443735Y-189832400D02*
X96436110Y-189770583D01*
X96443735Y-194997999D02*
X96454383Y-194936630D01*
X96454383Y-29822969D02*
X96443735Y-29761600D01*
X96454383Y-34865830D02*
X96468030Y-34805058D01*
X96454383Y-62893769D02*
X96443735Y-62832400D01*
X96454383Y-67936630D02*
X96468030Y-67875858D01*
X96454383Y-93322969D02*
X96443735Y-93261600D01*
X96454383Y-98365830D02*
X96468030Y-98305058D01*
X96454383Y-126393769D02*
X96443735Y-126332400D01*
X96454383Y-131436630D02*
X96468030Y-131375858D01*
X96454383Y-156822969D02*
X96443735Y-156761600D01*
X96454383Y-161865830D02*
X96468030Y-161805058D01*
X96454383Y-189893769D02*
X96443735Y-189832400D01*
X96454383Y-194936630D02*
X96468030Y-194875858D01*
X96468030Y-29883741D02*
X96454383Y-29822969D01*
X96468030Y-34805058D02*
X96484643Y-34745028D01*
X96468030Y-62954541D02*
X96454383Y-62893769D01*
X96468030Y-67875858D02*
X96484643Y-67815828D01*
X96468030Y-93383741D02*
X96454383Y-93322969D01*
X96468030Y-98305058D02*
X96484643Y-98245028D01*
X96468030Y-126454541D02*
X96454383Y-126393769D01*
X96468030Y-131375858D02*
X96484643Y-131315828D01*
X96468030Y-156883741D02*
X96454383Y-156822969D01*
X96468030Y-161805058D02*
X96484643Y-161745028D01*
X96468030Y-189954541D02*
X96454383Y-189893769D01*
X96468030Y-194875858D02*
X96484643Y-194815828D01*
X96484643Y-29943771D02*
X96468030Y-29883741D01*
X96484643Y-34745028D02*
X96504180Y-34685886D01*
X96484643Y-63014571D02*
X96468030Y-62954541D01*
X96484643Y-67815828D02*
X96504180Y-67756686D01*
X96484643Y-93443771D02*
X96468030Y-93383741D01*
X96484643Y-98245028D02*
X96504180Y-98185886D01*
X96484643Y-126514571D02*
X96468030Y-126454541D01*
X96484643Y-131315828D02*
X96504180Y-131256686D01*
X96484643Y-156943771D02*
X96468030Y-156883741D01*
X96484643Y-161745028D02*
X96504180Y-161685886D01*
X96484643Y-190014571D02*
X96468030Y-189954541D01*
X96484643Y-194815828D02*
X96504180Y-194756686D01*
X96504180Y-30002913D02*
X96484643Y-29943771D01*
X96504180Y-34685886D02*
X96526597Y-34627774D01*
X96504180Y-63073713D02*
X96484643Y-63014571D01*
X96504180Y-67756686D02*
X96526597Y-67698574D01*
X96504180Y-93502913D02*
X96484643Y-93443771D01*
X96504180Y-98185886D02*
X96526597Y-98127774D01*
X96504180Y-126573713D02*
X96484643Y-126514571D01*
X96504180Y-131256686D02*
X96526597Y-131198574D01*
X96504180Y-157002913D02*
X96484643Y-156943771D01*
X96504180Y-161685886D02*
X96526597Y-161627774D01*
X96504180Y-190073713D02*
X96484643Y-190014571D01*
X96504180Y-194756686D02*
X96526597Y-194698574D01*
X96526597Y-30061025D02*
X96504180Y-30002913D01*
X96526597Y-34627774D02*
X96551837Y-34570832D01*
X96526597Y-63131825D02*
X96504180Y-63073713D01*
X96526597Y-67698574D02*
X96551837Y-67641632D01*
X96526597Y-93561025D02*
X96504180Y-93502913D01*
X96526597Y-98127774D02*
X96551837Y-98070832D01*
X96526597Y-126631825D02*
X96504180Y-126573713D01*
X96526597Y-131198574D02*
X96551837Y-131141632D01*
X96526597Y-157061025D02*
X96504180Y-157002913D01*
X96526597Y-161627774D02*
X96551837Y-161570832D01*
X96526597Y-190131825D02*
X96504180Y-190073713D01*
X96526597Y-194698574D02*
X96551837Y-194641632D01*
X96551837Y-30117967D02*
X96526597Y-30061025D01*
X96551837Y-34570832D02*
X96579842Y-34515197D01*
X96551837Y-63188767D02*
X96526597Y-63131825D01*
X96551837Y-67641632D02*
X96579842Y-67585997D01*
X96551837Y-93617967D02*
X96526597Y-93561025D01*
X96551837Y-98070832D02*
X96579842Y-98015197D01*
X96551837Y-126688767D02*
X96526597Y-126631825D01*
X96551837Y-131141632D02*
X96579842Y-131085997D01*
X96551837Y-157117967D02*
X96526597Y-157061025D01*
X96551837Y-161570832D02*
X96579842Y-161515197D01*
X96551837Y-190188767D02*
X96526597Y-190131825D01*
X96551837Y-194641632D02*
X96579842Y-194585997D01*
X96579842Y-30173602D02*
X96551837Y-30117967D01*
X96579842Y-34515197D02*
X96610542Y-34461003D01*
X96579842Y-63244402D02*
X96551837Y-63188767D01*
X96579842Y-67585997D02*
X96610542Y-67531803D01*
X96579842Y-93673602D02*
X96551837Y-93617967D01*
X96579842Y-98015197D02*
X96610542Y-97961003D01*
X96579842Y-126744402D02*
X96551837Y-126688767D01*
X96579842Y-131085997D02*
X96610542Y-131031803D01*
X96579842Y-157173602D02*
X96551837Y-157117967D01*
X96579842Y-161515197D02*
X96610542Y-161461003D01*
X96579842Y-190244402D02*
X96551837Y-190188767D01*
X96579842Y-194585997D02*
X96610542Y-194531803D01*
X96610542Y-30227796D02*
X96579842Y-30173602D01*
X96610542Y-34461003D02*
X96643865Y-34408381D01*
X96610542Y-63298596D02*
X96579842Y-63244402D01*
X96610542Y-67531803D02*
X96643865Y-67479181D01*
X96610542Y-93727796D02*
X96579842Y-93673602D01*
X96610542Y-97961003D02*
X96643865Y-97908381D01*
X96610542Y-126798596D02*
X96579842Y-126744402D01*
X96610542Y-131031803D02*
X96643865Y-130979181D01*
X96610542Y-157227796D02*
X96579842Y-157173602D01*
X96610542Y-161461003D02*
X96643865Y-161408381D01*
X96610542Y-190298596D02*
X96579842Y-190244402D01*
X96610542Y-194531803D02*
X96643865Y-194479181D01*
X96643865Y-30280418D02*
X96610542Y-30227796D01*
X96643865Y-34408381D02*
X96679729Y-34357457D01*
X96643865Y-63351218D02*
X96610542Y-63298596D01*
X96643865Y-67479181D02*
X96679729Y-67428257D01*
X96643865Y-93780418D02*
X96610542Y-93727796D01*
X96643865Y-97908381D02*
X96679729Y-97857457D01*
X96643865Y-126851218D02*
X96610542Y-126798596D01*
X96643865Y-130979181D02*
X96679729Y-130928257D01*
X96643865Y-157280418D02*
X96610542Y-157227796D01*
X96643865Y-161408381D02*
X96679729Y-161357457D01*
X96643865Y-190351218D02*
X96610542Y-190298596D01*
X96643865Y-194479181D02*
X96679729Y-194428257D01*
X96679729Y-30331342D02*
X96643865Y-30280418D01*
X96679729Y-34357457D02*
X96718049Y-34308355D01*
X96679729Y-63402142D02*
X96643865Y-63351218D01*
X96679729Y-67428257D02*
X96718049Y-67379155D01*
X96679729Y-93831342D02*
X96643865Y-93780418D01*
X96679729Y-97857457D02*
X96718049Y-97808355D01*
X96679729Y-126902142D02*
X96643865Y-126851218D01*
X96679729Y-130928257D02*
X96718049Y-130879155D01*
X96679729Y-157331342D02*
X96643865Y-157280418D01*
X96679729Y-161357457D02*
X96718049Y-161308355D01*
X96679729Y-190402142D02*
X96643865Y-190351218D01*
X96679729Y-194428257D02*
X96718049Y-194379155D01*
X96718049Y-30380444D02*
X96679729Y-30331342D01*
X96718049Y-34308355D02*
X96758733Y-34261191D01*
X96718049Y-63451244D02*
X96679729Y-63402142D01*
X96718049Y-67379155D02*
X96758733Y-67331991D01*
X96718049Y-93880444D02*
X96679729Y-93831342D01*
X96718049Y-97808355D02*
X96758733Y-97761191D01*
X96718049Y-126951244D02*
X96679729Y-126902142D01*
X96718049Y-130879155D02*
X96758733Y-130831991D01*
X96718049Y-157380444D02*
X96679729Y-157331342D01*
X96718049Y-161308355D02*
X96758733Y-161261191D01*
X96718049Y-190451244D02*
X96679729Y-190402142D01*
X96718049Y-194379155D02*
X96758733Y-194331991D01*
X96758733Y-30427608D02*
X96718049Y-30380444D01*
X96758733Y-34261191D02*
X96801681Y-34216081D01*
X96758733Y-63498408D02*
X96718049Y-63451244D01*
X96758733Y-67331991D02*
X96801681Y-67286881D01*
X96758733Y-93927608D02*
X96718049Y-93880444D01*
X96758733Y-97761191D02*
X96801681Y-97716081D01*
X96758733Y-126998408D02*
X96718049Y-126951244D01*
X96758733Y-130831991D02*
X96801681Y-130786881D01*
X96758733Y-157427608D02*
X96718049Y-157380444D01*
X96758733Y-161261191D02*
X96801681Y-161216081D01*
X96758733Y-190498408D02*
X96718049Y-190451244D01*
X96758733Y-194331991D02*
X96801681Y-194286881D01*
X96801681Y-30472718D02*
X96758733Y-30427608D01*
X96801681Y-34216081D02*
X96846791Y-34173133D01*
X96801681Y-63543518D02*
X96758733Y-63498408D01*
X96801681Y-67286881D02*
X96846791Y-67243933D01*
X96801681Y-93972718D02*
X96758733Y-93927608D01*
X96801681Y-97716081D02*
X96846791Y-97673133D01*
X96801681Y-127043518D02*
X96758733Y-126998408D01*
X96801681Y-130786881D02*
X96846791Y-130743933D01*
X96801681Y-157472718D02*
X96758733Y-157427608D01*
X96801681Y-161216081D02*
X96846791Y-161173133D01*
X96801681Y-190543518D02*
X96758733Y-190498408D01*
X96801681Y-194286881D02*
X96846791Y-194243933D01*
X96846791Y-30515666D02*
X96801681Y-30472718D01*
X96846791Y-34173133D02*
X96893955Y-34132449D01*
X96846791Y-63586466D02*
X96801681Y-63543518D01*
X96846791Y-67243933D02*
X96893955Y-67203249D01*
X96846791Y-94015666D02*
X96801681Y-93972718D01*
X96846791Y-97673133D02*
X96893955Y-97632449D01*
X96846791Y-127086466D02*
X96801681Y-127043518D01*
X96846791Y-130743933D02*
X96893955Y-130703249D01*
X96846791Y-157515666D02*
X96801681Y-157472718D01*
X96846791Y-161173133D02*
X96893955Y-161132449D01*
X96846791Y-190586466D02*
X96801681Y-190543518D01*
X96846791Y-194243933D02*
X96893955Y-194203249D01*
X96893955Y-30556350D02*
X96846791Y-30515666D01*
X96893955Y-34132449D02*
X96943057Y-34094129D01*
X96893955Y-63627150D02*
X96846791Y-63586466D01*
X96893955Y-67203249D02*
X96943057Y-67164929D01*
X96893955Y-94056350D02*
X96846791Y-94015666D01*
X96893955Y-97632449D02*
X96943057Y-97594129D01*
X96893955Y-127127150D02*
X96846791Y-127086466D01*
X96893955Y-130703249D02*
X96943057Y-130664929D01*
X96893955Y-157556350D02*
X96846791Y-157515666D01*
X96893955Y-161132449D02*
X96943057Y-161094129D01*
X96893955Y-190627150D02*
X96846791Y-190586466D01*
X96893955Y-194203249D02*
X96943057Y-194164929D01*
X96943057Y-30594670D02*
X96893955Y-30556350D01*
X96943057Y-34094129D02*
X96993981Y-34058265D01*
X96943057Y-63665470D02*
X96893955Y-63627150D01*
X96943057Y-67164929D02*
X96993981Y-67129065D01*
X96943057Y-94094670D02*
X96893955Y-94056350D01*
X96943057Y-97594129D02*
X96993981Y-97558265D01*
X96943057Y-127165470D02*
X96893955Y-127127150D01*
X96943057Y-130664929D02*
X96993981Y-130629065D01*
X96943057Y-157594670D02*
X96893955Y-157556350D01*
X96943057Y-161094129D02*
X96993981Y-161058265D01*
X96943057Y-190665470D02*
X96893955Y-190627150D01*
X96943057Y-194164929D02*
X96993981Y-194129065D01*
X96993981Y-30630534D02*
X96943057Y-30594670D01*
X96993981Y-34058265D02*
X97046603Y-34024942D01*
X96993981Y-63701334D02*
X96943057Y-63665470D01*
X96993981Y-67129065D02*
X97046603Y-67095742D01*
X96993981Y-94130534D02*
X96943057Y-94094670D01*
X96993981Y-97558265D02*
X97046603Y-97524942D01*
X96993981Y-127201334D02*
X96943057Y-127165470D01*
X96993981Y-130629065D02*
X97046603Y-130595742D01*
X96993981Y-157630534D02*
X96943057Y-157594670D01*
X96993981Y-161058265D02*
X97046603Y-161024942D01*
X96993981Y-190701334D02*
X96943057Y-190665470D01*
X96993981Y-194129065D02*
X97046603Y-194095742D01*
X97046603Y-30663857D02*
X96993981Y-30630534D01*
X97046603Y-34024942D02*
X97100797Y-33994242D01*
X97046603Y-63734657D02*
X96993981Y-63701334D01*
X97046603Y-67095742D02*
X97100797Y-67065042D01*
X97046603Y-94163857D02*
X96993981Y-94130534D01*
X97046603Y-97524942D02*
X97100797Y-97494242D01*
X97046603Y-127234657D02*
X96993981Y-127201334D01*
X97046603Y-130595742D02*
X97100797Y-130565042D01*
X97046603Y-157663857D02*
X96993981Y-157630534D01*
X97046603Y-161024942D02*
X97100797Y-160994242D01*
X97046603Y-190734657D02*
X96993981Y-190701334D01*
X97046603Y-194095742D02*
X97100797Y-194065042D01*
X97100797Y-30694557D02*
X97046603Y-30663857D01*
X97100797Y-33994242D02*
X97156432Y-33966237D01*
X97100797Y-63765357D02*
X97046603Y-63734657D01*
X97100797Y-67065042D02*
X97156432Y-67037037D01*
X97100797Y-94194557D02*
X97046603Y-94163857D01*
X97100797Y-97494242D02*
X97156432Y-97466237D01*
X97100797Y-127265357D02*
X97046603Y-127234657D01*
X97100797Y-130565042D02*
X97156432Y-130537037D01*
X97100797Y-157694557D02*
X97046603Y-157663857D01*
X97100797Y-160994242D02*
X97156432Y-160966237D01*
X97100797Y-190765357D02*
X97046603Y-190734657D01*
X97100797Y-194065042D02*
X97156432Y-194037037D01*
X97156432Y-30722562D02*
X97100797Y-30694557D01*
X97156432Y-33966237D02*
X97213374Y-33940997D01*
X97156432Y-63793362D02*
X97100797Y-63765357D01*
X97156432Y-67037037D02*
X97213374Y-67011797D01*
X97156432Y-94222562D02*
X97100797Y-94194557D01*
X97156432Y-97466237D02*
X97213374Y-97440997D01*
X97156432Y-127293362D02*
X97100797Y-127265357D01*
X97156432Y-130537037D02*
X97213374Y-130511797D01*
X97156432Y-157722562D02*
X97100797Y-157694557D01*
X97156432Y-160966237D02*
X97213374Y-160940997D01*
X97156432Y-190793362D02*
X97100797Y-190765357D01*
X97156432Y-194037037D02*
X97213374Y-194011797D01*
X97213374Y-30747802D02*
X97156432Y-30722562D01*
X97213374Y-33940997D02*
X97271486Y-33918580D01*
X97213374Y-63818602D02*
X97156432Y-63793362D01*
X97213374Y-67011797D02*
X97271486Y-66989380D01*
X97213374Y-94247802D02*
X97156432Y-94222562D01*
X97213374Y-97440997D02*
X97271486Y-97418580D01*
X97213374Y-127318602D02*
X97156432Y-127293362D01*
X97213374Y-130511797D02*
X97271486Y-130489380D01*
X97213374Y-157747802D02*
X97156432Y-157722562D01*
X97213374Y-160940997D02*
X97271486Y-160918580D01*
X97213374Y-190818602D02*
X97156432Y-190793362D01*
X97213374Y-194011797D02*
X97271486Y-193989380D01*
X97271486Y-30770219D02*
X97213374Y-30747802D01*
X97271486Y-33918580D02*
X97330628Y-33899043D01*
X97271486Y-63841019D02*
X97213374Y-63818602D01*
X97271486Y-66989380D02*
X97330628Y-66969843D01*
X97271486Y-94270219D02*
X97213374Y-94247802D01*
X97271486Y-97418580D02*
X97330628Y-97399043D01*
X97271486Y-127341019D02*
X97213374Y-127318602D01*
X97271486Y-130489380D02*
X97330628Y-130469843D01*
X97271486Y-157770219D02*
X97213374Y-157747802D01*
X97271486Y-160918580D02*
X97330628Y-160899043D01*
X97271486Y-190841019D02*
X97213374Y-190818602D01*
X97271486Y-193989380D02*
X97330628Y-193969843D01*
X97330628Y-30789756D02*
X97271486Y-30770219D01*
X97330628Y-33899043D02*
X97390658Y-33882430D01*
X97330628Y-63860556D02*
X97271486Y-63841019D01*
X97330628Y-66969843D02*
X97390658Y-66953230D01*
X97330628Y-94289756D02*
X97271486Y-94270219D01*
X97330628Y-97399043D02*
X97390658Y-97382430D01*
X97330628Y-127360556D02*
X97271486Y-127341019D01*
X97330628Y-130469843D02*
X97390658Y-130453230D01*
X97330628Y-157789756D02*
X97271486Y-157770219D01*
X97330628Y-160899043D02*
X97390658Y-160882430D01*
X97330628Y-190860556D02*
X97271486Y-190841019D01*
X97330628Y-193969843D02*
X97390658Y-193953230D01*
X97390658Y-30806369D02*
X97330628Y-30789756D01*
X97390658Y-33882430D02*
X97451430Y-33868783D01*
X97390658Y-63877169D02*
X97330628Y-63860556D01*
X97390658Y-66953230D02*
X97451430Y-66939583D01*
X97390658Y-94306369D02*
X97330628Y-94289756D01*
X97390658Y-97382430D02*
X97451430Y-97368783D01*
X97390658Y-127377169D02*
X97330628Y-127360556D01*
X97390658Y-130453230D02*
X97451430Y-130439583D01*
X97390658Y-157806369D02*
X97330628Y-157789756D01*
X97390658Y-160882430D02*
X97451430Y-160868783D01*
X97390658Y-190877169D02*
X97330628Y-190860556D01*
X97390658Y-193953230D02*
X97451430Y-193939583D01*
X97451430Y-30820016D02*
X97390658Y-30806369D01*
X97451430Y-33868783D02*
X97512799Y-33858135D01*
X97451430Y-63890816D02*
X97390658Y-63877169D01*
X97451430Y-66939583D02*
X97512799Y-66928935D01*
X97451430Y-94320016D02*
X97390658Y-94306369D01*
X97451430Y-97368783D02*
X97512799Y-97358135D01*
X97451430Y-127390816D02*
X97390658Y-127377169D01*
X97451430Y-130439583D02*
X97512799Y-130428935D01*
X97451430Y-157820016D02*
X97390658Y-157806369D01*
X97451430Y-160868783D02*
X97512799Y-160858135D01*
X97451430Y-190890816D02*
X97390658Y-190877169D01*
X97451430Y-193939583D02*
X97512799Y-193928935D01*
X97512799Y-30830664D02*
X97451430Y-30820016D01*
X97512799Y-33858135D02*
X97574616Y-33850510D01*
X97512799Y-63901464D02*
X97451430Y-63890816D01*
X97512799Y-66928935D02*
X97574616Y-66921310D01*
X97512799Y-94330664D02*
X97451430Y-94320016D01*
X97512799Y-97358135D02*
X97574616Y-97350510D01*
X97512799Y-127401464D02*
X97451430Y-127390816D01*
X97512799Y-130428935D02*
X97574616Y-130421310D01*
X97512799Y-157830664D02*
X97451430Y-157820016D01*
X97512799Y-160858135D02*
X97574616Y-160850510D01*
X97512799Y-190901464D02*
X97451430Y-190890816D01*
X97512799Y-193928935D02*
X97574616Y-193921310D01*
X97574616Y-30838289D02*
X97512799Y-30830664D01*
X97574616Y-33850510D02*
X97636733Y-33845928D01*
X97574616Y-63909089D02*
X97512799Y-63901464D01*
X97574616Y-66921310D02*
X97636733Y-66916728D01*
X97574616Y-94338289D02*
X97512799Y-94330664D01*
X97574616Y-97350510D02*
X97636733Y-97345928D01*
X97574616Y-127409089D02*
X97512799Y-127401464D01*
X97574616Y-130421310D02*
X97636733Y-130416728D01*
X97574616Y-157838289D02*
X97512799Y-157830664D01*
X97574616Y-160850510D02*
X97636733Y-160845928D01*
X97574616Y-190909089D02*
X97512799Y-190901464D01*
X97574616Y-193921310D02*
X97636733Y-193916728D01*
X97636733Y-30842871D02*
X97574616Y-30838289D01*
X97636733Y-33845928D02*
X97700987Y-33844400D01*
X97636733Y-63913671D02*
X97574616Y-63909089D01*
X97636733Y-66916728D02*
X97700987Y-66915200D01*
X97636733Y-94342871D02*
X97574616Y-94338289D01*
X97636733Y-97345928D02*
X97700987Y-97344400D01*
X97636733Y-127413671D02*
X97574616Y-127409089D01*
X97636733Y-130416728D02*
X97700987Y-130415200D01*
X97636733Y-157842871D02*
X97574616Y-157838289D01*
X97636733Y-160845928D02*
X97700987Y-160844400D01*
X97636733Y-190913671D02*
X97574616Y-190909089D01*
X97636733Y-193916728D02*
X97700987Y-193915200D01*
X97699012Y-63915200D02*
X97636733Y-63913671D01*
X97699012Y-94344400D02*
X97636733Y-94342871D01*
X97699012Y-127415200D02*
X97636733Y-127413671D01*
X97699012Y-157844400D02*
X97636733Y-157842871D01*
X97699012Y-190915200D02*
X97636733Y-190913671D01*
X97700987Y-30844400D02*
X97636733Y-30842871D01*
X97700987Y-33844400D02*
X97763266Y-33845928D01*
X97700987Y-66915200D02*
X97763266Y-66916728D01*
X97700987Y-97344400D02*
X97763266Y-97345928D01*
X97700987Y-130415200D02*
X97763266Y-130416728D01*
X97700987Y-160844400D02*
X97763266Y-160845928D01*
X97700987Y-193915200D02*
X97763266Y-193916728D01*
X97763266Y-30842871D02*
X97700987Y-30844400D01*
X97763266Y-33845928D02*
X97825383Y-33850510D01*
X97763266Y-63913671D02*
X97699012Y-63915200D01*
X97763266Y-66916728D02*
X97825383Y-66921310D01*
X97763266Y-94342871D02*
X97699012Y-94344400D01*
X97763266Y-97345928D02*
X97825383Y-97350510D01*
X97763266Y-127413671D02*
X97699012Y-127415200D01*
X97763266Y-130416728D02*
X97825383Y-130421310D01*
X97763266Y-157842871D02*
X97699012Y-157844400D01*
X97763266Y-160845928D02*
X97825383Y-160850510D01*
X97763266Y-190913671D02*
X97699012Y-190915200D01*
X97763266Y-193916728D02*
X97825383Y-193921310D01*
X97825383Y-30838289D02*
X97763266Y-30842871D01*
X97825383Y-33850510D02*
X97887200Y-33858135D01*
X97825383Y-63909089D02*
X97763266Y-63913671D01*
X97825383Y-66921310D02*
X97887200Y-66928935D01*
X97825383Y-94338289D02*
X97763266Y-94342871D01*
X97825383Y-97350510D02*
X97887200Y-97358135D01*
X97825383Y-127409089D02*
X97763266Y-127413671D01*
X97825383Y-130421310D02*
X97887200Y-130428935D01*
X97825383Y-157838289D02*
X97763266Y-157842871D01*
X97825383Y-160850510D02*
X97887200Y-160858135D01*
X97825383Y-190909089D02*
X97763266Y-190913671D01*
X97825383Y-193921310D02*
X97887200Y-193928935D01*
X97887200Y-30830664D02*
X97825383Y-30838289D01*
X97887200Y-33858135D02*
X97948569Y-33868783D01*
X97887200Y-63901464D02*
X97825383Y-63909089D01*
X97887200Y-66928935D02*
X97948569Y-66939583D01*
X97887200Y-94330664D02*
X97825383Y-94338289D01*
X97887200Y-97358135D02*
X97948569Y-97368783D01*
X97887200Y-127401464D02*
X97825383Y-127409089D01*
X97887200Y-130428935D02*
X97948569Y-130439583D01*
X97887200Y-157830664D02*
X97825383Y-157838289D01*
X97887200Y-160858135D02*
X97948569Y-160868783D01*
X97887200Y-190901464D02*
X97825383Y-190909089D01*
X97887200Y-193928935D02*
X97948569Y-193939583D01*
X97948569Y-30820016D02*
X97887200Y-30830664D01*
X97948569Y-33868783D02*
X98009341Y-33882430D01*
X97948569Y-63890816D02*
X97887200Y-63901464D01*
X97948569Y-66939583D02*
X98009341Y-66953230D01*
X97948569Y-94320016D02*
X97887200Y-94330664D01*
X97948569Y-97368783D02*
X98009341Y-97382430D01*
X97948569Y-127390816D02*
X97887200Y-127401464D01*
X97948569Y-130439583D02*
X98009341Y-130453230D01*
X97948569Y-157820016D02*
X97887200Y-157830664D01*
X97948569Y-160868783D02*
X98009341Y-160882430D01*
X97948569Y-190890816D02*
X97887200Y-190901464D01*
X97948569Y-193939583D02*
X98009341Y-193953230D01*
X98009341Y-30806369D02*
X97948569Y-30820016D01*
X98009341Y-33882430D02*
X98069371Y-33899043D01*
X98009341Y-63877169D02*
X97948569Y-63890816D01*
X98009341Y-66953230D02*
X98069371Y-66969843D01*
X98009341Y-94306369D02*
X97948569Y-94320016D01*
X98009341Y-97382430D02*
X98069371Y-97399043D01*
X98009341Y-127377169D02*
X97948569Y-127390816D01*
X98009341Y-130453230D02*
X98069371Y-130469843D01*
X98009341Y-157806369D02*
X97948569Y-157820016D01*
X98009341Y-160882430D02*
X98069371Y-160899043D01*
X98009341Y-190877169D02*
X97948569Y-190890816D01*
X98009341Y-193953230D02*
X98069371Y-193969843D01*
X98069371Y-30789756D02*
X98009341Y-30806369D01*
X98069371Y-33899043D02*
X98128513Y-33918580D01*
X98069371Y-63860556D02*
X98009341Y-63877169D01*
X98069371Y-66969843D02*
X98128513Y-66989380D01*
X98069371Y-94289756D02*
X98009341Y-94306369D01*
X98069371Y-97399043D02*
X98128513Y-97418580D01*
X98069371Y-127360556D02*
X98009341Y-127377169D01*
X98069371Y-130469843D02*
X98128513Y-130489380D01*
X98069371Y-157789756D02*
X98009341Y-157806369D01*
X98069371Y-160899043D02*
X98128513Y-160918580D01*
X98069371Y-190860556D02*
X98009341Y-190877169D01*
X98069371Y-193969843D02*
X98128513Y-193989380D01*
X98128513Y-30770219D02*
X98069371Y-30789756D01*
X98128513Y-33918580D02*
X98186625Y-33940997D01*
X98128513Y-63841019D02*
X98069371Y-63860556D01*
X98128513Y-66989380D02*
X98186625Y-67011797D01*
X98128513Y-94270219D02*
X98069371Y-94289756D01*
X98128513Y-97418580D02*
X98186625Y-97440997D01*
X98128513Y-127341019D02*
X98069371Y-127360556D01*
X98128513Y-130489380D02*
X98186625Y-130511797D01*
X98128513Y-157770219D02*
X98069371Y-157789756D01*
X98128513Y-160918580D02*
X98186625Y-160940997D01*
X98128513Y-190841019D02*
X98069371Y-190860556D01*
X98128513Y-193989380D02*
X98186625Y-194011797D01*
X98186625Y-30747802D02*
X98128513Y-30770219D01*
X98186625Y-33940997D02*
X98243567Y-33966237D01*
X98186625Y-63818602D02*
X98128513Y-63841019D01*
X98186625Y-67011797D02*
X98243567Y-67037037D01*
X98186625Y-94247802D02*
X98128513Y-94270219D01*
X98186625Y-97440997D02*
X98243567Y-97466237D01*
X98186625Y-127318602D02*
X98128513Y-127341019D01*
X98186625Y-130511797D02*
X98243567Y-130537037D01*
X98186625Y-157747802D02*
X98128513Y-157770219D01*
X98186625Y-160940997D02*
X98243567Y-160966237D01*
X98186625Y-190818602D02*
X98128513Y-190841019D01*
X98186625Y-194011797D02*
X98243567Y-194037037D01*
X98243567Y-30722562D02*
X98186625Y-30747802D01*
X98243567Y-33966237D02*
X98299202Y-33994242D01*
X98243567Y-63793362D02*
X98186625Y-63818602D01*
X98243567Y-67037037D02*
X98299202Y-67065042D01*
X98243567Y-94222562D02*
X98186625Y-94247802D01*
X98243567Y-97466237D02*
X98299202Y-97494242D01*
X98243567Y-127293362D02*
X98186625Y-127318602D01*
X98243567Y-130537037D02*
X98299202Y-130565042D01*
X98243567Y-157722562D02*
X98186625Y-157747802D01*
X98243567Y-160966237D02*
X98299202Y-160994242D01*
X98243567Y-190793362D02*
X98186625Y-190818602D01*
X98243567Y-194037037D02*
X98299202Y-194065042D01*
X98299202Y-30694557D02*
X98243567Y-30722562D01*
X98299202Y-33994242D02*
X98353396Y-34024942D01*
X98299202Y-63765357D02*
X98243567Y-63793362D01*
X98299202Y-67065042D02*
X98353396Y-67095742D01*
X98299202Y-94194557D02*
X98243567Y-94222562D01*
X98299202Y-97494242D02*
X98353396Y-97524942D01*
X98299202Y-127265357D02*
X98243567Y-127293362D01*
X98299202Y-130565042D02*
X98353396Y-130595742D01*
X98299202Y-157694557D02*
X98243567Y-157722562D01*
X98299202Y-160994242D02*
X98353396Y-161024942D01*
X98299202Y-190765357D02*
X98243567Y-190793362D01*
X98299202Y-194065042D02*
X98353396Y-194095742D01*
X98353396Y-30663857D02*
X98299202Y-30694557D01*
X98353396Y-34024942D02*
X98406018Y-34058265D01*
X98353396Y-63734657D02*
X98299202Y-63765357D01*
X98353396Y-67095742D02*
X98406018Y-67129065D01*
X98353396Y-94163857D02*
X98299202Y-94194557D01*
X98353396Y-97524942D02*
X98406018Y-97558265D01*
X98353396Y-127234657D02*
X98299202Y-127265357D01*
X98353396Y-130595742D02*
X98406018Y-130629065D01*
X98353396Y-157663857D02*
X98299202Y-157694557D01*
X98353396Y-161024942D02*
X98406018Y-161058265D01*
X98353396Y-190734657D02*
X98299202Y-190765357D01*
X98353396Y-194095742D02*
X98406018Y-194129065D01*
X98406018Y-30630534D02*
X98353396Y-30663857D01*
X98406018Y-34058265D02*
X98456942Y-34094129D01*
X98406018Y-63701334D02*
X98353396Y-63734657D01*
X98406018Y-67129065D02*
X98456942Y-67164929D01*
X98406018Y-94130534D02*
X98353396Y-94163857D01*
X98406018Y-97558265D02*
X98456942Y-97594129D01*
X98406018Y-127201334D02*
X98353396Y-127234657D01*
X98406018Y-130629065D02*
X98456942Y-130664929D01*
X98406018Y-157630534D02*
X98353396Y-157663857D01*
X98406018Y-161058265D02*
X98456942Y-161094129D01*
X98406018Y-190701334D02*
X98353396Y-190734657D01*
X98406018Y-194129065D02*
X98456942Y-194164929D01*
X98456942Y-30594670D02*
X98406018Y-30630534D01*
X98456942Y-34094129D02*
X98506044Y-34132449D01*
X98456942Y-63665470D02*
X98406018Y-63701334D01*
X98456942Y-67164929D02*
X98506044Y-67203249D01*
X98456942Y-94094670D02*
X98406018Y-94130534D01*
X98456942Y-97594129D02*
X98506044Y-97632449D01*
X98456942Y-127165470D02*
X98406018Y-127201334D01*
X98456942Y-130664929D02*
X98506044Y-130703249D01*
X98456942Y-157594670D02*
X98406018Y-157630534D01*
X98456942Y-161094129D02*
X98506044Y-161132449D01*
X98456942Y-190665470D02*
X98406018Y-190701334D01*
X98456942Y-194164929D02*
X98506044Y-194203249D01*
X98506044Y-30556350D02*
X98456942Y-30594670D01*
X98506044Y-34132449D02*
X98553208Y-34173133D01*
X98506044Y-63627150D02*
X98456942Y-63665470D01*
X98506044Y-67203249D02*
X98553208Y-67243933D01*
X98506044Y-94056350D02*
X98456942Y-94094670D01*
X98506044Y-97632449D02*
X98553208Y-97673133D01*
X98506044Y-127127150D02*
X98456942Y-127165470D01*
X98506044Y-130703249D02*
X98553208Y-130743933D01*
X98506044Y-157556350D02*
X98456942Y-157594670D01*
X98506044Y-161132449D02*
X98553208Y-161173133D01*
X98506044Y-190627150D02*
X98456942Y-190665470D01*
X98506044Y-194203249D02*
X98553208Y-194243933D01*
X98553208Y-30515666D02*
X98506044Y-30556350D01*
X98553208Y-34173133D02*
X98598318Y-34216081D01*
X98553208Y-63586466D02*
X98506044Y-63627150D01*
X98553208Y-67243933D02*
X98598318Y-67286881D01*
X98553208Y-94015666D02*
X98506044Y-94056350D01*
X98553208Y-97673133D02*
X98598318Y-97716081D01*
X98553208Y-127086466D02*
X98506044Y-127127150D01*
X98553208Y-130743933D02*
X98598318Y-130786881D01*
X98553208Y-157515666D02*
X98506044Y-157556350D01*
X98553208Y-161173133D02*
X98598318Y-161216081D01*
X98553208Y-190586466D02*
X98506044Y-190627150D01*
X98553208Y-194243933D02*
X98598318Y-194286881D01*
X98598318Y-30472718D02*
X98553208Y-30515666D01*
X98598318Y-34216081D02*
X98641266Y-34261191D01*
X98598318Y-63543518D02*
X98553208Y-63586466D01*
X98598318Y-67286881D02*
X98641266Y-67331991D01*
X98598318Y-93972718D02*
X98553208Y-94015666D01*
X98598318Y-97716081D02*
X98641266Y-97761191D01*
X98598318Y-127043518D02*
X98553208Y-127086466D01*
X98598318Y-130786881D02*
X98641266Y-130831991D01*
X98598318Y-157472718D02*
X98553208Y-157515666D01*
X98598318Y-161216081D02*
X98641266Y-161261191D01*
X98598318Y-190543518D02*
X98553208Y-190586466D01*
X98598318Y-194286881D02*
X98641266Y-194331991D01*
X98641266Y-30427608D02*
X98598318Y-30472718D01*
X98641266Y-34261191D02*
X98681950Y-34308355D01*
X98641266Y-63498408D02*
X98598318Y-63543518D01*
X98641266Y-67331991D02*
X98681950Y-67379155D01*
X98641266Y-93927608D02*
X98598318Y-93972718D01*
X98641266Y-97761191D02*
X98681950Y-97808355D01*
X98641266Y-126998408D02*
X98598318Y-127043518D01*
X98641266Y-130831991D02*
X98681950Y-130879155D01*
X98641266Y-157427608D02*
X98598318Y-157472718D01*
X98641266Y-161261191D02*
X98681950Y-161308355D01*
X98641266Y-190498408D02*
X98598318Y-190543518D01*
X98641266Y-194331991D02*
X98681950Y-194379155D01*
X98681950Y-30380444D02*
X98641266Y-30427608D01*
X98681950Y-34308355D02*
X98720270Y-34357457D01*
X98681950Y-63451244D02*
X98641266Y-63498408D01*
X98681950Y-67379155D02*
X98720270Y-67428257D01*
X98681950Y-93880444D02*
X98641266Y-93927608D01*
X98681950Y-97808355D02*
X98720270Y-97857457D01*
X98681950Y-126951244D02*
X98641266Y-126998408D01*
X98681950Y-130879155D02*
X98720270Y-130928257D01*
X98681950Y-157380444D02*
X98641266Y-157427608D01*
X98681950Y-161308355D02*
X98720270Y-161357457D01*
X98681950Y-190451244D02*
X98641266Y-190498408D01*
X98681950Y-194379155D02*
X98720270Y-194428257D01*
X98720270Y-30331342D02*
X98681950Y-30380444D01*
X98720270Y-34357457D02*
X98756134Y-34408381D01*
X98720270Y-63402142D02*
X98681950Y-63451244D01*
X98720270Y-67428257D02*
X98756134Y-67479181D01*
X98720270Y-93831342D02*
X98681950Y-93880444D01*
X98720270Y-97857457D02*
X98756134Y-97908381D01*
X98720270Y-126902142D02*
X98681950Y-126951244D01*
X98720270Y-130928257D02*
X98756134Y-130979181D01*
X98720270Y-157331342D02*
X98681950Y-157380444D01*
X98720270Y-161357457D02*
X98756134Y-161408381D01*
X98720270Y-190402142D02*
X98681950Y-190451244D01*
X98720270Y-194428257D02*
X98756134Y-194479181D01*
X98756134Y-30280418D02*
X98720270Y-30331342D01*
X98756134Y-34408381D02*
X98789457Y-34461003D01*
X98756134Y-63351218D02*
X98720270Y-63402142D01*
X98756134Y-67479181D02*
X98789457Y-67531803D01*
X98756134Y-93780418D02*
X98720270Y-93831342D01*
X98756134Y-97908381D02*
X98789457Y-97961003D01*
X98756134Y-126851218D02*
X98720270Y-126902142D01*
X98756134Y-130979181D02*
X98789457Y-131031803D01*
X98756134Y-157280418D02*
X98720270Y-157331342D01*
X98756134Y-161408381D02*
X98789457Y-161461003D01*
X98756134Y-190351218D02*
X98720270Y-190402142D01*
X98756134Y-194479181D02*
X98789457Y-194531803D01*
X98789457Y-30227796D02*
X98756134Y-30280418D01*
X98789457Y-34461003D02*
X98820157Y-34515197D01*
X98789457Y-63298596D02*
X98756134Y-63351218D01*
X98789457Y-67531803D02*
X98820157Y-67585997D01*
X98789457Y-93727796D02*
X98756134Y-93780418D01*
X98789457Y-97961003D02*
X98820157Y-98015197D01*
X98789457Y-126798596D02*
X98756134Y-126851218D01*
X98789457Y-131031803D02*
X98820157Y-131085997D01*
X98789457Y-157227796D02*
X98756134Y-157280418D01*
X98789457Y-161461003D02*
X98820157Y-161515197D01*
X98789457Y-190298596D02*
X98756134Y-190351218D01*
X98789457Y-194531803D02*
X98820157Y-194585997D01*
X98820157Y-30173602D02*
X98789457Y-30227796D01*
X98820157Y-34515197D02*
X98848162Y-34570832D01*
X98820157Y-63244402D02*
X98789457Y-63298596D01*
X98820157Y-67585997D02*
X98848162Y-67641632D01*
X98820157Y-93673602D02*
X98789457Y-93727796D01*
X98820157Y-98015197D02*
X98848162Y-98070832D01*
X98820157Y-126744402D02*
X98789457Y-126798596D01*
X98820157Y-131085997D02*
X98848162Y-131141632D01*
X98820157Y-157173602D02*
X98789457Y-157227796D01*
X98820157Y-161515197D02*
X98848162Y-161570832D01*
X98820157Y-190244402D02*
X98789457Y-190298596D01*
X98820157Y-194585997D02*
X98848162Y-194641632D01*
X98848162Y-30117967D02*
X98820157Y-30173602D01*
X98848162Y-34570832D02*
X98873402Y-34627774D01*
X98848162Y-63188767D02*
X98820157Y-63244402D01*
X98848162Y-67641632D02*
X98873402Y-67698574D01*
X98848162Y-93617967D02*
X98820157Y-93673602D01*
X98848162Y-98070832D02*
X98873402Y-98127774D01*
X98848162Y-126688767D02*
X98820157Y-126744402D01*
X98848162Y-131141632D02*
X98873402Y-131198574D01*
X98848162Y-157117967D02*
X98820157Y-157173602D01*
X98848162Y-161570832D02*
X98873402Y-161627774D01*
X98848162Y-190188767D02*
X98820157Y-190244402D01*
X98848162Y-194641632D02*
X98873402Y-194698574D01*
X98873402Y-30061025D02*
X98848162Y-30117967D01*
X98873402Y-34627774D02*
X98895819Y-34685886D01*
X98873402Y-63131825D02*
X98848162Y-63188767D01*
X98873402Y-67698574D02*
X98895819Y-67756686D01*
X98873402Y-93561025D02*
X98848162Y-93617967D01*
X98873402Y-98127774D02*
X98895819Y-98185886D01*
X98873402Y-126631825D02*
X98848162Y-126688767D01*
X98873402Y-131198574D02*
X98895819Y-131256686D01*
X98873402Y-157061025D02*
X98848162Y-157117967D01*
X98873402Y-161627774D02*
X98895819Y-161685886D01*
X98873402Y-190131825D02*
X98848162Y-190188767D01*
X98873402Y-194698574D02*
X98895819Y-194756686D01*
X98895819Y-30002913D02*
X98873402Y-30061025D01*
X98895819Y-34685886D02*
X98915356Y-34745028D01*
X98895819Y-63073713D02*
X98873402Y-63131825D01*
X98895819Y-67756686D02*
X98915356Y-67815828D01*
X98895819Y-93502913D02*
X98873402Y-93561025D01*
X98895819Y-98185886D02*
X98915356Y-98245028D01*
X98895819Y-126573713D02*
X98873402Y-126631825D01*
X98895819Y-131256686D02*
X98915356Y-131315828D01*
X98895819Y-157002913D02*
X98873402Y-157061025D01*
X98895819Y-161685886D02*
X98915356Y-161745028D01*
X98895819Y-190073713D02*
X98873402Y-190131825D01*
X98895819Y-194756686D02*
X98915356Y-194815828D01*
X98915356Y-29943771D02*
X98895819Y-30002913D01*
X98915356Y-34745028D02*
X98931969Y-34805058D01*
X98915356Y-63014571D02*
X98895819Y-63073713D01*
X98915356Y-67815828D02*
X98931969Y-67875858D01*
X98915356Y-93443771D02*
X98895819Y-93502913D01*
X98915356Y-98245028D02*
X98931969Y-98305058D01*
X98915356Y-126514571D02*
X98895819Y-126573713D01*
X98915356Y-131315828D02*
X98931969Y-131375858D01*
X98915356Y-156943771D02*
X98895819Y-157002913D01*
X98915356Y-161745028D02*
X98931969Y-161805058D01*
X98915356Y-190014571D02*
X98895819Y-190073713D01*
X98915356Y-194815828D02*
X98931969Y-194875858D01*
X98931969Y-29883741D02*
X98915356Y-29943771D01*
X98931969Y-34805058D02*
X98945616Y-34865830D01*
X98931969Y-62954541D02*
X98915356Y-63014571D01*
X98931969Y-67875858D02*
X98945616Y-67936630D01*
X98931969Y-93383741D02*
X98915356Y-93443771D01*
X98931969Y-98305058D02*
X98945616Y-98365830D01*
X98931969Y-126454541D02*
X98915356Y-126514571D01*
X98931969Y-131375858D02*
X98945616Y-131436630D01*
X98931969Y-156883741D02*
X98915356Y-156943771D01*
X98931969Y-161805058D02*
X98945616Y-161865830D01*
X98931969Y-189954541D02*
X98915356Y-190014571D01*
X98931969Y-194875858D02*
X98945616Y-194936630D01*
X98945616Y-29822969D02*
X98931969Y-29883741D01*
X98945616Y-34865830D02*
X98956264Y-34927199D01*
X98945616Y-62893769D02*
X98931969Y-62954541D01*
X98945616Y-67936630D02*
X98956264Y-67997999D01*
X98945616Y-93322969D02*
X98931969Y-93383741D01*
X98945616Y-98365830D02*
X98956264Y-98427199D01*
X98945616Y-126393769D02*
X98931969Y-126454541D01*
X98945616Y-131436630D02*
X98956264Y-131497999D01*
X98945616Y-156822969D02*
X98931969Y-156883741D01*
X98945616Y-161865830D02*
X98956264Y-161927199D01*
X98945616Y-189893769D02*
X98931969Y-189954541D01*
X98945616Y-194936630D02*
X98956264Y-194997999D01*
X98956264Y-29761600D02*
X98945616Y-29822969D01*
X98956264Y-34927199D02*
X98963889Y-34989016D01*
X98956264Y-62832400D02*
X98945616Y-62893769D01*
X98956264Y-67997999D02*
X98963889Y-68059816D01*
X98956264Y-93261600D02*
X98945616Y-93322969D01*
X98956264Y-98427199D02*
X98963889Y-98489016D01*
X98956264Y-126332400D02*
X98945616Y-126393769D01*
X98956264Y-131497999D02*
X98963889Y-131559816D01*
X98956264Y-156761600D02*
X98945616Y-156822969D01*
X98956264Y-161927199D02*
X98963889Y-161989016D01*
X98956264Y-189832400D02*
X98945616Y-189893769D01*
X98956264Y-194997999D02*
X98963889Y-195059816D01*
X98963889Y-29699783D02*
X98956264Y-29761600D01*
X98963889Y-34989016D02*
X98968471Y-35051133D01*
X98963889Y-62770583D02*
X98956264Y-62832400D01*
X98963889Y-68059816D02*
X98968471Y-68121933D01*
X98963889Y-93199783D02*
X98956264Y-93261600D01*
X98963889Y-98489016D02*
X98968471Y-98551133D01*
X98963889Y-126270583D02*
X98956264Y-126332400D01*
X98963889Y-131559816D02*
X98968471Y-131621933D01*
X98963889Y-156699783D02*
X98956264Y-156761600D01*
X98963889Y-161989016D02*
X98968471Y-162051133D01*
X98963889Y-189770583D02*
X98956264Y-189832400D01*
X98963889Y-195059816D02*
X98968471Y-195121933D01*
X98968471Y-29637666D02*
X98963889Y-29699783D01*
X98968471Y-35051133D02*
X98970000Y-35113412D01*
X98968471Y-62708466D02*
X98963889Y-62770583D01*
X98968471Y-68121933D02*
X98970000Y-68184212D01*
X98968471Y-93137666D02*
X98963889Y-93199783D01*
X98968471Y-98551133D02*
X98970000Y-98613412D01*
X98968471Y-126208466D02*
X98963889Y-126270583D01*
X98968471Y-131621933D02*
X98970000Y-131684212D01*
X98968471Y-156637666D02*
X98963889Y-156699783D01*
X98968471Y-162051133D02*
X98970000Y-162113412D01*
X98968471Y-189708466D02*
X98963889Y-189770583D01*
X98968471Y-195121933D02*
X98970000Y-195184212D01*
X98970000Y-20015586D02*
X98970000Y-29575387D01*
X98970000Y-29575387D02*
X98968471Y-29637666D01*
X98970000Y-35113412D02*
X98970000Y-62646187D01*
X98970000Y-62646187D02*
X98968471Y-62708466D01*
X98970000Y-68184212D02*
X98970385Y-80958917D01*
X98970000Y-93075387D02*
X98968471Y-93137666D01*
X98970000Y-98613412D02*
X98970000Y-126146187D01*
X98970000Y-126146187D02*
X98968471Y-126208466D01*
X98970000Y-131684212D02*
X98970385Y-144458917D01*
X98970000Y-156575387D02*
X98968471Y-156637666D01*
X98970000Y-162113412D02*
X98970000Y-189646187D01*
X98970000Y-189646187D02*
X98968471Y-189708466D01*
X98970000Y-195184212D02*
X98970000Y-207944413D01*
X98970000Y-207944413D02*
X98971227Y-207959642D01*
X98970385Y-80958917D02*
X98985586Y-80960000D01*
X98970385Y-144458917D02*
X98985586Y-144460000D01*
X98970399Y-83501035D02*
X98970000Y-93075387D01*
X98970399Y-147001035D02*
X98970000Y-156575387D01*
X98971227Y-20000357D02*
X98970000Y-20015586D01*
X98971227Y-207959642D02*
X198028917Y-207959614D01*
X98985586Y-80960000D02*
X100620599Y-80960000D01*
X98985586Y-83500000D02*
X98970399Y-83501035D01*
X98985586Y-144460000D02*
X100620587Y-144460000D01*
X98985586Y-147000000D02*
X98970399Y-147001035D01*
X100620587Y-83500000D02*
X98985586Y-83500000D01*
X100620587Y-144460000D02*
X100682866Y-144461528D01*
X100620587Y-147000000D02*
X98985586Y-147000000D01*
X100620599Y-80960000D02*
X100683122Y-80961540D01*
X100682623Y-83498483D02*
X100620587Y-83500000D01*
X100682866Y-144461528D02*
X100744983Y-144466110D01*
X100682866Y-146998471D02*
X100620587Y-147000000D01*
X100683122Y-80961540D02*
X100745480Y-80966158D01*
X100744499Y-83493936D02*
X100682623Y-83498483D01*
X100744983Y-144466110D02*
X100806800Y-144473735D01*
X100744983Y-146993889D02*
X100682866Y-146998471D01*
X100745480Y-80966158D02*
X100807535Y-80973842D01*
X100806078Y-83486371D02*
X100744499Y-83493936D01*
X100806800Y-144473735D02*
X100868169Y-144484383D01*
X100806800Y-146986264D02*
X100744983Y-146993889D01*
X100807535Y-80973842D02*
X100869136Y-80984574D01*
X100867214Y-83475805D02*
X100806078Y-83486371D01*
X100868169Y-144484383D02*
X100928941Y-144498030D01*
X100868169Y-146975616D02*
X100806800Y-146986264D01*
X100869136Y-80984574D02*
X100930134Y-80998326D01*
X100927761Y-83462264D02*
X100867214Y-83475805D01*
X100928941Y-144498030D02*
X100988971Y-144514643D01*
X100928941Y-146961969D02*
X100868169Y-146975616D01*
X100930134Y-80998326D02*
X100990380Y-81015067D01*
X100987573Y-83445780D02*
X100927761Y-83462264D01*
X100988971Y-144514643D02*
X101048113Y-144534180D01*
X100988971Y-146945356D02*
X100928941Y-146961969D01*
X100990380Y-81015067D02*
X101049729Y-81034755D01*
X101046508Y-83426391D02*
X100987573Y-83445780D01*
X101048113Y-144534180D02*
X101106225Y-144556597D01*
X101048113Y-146925819D02*
X100988971Y-146945356D01*
X101049729Y-81034755D02*
X101108035Y-81057343D01*
X101104425Y-83404146D02*
X101046508Y-83426391D01*
X101106225Y-144556597D02*
X101163167Y-144581837D01*
X101106225Y-146903402D02*
X101048113Y-146925819D01*
X101108035Y-81057343D02*
X101165158Y-81082776D01*
X101161186Y-83379096D02*
X101104425Y-83404146D01*
X101163167Y-144581837D02*
X101218802Y-144609842D01*
X101163167Y-146878162D02*
X101106225Y-146903402D01*
X101165158Y-81082776D02*
X101220959Y-81110991D01*
X101216654Y-83351303D02*
X101161186Y-83379096D01*
X101218802Y-144609842D02*
X101272996Y-144640542D01*
X101218802Y-146850157D02*
X101163167Y-146878162D01*
X101220959Y-81110991D02*
X101275303Y-81141921D01*
X101270698Y-83320831D02*
X101216654Y-83351303D01*
X101272996Y-144640542D02*
X101325618Y-144673865D01*
X101272996Y-146819457D02*
X101218802Y-146850157D01*
X101275303Y-81141921D02*
X101328057Y-81175490D01*
X101323188Y-83287754D02*
X101270698Y-83320831D01*
X101325618Y-144673865D02*
X101376542Y-144709729D01*
X101325618Y-146786134D02*
X101272996Y-146819457D01*
X101328057Y-81175490D02*
X101379093Y-81211617D01*
X101373998Y-83252151D02*
X101323188Y-83287754D01*
X101376542Y-144709729D02*
X101425644Y-144748049D01*
X101376542Y-146750270D02*
X101325618Y-146786134D01*
X101379093Y-81211617D02*
X101428288Y-81250215D01*
X101423008Y-83214108D02*
X101373998Y-83252151D01*
X101425644Y-144748049D02*
X101472808Y-144788733D01*
X101425644Y-146711950D02*
X101376542Y-146750270D01*
X101428288Y-81250215D02*
X101475521Y-81291188D01*
X101470099Y-83173714D02*
X101423008Y-83214108D01*
X101472808Y-144788733D02*
X101517918Y-144831681D01*
X101472808Y-146671266D02*
X101425644Y-146711950D01*
X101475521Y-81291188D02*
X101520679Y-81334439D01*
X101515160Y-83131067D02*
X101470099Y-83173714D01*
X101517918Y-144831681D02*
X101560866Y-144876791D01*
X101517918Y-146628318D02*
X101472808Y-146671266D01*
X101520679Y-81334439D02*
X101563652Y-81379861D01*
X101558083Y-83086269D02*
X101515160Y-83131067D01*
X101560866Y-144876791D02*
X101601550Y-144923955D01*
X101560866Y-146583208D02*
X101517918Y-146628318D01*
X101563652Y-81379861D02*
X101604335Y-81427346D01*
X101598765Y-83039426D02*
X101558083Y-83086269D01*
X101601550Y-144923955D02*
X101639870Y-144973057D01*
X101601550Y-146536044D02*
X101560866Y-146583208D01*
X101604335Y-81427346D02*
X101642630Y-81476776D01*
X101637108Y-82990651D02*
X101598765Y-83039426D01*
X101639870Y-144973057D02*
X101675734Y-145023981D01*
X101639870Y-146486942D02*
X101601550Y-146536044D01*
X101642630Y-81476776D02*
X101678443Y-81528033D01*
X101673022Y-82940060D02*
X101637108Y-82990651D01*
X101675734Y-145023981D02*
X101709057Y-145076603D01*
X101675734Y-146436018D02*
X101639870Y-146486942D01*
X101678443Y-81528033D02*
X101711688Y-81580992D01*
X101706421Y-82887774D02*
X101673022Y-82940060D01*
X101709057Y-145076603D02*
X101739757Y-145130797D01*
X101709057Y-146383396D02*
X101675734Y-146436018D01*
X101711688Y-81580992D02*
X101742284Y-81635524D01*
X101737223Y-82833918D02*
X101706421Y-82887774D01*
X101739757Y-145130797D02*
X101767762Y-145186432D01*
X101739757Y-146329202D02*
X101709057Y-146383396D01*
X101742284Y-81635524D02*
X101770156Y-81691498D01*
X101765357Y-82778622D02*
X101737223Y-82833918D01*
X101767762Y-145186432D02*
X101793002Y-145243374D01*
X101767762Y-146273567D02*
X101739757Y-146329202D01*
X101770156Y-81691498D02*
X101795237Y-81748776D01*
X101790755Y-82722016D02*
X101765357Y-82778622D01*
X101793002Y-145243374D02*
X101815419Y-145301486D01*
X101793002Y-146216625D02*
X101767762Y-146273567D01*
X101795237Y-81748776D02*
X101817467Y-81807220D01*
X101813355Y-82664236D02*
X101790755Y-82722016D01*
X101815419Y-145301486D02*
X101834956Y-145360628D01*
X101815419Y-146158513D02*
X101793002Y-146216625D01*
X101817467Y-81807220D02*
X101836791Y-81866688D01*
X101833105Y-82605421D02*
X101813355Y-82664236D01*
X101834956Y-145360628D02*
X101851569Y-145420658D01*
X101834956Y-146099371D02*
X101815419Y-146158513D01*
X101836791Y-81866688D02*
X101853161Y-81927036D01*
X101849956Y-82545711D02*
X101833105Y-82605421D01*
X101851569Y-145420658D02*
X101865216Y-145481430D01*
X101851569Y-146039341D02*
X101834956Y-146099371D01*
X101853161Y-81927036D02*
X101866539Y-81988117D01*
X101863868Y-82485249D02*
X101849956Y-82545711D01*
X101865216Y-145481430D02*
X101875864Y-145542799D01*
X101865216Y-145978569D02*
X101851569Y-146039341D01*
X101866539Y-81988117D02*
X101876893Y-82049783D01*
X101874809Y-82424179D02*
X101863868Y-82485249D01*
X101875864Y-145542799D02*
X101883489Y-145604616D01*
X101875864Y-145917200D02*
X101865216Y-145978569D01*
X101876893Y-82049783D02*
X101884196Y-82111884D01*
X101882752Y-82362647D02*
X101874809Y-82424179D01*
X101883489Y-145604616D02*
X101888071Y-145666733D01*
X101883489Y-145855383D02*
X101875864Y-145917200D01*
X101884196Y-82111884D02*
X101888431Y-82174269D01*
X101887678Y-82300801D02*
X101882752Y-82362647D01*
X101888071Y-145666733D02*
X101889600Y-145730987D01*
X101888071Y-145793266D02*
X101883489Y-145855383D01*
X101888431Y-82174269D02*
X101889588Y-82236800D01*
X101889588Y-82236800D02*
X101887678Y-82300801D01*
X101889600Y-145730987D02*
X101888071Y-145793266D01*
X104940400Y-82230987D02*
X104941928Y-82166733D01*
X104940400Y-145729012D02*
X104941928Y-145666733D01*
X104941928Y-82166733D02*
X104946510Y-82104616D01*
X104941928Y-82293266D02*
X104940400Y-82230987D01*
X104941928Y-145666733D02*
X104946510Y-145604616D01*
X104941928Y-145793266D02*
X104940400Y-145729012D01*
X104946510Y-82104616D02*
X104954135Y-82042799D01*
X104946510Y-82355383D02*
X104941928Y-82293266D01*
X104946510Y-145604616D02*
X104954135Y-145542799D01*
X104946510Y-145855383D02*
X104941928Y-145793266D01*
X104954135Y-82042799D02*
X104964783Y-81981430D01*
X104954135Y-82417200D02*
X104946510Y-82355383D01*
X104954135Y-145542799D02*
X104964783Y-145481430D01*
X104954135Y-145917200D02*
X104946510Y-145855383D01*
X104964783Y-81981430D02*
X104978430Y-81920658D01*
X104964783Y-82478569D02*
X104954135Y-82417200D01*
X104964783Y-145481430D02*
X104978430Y-145420658D01*
X104964783Y-145978569D02*
X104954135Y-145917200D01*
X104978430Y-81920658D02*
X104995043Y-81860628D01*
X104978430Y-82539341D02*
X104964783Y-82478569D01*
X104978430Y-145420658D02*
X104995043Y-145360628D01*
X104978430Y-146039341D02*
X104964783Y-145978569D01*
X104995043Y-81860628D02*
X105014580Y-81801486D01*
X104995043Y-82599371D02*
X104978430Y-82539341D01*
X104995043Y-145360628D02*
X105014580Y-145301486D01*
X104995043Y-146099371D02*
X104978430Y-146039341D01*
X105014580Y-81801486D02*
X105036997Y-81743374D01*
X105014580Y-82658513D02*
X104995043Y-82599371D01*
X105014580Y-145301486D02*
X105036997Y-145243374D01*
X105014580Y-146158513D02*
X104995043Y-146099371D01*
X105036997Y-81743374D02*
X105062237Y-81686432D01*
X105036997Y-82716625D02*
X105014580Y-82658513D01*
X105036997Y-145243374D02*
X105062237Y-145186432D01*
X105036997Y-146216625D02*
X105014580Y-146158513D01*
X105062237Y-81686432D02*
X105090242Y-81630797D01*
X105062237Y-82773567D02*
X105036997Y-82716625D01*
X105062237Y-145186432D02*
X105090242Y-145130797D01*
X105062237Y-146273567D02*
X105036997Y-146216625D01*
X105090242Y-81630797D02*
X105120942Y-81576603D01*
X105090242Y-82829202D02*
X105062237Y-82773567D01*
X105090242Y-145130797D02*
X105120942Y-145076603D01*
X105090242Y-146329202D02*
X105062237Y-146273567D01*
X105120942Y-81576603D02*
X105154265Y-81523981D01*
X105120942Y-82883396D02*
X105090242Y-82829202D01*
X105120942Y-145076603D02*
X105154265Y-145023981D01*
X105120942Y-146383396D02*
X105090242Y-146329202D01*
X105154265Y-81523981D02*
X105190129Y-81473057D01*
X105154265Y-82936018D02*
X105120942Y-82883396D01*
X105154265Y-145023981D02*
X105190129Y-144973057D01*
X105154265Y-146436018D02*
X105120942Y-146383396D01*
X105190129Y-81473057D02*
X105228449Y-81423955D01*
X105190129Y-82986942D02*
X105154265Y-82936018D01*
X105190129Y-144973057D02*
X105228449Y-144923955D01*
X105190129Y-146486942D02*
X105154265Y-146436018D01*
X105228449Y-81423955D02*
X105269133Y-81376791D01*
X105228449Y-83036044D02*
X105190129Y-82986942D01*
X105228449Y-144923955D02*
X105269133Y-144876791D01*
X105228449Y-146536044D02*
X105190129Y-146486942D01*
X105269133Y-81376791D02*
X105312081Y-81331681D01*
X105269133Y-83083208D02*
X105228449Y-83036044D01*
X105269133Y-144876791D02*
X105312081Y-144831681D01*
X105269133Y-146583208D02*
X105228449Y-146536044D01*
X105312081Y-81331681D02*
X105357191Y-81288733D01*
X105312081Y-83128318D02*
X105269133Y-83083208D01*
X105312081Y-144831681D02*
X105357191Y-144788733D01*
X105312081Y-146628318D02*
X105269133Y-146583208D01*
X105357191Y-81288733D02*
X105404355Y-81248049D01*
X105357191Y-83171266D02*
X105312081Y-83128318D01*
X105357191Y-144788733D02*
X105404355Y-144748049D01*
X105357191Y-146671266D02*
X105312081Y-146628318D01*
X105404355Y-81248049D02*
X105453457Y-81209729D01*
X105404355Y-83211950D02*
X105357191Y-83171266D01*
X105404355Y-144748049D02*
X105453457Y-144709729D01*
X105404355Y-146711950D02*
X105357191Y-146671266D01*
X105453457Y-81209729D02*
X105504381Y-81173865D01*
X105453457Y-83250270D02*
X105404355Y-83211950D01*
X105453457Y-144709729D02*
X105504381Y-144673865D01*
X105453457Y-146750270D02*
X105404355Y-146711950D01*
X105504381Y-81173865D02*
X105557003Y-81140542D01*
X105504381Y-83286134D02*
X105453457Y-83250270D01*
X105504381Y-144673865D02*
X105557003Y-144640542D01*
X105504381Y-146786134D02*
X105453457Y-146750270D01*
X105557003Y-81140542D02*
X105611197Y-81109842D01*
X105557003Y-83319457D02*
X105504381Y-83286134D01*
X105557003Y-144640542D02*
X105611197Y-144609842D01*
X105557003Y-146819457D02*
X105504381Y-146786134D01*
X105611197Y-81109842D02*
X105666832Y-81081837D01*
X105611197Y-83350157D02*
X105557003Y-83319457D01*
X105611197Y-144609842D02*
X105666832Y-144581837D01*
X105611197Y-146850157D02*
X105557003Y-146819457D01*
X105666832Y-81081837D02*
X105723774Y-81056597D01*
X105666832Y-83378162D02*
X105611197Y-83350157D01*
X105666832Y-144581837D02*
X105723774Y-144556597D01*
X105666832Y-146878162D02*
X105611197Y-146850157D01*
X105723774Y-81056597D02*
X105781886Y-81034180D01*
X105723774Y-83403402D02*
X105666832Y-83378162D01*
X105723774Y-144556597D02*
X105781886Y-144534180D01*
X105723774Y-146903402D02*
X105666832Y-146878162D01*
X105781886Y-81034180D02*
X105841028Y-81014643D01*
X105781886Y-83425819D02*
X105723774Y-83403402D01*
X105781886Y-144534180D02*
X105841028Y-144514643D01*
X105781886Y-146925819D02*
X105723774Y-146903402D01*
X105841028Y-81014643D02*
X105901058Y-80998030D01*
X105841028Y-83445356D02*
X105781886Y-83425819D01*
X105841028Y-144514643D02*
X105901058Y-144498030D01*
X105841028Y-146945356D02*
X105781886Y-146925819D01*
X105901058Y-80998030D02*
X105961830Y-80984383D01*
X105901058Y-83461969D02*
X105841028Y-83445356D01*
X105901058Y-144498030D02*
X105961830Y-144484383D01*
X105901058Y-146961969D02*
X105841028Y-146945356D01*
X105961830Y-80984383D02*
X106023199Y-80973735D01*
X105961830Y-83475616D02*
X105901058Y-83461969D01*
X105961830Y-144484383D02*
X106023199Y-144473735D01*
X105961830Y-146975616D02*
X105901058Y-146961969D01*
X106023199Y-80973735D02*
X106085016Y-80966110D01*
X106023199Y-83486264D02*
X105961830Y-83475616D01*
X106023199Y-144473735D02*
X106085016Y-144466110D01*
X106023199Y-146986264D02*
X105961830Y-146975616D01*
X106085016Y-80966110D02*
X106147133Y-80961528D01*
X106085016Y-83493889D02*
X106023199Y-83486264D01*
X106085016Y-144466110D02*
X106147133Y-144461528D01*
X106085016Y-146993889D02*
X106023199Y-146986264D01*
X106147133Y-80961528D02*
X106209412Y-80960000D01*
X106147133Y-83498471D02*
X106085016Y-83493889D01*
X106147133Y-144461528D02*
X106209412Y-144460000D01*
X106147133Y-146998471D02*
X106085016Y-146993889D01*
X106209412Y-80960000D02*
X190942999Y-80960000D01*
X106209412Y-83500000D02*
X106147133Y-83498471D01*
X106209412Y-144460000D02*
X190942987Y-144460000D01*
X106209412Y-147000000D02*
X106147133Y-146998471D01*
X190942987Y-83500000D02*
X106209412Y-83500000D01*
X190942987Y-144460000D02*
X191005266Y-144461528D01*
X190942987Y-147000000D02*
X106209412Y-147000000D01*
X190942999Y-80960000D02*
X191005522Y-80961540D01*
X191005023Y-83498483D02*
X190942987Y-83500000D01*
X191005266Y-144461528D02*
X191067383Y-144466110D01*
X191005266Y-146998471D02*
X190942987Y-147000000D01*
X191005522Y-80961540D02*
X191067880Y-80966158D01*
X191066899Y-83493936D02*
X191005023Y-83498483D01*
X191067383Y-144466110D02*
X191129200Y-144473735D01*
X191067383Y-146993889D02*
X191005266Y-146998471D01*
X191067880Y-80966158D02*
X191129935Y-80973842D01*
X191128478Y-83486371D02*
X191066899Y-83493936D01*
X191129200Y-144473735D02*
X191190569Y-144484383D01*
X191129200Y-146986264D02*
X191067383Y-146993889D01*
X191129935Y-80973842D02*
X191191536Y-80984574D01*
X191189614Y-83475805D02*
X191128478Y-83486371D01*
X191190569Y-144484383D02*
X191251341Y-144498030D01*
X191190569Y-146975616D02*
X191129200Y-146986264D01*
X191191536Y-80984574D02*
X191252534Y-80998326D01*
X191250161Y-83462264D02*
X191189614Y-83475805D01*
X191251341Y-144498030D02*
X191311371Y-144514643D01*
X191251341Y-146961969D02*
X191190569Y-146975616D01*
X191252534Y-80998326D02*
X191312780Y-81015067D01*
X191309973Y-83445780D02*
X191250161Y-83462264D01*
X191311371Y-144514643D02*
X191370513Y-144534180D01*
X191311371Y-146945356D02*
X191251341Y-146961969D01*
X191312780Y-81015067D02*
X191372129Y-81034755D01*
X191368908Y-83426391D02*
X191309973Y-83445780D01*
X191370513Y-144534180D02*
X191428625Y-144556597D01*
X191370513Y-146925819D02*
X191311371Y-146945356D01*
X191372129Y-81034755D02*
X191430435Y-81057343D01*
X191426825Y-83404146D02*
X191368908Y-83426391D01*
X191428625Y-144556597D02*
X191485567Y-144581837D01*
X191428625Y-146903402D02*
X191370513Y-146925819D01*
X191430435Y-81057343D02*
X191487558Y-81082776D01*
X191483586Y-83379096D02*
X191426825Y-83404146D01*
X191485567Y-144581837D02*
X191541202Y-144609842D01*
X191485567Y-146878162D02*
X191428625Y-146903402D01*
X191487558Y-81082776D02*
X191543359Y-81110991D01*
X191539054Y-83351303D02*
X191483586Y-83379096D01*
X191541202Y-144609842D02*
X191595396Y-144640542D01*
X191541202Y-146850157D02*
X191485567Y-146878162D01*
X191543359Y-81110991D02*
X191597703Y-81141921D01*
X191593098Y-83320831D02*
X191539054Y-83351303D01*
X191595396Y-144640542D02*
X191648018Y-144673865D01*
X191595396Y-146819457D02*
X191541202Y-146850157D01*
X191597703Y-81141921D02*
X191650457Y-81175490D01*
X191645588Y-83287754D02*
X191593098Y-83320831D01*
X191648018Y-144673865D02*
X191698942Y-144709729D01*
X191648018Y-146786134D02*
X191595396Y-146819457D01*
X191650457Y-81175490D02*
X191701493Y-81211617D01*
X191696398Y-83252151D02*
X191645588Y-83287754D01*
X191698942Y-144709729D02*
X191748044Y-144748049D01*
X191698942Y-146750270D02*
X191648018Y-146786134D01*
X191701493Y-81211617D02*
X191750688Y-81250215D01*
X191745408Y-83214108D02*
X191696398Y-83252151D01*
X191748044Y-144748049D02*
X191795208Y-144788733D01*
X191748044Y-146711950D02*
X191698942Y-146750270D01*
X191750688Y-81250215D02*
X191797921Y-81291188D01*
X191792499Y-83173714D02*
X191745408Y-83214108D01*
X191795208Y-144788733D02*
X191840318Y-144831681D01*
X191795208Y-146671266D02*
X191748044Y-146711950D01*
X191797921Y-81291188D02*
X191843079Y-81334439D01*
X191837560Y-83131067D02*
X191792499Y-83173714D01*
X191840318Y-144831681D02*
X191883266Y-144876791D01*
X191840318Y-146628318D02*
X191795208Y-146671266D01*
X191843079Y-81334439D02*
X191886052Y-81379861D01*
X191880483Y-83086269D02*
X191837560Y-83131067D01*
X191883266Y-144876791D02*
X191923950Y-144923955D01*
X191883266Y-146583208D02*
X191840318Y-146628318D01*
X191886052Y-81379861D02*
X191926735Y-81427346D01*
X191921165Y-83039426D02*
X191880483Y-83086269D01*
X191923950Y-144923955D02*
X191962270Y-144973057D01*
X191923950Y-146536044D02*
X191883266Y-146583208D01*
X191926735Y-81427346D02*
X191965030Y-81476776D01*
X191959508Y-82990651D02*
X191921165Y-83039426D01*
X191962270Y-144973057D02*
X191998134Y-145023981D01*
X191962270Y-146486942D02*
X191923950Y-146536044D01*
X191965030Y-81476776D02*
X192000843Y-81528033D01*
X191995422Y-82940060D02*
X191959508Y-82990651D01*
X191998134Y-145023981D02*
X192031457Y-145076603D01*
X191998134Y-146436018D02*
X191962270Y-146486942D01*
X192000843Y-81528033D02*
X192034088Y-81580992D01*
X192028821Y-82887774D02*
X191995422Y-82940060D01*
X192031457Y-145076603D02*
X192062157Y-145130797D01*
X192031457Y-146383396D02*
X191998134Y-146436018D01*
X192034088Y-81580992D02*
X192064684Y-81635524D01*
X192059623Y-82833918D02*
X192028821Y-82887774D01*
X192062157Y-145130797D02*
X192090162Y-145186432D01*
X192062157Y-146329202D02*
X192031457Y-146383396D01*
X192064684Y-81635524D02*
X192092556Y-81691498D01*
X192087757Y-82778622D02*
X192059623Y-82833918D01*
X192090162Y-145186432D02*
X192115402Y-145243374D01*
X192090162Y-146273567D02*
X192062157Y-146329202D01*
X192092556Y-81691498D02*
X192117637Y-81748776D01*
X192113155Y-82722016D02*
X192087757Y-82778622D01*
X192115402Y-145243374D02*
X192137819Y-145301486D01*
X192115402Y-146216625D02*
X192090162Y-146273567D01*
X192117637Y-81748776D02*
X192139867Y-81807220D01*
X192135755Y-82664236D02*
X192113155Y-82722016D01*
X192137819Y-145301486D02*
X192157356Y-145360628D01*
X192137819Y-146158513D02*
X192115402Y-146216625D01*
X192139867Y-81807220D02*
X192159191Y-81866688D01*
X192155505Y-82605421D02*
X192135755Y-82664236D01*
X192157356Y-145360628D02*
X192173969Y-145420658D01*
X192157356Y-146099371D02*
X192137819Y-146158513D01*
X192159191Y-81866688D02*
X192175561Y-81927036D01*
X192172356Y-82545711D02*
X192155505Y-82605421D01*
X192173969Y-145420658D02*
X192187616Y-145481430D01*
X192173969Y-146039341D02*
X192157356Y-146099371D01*
X192175561Y-81927036D02*
X192188939Y-81988117D01*
X192186268Y-82485249D02*
X192172356Y-82545711D01*
X192187616Y-145481430D02*
X192198264Y-145542799D01*
X192187616Y-145978569D02*
X192173969Y-146039341D01*
X192188939Y-81988117D02*
X192199293Y-82049783D01*
X192197209Y-82424179D02*
X192186268Y-82485249D01*
X192198264Y-145542799D02*
X192205889Y-145604616D01*
X192198264Y-145917200D02*
X192187616Y-145978569D01*
X192199293Y-82049783D02*
X192206596Y-82111884D01*
X192205152Y-82362647D02*
X192197209Y-82424179D01*
X192205889Y-145604616D02*
X192210471Y-145666733D01*
X192205889Y-145855383D02*
X192198264Y-145917200D01*
X192206596Y-82111884D02*
X192210831Y-82174269D01*
X192210078Y-82300801D02*
X192205152Y-82362647D01*
X192210471Y-145666733D02*
X192212000Y-145730987D01*
X192210471Y-145793266D02*
X192205889Y-145855383D01*
X192210831Y-82174269D02*
X192211988Y-82236800D01*
X192211988Y-82236800D02*
X192210078Y-82300801D01*
X192212000Y-145730987D02*
X192210471Y-145793266D01*
X195262800Y-82230987D02*
X195264328Y-82166733D01*
X195262800Y-145730987D02*
X195264328Y-145666733D01*
X195264328Y-82166733D02*
X195268910Y-82104616D01*
X195264328Y-82293266D02*
X195262800Y-82230987D01*
X195264328Y-145666733D02*
X195268910Y-145604616D01*
X195264328Y-145793266D02*
X195262800Y-145730987D01*
X195268910Y-82104616D02*
X195276535Y-82042799D01*
X195268910Y-82355383D02*
X195264328Y-82293266D01*
X195268910Y-145604616D02*
X195276535Y-145542799D01*
X195268910Y-145855383D02*
X195264328Y-145793266D01*
X195276535Y-82042799D02*
X195287183Y-81981430D01*
X195276535Y-82417200D02*
X195268910Y-82355383D01*
X195276535Y-145542799D02*
X195287183Y-145481430D01*
X195276535Y-145917200D02*
X195268910Y-145855383D01*
X195287183Y-81981430D02*
X195300830Y-81920658D01*
X195287183Y-82478569D02*
X195276535Y-82417200D01*
X195287183Y-145481430D02*
X195300830Y-145420658D01*
X195287183Y-145978569D02*
X195276535Y-145917200D01*
X195300830Y-81920658D02*
X195317443Y-81860628D01*
X195300830Y-82539341D02*
X195287183Y-82478569D01*
X195300830Y-145420658D02*
X195317443Y-145360628D01*
X195300830Y-146039341D02*
X195287183Y-145978569D01*
X195317443Y-81860628D02*
X195336980Y-81801486D01*
X195317443Y-82599371D02*
X195300830Y-82539341D01*
X195317443Y-145360628D02*
X195336980Y-145301486D01*
X195317443Y-146099371D02*
X195300830Y-146039341D01*
X195336980Y-81801486D02*
X195359397Y-81743374D01*
X195336980Y-82658513D02*
X195317443Y-82599371D01*
X195336980Y-145301486D02*
X195359397Y-145243374D01*
X195336980Y-146158513D02*
X195317443Y-146099371D01*
X195359397Y-81743374D02*
X195384637Y-81686432D01*
X195359397Y-82716625D02*
X195336980Y-82658513D01*
X195359397Y-145243374D02*
X195384637Y-145186432D01*
X195359397Y-146216625D02*
X195336980Y-146158513D01*
X195384637Y-81686432D02*
X195412642Y-81630797D01*
X195384637Y-82773567D02*
X195359397Y-82716625D01*
X195384637Y-145186432D02*
X195412642Y-145130797D01*
X195384637Y-146273567D02*
X195359397Y-146216625D01*
X195412642Y-81630797D02*
X195443342Y-81576603D01*
X195412642Y-82829202D02*
X195384637Y-82773567D01*
X195412642Y-145130797D02*
X195443342Y-145076603D01*
X195412642Y-146329202D02*
X195384637Y-146273567D01*
X195443342Y-81576603D02*
X195476665Y-81523981D01*
X195443342Y-82883396D02*
X195412642Y-82829202D01*
X195443342Y-145076603D02*
X195476665Y-145023981D01*
X195443342Y-146383396D02*
X195412642Y-146329202D01*
X195476665Y-81523981D02*
X195512529Y-81473057D01*
X195476665Y-82936018D02*
X195443342Y-82883396D01*
X195476665Y-145023981D02*
X195512529Y-144973057D01*
X195476665Y-146436018D02*
X195443342Y-146383396D01*
X195512529Y-81473057D02*
X195550849Y-81423955D01*
X195512529Y-82986942D02*
X195476665Y-82936018D01*
X195512529Y-144973057D02*
X195550849Y-144923955D01*
X195512529Y-146486942D02*
X195476665Y-146436018D01*
X195550849Y-81423955D02*
X195591533Y-81376791D01*
X195550849Y-83036044D02*
X195512529Y-82986942D01*
X195550849Y-144923955D02*
X195591533Y-144876791D01*
X195550849Y-146536044D02*
X195512529Y-146486942D01*
X195591533Y-81376791D02*
X195634481Y-81331681D01*
X195591533Y-83083208D02*
X195550849Y-83036044D01*
X195591533Y-144876791D02*
X195634481Y-144831681D01*
X195591533Y-146583208D02*
X195550849Y-146536044D01*
X195634481Y-81331681D02*
X195679591Y-81288733D01*
X195634481Y-83128318D02*
X195591533Y-83083208D01*
X195634481Y-144831681D02*
X195679591Y-144788733D01*
X195634481Y-146628318D02*
X195591533Y-146583208D01*
X195679591Y-81288733D02*
X195726755Y-81248049D01*
X195679591Y-83171266D02*
X195634481Y-83128318D01*
X195679591Y-144788733D02*
X195726755Y-144748049D01*
X195679591Y-146671266D02*
X195634481Y-146628318D01*
X195726755Y-81248049D02*
X195775857Y-81209729D01*
X195726755Y-83211950D02*
X195679591Y-83171266D01*
X195726755Y-144748049D02*
X195775857Y-144709729D01*
X195726755Y-146711950D02*
X195679591Y-146671266D01*
X195775857Y-81209729D02*
X195826781Y-81173865D01*
X195775857Y-83250270D02*
X195726755Y-83211950D01*
X195775857Y-144709729D02*
X195826781Y-144673865D01*
X195775857Y-146750270D02*
X195726755Y-146711950D01*
X195826781Y-81173865D02*
X195879403Y-81140542D01*
X195826781Y-83286134D02*
X195775857Y-83250270D01*
X195826781Y-144673865D02*
X195879403Y-144640542D01*
X195826781Y-146786134D02*
X195775857Y-146750270D01*
X195879403Y-81140542D02*
X195933597Y-81109842D01*
X195879403Y-83319457D02*
X195826781Y-83286134D01*
X195879403Y-144640542D02*
X195933597Y-144609842D01*
X195879403Y-146819457D02*
X195826781Y-146786134D01*
X195933597Y-81109842D02*
X195989232Y-81081837D01*
X195933597Y-83350157D02*
X195879403Y-83319457D01*
X195933597Y-144609842D02*
X195989232Y-144581837D01*
X195933597Y-146850157D02*
X195879403Y-146819457D01*
X195989232Y-81081837D02*
X196046174Y-81056597D01*
X195989232Y-83378162D02*
X195933597Y-83350157D01*
X195989232Y-144581837D02*
X196046174Y-144556597D01*
X195989232Y-146878162D02*
X195933597Y-146850157D01*
X196046174Y-81056597D02*
X196104286Y-81034180D01*
X196046174Y-83403402D02*
X195989232Y-83378162D01*
X196046174Y-144556597D02*
X196104286Y-144534180D01*
X196046174Y-146903402D02*
X195989232Y-146878162D01*
X196104286Y-81034180D02*
X196163428Y-81014643D01*
X196104286Y-83425819D02*
X196046174Y-83403402D01*
X196104286Y-144534180D02*
X196163428Y-144514643D01*
X196104286Y-146925819D02*
X196046174Y-146903402D01*
X196163428Y-81014643D02*
X196223458Y-80998030D01*
X196163428Y-83445356D02*
X196104286Y-83425819D01*
X196163428Y-144514643D02*
X196223458Y-144498030D01*
X196163428Y-146945356D02*
X196104286Y-146925819D01*
X196223458Y-80998030D02*
X196284230Y-80984383D01*
X196223458Y-83461969D02*
X196163428Y-83445356D01*
X196223458Y-144498030D02*
X196284230Y-144484383D01*
X196223458Y-146961969D02*
X196163428Y-146945356D01*
X196284230Y-80984383D02*
X196345599Y-80973735D01*
X196284230Y-83475616D02*
X196223458Y-83461969D01*
X196284230Y-144484383D02*
X196345599Y-144473735D01*
X196284230Y-146975616D02*
X196223458Y-146961969D01*
X196345599Y-80973735D02*
X196407416Y-80966110D01*
X196345599Y-83486264D02*
X196284230Y-83475616D01*
X196345599Y-144473735D02*
X196407416Y-144466110D01*
X196345599Y-146986264D02*
X196284230Y-146975616D01*
X196407416Y-80966110D02*
X196469533Y-80961528D01*
X196407416Y-83493889D02*
X196345599Y-83486264D01*
X196407416Y-144466110D02*
X196469533Y-144461528D01*
X196407416Y-146993889D02*
X196345599Y-146986264D01*
X196469533Y-80961528D02*
X196531812Y-80960000D01*
X196469533Y-83498471D02*
X196407416Y-83493889D01*
X196469533Y-144461528D02*
X196531812Y-144460000D01*
X196469533Y-146998471D02*
X196407416Y-146993889D01*
X196531812Y-80960000D02*
X198014413Y-80960000D01*
X196531812Y-83500000D02*
X196469533Y-83498471D01*
X196531812Y-144460000D02*
X198014413Y-144460000D01*
X196531812Y-147000000D02*
X196469533Y-146998471D01*
X198014413Y-80960000D02*
X198029642Y-80958772D01*
X198014413Y-83500000D02*
X196531812Y-83500000D01*
X198014413Y-144460000D02*
X198029642Y-144458772D01*
X198014413Y-147000000D02*
X196531812Y-147000000D01*
X198028917Y-20000385D02*
X98971227Y-20000357D01*
X198028917Y-207959614D02*
X198030000Y-207944413D01*
X198029642Y-80958772D02*
X198030000Y-53858612D01*
X198029642Y-144458772D02*
X198030000Y-117358612D01*
X198029647Y-83501275D02*
X198014413Y-83500000D01*
X198029647Y-147001275D02*
X198014413Y-147000000D01*
X198030000Y-20015586D02*
X198028917Y-20000385D01*
X198030000Y-48320587D02*
X198030000Y-20015586D01*
X198030000Y-53858612D02*
X198031528Y-53796333D01*
X198030000Y-111820587D02*
X198029647Y-83501275D01*
X198030000Y-117358612D02*
X198031528Y-117296333D01*
X198030000Y-175320587D02*
X198029647Y-147001275D01*
X198030000Y-180858612D02*
X198031528Y-180796333D01*
X198030000Y-207944413D02*
X198030000Y-180858612D01*
X198031528Y-48382866D02*
X198030000Y-48320587D01*
X198031528Y-53796333D02*
X198036110Y-53734216D01*
X198031528Y-111882866D02*
X198030000Y-111820587D01*
X198031528Y-117296333D02*
X198036110Y-117234216D01*
X198031528Y-175382866D02*
X198030000Y-175320587D01*
X198031528Y-180796333D02*
X198036110Y-180734216D01*
X198036110Y-48444983D02*
X198031528Y-48382866D01*
X198036110Y-53734216D02*
X198043735Y-53672399D01*
X198036110Y-111944983D02*
X198031528Y-111882866D01*
X198036110Y-117234216D02*
X198043735Y-117172399D01*
X198036110Y-175444983D02*
X198031528Y-175382866D01*
X198036110Y-180734216D02*
X198043735Y-180672399D01*
X198043735Y-48506800D02*
X198036110Y-48444983D01*
X198043735Y-53672399D02*
X198054383Y-53611030D01*
X198043735Y-112006800D02*
X198036110Y-111944983D01*
X198043735Y-117172399D02*
X198054383Y-117111030D01*
X198043735Y-175506800D02*
X198036110Y-175444983D01*
X198043735Y-180672399D02*
X198054383Y-180611030D01*
X198054383Y-48568169D02*
X198043735Y-48506800D01*
X198054383Y-53611030D02*
X198068030Y-53550258D01*
X198054383Y-112068169D02*
X198043735Y-112006800D01*
X198054383Y-117111030D02*
X198068030Y-117050258D01*
X198054383Y-175568169D02*
X198043735Y-175506800D01*
X198054383Y-180611030D02*
X198068030Y-180550258D01*
X198068030Y-48628941D02*
X198054383Y-48568169D01*
X198068030Y-53550258D02*
X198084643Y-53490228D01*
X198068030Y-112128941D02*
X198054383Y-112068169D01*
X198068030Y-117050258D02*
X198084643Y-116990228D01*
X198068030Y-175628941D02*
X198054383Y-175568169D01*
X198068030Y-180550258D02*
X198084643Y-180490228D01*
X198084643Y-48688971D02*
X198068030Y-48628941D01*
X198084643Y-53490228D02*
X198104180Y-53431086D01*
X198084643Y-112188971D02*
X198068030Y-112128941D01*
X198084643Y-116990228D02*
X198104180Y-116931086D01*
X198084643Y-175688971D02*
X198068030Y-175628941D01*
X198084643Y-180490228D02*
X198104180Y-180431086D01*
X198104180Y-48748113D02*
X198084643Y-48688971D01*
X198104180Y-53431086D02*
X198126597Y-53372974D01*
X198104180Y-112248113D02*
X198084643Y-112188971D01*
X198104180Y-116931086D02*
X198126597Y-116872974D01*
X198104180Y-175748113D02*
X198084643Y-175688971D01*
X198104180Y-180431086D02*
X198126597Y-180372974D01*
X198126597Y-48806225D02*
X198104180Y-48748113D01*
X198126597Y-53372974D02*
X198151837Y-53316032D01*
X198126597Y-112306225D02*
X198104180Y-112248113D01*
X198126597Y-116872974D02*
X198151837Y-116816032D01*
X198126597Y-175806225D02*
X198104180Y-175748113D01*
X198126597Y-180372974D02*
X198151837Y-180316032D01*
X198151837Y-48863167D02*
X198126597Y-48806225D01*
X198151837Y-53316032D02*
X198179842Y-53260397D01*
X198151837Y-112363167D02*
X198126597Y-112306225D01*
X198151837Y-116816032D02*
X198179842Y-116760397D01*
X198151837Y-175863167D02*
X198126597Y-175806225D01*
X198151837Y-180316032D02*
X198179842Y-180260397D01*
X198179842Y-48918802D02*
X198151837Y-48863167D01*
X198179842Y-53260397D02*
X198210542Y-53206203D01*
X198179842Y-112418802D02*
X198151837Y-112363167D01*
X198179842Y-116760397D02*
X198210542Y-116706203D01*
X198179842Y-175918802D02*
X198151837Y-175863167D01*
X198179842Y-180260397D02*
X198210542Y-180206203D01*
X198210542Y-48972996D02*
X198179842Y-48918802D01*
X198210542Y-53206203D02*
X198243865Y-53153581D01*
X198210542Y-112472996D02*
X198179842Y-112418802D01*
X198210542Y-116706203D02*
X198243865Y-116653581D01*
X198210542Y-175972996D02*
X198179842Y-175918802D01*
X198210542Y-180206203D02*
X198243865Y-180153581D01*
X198243865Y-49025618D02*
X198210542Y-48972996D01*
X198243865Y-53153581D02*
X198279729Y-53102657D01*
X198243865Y-112525618D02*
X198210542Y-112472996D01*
X198243865Y-116653581D02*
X198279729Y-116602657D01*
X198243865Y-176025618D02*
X198210542Y-175972996D01*
X198243865Y-180153581D02*
X198279729Y-180102657D01*
X198279729Y-49076542D02*
X198243865Y-49025618D01*
X198279729Y-53102657D02*
X198318049Y-53053555D01*
X198279729Y-112576542D02*
X198243865Y-112525618D01*
X198279729Y-116602657D02*
X198318049Y-116553555D01*
X198279729Y-176076542D02*
X198243865Y-176025618D01*
X198279729Y-180102657D02*
X198318049Y-180053555D01*
X198318049Y-49125644D02*
X198279729Y-49076542D01*
X198318049Y-53053555D02*
X198358733Y-53006391D01*
X198318049Y-112625644D02*
X198279729Y-112576542D01*
X198318049Y-116553555D02*
X198358733Y-116506391D01*
X198318049Y-176125644D02*
X198279729Y-176076542D01*
X198318049Y-180053555D02*
X198358733Y-180006391D01*
X198358733Y-49172808D02*
X198318049Y-49125644D01*
X198358733Y-53006391D02*
X198401681Y-52961281D01*
X198358733Y-112672808D02*
X198318049Y-112625644D01*
X198358733Y-116506391D02*
X198401681Y-116461281D01*
X198358733Y-176172808D02*
X198318049Y-176125644D01*
X198358733Y-180006391D02*
X198401681Y-179961281D01*
X198401681Y-49217918D02*
X198358733Y-49172808D01*
X198401681Y-52961281D02*
X198446791Y-52918333D01*
X198401681Y-112717918D02*
X198358733Y-112672808D01*
X198401681Y-116461281D02*
X198446791Y-116418333D01*
X198401681Y-176217918D02*
X198358733Y-176172808D01*
X198401681Y-179961281D02*
X198446791Y-179918333D01*
X198446791Y-49260866D02*
X198401681Y-49217918D01*
X198446791Y-52918333D02*
X198493955Y-52877649D01*
X198446791Y-112760866D02*
X198401681Y-112717918D01*
X198446791Y-116418333D02*
X198493955Y-116377649D01*
X198446791Y-176260866D02*
X198401681Y-176217918D01*
X198446791Y-179918333D02*
X198493955Y-179877649D01*
X198493955Y-49301550D02*
X198446791Y-49260866D01*
X198493955Y-52877649D02*
X198543057Y-52839329D01*
X198493955Y-112801550D02*
X198446791Y-112760866D01*
X198493955Y-116377649D02*
X198543057Y-116339329D01*
X198493955Y-176301550D02*
X198446791Y-176260866D01*
X198493955Y-179877649D02*
X198543057Y-179839329D01*
X198543057Y-49339870D02*
X198493955Y-49301550D01*
X198543057Y-52839329D02*
X198593981Y-52803465D01*
X198543057Y-112839870D02*
X198493955Y-112801550D01*
X198543057Y-116339329D02*
X198593981Y-116303465D01*
X198543057Y-176339870D02*
X198493955Y-176301550D01*
X198543057Y-179839329D02*
X198593981Y-179803465D01*
X198593981Y-49375734D02*
X198543057Y-49339870D01*
X198593981Y-52803465D02*
X198646603Y-52770142D01*
X198593981Y-112875734D02*
X198543057Y-112839870D01*
X198593981Y-116303465D02*
X198646603Y-116270142D01*
X198593981Y-176375734D02*
X198543057Y-176339870D01*
X198593981Y-179803465D02*
X198646603Y-179770142D01*
X198646603Y-49409057D02*
X198593981Y-49375734D01*
X198646603Y-52770142D02*
X198700797Y-52739442D01*
X198646603Y-112909057D02*
X198593981Y-112875734D01*
X198646603Y-116270142D02*
X198700797Y-116239442D01*
X198646603Y-176409057D02*
X198593981Y-176375734D01*
X198646603Y-179770142D02*
X198700797Y-179739442D01*
X198700797Y-49439757D02*
X198646603Y-49409057D01*
X198700797Y-52739442D02*
X198756432Y-52711437D01*
X198700797Y-112939757D02*
X198646603Y-112909057D01*
X198700797Y-116239442D02*
X198756432Y-116211437D01*
X198700797Y-176439757D02*
X198646603Y-176409057D01*
X198700797Y-179739442D02*
X198756432Y-179711437D01*
X198756432Y-49467762D02*
X198700797Y-49439757D01*
X198756432Y-52711437D02*
X198813374Y-52686197D01*
X198756432Y-112967762D02*
X198700797Y-112939757D01*
X198756432Y-116211437D02*
X198813374Y-116186197D01*
X198756432Y-176467762D02*
X198700797Y-176439757D01*
X198756432Y-179711437D02*
X198813374Y-179686197D01*
X198813374Y-49493002D02*
X198756432Y-49467762D01*
X198813374Y-52686197D02*
X198871486Y-52663780D01*
X198813374Y-112993002D02*
X198756432Y-112967762D01*
X198813374Y-116186197D02*
X198871486Y-116163780D01*
X198813374Y-176493002D02*
X198756432Y-176467762D01*
X198813374Y-179686197D02*
X198871486Y-179663780D01*
X198871486Y-49515419D02*
X198813374Y-49493002D01*
X198871486Y-52663780D02*
X198930628Y-52644243D01*
X198871486Y-113015419D02*
X198813374Y-112993002D01*
X198871486Y-116163780D02*
X198930628Y-116144243D01*
X198871486Y-176515419D02*
X198813374Y-176493002D01*
X198871486Y-179663780D02*
X198930628Y-179644243D01*
X198930628Y-49534956D02*
X198871486Y-49515419D01*
X198930628Y-52644243D02*
X198990658Y-52627630D01*
X198930628Y-113034956D02*
X198871486Y-113015419D01*
X198930628Y-116144243D02*
X198990658Y-116127630D01*
X198930628Y-176534956D02*
X198871486Y-176515419D01*
X198930628Y-179644243D02*
X198990658Y-179627630D01*
X198990658Y-49551569D02*
X198930628Y-49534956D01*
X198990658Y-52627630D02*
X199051430Y-52613983D01*
X198990658Y-113051569D02*
X198930628Y-113034956D01*
X198990658Y-116127630D02*
X199051430Y-116113983D01*
X198990658Y-176551569D02*
X198930628Y-176534956D01*
X198990658Y-179627630D02*
X199051430Y-179613983D01*
X199051430Y-49565216D02*
X198990658Y-49551569D01*
X199051430Y-52613983D02*
X199112799Y-52603335D01*
X199051430Y-113065216D02*
X198990658Y-113051569D01*
X199051430Y-116113983D02*
X199112799Y-116103335D01*
X199051430Y-176565216D02*
X198990658Y-176551569D01*
X199051430Y-179613983D02*
X199112799Y-179603335D01*
X199112799Y-49575864D02*
X199051430Y-49565216D01*
X199112799Y-52603335D02*
X199174616Y-52595710D01*
X199112799Y-113075864D02*
X199051430Y-113065216D01*
X199112799Y-116103335D02*
X199174616Y-116095710D01*
X199112799Y-176575864D02*
X199051430Y-176565216D01*
X199112799Y-179603335D02*
X199174616Y-179595710D01*
X199174616Y-49583489D02*
X199112799Y-49575864D01*
X199174616Y-52595710D02*
X199236733Y-52591128D01*
X199174616Y-113083489D02*
X199112799Y-113075864D01*
X199174616Y-116095710D02*
X199236733Y-116091128D01*
X199174616Y-176583489D02*
X199112799Y-176575864D01*
X199174616Y-179595710D02*
X199236733Y-179591128D01*
X199236733Y-49588071D02*
X199174616Y-49583489D01*
X199236733Y-52591128D02*
X199299012Y-52589600D01*
X199236733Y-113088071D02*
X199174616Y-113083489D01*
X199236733Y-116091128D02*
X199299012Y-116089600D01*
X199236733Y-176588071D02*
X199174616Y-176583489D01*
X199236733Y-179591128D02*
X199300987Y-179589600D01*
X199299012Y-52589600D02*
X199363266Y-52591128D01*
X199299012Y-116089600D02*
X199363266Y-116091128D01*
X199300987Y-49589600D02*
X199236733Y-49588071D01*
X199300987Y-113089600D02*
X199236733Y-113088071D01*
X199300987Y-176589600D02*
X199236733Y-176588071D01*
X199300987Y-179589600D02*
X199363266Y-179591128D01*
X199363266Y-49588071D02*
X199300987Y-49589600D01*
X199363266Y-52591128D02*
X199425383Y-52595710D01*
X199363266Y-113088071D02*
X199300987Y-113089600D01*
X199363266Y-116091128D02*
X199425383Y-116095710D01*
X199363266Y-176588071D02*
X199300987Y-176589600D01*
X199363266Y-179591128D02*
X199425383Y-179595710D01*
X199425383Y-49583489D02*
X199363266Y-49588071D01*
X199425383Y-52595710D02*
X199487200Y-52603335D01*
X199425383Y-113083489D02*
X199363266Y-113088071D01*
X199425383Y-116095710D02*
X199487200Y-116103335D01*
X199425383Y-176583489D02*
X199363266Y-176588071D01*
X199425383Y-179595710D02*
X199487200Y-179603335D01*
X199487200Y-49575864D02*
X199425383Y-49583489D01*
X199487200Y-52603335D02*
X199548569Y-52613983D01*
X199487200Y-113075864D02*
X199425383Y-113083489D01*
X199487200Y-116103335D02*
X199548569Y-116113983D01*
X199487200Y-176575864D02*
X199425383Y-176583489D01*
X199487200Y-179603335D02*
X199548569Y-179613983D01*
X199548569Y-49565216D02*
X199487200Y-49575864D01*
X199548569Y-52613983D02*
X199609341Y-52627630D01*
X199548569Y-113065216D02*
X199487200Y-113075864D01*
X199548569Y-116113983D02*
X199609341Y-116127630D01*
X199548569Y-176565216D02*
X199487200Y-176575864D01*
X199548569Y-179613983D02*
X199609341Y-179627630D01*
X199609341Y-49551569D02*
X199548569Y-49565216D01*
X199609341Y-52627630D02*
X199669371Y-52644243D01*
X199609341Y-113051569D02*
X199548569Y-113065216D01*
X199609341Y-116127630D02*
X199669371Y-116144243D01*
X199609341Y-176551569D02*
X199548569Y-176565216D01*
X199609341Y-179627630D02*
X199669371Y-179644243D01*
X199669371Y-49534956D02*
X199609341Y-49551569D01*
X199669371Y-52644243D02*
X199728513Y-52663780D01*
X199669371Y-113034956D02*
X199609341Y-113051569D01*
X199669371Y-116144243D02*
X199728513Y-116163780D01*
X199669371Y-176534956D02*
X199609341Y-176551569D01*
X199669371Y-179644243D02*
X199728513Y-179663780D01*
X199728513Y-49515419D02*
X199669371Y-49534956D01*
X199728513Y-52663780D02*
X199786625Y-52686197D01*
X199728513Y-113015419D02*
X199669371Y-113034956D01*
X199728513Y-116163780D02*
X199786625Y-116186197D01*
X199728513Y-176515419D02*
X199669371Y-176534956D01*
X199728513Y-179663780D02*
X199786625Y-179686197D01*
X199786625Y-49493002D02*
X199728513Y-49515419D01*
X199786625Y-52686197D02*
X199843567Y-52711437D01*
X199786625Y-112993002D02*
X199728513Y-113015419D01*
X199786625Y-116186197D02*
X199843567Y-116211437D01*
X199786625Y-176493002D02*
X199728513Y-176515419D01*
X199786625Y-179686197D02*
X199843567Y-179711437D01*
X199843567Y-49467762D02*
X199786625Y-49493002D01*
X199843567Y-52711437D02*
X199899202Y-52739442D01*
X199843567Y-112967762D02*
X199786625Y-112993002D01*
X199843567Y-116211437D02*
X199899202Y-116239442D01*
X199843567Y-176467762D02*
X199786625Y-176493002D01*
X199843567Y-179711437D02*
X199899202Y-179739442D01*
X199899202Y-49439757D02*
X199843567Y-49467762D01*
X199899202Y-52739442D02*
X199953396Y-52770142D01*
X199899202Y-112939757D02*
X199843567Y-112967762D01*
X199899202Y-116239442D02*
X199953396Y-116270142D01*
X199899202Y-176439757D02*
X199843567Y-176467762D01*
X199899202Y-179739442D02*
X199953396Y-179770142D01*
X199953396Y-49409057D02*
X199899202Y-49439757D01*
X199953396Y-52770142D02*
X200006018Y-52803465D01*
X199953396Y-112909057D02*
X199899202Y-112939757D01*
X199953396Y-116270142D02*
X200006018Y-116303465D01*
X199953396Y-176409057D02*
X199899202Y-176439757D01*
X199953396Y-179770142D02*
X200006018Y-179803465D01*
X200006018Y-49375734D02*
X199953396Y-49409057D01*
X200006018Y-52803465D02*
X200056942Y-52839329D01*
X200006018Y-112875734D02*
X199953396Y-112909057D01*
X200006018Y-116303465D02*
X200056942Y-116339329D01*
X200006018Y-176375734D02*
X199953396Y-176409057D01*
X200006018Y-179803465D02*
X200056942Y-179839329D01*
X200056942Y-49339870D02*
X200006018Y-49375734D01*
X200056942Y-52839329D02*
X200106044Y-52877649D01*
X200056942Y-112839870D02*
X200006018Y-112875734D01*
X200056942Y-116339329D02*
X200106044Y-116377649D01*
X200056942Y-176339870D02*
X200006018Y-176375734D01*
X200056942Y-179839329D02*
X200106044Y-179877649D01*
X200106044Y-49301550D02*
X200056942Y-49339870D01*
X200106044Y-52877649D02*
X200153208Y-52918333D01*
X200106044Y-112801550D02*
X200056942Y-112839870D01*
X200106044Y-116377649D02*
X200153208Y-116418333D01*
X200106044Y-176301550D02*
X200056942Y-176339870D01*
X200106044Y-179877649D02*
X200153208Y-179918333D01*
X200153208Y-49260866D02*
X200106044Y-49301550D01*
X200153208Y-52918333D02*
X200198318Y-52961281D01*
X200153208Y-112760866D02*
X200106044Y-112801550D01*
X200153208Y-116418333D02*
X200198318Y-116461281D01*
X200153208Y-176260866D02*
X200106044Y-176301550D01*
X200153208Y-179918333D02*
X200198318Y-179961281D01*
X200198318Y-49217918D02*
X200153208Y-49260866D01*
X200198318Y-52961281D02*
X200241266Y-53006391D01*
X200198318Y-112717918D02*
X200153208Y-112760866D01*
X200198318Y-116461281D02*
X200241266Y-116506391D01*
X200198318Y-176217918D02*
X200153208Y-176260866D01*
X200198318Y-179961281D02*
X200241266Y-180006391D01*
X200241266Y-49172808D02*
X200198318Y-49217918D01*
X200241266Y-53006391D02*
X200281950Y-53053555D01*
X200241266Y-112672808D02*
X200198318Y-112717918D01*
X200241266Y-116506391D02*
X200281950Y-116553555D01*
X200241266Y-176172808D02*
X200198318Y-176217918D01*
X200241266Y-180006391D02*
X200281950Y-180053555D01*
X200281950Y-49125644D02*
X200241266Y-49172808D01*
X200281950Y-53053555D02*
X200320270Y-53102657D01*
X200281950Y-112625644D02*
X200241266Y-112672808D01*
X200281950Y-116553555D02*
X200320270Y-116602657D01*
X200281950Y-176125644D02*
X200241266Y-176172808D01*
X200281950Y-180053555D02*
X200320270Y-180102657D01*
X200320270Y-49076542D02*
X200281950Y-49125644D01*
X200320270Y-53102657D02*
X200356134Y-53153581D01*
X200320270Y-112576542D02*
X200281950Y-112625644D01*
X200320270Y-116602657D02*
X200356134Y-116653581D01*
X200320270Y-176076542D02*
X200281950Y-176125644D01*
X200320270Y-180102657D02*
X200356134Y-180153581D01*
X200356134Y-49025618D02*
X200320270Y-49076542D01*
X200356134Y-53153581D02*
X200389457Y-53206203D01*
X200356134Y-112525618D02*
X200320270Y-112576542D01*
X200356134Y-116653581D02*
X200389457Y-116706203D01*
X200356134Y-176025618D02*
X200320270Y-176076542D01*
X200356134Y-180153581D02*
X200389457Y-180206203D01*
X200389457Y-48972996D02*
X200356134Y-49025618D01*
X200389457Y-53206203D02*
X200420157Y-53260397D01*
X200389457Y-112472996D02*
X200356134Y-112525618D01*
X200389457Y-116706203D02*
X200420157Y-116760397D01*
X200389457Y-175972996D02*
X200356134Y-176025618D01*
X200389457Y-180206203D02*
X200420157Y-180260397D01*
X200420157Y-48918802D02*
X200389457Y-48972996D01*
X200420157Y-53260397D02*
X200448162Y-53316032D01*
X200420157Y-112418802D02*
X200389457Y-112472996D01*
X200420157Y-116760397D02*
X200448162Y-116816032D01*
X200420157Y-175918802D02*
X200389457Y-175972996D01*
X200420157Y-180260397D02*
X200448162Y-180316032D01*
X200448162Y-48863167D02*
X200420157Y-48918802D01*
X200448162Y-53316032D02*
X200473402Y-53372974D01*
X200448162Y-112363167D02*
X200420157Y-112418802D01*
X200448162Y-116816032D02*
X200473402Y-116872974D01*
X200448162Y-175863167D02*
X200420157Y-175918802D01*
X200448162Y-180316032D02*
X200473402Y-180372974D01*
X200473402Y-48806225D02*
X200448162Y-48863167D01*
X200473402Y-53372974D02*
X200495819Y-53431086D01*
X200473402Y-112306225D02*
X200448162Y-112363167D01*
X200473402Y-116872974D02*
X200495819Y-116931086D01*
X200473402Y-175806225D02*
X200448162Y-175863167D01*
X200473402Y-180372974D02*
X200495819Y-180431086D01*
X200495819Y-48748113D02*
X200473402Y-48806225D01*
X200495819Y-53431086D02*
X200515356Y-53490228D01*
X200495819Y-112248113D02*
X200473402Y-112306225D01*
X200495819Y-116931086D02*
X200515356Y-116990228D01*
X200495819Y-175748113D02*
X200473402Y-175806225D01*
X200495819Y-180431086D02*
X200515356Y-180490228D01*
X200515356Y-48688971D02*
X200495819Y-48748113D01*
X200515356Y-53490228D02*
X200531969Y-53550258D01*
X200515356Y-112188971D02*
X200495819Y-112248113D01*
X200515356Y-116990228D02*
X200531969Y-117050258D01*
X200515356Y-175688971D02*
X200495819Y-175748113D01*
X200515356Y-180490228D02*
X200531969Y-180550258D01*
X200531969Y-48628941D02*
X200515356Y-48688971D01*
X200531969Y-53550258D02*
X200545616Y-53611030D01*
X200531969Y-112128941D02*
X200515356Y-112188971D01*
X200531969Y-117050258D02*
X200545616Y-117111030D01*
X200531969Y-175628941D02*
X200515356Y-175688971D01*
X200531969Y-180550258D02*
X200545616Y-180611030D01*
X200545616Y-48568169D02*
X200531969Y-48628941D01*
X200545616Y-53611030D02*
X200556264Y-53672399D01*
X200545616Y-112068169D02*
X200531969Y-112128941D01*
X200545616Y-117111030D02*
X200556264Y-117172399D01*
X200545616Y-175568169D02*
X200531969Y-175628941D01*
X200545616Y-180611030D02*
X200556264Y-180672399D01*
X200556264Y-48506800D02*
X200545616Y-48568169D01*
X200556264Y-53672399D02*
X200563889Y-53734216D01*
X200556264Y-112006800D02*
X200545616Y-112068169D01*
X200556264Y-117172399D02*
X200563889Y-117234216D01*
X200556264Y-175506800D02*
X200545616Y-175568169D01*
X200556264Y-180672399D02*
X200563889Y-180734216D01*
X200563889Y-48444983D02*
X200556264Y-48506800D01*
X200563889Y-53734216D02*
X200568471Y-53796333D01*
X200563889Y-111944983D02*
X200556264Y-112006800D01*
X200563889Y-117234216D02*
X200568471Y-117296333D01*
X200563889Y-175444983D02*
X200556264Y-175506800D01*
X200563889Y-180734216D02*
X200568471Y-180796333D01*
X200568471Y-48382866D02*
X200563889Y-48444983D01*
X200568471Y-53796333D02*
X200570000Y-53858612D01*
X200568471Y-111882866D02*
X200563889Y-111944983D01*
X200568471Y-117296333D02*
X200570000Y-117358612D01*
X200568471Y-175382866D02*
X200563889Y-175444983D01*
X200568471Y-180796333D02*
X200570000Y-180858612D01*
X200570000Y-48320587D02*
X200568471Y-48382866D01*
X200570000Y-53858612D02*
X200570000Y-111820587D01*
X200570000Y-111820587D02*
X200568471Y-111882866D01*
X200570000Y-117358612D02*
X200570000Y-175320587D01*
X200570000Y-175320587D02*
X200568471Y-175382866D01*
X200570000Y-180858612D02*
X200570373Y-207958869D01*
X200570373Y-20001130D02*
X200570000Y-48320587D01*
X200570373Y-207958869D02*
X200585586Y-207960000D01*
X200585586Y-20000000D02*
X200570373Y-20001130D01*
X200585586Y-207960000D02*
X205649185Y-207959495D01*
X205649185Y-207959495D02*
X205649495Y-20000814D01*
X205649495Y-20000814D02*
X200585586Y-20000000D01*
M02*
