M48
INCH,TZ
T1C0.0197
T2C0.0354
%
G90
G05
T1
X38965Y-12143
X38965Y-12537
X38965Y-12931
X38965Y-13325
X38965Y-25163
X38965Y-25557
X38965Y-25951
X38965Y-26345
X38965Y-37143
X38965Y-37537
X38965Y-37931
X38965Y-38325
X38965Y-50163
X38965Y-50557
X38965Y-50951
X38965Y-51345
X38965Y-62143
X38965Y-62537
X38965Y-62931
X38965Y-63325
X38965Y-75163
X38965Y-75557
X38965Y-75951
X38965Y-76345
X40114Y-32874
X40114Y-57874
X40134Y-31874
X40134Y-56874
X40508Y-32874
X40508Y-57874
X40528Y-31874
X40528Y-56874
X40901Y-32874
X40901Y-57874
X40921Y-31874
X40921Y-56874
X41295Y-32874
X41295Y-57874
X41315Y-31874
X41315Y-56874
X75674Y-32874
X75674Y-57874
X75694Y-31874
X75694Y-56874
X76068Y-32874
X76068Y-57874
X76088Y-31874
X76088Y-56874
X76461Y-32874
X76461Y-57874
X76481Y-31874
X76481Y-56874
X76855Y-32874
X76855Y-57874
X76875Y-31874
X76875Y-56874
X77965Y-19523
X77965Y-19917
X77965Y-20311
X77965Y-20705
X77965Y-44523
X77965Y-44917
X77965Y-45311
X77965Y-45705
X77965Y-69523
X77965Y-69917
X77965Y-70311
X77965Y-70705
T2
X41365Y-19558
X41365Y-21290
X41365Y-44558
X41365Y-46290
X41365Y-69558
X41365Y-71290
M30
