G04 #@! TF.GenerationSoftware,KiCad,Pcbnew,6.0.11-2627ca5db0~126~ubuntu22.04.1*
G04 #@! TF.CreationDate,2025-05-31T21:30:08-06:00*
G04 #@! TF.ProjectId,snd-defect,736e642d-6465-4666-9563-742e6b696361,rev?*
G04 #@! TF.SameCoordinates,Original*
G04 #@! TF.FileFunction,Legend,Top*
G04 #@! TF.FilePolarity,Positive*
%FSLAX46Y46*%
G04 Gerber Fmt 4.6, Leading zero omitted, Abs format (unit mm)*
G04 Created by KiCad (PCBNEW 6.0.11-2627ca5db0~126~ubuntu22.04.1) date 2025-05-31 21:30:08*
%MOMM*%
%LPD*%
G01*
G04 APERTURE LIST*
%ADD10C,0.203200*%
%ADD11C,0.000000*%
%ADD12C,0.150000*%
%ADD13C,0.152400*%
%ADD14C,0.304800*%
%ADD15C,0.300000*%
%ADD16C,0.120000*%
%ADD17C,0.127000*%
%ADD18C,0.200000*%
%ADD19C,0.400000*%
G04 APERTURE END LIST*
D10*
X79883000Y-98552000D02*
X79883000Y-101600000D01*
D11*
G36*
X95984042Y-85491825D02*
G01*
X95978634Y-85467666D01*
X95975232Y-85448902D01*
X95974044Y-85436232D01*
X95974345Y-85432400D01*
X95975278Y-85430354D01*
X96189513Y-85381593D01*
X96653581Y-85281570D01*
X97116988Y-85183795D01*
X97329239Y-85141781D01*
X97330149Y-85144194D01*
X97331753Y-85150105D01*
X97336647Y-85170798D01*
X97343130Y-85200618D01*
X97350406Y-85236326D01*
X97367036Y-85314577D01*
X97385952Y-85389757D01*
X97407123Y-85461819D01*
X97430519Y-85530719D01*
X97456111Y-85596411D01*
X97483867Y-85658849D01*
X97513759Y-85717989D01*
X97545756Y-85773783D01*
X97562535Y-85800412D01*
X97579829Y-85826188D01*
X97597634Y-85851105D01*
X97615947Y-85875157D01*
X97634763Y-85898339D01*
X97654080Y-85920646D01*
X97673893Y-85942070D01*
X97694199Y-85962607D01*
X97714993Y-85982252D01*
X97736273Y-86000997D01*
X97758034Y-86018839D01*
X97780272Y-86035770D01*
X97802985Y-86051786D01*
X97826167Y-86066880D01*
X97849816Y-86081047D01*
X97873928Y-86094281D01*
X97904719Y-86109611D01*
X97935705Y-86123320D01*
X97966887Y-86135408D01*
X97998260Y-86145875D01*
X98029824Y-86154723D01*
X98061575Y-86161949D01*
X98093513Y-86167555D01*
X98125635Y-86171540D01*
X98157938Y-86173905D01*
X98190422Y-86174649D01*
X98223083Y-86173773D01*
X98255920Y-86171276D01*
X98288931Y-86167158D01*
X98322113Y-86161420D01*
X98355464Y-86154061D01*
X98388984Y-86145082D01*
X98438373Y-86128639D01*
X98485153Y-86108753D01*
X98529243Y-86085537D01*
X98570565Y-86059103D01*
X98609038Y-86029565D01*
X98644583Y-85997035D01*
X98677121Y-85961626D01*
X98706572Y-85923449D01*
X98732855Y-85882619D01*
X98755893Y-85839247D01*
X98775605Y-85793446D01*
X98791911Y-85745329D01*
X98804732Y-85695009D01*
X98813988Y-85642598D01*
X98819601Y-85588209D01*
X98821489Y-85531954D01*
X98820889Y-85500879D01*
X98819073Y-85470576D01*
X98816015Y-85440977D01*
X98811688Y-85412010D01*
X98806068Y-85383605D01*
X98799128Y-85355692D01*
X98790842Y-85328201D01*
X98781184Y-85301061D01*
X98770129Y-85274202D01*
X98757651Y-85247555D01*
X98743724Y-85221047D01*
X98728322Y-85194610D01*
X98711420Y-85168173D01*
X98692991Y-85141666D01*
X98673010Y-85115018D01*
X98651450Y-85088159D01*
X98622386Y-85054269D01*
X98591748Y-85021162D01*
X98559034Y-84988497D01*
X98523744Y-84955934D01*
X98485379Y-84923131D01*
X98443438Y-84889747D01*
X98397420Y-84855441D01*
X98346826Y-84819872D01*
X98229908Y-84743581D01*
X98088681Y-84658146D01*
X97919144Y-84560837D01*
X97717295Y-84448927D01*
X97554125Y-84358770D01*
X97413652Y-84279461D01*
X97292378Y-84208817D01*
X97186805Y-84144656D01*
X97093436Y-84084794D01*
X97008774Y-84027048D01*
X96929320Y-83969237D01*
X96851578Y-83909176D01*
X96810401Y-83875104D01*
X96765313Y-83835435D01*
X96718092Y-83791912D01*
X96670515Y-83746281D01*
X96624360Y-83700287D01*
X96581405Y-83655673D01*
X96543428Y-83614184D01*
X96526861Y-83595157D01*
X96512206Y-83577566D01*
X96466976Y-83519060D01*
X96424940Y-83459662D01*
X96386083Y-83399324D01*
X96350391Y-83337996D01*
X96317849Y-83275631D01*
X96288443Y-83212180D01*
X96262158Y-83147594D01*
X96238979Y-83081824D01*
X96218893Y-83014823D01*
X96201885Y-82946541D01*
X96187941Y-82876930D01*
X96177045Y-82805941D01*
X96169183Y-82733526D01*
X96164342Y-82659636D01*
X96162506Y-82584223D01*
X96163661Y-82507238D01*
X96167978Y-82421743D01*
X96174844Y-82338290D01*
X96184263Y-82256871D01*
X96196238Y-82177478D01*
X96210772Y-82100103D01*
X96227868Y-82024737D01*
X96247530Y-81951371D01*
X96269759Y-81879999D01*
X96294560Y-81810610D01*
X96321936Y-81743198D01*
X96351889Y-81677754D01*
X96384423Y-81614269D01*
X96419541Y-81552735D01*
X96457245Y-81493145D01*
X96497540Y-81435489D01*
X96540428Y-81379760D01*
X96551995Y-81365893D01*
X96565129Y-81350879D01*
X96595296Y-81318178D01*
X96629316Y-81283195D01*
X96665576Y-81247468D01*
X96702465Y-81212535D01*
X96738370Y-81179933D01*
X96771678Y-81151201D01*
X96786855Y-81138767D01*
X96800778Y-81127877D01*
X96853622Y-81090068D01*
X96908413Y-81054174D01*
X96965111Y-81020206D01*
X97023679Y-80988177D01*
X97084078Y-80958099D01*
X97146270Y-80929985D01*
X97210217Y-80903847D01*
X97275881Y-80879698D01*
X97343224Y-80857549D01*
X97412207Y-80837414D01*
X97482791Y-80819304D01*
X97554940Y-80803233D01*
X97628613Y-80789212D01*
X97703775Y-80777254D01*
X97780385Y-80767371D01*
X97858406Y-80759577D01*
X97905780Y-80756768D01*
X97967392Y-80754704D01*
X98038364Y-80753400D01*
X98113817Y-80752874D01*
X98188873Y-80753141D01*
X98258654Y-80754219D01*
X98318282Y-80756123D01*
X98362878Y-80758871D01*
X98518513Y-80778129D01*
X98668591Y-80806967D01*
X98741489Y-80824935D01*
X98812929Y-80845244D01*
X98882889Y-80867877D01*
X98951344Y-80892816D01*
X99018273Y-80920044D01*
X99083653Y-80949542D01*
X99147460Y-80981292D01*
X99209673Y-81015277D01*
X99270267Y-81051479D01*
X99329220Y-81089880D01*
X99386510Y-81130463D01*
X99442113Y-81173209D01*
X99496007Y-81218100D01*
X99548168Y-81265119D01*
X99598574Y-81314248D01*
X99647203Y-81365470D01*
X99694030Y-81418765D01*
X99739033Y-81474117D01*
X99782190Y-81531508D01*
X99823477Y-81590919D01*
X99862872Y-81652334D01*
X99900351Y-81715734D01*
X99935893Y-81781100D01*
X99969473Y-81848417D01*
X100001070Y-81917665D01*
X100030660Y-81988827D01*
X100083728Y-82136821D01*
X100095095Y-82173007D01*
X100107066Y-82213715D01*
X100118988Y-82256392D01*
X100130206Y-82298481D01*
X100140069Y-82337429D01*
X100147922Y-82370679D01*
X100153113Y-82395678D01*
X100154506Y-82404285D01*
X100154989Y-82409871D01*
X100153218Y-82411785D01*
X100147735Y-82414669D01*
X100124606Y-82423651D01*
X100022521Y-82456614D01*
X99832330Y-82513654D01*
X99537628Y-82599665D01*
X99297452Y-82669096D01*
X99100536Y-82725430D01*
X98967120Y-82762979D01*
X98930550Y-82772931D01*
X98917445Y-82776054D01*
X98916246Y-82773576D01*
X98913807Y-82767477D01*
X98905803Y-82746068D01*
X98894624Y-82715134D01*
X98881461Y-82677982D01*
X98850847Y-82594465D01*
X98819542Y-82516359D01*
X98787465Y-82443567D01*
X98754538Y-82375993D01*
X98720681Y-82313542D01*
X98685814Y-82256116D01*
X98667977Y-82229258D01*
X98649858Y-82203621D01*
X98631446Y-82179192D01*
X98612733Y-82155959D01*
X98593707Y-82133911D01*
X98574359Y-82113035D01*
X98554679Y-82093320D01*
X98534657Y-82074753D01*
X98514283Y-82057322D01*
X98493548Y-82041016D01*
X98472440Y-82025822D01*
X98450951Y-82011728D01*
X98429070Y-81998723D01*
X98406787Y-81986794D01*
X98384093Y-81975929D01*
X98360978Y-81966116D01*
X98337430Y-81957344D01*
X98313442Y-81949600D01*
X98289002Y-81942872D01*
X98264100Y-81937149D01*
X98247445Y-81933908D01*
X98229612Y-81931065D01*
X98210781Y-81928620D01*
X98191130Y-81926576D01*
X98150085Y-81923692D01*
X98107908Y-81922420D01*
X98066028Y-81922769D01*
X98025876Y-81924747D01*
X98006895Y-81926349D01*
X97988883Y-81928361D01*
X97972017Y-81930785D01*
X97956478Y-81933621D01*
X97910985Y-81944719D01*
X97868162Y-81958438D01*
X97828002Y-81974789D01*
X97790496Y-81993781D01*
X97772736Y-82004270D01*
X97755636Y-82015422D01*
X97739195Y-82027240D01*
X97723413Y-82039723D01*
X97708288Y-82052873D01*
X97693820Y-82066692D01*
X97680006Y-82081181D01*
X97666847Y-82096340D01*
X97654341Y-82112170D01*
X97642488Y-82128674D01*
X97631285Y-82145852D01*
X97620733Y-82163705D01*
X97601574Y-82201442D01*
X97585003Y-82241894D01*
X97571012Y-82285070D01*
X97559592Y-82330980D01*
X97550735Y-82379632D01*
X97544433Y-82431038D01*
X97542617Y-82452492D01*
X97541411Y-82472993D01*
X97540832Y-82492631D01*
X97540895Y-82511493D01*
X97541615Y-82529669D01*
X97543007Y-82547247D01*
X97545088Y-82564318D01*
X97547873Y-82580968D01*
X97551377Y-82597288D01*
X97555616Y-82613366D01*
X97560606Y-82629291D01*
X97566361Y-82645152D01*
X97572898Y-82661037D01*
X97580231Y-82677037D01*
X97588377Y-82693239D01*
X97597350Y-82709732D01*
X97608721Y-82728957D01*
X97621408Y-82748276D01*
X97635422Y-82767698D01*
X97650774Y-82787233D01*
X97667474Y-82806892D01*
X97685531Y-82826686D01*
X97704957Y-82846625D01*
X97725761Y-82866718D01*
X97747955Y-82886977D01*
X97771548Y-82907412D01*
X97796551Y-82928032D01*
X97822974Y-82948849D01*
X97850827Y-82969873D01*
X97880121Y-82991114D01*
X97910866Y-83012582D01*
X97943072Y-83034288D01*
X97988571Y-83063986D01*
X98034276Y-83092749D01*
X98082909Y-83122158D01*
X98137188Y-83153791D01*
X98273570Y-83230046D01*
X98465183Y-83334149D01*
X98596252Y-83404912D01*
X98708865Y-83466474D01*
X98806000Y-83520544D01*
X98890634Y-83568834D01*
X98965742Y-83613057D01*
X99034302Y-83654923D01*
X99099290Y-83696144D01*
X99163683Y-83738432D01*
X99285773Y-83823457D01*
X99399701Y-83909840D01*
X99505574Y-83997749D01*
X99603498Y-84087351D01*
X99693580Y-84178813D01*
X99775925Y-84272303D01*
X99850641Y-84367988D01*
X99917834Y-84466036D01*
X99977611Y-84566614D01*
X100030077Y-84669889D01*
X100075339Y-84776030D01*
X100113505Y-84885202D01*
X100144679Y-84997575D01*
X100168969Y-85113314D01*
X100186481Y-85232589D01*
X100197322Y-85355565D01*
X100200346Y-85431145D01*
X100200475Y-85509090D01*
X100197794Y-85588457D01*
X100192383Y-85668303D01*
X100184327Y-85747686D01*
X100173708Y-85825664D01*
X100160608Y-85901293D01*
X100145111Y-85973632D01*
X100109012Y-86104910D01*
X100064085Y-86230606D01*
X100010530Y-86350542D01*
X99948548Y-86464544D01*
X99878338Y-86572436D01*
X99800103Y-86674042D01*
X99714041Y-86769186D01*
X99620354Y-86857693D01*
X99519242Y-86939387D01*
X99410906Y-87014092D01*
X99295546Y-87081633D01*
X99173363Y-87141833D01*
X99044557Y-87194518D01*
X98909328Y-87239511D01*
X98767877Y-87276637D01*
X98620406Y-87305720D01*
X98514152Y-87321059D01*
X98404847Y-87332653D01*
X98293939Y-87340460D01*
X98182873Y-87344438D01*
X98073097Y-87344547D01*
X97966058Y-87340745D01*
X97863203Y-87332991D01*
X97813796Y-87327619D01*
X97765978Y-87321243D01*
X97651209Y-87301359D01*
X97539746Y-87276111D01*
X97431602Y-87245506D01*
X97326792Y-87209556D01*
X97225331Y-87168268D01*
X97127233Y-87121652D01*
X97032512Y-87069718D01*
X96941184Y-87012474D01*
X96853262Y-86949931D01*
X96768761Y-86882096D01*
X96687695Y-86808981D01*
X96610080Y-86730594D01*
X96535928Y-86646943D01*
X96465256Y-86558040D01*
X96398077Y-86463892D01*
X96334406Y-86364510D01*
X96310826Y-86323935D01*
X96284278Y-86275257D01*
X96255961Y-86220890D01*
X96227073Y-86163250D01*
X96198814Y-86104749D01*
X96172381Y-86047803D01*
X96148975Y-85994826D01*
X96129794Y-85948232D01*
X96102753Y-85876436D01*
X96074596Y-85795479D01*
X96046984Y-85710950D01*
X96021580Y-85628439D01*
X96006719Y-85576749D01*
X96202938Y-85576749D01*
X96203172Y-85580196D01*
X96203869Y-85584528D01*
X96205044Y-85589866D01*
X96206710Y-85596330D01*
X96208883Y-85604042D01*
X96214806Y-85623691D01*
X96222928Y-85649782D01*
X96241270Y-85706367D01*
X96260557Y-85762308D01*
X96280757Y-85817540D01*
X96301840Y-85871999D01*
X96323775Y-85925618D01*
X96346530Y-85978332D01*
X96370075Y-86030077D01*
X96394378Y-86080788D01*
X96419409Y-86130399D01*
X96445137Y-86178845D01*
X96471530Y-86226061D01*
X96498558Y-86271982D01*
X96526189Y-86316544D01*
X96554393Y-86359679D01*
X96583139Y-86401325D01*
X96612395Y-86441415D01*
X96673633Y-86518940D01*
X96737507Y-86591982D01*
X96804039Y-86660555D01*
X96873252Y-86724674D01*
X96945169Y-86784352D01*
X97019812Y-86839605D01*
X97097204Y-86890446D01*
X97177368Y-86936892D01*
X97260327Y-86978954D01*
X97346104Y-87016650D01*
X97434720Y-87049992D01*
X97526199Y-87078995D01*
X97620564Y-87103674D01*
X97717838Y-87124043D01*
X97818042Y-87140117D01*
X97921200Y-87151909D01*
X97976942Y-87155499D01*
X98044739Y-87157344D01*
X98120704Y-87157552D01*
X98200953Y-87156231D01*
X98281599Y-87153487D01*
X98358755Y-87149429D01*
X98428536Y-87144163D01*
X98487056Y-87137798D01*
X98569690Y-87125429D01*
X98650114Y-87110808D01*
X98728334Y-87093934D01*
X98804357Y-87074805D01*
X98878189Y-87053419D01*
X98949837Y-87029774D01*
X99019305Y-87003867D01*
X99086601Y-86975697D01*
X99151731Y-86945261D01*
X99214701Y-86912558D01*
X99275517Y-86877585D01*
X99334185Y-86840341D01*
X99390712Y-86800822D01*
X99445104Y-86759028D01*
X99497366Y-86714956D01*
X99547506Y-86668604D01*
X99593482Y-86622168D01*
X99636973Y-86574368D01*
X99678009Y-86525146D01*
X99716618Y-86474444D01*
X99752830Y-86422204D01*
X99786672Y-86368368D01*
X99818175Y-86312879D01*
X99847367Y-86255678D01*
X99874276Y-86196707D01*
X99898933Y-86135910D01*
X99921365Y-86073227D01*
X99941603Y-86008601D01*
X99959674Y-85941974D01*
X99975607Y-85873289D01*
X99989432Y-85802486D01*
X100001178Y-85729510D01*
X100003751Y-85708212D01*
X100005916Y-85682326D01*
X100009049Y-85619399D01*
X100010629Y-85545955D01*
X100010703Y-85467219D01*
X100009322Y-85388418D01*
X100006536Y-85314775D01*
X100002393Y-85251518D01*
X99996944Y-85203871D01*
X99990217Y-85165124D01*
X99981885Y-85123294D01*
X99972264Y-85079661D01*
X99961667Y-85035507D01*
X99950408Y-84992114D01*
X99938803Y-84950764D01*
X99927164Y-84912737D01*
X99915806Y-84879315D01*
X99904951Y-84850955D01*
X99893061Y-84822033D01*
X99880194Y-84792648D01*
X99866406Y-84762899D01*
X99851753Y-84732885D01*
X99836294Y-84702706D01*
X99803181Y-84642249D01*
X99767522Y-84582320D01*
X99729770Y-84523715D01*
X99710252Y-84495157D01*
X99690382Y-84467227D01*
X99670216Y-84440024D01*
X99649811Y-84413648D01*
X99636023Y-84396916D01*
X99619738Y-84378145D01*
X99580942Y-84335729D01*
X99535945Y-84288881D01*
X99487269Y-84240082D01*
X99437435Y-84191812D01*
X99388965Y-84146552D01*
X99344382Y-84106782D01*
X99306206Y-84074982D01*
X99218746Y-84007770D01*
X99131856Y-83944609D01*
X99041279Y-83882870D01*
X98942757Y-83819924D01*
X98832030Y-83753141D01*
X98704841Y-83679893D01*
X98556932Y-83597550D01*
X98384045Y-83503482D01*
X98210104Y-83408756D01*
X98065012Y-83327622D01*
X98002026Y-83291336D01*
X97944741Y-83257469D01*
X97892655Y-83225694D01*
X97845265Y-83195683D01*
X97802066Y-83167112D01*
X97762556Y-83139652D01*
X97726232Y-83112978D01*
X97692589Y-83086763D01*
X97661125Y-83060680D01*
X97631337Y-83034403D01*
X97602720Y-83007605D01*
X97574772Y-82979960D01*
X97548015Y-82952226D01*
X97523270Y-82925044D01*
X97500479Y-82898301D01*
X97479588Y-82871888D01*
X97460542Y-82845695D01*
X97443283Y-82819610D01*
X97427756Y-82793523D01*
X97413906Y-82767323D01*
X97401676Y-82740900D01*
X97391011Y-82714143D01*
X97381855Y-82686942D01*
X97374152Y-82659186D01*
X97367846Y-82630764D01*
X97362882Y-82601566D01*
X97359204Y-82571481D01*
X97356756Y-82540399D01*
X97355066Y-82491545D01*
X97356039Y-82442989D01*
X97359608Y-82394899D01*
X97365708Y-82347440D01*
X97374271Y-82300780D01*
X97385232Y-82255083D01*
X97398524Y-82210517D01*
X97414082Y-82167248D01*
X97431840Y-82125443D01*
X97451730Y-82085267D01*
X97473688Y-82046888D01*
X97497646Y-82010471D01*
X97523540Y-81976184D01*
X97551302Y-81944192D01*
X97580866Y-81914662D01*
X97596304Y-81900872D01*
X97612167Y-81887760D01*
X97658749Y-81854326D01*
X97709029Y-81824946D01*
X97762555Y-81799638D01*
X97818873Y-81778421D01*
X97877530Y-81761313D01*
X97938076Y-81748333D01*
X98000055Y-81739499D01*
X98063017Y-81734831D01*
X98126507Y-81734346D01*
X98190075Y-81738064D01*
X98253266Y-81746002D01*
X98315628Y-81758180D01*
X98376708Y-81774616D01*
X98436055Y-81795329D01*
X98493214Y-81820337D01*
X98547734Y-81849660D01*
X98563577Y-81859674D01*
X98580556Y-81871599D01*
X98598481Y-81885247D01*
X98617165Y-81900427D01*
X98636419Y-81916950D01*
X98656056Y-81934628D01*
X98675887Y-81953272D01*
X98695724Y-81972691D01*
X98715379Y-81992698D01*
X98734664Y-82013102D01*
X98753392Y-82033715D01*
X98771373Y-82054348D01*
X98788419Y-82074811D01*
X98804344Y-82094916D01*
X98818957Y-82114473D01*
X98832073Y-82133293D01*
X98854143Y-82168246D01*
X98877140Y-82207332D01*
X98900534Y-82249528D01*
X98923795Y-82293807D01*
X98946395Y-82339145D01*
X98967804Y-82384515D01*
X98987493Y-82428894D01*
X99004933Y-82471255D01*
X99009269Y-82482141D01*
X99013293Y-82492066D01*
X99017023Y-82501060D01*
X99020478Y-82509156D01*
X99023676Y-82516383D01*
X99026637Y-82522774D01*
X99028035Y-82525664D01*
X99029379Y-82528358D01*
X99030674Y-82530857D01*
X99031921Y-82533167D01*
X99033122Y-82535290D01*
X99034280Y-82537232D01*
X99035398Y-82538995D01*
X99036477Y-82540583D01*
X99037519Y-82542001D01*
X99038528Y-82543253D01*
X99039505Y-82544342D01*
X99040454Y-82545271D01*
X99041375Y-82546046D01*
X99042272Y-82546670D01*
X99043146Y-82547146D01*
X99044001Y-82547479D01*
X99044838Y-82547672D01*
X99045659Y-82547730D01*
X99046468Y-82547656D01*
X99047267Y-82547454D01*
X99484711Y-82420454D01*
X99789599Y-82331819D01*
X99885059Y-82303476D01*
X99912320Y-82295121D01*
X99923567Y-82291338D01*
X99925293Y-82290489D01*
X99926757Y-82289476D01*
X99927946Y-82288217D01*
X99928847Y-82286630D01*
X99929447Y-82284634D01*
X99929731Y-82282148D01*
X99929686Y-82279088D01*
X99929299Y-82275374D01*
X99928557Y-82270925D01*
X99927446Y-82265658D01*
X99924063Y-82252345D01*
X99919043Y-82234782D01*
X99912278Y-82212315D01*
X99897666Y-82166900D01*
X99881896Y-82121715D01*
X99865005Y-82076823D01*
X99847025Y-82032288D01*
X99827991Y-81988176D01*
X99807937Y-81944549D01*
X99786897Y-81901472D01*
X99764905Y-81859008D01*
X99741995Y-81817223D01*
X99718202Y-81776180D01*
X99693559Y-81735943D01*
X99668100Y-81696576D01*
X99641861Y-81658144D01*
X99614874Y-81620710D01*
X99587173Y-81584338D01*
X99558794Y-81549093D01*
X99546256Y-81534395D01*
X99532306Y-81518724D01*
X99500873Y-81485130D01*
X99465901Y-81449651D01*
X99428796Y-81413627D01*
X99390963Y-81378396D01*
X99353808Y-81345298D01*
X99318737Y-81315673D01*
X99302422Y-81302581D01*
X99287156Y-81290860D01*
X99241669Y-81257926D01*
X99195156Y-81226592D01*
X99147600Y-81196851D01*
X99098982Y-81168699D01*
X99049285Y-81142131D01*
X98998491Y-81117140D01*
X98946583Y-81093723D01*
X98893544Y-81071873D01*
X98839355Y-81051586D01*
X98784000Y-81032857D01*
X98727460Y-81015680D01*
X98669718Y-81000050D01*
X98610756Y-80985962D01*
X98550557Y-80973411D01*
X98489104Y-80962392D01*
X98426378Y-80952899D01*
X98380171Y-80948220D01*
X98317998Y-80944311D01*
X98244993Y-80941278D01*
X98166292Y-80939229D01*
X98087029Y-80938271D01*
X98012338Y-80938512D01*
X97947354Y-80940060D01*
X97897211Y-80943021D01*
X97736174Y-80961779D01*
X97658816Y-80974401D01*
X97583577Y-80989174D01*
X97510464Y-81006091D01*
X97439489Y-81025143D01*
X97370658Y-81046324D01*
X97303982Y-81069624D01*
X97239469Y-81095037D01*
X97177129Y-81122555D01*
X97116969Y-81152170D01*
X97058999Y-81183875D01*
X97003228Y-81217660D01*
X96949665Y-81253520D01*
X96898318Y-81291446D01*
X96849197Y-81331429D01*
X96802310Y-81373464D01*
X96757667Y-81417541D01*
X96715276Y-81463653D01*
X96675146Y-81511792D01*
X96637287Y-81561951D01*
X96601706Y-81614122D01*
X96568414Y-81668297D01*
X96537418Y-81724468D01*
X96508729Y-81782627D01*
X96482354Y-81842768D01*
X96458302Y-81904881D01*
X96436583Y-81968959D01*
X96417206Y-82034995D01*
X96400179Y-82102981D01*
X96385511Y-82172909D01*
X96373211Y-82244771D01*
X96365695Y-82298710D01*
X96359550Y-82352267D01*
X96354772Y-82405377D01*
X96351361Y-82457970D01*
X96349315Y-82509980D01*
X96348630Y-82561341D01*
X96349306Y-82611984D01*
X96351339Y-82661842D01*
X96354729Y-82710849D01*
X96359472Y-82758938D01*
X96365568Y-82806040D01*
X96373013Y-82852089D01*
X96381806Y-82897018D01*
X96391945Y-82940759D01*
X96403427Y-82983245D01*
X96416250Y-83024410D01*
X96430568Y-83065272D01*
X96446756Y-83106305D01*
X96464748Y-83147415D01*
X96484480Y-83188506D01*
X96505886Y-83229487D01*
X96528901Y-83270261D01*
X96553460Y-83310736D01*
X96579498Y-83350817D01*
X96606950Y-83390411D01*
X96635751Y-83429422D01*
X96665836Y-83467757D01*
X96697139Y-83505323D01*
X96729595Y-83542024D01*
X96763140Y-83577768D01*
X96797708Y-83612459D01*
X96833234Y-83646004D01*
X96917305Y-83719936D01*
X97004287Y-83790445D01*
X97097949Y-83859994D01*
X97202063Y-83931048D01*
X97320398Y-84006072D01*
X97456724Y-84087528D01*
X97614813Y-84177880D01*
X97798433Y-84279593D01*
X98004191Y-84393176D01*
X98086217Y-84439248D01*
X98157032Y-84479706D01*
X98218652Y-84515699D01*
X98273096Y-84548377D01*
X98322380Y-84578888D01*
X98368522Y-84608382D01*
X98428733Y-84648659D01*
X98485347Y-84688340D01*
X98538472Y-84727539D01*
X98588215Y-84766371D01*
X98634683Y-84804951D01*
X98677986Y-84843394D01*
X98718228Y-84881814D01*
X98755520Y-84920326D01*
X98789966Y-84959044D01*
X98821676Y-84998084D01*
X98850757Y-85037560D01*
X98877316Y-85077587D01*
X98901461Y-85118280D01*
X98923298Y-85159753D01*
X98942937Y-85202121D01*
X98960483Y-85245499D01*
X98970247Y-85273647D01*
X98978899Y-85302971D01*
X98986435Y-85333341D01*
X98992851Y-85364627D01*
X98998142Y-85396699D01*
X99002304Y-85429425D01*
X99005334Y-85462677D01*
X99007226Y-85496324D01*
X99007978Y-85530235D01*
X99007585Y-85564280D01*
X99006042Y-85598330D01*
X99003346Y-85632253D01*
X98999492Y-85665921D01*
X98994477Y-85699201D01*
X98988296Y-85731965D01*
X98980945Y-85764082D01*
X98961652Y-85829301D01*
X98937992Y-85891272D01*
X98910098Y-85949891D01*
X98878099Y-86005052D01*
X98842127Y-86056648D01*
X98802314Y-86104576D01*
X98758790Y-86148729D01*
X98711687Y-86189003D01*
X98661136Y-86225291D01*
X98607269Y-86257489D01*
X98550216Y-86285490D01*
X98490110Y-86309190D01*
X98427080Y-86328483D01*
X98361259Y-86343263D01*
X98292777Y-86353426D01*
X98221767Y-86358865D01*
X98178094Y-86359654D01*
X98134936Y-86358334D01*
X98092317Y-86354926D01*
X98050264Y-86349454D01*
X98008804Y-86341942D01*
X97967962Y-86332412D01*
X97927765Y-86320888D01*
X97888238Y-86307393D01*
X97849407Y-86291949D01*
X97811299Y-86274580D01*
X97773940Y-86255309D01*
X97737356Y-86234160D01*
X97701573Y-86211154D01*
X97666617Y-86186316D01*
X97632514Y-86159669D01*
X97599291Y-86131235D01*
X97566972Y-86101038D01*
X97535586Y-86069101D01*
X97505156Y-86035447D01*
X97475711Y-86000100D01*
X97419875Y-85924415D01*
X97368287Y-85842233D01*
X97321156Y-85753738D01*
X97278690Y-85659115D01*
X97241098Y-85558550D01*
X97208589Y-85452226D01*
X97203879Y-85434397D01*
X97199351Y-85417676D01*
X97195120Y-85402443D01*
X97191303Y-85389079D01*
X97188015Y-85377964D01*
X97185372Y-85369478D01*
X97183490Y-85364002D01*
X97182870Y-85362511D01*
X97182484Y-85361916D01*
X96717611Y-85459017D01*
X96213050Y-85567232D01*
X96208208Y-85568551D01*
X96206344Y-85569388D01*
X96204870Y-85570506D01*
X96203802Y-85572025D01*
X96203153Y-85574065D01*
X96202938Y-85576749D01*
X96006719Y-85576749D01*
X96000045Y-85553534D01*
X95984042Y-85491825D01*
G37*
D10*
X140843000Y-101600000D02*
X140843000Y-111379000D01*
D11*
G36*
X94340506Y-78431773D02*
G01*
X94383104Y-78433120D01*
X94422791Y-78435278D01*
X94456790Y-78438197D01*
X94470788Y-78439926D01*
X94482322Y-78441827D01*
X94513070Y-78448208D01*
X94543392Y-78455706D01*
X94573275Y-78464312D01*
X94602708Y-78474018D01*
X94631678Y-78484815D01*
X94660172Y-78496695D01*
X94688179Y-78509650D01*
X94715685Y-78523671D01*
X94742679Y-78538751D01*
X94769147Y-78554881D01*
X94795079Y-78572053D01*
X94820460Y-78590258D01*
X94845279Y-78609489D01*
X94869524Y-78629736D01*
X94893181Y-78650992D01*
X94916239Y-78673249D01*
X94936074Y-78693729D01*
X94955098Y-78714685D01*
X94973310Y-78736115D01*
X94990708Y-78758015D01*
X95007292Y-78780382D01*
X95023060Y-78803213D01*
X95038012Y-78826505D01*
X95052147Y-78850255D01*
X95065463Y-78874460D01*
X95077959Y-78899116D01*
X95089634Y-78924221D01*
X95100488Y-78949772D01*
X95110520Y-78975764D01*
X95119727Y-79002196D01*
X95128110Y-79029064D01*
X95135667Y-79056365D01*
X95142158Y-79083767D01*
X95147612Y-79112168D01*
X95152032Y-79141424D01*
X95155422Y-79171393D01*
X95157788Y-79201933D01*
X95159132Y-79232900D01*
X95159459Y-79264153D01*
X95158774Y-79295549D01*
X95157079Y-79326944D01*
X95154381Y-79358197D01*
X95150681Y-79389165D01*
X95145985Y-79419705D01*
X95140298Y-79449674D01*
X95133622Y-79478930D01*
X95125962Y-79507330D01*
X95117322Y-79534732D01*
X95108828Y-79558673D01*
X95099739Y-79582094D01*
X95090037Y-79605021D01*
X95079707Y-79627480D01*
X95068733Y-79649496D01*
X95057097Y-79671096D01*
X95044782Y-79692305D01*
X95031774Y-79713149D01*
X95018054Y-79733655D01*
X95003607Y-79753847D01*
X94988415Y-79773752D01*
X94972463Y-79793395D01*
X94955734Y-79812803D01*
X94938211Y-79832001D01*
X94919877Y-79851015D01*
X94900717Y-79869871D01*
X94872720Y-79895817D01*
X94844022Y-79920212D01*
X94814617Y-79943059D01*
X94784499Y-79964360D01*
X94753661Y-79984120D01*
X94722098Y-80002340D01*
X94689804Y-80019025D01*
X94656771Y-80034177D01*
X94622994Y-80047800D01*
X94588467Y-80059896D01*
X94553184Y-80070468D01*
X94517137Y-80079520D01*
X94480322Y-80087055D01*
X94442731Y-80093076D01*
X94404360Y-80097586D01*
X94365200Y-80100588D01*
X94321475Y-80101916D01*
X94277932Y-80100892D01*
X94234653Y-80097547D01*
X94191722Y-80091911D01*
X94149220Y-80084014D01*
X94107231Y-80073885D01*
X94065838Y-80061555D01*
X94025122Y-80047054D01*
X93985168Y-80030411D01*
X93946056Y-80011656D01*
X93907871Y-79990820D01*
X93870694Y-79967932D01*
X93834609Y-79943023D01*
X93799698Y-79916122D01*
X93766043Y-79887260D01*
X93733728Y-79856465D01*
X93704336Y-79825820D01*
X93676759Y-79794228D01*
X93651006Y-79761718D01*
X93627090Y-79728319D01*
X93605022Y-79694060D01*
X93584813Y-79658970D01*
X93566475Y-79623079D01*
X93550019Y-79586414D01*
X93535456Y-79549005D01*
X93522799Y-79510881D01*
X93512057Y-79472071D01*
X93503243Y-79432603D01*
X93496368Y-79392507D01*
X93491443Y-79351811D01*
X93488479Y-79310545D01*
X93487489Y-79268737D01*
X93488245Y-79232264D01*
X93490497Y-79196155D01*
X93494216Y-79160445D01*
X93499377Y-79125168D01*
X93505954Y-79090358D01*
X93513920Y-79056050D01*
X93523248Y-79022277D01*
X93533913Y-78989073D01*
X93545886Y-78956473D01*
X93559143Y-78924511D01*
X93573656Y-78893220D01*
X93589399Y-78862636D01*
X93606346Y-78832791D01*
X93624470Y-78803720D01*
X93643744Y-78775458D01*
X93664143Y-78748038D01*
X93685639Y-78721494D01*
X93708206Y-78695861D01*
X93731818Y-78671173D01*
X93756448Y-78647463D01*
X93782069Y-78624766D01*
X93808656Y-78603117D01*
X93836182Y-78582548D01*
X93864620Y-78563094D01*
X93893943Y-78544790D01*
X93924126Y-78527669D01*
X93955141Y-78511766D01*
X93986963Y-78497114D01*
X94019565Y-78483748D01*
X94052920Y-78471701D01*
X94087001Y-78461009D01*
X94121784Y-78451705D01*
X94144383Y-78446391D01*
X94166057Y-78441474D01*
X94175761Y-78439371D01*
X94184291Y-78437616D01*
X94191333Y-78436290D01*
X94196572Y-78435477D01*
X94208603Y-78434153D01*
X94223031Y-78433087D01*
X94257691Y-78431706D01*
X94297776Y-78431285D01*
X94340506Y-78431773D01*
G37*
G36*
X104331878Y-80836482D02*
G01*
X104331878Y-82078260D01*
X102257544Y-82078260D01*
X102257544Y-83327093D01*
X103837989Y-83327093D01*
X103837989Y-84561815D01*
X102257544Y-84561815D01*
X102257544Y-86022315D01*
X104416545Y-86022315D01*
X104416545Y-87257037D01*
X100881711Y-87257037D01*
X100881711Y-87073593D01*
X101065155Y-87073593D01*
X104233100Y-87073593D01*
X104233100Y-86205760D01*
X102074099Y-86205760D01*
X102074099Y-84378371D01*
X103654544Y-84378371D01*
X103654544Y-83510538D01*
X102074099Y-83510538D01*
X102074099Y-81887760D01*
X104148433Y-81887760D01*
X104148433Y-81019927D01*
X101065155Y-81019927D01*
X101065155Y-87073593D01*
X100881711Y-87073593D01*
X100881711Y-80836482D01*
X104331878Y-80836482D01*
G37*
D10*
X120523000Y-98552000D02*
X130683000Y-98552000D01*
X79883000Y-98552000D02*
X110363000Y-98552000D01*
X79883000Y-101600000D02*
X140843000Y-101600000D01*
D12*
X59626500Y-102743000D02*
X65341500Y-102743000D01*
X65341500Y-102743000D02*
X65341500Y-107315000D01*
X65341500Y-107315000D02*
X59626500Y-107315000D01*
X59626500Y-107315000D02*
X59626500Y-102743000D01*
X88265000Y-66548000D02*
X95250000Y-66548000D01*
X95250000Y-66548000D02*
X95250000Y-71120000D01*
X95250000Y-71120000D02*
X88265000Y-71120000D01*
X88265000Y-71120000D02*
X88265000Y-66548000D01*
D10*
X149479000Y-76454000D02*
X146177000Y-76454000D01*
D11*
G36*
X93487489Y-83771593D02*
G01*
X93487489Y-83545815D01*
X93741489Y-83545815D01*
X93939045Y-83545815D01*
X94708100Y-83545815D01*
X94708100Y-83171871D01*
X93939045Y-83171871D01*
X93939045Y-83545815D01*
X93741489Y-83545815D01*
X93741489Y-83171871D01*
X93487489Y-83171871D01*
X93487489Y-82946093D01*
X93741489Y-82946093D01*
X93939045Y-82946093D01*
X94708100Y-82946093D01*
X94708100Y-82572149D01*
X93939045Y-82572149D01*
X93939045Y-82946093D01*
X93741489Y-82946093D01*
X93741489Y-82572149D01*
X93487489Y-82572149D01*
X93487489Y-82353426D01*
X93741489Y-82353426D01*
X93939045Y-82353426D01*
X94708100Y-82353426D01*
X94708100Y-81979482D01*
X93939045Y-81979482D01*
X93939045Y-82353426D01*
X93741489Y-82353426D01*
X93741489Y-81979482D01*
X93487489Y-81979482D01*
X93487489Y-81753704D01*
X93741489Y-81753704D01*
X93939045Y-81753704D01*
X94708100Y-81753704D01*
X94708100Y-81379760D01*
X93939045Y-81379760D01*
X93939045Y-81753704D01*
X93741489Y-81753704D01*
X93741489Y-81379760D01*
X93487489Y-81379760D01*
X93487489Y-81161038D01*
X93741489Y-81161038D01*
X93741489Y-80808260D01*
X93939045Y-80808260D01*
X93939045Y-81161038D01*
X94708100Y-81161038D01*
X94708100Y-80808260D01*
X94905656Y-80808260D01*
X94905656Y-81161038D01*
X95159656Y-81161038D01*
X95159656Y-81379760D01*
X94905656Y-81379760D01*
X94905656Y-81753704D01*
X95159656Y-81753704D01*
X95159656Y-81979482D01*
X94905656Y-81979482D01*
X94905656Y-82353426D01*
X95159656Y-82353426D01*
X95159656Y-82572149D01*
X94905656Y-82572149D01*
X94905656Y-82946093D01*
X95159656Y-82946093D01*
X95159656Y-83171871D01*
X94905656Y-83171871D01*
X94905656Y-83545815D01*
X95159656Y-83545815D01*
X95159656Y-83771593D01*
X94905656Y-83771593D01*
X94905656Y-84138482D01*
X95159656Y-84138482D01*
X95159656Y-84371316D01*
X94905656Y-84371316D01*
X94905656Y-84700104D01*
X94514072Y-85194698D01*
X94122489Y-85689998D01*
X94122489Y-86801954D01*
X94394128Y-87073593D01*
X95060878Y-87073593D01*
X95060878Y-86488687D01*
X95060850Y-86298420D01*
X95060785Y-86221087D01*
X95060657Y-86154530D01*
X95060564Y-86125037D01*
X95060447Y-86097932D01*
X95060305Y-86073112D01*
X95060134Y-86050475D01*
X95059932Y-86029920D01*
X95059696Y-86011343D01*
X95059425Y-85994643D01*
X95059114Y-85979717D01*
X95058762Y-85966464D01*
X95058366Y-85954780D01*
X95057924Y-85944565D01*
X95057685Y-85939975D01*
X95057433Y-85935715D01*
X95057168Y-85931770D01*
X95056890Y-85928129D01*
X95056598Y-85924777D01*
X95056292Y-85921704D01*
X95055973Y-85918895D01*
X95055638Y-85916338D01*
X95055289Y-85914020D01*
X95054925Y-85911929D01*
X95054545Y-85910051D01*
X95054149Y-85908374D01*
X95053737Y-85906886D01*
X95053309Y-85905573D01*
X95052864Y-85904422D01*
X95052402Y-85903421D01*
X95051922Y-85902558D01*
X95051425Y-85901818D01*
X95050909Y-85901190D01*
X95050375Y-85900661D01*
X95049822Y-85900218D01*
X95049251Y-85899847D01*
X95048660Y-85899538D01*
X95048049Y-85899276D01*
X95046767Y-85898843D01*
X95044437Y-85897951D01*
X95041955Y-85896739D01*
X95036580Y-85893418D01*
X95030743Y-85889003D01*
X95024542Y-85883618D01*
X95018076Y-85877386D01*
X95011445Y-85870429D01*
X95004748Y-85862871D01*
X94998084Y-85854834D01*
X94991552Y-85846441D01*
X94985251Y-85837816D01*
X94979282Y-85829082D01*
X94973742Y-85820361D01*
X94968731Y-85811776D01*
X94964349Y-85803451D01*
X94960695Y-85795508D01*
X94957867Y-85788071D01*
X94954840Y-85777921D01*
X94952368Y-85767358D01*
X94950447Y-85756450D01*
X94949069Y-85745264D01*
X94948229Y-85733867D01*
X94947920Y-85722326D01*
X94948136Y-85710709D01*
X94948871Y-85699083D01*
X94950118Y-85687514D01*
X94951872Y-85676071D01*
X94954126Y-85664820D01*
X94956875Y-85653828D01*
X94960111Y-85643163D01*
X94963828Y-85632891D01*
X94968021Y-85623081D01*
X94972683Y-85613799D01*
X94977212Y-85605715D01*
X94981824Y-85598109D01*
X94986554Y-85590949D01*
X94991436Y-85584198D01*
X94996504Y-85577824D01*
X95001792Y-85571792D01*
X95007334Y-85566067D01*
X95013165Y-85560617D01*
X95019318Y-85555406D01*
X95025827Y-85550402D01*
X95032728Y-85545568D01*
X95040053Y-85540872D01*
X95047837Y-85536280D01*
X95056114Y-85531757D01*
X95064918Y-85527269D01*
X95074283Y-85522782D01*
X95085611Y-85517806D01*
X95090772Y-85515736D01*
X95095715Y-85513929D01*
X95100525Y-85512375D01*
X95105289Y-85511061D01*
X95110095Y-85509977D01*
X95115029Y-85509112D01*
X95120178Y-85508452D01*
X95125629Y-85507988D01*
X95131469Y-85507709D01*
X95137784Y-85507601D01*
X95144661Y-85507655D01*
X95152187Y-85507859D01*
X95169533Y-85508670D01*
X95181590Y-85509468D01*
X95192927Y-85510553D01*
X95203603Y-85511948D01*
X95213675Y-85513675D01*
X95223201Y-85515759D01*
X95232240Y-85518220D01*
X95240848Y-85521083D01*
X95249085Y-85524369D01*
X95257007Y-85528102D01*
X95264673Y-85532304D01*
X95272141Y-85536998D01*
X95279468Y-85542207D01*
X95286712Y-85547953D01*
X95293932Y-85554259D01*
X95301184Y-85561148D01*
X95308528Y-85568643D01*
X95316394Y-85577135D01*
X95323604Y-85585453D01*
X95330176Y-85593654D01*
X95336133Y-85601793D01*
X95341494Y-85609928D01*
X95346281Y-85618116D01*
X95350513Y-85626413D01*
X95354213Y-85634877D01*
X95357399Y-85643564D01*
X95360094Y-85652531D01*
X95362318Y-85661835D01*
X95364090Y-85671533D01*
X95365433Y-85681681D01*
X95366367Y-85692337D01*
X95366912Y-85703557D01*
X95367089Y-85715398D01*
X95366939Y-85728911D01*
X95366221Y-85741938D01*
X95364928Y-85754492D01*
X95363054Y-85766584D01*
X95360593Y-85778226D01*
X95357539Y-85789428D01*
X95353886Y-85800203D01*
X95349626Y-85810561D01*
X95344755Y-85820513D01*
X95342089Y-85825341D01*
X95339266Y-85830072D01*
X95336288Y-85834708D01*
X95333153Y-85839249D01*
X95326409Y-85848054D01*
X95319029Y-85856500D01*
X95311006Y-85864598D01*
X95302333Y-85872358D01*
X95293006Y-85879793D01*
X95259139Y-85905899D01*
X95259139Y-86588170D01*
X95258433Y-87271148D01*
X94309461Y-87271148D01*
X94117550Y-87079238D01*
X93924934Y-86886621D01*
X93924934Y-85613799D01*
X94316517Y-85118499D01*
X94708100Y-84623904D01*
X94708100Y-84371316D01*
X93939045Y-84371316D01*
X93939045Y-84693754D01*
X93938339Y-85016898D01*
X93812045Y-85175648D01*
X93685750Y-85334398D01*
X93685045Y-86279843D01*
X93685045Y-87225287D01*
X93720322Y-87255627D01*
X93729867Y-87264099D01*
X93738668Y-87272608D01*
X93746744Y-87281189D01*
X93754112Y-87289879D01*
X93760789Y-87298713D01*
X93766794Y-87307728D01*
X93772143Y-87316961D01*
X93776855Y-87326446D01*
X93780947Y-87336221D01*
X93784436Y-87346322D01*
X93787340Y-87356784D01*
X93789676Y-87367644D01*
X93791463Y-87378938D01*
X93792718Y-87390703D01*
X93793458Y-87402974D01*
X93793700Y-87415787D01*
X93793779Y-87432326D01*
X93793655Y-87439622D01*
X93793403Y-87446369D01*
X93793005Y-87452645D01*
X93792448Y-87458526D01*
X93791714Y-87464089D01*
X93790790Y-87469410D01*
X93789659Y-87474565D01*
X93788305Y-87479632D01*
X93786714Y-87484686D01*
X93784870Y-87489804D01*
X93782757Y-87495063D01*
X93780359Y-87500539D01*
X93777662Y-87506308D01*
X93774650Y-87512448D01*
X93767326Y-87526180D01*
X93759379Y-87539063D01*
X93750816Y-87551091D01*
X93741643Y-87562256D01*
X93731867Y-87572553D01*
X93721494Y-87581976D01*
X93710529Y-87590518D01*
X93698979Y-87598173D01*
X93686851Y-87604936D01*
X93674150Y-87610799D01*
X93660883Y-87615757D01*
X93647055Y-87619803D01*
X93632673Y-87622932D01*
X93617744Y-87625136D01*
X93602273Y-87626410D01*
X93586267Y-87626748D01*
X93573679Y-87626515D01*
X93561561Y-87625806D01*
X93549891Y-87624609D01*
X93538642Y-87622912D01*
X93527790Y-87620702D01*
X93517310Y-87617967D01*
X93507177Y-87614695D01*
X93497367Y-87610873D01*
X93487854Y-87606489D01*
X93478615Y-87601530D01*
X93469623Y-87595984D01*
X93460854Y-87589839D01*
X93452284Y-87583082D01*
X93443888Y-87575700D01*
X93435640Y-87567682D01*
X93427517Y-87559015D01*
X93420148Y-87550427D01*
X93413381Y-87541837D01*
X93407205Y-87533209D01*
X93401610Y-87524509D01*
X93396585Y-87515702D01*
X93392121Y-87506752D01*
X93388206Y-87497624D01*
X93384831Y-87488283D01*
X93381985Y-87478695D01*
X93379658Y-87468823D01*
X93377839Y-87458632D01*
X93376519Y-87448089D01*
X93375686Y-87437156D01*
X93375331Y-87425800D01*
X93375443Y-87413985D01*
X93376011Y-87401676D01*
X93377069Y-87389787D01*
X93378653Y-87378200D01*
X93380760Y-87366919D01*
X93383387Y-87355948D01*
X93386530Y-87345290D01*
X93390187Y-87334952D01*
X93394355Y-87324935D01*
X93399030Y-87315246D01*
X93404210Y-87305887D01*
X93409890Y-87296863D01*
X93416069Y-87288177D01*
X93422743Y-87279836D01*
X93429909Y-87271841D01*
X93437564Y-87264198D01*
X93445705Y-87256910D01*
X93454328Y-87249982D01*
X93487489Y-87225287D01*
X93487489Y-86713759D01*
X93124128Y-86713759D01*
X93093084Y-86749743D01*
X93083379Y-86760366D01*
X93073208Y-86770148D01*
X93062609Y-86779093D01*
X93051620Y-86787208D01*
X93040279Y-86794497D01*
X93028624Y-86800966D01*
X93016693Y-86806621D01*
X93004525Y-86811468D01*
X92992158Y-86815512D01*
X92979629Y-86818758D01*
X92966977Y-86821212D01*
X92954239Y-86822880D01*
X92941455Y-86823767D01*
X92928662Y-86823878D01*
X92915898Y-86823220D01*
X92903201Y-86821798D01*
X92890610Y-86819617D01*
X92878162Y-86816683D01*
X92865896Y-86813002D01*
X92853849Y-86808578D01*
X92842061Y-86803419D01*
X92830568Y-86797528D01*
X92819410Y-86790912D01*
X92808623Y-86783577D01*
X92798248Y-86775527D01*
X92788320Y-86766769D01*
X92778879Y-86757307D01*
X92769963Y-86747148D01*
X92761609Y-86736297D01*
X92753856Y-86724760D01*
X92746743Y-86712542D01*
X92740306Y-86699649D01*
X92736967Y-86692050D01*
X92733961Y-86684343D01*
X92731285Y-86676538D01*
X92728937Y-86668648D01*
X92726915Y-86660684D01*
X92725215Y-86652656D01*
X92723837Y-86644577D01*
X92722777Y-86636457D01*
X92721604Y-86620143D01*
X92721678Y-86603803D01*
X92722979Y-86587530D01*
X92725489Y-86571414D01*
X92729190Y-86555546D01*
X92734063Y-86540017D01*
X92740090Y-86524918D01*
X92747251Y-86510339D01*
X92751252Y-86503274D01*
X92755529Y-86496373D01*
X92760080Y-86489648D01*
X92764904Y-86483109D01*
X92769997Y-86476769D01*
X92775358Y-86470639D01*
X92780984Y-86464731D01*
X92786873Y-86459054D01*
X92795232Y-86451684D01*
X92803410Y-86444910D01*
X92811459Y-86438714D01*
X92819427Y-86433081D01*
X92827367Y-86427993D01*
X92835328Y-86423434D01*
X92843362Y-86419388D01*
X92851519Y-86415839D01*
X92859849Y-86412768D01*
X92868404Y-86410161D01*
X92877234Y-86408000D01*
X92886389Y-86406270D01*
X92895920Y-86404952D01*
X92905879Y-86404032D01*
X92916314Y-86403491D01*
X92927278Y-86403315D01*
X92940518Y-86403501D01*
X92953027Y-86404079D01*
X92964868Y-86405073D01*
X92976105Y-86406512D01*
X92986800Y-86408422D01*
X92997016Y-86410831D01*
X93006818Y-86413764D01*
X93016266Y-86417250D01*
X93025426Y-86421314D01*
X93034359Y-86425984D01*
X93043128Y-86431286D01*
X93051798Y-86437248D01*
X93060430Y-86443896D01*
X93069088Y-86451257D01*
X93077835Y-86459358D01*
X93086734Y-86468226D01*
X93127656Y-86509148D01*
X93487489Y-86509148D01*
X93487489Y-86106982D01*
X92831323Y-86106982D01*
X92831323Y-85701288D01*
X92795339Y-85670243D01*
X92784013Y-85659905D01*
X92773591Y-85649021D01*
X92764082Y-85637625D01*
X92755497Y-85625749D01*
X92747847Y-85613426D01*
X92741141Y-85600691D01*
X92735390Y-85587574D01*
X92730604Y-85574111D01*
X92726795Y-85560333D01*
X92723971Y-85546275D01*
X92722143Y-85531968D01*
X92721322Y-85517446D01*
X92721518Y-85502742D01*
X92722741Y-85487890D01*
X92725002Y-85472922D01*
X92728311Y-85457871D01*
X92733671Y-85439694D01*
X92740201Y-85422487D01*
X92743893Y-85414256D01*
X92747864Y-85406279D01*
X92752108Y-85398558D01*
X92756622Y-85391097D01*
X92761400Y-85383899D01*
X92766438Y-85376969D01*
X92771732Y-85370309D01*
X92777276Y-85363923D01*
X92783066Y-85357815D01*
X92789097Y-85351987D01*
X92795365Y-85346445D01*
X92801866Y-85341190D01*
X92808593Y-85336226D01*
X92815543Y-85331558D01*
X92822712Y-85327188D01*
X92830093Y-85323119D01*
X92837684Y-85319357D01*
X92845478Y-85315903D01*
X92853473Y-85312761D01*
X92861661Y-85309936D01*
X92870040Y-85307429D01*
X92878605Y-85305246D01*
X92896272Y-85301862D01*
X92914626Y-85299811D01*
X92933628Y-85299121D01*
X92941526Y-85299315D01*
X92949340Y-85299762D01*
X92957068Y-85300462D01*
X92964706Y-85301410D01*
X92972248Y-85302604D01*
X92979690Y-85304043D01*
X92987030Y-85305723D01*
X92994262Y-85307643D01*
X93001382Y-85309799D01*
X93008387Y-85312189D01*
X93015271Y-85314811D01*
X93022032Y-85317662D01*
X93028664Y-85320741D01*
X93035165Y-85324043D01*
X93041528Y-85327568D01*
X93047752Y-85331312D01*
X93053830Y-85335273D01*
X93059760Y-85339449D01*
X93065537Y-85343836D01*
X93071156Y-85348434D01*
X93076615Y-85353239D01*
X93081908Y-85358248D01*
X93087031Y-85363460D01*
X93091981Y-85368872D01*
X93096753Y-85374481D01*
X93101344Y-85380285D01*
X93105748Y-85386281D01*
X93109962Y-85392468D01*
X93113982Y-85398842D01*
X93117803Y-85405401D01*
X93121422Y-85412143D01*
X93124834Y-85419065D01*
X93128455Y-85427493D01*
X93131645Y-85436583D01*
X93134404Y-85446251D01*
X93136729Y-85456416D01*
X93138620Y-85466993D01*
X93140076Y-85477902D01*
X93141096Y-85489058D01*
X93141679Y-85500380D01*
X93141823Y-85511785D01*
X93141529Y-85523190D01*
X93140794Y-85534512D01*
X93139617Y-85545668D01*
X93137999Y-85556577D01*
X93135936Y-85567155D01*
X93133430Y-85577319D01*
X93130478Y-85586988D01*
X93127838Y-85593849D01*
X93124475Y-85601132D01*
X93120476Y-85608729D01*
X93115926Y-85616533D01*
X93110913Y-85624436D01*
X93105525Y-85632330D01*
X93099846Y-85640109D01*
X93093966Y-85647665D01*
X93087969Y-85654890D01*
X93081944Y-85661677D01*
X93075976Y-85667918D01*
X93070153Y-85673506D01*
X93064562Y-85678333D01*
X93059289Y-85682292D01*
X93056799Y-85683913D01*
X93054421Y-85685276D01*
X93052166Y-85686368D01*
X93050045Y-85687176D01*
X93047677Y-85688026D01*
X93045590Y-85689077D01*
X93043765Y-85690464D01*
X93042184Y-85692325D01*
X93040832Y-85694792D01*
X93039689Y-85698003D01*
X93038738Y-85702093D01*
X93037962Y-85707196D01*
X93037343Y-85713449D01*
X93036864Y-85720986D01*
X93036253Y-85740457D01*
X93035990Y-85766690D01*
X93035934Y-85800771D01*
X93035934Y-85909427D01*
X93487489Y-85909427D01*
X93487489Y-85258904D01*
X93614489Y-85099449D01*
X93741489Y-84939287D01*
X93741489Y-84371316D01*
X93487489Y-84371316D01*
X93487489Y-84138482D01*
X93741489Y-84138482D01*
X93939045Y-84138482D01*
X94708100Y-84138482D01*
X94708100Y-83771593D01*
X93939045Y-83771593D01*
X93939045Y-84138482D01*
X93741489Y-84138482D01*
X93741489Y-83771593D01*
X93487489Y-83771593D01*
G37*
D10*
X110363000Y-98552000D02*
X120523000Y-98552000D01*
X100203000Y-101600000D02*
X100203000Y-111379000D01*
X90043000Y-101600000D02*
X90043000Y-111379000D01*
D11*
G36*
X95674483Y-84671133D02*
G01*
X95689350Y-84672902D01*
X95704133Y-84675571D01*
X95718720Y-84679114D01*
X95733002Y-84683499D01*
X95746867Y-84688699D01*
X95760205Y-84694685D01*
X95772905Y-84701427D01*
X95784857Y-84708896D01*
X95795950Y-84717065D01*
X95801139Y-84721402D01*
X95806073Y-84725903D01*
X95810737Y-84730564D01*
X95815117Y-84735382D01*
X95823867Y-84745927D01*
X95831867Y-84756773D01*
X95839122Y-84767890D01*
X95845636Y-84779249D01*
X95851416Y-84790819D01*
X95856468Y-84802570D01*
X95860796Y-84814473D01*
X95864406Y-84826498D01*
X95867305Y-84838614D01*
X95869497Y-84850793D01*
X95870988Y-84863004D01*
X95871783Y-84875218D01*
X95871889Y-84887404D01*
X95871310Y-84899533D01*
X95870052Y-84911575D01*
X95868122Y-84923500D01*
X95865523Y-84935279D01*
X95862263Y-84946880D01*
X95858346Y-84958276D01*
X95853778Y-84969435D01*
X95848564Y-84980327D01*
X95842711Y-84990924D01*
X95836223Y-85001195D01*
X95829107Y-85011111D01*
X95821367Y-85020640D01*
X95813010Y-85029755D01*
X95804040Y-85038424D01*
X95794464Y-85046618D01*
X95784287Y-85054308D01*
X95773515Y-85061462D01*
X95762152Y-85068052D01*
X95750206Y-85074048D01*
X95740271Y-85078265D01*
X95729830Y-85081920D01*
X95718955Y-85085012D01*
X95707718Y-85087542D01*
X95696192Y-85089510D01*
X95684448Y-85090916D01*
X95672560Y-85091759D01*
X95660600Y-85092040D01*
X95648640Y-85091759D01*
X95636752Y-85090916D01*
X95625008Y-85089510D01*
X95613482Y-85087542D01*
X95602245Y-85085012D01*
X95591370Y-85081920D01*
X95580929Y-85078265D01*
X95570995Y-85074048D01*
X95564360Y-85070602D01*
X95557239Y-85066421D01*
X95549759Y-85061613D01*
X95542045Y-85056288D01*
X95534223Y-85050554D01*
X95526420Y-85044519D01*
X95518762Y-85038291D01*
X95511375Y-85031980D01*
X95504385Y-85025693D01*
X95497917Y-85019540D01*
X95492099Y-85013629D01*
X95487055Y-85008068D01*
X95482913Y-85002966D01*
X95481220Y-85000621D01*
X95479799Y-84998432D01*
X95478666Y-84996411D01*
X95477837Y-84994573D01*
X95477329Y-84992931D01*
X95477156Y-84991499D01*
X95476432Y-84990846D01*
X95474307Y-84990213D01*
X95466142Y-84989018D01*
X95453231Y-84987939D01*
X95436145Y-84987001D01*
X95415454Y-84986228D01*
X95391728Y-84985645D01*
X95337456Y-84985149D01*
X95197756Y-84985149D01*
X94942345Y-85307587D01*
X94686934Y-85630732D01*
X94686934Y-86422365D01*
X94705278Y-86432243D01*
X94711089Y-86435695D01*
X94717106Y-86439917D01*
X94723269Y-86444836D01*
X94729520Y-86450378D01*
X94735801Y-86456470D01*
X94742051Y-86463038D01*
X94748212Y-86470009D01*
X94754226Y-86477310D01*
X94760033Y-86484868D01*
X94765574Y-86492608D01*
X94770791Y-86500458D01*
X94775624Y-86508344D01*
X94780015Y-86516192D01*
X94783905Y-86523930D01*
X94787234Y-86531485D01*
X94789945Y-86538781D01*
X94792856Y-86548909D01*
X94795245Y-86559642D01*
X94797116Y-86570876D01*
X94798477Y-86582504D01*
X94799334Y-86594422D01*
X94799693Y-86606523D01*
X94799560Y-86618704D01*
X94798941Y-86630857D01*
X94797842Y-86642878D01*
X94796270Y-86654661D01*
X94794231Y-86666101D01*
X94791731Y-86677093D01*
X94788776Y-86687530D01*
X94785372Y-86697309D01*
X94781527Y-86706322D01*
X94777245Y-86714465D01*
X94769076Y-86727421D01*
X94760445Y-86739563D01*
X94751353Y-86750889D01*
X94741802Y-86761395D01*
X94731791Y-86771079D01*
X94721323Y-86779937D01*
X94710397Y-86787966D01*
X94699016Y-86795163D01*
X94687180Y-86801525D01*
X94674891Y-86807049D01*
X94662149Y-86811731D01*
X94648955Y-86815569D01*
X94635310Y-86818560D01*
X94621216Y-86820700D01*
X94606674Y-86821986D01*
X94591683Y-86822415D01*
X94580399Y-86822153D01*
X94569308Y-86821372D01*
X94558420Y-86820084D01*
X94547747Y-86818299D01*
X94537301Y-86816030D01*
X94527091Y-86813286D01*
X94517128Y-86810079D01*
X94507425Y-86806419D01*
X94497991Y-86802318D01*
X94488838Y-86797787D01*
X94479977Y-86792837D01*
X94471418Y-86787478D01*
X94463173Y-86781722D01*
X94455253Y-86775579D01*
X94447668Y-86769061D01*
X94440430Y-86762178D01*
X94433550Y-86754942D01*
X94427038Y-86747364D01*
X94420905Y-86739454D01*
X94415164Y-86731223D01*
X94409824Y-86722683D01*
X94404896Y-86713845D01*
X94400392Y-86704719D01*
X94396322Y-86695316D01*
X94392698Y-86685647D01*
X94389530Y-86675724D01*
X94386829Y-86665558D01*
X94384607Y-86655158D01*
X94382874Y-86644537D01*
X94381642Y-86633706D01*
X94380921Y-86622674D01*
X94380722Y-86611454D01*
X94380996Y-86599199D01*
X94381819Y-86587297D01*
X94383197Y-86575738D01*
X94385132Y-86564512D01*
X94387630Y-86553609D01*
X94390694Y-86543018D01*
X94394329Y-86532728D01*
X94398538Y-86522730D01*
X94403326Y-86513014D01*
X94408697Y-86503567D01*
X94414655Y-86494382D01*
X94421204Y-86485446D01*
X94428348Y-86476751D01*
X94436092Y-86468284D01*
X94444440Y-86460037D01*
X94453395Y-86451999D01*
X94489378Y-86420954D01*
X94489378Y-85555237D01*
X94794884Y-85168593D01*
X95099683Y-84781243D01*
X95286656Y-84780537D01*
X95473628Y-84779832D01*
X95492678Y-84752315D01*
X95497263Y-84746026D01*
X95502269Y-84739869D01*
X95507672Y-84733860D01*
X95513448Y-84728018D01*
X95519570Y-84722356D01*
X95526015Y-84716894D01*
X95532758Y-84711646D01*
X95539774Y-84706630D01*
X95547037Y-84701862D01*
X95554524Y-84697359D01*
X95562209Y-84693137D01*
X95570068Y-84689212D01*
X95578076Y-84685602D01*
X95586208Y-84682322D01*
X95594439Y-84679390D01*
X95602745Y-84676821D01*
X95609495Y-84675103D01*
X95616377Y-84673649D01*
X95630478Y-84671524D01*
X95644936Y-84670415D01*
X95659641Y-84670294D01*
X95674483Y-84671133D01*
G37*
D10*
X120523000Y-101600000D02*
X120523000Y-111379000D01*
X110363000Y-98552000D02*
X110363000Y-101600000D01*
X130657600Y-98552000D02*
X140843000Y-98552000D01*
X79883000Y-101600000D02*
X79883000Y-111379000D01*
X110363000Y-101600000D02*
X110363000Y-111379000D01*
X149479000Y-87376000D02*
X146177000Y-87376000D01*
X130683000Y-101600000D02*
X130683000Y-111379000D01*
X140843000Y-98552000D02*
X140843000Y-101600000D01*
D13*
X61020476Y-104321428D02*
X60536666Y-104321428D01*
X60488285Y-105047142D01*
X60536666Y-104974571D01*
X60633428Y-104902000D01*
X60875333Y-104902000D01*
X60972095Y-104974571D01*
X61020476Y-105047142D01*
X61068857Y-105192285D01*
X61068857Y-105555142D01*
X61020476Y-105700285D01*
X60972095Y-105772857D01*
X60875333Y-105845428D01*
X60633428Y-105845428D01*
X60536666Y-105772857D01*
X60488285Y-105700285D01*
X61359142Y-104321428D02*
X61697809Y-105845428D01*
X62036476Y-104321428D01*
X122833190Y-53695358D02*
X122978333Y-53743739D01*
X123220238Y-53743739D01*
X123317000Y-53695358D01*
X123365380Y-53646977D01*
X123413761Y-53550215D01*
X123413761Y-53453453D01*
X123365380Y-53356691D01*
X123317000Y-53308310D01*
X123220238Y-53259929D01*
X123026714Y-53211548D01*
X122929952Y-53163167D01*
X122881571Y-53114786D01*
X122833190Y-53018024D01*
X122833190Y-52921262D01*
X122881571Y-52824500D01*
X122929952Y-52776120D01*
X123026714Y-52727739D01*
X123268619Y-52727739D01*
X123413761Y-52776120D01*
X123849190Y-53743739D02*
X123849190Y-52727739D01*
X124429761Y-53743739D01*
X124429761Y-52727739D01*
X124913571Y-53743739D02*
X124913571Y-52727739D01*
X125155476Y-52727739D01*
X125300619Y-52776120D01*
X125397380Y-52872881D01*
X125445761Y-52969643D01*
X125494142Y-53163167D01*
X125494142Y-53308310D01*
X125445761Y-53501834D01*
X125397380Y-53598596D01*
X125300619Y-53695358D01*
X125155476Y-53743739D01*
X124913571Y-53743739D01*
X125929571Y-53356691D02*
X126703666Y-53356691D01*
X127187476Y-53743739D02*
X127187476Y-52727739D01*
X127429380Y-52727739D01*
X127574523Y-52776120D01*
X127671285Y-52872881D01*
X127719666Y-52969643D01*
X127768047Y-53163167D01*
X127768047Y-53308310D01*
X127719666Y-53501834D01*
X127671285Y-53598596D01*
X127574523Y-53695358D01*
X127429380Y-53743739D01*
X127187476Y-53743739D01*
X128203476Y-53211548D02*
X128542142Y-53211548D01*
X128687285Y-53743739D02*
X128203476Y-53743739D01*
X128203476Y-52727739D01*
X128687285Y-52727739D01*
X129461380Y-53211548D02*
X129122714Y-53211548D01*
X129122714Y-53743739D02*
X129122714Y-52727739D01*
X129606523Y-52727739D01*
X129993571Y-53211548D02*
X130332238Y-53211548D01*
X130477380Y-53743739D02*
X129993571Y-53743739D01*
X129993571Y-52727739D01*
X130477380Y-52727739D01*
X131493380Y-53646977D02*
X131445000Y-53695358D01*
X131299857Y-53743739D01*
X131203095Y-53743739D01*
X131057952Y-53695358D01*
X130961190Y-53598596D01*
X130912809Y-53501834D01*
X130864428Y-53308310D01*
X130864428Y-53163167D01*
X130912809Y-52969643D01*
X130961190Y-52872881D01*
X131057952Y-52776120D01*
X131203095Y-52727739D01*
X131299857Y-52727739D01*
X131445000Y-52776120D01*
X131493380Y-52824500D01*
X131783666Y-52727739D02*
X132364238Y-52727739D01*
X132073952Y-53743739D02*
X132073952Y-52727739D01*
X134154333Y-53066405D02*
X134396238Y-53743739D01*
X134638142Y-53066405D01*
X135557380Y-53743739D02*
X134976809Y-53743739D01*
X135267095Y-53743739D02*
X135267095Y-52727739D01*
X135170333Y-52872881D01*
X135073571Y-52969643D01*
X134976809Y-53018024D01*
X135992809Y-53646977D02*
X136041190Y-53695358D01*
X135992809Y-53743739D01*
X135944428Y-53695358D01*
X135992809Y-53646977D01*
X135992809Y-53743739D01*
X136670142Y-52727739D02*
X136766904Y-52727739D01*
X136863666Y-52776120D01*
X136912047Y-52824500D01*
X136960428Y-52921262D01*
X137008809Y-53114786D01*
X137008809Y-53356691D01*
X136960428Y-53550215D01*
X136912047Y-53646977D01*
X136863666Y-53695358D01*
X136766904Y-53743739D01*
X136670142Y-53743739D01*
X136573380Y-53695358D01*
X136525000Y-53646977D01*
X136476619Y-53550215D01*
X136428238Y-53356691D01*
X136428238Y-53114786D01*
X136476619Y-52921262D01*
X136525000Y-52824500D01*
X136573380Y-52776120D01*
X136670142Y-52727739D01*
X123897571Y-54605403D02*
X123800809Y-54557022D01*
X123607285Y-54557022D01*
X123510523Y-54605403D01*
X123413761Y-54702165D01*
X123365380Y-54798927D01*
X123365380Y-54992451D01*
X123413761Y-55089213D01*
X123510523Y-55185975D01*
X123607285Y-55234356D01*
X123800809Y-55234356D01*
X123897571Y-55185975D01*
X123704047Y-54218356D02*
X123462142Y-54266737D01*
X123220238Y-54411880D01*
X123075095Y-54653784D01*
X123026714Y-54895689D01*
X123075095Y-55137594D01*
X123220238Y-55379499D01*
X123462142Y-55524641D01*
X123704047Y-55573022D01*
X123945952Y-55524641D01*
X124187857Y-55379499D01*
X124333000Y-55137594D01*
X124381380Y-54895689D01*
X124333000Y-54653784D01*
X124187857Y-54411880D01*
X123945952Y-54266737D01*
X123704047Y-54218356D01*
X124768428Y-54460260D02*
X124816809Y-54411880D01*
X124913571Y-54363499D01*
X125155476Y-54363499D01*
X125252238Y-54411880D01*
X125300619Y-54460260D01*
X125349000Y-54557022D01*
X125349000Y-54653784D01*
X125300619Y-54798927D01*
X124720047Y-55379499D01*
X125349000Y-55379499D01*
X125977952Y-54363499D02*
X126074714Y-54363499D01*
X126171476Y-54411880D01*
X126219857Y-54460260D01*
X126268238Y-54557022D01*
X126316619Y-54750546D01*
X126316619Y-54992451D01*
X126268238Y-55185975D01*
X126219857Y-55282737D01*
X126171476Y-55331118D01*
X126074714Y-55379499D01*
X125977952Y-55379499D01*
X125881190Y-55331118D01*
X125832809Y-55282737D01*
X125784428Y-55185975D01*
X125736047Y-54992451D01*
X125736047Y-54750546D01*
X125784428Y-54557022D01*
X125832809Y-54460260D01*
X125881190Y-54411880D01*
X125977952Y-54363499D01*
X126703666Y-54460260D02*
X126752047Y-54411880D01*
X126848809Y-54363499D01*
X127090714Y-54363499D01*
X127187476Y-54411880D01*
X127235857Y-54460260D01*
X127284238Y-54557022D01*
X127284238Y-54653784D01*
X127235857Y-54798927D01*
X126655285Y-55379499D01*
X127284238Y-55379499D01*
X128203476Y-54363499D02*
X127719666Y-54363499D01*
X127671285Y-54847308D01*
X127719666Y-54798927D01*
X127816428Y-54750546D01*
X128058333Y-54750546D01*
X128155095Y-54798927D01*
X128203476Y-54847308D01*
X128251857Y-54944070D01*
X128251857Y-55185975D01*
X128203476Y-55282737D01*
X128155095Y-55331118D01*
X128058333Y-55379499D01*
X127816428Y-55379499D01*
X127719666Y-55331118D01*
X127671285Y-55282737D01*
X130041952Y-55282737D02*
X129993571Y-55331118D01*
X129848428Y-55379499D01*
X129751666Y-55379499D01*
X129606523Y-55331118D01*
X129509761Y-55234356D01*
X129461380Y-55137594D01*
X129413000Y-54944070D01*
X129413000Y-54798927D01*
X129461380Y-54605403D01*
X129509761Y-54508641D01*
X129606523Y-54411880D01*
X129751666Y-54363499D01*
X129848428Y-54363499D01*
X129993571Y-54411880D01*
X130041952Y-54460260D01*
X131057952Y-55282737D02*
X131009571Y-55331118D01*
X130864428Y-55379499D01*
X130767666Y-55379499D01*
X130622523Y-55331118D01*
X130525761Y-55234356D01*
X130477380Y-55137594D01*
X130429000Y-54944070D01*
X130429000Y-54798927D01*
X130477380Y-54605403D01*
X130525761Y-54508641D01*
X130622523Y-54411880D01*
X130767666Y-54363499D01*
X130864428Y-54363499D01*
X131009571Y-54411880D01*
X131057952Y-54460260D01*
X132606142Y-54847308D02*
X132751285Y-54895689D01*
X132799666Y-54944070D01*
X132848047Y-55040832D01*
X132848047Y-55185975D01*
X132799666Y-55282737D01*
X132751285Y-55331118D01*
X132654523Y-55379499D01*
X132267476Y-55379499D01*
X132267476Y-54363499D01*
X132606142Y-54363499D01*
X132702904Y-54411880D01*
X132751285Y-54460260D01*
X132799666Y-54557022D01*
X132799666Y-54653784D01*
X132751285Y-54750546D01*
X132702904Y-54798927D01*
X132606142Y-54847308D01*
X132267476Y-54847308D01*
X133477000Y-54895689D02*
X133477000Y-55379499D01*
X133138333Y-54363499D02*
X133477000Y-54895689D01*
X133815666Y-54363499D01*
X134154333Y-54992451D02*
X134928428Y-54992451D01*
X135363857Y-55331118D02*
X135509000Y-55379499D01*
X135750904Y-55379499D01*
X135847666Y-55331118D01*
X135896047Y-55282737D01*
X135944428Y-55185975D01*
X135944428Y-55089213D01*
X135896047Y-54992451D01*
X135847666Y-54944070D01*
X135750904Y-54895689D01*
X135557380Y-54847308D01*
X135460619Y-54798927D01*
X135412238Y-54750546D01*
X135363857Y-54653784D01*
X135363857Y-54557022D01*
X135412238Y-54460260D01*
X135460619Y-54411880D01*
X135557380Y-54363499D01*
X135799285Y-54363499D01*
X135944428Y-54411880D01*
X136331476Y-55089213D02*
X136815285Y-55089213D01*
X136234714Y-55379499D02*
X136573380Y-54363499D01*
X136912047Y-55379499D01*
D14*
X148717000Y-84963000D02*
X148717000Y-84237285D01*
X149152428Y-85108142D02*
X147628428Y-84600142D01*
X149152428Y-84092142D01*
X147628428Y-82423000D02*
X148862142Y-82423000D01*
X149007285Y-82350428D01*
X149079857Y-82277857D01*
X149152428Y-82132714D01*
X149152428Y-81842428D01*
X149079857Y-81697285D01*
X149007285Y-81624714D01*
X148862142Y-81552142D01*
X147628428Y-81552142D01*
X147628428Y-79810428D02*
X149152428Y-78794428D01*
X147628428Y-78794428D02*
X149152428Y-79810428D01*
D13*
X54333260Y-92105238D02*
X54333260Y-91911714D01*
X54284880Y-91814952D01*
X54236499Y-91766571D01*
X54091356Y-91669809D01*
X53897832Y-91621428D01*
X53510784Y-91621428D01*
X53414022Y-91669809D01*
X53365641Y-91718190D01*
X53317260Y-91814952D01*
X53317260Y-92008476D01*
X53365641Y-92105238D01*
X53414022Y-92153619D01*
X53510784Y-92202000D01*
X53752689Y-92202000D01*
X53849451Y-92153619D01*
X53897832Y-92105238D01*
X53946213Y-92008476D01*
X53946213Y-91814952D01*
X53897832Y-91718190D01*
X53849451Y-91669809D01*
X53752689Y-91621428D01*
X53704308Y-92637428D02*
X53704308Y-93411523D01*
X54236499Y-93846952D02*
X54284880Y-93895333D01*
X54333260Y-93992095D01*
X54333260Y-94234000D01*
X54284880Y-94330761D01*
X54236499Y-94379142D01*
X54139737Y-94427523D01*
X54042975Y-94427523D01*
X53897832Y-94379142D01*
X53317260Y-93798571D01*
X53317260Y-94427523D01*
X53994594Y-95298380D02*
X53317260Y-95298380D01*
X54381641Y-95056476D02*
X53655927Y-94814571D01*
X53655927Y-95443523D01*
X54333260Y-96459523D02*
X53317260Y-96798190D01*
X54333260Y-97136857D01*
X53317260Y-97620666D02*
X53365641Y-97523904D01*
X53414022Y-97475523D01*
X53510784Y-97427142D01*
X53801070Y-97427142D01*
X53897832Y-97475523D01*
X53946213Y-97523904D01*
X53994594Y-97620666D01*
X53994594Y-97765809D01*
X53946213Y-97862571D01*
X53897832Y-97910952D01*
X53801070Y-97959333D01*
X53510784Y-97959333D01*
X53414022Y-97910952D01*
X53365641Y-97862571D01*
X53317260Y-97765809D01*
X53317260Y-97620666D01*
X53317260Y-98539904D02*
X53365641Y-98443142D01*
X53462403Y-98394761D01*
X54333260Y-98394761D01*
X53994594Y-98781809D02*
X53994594Y-99168857D01*
X54333260Y-98926952D02*
X53462403Y-98926952D01*
X53365641Y-98975333D01*
X53317260Y-99072095D01*
X53317260Y-99168857D01*
X53365641Y-99459142D02*
X53317260Y-99555904D01*
X53317260Y-99749428D01*
X53365641Y-99846190D01*
X53462403Y-99894571D01*
X53510784Y-99894571D01*
X53607546Y-99846190D01*
X53655927Y-99749428D01*
X53655927Y-99604285D01*
X53704308Y-99507523D01*
X53801070Y-99459142D01*
X53849451Y-99459142D01*
X53946213Y-99507523D01*
X53994594Y-99604285D01*
X53994594Y-99749428D01*
X53946213Y-99846190D01*
X51681500Y-91452095D02*
X52697500Y-91452095D01*
X52697500Y-91694000D01*
X52649120Y-91839142D01*
X52552358Y-91935904D01*
X52455596Y-91984285D01*
X52262072Y-92032666D01*
X52116929Y-92032666D01*
X51923405Y-91984285D01*
X51826643Y-91935904D01*
X51729881Y-91839142D01*
X51681500Y-91694000D01*
X51681500Y-91452095D01*
X51778262Y-93048666D02*
X51729881Y-93000285D01*
X51681500Y-92855142D01*
X51681500Y-92758380D01*
X51729881Y-92613238D01*
X51826643Y-92516476D01*
X51923405Y-92468095D01*
X52116929Y-92419714D01*
X52262072Y-92419714D01*
X52455596Y-92468095D01*
X52552358Y-92516476D01*
X52649120Y-92613238D01*
X52697500Y-92758380D01*
X52697500Y-92855142D01*
X52649120Y-93000285D01*
X52600739Y-93048666D01*
X52745881Y-94209809D02*
X51439596Y-93338952D01*
X51971786Y-94500095D02*
X51971786Y-94983904D01*
X51681500Y-94403333D02*
X52697500Y-94742000D01*
X51681500Y-95080666D01*
X51778262Y-95999904D02*
X51729881Y-95951523D01*
X51681500Y-95806380D01*
X51681500Y-95709619D01*
X51729881Y-95564476D01*
X51826643Y-95467714D01*
X51923405Y-95419333D01*
X52116929Y-95370952D01*
X52262072Y-95370952D01*
X52455596Y-95419333D01*
X52552358Y-95467714D01*
X52649120Y-95564476D01*
X52697500Y-95709619D01*
X52697500Y-95806380D01*
X52649120Y-95951523D01*
X52600739Y-95999904D01*
X52745881Y-97161047D02*
X51439596Y-96290190D01*
X51681500Y-97499714D02*
X52697500Y-97499714D01*
X52697500Y-97741619D01*
X52649120Y-97886761D01*
X52552358Y-97983523D01*
X52455596Y-98031904D01*
X52262072Y-98080285D01*
X52116929Y-98080285D01*
X51923405Y-98031904D01*
X51826643Y-97983523D01*
X51729881Y-97886761D01*
X51681500Y-97741619D01*
X51681500Y-97499714D01*
X51778262Y-99096285D02*
X51729881Y-99047904D01*
X51681500Y-98902761D01*
X51681500Y-98806000D01*
X51729881Y-98660857D01*
X51826643Y-98564095D01*
X51923405Y-98515714D01*
X52116929Y-98467333D01*
X52262072Y-98467333D01*
X52455596Y-98515714D01*
X52552358Y-98564095D01*
X52649120Y-98660857D01*
X52697500Y-98806000D01*
X52697500Y-98902761D01*
X52649120Y-99047904D01*
X52600739Y-99096285D01*
X51778262Y-100112285D02*
X51729881Y-100063904D01*
X51681500Y-99918761D01*
X51681500Y-99822000D01*
X51729881Y-99676857D01*
X51826643Y-99580095D01*
X51923405Y-99531714D01*
X52116929Y-99483333D01*
X52262072Y-99483333D01*
X52455596Y-99531714D01*
X52552358Y-99580095D01*
X52649120Y-99676857D01*
X52697500Y-99822000D01*
X52697500Y-99918761D01*
X52649120Y-100063904D01*
X52600739Y-100112285D01*
D14*
X135001000Y-104067428D02*
X135001000Y-102543428D01*
X136597571Y-104067428D02*
X136089571Y-103341714D01*
X135726714Y-104067428D02*
X135726714Y-102543428D01*
X136307285Y-102543428D01*
X136452428Y-102616000D01*
X136525000Y-102688571D01*
X136597571Y-102833714D01*
X136597571Y-103051428D01*
X136525000Y-103196571D01*
X136452428Y-103269142D01*
X136307285Y-103341714D01*
X135726714Y-103341714D01*
D13*
X122071190Y-58323238D02*
X122216333Y-58371619D01*
X122458238Y-58371619D01*
X122555000Y-58323238D01*
X122603380Y-58274857D01*
X122651761Y-58178095D01*
X122651761Y-58081333D01*
X122603380Y-57984571D01*
X122555000Y-57936190D01*
X122458238Y-57887809D01*
X122264714Y-57839428D01*
X122167952Y-57791047D01*
X122119571Y-57742666D01*
X122071190Y-57645904D01*
X122071190Y-57549142D01*
X122119571Y-57452380D01*
X122167952Y-57404000D01*
X122264714Y-57355619D01*
X122506619Y-57355619D01*
X122651761Y-57404000D01*
X122942047Y-57355619D02*
X123522619Y-57355619D01*
X123232333Y-58371619D02*
X123232333Y-57355619D01*
X123812904Y-58081333D02*
X124296714Y-58081333D01*
X123716142Y-58371619D02*
X124054809Y-57355619D01*
X124393476Y-58371619D01*
X124587000Y-57355619D02*
X125167571Y-57355619D01*
X124877285Y-58371619D02*
X124877285Y-57355619D01*
X125506238Y-57355619D02*
X125506238Y-58178095D01*
X125554619Y-58274857D01*
X125603000Y-58323238D01*
X125699761Y-58371619D01*
X125893285Y-58371619D01*
X125990047Y-58323238D01*
X126038428Y-58274857D01*
X126086809Y-58178095D01*
X126086809Y-57355619D01*
X126522238Y-58323238D02*
X126667380Y-58371619D01*
X126909285Y-58371619D01*
X127006047Y-58323238D01*
X127054428Y-58274857D01*
X127102809Y-58178095D01*
X127102809Y-58081333D01*
X127054428Y-57984571D01*
X127006047Y-57936190D01*
X126909285Y-57887809D01*
X126715761Y-57839428D01*
X126619000Y-57791047D01*
X126570619Y-57742666D01*
X126522238Y-57645904D01*
X126522238Y-57549142D01*
X126570619Y-57452380D01*
X126619000Y-57404000D01*
X126715761Y-57355619D01*
X126957666Y-57355619D01*
X127102809Y-57404000D01*
D14*
X58184142Y-69668571D02*
X58111571Y-69886285D01*
X58111571Y-70249142D01*
X58184142Y-70394285D01*
X58256714Y-70466857D01*
X58401857Y-70539428D01*
X58547000Y-70539428D01*
X58692142Y-70466857D01*
X58764714Y-70394285D01*
X58837285Y-70249142D01*
X58909857Y-69958857D01*
X58982428Y-69813714D01*
X59055000Y-69741142D01*
X59200142Y-69668571D01*
X59345285Y-69668571D01*
X59490428Y-69741142D01*
X59563000Y-69813714D01*
X59635571Y-69958857D01*
X59635571Y-70321714D01*
X59563000Y-70539428D01*
X58111571Y-71192571D02*
X59635571Y-71192571D01*
X59635571Y-71773142D01*
X59563000Y-71918285D01*
X59490428Y-71990857D01*
X59345285Y-72063428D01*
X59127571Y-72063428D01*
X58982428Y-71990857D01*
X58909857Y-71918285D01*
X58837285Y-71773142D01*
X58837285Y-71192571D01*
X58111571Y-72716571D02*
X59635571Y-72716571D01*
X58111571Y-73587428D02*
X58982428Y-72934285D01*
X59635571Y-73587428D02*
X58764714Y-72716571D01*
D13*
X117275428Y-83293857D02*
X117323809Y-83148714D01*
X117372190Y-83100333D01*
X117468952Y-83051952D01*
X117614095Y-83051952D01*
X117710857Y-83100333D01*
X117759238Y-83148714D01*
X117807619Y-83245476D01*
X117807619Y-83632523D01*
X116791619Y-83632523D01*
X116791619Y-83293857D01*
X116840000Y-83197095D01*
X116888380Y-83148714D01*
X116985142Y-83100333D01*
X117081904Y-83100333D01*
X117178666Y-83148714D01*
X117227047Y-83197095D01*
X117275428Y-83293857D01*
X117275428Y-83632523D01*
X116791619Y-82423000D02*
X116791619Y-82229476D01*
X116840000Y-82132714D01*
X116936761Y-82035952D01*
X117130285Y-81987571D01*
X117468952Y-81987571D01*
X117662476Y-82035952D01*
X117759238Y-82132714D01*
X117807619Y-82229476D01*
X117807619Y-82423000D01*
X117759238Y-82519761D01*
X117662476Y-82616523D01*
X117468952Y-82664904D01*
X117130285Y-82664904D01*
X116936761Y-82616523D01*
X116840000Y-82519761D01*
X116791619Y-82423000D01*
X116791619Y-81358619D02*
X116791619Y-81165095D01*
X116840000Y-81068333D01*
X116936761Y-80971571D01*
X117130285Y-80923190D01*
X117468952Y-80923190D01*
X117662476Y-80971571D01*
X117759238Y-81068333D01*
X117807619Y-81165095D01*
X117807619Y-81358619D01*
X117759238Y-81455380D01*
X117662476Y-81552142D01*
X117468952Y-81600523D01*
X117130285Y-81600523D01*
X116936761Y-81552142D01*
X116840000Y-81455380D01*
X116791619Y-81358619D01*
X116791619Y-80632904D02*
X116791619Y-80052333D01*
X117807619Y-80342619D02*
X116791619Y-80342619D01*
D14*
X121393857Y-99241428D02*
X122264714Y-99241428D01*
X121829285Y-100765428D02*
X121829285Y-99241428D01*
X122772714Y-100765428D02*
X122772714Y-99749428D01*
X122772714Y-100039714D02*
X122845285Y-99894571D01*
X122917857Y-99822000D01*
X123063000Y-99749428D01*
X123208142Y-99749428D01*
X124369285Y-100765428D02*
X124369285Y-99967142D01*
X124296714Y-99822000D01*
X124151571Y-99749428D01*
X123861285Y-99749428D01*
X123716142Y-99822000D01*
X124369285Y-100692857D02*
X124224142Y-100765428D01*
X123861285Y-100765428D01*
X123716142Y-100692857D01*
X123643571Y-100547714D01*
X123643571Y-100402571D01*
X123716142Y-100257428D01*
X123861285Y-100184857D01*
X124224142Y-100184857D01*
X124369285Y-100112285D01*
X125748142Y-100692857D02*
X125603000Y-100765428D01*
X125312714Y-100765428D01*
X125167571Y-100692857D01*
X125095000Y-100620285D01*
X125022428Y-100475142D01*
X125022428Y-100039714D01*
X125095000Y-99894571D01*
X125167571Y-99822000D01*
X125312714Y-99749428D01*
X125603000Y-99749428D01*
X125748142Y-99822000D01*
X126401285Y-100765428D02*
X126401285Y-99241428D01*
X126546428Y-100184857D02*
X126981857Y-100765428D01*
X126981857Y-99749428D02*
X126401285Y-100330000D01*
X129304142Y-99967142D02*
X129521857Y-100039714D01*
X129594428Y-100112285D01*
X129667000Y-100257428D01*
X129667000Y-100475142D01*
X129594428Y-100620285D01*
X129521857Y-100692857D01*
X129376714Y-100765428D01*
X128796142Y-100765428D01*
X128796142Y-99241428D01*
X129304142Y-99241428D01*
X129449285Y-99314000D01*
X129521857Y-99386571D01*
X129594428Y-99531714D01*
X129594428Y-99676857D01*
X129521857Y-99822000D01*
X129449285Y-99894571D01*
X129304142Y-99967142D01*
X128796142Y-99967142D01*
D12*
X142494000Y-100242619D02*
X142494000Y-100004523D01*
X142732095Y-100099761D02*
X142494000Y-100004523D01*
X142255904Y-100099761D01*
X142636857Y-99814047D02*
X142494000Y-100004523D01*
X142351142Y-99814047D01*
D13*
X84037714Y-52727739D02*
X84618285Y-52727739D01*
X84328000Y-53743739D02*
X84328000Y-52727739D01*
X85392380Y-53743739D02*
X85392380Y-53211548D01*
X85344000Y-53114786D01*
X85247238Y-53066405D01*
X85053714Y-53066405D01*
X84956952Y-53114786D01*
X85392380Y-53695358D02*
X85295619Y-53743739D01*
X85053714Y-53743739D01*
X84956952Y-53695358D01*
X84908571Y-53598596D01*
X84908571Y-53501834D01*
X84956952Y-53405072D01*
X85053714Y-53356691D01*
X85295619Y-53356691D01*
X85392380Y-53308310D01*
X86021333Y-53743739D02*
X85924571Y-53695358D01*
X85876190Y-53598596D01*
X85876190Y-52727739D01*
X86408380Y-53743739D02*
X86408380Y-52727739D01*
X86505142Y-53356691D02*
X86795428Y-53743739D01*
X86795428Y-53066405D02*
X86408380Y-53453453D01*
X87230857Y-53743739D02*
X87230857Y-53066405D01*
X87230857Y-52727739D02*
X87182476Y-52776120D01*
X87230857Y-52824500D01*
X87279238Y-52776120D01*
X87230857Y-52727739D01*
X87230857Y-52824500D01*
X87714666Y-53066405D02*
X87714666Y-53743739D01*
X87714666Y-53163167D02*
X87763047Y-53114786D01*
X87859809Y-53066405D01*
X88004952Y-53066405D01*
X88101714Y-53114786D01*
X88150095Y-53211548D01*
X88150095Y-53743739D01*
X89069333Y-53066405D02*
X89069333Y-53888881D01*
X89020952Y-53985643D01*
X88972571Y-54034024D01*
X88875809Y-54082405D01*
X88730666Y-54082405D01*
X88633904Y-54034024D01*
X89069333Y-53695358D02*
X88972571Y-53743739D01*
X88779047Y-53743739D01*
X88682285Y-53695358D01*
X88633904Y-53646977D01*
X88585523Y-53550215D01*
X88585523Y-53259929D01*
X88633904Y-53163167D01*
X88682285Y-53114786D01*
X88779047Y-53066405D01*
X88972571Y-53066405D01*
X89069333Y-53114786D01*
X90327238Y-53743739D02*
X90327238Y-52727739D01*
X90569142Y-52727739D01*
X90714285Y-52776120D01*
X90811047Y-52872881D01*
X90859428Y-52969643D01*
X90907809Y-53163167D01*
X90907809Y-53308310D01*
X90859428Y-53501834D01*
X90811047Y-53598596D01*
X90714285Y-53695358D01*
X90569142Y-53743739D01*
X90327238Y-53743739D01*
X91730285Y-53695358D02*
X91633523Y-53743739D01*
X91440000Y-53743739D01*
X91343238Y-53695358D01*
X91294857Y-53598596D01*
X91294857Y-53211548D01*
X91343238Y-53114786D01*
X91440000Y-53066405D01*
X91633523Y-53066405D01*
X91730285Y-53114786D01*
X91778666Y-53211548D01*
X91778666Y-53308310D01*
X91294857Y-53405072D01*
X92068952Y-53066405D02*
X92456000Y-53066405D01*
X92214095Y-53743739D02*
X92214095Y-52872881D01*
X92262476Y-52776120D01*
X92359238Y-52727739D01*
X92456000Y-52727739D01*
X93181714Y-53695358D02*
X93084952Y-53743739D01*
X92891428Y-53743739D01*
X92794666Y-53695358D01*
X92746285Y-53598596D01*
X92746285Y-53211548D01*
X92794666Y-53114786D01*
X92891428Y-53066405D01*
X93084952Y-53066405D01*
X93181714Y-53114786D01*
X93230095Y-53211548D01*
X93230095Y-53308310D01*
X92746285Y-53405072D01*
X94100952Y-53695358D02*
X94004190Y-53743739D01*
X93810666Y-53743739D01*
X93713904Y-53695358D01*
X93665523Y-53646977D01*
X93617142Y-53550215D01*
X93617142Y-53259929D01*
X93665523Y-53163167D01*
X93713904Y-53114786D01*
X93810666Y-53066405D01*
X94004190Y-53066405D01*
X94100952Y-53114786D01*
X94391238Y-53066405D02*
X94778285Y-53066405D01*
X94536380Y-52727739D02*
X94536380Y-53598596D01*
X94584761Y-53695358D01*
X94681523Y-53743739D01*
X94778285Y-53743739D01*
X86480952Y-55379499D02*
X86480952Y-54363499D01*
X86722857Y-54363499D01*
X86868000Y-54411880D01*
X86964761Y-54508641D01*
X87013142Y-54605403D01*
X87061523Y-54798927D01*
X87061523Y-54944070D01*
X87013142Y-55137594D01*
X86964761Y-55234356D01*
X86868000Y-55331118D01*
X86722857Y-55379499D01*
X86480952Y-55379499D01*
X87884000Y-55331118D02*
X87787238Y-55379499D01*
X87593714Y-55379499D01*
X87496952Y-55331118D01*
X87448571Y-55234356D01*
X87448571Y-54847308D01*
X87496952Y-54750546D01*
X87593714Y-54702165D01*
X87787238Y-54702165D01*
X87884000Y-54750546D01*
X87932380Y-54847308D01*
X87932380Y-54944070D01*
X87448571Y-55040832D01*
X88222666Y-54702165D02*
X88609714Y-54702165D01*
X88367809Y-54363499D02*
X88367809Y-55234356D01*
X88416190Y-55331118D01*
X88512952Y-55379499D01*
X88609714Y-55379499D01*
X89335428Y-55331118D02*
X89238666Y-55379499D01*
X89045142Y-55379499D01*
X88948380Y-55331118D01*
X88900000Y-55234356D01*
X88900000Y-54847308D01*
X88948380Y-54750546D01*
X89045142Y-54702165D01*
X89238666Y-54702165D01*
X89335428Y-54750546D01*
X89383809Y-54847308D01*
X89383809Y-54944070D01*
X88900000Y-55040832D01*
X90254666Y-55331118D02*
X90157904Y-55379499D01*
X89964380Y-55379499D01*
X89867619Y-55331118D01*
X89819238Y-55282737D01*
X89770857Y-55185975D01*
X89770857Y-54895689D01*
X89819238Y-54798927D01*
X89867619Y-54750546D01*
X89964380Y-54702165D01*
X90157904Y-54702165D01*
X90254666Y-54750546D01*
X90544952Y-54702165D02*
X90932000Y-54702165D01*
X90690095Y-54363499D02*
X90690095Y-55234356D01*
X90738476Y-55331118D01*
X90835238Y-55379499D01*
X90932000Y-55379499D01*
X91415809Y-55379499D02*
X91319047Y-55331118D01*
X91270666Y-55282737D01*
X91222285Y-55185975D01*
X91222285Y-54895689D01*
X91270666Y-54798927D01*
X91319047Y-54750546D01*
X91415809Y-54702165D01*
X91560952Y-54702165D01*
X91657714Y-54750546D01*
X91706095Y-54798927D01*
X91754476Y-54895689D01*
X91754476Y-55185975D01*
X91706095Y-55282737D01*
X91657714Y-55331118D01*
X91560952Y-55379499D01*
X91415809Y-55379499D01*
X92189904Y-55379499D02*
X92189904Y-54702165D01*
X92189904Y-54895689D02*
X92238285Y-54798927D01*
X92286666Y-54750546D01*
X92383428Y-54702165D01*
X92480190Y-54702165D01*
D14*
X112104714Y-103632000D02*
X112830428Y-103632000D01*
X111959571Y-104067428D02*
X112467571Y-102543428D01*
X112975571Y-104067428D01*
X113338428Y-104067428D02*
X114136714Y-103051428D01*
X113338428Y-103051428D02*
X114136714Y-104067428D01*
X114935000Y-104067428D02*
X114789857Y-103994857D01*
X114717285Y-103849714D01*
X114717285Y-102543428D01*
X116096142Y-103994857D02*
X115951000Y-104067428D01*
X115660714Y-104067428D01*
X115515571Y-103994857D01*
X115443000Y-103849714D01*
X115443000Y-103269142D01*
X115515571Y-103124000D01*
X115660714Y-103051428D01*
X115951000Y-103051428D01*
X116096142Y-103124000D01*
X116168714Y-103269142D01*
X116168714Y-103414285D01*
X115443000Y-103559428D01*
X118781285Y-104067428D02*
X117910428Y-104067428D01*
X118345857Y-104067428D02*
X118345857Y-102543428D01*
X118200714Y-102761142D01*
X118055571Y-102906285D01*
X117910428Y-102978857D01*
X91784714Y-103632000D02*
X92510428Y-103632000D01*
X91639571Y-104067428D02*
X92147571Y-102543428D01*
X92655571Y-104067428D01*
X93018428Y-104067428D02*
X93816714Y-103051428D01*
X93018428Y-103051428D02*
X93816714Y-104067428D01*
X94615000Y-104067428D02*
X94469857Y-103994857D01*
X94397285Y-103849714D01*
X94397285Y-102543428D01*
X95776142Y-103994857D02*
X95631000Y-104067428D01*
X95340714Y-104067428D01*
X95195571Y-103994857D01*
X95123000Y-103849714D01*
X95123000Y-103269142D01*
X95195571Y-103124000D01*
X95340714Y-103051428D01*
X95631000Y-103051428D01*
X95776142Y-103124000D01*
X95848714Y-103269142D01*
X95848714Y-103414285D01*
X95123000Y-103559428D01*
X97590428Y-102688571D02*
X97663000Y-102616000D01*
X97808142Y-102543428D01*
X98171000Y-102543428D01*
X98316142Y-102616000D01*
X98388714Y-102688571D01*
X98461285Y-102833714D01*
X98461285Y-102978857D01*
X98388714Y-103196571D01*
X97517857Y-104067428D01*
X98461285Y-104067428D01*
X91022714Y-99241428D02*
X91893571Y-99241428D01*
X91458142Y-100765428D02*
X91458142Y-99241428D01*
X92401571Y-100765428D02*
X92401571Y-99749428D01*
X92401571Y-100039714D02*
X92474142Y-99894571D01*
X92546714Y-99822000D01*
X92691857Y-99749428D01*
X92837000Y-99749428D01*
X93998142Y-100765428D02*
X93998142Y-99967142D01*
X93925571Y-99822000D01*
X93780428Y-99749428D01*
X93490142Y-99749428D01*
X93345000Y-99822000D01*
X93998142Y-100692857D02*
X93853000Y-100765428D01*
X93490142Y-100765428D01*
X93345000Y-100692857D01*
X93272428Y-100547714D01*
X93272428Y-100402571D01*
X93345000Y-100257428D01*
X93490142Y-100184857D01*
X93853000Y-100184857D01*
X93998142Y-100112285D01*
X95377000Y-100692857D02*
X95231857Y-100765428D01*
X94941571Y-100765428D01*
X94796428Y-100692857D01*
X94723857Y-100620285D01*
X94651285Y-100475142D01*
X94651285Y-100039714D01*
X94723857Y-99894571D01*
X94796428Y-99822000D01*
X94941571Y-99749428D01*
X95231857Y-99749428D01*
X95377000Y-99822000D01*
X96030142Y-100765428D02*
X96030142Y-99241428D01*
X96175285Y-100184857D02*
X96610714Y-100765428D01*
X96610714Y-99749428D02*
X96030142Y-100330000D01*
X98352428Y-100330000D02*
X99078142Y-100330000D01*
X98207285Y-100765428D02*
X98715285Y-99241428D01*
X99223285Y-100765428D01*
D12*
X78486000Y-83097619D02*
X78486000Y-82859523D01*
X78724095Y-82954761D02*
X78486000Y-82859523D01*
X78247904Y-82954761D01*
X78628857Y-82669047D02*
X78486000Y-82859523D01*
X78343142Y-82669047D01*
D15*
X55201428Y-92293714D02*
X56701428Y-92293714D01*
X56701428Y-92865142D01*
X56630000Y-93008000D01*
X56558571Y-93079428D01*
X56415714Y-93150857D01*
X56201428Y-93150857D01*
X56058571Y-93079428D01*
X55987142Y-93008000D01*
X55915714Y-92865142D01*
X55915714Y-92293714D01*
X56701428Y-94079428D02*
X56701428Y-94365142D01*
X56630000Y-94508000D01*
X56487142Y-94650857D01*
X56201428Y-94722285D01*
X55701428Y-94722285D01*
X55415714Y-94650857D01*
X55272857Y-94508000D01*
X55201428Y-94365142D01*
X55201428Y-94079428D01*
X55272857Y-93936571D01*
X55415714Y-93793714D01*
X55701428Y-93722285D01*
X56201428Y-93722285D01*
X56487142Y-93793714D01*
X56630000Y-93936571D01*
X56701428Y-94079428D01*
X56701428Y-95222285D02*
X55201428Y-95579428D01*
X56272857Y-95865142D01*
X55201428Y-96150857D01*
X56701428Y-96508000D01*
X55987142Y-97079428D02*
X55987142Y-97579428D01*
X55201428Y-97793714D02*
X55201428Y-97079428D01*
X56701428Y-97079428D01*
X56701428Y-97793714D01*
X55201428Y-99293714D02*
X55915714Y-98793714D01*
X55201428Y-98436571D02*
X56701428Y-98436571D01*
X56701428Y-99008000D01*
X56630000Y-99150857D01*
X56558571Y-99222285D01*
X56415714Y-99293714D01*
X56201428Y-99293714D01*
X56058571Y-99222285D01*
X55987142Y-99150857D01*
X55915714Y-99008000D01*
X55915714Y-98436571D01*
D13*
X58722380Y-59514619D02*
X58383714Y-59030809D01*
X58141809Y-59514619D02*
X58141809Y-58498619D01*
X58528857Y-58498619D01*
X58625619Y-58547000D01*
X58674000Y-58595380D01*
X58722380Y-58692142D01*
X58722380Y-58837285D01*
X58674000Y-58934047D01*
X58625619Y-58982428D01*
X58528857Y-59030809D01*
X58141809Y-59030809D01*
X59157809Y-58982428D02*
X59496476Y-58982428D01*
X59641619Y-59514619D02*
X59157809Y-59514619D01*
X59157809Y-58498619D01*
X59641619Y-58498619D01*
X60028666Y-59466238D02*
X60173809Y-59514619D01*
X60415714Y-59514619D01*
X60512476Y-59466238D01*
X60560857Y-59417857D01*
X60609238Y-59321095D01*
X60609238Y-59224333D01*
X60560857Y-59127571D01*
X60512476Y-59079190D01*
X60415714Y-59030809D01*
X60222190Y-58982428D01*
X60125428Y-58934047D01*
X60077047Y-58885666D01*
X60028666Y-58788904D01*
X60028666Y-58692142D01*
X60077047Y-58595380D01*
X60125428Y-58547000D01*
X60222190Y-58498619D01*
X60464095Y-58498619D01*
X60609238Y-58547000D01*
X61044666Y-58982428D02*
X61383333Y-58982428D01*
X61528476Y-59514619D02*
X61044666Y-59514619D01*
X61044666Y-58498619D01*
X61528476Y-58498619D01*
X61818761Y-58498619D02*
X62399333Y-58498619D01*
X62109047Y-59514619D02*
X62109047Y-58498619D01*
D14*
X122264714Y-103632000D02*
X122990428Y-103632000D01*
X122119571Y-104067428D02*
X122627571Y-102543428D01*
X123135571Y-104067428D01*
X123498428Y-104067428D02*
X124296714Y-103051428D01*
X123498428Y-103051428D02*
X124296714Y-104067428D01*
X125095000Y-104067428D02*
X124949857Y-103994857D01*
X124877285Y-103849714D01*
X124877285Y-102543428D01*
X126256142Y-103994857D02*
X126111000Y-104067428D01*
X125820714Y-104067428D01*
X125675571Y-103994857D01*
X125603000Y-103849714D01*
X125603000Y-103269142D01*
X125675571Y-103124000D01*
X125820714Y-103051428D01*
X126111000Y-103051428D01*
X126256142Y-103124000D01*
X126328714Y-103269142D01*
X126328714Y-103414285D01*
X125603000Y-103559428D01*
X128070428Y-102688571D02*
X128143000Y-102616000D01*
X128288142Y-102543428D01*
X128651000Y-102543428D01*
X128796142Y-102616000D01*
X128868714Y-102688571D01*
X128941285Y-102833714D01*
X128941285Y-102978857D01*
X128868714Y-103196571D01*
X127997857Y-104067428D01*
X128941285Y-104067428D01*
X73387857Y-58111571D02*
X73387857Y-59635571D01*
X73025000Y-59635571D01*
X72807285Y-59563000D01*
X72662142Y-59417857D01*
X72589571Y-59272714D01*
X72517000Y-58982428D01*
X72517000Y-58764714D01*
X72589571Y-58474428D01*
X72662142Y-58329285D01*
X72807285Y-58184142D01*
X73025000Y-58111571D01*
X73387857Y-58111571D01*
X71863857Y-58111571D02*
X71863857Y-59635571D01*
X71210714Y-58184142D02*
X70993000Y-58111571D01*
X70630142Y-58111571D01*
X70485000Y-58184142D01*
X70412428Y-58256714D01*
X70339857Y-58401857D01*
X70339857Y-58547000D01*
X70412428Y-58692142D01*
X70485000Y-58764714D01*
X70630142Y-58837285D01*
X70920428Y-58909857D01*
X71065571Y-58982428D01*
X71138142Y-59055000D01*
X71210714Y-59200142D01*
X71210714Y-59345285D01*
X71138142Y-59490428D01*
X71065571Y-59563000D01*
X70920428Y-59635571D01*
X70557571Y-59635571D01*
X70339857Y-59563000D01*
X69686714Y-58111571D02*
X69686714Y-59635571D01*
X69106142Y-59635571D01*
X68961000Y-59563000D01*
X68888428Y-59490428D01*
X68815857Y-59345285D01*
X68815857Y-59127571D01*
X68888428Y-58982428D01*
X68961000Y-58909857D01*
X69106142Y-58837285D01*
X69686714Y-58837285D01*
X67437000Y-58111571D02*
X68162714Y-58111571D01*
X68162714Y-59635571D01*
X67001571Y-58547000D02*
X66275857Y-58547000D01*
X67146714Y-58111571D02*
X66638714Y-59635571D01*
X66130714Y-58111571D01*
X65332428Y-58837285D02*
X65332428Y-58111571D01*
X65840428Y-59635571D02*
X65332428Y-58837285D01*
X64824428Y-59635571D01*
X104521000Y-104067428D02*
X104521000Y-102543428D01*
X106117571Y-104067428D02*
X105609571Y-103341714D01*
X105246714Y-104067428D02*
X105246714Y-102543428D01*
X105827285Y-102543428D01*
X105972428Y-102616000D01*
X106045000Y-102688571D01*
X106117571Y-102833714D01*
X106117571Y-103051428D01*
X106045000Y-103196571D01*
X105972428Y-103269142D01*
X105827285Y-103341714D01*
X105246714Y-103341714D01*
X81624714Y-103632000D02*
X82350428Y-103632000D01*
X81479571Y-104067428D02*
X81987571Y-102543428D01*
X82495571Y-104067428D01*
X82858428Y-104067428D02*
X83656714Y-103051428D01*
X82858428Y-103051428D02*
X83656714Y-104067428D01*
X84455000Y-104067428D02*
X84309857Y-103994857D01*
X84237285Y-103849714D01*
X84237285Y-102543428D01*
X85616142Y-103994857D02*
X85471000Y-104067428D01*
X85180714Y-104067428D01*
X85035571Y-103994857D01*
X84963000Y-103849714D01*
X84963000Y-103269142D01*
X85035571Y-103124000D01*
X85180714Y-103051428D01*
X85471000Y-103051428D01*
X85616142Y-103124000D01*
X85688714Y-103269142D01*
X85688714Y-103414285D01*
X84963000Y-103559428D01*
X88301285Y-104067428D02*
X87430428Y-104067428D01*
X87865857Y-104067428D02*
X87865857Y-102543428D01*
X87720714Y-102761142D01*
X87575571Y-102906285D01*
X87430428Y-102978857D01*
D13*
X91591190Y-67999428D02*
X92220142Y-67999428D01*
X91881476Y-68580000D01*
X92026619Y-68580000D01*
X92123380Y-68652571D01*
X92171761Y-68725142D01*
X92220142Y-68870285D01*
X92220142Y-69233142D01*
X92171761Y-69378285D01*
X92123380Y-69450857D01*
X92026619Y-69523428D01*
X91736333Y-69523428D01*
X91639571Y-69450857D01*
X91591190Y-69378285D01*
X92655571Y-69378285D02*
X92703952Y-69450857D01*
X92655571Y-69523428D01*
X92607190Y-69450857D01*
X92655571Y-69378285D01*
X92655571Y-69523428D01*
X93042619Y-67999428D02*
X93671571Y-67999428D01*
X93332904Y-68580000D01*
X93478047Y-68580000D01*
X93574809Y-68652571D01*
X93623190Y-68725142D01*
X93671571Y-68870285D01*
X93671571Y-69233142D01*
X93623190Y-69378285D01*
X93574809Y-69450857D01*
X93478047Y-69523428D01*
X93187761Y-69523428D01*
X93091000Y-69450857D01*
X93042619Y-69378285D01*
X93961857Y-67999428D02*
X94300523Y-69523428D01*
X94639190Y-67999428D01*
D12*
X68921333Y-75763380D02*
X68445142Y-75763380D01*
X68445142Y-74763380D01*
X69778476Y-75763380D02*
X69207047Y-75763380D01*
X69492761Y-75763380D02*
X69492761Y-74763380D01*
X69397523Y-74906238D01*
X69302285Y-75001476D01*
X69207047Y-75049095D01*
X118895904Y-62047380D02*
X118895904Y-61047380D01*
X119134000Y-61047380D01*
X119276857Y-61095000D01*
X119372095Y-61190238D01*
X119419714Y-61285476D01*
X119467333Y-61475952D01*
X119467333Y-61618809D01*
X119419714Y-61809285D01*
X119372095Y-61904523D01*
X119276857Y-61999761D01*
X119134000Y-62047380D01*
X118895904Y-62047380D01*
X120038761Y-61475952D02*
X119943523Y-61428333D01*
X119895904Y-61380714D01*
X119848285Y-61285476D01*
X119848285Y-61237857D01*
X119895904Y-61142619D01*
X119943523Y-61095000D01*
X120038761Y-61047380D01*
X120229238Y-61047380D01*
X120324476Y-61095000D01*
X120372095Y-61142619D01*
X120419714Y-61237857D01*
X120419714Y-61285476D01*
X120372095Y-61380714D01*
X120324476Y-61428333D01*
X120229238Y-61475952D01*
X120038761Y-61475952D01*
X119943523Y-61523571D01*
X119895904Y-61571190D01*
X119848285Y-61666428D01*
X119848285Y-61856904D01*
X119895904Y-61952142D01*
X119943523Y-61999761D01*
X120038761Y-62047380D01*
X120229238Y-62047380D01*
X120324476Y-61999761D01*
X120372095Y-61952142D01*
X120419714Y-61856904D01*
X120419714Y-61666428D01*
X120372095Y-61571190D01*
X120324476Y-61523571D01*
X120229238Y-61475952D01*
X63825380Y-53728857D02*
X63349190Y-54062190D01*
X63825380Y-54300285D02*
X62825380Y-54300285D01*
X62825380Y-53919333D01*
X62873000Y-53824095D01*
X62920619Y-53776476D01*
X63015857Y-53728857D01*
X63158714Y-53728857D01*
X63253952Y-53776476D01*
X63301571Y-53824095D01*
X63349190Y-53919333D01*
X63349190Y-54300285D01*
X63825380Y-52776476D02*
X63825380Y-53347904D01*
X63825380Y-53062190D02*
X62825380Y-53062190D01*
X62968238Y-53157428D01*
X63063476Y-53252666D01*
X63111095Y-53347904D01*
X62920619Y-52395523D02*
X62873000Y-52347904D01*
X62825380Y-52252666D01*
X62825380Y-52014571D01*
X62873000Y-51919333D01*
X62920619Y-51871714D01*
X63015857Y-51824095D01*
X63111095Y-51824095D01*
X63253952Y-51871714D01*
X63825380Y-52443142D01*
X63825380Y-51824095D01*
X79208380Y-81533904D02*
X80017904Y-81533904D01*
X80113142Y-81486285D01*
X80160761Y-81438666D01*
X80208380Y-81343428D01*
X80208380Y-81152952D01*
X80160761Y-81057714D01*
X80113142Y-81010095D01*
X80017904Y-80962476D01*
X79208380Y-80962476D01*
X79303619Y-80533904D02*
X79256000Y-80486285D01*
X79208380Y-80391047D01*
X79208380Y-80152952D01*
X79256000Y-80057714D01*
X79303619Y-80010095D01*
X79398857Y-79962476D01*
X79494095Y-79962476D01*
X79636952Y-80010095D01*
X80208380Y-80581523D01*
X80208380Y-79962476D01*
X96893142Y-91162142D02*
X96845523Y-91209761D01*
X96702666Y-91257380D01*
X96607428Y-91257380D01*
X96464571Y-91209761D01*
X96369333Y-91114523D01*
X96321714Y-91019285D01*
X96274095Y-90828809D01*
X96274095Y-90685952D01*
X96321714Y-90495476D01*
X96369333Y-90400238D01*
X96464571Y-90305000D01*
X96607428Y-90257380D01*
X96702666Y-90257380D01*
X96845523Y-90305000D01*
X96893142Y-90352619D01*
X97845523Y-91257380D02*
X97274095Y-91257380D01*
X97559809Y-91257380D02*
X97559809Y-90257380D01*
X97464571Y-90400238D01*
X97369333Y-90495476D01*
X97274095Y-90543095D01*
X98226476Y-90352619D02*
X98274095Y-90305000D01*
X98369333Y-90257380D01*
X98607428Y-90257380D01*
X98702666Y-90305000D01*
X98750285Y-90352619D01*
X98797904Y-90447857D01*
X98797904Y-90543095D01*
X98750285Y-90685952D01*
X98178857Y-91257380D01*
X98797904Y-91257380D01*
X130833904Y-82494380D02*
X130833904Y-81494380D01*
X131405333Y-82494380D02*
X130976761Y-81922952D01*
X131405333Y-81494380D02*
X130833904Y-82065809D01*
X132357714Y-82494380D02*
X131786285Y-82494380D01*
X132072000Y-82494380D02*
X132072000Y-81494380D01*
X131976761Y-81637238D01*
X131881523Y-81732476D01*
X131786285Y-81780095D01*
X94789666Y-108545380D02*
X94789666Y-109259666D01*
X94742047Y-109402523D01*
X94646809Y-109497761D01*
X94503952Y-109545380D01*
X94408714Y-109545380D01*
X95742047Y-108545380D02*
X95265857Y-108545380D01*
X95218238Y-109021571D01*
X95265857Y-108973952D01*
X95361095Y-108926333D01*
X95599190Y-108926333D01*
X95694428Y-108973952D01*
X95742047Y-109021571D01*
X95789666Y-109116809D01*
X95789666Y-109354904D01*
X95742047Y-109450142D01*
X95694428Y-109497761D01*
X95599190Y-109545380D01*
X95361095Y-109545380D01*
X95265857Y-109497761D01*
X95218238Y-109450142D01*
X65111333Y-86844142D02*
X65063714Y-86891761D01*
X64920857Y-86939380D01*
X64825619Y-86939380D01*
X64682761Y-86891761D01*
X64587523Y-86796523D01*
X64539904Y-86701285D01*
X64492285Y-86510809D01*
X64492285Y-86367952D01*
X64539904Y-86177476D01*
X64587523Y-86082238D01*
X64682761Y-85987000D01*
X64825619Y-85939380D01*
X64920857Y-85939380D01*
X65063714Y-85987000D01*
X65111333Y-86034619D01*
X65968476Y-86272714D02*
X65968476Y-86939380D01*
X65730380Y-85891761D02*
X65492285Y-86606047D01*
X66111333Y-86606047D01*
X74191904Y-87701380D02*
X74191904Y-86701380D01*
X74430000Y-86701380D01*
X74572857Y-86749000D01*
X74668095Y-86844238D01*
X74715714Y-86939476D01*
X74763333Y-87129952D01*
X74763333Y-87272809D01*
X74715714Y-87463285D01*
X74668095Y-87558523D01*
X74572857Y-87653761D01*
X74430000Y-87701380D01*
X74191904Y-87701380D01*
X75715714Y-87701380D02*
X75144285Y-87701380D01*
X75430000Y-87701380D02*
X75430000Y-86701380D01*
X75334761Y-86844238D01*
X75239523Y-86939476D01*
X75144285Y-86987095D01*
X95099142Y-63380857D02*
X95146761Y-63428476D01*
X95194380Y-63571333D01*
X95194380Y-63666571D01*
X95146761Y-63809428D01*
X95051523Y-63904666D01*
X94956285Y-63952285D01*
X94765809Y-63999904D01*
X94622952Y-63999904D01*
X94432476Y-63952285D01*
X94337238Y-63904666D01*
X94242000Y-63809428D01*
X94194380Y-63666571D01*
X94194380Y-63571333D01*
X94242000Y-63428476D01*
X94289619Y-63380857D01*
X94289619Y-62999904D02*
X94242000Y-62952285D01*
X94194380Y-62857047D01*
X94194380Y-62618952D01*
X94242000Y-62523714D01*
X94289619Y-62476095D01*
X94384857Y-62428476D01*
X94480095Y-62428476D01*
X94622952Y-62476095D01*
X95194380Y-63047523D01*
X95194380Y-62428476D01*
X95194380Y-61476095D02*
X95194380Y-62047523D01*
X95194380Y-61761809D02*
X94194380Y-61761809D01*
X94337238Y-61857047D01*
X94432476Y-61952285D01*
X94480095Y-62047523D01*
X135429666Y-108545380D02*
X135429666Y-109259666D01*
X135382047Y-109402523D01*
X135286809Y-109497761D01*
X135143952Y-109545380D01*
X135048714Y-109545380D01*
X136048714Y-108973952D02*
X135953476Y-108926333D01*
X135905857Y-108878714D01*
X135858238Y-108783476D01*
X135858238Y-108735857D01*
X135905857Y-108640619D01*
X135953476Y-108593000D01*
X136048714Y-108545380D01*
X136239190Y-108545380D01*
X136334428Y-108593000D01*
X136382047Y-108640619D01*
X136429666Y-108735857D01*
X136429666Y-108783476D01*
X136382047Y-108878714D01*
X136334428Y-108926333D01*
X136239190Y-108973952D01*
X136048714Y-108973952D01*
X135953476Y-109021571D01*
X135905857Y-109069190D01*
X135858238Y-109164428D01*
X135858238Y-109354904D01*
X135905857Y-109450142D01*
X135953476Y-109497761D01*
X136048714Y-109545380D01*
X136239190Y-109545380D01*
X136334428Y-109497761D01*
X136382047Y-109450142D01*
X136429666Y-109354904D01*
X136429666Y-109164428D01*
X136382047Y-109069190D01*
X136334428Y-109021571D01*
X136239190Y-108973952D01*
X78319333Y-59158142D02*
X78271714Y-59205761D01*
X78128857Y-59253380D01*
X78033619Y-59253380D01*
X77890761Y-59205761D01*
X77795523Y-59110523D01*
X77747904Y-59015285D01*
X77700285Y-58824809D01*
X77700285Y-58681952D01*
X77747904Y-58491476D01*
X77795523Y-58396238D01*
X77890761Y-58301000D01*
X78033619Y-58253380D01*
X78128857Y-58253380D01*
X78271714Y-58301000D01*
X78319333Y-58348619D01*
X78795523Y-59253380D02*
X78986000Y-59253380D01*
X79081238Y-59205761D01*
X79128857Y-59158142D01*
X79224095Y-59015285D01*
X79271714Y-58824809D01*
X79271714Y-58443857D01*
X79224095Y-58348619D01*
X79176476Y-58301000D01*
X79081238Y-58253380D01*
X78890761Y-58253380D01*
X78795523Y-58301000D01*
X78747904Y-58348619D01*
X78700285Y-58443857D01*
X78700285Y-58681952D01*
X78747904Y-58777190D01*
X78795523Y-58824809D01*
X78890761Y-58872428D01*
X79081238Y-58872428D01*
X79176476Y-58824809D01*
X79224095Y-58777190D01*
X79271714Y-58681952D01*
X115109666Y-108545380D02*
X115109666Y-109259666D01*
X115062047Y-109402523D01*
X114966809Y-109497761D01*
X114823952Y-109545380D01*
X114728714Y-109545380D01*
X116014428Y-108545380D02*
X115823952Y-108545380D01*
X115728714Y-108593000D01*
X115681095Y-108640619D01*
X115585857Y-108783476D01*
X115538238Y-108973952D01*
X115538238Y-109354904D01*
X115585857Y-109450142D01*
X115633476Y-109497761D01*
X115728714Y-109545380D01*
X115919190Y-109545380D01*
X116014428Y-109497761D01*
X116062047Y-109450142D01*
X116109666Y-109354904D01*
X116109666Y-109116809D01*
X116062047Y-109021571D01*
X116014428Y-108973952D01*
X115919190Y-108926333D01*
X115728714Y-108926333D01*
X115633476Y-108973952D01*
X115585857Y-109021571D01*
X115538238Y-109116809D01*
X76319142Y-52681142D02*
X76271523Y-52728761D01*
X76128666Y-52776380D01*
X76033428Y-52776380D01*
X75890571Y-52728761D01*
X75795333Y-52633523D01*
X75747714Y-52538285D01*
X75700095Y-52347809D01*
X75700095Y-52204952D01*
X75747714Y-52014476D01*
X75795333Y-51919238D01*
X75890571Y-51824000D01*
X76033428Y-51776380D01*
X76128666Y-51776380D01*
X76271523Y-51824000D01*
X76319142Y-51871619D01*
X77271523Y-52776380D02*
X76700095Y-52776380D01*
X76985809Y-52776380D02*
X76985809Y-51776380D01*
X76890571Y-51919238D01*
X76795333Y-52014476D01*
X76700095Y-52062095D01*
X77604857Y-51776380D02*
X78271523Y-51776380D01*
X77842952Y-52776380D01*
X145629333Y-90400142D02*
X145581714Y-90447761D01*
X145438857Y-90495380D01*
X145343619Y-90495380D01*
X145200761Y-90447761D01*
X145105523Y-90352523D01*
X145057904Y-90257285D01*
X145010285Y-90066809D01*
X145010285Y-89923952D01*
X145057904Y-89733476D01*
X145105523Y-89638238D01*
X145200761Y-89543000D01*
X145343619Y-89495380D01*
X145438857Y-89495380D01*
X145581714Y-89543000D01*
X145629333Y-89590619D01*
X146486476Y-89495380D02*
X146296000Y-89495380D01*
X146200761Y-89543000D01*
X146153142Y-89590619D01*
X146057904Y-89733476D01*
X146010285Y-89923952D01*
X146010285Y-90304904D01*
X146057904Y-90400142D01*
X146105523Y-90447761D01*
X146200761Y-90495380D01*
X146391238Y-90495380D01*
X146486476Y-90447761D01*
X146534095Y-90400142D01*
X146581714Y-90304904D01*
X146581714Y-90066809D01*
X146534095Y-89971571D01*
X146486476Y-89923952D01*
X146391238Y-89876333D01*
X146200761Y-89876333D01*
X146105523Y-89923952D01*
X146057904Y-89971571D01*
X146010285Y-90066809D01*
X81875333Y-78843142D02*
X81827714Y-78890761D01*
X81684857Y-78938380D01*
X81589619Y-78938380D01*
X81446761Y-78890761D01*
X81351523Y-78795523D01*
X81303904Y-78700285D01*
X81256285Y-78509809D01*
X81256285Y-78366952D01*
X81303904Y-78176476D01*
X81351523Y-78081238D01*
X81446761Y-77986000D01*
X81589619Y-77938380D01*
X81684857Y-77938380D01*
X81827714Y-77986000D01*
X81875333Y-78033619D01*
X82256285Y-78033619D02*
X82303904Y-77986000D01*
X82399142Y-77938380D01*
X82637238Y-77938380D01*
X82732476Y-77986000D01*
X82780095Y-78033619D01*
X82827714Y-78128857D01*
X82827714Y-78224095D01*
X82780095Y-78366952D01*
X82208666Y-78938380D01*
X82827714Y-78938380D01*
X127373142Y-91162142D02*
X127325523Y-91209761D01*
X127182666Y-91257380D01*
X127087428Y-91257380D01*
X126944571Y-91209761D01*
X126849333Y-91114523D01*
X126801714Y-91019285D01*
X126754095Y-90828809D01*
X126754095Y-90685952D01*
X126801714Y-90495476D01*
X126849333Y-90400238D01*
X126944571Y-90305000D01*
X127087428Y-90257380D01*
X127182666Y-90257380D01*
X127325523Y-90305000D01*
X127373142Y-90352619D01*
X128325523Y-91257380D02*
X127754095Y-91257380D01*
X128039809Y-91257380D02*
X128039809Y-90257380D01*
X127944571Y-90400238D01*
X127849333Y-90495476D01*
X127754095Y-90543095D01*
X129182666Y-90590714D02*
X129182666Y-91257380D01*
X128944571Y-90209761D02*
X128706476Y-90924047D01*
X129325523Y-90924047D01*
X105918095Y-78192380D02*
X105918095Y-79001904D01*
X105965714Y-79097142D01*
X106013333Y-79144761D01*
X106108571Y-79192380D01*
X106299047Y-79192380D01*
X106394285Y-79144761D01*
X106441904Y-79097142D01*
X106489523Y-79001904D01*
X106489523Y-78192380D01*
X107441904Y-78192380D02*
X106965714Y-78192380D01*
X106918095Y-78668571D01*
X106965714Y-78620952D01*
X107060952Y-78573333D01*
X107299047Y-78573333D01*
X107394285Y-78620952D01*
X107441904Y-78668571D01*
X107489523Y-78763809D01*
X107489523Y-79001904D01*
X107441904Y-79097142D01*
X107394285Y-79144761D01*
X107299047Y-79192380D01*
X107060952Y-79192380D01*
X106965714Y-79144761D01*
X106918095Y-79097142D01*
X101918095Y-54428666D02*
X102394285Y-54428666D01*
X101822857Y-54714380D02*
X102156190Y-53714380D01*
X102489523Y-54714380D01*
X102822857Y-54047714D02*
X102822857Y-54714380D01*
X102822857Y-54142952D02*
X102870476Y-54095333D01*
X102965714Y-54047714D01*
X103108571Y-54047714D01*
X103203809Y-54095333D01*
X103251428Y-54190571D01*
X103251428Y-54714380D01*
X103584761Y-54047714D02*
X103965714Y-54047714D01*
X103727619Y-53714380D02*
X103727619Y-54571523D01*
X103775238Y-54666761D01*
X103870476Y-54714380D01*
X103965714Y-54714380D01*
X104680000Y-54666761D02*
X104584761Y-54714380D01*
X104394285Y-54714380D01*
X104299047Y-54666761D01*
X104251428Y-54571523D01*
X104251428Y-54190571D01*
X104299047Y-54095333D01*
X104394285Y-54047714D01*
X104584761Y-54047714D01*
X104680000Y-54095333D01*
X104727619Y-54190571D01*
X104727619Y-54285809D01*
X104251428Y-54381047D01*
X105156190Y-54047714D02*
X105156190Y-54714380D01*
X105156190Y-54142952D02*
X105203809Y-54095333D01*
X105299047Y-54047714D01*
X105441904Y-54047714D01*
X105537142Y-54095333D01*
X105584761Y-54190571D01*
X105584761Y-54714380D01*
X106060952Y-54047714D02*
X106060952Y-54714380D01*
X106060952Y-54142952D02*
X106108571Y-54095333D01*
X106203809Y-54047714D01*
X106346666Y-54047714D01*
X106441904Y-54095333D01*
X106489523Y-54190571D01*
X106489523Y-54714380D01*
X107394285Y-54714380D02*
X107394285Y-54190571D01*
X107346666Y-54095333D01*
X107251428Y-54047714D01*
X107060952Y-54047714D01*
X106965714Y-54095333D01*
X107394285Y-54666761D02*
X107299047Y-54714380D01*
X107060952Y-54714380D01*
X106965714Y-54666761D01*
X106918095Y-54571523D01*
X106918095Y-54476285D01*
X106965714Y-54381047D01*
X107060952Y-54333428D01*
X107299047Y-54333428D01*
X107394285Y-54285809D01*
X108584761Y-54428666D02*
X109060952Y-54428666D01*
X108489523Y-54714380D02*
X108822857Y-53714380D01*
X109156190Y-54714380D01*
X109489523Y-54714380D02*
X109489523Y-54047714D01*
X109489523Y-54238190D02*
X109537142Y-54142952D01*
X109584761Y-54095333D01*
X109680000Y-54047714D01*
X109775238Y-54047714D01*
X110489523Y-54666761D02*
X110394285Y-54714380D01*
X110203809Y-54714380D01*
X110108571Y-54666761D01*
X110060952Y-54571523D01*
X110060952Y-54190571D01*
X110108571Y-54095333D01*
X110203809Y-54047714D01*
X110394285Y-54047714D01*
X110489523Y-54095333D01*
X110537142Y-54190571D01*
X110537142Y-54285809D01*
X110060952Y-54381047D01*
X111394285Y-54714380D02*
X111394285Y-54190571D01*
X111346666Y-54095333D01*
X111251428Y-54047714D01*
X111060952Y-54047714D01*
X110965714Y-54095333D01*
X111394285Y-54666761D02*
X111299047Y-54714380D01*
X111060952Y-54714380D01*
X110965714Y-54666761D01*
X110918095Y-54571523D01*
X110918095Y-54476285D01*
X110965714Y-54381047D01*
X111060952Y-54333428D01*
X111299047Y-54333428D01*
X111394285Y-54285809D01*
X86733142Y-91162142D02*
X86685523Y-91209761D01*
X86542666Y-91257380D01*
X86447428Y-91257380D01*
X86304571Y-91209761D01*
X86209333Y-91114523D01*
X86161714Y-91019285D01*
X86114095Y-90828809D01*
X86114095Y-90685952D01*
X86161714Y-90495476D01*
X86209333Y-90400238D01*
X86304571Y-90305000D01*
X86447428Y-90257380D01*
X86542666Y-90257380D01*
X86685523Y-90305000D01*
X86733142Y-90352619D01*
X87685523Y-91257380D02*
X87114095Y-91257380D01*
X87399809Y-91257380D02*
X87399809Y-90257380D01*
X87304571Y-90400238D01*
X87209333Y-90495476D01*
X87114095Y-90543095D01*
X88637904Y-91257380D02*
X88066476Y-91257380D01*
X88352190Y-91257380D02*
X88352190Y-90257380D01*
X88256952Y-90400238D01*
X88161714Y-90495476D01*
X88066476Y-90543095D01*
X70127904Y-95194380D02*
X70127904Y-94194380D01*
X70366000Y-94194380D01*
X70508857Y-94242000D01*
X70604095Y-94337238D01*
X70651714Y-94432476D01*
X70699333Y-94622952D01*
X70699333Y-94765809D01*
X70651714Y-94956285D01*
X70604095Y-95051523D01*
X70508857Y-95146761D01*
X70366000Y-95194380D01*
X70127904Y-95194380D01*
X71032666Y-94194380D02*
X71651714Y-94194380D01*
X71318380Y-94575333D01*
X71461238Y-94575333D01*
X71556476Y-94622952D01*
X71604095Y-94670571D01*
X71651714Y-94765809D01*
X71651714Y-95003904D01*
X71604095Y-95099142D01*
X71556476Y-95146761D01*
X71461238Y-95194380D01*
X71175523Y-95194380D01*
X71080285Y-95146761D01*
X71032666Y-95099142D01*
X146304095Y-101687380D02*
X146304095Y-102496904D01*
X146351714Y-102592142D01*
X146399333Y-102639761D01*
X146494571Y-102687380D01*
X146685047Y-102687380D01*
X146780285Y-102639761D01*
X146827904Y-102592142D01*
X146875523Y-102496904D01*
X146875523Y-101687380D01*
X147256476Y-101687380D02*
X147875523Y-101687380D01*
X147542190Y-102068333D01*
X147685047Y-102068333D01*
X147780285Y-102115952D01*
X147827904Y-102163571D01*
X147875523Y-102258809D01*
X147875523Y-102496904D01*
X147827904Y-102592142D01*
X147780285Y-102639761D01*
X147685047Y-102687380D01*
X147399333Y-102687380D01*
X147304095Y-102639761D01*
X147256476Y-102592142D01*
X79589333Y-77319142D02*
X79541714Y-77366761D01*
X79398857Y-77414380D01*
X79303619Y-77414380D01*
X79160761Y-77366761D01*
X79065523Y-77271523D01*
X79017904Y-77176285D01*
X78970285Y-76985809D01*
X78970285Y-76842952D01*
X79017904Y-76652476D01*
X79065523Y-76557238D01*
X79160761Y-76462000D01*
X79303619Y-76414380D01*
X79398857Y-76414380D01*
X79541714Y-76462000D01*
X79589333Y-76509619D01*
X79922666Y-76414380D02*
X80541714Y-76414380D01*
X80208380Y-76795333D01*
X80351238Y-76795333D01*
X80446476Y-76842952D01*
X80494095Y-76890571D01*
X80541714Y-76985809D01*
X80541714Y-77223904D01*
X80494095Y-77319142D01*
X80446476Y-77366761D01*
X80351238Y-77414380D01*
X80065523Y-77414380D01*
X79970285Y-77366761D01*
X79922666Y-77319142D01*
X60904380Y-53728857D02*
X60428190Y-54062190D01*
X60904380Y-54300285D02*
X59904380Y-54300285D01*
X59904380Y-53919333D01*
X59952000Y-53824095D01*
X59999619Y-53776476D01*
X60094857Y-53728857D01*
X60237714Y-53728857D01*
X60332952Y-53776476D01*
X60380571Y-53824095D01*
X60428190Y-53919333D01*
X60428190Y-54300285D01*
X60904380Y-52776476D02*
X60904380Y-53347904D01*
X60904380Y-53062190D02*
X59904380Y-53062190D01*
X60047238Y-53157428D01*
X60142476Y-53252666D01*
X60190095Y-53347904D01*
X59904380Y-52443142D02*
X59904380Y-51824095D01*
X60285333Y-52157428D01*
X60285333Y-52014571D01*
X60332952Y-51919333D01*
X60380571Y-51871714D01*
X60475809Y-51824095D01*
X60713904Y-51824095D01*
X60809142Y-51871714D01*
X60856761Y-51919333D01*
X60904380Y-52014571D01*
X60904380Y-52300285D01*
X60856761Y-52395523D01*
X60809142Y-52443142D01*
X71842333Y-61666380D02*
X71509000Y-61190190D01*
X71270904Y-61666380D02*
X71270904Y-60666380D01*
X71651857Y-60666380D01*
X71747095Y-60714000D01*
X71794714Y-60761619D01*
X71842333Y-60856857D01*
X71842333Y-60999714D01*
X71794714Y-61094952D01*
X71747095Y-61142571D01*
X71651857Y-61190190D01*
X71270904Y-61190190D01*
X72794714Y-61666380D02*
X72223285Y-61666380D01*
X72509000Y-61666380D02*
X72509000Y-60666380D01*
X72413761Y-60809238D01*
X72318523Y-60904476D01*
X72223285Y-60952095D01*
X97369333Y-94940380D02*
X97036000Y-94464190D01*
X96797904Y-94940380D02*
X96797904Y-93940380D01*
X97178857Y-93940380D01*
X97274095Y-93988000D01*
X97321714Y-94035619D01*
X97369333Y-94130857D01*
X97369333Y-94273714D01*
X97321714Y-94368952D01*
X97274095Y-94416571D01*
X97178857Y-94464190D01*
X96797904Y-94464190D01*
X97702666Y-93940380D02*
X98369333Y-93940380D01*
X97940761Y-94940380D01*
X65111333Y-84431142D02*
X65063714Y-84478761D01*
X64920857Y-84526380D01*
X64825619Y-84526380D01*
X64682761Y-84478761D01*
X64587523Y-84383523D01*
X64539904Y-84288285D01*
X64492285Y-84097809D01*
X64492285Y-83954952D01*
X64539904Y-83764476D01*
X64587523Y-83669238D01*
X64682761Y-83574000D01*
X64825619Y-83526380D01*
X64920857Y-83526380D01*
X65063714Y-83574000D01*
X65111333Y-83621619D01*
X66016095Y-83526380D02*
X65539904Y-83526380D01*
X65492285Y-84002571D01*
X65539904Y-83954952D01*
X65635142Y-83907333D01*
X65873238Y-83907333D01*
X65968476Y-83954952D01*
X66016095Y-84002571D01*
X66063714Y-84097809D01*
X66063714Y-84335904D01*
X66016095Y-84431142D01*
X65968476Y-84478761D01*
X65873238Y-84526380D01*
X65635142Y-84526380D01*
X65539904Y-84478761D01*
X65492285Y-84431142D01*
X53387666Y-71080380D02*
X53387666Y-71794666D01*
X53340047Y-71937523D01*
X53244809Y-72032761D01*
X53101952Y-72080380D01*
X53006714Y-72080380D01*
X53816238Y-71175619D02*
X53863857Y-71128000D01*
X53959095Y-71080380D01*
X54197190Y-71080380D01*
X54292428Y-71128000D01*
X54340047Y-71175619D01*
X54387666Y-71270857D01*
X54387666Y-71366095D01*
X54340047Y-71508952D01*
X53768619Y-72080380D01*
X54387666Y-72080380D01*
X92178142Y-63380857D02*
X92225761Y-63428476D01*
X92273380Y-63571333D01*
X92273380Y-63666571D01*
X92225761Y-63809428D01*
X92130523Y-63904666D01*
X92035285Y-63952285D01*
X91844809Y-63999904D01*
X91701952Y-63999904D01*
X91511476Y-63952285D01*
X91416238Y-63904666D01*
X91321000Y-63809428D01*
X91273380Y-63666571D01*
X91273380Y-63571333D01*
X91321000Y-63428476D01*
X91368619Y-63380857D01*
X91368619Y-62999904D02*
X91321000Y-62952285D01*
X91273380Y-62857047D01*
X91273380Y-62618952D01*
X91321000Y-62523714D01*
X91368619Y-62476095D01*
X91463857Y-62428476D01*
X91559095Y-62428476D01*
X91701952Y-62476095D01*
X92273380Y-63047523D01*
X92273380Y-62428476D01*
X91273380Y-61809428D02*
X91273380Y-61714190D01*
X91321000Y-61618952D01*
X91368619Y-61571333D01*
X91463857Y-61523714D01*
X91654333Y-61476095D01*
X91892428Y-61476095D01*
X92082904Y-61523714D01*
X92178142Y-61571333D01*
X92225761Y-61618952D01*
X92273380Y-61714190D01*
X92273380Y-61809428D01*
X92225761Y-61904666D01*
X92178142Y-61952285D01*
X92082904Y-61999904D01*
X91892428Y-62047523D01*
X91654333Y-62047523D01*
X91463857Y-61999904D01*
X91368619Y-61952285D01*
X91321000Y-61904666D01*
X91273380Y-61809428D01*
X142033666Y-87844375D02*
X142033666Y-88558661D01*
X141986047Y-88701518D01*
X141890809Y-88796756D01*
X141747952Y-88844375D01*
X141652714Y-88844375D01*
X142557476Y-88844375D02*
X142747952Y-88844375D01*
X142843190Y-88796756D01*
X142890809Y-88749137D01*
X142986047Y-88606280D01*
X143033666Y-88415804D01*
X143033666Y-88034852D01*
X142986047Y-87939614D01*
X142938428Y-87891995D01*
X142843190Y-87844375D01*
X142652714Y-87844375D01*
X142557476Y-87891995D01*
X142509857Y-87939614D01*
X142462238Y-88034852D01*
X142462238Y-88272947D01*
X142509857Y-88368185D01*
X142557476Y-88415804D01*
X142652714Y-88463423D01*
X142843190Y-88463423D01*
X142938428Y-88415804D01*
X142986047Y-88368185D01*
X143033666Y-88272947D01*
X67524333Y-61571142D02*
X67476714Y-61618761D01*
X67333857Y-61666380D01*
X67238619Y-61666380D01*
X67095761Y-61618761D01*
X67000523Y-61523523D01*
X66952904Y-61428285D01*
X66905285Y-61237809D01*
X66905285Y-61094952D01*
X66952904Y-60904476D01*
X67000523Y-60809238D01*
X67095761Y-60714000D01*
X67238619Y-60666380D01*
X67333857Y-60666380D01*
X67476714Y-60714000D01*
X67524333Y-60761619D01*
X68095761Y-61094952D02*
X68000523Y-61047333D01*
X67952904Y-60999714D01*
X67905285Y-60904476D01*
X67905285Y-60856857D01*
X67952904Y-60761619D01*
X68000523Y-60714000D01*
X68095761Y-60666380D01*
X68286238Y-60666380D01*
X68381476Y-60714000D01*
X68429095Y-60761619D01*
X68476714Y-60856857D01*
X68476714Y-60904476D01*
X68429095Y-60999714D01*
X68381476Y-61047333D01*
X68286238Y-61094952D01*
X68095761Y-61094952D01*
X68000523Y-61142571D01*
X67952904Y-61190190D01*
X67905285Y-61285428D01*
X67905285Y-61475904D01*
X67952904Y-61571142D01*
X68000523Y-61618761D01*
X68095761Y-61666380D01*
X68286238Y-61666380D01*
X68381476Y-61618761D01*
X68429095Y-61571142D01*
X68476714Y-61475904D01*
X68476714Y-61285428D01*
X68429095Y-61190190D01*
X68381476Y-61142571D01*
X68286238Y-61094952D01*
X79756095Y-70445380D02*
X79756095Y-71254904D01*
X79803714Y-71350142D01*
X79851333Y-71397761D01*
X79946571Y-71445380D01*
X80137047Y-71445380D01*
X80232285Y-71397761D01*
X80279904Y-71350142D01*
X80327523Y-71254904D01*
X80327523Y-70445380D01*
X81232285Y-70778714D02*
X81232285Y-71445380D01*
X80994190Y-70397761D02*
X80756095Y-71112047D01*
X81375142Y-71112047D01*
X138041142Y-94940380D02*
X137707809Y-94464190D01*
X137469714Y-94940380D02*
X137469714Y-93940380D01*
X137850666Y-93940380D01*
X137945904Y-93988000D01*
X137993523Y-94035619D01*
X138041142Y-94130857D01*
X138041142Y-94273714D01*
X137993523Y-94368952D01*
X137945904Y-94416571D01*
X137850666Y-94464190D01*
X137469714Y-94464190D01*
X138993523Y-94940380D02*
X138422095Y-94940380D01*
X138707809Y-94940380D02*
X138707809Y-93940380D01*
X138612571Y-94083238D01*
X138517333Y-94178476D01*
X138422095Y-94226095D01*
X139612571Y-93940380D02*
X139707809Y-93940380D01*
X139803047Y-93988000D01*
X139850666Y-94035619D01*
X139898285Y-94130857D01*
X139945904Y-94321333D01*
X139945904Y-94559428D01*
X139898285Y-94749904D01*
X139850666Y-94845142D01*
X139803047Y-94892761D01*
X139707809Y-94940380D01*
X139612571Y-94940380D01*
X139517333Y-94892761D01*
X139469714Y-94845142D01*
X139422095Y-94749904D01*
X139374476Y-94559428D01*
X139374476Y-94321333D01*
X139422095Y-94130857D01*
X139469714Y-94035619D01*
X139517333Y-93988000D01*
X139612571Y-93940380D01*
X61555380Y-79041523D02*
X62269666Y-79041523D01*
X62412523Y-79089142D01*
X62507761Y-79184380D01*
X62555380Y-79327238D01*
X62555380Y-79422476D01*
X62555380Y-78041523D02*
X62555380Y-78612952D01*
X62555380Y-78327238D02*
X61555380Y-78327238D01*
X61698238Y-78422476D01*
X61793476Y-78517714D01*
X61841095Y-78612952D01*
X62555380Y-77089142D02*
X62555380Y-77660571D01*
X62555380Y-77374857D02*
X61555380Y-77374857D01*
X61698238Y-77470095D01*
X61793476Y-77565333D01*
X61841095Y-77660571D01*
X77303264Y-105964110D02*
X78017702Y-105964110D01*
X78160589Y-106011740D01*
X78255848Y-106106998D01*
X78303477Y-106249885D01*
X78303477Y-106345144D01*
X78303477Y-105487818D02*
X77303264Y-105487818D01*
X78303477Y-104916268D02*
X77731927Y-105344931D01*
X77303264Y-104916268D02*
X77874814Y-105487818D01*
X78303477Y-103963684D02*
X78303477Y-104535235D01*
X78303477Y-104249459D02*
X77303264Y-104249459D01*
X77446151Y-104344718D01*
X77541410Y-104439976D01*
X77589039Y-104535235D01*
X77430333Y-84812142D02*
X77382714Y-84859761D01*
X77239857Y-84907380D01*
X77144619Y-84907380D01*
X77001761Y-84859761D01*
X76906523Y-84764523D01*
X76858904Y-84669285D01*
X76811285Y-84478809D01*
X76811285Y-84335952D01*
X76858904Y-84145476D01*
X76906523Y-84050238D01*
X77001761Y-83955000D01*
X77144619Y-83907380D01*
X77239857Y-83907380D01*
X77382714Y-83955000D01*
X77430333Y-84002619D01*
X78382714Y-84907380D02*
X77811285Y-84907380D01*
X78097000Y-84907380D02*
X78097000Y-83907380D01*
X78001761Y-84050238D01*
X77906523Y-84145476D01*
X77811285Y-84193095D01*
X137533142Y-91162142D02*
X137485523Y-91209761D01*
X137342666Y-91257380D01*
X137247428Y-91257380D01*
X137104571Y-91209761D01*
X137009333Y-91114523D01*
X136961714Y-91019285D01*
X136914095Y-90828809D01*
X136914095Y-90685952D01*
X136961714Y-90495476D01*
X137009333Y-90400238D01*
X137104571Y-90305000D01*
X137247428Y-90257380D01*
X137342666Y-90257380D01*
X137485523Y-90305000D01*
X137533142Y-90352619D01*
X138485523Y-91257380D02*
X137914095Y-91257380D01*
X138199809Y-91257380D02*
X138199809Y-90257380D01*
X138104571Y-90400238D01*
X138009333Y-90495476D01*
X137914095Y-90543095D01*
X139390285Y-90257380D02*
X138914095Y-90257380D01*
X138866476Y-90733571D01*
X138914095Y-90685952D01*
X139009333Y-90638333D01*
X139247428Y-90638333D01*
X139342666Y-90685952D01*
X139390285Y-90733571D01*
X139437904Y-90828809D01*
X139437904Y-91066904D01*
X139390285Y-91162142D01*
X139342666Y-91209761D01*
X139247428Y-91257380D01*
X139009333Y-91257380D01*
X138914095Y-91209761D01*
X138866476Y-91162142D01*
X127849333Y-94940380D02*
X127516000Y-94464190D01*
X127277904Y-94940380D02*
X127277904Y-93940380D01*
X127658857Y-93940380D01*
X127754095Y-93988000D01*
X127801714Y-94035619D01*
X127849333Y-94130857D01*
X127849333Y-94273714D01*
X127801714Y-94368952D01*
X127754095Y-94416571D01*
X127658857Y-94464190D01*
X127277904Y-94464190D01*
X128325523Y-94940380D02*
X128516000Y-94940380D01*
X128611238Y-94892761D01*
X128658857Y-94845142D01*
X128754095Y-94702285D01*
X128801714Y-94511809D01*
X128801714Y-94130857D01*
X128754095Y-94035619D01*
X128706476Y-93988000D01*
X128611238Y-93940380D01*
X128420761Y-93940380D01*
X128325523Y-93988000D01*
X128277904Y-94035619D01*
X128230285Y-94130857D01*
X128230285Y-94368952D01*
X128277904Y-94464190D01*
X128325523Y-94511809D01*
X128420761Y-94559428D01*
X128611238Y-94559428D01*
X128706476Y-94511809D01*
X128754095Y-94464190D01*
X128801714Y-94368952D01*
X138382476Y-57872380D02*
X138382476Y-58586666D01*
X138334857Y-58729523D01*
X138239619Y-58824761D01*
X138096761Y-58872380D01*
X138001523Y-58872380D01*
X139382476Y-58872380D02*
X138811047Y-58872380D01*
X139096761Y-58872380D02*
X139096761Y-57872380D01*
X139001523Y-58015238D01*
X138906285Y-58110476D01*
X138811047Y-58158095D01*
X140001523Y-57872380D02*
X140096761Y-57872380D01*
X140192000Y-57920000D01*
X140239619Y-57967619D01*
X140287238Y-58062857D01*
X140334857Y-58253333D01*
X140334857Y-58491428D01*
X140287238Y-58681904D01*
X140239619Y-58777142D01*
X140192000Y-58824761D01*
X140096761Y-58872380D01*
X140001523Y-58872380D01*
X139906285Y-58824761D01*
X139858666Y-58777142D01*
X139811047Y-58681904D01*
X139763428Y-58491428D01*
X139763428Y-58253333D01*
X139811047Y-58062857D01*
X139858666Y-57967619D01*
X139906285Y-57920000D01*
X140001523Y-57872380D01*
X86193333Y-66619380D02*
X85860000Y-66143190D01*
X85621904Y-66619380D02*
X85621904Y-65619380D01*
X86002857Y-65619380D01*
X86098095Y-65667000D01*
X86145714Y-65714619D01*
X86193333Y-65809857D01*
X86193333Y-65952714D01*
X86145714Y-66047952D01*
X86098095Y-66095571D01*
X86002857Y-66143190D01*
X85621904Y-66143190D01*
X86526666Y-65619380D02*
X87145714Y-65619380D01*
X86812380Y-66000333D01*
X86955238Y-66000333D01*
X87050476Y-66047952D01*
X87098095Y-66095571D01*
X87145714Y-66190809D01*
X87145714Y-66428904D01*
X87098095Y-66524142D01*
X87050476Y-66571761D01*
X86955238Y-66619380D01*
X86669523Y-66619380D01*
X86574285Y-66571761D01*
X86526666Y-66524142D01*
X79621142Y-52776380D02*
X79287809Y-52300190D01*
X79049714Y-52776380D02*
X79049714Y-51776380D01*
X79430666Y-51776380D01*
X79525904Y-51824000D01*
X79573523Y-51871619D01*
X79621142Y-51966857D01*
X79621142Y-52109714D01*
X79573523Y-52204952D01*
X79525904Y-52252571D01*
X79430666Y-52300190D01*
X79049714Y-52300190D01*
X80573523Y-52776380D02*
X80002095Y-52776380D01*
X80287809Y-52776380D02*
X80287809Y-51776380D01*
X80192571Y-51919238D01*
X80097333Y-52014476D01*
X80002095Y-52062095D01*
X81525904Y-52776380D02*
X80954476Y-52776380D01*
X81240190Y-52776380D02*
X81240190Y-51776380D01*
X81144952Y-51919238D01*
X81049714Y-52014476D01*
X80954476Y-52062095D01*
X104949666Y-108545380D02*
X104949666Y-109259666D01*
X104902047Y-109402523D01*
X104806809Y-109497761D01*
X104663952Y-109545380D01*
X104568714Y-109545380D01*
X105330619Y-108545380D02*
X105949666Y-108545380D01*
X105616333Y-108926333D01*
X105759190Y-108926333D01*
X105854428Y-108973952D01*
X105902047Y-109021571D01*
X105949666Y-109116809D01*
X105949666Y-109354904D01*
X105902047Y-109450142D01*
X105854428Y-109497761D01*
X105759190Y-109545380D01*
X105473476Y-109545380D01*
X105378238Y-109497761D01*
X105330619Y-109450142D01*
X62785666Y-88860380D02*
X62785666Y-89574666D01*
X62738047Y-89717523D01*
X62642809Y-89812761D01*
X62499952Y-89860380D01*
X62404714Y-89860380D01*
X63785666Y-89860380D02*
X63214238Y-89860380D01*
X63499952Y-89860380D02*
X63499952Y-88860380D01*
X63404714Y-89003238D01*
X63309476Y-89098476D01*
X63214238Y-89146095D01*
X125269666Y-108545380D02*
X125269666Y-109259666D01*
X125222047Y-109402523D01*
X125126809Y-109497761D01*
X124983952Y-109545380D01*
X124888714Y-109545380D01*
X125650619Y-108545380D02*
X126317285Y-108545380D01*
X125888714Y-109545380D01*
X107529333Y-94940380D02*
X107196000Y-94464190D01*
X106957904Y-94940380D02*
X106957904Y-93940380D01*
X107338857Y-93940380D01*
X107434095Y-93988000D01*
X107481714Y-94035619D01*
X107529333Y-94130857D01*
X107529333Y-94273714D01*
X107481714Y-94368952D01*
X107434095Y-94416571D01*
X107338857Y-94464190D01*
X106957904Y-94464190D01*
X108434095Y-93940380D02*
X107957904Y-93940380D01*
X107910285Y-94416571D01*
X107957904Y-94368952D01*
X108053142Y-94321333D01*
X108291238Y-94321333D01*
X108386476Y-94368952D01*
X108434095Y-94416571D01*
X108481714Y-94511809D01*
X108481714Y-94749904D01*
X108434095Y-94845142D01*
X108386476Y-94892761D01*
X108291238Y-94940380D01*
X108053142Y-94940380D01*
X107957904Y-94892761D01*
X107910285Y-94845142D01*
X117689333Y-94940380D02*
X117356000Y-94464190D01*
X117117904Y-94940380D02*
X117117904Y-93940380D01*
X117498857Y-93940380D01*
X117594095Y-93988000D01*
X117641714Y-94035619D01*
X117689333Y-94130857D01*
X117689333Y-94273714D01*
X117641714Y-94368952D01*
X117594095Y-94416571D01*
X117498857Y-94464190D01*
X117117904Y-94464190D01*
X118260761Y-94368952D02*
X118165523Y-94321333D01*
X118117904Y-94273714D01*
X118070285Y-94178476D01*
X118070285Y-94130857D01*
X118117904Y-94035619D01*
X118165523Y-93988000D01*
X118260761Y-93940380D01*
X118451238Y-93940380D01*
X118546476Y-93988000D01*
X118594095Y-94035619D01*
X118641714Y-94130857D01*
X118641714Y-94178476D01*
X118594095Y-94273714D01*
X118546476Y-94321333D01*
X118451238Y-94368952D01*
X118260761Y-94368952D01*
X118165523Y-94416571D01*
X118117904Y-94464190D01*
X118070285Y-94559428D01*
X118070285Y-94749904D01*
X118117904Y-94845142D01*
X118165523Y-94892761D01*
X118260761Y-94940380D01*
X118451238Y-94940380D01*
X118546476Y-94892761D01*
X118594095Y-94845142D01*
X118641714Y-94749904D01*
X118641714Y-94559428D01*
X118594095Y-94464190D01*
X118546476Y-94416571D01*
X118451238Y-94368952D01*
X68405476Y-53427380D02*
X68405476Y-54141666D01*
X68357857Y-54284523D01*
X68262619Y-54379761D01*
X68119761Y-54427380D01*
X68024523Y-54427380D01*
X69405476Y-54427380D02*
X68834047Y-54427380D01*
X69119761Y-54427380D02*
X69119761Y-53427380D01*
X69024523Y-53570238D01*
X68929285Y-53665476D01*
X68834047Y-53713095D01*
X69786428Y-53522619D02*
X69834047Y-53475000D01*
X69929285Y-53427380D01*
X70167380Y-53427380D01*
X70262619Y-53475000D01*
X70310238Y-53522619D01*
X70357857Y-53617857D01*
X70357857Y-53713095D01*
X70310238Y-53855952D01*
X69738809Y-54427380D01*
X70357857Y-54427380D01*
X71842333Y-68524380D02*
X71509000Y-68048190D01*
X71270904Y-68524380D02*
X71270904Y-67524380D01*
X71651857Y-67524380D01*
X71747095Y-67572000D01*
X71794714Y-67619619D01*
X71842333Y-67714857D01*
X71842333Y-67857714D01*
X71794714Y-67952952D01*
X71747095Y-68000571D01*
X71651857Y-68048190D01*
X71270904Y-68048190D01*
X72223285Y-67619619D02*
X72270904Y-67572000D01*
X72366142Y-67524380D01*
X72604238Y-67524380D01*
X72699476Y-67572000D01*
X72747095Y-67619619D01*
X72794714Y-67714857D01*
X72794714Y-67810095D01*
X72747095Y-67952952D01*
X72175666Y-68524380D01*
X72794714Y-68524380D01*
X133000761Y-93445619D02*
X132905523Y-93398000D01*
X132810285Y-93302761D01*
X132667428Y-93159904D01*
X132572190Y-93112285D01*
X132476952Y-93112285D01*
X132524571Y-93350380D02*
X132429333Y-93302761D01*
X132334095Y-93207523D01*
X132286476Y-93017047D01*
X132286476Y-92683714D01*
X132334095Y-92493238D01*
X132429333Y-92398000D01*
X132524571Y-92350380D01*
X132715047Y-92350380D01*
X132810285Y-92398000D01*
X132905523Y-92493238D01*
X132953142Y-92683714D01*
X132953142Y-93017047D01*
X132905523Y-93207523D01*
X132810285Y-93302761D01*
X132715047Y-93350380D01*
X132524571Y-93350380D01*
X133334095Y-92445619D02*
X133381714Y-92398000D01*
X133476952Y-92350380D01*
X133715047Y-92350380D01*
X133810285Y-92398000D01*
X133857904Y-92445619D01*
X133905523Y-92540857D01*
X133905523Y-92636095D01*
X133857904Y-92778952D01*
X133286476Y-93350380D01*
X133905523Y-93350380D01*
X122106409Y-83784113D02*
X122173163Y-83583851D01*
X122173163Y-83250080D01*
X122106409Y-83116572D01*
X122039655Y-83049818D01*
X121906147Y-82983064D01*
X121772639Y-82983064D01*
X121639131Y-83049818D01*
X121572377Y-83116572D01*
X121505622Y-83250080D01*
X121438868Y-83517097D01*
X121372114Y-83650605D01*
X121305360Y-83717359D01*
X121171852Y-83784113D01*
X121038344Y-83784113D01*
X120904836Y-83717359D01*
X120838082Y-83650605D01*
X120771328Y-83517097D01*
X120771328Y-83183326D01*
X120838082Y-82983064D01*
X120771328Y-82515786D02*
X122173163Y-82182016D01*
X121171852Y-81915000D01*
X122173163Y-81647983D01*
X120771328Y-81314213D01*
X120771328Y-80179394D02*
X120771328Y-80446410D01*
X120838082Y-80579919D01*
X120904836Y-80646673D01*
X121105098Y-80780181D01*
X121372114Y-80846935D01*
X121906147Y-80846935D01*
X122039655Y-80780181D01*
X122106409Y-80713427D01*
X122173163Y-80579919D01*
X122173163Y-80312902D01*
X122106409Y-80179394D01*
X122039655Y-80112640D01*
X121906147Y-80045886D01*
X121572377Y-80045886D01*
X121438868Y-80112640D01*
X121372114Y-80179394D01*
X121305360Y-80312902D01*
X121305360Y-80579919D01*
X121372114Y-80713427D01*
X121438868Y-80780181D01*
X121572377Y-80846935D01*
X66873380Y-105767095D02*
X65873380Y-105767095D01*
X65873380Y-105529000D01*
X65921000Y-105386142D01*
X66016238Y-105290904D01*
X66111476Y-105243285D01*
X66301952Y-105195666D01*
X66444809Y-105195666D01*
X66635285Y-105243285D01*
X66730523Y-105290904D01*
X66825761Y-105386142D01*
X66873380Y-105529000D01*
X66873380Y-105767095D01*
X65873380Y-104862333D02*
X65873380Y-104195666D01*
X66873380Y-104624238D01*
X67524333Y-68429142D02*
X67476714Y-68476761D01*
X67333857Y-68524380D01*
X67238619Y-68524380D01*
X67095761Y-68476761D01*
X67000523Y-68381523D01*
X66952904Y-68286285D01*
X66905285Y-68095809D01*
X66905285Y-67952952D01*
X66952904Y-67762476D01*
X67000523Y-67667238D01*
X67095761Y-67572000D01*
X67238619Y-67524380D01*
X67333857Y-67524380D01*
X67476714Y-67572000D01*
X67524333Y-67619619D01*
X67857666Y-67524380D02*
X68524333Y-67524380D01*
X68095761Y-68524380D01*
X87209333Y-94940380D02*
X86876000Y-94464190D01*
X86637904Y-94940380D02*
X86637904Y-93940380D01*
X87018857Y-93940380D01*
X87114095Y-93988000D01*
X87161714Y-94035619D01*
X87209333Y-94130857D01*
X87209333Y-94273714D01*
X87161714Y-94368952D01*
X87114095Y-94416571D01*
X87018857Y-94464190D01*
X86637904Y-94464190D01*
X88066476Y-93940380D02*
X87876000Y-93940380D01*
X87780761Y-93988000D01*
X87733142Y-94035619D01*
X87637904Y-94178476D01*
X87590285Y-94368952D01*
X87590285Y-94749904D01*
X87637904Y-94845142D01*
X87685523Y-94892761D01*
X87780761Y-94940380D01*
X87971238Y-94940380D01*
X88066476Y-94892761D01*
X88114095Y-94845142D01*
X88161714Y-94749904D01*
X88161714Y-94511809D01*
X88114095Y-94416571D01*
X88066476Y-94368952D01*
X87971238Y-94321333D01*
X87780761Y-94321333D01*
X87685523Y-94368952D01*
X87637904Y-94416571D01*
X87590285Y-94511809D01*
X60031333Y-110053380D02*
X59698000Y-109577190D01*
X59459904Y-110053380D02*
X59459904Y-109053380D01*
X59840857Y-109053380D01*
X59936095Y-109101000D01*
X59983714Y-109148619D01*
X60031333Y-109243857D01*
X60031333Y-109386714D01*
X59983714Y-109481952D01*
X59936095Y-109529571D01*
X59840857Y-109577190D01*
X59459904Y-109577190D01*
X60888476Y-109386714D02*
X60888476Y-110053380D01*
X60650380Y-109005761D02*
X60412285Y-109720047D01*
X61031333Y-109720047D01*
X89050904Y-65984380D02*
X89050904Y-64984380D01*
X89289000Y-64984380D01*
X89431857Y-65032000D01*
X89527095Y-65127238D01*
X89574714Y-65222476D01*
X89622333Y-65412952D01*
X89622333Y-65555809D01*
X89574714Y-65746285D01*
X89527095Y-65841523D01*
X89431857Y-65936761D01*
X89289000Y-65984380D01*
X89050904Y-65984380D01*
X90479476Y-64984380D02*
X90289000Y-64984380D01*
X90193761Y-65032000D01*
X90146142Y-65079619D01*
X90050904Y-65222476D01*
X90003285Y-65412952D01*
X90003285Y-65793904D01*
X90050904Y-65889142D01*
X90098523Y-65936761D01*
X90193761Y-65984380D01*
X90384238Y-65984380D01*
X90479476Y-65936761D01*
X90527095Y-65889142D01*
X90574714Y-65793904D01*
X90574714Y-65555809D01*
X90527095Y-65460571D01*
X90479476Y-65412952D01*
X90384238Y-65365333D01*
X90193761Y-65365333D01*
X90098523Y-65412952D01*
X90050904Y-65460571D01*
X90003285Y-65555809D01*
X84629666Y-108545380D02*
X84629666Y-109259666D01*
X84582047Y-109402523D01*
X84486809Y-109497761D01*
X84343952Y-109545380D01*
X84248714Y-109545380D01*
X85534428Y-108878714D02*
X85534428Y-109545380D01*
X85296333Y-108497761D02*
X85058238Y-109212047D01*
X85677285Y-109212047D01*
X55407886Y-63686409D02*
X55608148Y-63753163D01*
X55941919Y-63753163D01*
X56075427Y-63686409D01*
X56142181Y-63619655D01*
X56208935Y-63486147D01*
X56208935Y-63352639D01*
X56142181Y-63219131D01*
X56075427Y-63152377D01*
X55941919Y-63085622D01*
X55674902Y-63018868D01*
X55541394Y-62952114D01*
X55474640Y-62885360D01*
X55407886Y-62751852D01*
X55407886Y-62618344D01*
X55474640Y-62484836D01*
X55541394Y-62418082D01*
X55674902Y-62351328D01*
X56008673Y-62351328D01*
X56208935Y-62418082D01*
X56676213Y-62351328D02*
X57009983Y-63753163D01*
X57277000Y-62751852D01*
X57544016Y-63753163D01*
X57877786Y-62351328D01*
X59079359Y-62351328D02*
X58411818Y-62351328D01*
X58345064Y-63018868D01*
X58411818Y-62952114D01*
X58545326Y-62885360D01*
X58879097Y-62885360D01*
X59012605Y-62952114D01*
X59079359Y-63018868D01*
X59146113Y-63152377D01*
X59146113Y-63486147D01*
X59079359Y-63619655D01*
X59012605Y-63686409D01*
X58879097Y-63753163D01*
X58545326Y-63753163D01*
X58411818Y-63686409D01*
X58345064Y-63619655D01*
X117213142Y-91162142D02*
X117165523Y-91209761D01*
X117022666Y-91257380D01*
X116927428Y-91257380D01*
X116784571Y-91209761D01*
X116689333Y-91114523D01*
X116641714Y-91019285D01*
X116594095Y-90828809D01*
X116594095Y-90685952D01*
X116641714Y-90495476D01*
X116689333Y-90400238D01*
X116784571Y-90305000D01*
X116927428Y-90257380D01*
X117022666Y-90257380D01*
X117165523Y-90305000D01*
X117213142Y-90352619D01*
X118165523Y-91257380D02*
X117594095Y-91257380D01*
X117879809Y-91257380D02*
X117879809Y-90257380D01*
X117784571Y-90400238D01*
X117689333Y-90495476D01*
X117594095Y-90543095D01*
X118498857Y-90257380D02*
X119117904Y-90257380D01*
X118784571Y-90638333D01*
X118927428Y-90638333D01*
X119022666Y-90685952D01*
X119070285Y-90733571D01*
X119117904Y-90828809D01*
X119117904Y-91066904D01*
X119070285Y-91162142D01*
X119022666Y-91209761D01*
X118927428Y-91257380D01*
X118641714Y-91257380D01*
X118546476Y-91209761D01*
X118498857Y-91162142D01*
X107053142Y-91162142D02*
X107005523Y-91209761D01*
X106862666Y-91257380D01*
X106767428Y-91257380D01*
X106624571Y-91209761D01*
X106529333Y-91114523D01*
X106481714Y-91019285D01*
X106434095Y-90828809D01*
X106434095Y-90685952D01*
X106481714Y-90495476D01*
X106529333Y-90400238D01*
X106624571Y-90305000D01*
X106767428Y-90257380D01*
X106862666Y-90257380D01*
X107005523Y-90305000D01*
X107053142Y-90352619D01*
X108005523Y-91257380D02*
X107434095Y-91257380D01*
X107719809Y-91257380D02*
X107719809Y-90257380D01*
X107624571Y-90400238D01*
X107529333Y-90495476D01*
X107434095Y-90543095D01*
X108624571Y-90257380D02*
X108719809Y-90257380D01*
X108815047Y-90305000D01*
X108862666Y-90352619D01*
X108910285Y-90447857D01*
X108957904Y-90638333D01*
X108957904Y-90876428D01*
X108910285Y-91066904D01*
X108862666Y-91162142D01*
X108815047Y-91209761D01*
X108719809Y-91257380D01*
X108624571Y-91257380D01*
X108529333Y-91209761D01*
X108481714Y-91162142D01*
X108434095Y-91066904D01*
X108386476Y-90876428D01*
X108386476Y-90638333D01*
X108434095Y-90447857D01*
X108481714Y-90352619D01*
X108529333Y-90305000D01*
X108624571Y-90257380D01*
X82875380Y-91924095D02*
X81875380Y-91924095D01*
X81875380Y-91686000D01*
X81923000Y-91543142D01*
X82018238Y-91447904D01*
X82113476Y-91400285D01*
X82303952Y-91352666D01*
X82446809Y-91352666D01*
X82637285Y-91400285D01*
X82732523Y-91447904D01*
X82827761Y-91543142D01*
X82875380Y-91686000D01*
X82875380Y-91924095D01*
X82208714Y-90495523D02*
X82875380Y-90495523D01*
X81827761Y-90733619D02*
X82542047Y-90971714D01*
X82542047Y-90352666D01*
X61618904Y-67635380D02*
X61618904Y-66635380D01*
X61857000Y-66635380D01*
X61999857Y-66683000D01*
X62095095Y-66778238D01*
X62142714Y-66873476D01*
X62190333Y-67063952D01*
X62190333Y-67206809D01*
X62142714Y-67397285D01*
X62095095Y-67492523D01*
X61999857Y-67587761D01*
X61857000Y-67635380D01*
X61618904Y-67635380D01*
X63095095Y-66635380D02*
X62618904Y-66635380D01*
X62571285Y-67111571D01*
X62618904Y-67063952D01*
X62714142Y-67016333D01*
X62952238Y-67016333D01*
X63047476Y-67063952D01*
X63095095Y-67111571D01*
X63142714Y-67206809D01*
X63142714Y-67444904D01*
X63095095Y-67540142D01*
X63047476Y-67587761D01*
X62952238Y-67635380D01*
X62714142Y-67635380D01*
X62618904Y-67587761D01*
X62571285Y-67540142D01*
X68016380Y-91924095D02*
X67016380Y-91924095D01*
X67016380Y-91686000D01*
X67064000Y-91543142D01*
X67159238Y-91447904D01*
X67254476Y-91400285D01*
X67444952Y-91352666D01*
X67587809Y-91352666D01*
X67778285Y-91400285D01*
X67873523Y-91447904D01*
X67968761Y-91543142D01*
X68016380Y-91686000D01*
X68016380Y-91924095D01*
X67111619Y-90971714D02*
X67064000Y-90924095D01*
X67016380Y-90828857D01*
X67016380Y-90590761D01*
X67064000Y-90495523D01*
X67111619Y-90447904D01*
X67206857Y-90400285D01*
X67302095Y-90400285D01*
X67444952Y-90447904D01*
X68016380Y-91019333D01*
X68016380Y-90400285D01*
X128165142Y-66350142D02*
X128117523Y-66397761D01*
X127974666Y-66445380D01*
X127879428Y-66445380D01*
X127736571Y-66397761D01*
X127641333Y-66302523D01*
X127593714Y-66207285D01*
X127546095Y-66016809D01*
X127546095Y-65873952D01*
X127593714Y-65683476D01*
X127641333Y-65588238D01*
X127736571Y-65493000D01*
X127879428Y-65445380D01*
X127974666Y-65445380D01*
X128117523Y-65493000D01*
X128165142Y-65540619D01*
X129117523Y-66445380D02*
X128546095Y-66445380D01*
X128831809Y-66445380D02*
X128831809Y-65445380D01*
X128736571Y-65588238D01*
X128641333Y-65683476D01*
X128546095Y-65731095D01*
X129593714Y-66445380D02*
X129784190Y-66445380D01*
X129879428Y-66397761D01*
X129927047Y-66350142D01*
X130022285Y-66207285D01*
X130069904Y-66016809D01*
X130069904Y-65635857D01*
X130022285Y-65540619D01*
X129974666Y-65493000D01*
X129879428Y-65445380D01*
X129688952Y-65445380D01*
X129593714Y-65493000D01*
X129546095Y-65540619D01*
X129498476Y-65635857D01*
X129498476Y-65873952D01*
X129546095Y-65969190D01*
X129593714Y-66016809D01*
X129688952Y-66064428D01*
X129879428Y-66064428D01*
X129974666Y-66016809D01*
X130022285Y-65969190D01*
X130069904Y-65873952D01*
X69596095Y-69175380D02*
X69596095Y-69984904D01*
X69643714Y-70080142D01*
X69691333Y-70127761D01*
X69786571Y-70175380D01*
X69977047Y-70175380D01*
X70072285Y-70127761D01*
X70119904Y-70080142D01*
X70167523Y-69984904D01*
X70167523Y-69175380D01*
X71167523Y-70175380D02*
X70596095Y-70175380D01*
X70881809Y-70175380D02*
X70881809Y-69175380D01*
X70786571Y-69318238D01*
X70691333Y-69413476D01*
X70596095Y-69461095D01*
X69926200Y-71826380D02*
X69926200Y-72064476D01*
X69688104Y-71969238D02*
X69926200Y-72064476D01*
X70164295Y-71969238D01*
X69783342Y-72254952D02*
X69926200Y-72064476D01*
X70069057Y-72254952D01*
D16*
X68139187Y-82054700D02*
X70036813Y-82054700D01*
X70036813Y-76187300D02*
X68139187Y-76187300D01*
X120650000Y-58928000D02*
X119888000Y-59690000D01*
X128237000Y-64345000D02*
X120937000Y-64345000D01*
X128237000Y-58845000D02*
X120937000Y-58845000D01*
X120937000Y-58845000D02*
X120937000Y-59995000D01*
X64108000Y-56615064D02*
X64108000Y-56160936D01*
X62638000Y-56615064D02*
X62638000Y-56160936D01*
X76835000Y-79212000D02*
X76035000Y-79212000D01*
X76835000Y-82332000D02*
X76035000Y-82332000D01*
X76835000Y-79212000D02*
X77635000Y-79212000D01*
X76835000Y-82332000D02*
X78635000Y-82332000D01*
X97797252Y-93318000D02*
X97274748Y-93318000D01*
X97797252Y-91848000D02*
X97274748Y-91848000D01*
D13*
X127698500Y-76339700D02*
X127698500Y-77583360D01*
X135445500Y-82002960D02*
X135445500Y-81115840D01*
X135445500Y-76339700D02*
X127698500Y-76339700D01*
X135445500Y-77583360D02*
X135445500Y-76339700D01*
X127698500Y-83325640D02*
X127698500Y-85203360D01*
X127698500Y-81115840D02*
X127698500Y-82002960D01*
X127698500Y-78906040D02*
X127698500Y-79793160D01*
X127698500Y-86526040D02*
X127698500Y-87490300D01*
X135445500Y-87490300D02*
X135445500Y-86526040D01*
X135445500Y-79793160D02*
X135445500Y-78906040D01*
X135445500Y-85203360D02*
X135445500Y-83325640D01*
X127698500Y-87490300D02*
X135445500Y-87490300D01*
D16*
X93063000Y-106673000D02*
X93063000Y-105683000D01*
X92013000Y-106673000D02*
X93063000Y-106673000D01*
X98233000Y-106673000D02*
X97183000Y-106673000D01*
X93183000Y-111143000D02*
X97063000Y-111143000D01*
X92013000Y-109173000D02*
X92013000Y-106673000D01*
X98233000Y-109173000D02*
X98233000Y-106673000D01*
X67937748Y-85752000D02*
X68460252Y-85752000D01*
X67937748Y-87222000D02*
X68460252Y-87222000D01*
X72161400Y-88138000D02*
X72161400Y-90881200D01*
X72161400Y-90881200D02*
X72872600Y-90881200D01*
X72675200Y-90881200D02*
X76575200Y-90881200D01*
X72824700Y-88138000D02*
X72158500Y-88138000D01*
X72675200Y-88138000D02*
X76575200Y-88138000D01*
X95477000Y-59697252D02*
X95477000Y-59174748D01*
X94007000Y-59697252D02*
X94007000Y-59174748D01*
X133823000Y-111143000D02*
X137703000Y-111143000D01*
X132653000Y-106673000D02*
X133703000Y-106673000D01*
X138873000Y-109173000D02*
X138873000Y-106673000D01*
X133703000Y-106673000D02*
X133703000Y-105683000D01*
X138873000Y-106673000D02*
X137823000Y-106673000D01*
X132653000Y-109173000D02*
X132653000Y-106673000D01*
X81272748Y-59536000D02*
X81795252Y-59536000D01*
X81272748Y-58066000D02*
X81795252Y-58066000D01*
X113503000Y-111143000D02*
X117383000Y-111143000D01*
X113383000Y-106673000D02*
X113383000Y-105683000D01*
X112333000Y-106673000D02*
X113383000Y-106673000D01*
X112333000Y-109173000D02*
X112333000Y-106673000D01*
X118553000Y-109173000D02*
X118553000Y-106673000D01*
X118553000Y-106673000D02*
X117503000Y-106673000D01*
X76227000Y-55125252D02*
X76227000Y-54602748D01*
X77697000Y-55125252D02*
X77697000Y-54602748D01*
X144645748Y-91086000D02*
X145168252Y-91086000D01*
X144645748Y-92556000D02*
X145168252Y-92556000D01*
X81045000Y-79648000D02*
X83395000Y-79648000D01*
X82213750Y-87101750D02*
X83001250Y-87101750D01*
X81045000Y-85403563D02*
X81045000Y-79648000D01*
X87865000Y-85403563D02*
X87865000Y-79648000D01*
X86800563Y-86468000D02*
X87865000Y-85403563D01*
X86800563Y-86468000D02*
X85515000Y-86468000D01*
X82109437Y-86468000D02*
X83395000Y-86468000D01*
X87865000Y-79648000D02*
X85515000Y-79648000D01*
X82607500Y-87495500D02*
X82607500Y-86708000D01*
X82109437Y-86468000D02*
X81045000Y-85403563D01*
X128277252Y-93318000D02*
X127754748Y-93318000D01*
X128277252Y-91848000D02*
X127754748Y-91848000D01*
X97680000Y-76762000D02*
X98680000Y-76762000D01*
X115680000Y-76012000D02*
X115680000Y-76762000D01*
X115680000Y-57202000D02*
X97680000Y-57202000D01*
X97680000Y-51262000D02*
X115680000Y-51262000D01*
X115680000Y-76762000D02*
X114680000Y-76762000D01*
X97680000Y-76012000D02*
X97680000Y-76762000D01*
X97680000Y-51262000D02*
X97680000Y-58012000D01*
X115680000Y-51262000D02*
X115680000Y-58012000D01*
X87637252Y-93318000D02*
X87114748Y-93318000D01*
X87637252Y-91848000D02*
X87114748Y-91848000D01*
X72675200Y-92202000D02*
X76575200Y-92202000D01*
X72824700Y-92202000D02*
X72158500Y-92202000D01*
X72675200Y-94945200D02*
X76575200Y-94945200D01*
X72161400Y-94945200D02*
X72872600Y-94945200D01*
X72161400Y-92202000D02*
X72161400Y-94945200D01*
X148483000Y-97409000D02*
X148483000Y-99359000D01*
X143363000Y-97409000D02*
X143363000Y-95459000D01*
X143363000Y-97409000D02*
X143363000Y-100859000D01*
X148483000Y-97409000D02*
X148483000Y-95459000D01*
X77096252Y-77697000D02*
X76573748Y-77697000D01*
X77096252Y-76227000D02*
X76573748Y-76227000D01*
X59717000Y-56615064D02*
X59717000Y-56160936D01*
X61187000Y-56615064D02*
X61187000Y-56160936D01*
X72236064Y-63727000D02*
X71781936Y-63727000D01*
X72236064Y-62257000D02*
X71781936Y-62257000D01*
X97763064Y-97001000D02*
X97308936Y-97001000D01*
X97763064Y-95531000D02*
X97308936Y-95531000D01*
X67937748Y-84682000D02*
X68460252Y-84682000D01*
X67937748Y-83212000D02*
X68460252Y-83212000D01*
X51417000Y-69688000D02*
X51417000Y-73568000D01*
X53387000Y-68518000D02*
X55887000Y-68518000D01*
X55887000Y-74738000D02*
X55887000Y-73688000D01*
X53387000Y-74738000D02*
X55887000Y-74738000D01*
X55887000Y-68518000D02*
X55887000Y-69568000D01*
X55887000Y-69568000D02*
X56877000Y-69568000D01*
X92556000Y-59697252D02*
X92556000Y-59174748D01*
X91086000Y-59697252D02*
X91086000Y-59174748D01*
X138760999Y-86974995D02*
X146481999Y-86974995D01*
X140520999Y-86974995D02*
X140520999Y-76854995D01*
X141851999Y-78139995D02*
X141944999Y-78233995D01*
X145220999Y-86974995D02*
X145220999Y-76854995D01*
X144136999Y-80424995D02*
X144194999Y-80483995D01*
X146481999Y-86974995D02*
X146481999Y-76854995D01*
X138760999Y-76854995D02*
X146481999Y-76854995D01*
X138760999Y-86974995D02*
X138760999Y-76854995D01*
X145820999Y-86974995D02*
X145820999Y-76854995D01*
X141645999Y-78344995D02*
X141704999Y-78403995D01*
X143896999Y-80594995D02*
X143989999Y-80688995D01*
X144600999Y-84414995D02*
G75*
G03*
X144404351Y-83626283I-1680000J0D01*
G01*
X143709999Y-82930994D02*
G75*
G03*
X142131910Y-82931042I-789000J-1484001D01*
G01*
X144404999Y-85203995D02*
G75*
G03*
X144601449Y-84385612I-1483995J788998D01*
G01*
X141436999Y-83625995D02*
G75*
G03*
X141437046Y-85204084I1483995J-789000D01*
G01*
X142131999Y-85898995D02*
G75*
G03*
X143710088Y-85898948I789000J1483995D01*
G01*
X144600999Y-79414995D02*
G75*
G03*
X144600999Y-79414995I-1680000J0D01*
G01*
X140470999Y-84414995D02*
G75*
G03*
X140470999Y-84414995I-550000J0D01*
G01*
X140470999Y-79414995D02*
G75*
G03*
X140470999Y-79414995I-550000J0D01*
G01*
X67429748Y-63727000D02*
X67952252Y-63727000D01*
X67429748Y-62257000D02*
X67952252Y-62257000D01*
X77108000Y-67442000D02*
X78368000Y-67442000D01*
X77108000Y-63682000D02*
X77108000Y-67442000D01*
X83928000Y-61432000D02*
X83928000Y-67442000D01*
X83928000Y-67442000D02*
X82668000Y-67442000D01*
X138403064Y-95531000D02*
X137948936Y-95531000D01*
X138403064Y-97001000D02*
X137948936Y-97001000D01*
D17*
X52376000Y-78927000D02*
X51696000Y-78927000D01*
X60196000Y-85807000D02*
X60196000Y-84847000D01*
X60196000Y-79547000D02*
X60196000Y-80507000D01*
X55516000Y-78927000D02*
X57876000Y-78927000D01*
X52376000Y-86427000D02*
X51696000Y-86427000D01*
X55516000Y-86427000D02*
X57876000Y-86427000D01*
D18*
X61396000Y-81077000D02*
G75*
G03*
X61396000Y-81077000I-100000J0D01*
G01*
D17*
X67636000Y-111467000D02*
X67636000Y-97067000D01*
X76636000Y-97067000D02*
X76636000Y-98217000D01*
X76636000Y-111467000D02*
X67636000Y-111467000D01*
X74686000Y-97067000D02*
X76636000Y-97067000D01*
X67636000Y-97067000D02*
X69486000Y-97067000D01*
X76636000Y-103317000D02*
X76636000Y-111467000D01*
D19*
X72336000Y-95767000D02*
G75*
G03*
X72336000Y-95767000I-200000J0D01*
G01*
D16*
X74541748Y-83720000D02*
X75064252Y-83720000D01*
X74541748Y-85190000D02*
X75064252Y-85190000D01*
X138437252Y-93318000D02*
X137914748Y-93318000D01*
X138437252Y-91848000D02*
X137914748Y-91848000D01*
X128243064Y-97001000D02*
X127788936Y-97001000D01*
X128243064Y-95531000D02*
X127788936Y-95531000D01*
X148497000Y-70914000D02*
X148497000Y-64544000D01*
X148847000Y-71124000D02*
X148647000Y-70914000D01*
X137887000Y-74014000D02*
X142587000Y-74014000D01*
X148497000Y-70914000D02*
X148647000Y-70914000D01*
X132577000Y-60044000D02*
X146587000Y-60044000D01*
X148847000Y-72984000D02*
X148647000Y-73184000D01*
X132577000Y-61964000D02*
X132577000Y-60044000D01*
X132577000Y-74014000D02*
X136187000Y-74014000D01*
X148647000Y-61524000D02*
X148647000Y-61264000D01*
X143887000Y-74014000D02*
X145687000Y-74014000D01*
X132577000Y-73564000D02*
X132577000Y-74014000D01*
X148847000Y-64034000D02*
X148497000Y-64544000D01*
X148847000Y-61724000D02*
X148647000Y-61524000D01*
X148847000Y-61724000D02*
X148847000Y-64034000D01*
X148847000Y-72984000D02*
X148847000Y-71124000D01*
X85625000Y-69061064D02*
X85625000Y-68606936D01*
X87095000Y-69061064D02*
X87095000Y-68606936D01*
X79529000Y-55091064D02*
X79529000Y-54636936D01*
X80999000Y-55091064D02*
X80999000Y-54636936D01*
X108393000Y-109173000D02*
X108393000Y-106673000D01*
X103343000Y-111143000D02*
X107223000Y-111143000D01*
X102173000Y-106673000D02*
X103223000Y-106673000D01*
X103223000Y-106673000D02*
X103223000Y-105683000D01*
X102173000Y-109173000D02*
X102173000Y-106673000D01*
X108393000Y-106673000D02*
X107343000Y-106673000D01*
X59122001Y-90698005D02*
X59122001Y-100818005D01*
X62697001Y-99328005D02*
X62638001Y-99269005D01*
X58522001Y-90698005D02*
X58522001Y-100818005D01*
X65582001Y-90698005D02*
X57861001Y-90698005D01*
X58462001Y-90458005D02*
X57622001Y-90458005D01*
X57622001Y-90458005D02*
X57622001Y-91058005D01*
X62491001Y-99533005D02*
X62398001Y-99439005D01*
X57861001Y-90698005D02*
X57861001Y-100818005D01*
X65582001Y-100818005D02*
X57861001Y-100818005D01*
X60206001Y-97248005D02*
X60148001Y-97189005D01*
X63822001Y-90698005D02*
X63822001Y-100818005D01*
X60446001Y-97078005D02*
X60353001Y-96984005D01*
X65582001Y-90698005D02*
X65582001Y-100818005D01*
X62211001Y-91774005D02*
G75*
G03*
X60632912Y-91774052I-789000J-1483995D01*
G01*
X59938001Y-92469005D02*
G75*
G03*
X59741551Y-93287388I1483995J-788998D01*
G01*
X62906001Y-94047005D02*
G75*
G03*
X62905954Y-92468916I-1483995J789000D01*
G01*
X60633001Y-94742006D02*
G75*
G03*
X62211090Y-94741958I789000J1484001D01*
G01*
X59742001Y-93258005D02*
G75*
G03*
X59938649Y-94046717I1680000J0D01*
G01*
X64972001Y-93258005D02*
G75*
G03*
X64972001Y-93258005I-550000J0D01*
G01*
X64972001Y-98258005D02*
G75*
G03*
X64972001Y-98258005I-550000J0D01*
G01*
X63102001Y-98258005D02*
G75*
G03*
X63102001Y-98258005I-1680000J0D01*
G01*
X123663000Y-111143000D02*
X127543000Y-111143000D01*
X123543000Y-106673000D02*
X123543000Y-105683000D01*
X128713000Y-109173000D02*
X128713000Y-106673000D01*
X128713000Y-106673000D02*
X127663000Y-106673000D01*
X122493000Y-106673000D02*
X123543000Y-106673000D01*
X122493000Y-109173000D02*
X122493000Y-106673000D01*
X107923064Y-97001000D02*
X107468936Y-97001000D01*
X107923064Y-95531000D02*
X107468936Y-95531000D01*
X118083064Y-95531000D02*
X117628936Y-95531000D01*
X118083064Y-97001000D02*
X117628936Y-97001000D01*
X66105000Y-53387000D02*
X66105000Y-55887000D01*
X72325000Y-53387000D02*
X72325000Y-55887000D01*
X71155000Y-51417000D02*
X67275000Y-51417000D01*
X72325000Y-55887000D02*
X71275000Y-55887000D01*
X66105000Y-55887000D02*
X67155000Y-55887000D01*
X71275000Y-55887000D02*
X71275000Y-56877000D01*
X71781936Y-66902000D02*
X72236064Y-66902000D01*
X71781936Y-65432000D02*
X72236064Y-65432000D01*
X133096000Y-88798000D02*
X133746000Y-88798000D01*
X133096000Y-91918000D02*
X132446000Y-91918000D01*
X133096000Y-91918000D02*
X134771000Y-91918000D01*
X133096000Y-88798000D02*
X132446000Y-88798000D01*
D17*
X124539000Y-84915000D02*
X118539000Y-84915000D01*
X124539000Y-78915000D02*
X124539000Y-84915000D01*
X118539000Y-84915000D02*
X118539000Y-78915000D01*
X118539000Y-78915000D02*
X124539000Y-78915000D01*
D18*
X123888000Y-75764000D02*
G75*
G03*
X123888000Y-75764000I-100000J0D01*
G01*
D16*
X64714000Y-106029000D02*
X64714000Y-103344000D01*
X62794000Y-103344000D02*
X62794000Y-106029000D01*
X64714000Y-103344000D02*
X62794000Y-103344000D01*
X67429748Y-65432000D02*
X67952252Y-65432000D01*
X67429748Y-66902000D02*
X67952252Y-66902000D01*
X87603064Y-97001000D02*
X87148936Y-97001000D01*
X87603064Y-95531000D02*
X87148936Y-95531000D01*
X62891936Y-110336000D02*
X63346064Y-110336000D01*
X62891936Y-108866000D02*
X63346064Y-108866000D01*
X90749000Y-67149000D02*
X88829000Y-67149000D01*
X90749000Y-69834000D02*
X90749000Y-67149000D01*
X88829000Y-67149000D02*
X88829000Y-69834000D01*
X83023000Y-111143000D02*
X86903000Y-111143000D01*
X88073000Y-106673000D02*
X87023000Y-106673000D01*
X81853000Y-106673000D02*
X82903000Y-106673000D01*
X81853000Y-109173000D02*
X81853000Y-106673000D01*
X82903000Y-106673000D02*
X82903000Y-105683000D01*
X88073000Y-109173000D02*
X88073000Y-106673000D01*
D17*
X54277000Y-66119000D02*
X54277000Y-60119000D01*
X54277000Y-60119000D02*
X60277000Y-60119000D01*
X60277000Y-66119000D02*
X54277000Y-66119000D01*
X60277000Y-60119000D02*
X60277000Y-66119000D01*
D16*
X118117252Y-93318000D02*
X117594748Y-93318000D01*
X118117252Y-91848000D02*
X117594748Y-91848000D01*
X107957252Y-93318000D02*
X107434748Y-93318000D01*
X107957252Y-91848000D02*
X107434748Y-91848000D01*
X78663800Y-88931200D02*
X78663800Y-92831200D01*
X81407000Y-89080700D02*
X81407000Y-88414500D01*
X81407000Y-88931200D02*
X81407000Y-92831200D01*
X78663800Y-88417400D02*
X78663800Y-89128600D01*
X81407000Y-88417400D02*
X78663800Y-88417400D01*
X60883800Y-68097400D02*
X60883800Y-68808600D01*
X63627000Y-68760700D02*
X63627000Y-68094500D01*
X60883800Y-68611200D02*
X60883800Y-72511200D01*
X63627000Y-68097400D02*
X60883800Y-68097400D01*
X63627000Y-68611200D02*
X63627000Y-72511200D01*
X71247000Y-88417400D02*
X68503800Y-88417400D01*
X68503800Y-88931200D02*
X68503800Y-92831200D01*
X71247000Y-88931200D02*
X71247000Y-92831200D01*
X68503800Y-88417400D02*
X68503800Y-89128600D01*
X71247000Y-89080700D02*
X71247000Y-88414500D01*
X128021000Y-68398748D02*
X128021000Y-68921252D01*
X129491000Y-68398748D02*
X129491000Y-68921252D01*
X65760600Y-73050400D02*
X66227259Y-73050400D01*
X68646741Y-73050400D02*
X69113400Y-73050400D01*
X65760600Y-72583741D02*
X65760600Y-73050400D01*
X69113400Y-73050400D02*
X69113400Y-72583741D01*
X69113400Y-70164259D02*
X69113400Y-69697600D01*
X65760600Y-69697600D02*
X65760600Y-70164259D01*
X69113400Y-69697600D02*
X68646741Y-69697600D01*
X66227259Y-69697600D02*
X65760600Y-69697600D01*
M02*
