G04 #@! TF.GenerationSoftware,KiCad,Pcbnew,6.0.11-2627ca5db0~126~ubuntu22.04.1*
G04 #@! TF.CreationDate,2025-05-31T21:30:08-06:00*
G04 #@! TF.ProjectId,snd-defect,736e642d-6465-4666-9563-742e6b696361,rev?*
G04 #@! TF.SameCoordinates,Original*
G04 #@! TF.FileFunction,Soldermask,Top*
G04 #@! TF.FilePolarity,Negative*
%FSLAX46Y46*%
G04 Gerber Fmt 4.6, Leading zero omitted, Abs format (unit mm)*
G04 Created by KiCad (PCBNEW 6.0.11-2627ca5db0~126~ubuntu22.04.1) date 2025-05-31 21:30:08*
%MOMM*%
%LPD*%
G01*
G04 APERTURE LIST*
%ADD10C,2.652400*%
%ADD11C,1.052400*%
%ADD12C,6.552400*%
%ADD13O,5.204000X2.704000*%
%ADD14O,4.704000X2.454000*%
%ADD15O,2.454000X4.704000*%
G04 APERTURE END LIST*
G36*
G01*
X72517000Y-76339700D02*
X72517000Y-81902300D01*
G75*
G02*
X72440800Y-81978500I-76200J0D01*
G01*
X70332600Y-81978500D01*
G75*
G02*
X70256400Y-81902300I0J76200D01*
G01*
X70256400Y-76339700D01*
G75*
G02*
X70332600Y-76263500I76200J0D01*
G01*
X72440800Y-76263500D01*
G75*
G02*
X72517000Y-76339700I0J-76200D01*
G01*
G37*
G36*
G01*
X67919600Y-76339700D02*
X67919600Y-81902300D01*
G75*
G02*
X67843400Y-81978500I-76200J0D01*
G01*
X65735200Y-81978500D01*
G75*
G02*
X65659000Y-81902300I0J76200D01*
G01*
X65659000Y-76339700D01*
G75*
G02*
X65735200Y-76263500I76200J0D01*
G01*
X67843400Y-76263500D01*
G75*
G02*
X67919600Y-76339700I0J-76200D01*
G01*
G37*
G36*
G01*
X127863200Y-62795000D02*
X127863200Y-63695000D01*
G75*
G02*
X127787000Y-63771200I-76200J0D01*
G01*
X126287000Y-63771200D01*
G75*
G02*
X126210800Y-63695000I0J76200D01*
G01*
X126210800Y-62795000D01*
G75*
G02*
X126287000Y-62718800I76200J0D01*
G01*
X127787000Y-62718800D01*
G75*
G02*
X127863200Y-62795000I0J-76200D01*
G01*
G37*
G36*
G01*
X127863200Y-59495000D02*
X127863200Y-60395000D01*
G75*
G02*
X127787000Y-60471200I-76200J0D01*
G01*
X126287000Y-60471200D01*
G75*
G02*
X126210800Y-60395000I0J76200D01*
G01*
X126210800Y-59495000D01*
G75*
G02*
X126287000Y-59418800I76200J0D01*
G01*
X127787000Y-59418800D01*
G75*
G02*
X127863200Y-59495000I0J-76200D01*
G01*
G37*
G36*
G01*
X122963200Y-59495000D02*
X122963200Y-60395000D01*
G75*
G02*
X122887000Y-60471200I-76200J0D01*
G01*
X121387000Y-60471200D01*
G75*
G02*
X121310800Y-60395000I0J76200D01*
G01*
X121310800Y-59495000D01*
G75*
G02*
X121387000Y-59418800I76200J0D01*
G01*
X122887000Y-59418800D01*
G75*
G02*
X122963200Y-59495000I0J-76200D01*
G01*
G37*
G36*
G01*
X122963200Y-62795000D02*
X122963200Y-63695000D01*
G75*
G02*
X122887000Y-63771200I-76200J0D01*
G01*
X121387000Y-63771200D01*
G75*
G02*
X121310800Y-63695000I0J76200D01*
G01*
X121310800Y-62795000D01*
G75*
G02*
X121387000Y-62718800I76200J0D01*
G01*
X122887000Y-62718800D01*
G75*
G02*
X122963200Y-62795000I0J-76200D01*
G01*
G37*
G36*
G01*
X63823000Y-57889200D02*
X62923000Y-57889200D01*
G75*
G02*
X62596800Y-57563000I0J326200D01*
G01*
X62596800Y-57038000D01*
G75*
G02*
X62923000Y-56711800I326200J0D01*
G01*
X63823000Y-56711800D01*
G75*
G02*
X64149200Y-57038000I0J-326200D01*
G01*
X64149200Y-57563000D01*
G75*
G02*
X63823000Y-57889200I-326200J0D01*
G01*
G37*
G36*
G01*
X63823000Y-56064200D02*
X62923000Y-56064200D01*
G75*
G02*
X62596800Y-55738000I0J326200D01*
G01*
X62596800Y-55213000D01*
G75*
G02*
X62923000Y-54886800I326200J0D01*
G01*
X63823000Y-54886800D01*
G75*
G02*
X64149200Y-55213000I0J-326200D01*
G01*
X64149200Y-55738000D01*
G75*
G02*
X63823000Y-56064200I-326200J0D01*
G01*
G37*
G36*
G01*
X78711200Y-81572000D02*
X78711200Y-81872000D01*
G75*
G02*
X78485000Y-82098200I-226200J0D01*
G01*
X77460000Y-82098200D01*
G75*
G02*
X77233800Y-81872000I0J226200D01*
G01*
X77233800Y-81572000D01*
G75*
G02*
X77460000Y-81345800I226200J0D01*
G01*
X78485000Y-81345800D01*
G75*
G02*
X78711200Y-81572000I0J-226200D01*
G01*
G37*
G36*
G01*
X78711200Y-80622000D02*
X78711200Y-80922000D01*
G75*
G02*
X78485000Y-81148200I-226200J0D01*
G01*
X77460000Y-81148200D01*
G75*
G02*
X77233800Y-80922000I0J226200D01*
G01*
X77233800Y-80622000D01*
G75*
G02*
X77460000Y-80395800I226200J0D01*
G01*
X78485000Y-80395800D01*
G75*
G02*
X78711200Y-80622000I0J-226200D01*
G01*
G37*
G36*
G01*
X78711200Y-79672000D02*
X78711200Y-79972000D01*
G75*
G02*
X78485000Y-80198200I-226200J0D01*
G01*
X77460000Y-80198200D01*
G75*
G02*
X77233800Y-79972000I0J226200D01*
G01*
X77233800Y-79672000D01*
G75*
G02*
X77460000Y-79445800I226200J0D01*
G01*
X78485000Y-79445800D01*
G75*
G02*
X78711200Y-79672000I0J-226200D01*
G01*
G37*
G36*
G01*
X76436200Y-79672000D02*
X76436200Y-79972000D01*
G75*
G02*
X76210000Y-80198200I-226200J0D01*
G01*
X75185000Y-80198200D01*
G75*
G02*
X74958800Y-79972000I0J226200D01*
G01*
X74958800Y-79672000D01*
G75*
G02*
X75185000Y-79445800I226200J0D01*
G01*
X76210000Y-79445800D01*
G75*
G02*
X76436200Y-79672000I0J-226200D01*
G01*
G37*
G36*
G01*
X76436200Y-80622000D02*
X76436200Y-80922000D01*
G75*
G02*
X76210000Y-81148200I-226200J0D01*
G01*
X75185000Y-81148200D01*
G75*
G02*
X74958800Y-80922000I0J226200D01*
G01*
X74958800Y-80622000D01*
G75*
G02*
X75185000Y-80395800I226200J0D01*
G01*
X76210000Y-80395800D01*
G75*
G02*
X76436200Y-80622000I0J-226200D01*
G01*
G37*
G36*
G01*
X76436200Y-81572000D02*
X76436200Y-81872000D01*
G75*
G02*
X76210000Y-82098200I-226200J0D01*
G01*
X75185000Y-82098200D01*
G75*
G02*
X74958800Y-81872000I0J226200D01*
G01*
X74958800Y-81572000D01*
G75*
G02*
X75185000Y-81345800I226200J0D01*
G01*
X76210000Y-81345800D01*
G75*
G02*
X76436200Y-81572000I0J-226200D01*
G01*
G37*
G36*
G01*
X99062200Y-92108000D02*
X99062200Y-93058000D01*
G75*
G02*
X98736000Y-93384200I-326200J0D01*
G01*
X98236000Y-93384200D01*
G75*
G02*
X97909800Y-93058000I0J326200D01*
G01*
X97909800Y-92108000D01*
G75*
G02*
X98236000Y-91781800I326200J0D01*
G01*
X98736000Y-91781800D01*
G75*
G02*
X99062200Y-92108000I0J-326200D01*
G01*
G37*
G36*
G01*
X97162200Y-92108000D02*
X97162200Y-93058000D01*
G75*
G02*
X96836000Y-93384200I-326200J0D01*
G01*
X96336000Y-93384200D01*
G75*
G02*
X96009800Y-93058000I0J326200D01*
G01*
X96009800Y-92108000D01*
G75*
G02*
X96336000Y-91781800I326200J0D01*
G01*
X96836000Y-91781800D01*
G75*
G02*
X97162200Y-92108000I0J-326200D01*
G01*
G37*
G36*
G01*
X136572300Y-85464700D02*
X136572300Y-86264700D01*
G75*
G02*
X136496100Y-86340900I-76200J0D01*
G01*
X133836100Y-86340900D01*
G75*
G02*
X133759900Y-86264700I0J76200D01*
G01*
X133759900Y-85464700D01*
G75*
G02*
X133836100Y-85388500I76200J0D01*
G01*
X136496100Y-85388500D01*
G75*
G02*
X136572300Y-85464700I0J-76200D01*
G01*
G37*
G36*
G01*
X136572300Y-82264300D02*
X136572300Y-83064300D01*
G75*
G02*
X136496100Y-83140500I-76200J0D01*
G01*
X133836100Y-83140500D01*
G75*
G02*
X133759900Y-83064300I0J76200D01*
G01*
X133759900Y-82264300D01*
G75*
G02*
X133836100Y-82188100I76200J0D01*
G01*
X136496100Y-82188100D01*
G75*
G02*
X136572300Y-82264300I0J-76200D01*
G01*
G37*
G36*
G01*
X136572300Y-80054500D02*
X136572300Y-80854500D01*
G75*
G02*
X136496100Y-80930700I-76200J0D01*
G01*
X133836100Y-80930700D01*
G75*
G02*
X133759900Y-80854500I0J76200D01*
G01*
X133759900Y-80054500D01*
G75*
G02*
X133836100Y-79978300I76200J0D01*
G01*
X136496100Y-79978300D01*
G75*
G02*
X136572300Y-80054500I0J-76200D01*
G01*
G37*
G36*
G01*
X136572300Y-77844700D02*
X136572300Y-78644700D01*
G75*
G02*
X136496100Y-78720900I-76200J0D01*
G01*
X133836100Y-78720900D01*
G75*
G02*
X133759900Y-78644700I0J76200D01*
G01*
X133759900Y-77844700D01*
G75*
G02*
X133836100Y-77768500I76200J0D01*
G01*
X136496100Y-77768500D01*
G75*
G02*
X136572300Y-77844700I0J-76200D01*
G01*
G37*
G36*
G01*
X129384100Y-77844700D02*
X129384100Y-78644700D01*
G75*
G02*
X129307900Y-78720900I-76200J0D01*
G01*
X126647900Y-78720900D01*
G75*
G02*
X126571700Y-78644700I0J76200D01*
G01*
X126571700Y-77844700D01*
G75*
G02*
X126647900Y-77768500I76200J0D01*
G01*
X129307900Y-77768500D01*
G75*
G02*
X129384100Y-77844700I0J-76200D01*
G01*
G37*
G36*
G01*
X129384100Y-80054500D02*
X129384100Y-80854500D01*
G75*
G02*
X129307900Y-80930700I-76200J0D01*
G01*
X126647900Y-80930700D01*
G75*
G02*
X126571700Y-80854500I0J76200D01*
G01*
X126571700Y-80054500D01*
G75*
G02*
X126647900Y-79978300I76200J0D01*
G01*
X129307900Y-79978300D01*
G75*
G02*
X129384100Y-80054500I0J-76200D01*
G01*
G37*
G36*
G01*
X129384100Y-82264300D02*
X129384100Y-83064300D01*
G75*
G02*
X129307900Y-83140500I-76200J0D01*
G01*
X126647900Y-83140500D01*
G75*
G02*
X126571700Y-83064300I0J76200D01*
G01*
X126571700Y-82264300D01*
G75*
G02*
X126647900Y-82188100I76200J0D01*
G01*
X129307900Y-82188100D01*
G75*
G02*
X129384100Y-82264300I0J-76200D01*
G01*
G37*
G36*
G01*
X129384100Y-85464700D02*
X129384100Y-86264700D01*
G75*
G02*
X129307900Y-86340900I-76200J0D01*
G01*
X126647900Y-86340900D01*
G75*
G02*
X126571700Y-86264700I0J76200D01*
G01*
X126571700Y-85464700D01*
G75*
G02*
X126647900Y-85388500I76200J0D01*
G01*
X129307900Y-85388500D01*
G75*
G02*
X129384100Y-85464700I0J-76200D01*
G01*
G37*
G36*
G01*
X93246800Y-107083000D02*
X93246800Y-105833000D01*
G75*
G02*
X93473000Y-105606800I226200J0D01*
G01*
X93773000Y-105606800D01*
G75*
G02*
X93999200Y-105833000I0J-226200D01*
G01*
X93999200Y-107083000D01*
G75*
G02*
X93773000Y-107309200I-226200J0D01*
G01*
X93473000Y-107309200D01*
G75*
G02*
X93246800Y-107083000I0J226200D01*
G01*
G37*
G36*
G01*
X94246800Y-107083000D02*
X94246800Y-105833000D01*
G75*
G02*
X94473000Y-105606800I226200J0D01*
G01*
X94773000Y-105606800D01*
G75*
G02*
X94999200Y-105833000I0J-226200D01*
G01*
X94999200Y-107083000D01*
G75*
G02*
X94773000Y-107309200I-226200J0D01*
G01*
X94473000Y-107309200D01*
G75*
G02*
X94246800Y-107083000I0J226200D01*
G01*
G37*
G36*
G01*
X95246800Y-107083000D02*
X95246800Y-105833000D01*
G75*
G02*
X95473000Y-105606800I226200J0D01*
G01*
X95773000Y-105606800D01*
G75*
G02*
X95999200Y-105833000I0J-226200D01*
G01*
X95999200Y-107083000D01*
G75*
G02*
X95773000Y-107309200I-226200J0D01*
G01*
X95473000Y-107309200D01*
G75*
G02*
X95246800Y-107083000I0J226200D01*
G01*
G37*
G36*
G01*
X96246800Y-107083000D02*
X96246800Y-105833000D01*
G75*
G02*
X96473000Y-105606800I226200J0D01*
G01*
X96773000Y-105606800D01*
G75*
G02*
X96999200Y-105833000I0J-226200D01*
G01*
X96999200Y-107083000D01*
G75*
G02*
X96773000Y-107309200I-226200J0D01*
G01*
X96473000Y-107309200D01*
G75*
G02*
X96246800Y-107083000I0J226200D01*
G01*
G37*
G36*
G01*
X91646800Y-110983000D02*
X91646800Y-109683000D01*
G75*
G02*
X91973000Y-109356800I326200J0D01*
G01*
X92673000Y-109356800D01*
G75*
G02*
X92999200Y-109683000I0J-326200D01*
G01*
X92999200Y-110983000D01*
G75*
G02*
X92673000Y-111309200I-326200J0D01*
G01*
X91973000Y-111309200D01*
G75*
G02*
X91646800Y-110983000I0J326200D01*
G01*
G37*
G36*
G01*
X97246800Y-110983000D02*
X97246800Y-109683000D01*
G75*
G02*
X97573000Y-109356800I326200J0D01*
G01*
X98273000Y-109356800D01*
G75*
G02*
X98599200Y-109683000I0J-326200D01*
G01*
X98599200Y-110983000D01*
G75*
G02*
X98273000Y-111309200I-326200J0D01*
G01*
X97573000Y-111309200D01*
G75*
G02*
X97246800Y-110983000I0J326200D01*
G01*
G37*
G36*
G01*
X66672800Y-86962000D02*
X66672800Y-86012000D01*
G75*
G02*
X66999000Y-85685800I326200J0D01*
G01*
X67499000Y-85685800D01*
G75*
G02*
X67825200Y-86012000I0J-326200D01*
G01*
X67825200Y-86962000D01*
G75*
G02*
X67499000Y-87288200I-326200J0D01*
G01*
X66999000Y-87288200D01*
G75*
G02*
X66672800Y-86962000I0J326200D01*
G01*
G37*
G36*
G01*
X68572800Y-86962000D02*
X68572800Y-86012000D01*
G75*
G02*
X68899000Y-85685800I326200J0D01*
G01*
X69399000Y-85685800D01*
G75*
G02*
X69725200Y-86012000I0J-326200D01*
G01*
X69725200Y-86962000D01*
G75*
G02*
X69399000Y-87288200I-326200J0D01*
G01*
X68899000Y-87288200D01*
G75*
G02*
X68572800Y-86962000I0J326200D01*
G01*
G37*
G36*
G01*
X72503800Y-90485000D02*
X72503800Y-88585000D01*
G75*
G02*
X72580000Y-88508800I76200J0D01*
G01*
X73980000Y-88508800D01*
G75*
G02*
X74056200Y-88585000I0J-76200D01*
G01*
X74056200Y-90485000D01*
G75*
G02*
X73980000Y-90561200I-76200J0D01*
G01*
X72580000Y-90561200D01*
G75*
G02*
X72503800Y-90485000I0J76200D01*
G01*
G37*
G36*
G01*
X75803800Y-90485000D02*
X75803800Y-88585000D01*
G75*
G02*
X75880000Y-88508800I76200J0D01*
G01*
X77280000Y-88508800D01*
G75*
G02*
X77356200Y-88585000I0J-76200D01*
G01*
X77356200Y-90485000D01*
G75*
G02*
X77280000Y-90561200I-76200J0D01*
G01*
X75880000Y-90561200D01*
G75*
G02*
X75803800Y-90485000I0J76200D01*
G01*
G37*
G36*
G01*
X95217000Y-60962200D02*
X94267000Y-60962200D01*
G75*
G02*
X93940800Y-60636000I0J326200D01*
G01*
X93940800Y-60136000D01*
G75*
G02*
X94267000Y-59809800I326200J0D01*
G01*
X95217000Y-59809800D01*
G75*
G02*
X95543200Y-60136000I0J-326200D01*
G01*
X95543200Y-60636000D01*
G75*
G02*
X95217000Y-60962200I-326200J0D01*
G01*
G37*
G36*
G01*
X95217000Y-59062200D02*
X94267000Y-59062200D01*
G75*
G02*
X93940800Y-58736000I0J326200D01*
G01*
X93940800Y-58236000D01*
G75*
G02*
X94267000Y-57909800I326200J0D01*
G01*
X95217000Y-57909800D01*
G75*
G02*
X95543200Y-58236000I0J-326200D01*
G01*
X95543200Y-58736000D01*
G75*
G02*
X95217000Y-59062200I-326200J0D01*
G01*
G37*
G36*
G01*
X133886800Y-107083000D02*
X133886800Y-105833000D01*
G75*
G02*
X134113000Y-105606800I226200J0D01*
G01*
X134413000Y-105606800D01*
G75*
G02*
X134639200Y-105833000I0J-226200D01*
G01*
X134639200Y-107083000D01*
G75*
G02*
X134413000Y-107309200I-226200J0D01*
G01*
X134113000Y-107309200D01*
G75*
G02*
X133886800Y-107083000I0J226200D01*
G01*
G37*
G36*
G01*
X134886800Y-107083000D02*
X134886800Y-105833000D01*
G75*
G02*
X135113000Y-105606800I226200J0D01*
G01*
X135413000Y-105606800D01*
G75*
G02*
X135639200Y-105833000I0J-226200D01*
G01*
X135639200Y-107083000D01*
G75*
G02*
X135413000Y-107309200I-226200J0D01*
G01*
X135113000Y-107309200D01*
G75*
G02*
X134886800Y-107083000I0J226200D01*
G01*
G37*
G36*
G01*
X135886800Y-107083000D02*
X135886800Y-105833000D01*
G75*
G02*
X136113000Y-105606800I226200J0D01*
G01*
X136413000Y-105606800D01*
G75*
G02*
X136639200Y-105833000I0J-226200D01*
G01*
X136639200Y-107083000D01*
G75*
G02*
X136413000Y-107309200I-226200J0D01*
G01*
X136113000Y-107309200D01*
G75*
G02*
X135886800Y-107083000I0J226200D01*
G01*
G37*
G36*
G01*
X136886800Y-107083000D02*
X136886800Y-105833000D01*
G75*
G02*
X137113000Y-105606800I226200J0D01*
G01*
X137413000Y-105606800D01*
G75*
G02*
X137639200Y-105833000I0J-226200D01*
G01*
X137639200Y-107083000D01*
G75*
G02*
X137413000Y-107309200I-226200J0D01*
G01*
X137113000Y-107309200D01*
G75*
G02*
X136886800Y-107083000I0J226200D01*
G01*
G37*
G36*
G01*
X137886800Y-110983000D02*
X137886800Y-109683000D01*
G75*
G02*
X138213000Y-109356800I326200J0D01*
G01*
X138913000Y-109356800D01*
G75*
G02*
X139239200Y-109683000I0J-326200D01*
G01*
X139239200Y-110983000D01*
G75*
G02*
X138913000Y-111309200I-326200J0D01*
G01*
X138213000Y-111309200D01*
G75*
G02*
X137886800Y-110983000I0J326200D01*
G01*
G37*
G36*
G01*
X132286800Y-110983000D02*
X132286800Y-109683000D01*
G75*
G02*
X132613000Y-109356800I326200J0D01*
G01*
X133313000Y-109356800D01*
G75*
G02*
X133639200Y-109683000I0J-326200D01*
G01*
X133639200Y-110983000D01*
G75*
G02*
X133313000Y-111309200I-326200J0D01*
G01*
X132613000Y-111309200D01*
G75*
G02*
X132286800Y-110983000I0J326200D01*
G01*
G37*
G36*
G01*
X80007800Y-59276000D02*
X80007800Y-58326000D01*
G75*
G02*
X80334000Y-57999800I326200J0D01*
G01*
X80834000Y-57999800D01*
G75*
G02*
X81160200Y-58326000I0J-326200D01*
G01*
X81160200Y-59276000D01*
G75*
G02*
X80834000Y-59602200I-326200J0D01*
G01*
X80334000Y-59602200D01*
G75*
G02*
X80007800Y-59276000I0J326200D01*
G01*
G37*
G36*
G01*
X81907800Y-59276000D02*
X81907800Y-58326000D01*
G75*
G02*
X82234000Y-57999800I326200J0D01*
G01*
X82734000Y-57999800D01*
G75*
G02*
X83060200Y-58326000I0J-326200D01*
G01*
X83060200Y-59276000D01*
G75*
G02*
X82734000Y-59602200I-326200J0D01*
G01*
X82234000Y-59602200D01*
G75*
G02*
X81907800Y-59276000I0J326200D01*
G01*
G37*
G36*
G01*
X113566800Y-107083000D02*
X113566800Y-105833000D01*
G75*
G02*
X113793000Y-105606800I226200J0D01*
G01*
X114093000Y-105606800D01*
G75*
G02*
X114319200Y-105833000I0J-226200D01*
G01*
X114319200Y-107083000D01*
G75*
G02*
X114093000Y-107309200I-226200J0D01*
G01*
X113793000Y-107309200D01*
G75*
G02*
X113566800Y-107083000I0J226200D01*
G01*
G37*
G36*
G01*
X114566800Y-107083000D02*
X114566800Y-105833000D01*
G75*
G02*
X114793000Y-105606800I226200J0D01*
G01*
X115093000Y-105606800D01*
G75*
G02*
X115319200Y-105833000I0J-226200D01*
G01*
X115319200Y-107083000D01*
G75*
G02*
X115093000Y-107309200I-226200J0D01*
G01*
X114793000Y-107309200D01*
G75*
G02*
X114566800Y-107083000I0J226200D01*
G01*
G37*
G36*
G01*
X115566800Y-107083000D02*
X115566800Y-105833000D01*
G75*
G02*
X115793000Y-105606800I226200J0D01*
G01*
X116093000Y-105606800D01*
G75*
G02*
X116319200Y-105833000I0J-226200D01*
G01*
X116319200Y-107083000D01*
G75*
G02*
X116093000Y-107309200I-226200J0D01*
G01*
X115793000Y-107309200D01*
G75*
G02*
X115566800Y-107083000I0J226200D01*
G01*
G37*
G36*
G01*
X116566800Y-107083000D02*
X116566800Y-105833000D01*
G75*
G02*
X116793000Y-105606800I226200J0D01*
G01*
X117093000Y-105606800D01*
G75*
G02*
X117319200Y-105833000I0J-226200D01*
G01*
X117319200Y-107083000D01*
G75*
G02*
X117093000Y-107309200I-226200J0D01*
G01*
X116793000Y-107309200D01*
G75*
G02*
X116566800Y-107083000I0J226200D01*
G01*
G37*
G36*
G01*
X117566800Y-110983000D02*
X117566800Y-109683000D01*
G75*
G02*
X117893000Y-109356800I326200J0D01*
G01*
X118593000Y-109356800D01*
G75*
G02*
X118919200Y-109683000I0J-326200D01*
G01*
X118919200Y-110983000D01*
G75*
G02*
X118593000Y-111309200I-326200J0D01*
G01*
X117893000Y-111309200D01*
G75*
G02*
X117566800Y-110983000I0J326200D01*
G01*
G37*
G36*
G01*
X111966800Y-110983000D02*
X111966800Y-109683000D01*
G75*
G02*
X112293000Y-109356800I326200J0D01*
G01*
X112993000Y-109356800D01*
G75*
G02*
X113319200Y-109683000I0J-326200D01*
G01*
X113319200Y-110983000D01*
G75*
G02*
X112993000Y-111309200I-326200J0D01*
G01*
X112293000Y-111309200D01*
G75*
G02*
X111966800Y-110983000I0J326200D01*
G01*
G37*
G36*
G01*
X77437000Y-56390200D02*
X76487000Y-56390200D01*
G75*
G02*
X76160800Y-56064000I0J326200D01*
G01*
X76160800Y-55564000D01*
G75*
G02*
X76487000Y-55237800I326200J0D01*
G01*
X77437000Y-55237800D01*
G75*
G02*
X77763200Y-55564000I0J-326200D01*
G01*
X77763200Y-56064000D01*
G75*
G02*
X77437000Y-56390200I-326200J0D01*
G01*
G37*
G36*
G01*
X77437000Y-54490200D02*
X76487000Y-54490200D01*
G75*
G02*
X76160800Y-54164000I0J326200D01*
G01*
X76160800Y-53664000D01*
G75*
G02*
X76487000Y-53337800I326200J0D01*
G01*
X77437000Y-53337800D01*
G75*
G02*
X77763200Y-53664000I0J-326200D01*
G01*
X77763200Y-54164000D01*
G75*
G02*
X77437000Y-54490200I-326200J0D01*
G01*
G37*
G36*
G01*
X143380800Y-92296000D02*
X143380800Y-91346000D01*
G75*
G02*
X143707000Y-91019800I326200J0D01*
G01*
X144207000Y-91019800D01*
G75*
G02*
X144533200Y-91346000I0J-326200D01*
G01*
X144533200Y-92296000D01*
G75*
G02*
X144207000Y-92622200I-326200J0D01*
G01*
X143707000Y-92622200D01*
G75*
G02*
X143380800Y-92296000I0J326200D01*
G01*
G37*
G36*
G01*
X145280800Y-92296000D02*
X145280800Y-91346000D01*
G75*
G02*
X145607000Y-91019800I326200J0D01*
G01*
X146107000Y-91019800D01*
G75*
G02*
X146433200Y-91346000I0J-326200D01*
G01*
X146433200Y-92296000D01*
G75*
G02*
X146107000Y-92622200I-326200J0D01*
G01*
X145607000Y-92622200D01*
G75*
G02*
X145280800Y-92296000I0J326200D01*
G01*
G37*
G36*
G01*
X85005000Y-87584200D02*
X83905000Y-87584200D01*
G75*
G02*
X83578800Y-87258000I0J326200D01*
G01*
X83578800Y-84258000D01*
G75*
G02*
X83905000Y-83931800I326200J0D01*
G01*
X85005000Y-83931800D01*
G75*
G02*
X85331200Y-84258000I0J-326200D01*
G01*
X85331200Y-87258000D01*
G75*
G02*
X85005000Y-87584200I-326200J0D01*
G01*
G37*
G36*
G01*
X85005000Y-82184200D02*
X83905000Y-82184200D01*
G75*
G02*
X83578800Y-81858000I0J326200D01*
G01*
X83578800Y-78858000D01*
G75*
G02*
X83905000Y-78531800I326200J0D01*
G01*
X85005000Y-78531800D01*
G75*
G02*
X85331200Y-78858000I0J-326200D01*
G01*
X85331200Y-81858000D01*
G75*
G02*
X85005000Y-82184200I-326200J0D01*
G01*
G37*
G36*
G01*
X129542200Y-92108000D02*
X129542200Y-93058000D01*
G75*
G02*
X129216000Y-93384200I-326200J0D01*
G01*
X128716000Y-93384200D01*
G75*
G02*
X128389800Y-93058000I0J326200D01*
G01*
X128389800Y-92108000D01*
G75*
G02*
X128716000Y-91781800I326200J0D01*
G01*
X129216000Y-91781800D01*
G75*
G02*
X129542200Y-92108000I0J-326200D01*
G01*
G37*
G36*
G01*
X127642200Y-92108000D02*
X127642200Y-93058000D01*
G75*
G02*
X127316000Y-93384200I-326200J0D01*
G01*
X126816000Y-93384200D01*
G75*
G02*
X126489800Y-93058000I0J326200D01*
G01*
X126489800Y-92108000D01*
G75*
G02*
X126816000Y-91781800I326200J0D01*
G01*
X127316000Y-91781800D01*
G75*
G02*
X127642200Y-92108000I0J-326200D01*
G01*
G37*
G36*
G01*
X97103800Y-59202000D02*
X97103800Y-58302000D01*
G75*
G02*
X97180000Y-58225800I76200J0D01*
G01*
X98680000Y-58225800D01*
G75*
G02*
X98756200Y-58302000I0J-76200D01*
G01*
X98756200Y-59202000D01*
G75*
G02*
X98680000Y-59278200I-76200J0D01*
G01*
X97180000Y-59278200D01*
G75*
G02*
X97103800Y-59202000I0J76200D01*
G01*
G37*
G36*
G01*
X97103800Y-60472000D02*
X97103800Y-59572000D01*
G75*
G02*
X97180000Y-59495800I76200J0D01*
G01*
X98680000Y-59495800D01*
G75*
G02*
X98756200Y-59572000I0J-76200D01*
G01*
X98756200Y-60472000D01*
G75*
G02*
X98680000Y-60548200I-76200J0D01*
G01*
X97180000Y-60548200D01*
G75*
G02*
X97103800Y-60472000I0J76200D01*
G01*
G37*
G36*
G01*
X97103800Y-61742000D02*
X97103800Y-60842000D01*
G75*
G02*
X97180000Y-60765800I76200J0D01*
G01*
X98680000Y-60765800D01*
G75*
G02*
X98756200Y-60842000I0J-76200D01*
G01*
X98756200Y-61742000D01*
G75*
G02*
X98680000Y-61818200I-76200J0D01*
G01*
X97180000Y-61818200D01*
G75*
G02*
X97103800Y-61742000I0J76200D01*
G01*
G37*
G36*
G01*
X97103800Y-63012000D02*
X97103800Y-62112000D01*
G75*
G02*
X97180000Y-62035800I76200J0D01*
G01*
X98680000Y-62035800D01*
G75*
G02*
X98756200Y-62112000I0J-76200D01*
G01*
X98756200Y-63012000D01*
G75*
G02*
X98680000Y-63088200I-76200J0D01*
G01*
X97180000Y-63088200D01*
G75*
G02*
X97103800Y-63012000I0J76200D01*
G01*
G37*
G36*
G01*
X97103800Y-64282000D02*
X97103800Y-63382000D01*
G75*
G02*
X97180000Y-63305800I76200J0D01*
G01*
X98680000Y-63305800D01*
G75*
G02*
X98756200Y-63382000I0J-76200D01*
G01*
X98756200Y-64282000D01*
G75*
G02*
X98680000Y-64358200I-76200J0D01*
G01*
X97180000Y-64358200D01*
G75*
G02*
X97103800Y-64282000I0J76200D01*
G01*
G37*
G36*
G01*
X97103800Y-65552000D02*
X97103800Y-64652000D01*
G75*
G02*
X97180000Y-64575800I76200J0D01*
G01*
X98680000Y-64575800D01*
G75*
G02*
X98756200Y-64652000I0J-76200D01*
G01*
X98756200Y-65552000D01*
G75*
G02*
X98680000Y-65628200I-76200J0D01*
G01*
X97180000Y-65628200D01*
G75*
G02*
X97103800Y-65552000I0J76200D01*
G01*
G37*
G36*
G01*
X97103800Y-66822000D02*
X97103800Y-65922000D01*
G75*
G02*
X97180000Y-65845800I76200J0D01*
G01*
X98680000Y-65845800D01*
G75*
G02*
X98756200Y-65922000I0J-76200D01*
G01*
X98756200Y-66822000D01*
G75*
G02*
X98680000Y-66898200I-76200J0D01*
G01*
X97180000Y-66898200D01*
G75*
G02*
X97103800Y-66822000I0J76200D01*
G01*
G37*
G36*
G01*
X97103800Y-68092000D02*
X97103800Y-67192000D01*
G75*
G02*
X97180000Y-67115800I76200J0D01*
G01*
X98680000Y-67115800D01*
G75*
G02*
X98756200Y-67192000I0J-76200D01*
G01*
X98756200Y-68092000D01*
G75*
G02*
X98680000Y-68168200I-76200J0D01*
G01*
X97180000Y-68168200D01*
G75*
G02*
X97103800Y-68092000I0J76200D01*
G01*
G37*
G36*
G01*
X97103800Y-69362000D02*
X97103800Y-68462000D01*
G75*
G02*
X97180000Y-68385800I76200J0D01*
G01*
X98680000Y-68385800D01*
G75*
G02*
X98756200Y-68462000I0J-76200D01*
G01*
X98756200Y-69362000D01*
G75*
G02*
X98680000Y-69438200I-76200J0D01*
G01*
X97180000Y-69438200D01*
G75*
G02*
X97103800Y-69362000I0J76200D01*
G01*
G37*
G36*
G01*
X97103800Y-70632000D02*
X97103800Y-69732000D01*
G75*
G02*
X97180000Y-69655800I76200J0D01*
G01*
X98680000Y-69655800D01*
G75*
G02*
X98756200Y-69732000I0J-76200D01*
G01*
X98756200Y-70632000D01*
G75*
G02*
X98680000Y-70708200I-76200J0D01*
G01*
X97180000Y-70708200D01*
G75*
G02*
X97103800Y-70632000I0J76200D01*
G01*
G37*
G36*
G01*
X97103800Y-71902000D02*
X97103800Y-71002000D01*
G75*
G02*
X97180000Y-70925800I76200J0D01*
G01*
X98680000Y-70925800D01*
G75*
G02*
X98756200Y-71002000I0J-76200D01*
G01*
X98756200Y-71902000D01*
G75*
G02*
X98680000Y-71978200I-76200J0D01*
G01*
X97180000Y-71978200D01*
G75*
G02*
X97103800Y-71902000I0J76200D01*
G01*
G37*
G36*
G01*
X97103800Y-73172000D02*
X97103800Y-72272000D01*
G75*
G02*
X97180000Y-72195800I76200J0D01*
G01*
X98680000Y-72195800D01*
G75*
G02*
X98756200Y-72272000I0J-76200D01*
G01*
X98756200Y-73172000D01*
G75*
G02*
X98680000Y-73248200I-76200J0D01*
G01*
X97180000Y-73248200D01*
G75*
G02*
X97103800Y-73172000I0J76200D01*
G01*
G37*
G36*
G01*
X97103800Y-74442000D02*
X97103800Y-73542000D01*
G75*
G02*
X97180000Y-73465800I76200J0D01*
G01*
X98680000Y-73465800D01*
G75*
G02*
X98756200Y-73542000I0J-76200D01*
G01*
X98756200Y-74442000D01*
G75*
G02*
X98680000Y-74518200I-76200J0D01*
G01*
X97180000Y-74518200D01*
G75*
G02*
X97103800Y-74442000I0J76200D01*
G01*
G37*
G36*
G01*
X97103800Y-75712000D02*
X97103800Y-74812000D01*
G75*
G02*
X97180000Y-74735800I76200J0D01*
G01*
X98680000Y-74735800D01*
G75*
G02*
X98756200Y-74812000I0J-76200D01*
G01*
X98756200Y-75712000D01*
G75*
G02*
X98680000Y-75788200I-76200J0D01*
G01*
X97180000Y-75788200D01*
G75*
G02*
X97103800Y-75712000I0J76200D01*
G01*
G37*
G36*
G01*
X100145000Y-77338200D02*
X99245000Y-77338200D01*
G75*
G02*
X99168800Y-77262000I0J76200D01*
G01*
X99168800Y-75762000D01*
G75*
G02*
X99245000Y-75685800I76200J0D01*
G01*
X100145000Y-75685800D01*
G75*
G02*
X100221200Y-75762000I0J-76200D01*
G01*
X100221200Y-77262000D01*
G75*
G02*
X100145000Y-77338200I-76200J0D01*
G01*
G37*
G36*
G01*
X101415000Y-77338200D02*
X100515000Y-77338200D01*
G75*
G02*
X100438800Y-77262000I0J76200D01*
G01*
X100438800Y-75762000D01*
G75*
G02*
X100515000Y-75685800I76200J0D01*
G01*
X101415000Y-75685800D01*
G75*
G02*
X101491200Y-75762000I0J-76200D01*
G01*
X101491200Y-77262000D01*
G75*
G02*
X101415000Y-77338200I-76200J0D01*
G01*
G37*
G36*
G01*
X102685000Y-77338200D02*
X101785000Y-77338200D01*
G75*
G02*
X101708800Y-77262000I0J76200D01*
G01*
X101708800Y-75762000D01*
G75*
G02*
X101785000Y-75685800I76200J0D01*
G01*
X102685000Y-75685800D01*
G75*
G02*
X102761200Y-75762000I0J-76200D01*
G01*
X102761200Y-77262000D01*
G75*
G02*
X102685000Y-77338200I-76200J0D01*
G01*
G37*
G36*
G01*
X103955000Y-77338200D02*
X103055000Y-77338200D01*
G75*
G02*
X102978800Y-77262000I0J76200D01*
G01*
X102978800Y-75762000D01*
G75*
G02*
X103055000Y-75685800I76200J0D01*
G01*
X103955000Y-75685800D01*
G75*
G02*
X104031200Y-75762000I0J-76200D01*
G01*
X104031200Y-77262000D01*
G75*
G02*
X103955000Y-77338200I-76200J0D01*
G01*
G37*
G36*
G01*
X105225000Y-77338200D02*
X104325000Y-77338200D01*
G75*
G02*
X104248800Y-77262000I0J76200D01*
G01*
X104248800Y-75762000D01*
G75*
G02*
X104325000Y-75685800I76200J0D01*
G01*
X105225000Y-75685800D01*
G75*
G02*
X105301200Y-75762000I0J-76200D01*
G01*
X105301200Y-77262000D01*
G75*
G02*
X105225000Y-77338200I-76200J0D01*
G01*
G37*
G36*
G01*
X106495000Y-77338200D02*
X105595000Y-77338200D01*
G75*
G02*
X105518800Y-77262000I0J76200D01*
G01*
X105518800Y-75762000D01*
G75*
G02*
X105595000Y-75685800I76200J0D01*
G01*
X106495000Y-75685800D01*
G75*
G02*
X106571200Y-75762000I0J-76200D01*
G01*
X106571200Y-77262000D01*
G75*
G02*
X106495000Y-77338200I-76200J0D01*
G01*
G37*
G36*
G01*
X107765000Y-77338200D02*
X106865000Y-77338200D01*
G75*
G02*
X106788800Y-77262000I0J76200D01*
G01*
X106788800Y-75762000D01*
G75*
G02*
X106865000Y-75685800I76200J0D01*
G01*
X107765000Y-75685800D01*
G75*
G02*
X107841200Y-75762000I0J-76200D01*
G01*
X107841200Y-77262000D01*
G75*
G02*
X107765000Y-77338200I-76200J0D01*
G01*
G37*
G36*
G01*
X109035000Y-77338200D02*
X108135000Y-77338200D01*
G75*
G02*
X108058800Y-77262000I0J76200D01*
G01*
X108058800Y-75762000D01*
G75*
G02*
X108135000Y-75685800I76200J0D01*
G01*
X109035000Y-75685800D01*
G75*
G02*
X109111200Y-75762000I0J-76200D01*
G01*
X109111200Y-77262000D01*
G75*
G02*
X109035000Y-77338200I-76200J0D01*
G01*
G37*
G36*
G01*
X110305000Y-77338200D02*
X109405000Y-77338200D01*
G75*
G02*
X109328800Y-77262000I0J76200D01*
G01*
X109328800Y-75762000D01*
G75*
G02*
X109405000Y-75685800I76200J0D01*
G01*
X110305000Y-75685800D01*
G75*
G02*
X110381200Y-75762000I0J-76200D01*
G01*
X110381200Y-77262000D01*
G75*
G02*
X110305000Y-77338200I-76200J0D01*
G01*
G37*
G36*
G01*
X111575000Y-77338200D02*
X110675000Y-77338200D01*
G75*
G02*
X110598800Y-77262000I0J76200D01*
G01*
X110598800Y-75762000D01*
G75*
G02*
X110675000Y-75685800I76200J0D01*
G01*
X111575000Y-75685800D01*
G75*
G02*
X111651200Y-75762000I0J-76200D01*
G01*
X111651200Y-77262000D01*
G75*
G02*
X111575000Y-77338200I-76200J0D01*
G01*
G37*
G36*
G01*
X112845000Y-77338200D02*
X111945000Y-77338200D01*
G75*
G02*
X111868800Y-77262000I0J76200D01*
G01*
X111868800Y-75762000D01*
G75*
G02*
X111945000Y-75685800I76200J0D01*
G01*
X112845000Y-75685800D01*
G75*
G02*
X112921200Y-75762000I0J-76200D01*
G01*
X112921200Y-77262000D01*
G75*
G02*
X112845000Y-77338200I-76200J0D01*
G01*
G37*
G36*
G01*
X114115000Y-77338200D02*
X113215000Y-77338200D01*
G75*
G02*
X113138800Y-77262000I0J76200D01*
G01*
X113138800Y-75762000D01*
G75*
G02*
X113215000Y-75685800I76200J0D01*
G01*
X114115000Y-75685800D01*
G75*
G02*
X114191200Y-75762000I0J-76200D01*
G01*
X114191200Y-77262000D01*
G75*
G02*
X114115000Y-77338200I-76200J0D01*
G01*
G37*
G36*
G01*
X116256200Y-74812000D02*
X116256200Y-75712000D01*
G75*
G02*
X116180000Y-75788200I-76200J0D01*
G01*
X114680000Y-75788200D01*
G75*
G02*
X114603800Y-75712000I0J76200D01*
G01*
X114603800Y-74812000D01*
G75*
G02*
X114680000Y-74735800I76200J0D01*
G01*
X116180000Y-74735800D01*
G75*
G02*
X116256200Y-74812000I0J-76200D01*
G01*
G37*
G36*
G01*
X116256200Y-73542000D02*
X116256200Y-74442000D01*
G75*
G02*
X116180000Y-74518200I-76200J0D01*
G01*
X114680000Y-74518200D01*
G75*
G02*
X114603800Y-74442000I0J76200D01*
G01*
X114603800Y-73542000D01*
G75*
G02*
X114680000Y-73465800I76200J0D01*
G01*
X116180000Y-73465800D01*
G75*
G02*
X116256200Y-73542000I0J-76200D01*
G01*
G37*
G36*
G01*
X116256200Y-72272000D02*
X116256200Y-73172000D01*
G75*
G02*
X116180000Y-73248200I-76200J0D01*
G01*
X114680000Y-73248200D01*
G75*
G02*
X114603800Y-73172000I0J76200D01*
G01*
X114603800Y-72272000D01*
G75*
G02*
X114680000Y-72195800I76200J0D01*
G01*
X116180000Y-72195800D01*
G75*
G02*
X116256200Y-72272000I0J-76200D01*
G01*
G37*
G36*
G01*
X116256200Y-71002000D02*
X116256200Y-71902000D01*
G75*
G02*
X116180000Y-71978200I-76200J0D01*
G01*
X114680000Y-71978200D01*
G75*
G02*
X114603800Y-71902000I0J76200D01*
G01*
X114603800Y-71002000D01*
G75*
G02*
X114680000Y-70925800I76200J0D01*
G01*
X116180000Y-70925800D01*
G75*
G02*
X116256200Y-71002000I0J-76200D01*
G01*
G37*
G36*
G01*
X116256200Y-69732000D02*
X116256200Y-70632000D01*
G75*
G02*
X116180000Y-70708200I-76200J0D01*
G01*
X114680000Y-70708200D01*
G75*
G02*
X114603800Y-70632000I0J76200D01*
G01*
X114603800Y-69732000D01*
G75*
G02*
X114680000Y-69655800I76200J0D01*
G01*
X116180000Y-69655800D01*
G75*
G02*
X116256200Y-69732000I0J-76200D01*
G01*
G37*
G36*
G01*
X116256200Y-68462000D02*
X116256200Y-69362000D01*
G75*
G02*
X116180000Y-69438200I-76200J0D01*
G01*
X114680000Y-69438200D01*
G75*
G02*
X114603800Y-69362000I0J76200D01*
G01*
X114603800Y-68462000D01*
G75*
G02*
X114680000Y-68385800I76200J0D01*
G01*
X116180000Y-68385800D01*
G75*
G02*
X116256200Y-68462000I0J-76200D01*
G01*
G37*
G36*
G01*
X116256200Y-67192000D02*
X116256200Y-68092000D01*
G75*
G02*
X116180000Y-68168200I-76200J0D01*
G01*
X114680000Y-68168200D01*
G75*
G02*
X114603800Y-68092000I0J76200D01*
G01*
X114603800Y-67192000D01*
G75*
G02*
X114680000Y-67115800I76200J0D01*
G01*
X116180000Y-67115800D01*
G75*
G02*
X116256200Y-67192000I0J-76200D01*
G01*
G37*
G36*
G01*
X116256200Y-65922000D02*
X116256200Y-66822000D01*
G75*
G02*
X116180000Y-66898200I-76200J0D01*
G01*
X114680000Y-66898200D01*
G75*
G02*
X114603800Y-66822000I0J76200D01*
G01*
X114603800Y-65922000D01*
G75*
G02*
X114680000Y-65845800I76200J0D01*
G01*
X116180000Y-65845800D01*
G75*
G02*
X116256200Y-65922000I0J-76200D01*
G01*
G37*
G36*
G01*
X116256200Y-64652000D02*
X116256200Y-65552000D01*
G75*
G02*
X116180000Y-65628200I-76200J0D01*
G01*
X114680000Y-65628200D01*
G75*
G02*
X114603800Y-65552000I0J76200D01*
G01*
X114603800Y-64652000D01*
G75*
G02*
X114680000Y-64575800I76200J0D01*
G01*
X116180000Y-64575800D01*
G75*
G02*
X116256200Y-64652000I0J-76200D01*
G01*
G37*
G36*
G01*
X116256200Y-63382000D02*
X116256200Y-64282000D01*
G75*
G02*
X116180000Y-64358200I-76200J0D01*
G01*
X114680000Y-64358200D01*
G75*
G02*
X114603800Y-64282000I0J76200D01*
G01*
X114603800Y-63382000D01*
G75*
G02*
X114680000Y-63305800I76200J0D01*
G01*
X116180000Y-63305800D01*
G75*
G02*
X116256200Y-63382000I0J-76200D01*
G01*
G37*
G36*
G01*
X116256200Y-62112000D02*
X116256200Y-63012000D01*
G75*
G02*
X116180000Y-63088200I-76200J0D01*
G01*
X114680000Y-63088200D01*
G75*
G02*
X114603800Y-63012000I0J76200D01*
G01*
X114603800Y-62112000D01*
G75*
G02*
X114680000Y-62035800I76200J0D01*
G01*
X116180000Y-62035800D01*
G75*
G02*
X116256200Y-62112000I0J-76200D01*
G01*
G37*
G36*
G01*
X116256200Y-60842000D02*
X116256200Y-61742000D01*
G75*
G02*
X116180000Y-61818200I-76200J0D01*
G01*
X114680000Y-61818200D01*
G75*
G02*
X114603800Y-61742000I0J76200D01*
G01*
X114603800Y-60842000D01*
G75*
G02*
X114680000Y-60765800I76200J0D01*
G01*
X116180000Y-60765800D01*
G75*
G02*
X116256200Y-60842000I0J-76200D01*
G01*
G37*
G36*
G01*
X116256200Y-59572000D02*
X116256200Y-60472000D01*
G75*
G02*
X116180000Y-60548200I-76200J0D01*
G01*
X114680000Y-60548200D01*
G75*
G02*
X114603800Y-60472000I0J76200D01*
G01*
X114603800Y-59572000D01*
G75*
G02*
X114680000Y-59495800I76200J0D01*
G01*
X116180000Y-59495800D01*
G75*
G02*
X116256200Y-59572000I0J-76200D01*
G01*
G37*
G36*
G01*
X116256200Y-58302000D02*
X116256200Y-59202000D01*
G75*
G02*
X116180000Y-59278200I-76200J0D01*
G01*
X114680000Y-59278200D01*
G75*
G02*
X114603800Y-59202000I0J76200D01*
G01*
X114603800Y-58302000D01*
G75*
G02*
X114680000Y-58225800I76200J0D01*
G01*
X116180000Y-58225800D01*
G75*
G02*
X116256200Y-58302000I0J-76200D01*
G01*
G37*
G36*
G01*
X107106200Y-67422000D02*
X107106200Y-68322000D01*
G75*
G02*
X107030000Y-68398200I-76200J0D01*
G01*
X106130000Y-68398200D01*
G75*
G02*
X106053800Y-68322000I0J76200D01*
G01*
X106053800Y-67422000D01*
G75*
G02*
X106130000Y-67345800I76200J0D01*
G01*
X107030000Y-67345800D01*
G75*
G02*
X107106200Y-67422000I0J-76200D01*
G01*
G37*
G36*
G01*
X107106200Y-64622000D02*
X107106200Y-65522000D01*
G75*
G02*
X107030000Y-65598200I-76200J0D01*
G01*
X106130000Y-65598200D01*
G75*
G02*
X106053800Y-65522000I0J76200D01*
G01*
X106053800Y-64622000D01*
G75*
G02*
X106130000Y-64545800I76200J0D01*
G01*
X107030000Y-64545800D01*
G75*
G02*
X107106200Y-64622000I0J-76200D01*
G01*
G37*
G36*
G01*
X105706200Y-66022000D02*
X105706200Y-66922000D01*
G75*
G02*
X105630000Y-66998200I-76200J0D01*
G01*
X104730000Y-66998200D01*
G75*
G02*
X104653800Y-66922000I0J76200D01*
G01*
X104653800Y-66022000D01*
G75*
G02*
X104730000Y-65945800I76200J0D01*
G01*
X105630000Y-65945800D01*
G75*
G02*
X105706200Y-66022000I0J-76200D01*
G01*
G37*
G36*
G01*
X104306200Y-64622000D02*
X104306200Y-65522000D01*
G75*
G02*
X104230000Y-65598200I-76200J0D01*
G01*
X103330000Y-65598200D01*
G75*
G02*
X103253800Y-65522000I0J76200D01*
G01*
X103253800Y-64622000D01*
G75*
G02*
X103330000Y-64545800I76200J0D01*
G01*
X104230000Y-64545800D01*
G75*
G02*
X104306200Y-64622000I0J-76200D01*
G01*
G37*
G36*
G01*
X105706200Y-64622000D02*
X105706200Y-65522000D01*
G75*
G02*
X105630000Y-65598200I-76200J0D01*
G01*
X104730000Y-65598200D01*
G75*
G02*
X104653800Y-65522000I0J76200D01*
G01*
X104653800Y-64622000D01*
G75*
G02*
X104730000Y-64545800I76200J0D01*
G01*
X105630000Y-64545800D01*
G75*
G02*
X105706200Y-64622000I0J-76200D01*
G01*
G37*
G36*
G01*
X104306200Y-66022000D02*
X104306200Y-66922000D01*
G75*
G02*
X104230000Y-66998200I-76200J0D01*
G01*
X103330000Y-66998200D01*
G75*
G02*
X103253800Y-66922000I0J76200D01*
G01*
X103253800Y-66022000D01*
G75*
G02*
X103330000Y-65945800I76200J0D01*
G01*
X104230000Y-65945800D01*
G75*
G02*
X104306200Y-66022000I0J-76200D01*
G01*
G37*
G36*
G01*
X105706200Y-67422000D02*
X105706200Y-68322000D01*
G75*
G02*
X105630000Y-68398200I-76200J0D01*
G01*
X104730000Y-68398200D01*
G75*
G02*
X104653800Y-68322000I0J76200D01*
G01*
X104653800Y-67422000D01*
G75*
G02*
X104730000Y-67345800I76200J0D01*
G01*
X105630000Y-67345800D01*
G75*
G02*
X105706200Y-67422000I0J-76200D01*
G01*
G37*
G36*
G01*
X107106200Y-66022000D02*
X107106200Y-66922000D01*
G75*
G02*
X107030000Y-66998200I-76200J0D01*
G01*
X106130000Y-66998200D01*
G75*
G02*
X106053800Y-66922000I0J76200D01*
G01*
X106053800Y-66022000D01*
G75*
G02*
X106130000Y-65945800I76200J0D01*
G01*
X107030000Y-65945800D01*
G75*
G02*
X107106200Y-66022000I0J-76200D01*
G01*
G37*
G36*
G01*
X104306200Y-67422000D02*
X104306200Y-68322000D01*
G75*
G02*
X104230000Y-68398200I-76200J0D01*
G01*
X103330000Y-68398200D01*
G75*
G02*
X103253800Y-68322000I0J76200D01*
G01*
X103253800Y-67422000D01*
G75*
G02*
X103330000Y-67345800I76200J0D01*
G01*
X104230000Y-67345800D01*
G75*
G02*
X104306200Y-67422000I0J-76200D01*
G01*
G37*
G36*
G01*
X88902200Y-92108000D02*
X88902200Y-93058000D01*
G75*
G02*
X88576000Y-93384200I-326200J0D01*
G01*
X88076000Y-93384200D01*
G75*
G02*
X87749800Y-93058000I0J326200D01*
G01*
X87749800Y-92108000D01*
G75*
G02*
X88076000Y-91781800I326200J0D01*
G01*
X88576000Y-91781800D01*
G75*
G02*
X88902200Y-92108000I0J-326200D01*
G01*
G37*
G36*
G01*
X87002200Y-92108000D02*
X87002200Y-93058000D01*
G75*
G02*
X86676000Y-93384200I-326200J0D01*
G01*
X86176000Y-93384200D01*
G75*
G02*
X85849800Y-93058000I0J326200D01*
G01*
X85849800Y-92108000D01*
G75*
G02*
X86176000Y-91781800I326200J0D01*
G01*
X86676000Y-91781800D01*
G75*
G02*
X87002200Y-92108000I0J-326200D01*
G01*
G37*
G36*
G01*
X72503800Y-94549000D02*
X72503800Y-92649000D01*
G75*
G02*
X72580000Y-92572800I76200J0D01*
G01*
X73980000Y-92572800D01*
G75*
G02*
X74056200Y-92649000I0J-76200D01*
G01*
X74056200Y-94549000D01*
G75*
G02*
X73980000Y-94625200I-76200J0D01*
G01*
X72580000Y-94625200D01*
G75*
G02*
X72503800Y-94549000I0J76200D01*
G01*
G37*
G36*
G01*
X75803800Y-94549000D02*
X75803800Y-92649000D01*
G75*
G02*
X75880000Y-92572800I76200J0D01*
G01*
X77280000Y-92572800D01*
G75*
G02*
X77356200Y-92649000I0J-76200D01*
G01*
X77356200Y-94549000D01*
G75*
G02*
X77280000Y-94625200I-76200J0D01*
G01*
X75880000Y-94625200D01*
G75*
G02*
X75803800Y-94549000I0J76200D01*
G01*
G37*
G36*
G01*
X144168000Y-100935200D02*
X143868000Y-100935200D01*
G75*
G02*
X143641800Y-100709000I0J226200D01*
G01*
X143641800Y-99259000D01*
G75*
G02*
X143868000Y-99032800I226200J0D01*
G01*
X144168000Y-99032800D01*
G75*
G02*
X144394200Y-99259000I0J-226200D01*
G01*
X144394200Y-100709000D01*
G75*
G02*
X144168000Y-100935200I-226200J0D01*
G01*
G37*
G36*
G01*
X145438000Y-100935200D02*
X145138000Y-100935200D01*
G75*
G02*
X144911800Y-100709000I0J226200D01*
G01*
X144911800Y-99259000D01*
G75*
G02*
X145138000Y-99032800I226200J0D01*
G01*
X145438000Y-99032800D01*
G75*
G02*
X145664200Y-99259000I0J-226200D01*
G01*
X145664200Y-100709000D01*
G75*
G02*
X145438000Y-100935200I-226200J0D01*
G01*
G37*
G36*
G01*
X146708000Y-100935200D02*
X146408000Y-100935200D01*
G75*
G02*
X146181800Y-100709000I0J226200D01*
G01*
X146181800Y-99259000D01*
G75*
G02*
X146408000Y-99032800I226200J0D01*
G01*
X146708000Y-99032800D01*
G75*
G02*
X146934200Y-99259000I0J-226200D01*
G01*
X146934200Y-100709000D01*
G75*
G02*
X146708000Y-100935200I-226200J0D01*
G01*
G37*
G36*
G01*
X147978000Y-100935200D02*
X147678000Y-100935200D01*
G75*
G02*
X147451800Y-100709000I0J226200D01*
G01*
X147451800Y-99259000D01*
G75*
G02*
X147678000Y-99032800I226200J0D01*
G01*
X147978000Y-99032800D01*
G75*
G02*
X148204200Y-99259000I0J-226200D01*
G01*
X148204200Y-100709000D01*
G75*
G02*
X147978000Y-100935200I-226200J0D01*
G01*
G37*
G36*
G01*
X147978000Y-95785200D02*
X147678000Y-95785200D01*
G75*
G02*
X147451800Y-95559000I0J226200D01*
G01*
X147451800Y-94109000D01*
G75*
G02*
X147678000Y-93882800I226200J0D01*
G01*
X147978000Y-93882800D01*
G75*
G02*
X148204200Y-94109000I0J-226200D01*
G01*
X148204200Y-95559000D01*
G75*
G02*
X147978000Y-95785200I-226200J0D01*
G01*
G37*
G36*
G01*
X146708000Y-95785200D02*
X146408000Y-95785200D01*
G75*
G02*
X146181800Y-95559000I0J226200D01*
G01*
X146181800Y-94109000D01*
G75*
G02*
X146408000Y-93882800I226200J0D01*
G01*
X146708000Y-93882800D01*
G75*
G02*
X146934200Y-94109000I0J-226200D01*
G01*
X146934200Y-95559000D01*
G75*
G02*
X146708000Y-95785200I-226200J0D01*
G01*
G37*
G36*
G01*
X145438000Y-95785200D02*
X145138000Y-95785200D01*
G75*
G02*
X144911800Y-95559000I0J226200D01*
G01*
X144911800Y-94109000D01*
G75*
G02*
X145138000Y-93882800I226200J0D01*
G01*
X145438000Y-93882800D01*
G75*
G02*
X145664200Y-94109000I0J-226200D01*
G01*
X145664200Y-95559000D01*
G75*
G02*
X145438000Y-95785200I-226200J0D01*
G01*
G37*
G36*
G01*
X144168000Y-95785200D02*
X143868000Y-95785200D01*
G75*
G02*
X143641800Y-95559000I0J226200D01*
G01*
X143641800Y-94109000D01*
G75*
G02*
X143868000Y-93882800I226200J0D01*
G01*
X144168000Y-93882800D01*
G75*
G02*
X144394200Y-94109000I0J-226200D01*
G01*
X144394200Y-95559000D01*
G75*
G02*
X144168000Y-95785200I-226200J0D01*
G01*
G37*
G36*
G01*
X78361200Y-76487000D02*
X78361200Y-77437000D01*
G75*
G02*
X78035000Y-77763200I-326200J0D01*
G01*
X77535000Y-77763200D01*
G75*
G02*
X77208800Y-77437000I0J326200D01*
G01*
X77208800Y-76487000D01*
G75*
G02*
X77535000Y-76160800I326200J0D01*
G01*
X78035000Y-76160800D01*
G75*
G02*
X78361200Y-76487000I0J-326200D01*
G01*
G37*
G36*
G01*
X76461200Y-76487000D02*
X76461200Y-77437000D01*
G75*
G02*
X76135000Y-77763200I-326200J0D01*
G01*
X75635000Y-77763200D01*
G75*
G02*
X75308800Y-77437000I0J326200D01*
G01*
X75308800Y-76487000D01*
G75*
G02*
X75635000Y-76160800I326200J0D01*
G01*
X76135000Y-76160800D01*
G75*
G02*
X76461200Y-76487000I0J-326200D01*
G01*
G37*
G36*
G01*
X60902000Y-57889200D02*
X60002000Y-57889200D01*
G75*
G02*
X59675800Y-57563000I0J326200D01*
G01*
X59675800Y-57038000D01*
G75*
G02*
X60002000Y-56711800I326200J0D01*
G01*
X60902000Y-56711800D01*
G75*
G02*
X61228200Y-57038000I0J-326200D01*
G01*
X61228200Y-57563000D01*
G75*
G02*
X60902000Y-57889200I-326200J0D01*
G01*
G37*
G36*
G01*
X60902000Y-56064200D02*
X60002000Y-56064200D01*
G75*
G02*
X59675800Y-55738000I0J326200D01*
G01*
X59675800Y-55213000D01*
G75*
G02*
X60002000Y-54886800I326200J0D01*
G01*
X60902000Y-54886800D01*
G75*
G02*
X61228200Y-55213000I0J-326200D01*
G01*
X61228200Y-55738000D01*
G75*
G02*
X60902000Y-56064200I-326200J0D01*
G01*
G37*
G36*
G01*
X73510200Y-62542000D02*
X73510200Y-63442000D01*
G75*
G02*
X73184000Y-63768200I-326200J0D01*
G01*
X72659000Y-63768200D01*
G75*
G02*
X72332800Y-63442000I0J326200D01*
G01*
X72332800Y-62542000D01*
G75*
G02*
X72659000Y-62215800I326200J0D01*
G01*
X73184000Y-62215800D01*
G75*
G02*
X73510200Y-62542000I0J-326200D01*
G01*
G37*
G36*
G01*
X71685200Y-62542000D02*
X71685200Y-63442000D01*
G75*
G02*
X71359000Y-63768200I-326200J0D01*
G01*
X70834000Y-63768200D01*
G75*
G02*
X70507800Y-63442000I0J326200D01*
G01*
X70507800Y-62542000D01*
G75*
G02*
X70834000Y-62215800I326200J0D01*
G01*
X71359000Y-62215800D01*
G75*
G02*
X71685200Y-62542000I0J-326200D01*
G01*
G37*
G36*
G01*
X99037200Y-95816000D02*
X99037200Y-96716000D01*
G75*
G02*
X98711000Y-97042200I-326200J0D01*
G01*
X98186000Y-97042200D01*
G75*
G02*
X97859800Y-96716000I0J326200D01*
G01*
X97859800Y-95816000D01*
G75*
G02*
X98186000Y-95489800I326200J0D01*
G01*
X98711000Y-95489800D01*
G75*
G02*
X99037200Y-95816000I0J-326200D01*
G01*
G37*
G36*
G01*
X97212200Y-95816000D02*
X97212200Y-96716000D01*
G75*
G02*
X96886000Y-97042200I-326200J0D01*
G01*
X96361000Y-97042200D01*
G75*
G02*
X96034800Y-96716000I0J326200D01*
G01*
X96034800Y-95816000D01*
G75*
G02*
X96361000Y-95489800I326200J0D01*
G01*
X96886000Y-95489800D01*
G75*
G02*
X97212200Y-95816000I0J-326200D01*
G01*
G37*
G36*
G01*
X66672800Y-84422000D02*
X66672800Y-83472000D01*
G75*
G02*
X66999000Y-83145800I326200J0D01*
G01*
X67499000Y-83145800D01*
G75*
G02*
X67825200Y-83472000I0J-326200D01*
G01*
X67825200Y-84422000D01*
G75*
G02*
X67499000Y-84748200I-326200J0D01*
G01*
X66999000Y-84748200D01*
G75*
G02*
X66672800Y-84422000I0J326200D01*
G01*
G37*
G36*
G01*
X68572800Y-84422000D02*
X68572800Y-83472000D01*
G75*
G02*
X68899000Y-83145800I326200J0D01*
G01*
X69399000Y-83145800D01*
G75*
G02*
X69725200Y-83472000I0J-326200D01*
G01*
X69725200Y-84422000D01*
G75*
G02*
X69399000Y-84748200I-326200J0D01*
G01*
X68899000Y-84748200D01*
G75*
G02*
X68572800Y-84422000I0J326200D01*
G01*
G37*
G36*
G01*
X55477000Y-69751800D02*
X56727000Y-69751800D01*
G75*
G02*
X56953200Y-69978000I0J-226200D01*
G01*
X56953200Y-70278000D01*
G75*
G02*
X56727000Y-70504200I-226200J0D01*
G01*
X55477000Y-70504200D01*
G75*
G02*
X55250800Y-70278000I0J226200D01*
G01*
X55250800Y-69978000D01*
G75*
G02*
X55477000Y-69751800I226200J0D01*
G01*
G37*
G36*
G01*
X55477000Y-70751800D02*
X56727000Y-70751800D01*
G75*
G02*
X56953200Y-70978000I0J-226200D01*
G01*
X56953200Y-71278000D01*
G75*
G02*
X56727000Y-71504200I-226200J0D01*
G01*
X55477000Y-71504200D01*
G75*
G02*
X55250800Y-71278000I0J226200D01*
G01*
X55250800Y-70978000D01*
G75*
G02*
X55477000Y-70751800I226200J0D01*
G01*
G37*
G36*
G01*
X55477000Y-71751800D02*
X56727000Y-71751800D01*
G75*
G02*
X56953200Y-71978000I0J-226200D01*
G01*
X56953200Y-72278000D01*
G75*
G02*
X56727000Y-72504200I-226200J0D01*
G01*
X55477000Y-72504200D01*
G75*
G02*
X55250800Y-72278000I0J226200D01*
G01*
X55250800Y-71978000D01*
G75*
G02*
X55477000Y-71751800I226200J0D01*
G01*
G37*
G36*
G01*
X55477000Y-72751800D02*
X56727000Y-72751800D01*
G75*
G02*
X56953200Y-72978000I0J-226200D01*
G01*
X56953200Y-73278000D01*
G75*
G02*
X56727000Y-73504200I-226200J0D01*
G01*
X55477000Y-73504200D01*
G75*
G02*
X55250800Y-73278000I0J226200D01*
G01*
X55250800Y-72978000D01*
G75*
G02*
X55477000Y-72751800I226200J0D01*
G01*
G37*
G36*
G01*
X51577000Y-73751800D02*
X52877000Y-73751800D01*
G75*
G02*
X53203200Y-74078000I0J-326200D01*
G01*
X53203200Y-74778000D01*
G75*
G02*
X52877000Y-75104200I-326200J0D01*
G01*
X51577000Y-75104200D01*
G75*
G02*
X51250800Y-74778000I0J326200D01*
G01*
X51250800Y-74078000D01*
G75*
G02*
X51577000Y-73751800I326200J0D01*
G01*
G37*
G36*
G01*
X51577000Y-68151800D02*
X52877000Y-68151800D01*
G75*
G02*
X53203200Y-68478000I0J-326200D01*
G01*
X53203200Y-69178000D01*
G75*
G02*
X52877000Y-69504200I-326200J0D01*
G01*
X51577000Y-69504200D01*
G75*
G02*
X51250800Y-69178000I0J326200D01*
G01*
X51250800Y-68478000D01*
G75*
G02*
X51577000Y-68151800I326200J0D01*
G01*
G37*
G36*
G01*
X92296000Y-60962200D02*
X91346000Y-60962200D01*
G75*
G02*
X91019800Y-60636000I0J326200D01*
G01*
X91019800Y-60136000D01*
G75*
G02*
X91346000Y-59809800I326200J0D01*
G01*
X92296000Y-59809800D01*
G75*
G02*
X92622200Y-60136000I0J-326200D01*
G01*
X92622200Y-60636000D01*
G75*
G02*
X92296000Y-60962200I-326200J0D01*
G01*
G37*
G36*
G01*
X92296000Y-59062200D02*
X91346000Y-59062200D01*
G75*
G02*
X91019800Y-58736000I0J326200D01*
G01*
X91019800Y-58236000D01*
G75*
G02*
X91346000Y-57909800I326200J0D01*
G01*
X92296000Y-57909800D01*
G75*
G02*
X92622200Y-58236000I0J-326200D01*
G01*
X92622200Y-58736000D01*
G75*
G02*
X92296000Y-59062200I-326200J0D01*
G01*
G37*
G36*
G01*
X144170999Y-85741195D02*
X141670999Y-85741195D01*
G75*
G02*
X141594799Y-85664995I0J76200D01*
G01*
X141594799Y-83164995D01*
G75*
G02*
X141670999Y-83088795I76200J0D01*
G01*
X144170999Y-83088795D01*
G75*
G02*
X144247199Y-83164995I0J-76200D01*
G01*
X144247199Y-85664995D01*
G75*
G02*
X144170999Y-85741195I-76200J0D01*
G01*
G37*
D10*
X142920999Y-79414995D03*
G36*
G01*
X66164800Y-63467000D02*
X66164800Y-62517000D01*
G75*
G02*
X66491000Y-62190800I326200J0D01*
G01*
X66991000Y-62190800D01*
G75*
G02*
X67317200Y-62517000I0J-326200D01*
G01*
X67317200Y-63467000D01*
G75*
G02*
X66991000Y-63793200I-326200J0D01*
G01*
X66491000Y-63793200D01*
G75*
G02*
X66164800Y-63467000I0J326200D01*
G01*
G37*
G36*
G01*
X68064800Y-63467000D02*
X68064800Y-62517000D01*
G75*
G02*
X68391000Y-62190800I326200J0D01*
G01*
X68891000Y-62190800D01*
G75*
G02*
X69217200Y-62517000I0J-326200D01*
G01*
X69217200Y-63467000D01*
G75*
G02*
X68891000Y-63793200I-326200J0D01*
G01*
X68391000Y-63793200D01*
G75*
G02*
X68064800Y-63467000I0J326200D01*
G01*
G37*
G36*
G01*
X82068000Y-61305800D02*
X83568000Y-61305800D01*
G75*
G02*
X83644200Y-61382000I0J-76200D01*
G01*
X83644200Y-63382000D01*
G75*
G02*
X83568000Y-63458200I-76200J0D01*
G01*
X82068000Y-63458200D01*
G75*
G02*
X81991800Y-63382000I0J76200D01*
G01*
X81991800Y-61382000D01*
G75*
G02*
X82068000Y-61305800I76200J0D01*
G01*
G37*
G36*
G01*
X79768000Y-61305800D02*
X81268000Y-61305800D01*
G75*
G02*
X81344200Y-61382000I0J-76200D01*
G01*
X81344200Y-63382000D01*
G75*
G02*
X81268000Y-63458200I-76200J0D01*
G01*
X79768000Y-63458200D01*
G75*
G02*
X79691800Y-63382000I0J76200D01*
G01*
X79691800Y-61382000D01*
G75*
G02*
X79768000Y-61305800I76200J0D01*
G01*
G37*
G36*
G01*
X78618000Y-67605800D02*
X82418000Y-67605800D01*
G75*
G02*
X82494200Y-67682000I0J-76200D01*
G01*
X82494200Y-69682000D01*
G75*
G02*
X82418000Y-69758200I-76200J0D01*
G01*
X78618000Y-69758200D01*
G75*
G02*
X78541800Y-69682000I0J76200D01*
G01*
X78541800Y-67682000D01*
G75*
G02*
X78618000Y-67605800I76200J0D01*
G01*
G37*
G36*
G01*
X77468000Y-61305800D02*
X78968000Y-61305800D01*
G75*
G02*
X79044200Y-61382000I0J-76200D01*
G01*
X79044200Y-63382000D01*
G75*
G02*
X78968000Y-63458200I-76200J0D01*
G01*
X77468000Y-63458200D01*
G75*
G02*
X77391800Y-63382000I0J76200D01*
G01*
X77391800Y-61382000D01*
G75*
G02*
X77468000Y-61305800I76200J0D01*
G01*
G37*
G36*
G01*
X139677200Y-95816000D02*
X139677200Y-96716000D01*
G75*
G02*
X139351000Y-97042200I-326200J0D01*
G01*
X138826000Y-97042200D01*
G75*
G02*
X138499800Y-96716000I0J326200D01*
G01*
X138499800Y-95816000D01*
G75*
G02*
X138826000Y-95489800I326200J0D01*
G01*
X139351000Y-95489800D01*
G75*
G02*
X139677200Y-95816000I0J-326200D01*
G01*
G37*
G36*
G01*
X137852200Y-95816000D02*
X137852200Y-96716000D01*
G75*
G02*
X137526000Y-97042200I-326200J0D01*
G01*
X137001000Y-97042200D01*
G75*
G02*
X136674800Y-96716000I0J326200D01*
G01*
X136674800Y-95816000D01*
G75*
G02*
X137001000Y-95489800I326200J0D01*
G01*
X137526000Y-95489800D01*
G75*
G02*
X137852200Y-95816000I0J-326200D01*
G01*
G37*
D11*
X56896000Y-80477000D03*
X56896000Y-84877000D03*
G36*
G01*
X58396000Y-80725000D02*
X60696000Y-80725000D01*
G75*
G02*
X60798000Y-80827000I0J-102000D01*
G01*
X60798000Y-81327000D01*
G75*
G02*
X60696000Y-81429000I-102000J0D01*
G01*
X58396000Y-81429000D01*
G75*
G02*
X58294000Y-81327000I0J102000D01*
G01*
X58294000Y-80827000D01*
G75*
G02*
X58396000Y-80725000I102000J0D01*
G01*
G37*
G36*
G01*
X58396000Y-81525000D02*
X60696000Y-81525000D01*
G75*
G02*
X60798000Y-81627000I0J-102000D01*
G01*
X60798000Y-82127000D01*
G75*
G02*
X60696000Y-82229000I-102000J0D01*
G01*
X58396000Y-82229000D01*
G75*
G02*
X58294000Y-82127000I0J102000D01*
G01*
X58294000Y-81627000D01*
G75*
G02*
X58396000Y-81525000I102000J0D01*
G01*
G37*
G36*
G01*
X58396000Y-82325000D02*
X60696000Y-82325000D01*
G75*
G02*
X60798000Y-82427000I0J-102000D01*
G01*
X60798000Y-82927000D01*
G75*
G02*
X60696000Y-83029000I-102000J0D01*
G01*
X58396000Y-83029000D01*
G75*
G02*
X58294000Y-82927000I0J102000D01*
G01*
X58294000Y-82427000D01*
G75*
G02*
X58396000Y-82325000I102000J0D01*
G01*
G37*
G36*
G01*
X58396000Y-83125000D02*
X60696000Y-83125000D01*
G75*
G02*
X60798000Y-83227000I0J-102000D01*
G01*
X60798000Y-83727000D01*
G75*
G02*
X60696000Y-83829000I-102000J0D01*
G01*
X58396000Y-83829000D01*
G75*
G02*
X58294000Y-83727000I0J102000D01*
G01*
X58294000Y-83227000D01*
G75*
G02*
X58396000Y-83125000I102000J0D01*
G01*
G37*
G36*
G01*
X58396000Y-83925000D02*
X60696000Y-83925000D01*
G75*
G02*
X60798000Y-84027000I0J-102000D01*
G01*
X60798000Y-84527000D01*
G75*
G02*
X60696000Y-84629000I-102000J0D01*
G01*
X58396000Y-84629000D01*
G75*
G02*
X58294000Y-84527000I0J102000D01*
G01*
X58294000Y-84027000D01*
G75*
G02*
X58396000Y-83925000I102000J0D01*
G01*
G37*
G36*
G01*
X58196000Y-86025000D02*
X60696000Y-86025000D01*
G75*
G02*
X60798000Y-86127000I0J-102000D01*
G01*
X60798000Y-88127000D01*
G75*
G02*
X60696000Y-88229000I-102000J0D01*
G01*
X58196000Y-88229000D01*
G75*
G02*
X58094000Y-88127000I0J102000D01*
G01*
X58094000Y-86127000D01*
G75*
G02*
X58196000Y-86025000I102000J0D01*
G01*
G37*
G36*
G01*
X58196000Y-77125000D02*
X60696000Y-77125000D01*
G75*
G02*
X60798000Y-77227000I0J-102000D01*
G01*
X60798000Y-79227000D01*
G75*
G02*
X60696000Y-79329000I-102000J0D01*
G01*
X58196000Y-79329000D01*
G75*
G02*
X58094000Y-79227000I0J102000D01*
G01*
X58094000Y-77227000D01*
G75*
G02*
X58196000Y-77125000I102000J0D01*
G01*
G37*
G36*
G01*
X52696000Y-86025000D02*
X55196000Y-86025000D01*
G75*
G02*
X55298000Y-86127000I0J-102000D01*
G01*
X55298000Y-88127000D01*
G75*
G02*
X55196000Y-88229000I-102000J0D01*
G01*
X52696000Y-88229000D01*
G75*
G02*
X52594000Y-88127000I0J102000D01*
G01*
X52594000Y-86127000D01*
G75*
G02*
X52696000Y-86025000I102000J0D01*
G01*
G37*
G36*
G01*
X52696000Y-77125000D02*
X55196000Y-77125000D01*
G75*
G02*
X55298000Y-77227000I0J-102000D01*
G01*
X55298000Y-79227000D01*
G75*
G02*
X55196000Y-79329000I-102000J0D01*
G01*
X52696000Y-79329000D01*
G75*
G02*
X52594000Y-79227000I0J102000D01*
G01*
X52594000Y-77227000D01*
G75*
G02*
X52696000Y-77125000I102000J0D01*
G01*
G37*
D12*
X145542000Y-55118000D03*
D13*
X72136000Y-97767000D03*
D14*
X72136000Y-103767000D03*
D15*
X76836000Y-100767000D03*
G36*
G01*
X73276800Y-84930000D02*
X73276800Y-83980000D01*
G75*
G02*
X73603000Y-83653800I326200J0D01*
G01*
X74103000Y-83653800D01*
G75*
G02*
X74429200Y-83980000I0J-326200D01*
G01*
X74429200Y-84930000D01*
G75*
G02*
X74103000Y-85256200I-326200J0D01*
G01*
X73603000Y-85256200D01*
G75*
G02*
X73276800Y-84930000I0J326200D01*
G01*
G37*
G36*
G01*
X75176800Y-84930000D02*
X75176800Y-83980000D01*
G75*
G02*
X75503000Y-83653800I326200J0D01*
G01*
X76003000Y-83653800D01*
G75*
G02*
X76329200Y-83980000I0J-326200D01*
G01*
X76329200Y-84930000D01*
G75*
G02*
X76003000Y-85256200I-326200J0D01*
G01*
X75503000Y-85256200D01*
G75*
G02*
X75176800Y-84930000I0J326200D01*
G01*
G37*
G36*
G01*
X139702200Y-92108000D02*
X139702200Y-93058000D01*
G75*
G02*
X139376000Y-93384200I-326200J0D01*
G01*
X138876000Y-93384200D01*
G75*
G02*
X138549800Y-93058000I0J326200D01*
G01*
X138549800Y-92108000D01*
G75*
G02*
X138876000Y-91781800I326200J0D01*
G01*
X139376000Y-91781800D01*
G75*
G02*
X139702200Y-92108000I0J-326200D01*
G01*
G37*
G36*
G01*
X137802200Y-92108000D02*
X137802200Y-93058000D01*
G75*
G02*
X137476000Y-93384200I-326200J0D01*
G01*
X136976000Y-93384200D01*
G75*
G02*
X136649800Y-93058000I0J326200D01*
G01*
X136649800Y-92108000D01*
G75*
G02*
X136976000Y-91781800I326200J0D01*
G01*
X137476000Y-91781800D01*
G75*
G02*
X137802200Y-92108000I0J-326200D01*
G01*
G37*
G36*
G01*
X129517200Y-95816000D02*
X129517200Y-96716000D01*
G75*
G02*
X129191000Y-97042200I-326200J0D01*
G01*
X128666000Y-97042200D01*
G75*
G02*
X128339800Y-96716000I0J326200D01*
G01*
X128339800Y-95816000D01*
G75*
G02*
X128666000Y-95489800I326200J0D01*
G01*
X129191000Y-95489800D01*
G75*
G02*
X129517200Y-95816000I0J-326200D01*
G01*
G37*
G36*
G01*
X127692200Y-95816000D02*
X127692200Y-96716000D01*
G75*
G02*
X127366000Y-97042200I-326200J0D01*
G01*
X126841000Y-97042200D01*
G75*
G02*
X126514800Y-96716000I0J326200D01*
G01*
X126514800Y-95816000D01*
G75*
G02*
X126841000Y-95489800I326200J0D01*
G01*
X127366000Y-95489800D01*
G75*
G02*
X127692200Y-95816000I0J-326200D01*
G01*
G37*
G36*
G01*
X133337000Y-64690200D02*
X132137000Y-64690200D01*
G75*
G02*
X132060800Y-64614000I0J76200D01*
G01*
X132060800Y-63914000D01*
G75*
G02*
X132137000Y-63837800I76200J0D01*
G01*
X133337000Y-63837800D01*
G75*
G02*
X133413200Y-63914000I0J-76200D01*
G01*
X133413200Y-64614000D01*
G75*
G02*
X133337000Y-64690200I-76200J0D01*
G01*
G37*
G36*
G01*
X133337000Y-65790200D02*
X132137000Y-65790200D01*
G75*
G02*
X132060800Y-65714000I0J76200D01*
G01*
X132060800Y-65014000D01*
G75*
G02*
X132137000Y-64937800I76200J0D01*
G01*
X133337000Y-64937800D01*
G75*
G02*
X133413200Y-65014000I0J-76200D01*
G01*
X133413200Y-65714000D01*
G75*
G02*
X133337000Y-65790200I-76200J0D01*
G01*
G37*
G36*
G01*
X133337000Y-66890200D02*
X132137000Y-66890200D01*
G75*
G02*
X132060800Y-66814000I0J76200D01*
G01*
X132060800Y-66114000D01*
G75*
G02*
X132137000Y-66037800I76200J0D01*
G01*
X133337000Y-66037800D01*
G75*
G02*
X133413200Y-66114000I0J-76200D01*
G01*
X133413200Y-66814000D01*
G75*
G02*
X133337000Y-66890200I-76200J0D01*
G01*
G37*
G36*
G01*
X133337000Y-67990200D02*
X132137000Y-67990200D01*
G75*
G02*
X132060800Y-67914000I0J76200D01*
G01*
X132060800Y-67214000D01*
G75*
G02*
X132137000Y-67137800I76200J0D01*
G01*
X133337000Y-67137800D01*
G75*
G02*
X133413200Y-67214000I0J-76200D01*
G01*
X133413200Y-67914000D01*
G75*
G02*
X133337000Y-67990200I-76200J0D01*
G01*
G37*
G36*
G01*
X133337000Y-69090200D02*
X132137000Y-69090200D01*
G75*
G02*
X132060800Y-69014000I0J76200D01*
G01*
X132060800Y-68314000D01*
G75*
G02*
X132137000Y-68237800I76200J0D01*
G01*
X133337000Y-68237800D01*
G75*
G02*
X133413200Y-68314000I0J-76200D01*
G01*
X133413200Y-69014000D01*
G75*
G02*
X133337000Y-69090200I-76200J0D01*
G01*
G37*
G36*
G01*
X133337000Y-70190200D02*
X132137000Y-70190200D01*
G75*
G02*
X132060800Y-70114000I0J76200D01*
G01*
X132060800Y-69414000D01*
G75*
G02*
X132137000Y-69337800I76200J0D01*
G01*
X133337000Y-69337800D01*
G75*
G02*
X133413200Y-69414000I0J-76200D01*
G01*
X133413200Y-70114000D01*
G75*
G02*
X133337000Y-70190200I-76200J0D01*
G01*
G37*
G36*
G01*
X133337000Y-71290200D02*
X132137000Y-71290200D01*
G75*
G02*
X132060800Y-71214000I0J76200D01*
G01*
X132060800Y-70514000D01*
G75*
G02*
X132137000Y-70437800I76200J0D01*
G01*
X133337000Y-70437800D01*
G75*
G02*
X133413200Y-70514000I0J-76200D01*
G01*
X133413200Y-71214000D01*
G75*
G02*
X133337000Y-71290200I-76200J0D01*
G01*
G37*
G36*
G01*
X133337000Y-72390200D02*
X132137000Y-72390200D01*
G75*
G02*
X132060800Y-72314000I0J76200D01*
G01*
X132060800Y-71614000D01*
G75*
G02*
X132137000Y-71537800I76200J0D01*
G01*
X133337000Y-71537800D01*
G75*
G02*
X133413200Y-71614000I0J-76200D01*
G01*
X133413200Y-72314000D01*
G75*
G02*
X133337000Y-72390200I-76200J0D01*
G01*
G37*
G36*
G01*
X133337000Y-73340200D02*
X132137000Y-73340200D01*
G75*
G02*
X132060800Y-73264000I0J76200D01*
G01*
X132060800Y-72564000D01*
G75*
G02*
X132137000Y-72487800I76200J0D01*
G01*
X133337000Y-72487800D01*
G75*
G02*
X133413200Y-72564000I0J-76200D01*
G01*
X133413200Y-73264000D01*
G75*
G02*
X133337000Y-73340200I-76200J0D01*
G01*
G37*
G36*
G01*
X143637000Y-74440200D02*
X142837000Y-74440200D01*
G75*
G02*
X142760800Y-74364000I0J76200D01*
G01*
X142760800Y-73364000D01*
G75*
G02*
X142837000Y-73287800I76200J0D01*
G01*
X143637000Y-73287800D01*
G75*
G02*
X143713200Y-73364000I0J-76200D01*
G01*
X143713200Y-74364000D01*
G75*
G02*
X143637000Y-74440200I-76200J0D01*
G01*
G37*
G36*
G01*
X137637000Y-74440200D02*
X136437000Y-74440200D01*
G75*
G02*
X136360800Y-74364000I0J76200D01*
G01*
X136360800Y-73364000D01*
G75*
G02*
X136437000Y-73287800I76200J0D01*
G01*
X137637000Y-73287800D01*
G75*
G02*
X137713200Y-73364000I0J-76200D01*
G01*
X137713200Y-74364000D01*
G75*
G02*
X137637000Y-74440200I-76200J0D01*
G01*
G37*
G36*
G01*
X148787000Y-74440200D02*
X145987000Y-74440200D01*
G75*
G02*
X145910800Y-74364000I0J76200D01*
G01*
X145910800Y-73364000D01*
G75*
G02*
X145987000Y-73287800I76200J0D01*
G01*
X148787000Y-73287800D01*
G75*
G02*
X148863200Y-73364000I0J-76200D01*
G01*
X148863200Y-74364000D01*
G75*
G02*
X148787000Y-74440200I-76200J0D01*
G01*
G37*
G36*
G01*
X148787000Y-61090200D02*
X146887000Y-61090200D01*
G75*
G02*
X146810800Y-61014000I0J76200D01*
G01*
X146810800Y-59714000D01*
G75*
G02*
X146887000Y-59637800I76200J0D01*
G01*
X148787000Y-59637800D01*
G75*
G02*
X148863200Y-59714000I0J-76200D01*
G01*
X148863200Y-61014000D01*
G75*
G02*
X148787000Y-61090200I-76200J0D01*
G01*
G37*
G36*
G01*
X133337000Y-63290200D02*
X132137000Y-63290200D01*
G75*
G02*
X132060800Y-63214000I0J76200D01*
G01*
X132060800Y-62214000D01*
G75*
G02*
X132137000Y-62137800I76200J0D01*
G01*
X133337000Y-62137800D01*
G75*
G02*
X133413200Y-62214000I0J-76200D01*
G01*
X133413200Y-63214000D01*
G75*
G02*
X133337000Y-63290200I-76200J0D01*
G01*
G37*
G36*
G01*
X86810000Y-70335200D02*
X85910000Y-70335200D01*
G75*
G02*
X85583800Y-70009000I0J326200D01*
G01*
X85583800Y-69484000D01*
G75*
G02*
X85910000Y-69157800I326200J0D01*
G01*
X86810000Y-69157800D01*
G75*
G02*
X87136200Y-69484000I0J-326200D01*
G01*
X87136200Y-70009000D01*
G75*
G02*
X86810000Y-70335200I-326200J0D01*
G01*
G37*
G36*
G01*
X86810000Y-68510200D02*
X85910000Y-68510200D01*
G75*
G02*
X85583800Y-68184000I0J326200D01*
G01*
X85583800Y-67659000D01*
G75*
G02*
X85910000Y-67332800I326200J0D01*
G01*
X86810000Y-67332800D01*
G75*
G02*
X87136200Y-67659000I0J-326200D01*
G01*
X87136200Y-68184000D01*
G75*
G02*
X86810000Y-68510200I-326200J0D01*
G01*
G37*
G36*
G01*
X80714000Y-56365200D02*
X79814000Y-56365200D01*
G75*
G02*
X79487800Y-56039000I0J326200D01*
G01*
X79487800Y-55514000D01*
G75*
G02*
X79814000Y-55187800I326200J0D01*
G01*
X80714000Y-55187800D01*
G75*
G02*
X81040200Y-55514000I0J-326200D01*
G01*
X81040200Y-56039000D01*
G75*
G02*
X80714000Y-56365200I-326200J0D01*
G01*
G37*
G36*
G01*
X80714000Y-54540200D02*
X79814000Y-54540200D01*
G75*
G02*
X79487800Y-54214000I0J326200D01*
G01*
X79487800Y-53689000D01*
G75*
G02*
X79814000Y-53362800I326200J0D01*
G01*
X80714000Y-53362800D01*
G75*
G02*
X81040200Y-53689000I0J-326200D01*
G01*
X81040200Y-54214000D01*
G75*
G02*
X80714000Y-54540200I-326200J0D01*
G01*
G37*
G36*
G01*
X103406800Y-107083000D02*
X103406800Y-105833000D01*
G75*
G02*
X103633000Y-105606800I226200J0D01*
G01*
X103933000Y-105606800D01*
G75*
G02*
X104159200Y-105833000I0J-226200D01*
G01*
X104159200Y-107083000D01*
G75*
G02*
X103933000Y-107309200I-226200J0D01*
G01*
X103633000Y-107309200D01*
G75*
G02*
X103406800Y-107083000I0J226200D01*
G01*
G37*
G36*
G01*
X104406800Y-107083000D02*
X104406800Y-105833000D01*
G75*
G02*
X104633000Y-105606800I226200J0D01*
G01*
X104933000Y-105606800D01*
G75*
G02*
X105159200Y-105833000I0J-226200D01*
G01*
X105159200Y-107083000D01*
G75*
G02*
X104933000Y-107309200I-226200J0D01*
G01*
X104633000Y-107309200D01*
G75*
G02*
X104406800Y-107083000I0J226200D01*
G01*
G37*
G36*
G01*
X105406800Y-107083000D02*
X105406800Y-105833000D01*
G75*
G02*
X105633000Y-105606800I226200J0D01*
G01*
X105933000Y-105606800D01*
G75*
G02*
X106159200Y-105833000I0J-226200D01*
G01*
X106159200Y-107083000D01*
G75*
G02*
X105933000Y-107309200I-226200J0D01*
G01*
X105633000Y-107309200D01*
G75*
G02*
X105406800Y-107083000I0J226200D01*
G01*
G37*
G36*
G01*
X106406800Y-107083000D02*
X106406800Y-105833000D01*
G75*
G02*
X106633000Y-105606800I226200J0D01*
G01*
X106933000Y-105606800D01*
G75*
G02*
X107159200Y-105833000I0J-226200D01*
G01*
X107159200Y-107083000D01*
G75*
G02*
X106933000Y-107309200I-226200J0D01*
G01*
X106633000Y-107309200D01*
G75*
G02*
X106406800Y-107083000I0J226200D01*
G01*
G37*
G36*
G01*
X101806800Y-110983000D02*
X101806800Y-109683000D01*
G75*
G02*
X102133000Y-109356800I326200J0D01*
G01*
X102833000Y-109356800D01*
G75*
G02*
X103159200Y-109683000I0J-326200D01*
G01*
X103159200Y-110983000D01*
G75*
G02*
X102833000Y-111309200I-326200J0D01*
G01*
X102133000Y-111309200D01*
G75*
G02*
X101806800Y-110983000I0J326200D01*
G01*
G37*
G36*
G01*
X107406800Y-110983000D02*
X107406800Y-109683000D01*
G75*
G02*
X107733000Y-109356800I326200J0D01*
G01*
X108433000Y-109356800D01*
G75*
G02*
X108759200Y-109683000I0J-326200D01*
G01*
X108759200Y-110983000D01*
G75*
G02*
X108433000Y-111309200I-326200J0D01*
G01*
X107733000Y-111309200D01*
G75*
G02*
X107406800Y-110983000I0J326200D01*
G01*
G37*
D12*
X145542000Y-107442000D03*
G36*
G01*
X60172001Y-91931805D02*
X62672001Y-91931805D01*
G75*
G02*
X62748201Y-92008005I0J-76200D01*
G01*
X62748201Y-94508005D01*
G75*
G02*
X62672001Y-94584205I-76200J0D01*
G01*
X60172001Y-94584205D01*
G75*
G02*
X60095801Y-94508005I0J76200D01*
G01*
X60095801Y-92008005D01*
G75*
G02*
X60172001Y-91931805I76200J0D01*
G01*
G37*
D10*
X61422001Y-98258005D03*
G36*
G01*
X123726800Y-107083000D02*
X123726800Y-105833000D01*
G75*
G02*
X123953000Y-105606800I226200J0D01*
G01*
X124253000Y-105606800D01*
G75*
G02*
X124479200Y-105833000I0J-226200D01*
G01*
X124479200Y-107083000D01*
G75*
G02*
X124253000Y-107309200I-226200J0D01*
G01*
X123953000Y-107309200D01*
G75*
G02*
X123726800Y-107083000I0J226200D01*
G01*
G37*
G36*
G01*
X124726800Y-107083000D02*
X124726800Y-105833000D01*
G75*
G02*
X124953000Y-105606800I226200J0D01*
G01*
X125253000Y-105606800D01*
G75*
G02*
X125479200Y-105833000I0J-226200D01*
G01*
X125479200Y-107083000D01*
G75*
G02*
X125253000Y-107309200I-226200J0D01*
G01*
X124953000Y-107309200D01*
G75*
G02*
X124726800Y-107083000I0J226200D01*
G01*
G37*
G36*
G01*
X125726800Y-107083000D02*
X125726800Y-105833000D01*
G75*
G02*
X125953000Y-105606800I226200J0D01*
G01*
X126253000Y-105606800D01*
G75*
G02*
X126479200Y-105833000I0J-226200D01*
G01*
X126479200Y-107083000D01*
G75*
G02*
X126253000Y-107309200I-226200J0D01*
G01*
X125953000Y-107309200D01*
G75*
G02*
X125726800Y-107083000I0J226200D01*
G01*
G37*
G36*
G01*
X126726800Y-107083000D02*
X126726800Y-105833000D01*
G75*
G02*
X126953000Y-105606800I226200J0D01*
G01*
X127253000Y-105606800D01*
G75*
G02*
X127479200Y-105833000I0J-226200D01*
G01*
X127479200Y-107083000D01*
G75*
G02*
X127253000Y-107309200I-226200J0D01*
G01*
X126953000Y-107309200D01*
G75*
G02*
X126726800Y-107083000I0J226200D01*
G01*
G37*
G36*
G01*
X127726800Y-110983000D02*
X127726800Y-109683000D01*
G75*
G02*
X128053000Y-109356800I326200J0D01*
G01*
X128753000Y-109356800D01*
G75*
G02*
X129079200Y-109683000I0J-326200D01*
G01*
X129079200Y-110983000D01*
G75*
G02*
X128753000Y-111309200I-326200J0D01*
G01*
X128053000Y-111309200D01*
G75*
G02*
X127726800Y-110983000I0J326200D01*
G01*
G37*
G36*
G01*
X122126800Y-110983000D02*
X122126800Y-109683000D01*
G75*
G02*
X122453000Y-109356800I326200J0D01*
G01*
X123153000Y-109356800D01*
G75*
G02*
X123479200Y-109683000I0J-326200D01*
G01*
X123479200Y-110983000D01*
G75*
G02*
X123153000Y-111309200I-326200J0D01*
G01*
X122453000Y-111309200D01*
G75*
G02*
X122126800Y-110983000I0J326200D01*
G01*
G37*
G36*
G01*
X109197200Y-95816000D02*
X109197200Y-96716000D01*
G75*
G02*
X108871000Y-97042200I-326200J0D01*
G01*
X108346000Y-97042200D01*
G75*
G02*
X108019800Y-96716000I0J326200D01*
G01*
X108019800Y-95816000D01*
G75*
G02*
X108346000Y-95489800I326200J0D01*
G01*
X108871000Y-95489800D01*
G75*
G02*
X109197200Y-95816000I0J-326200D01*
G01*
G37*
G36*
G01*
X107372200Y-95816000D02*
X107372200Y-96716000D01*
G75*
G02*
X107046000Y-97042200I-326200J0D01*
G01*
X106521000Y-97042200D01*
G75*
G02*
X106194800Y-96716000I0J326200D01*
G01*
X106194800Y-95816000D01*
G75*
G02*
X106521000Y-95489800I326200J0D01*
G01*
X107046000Y-95489800D01*
G75*
G02*
X107372200Y-95816000I0J-326200D01*
G01*
G37*
D12*
X55118000Y-107442000D03*
X55118000Y-55118000D03*
G36*
G01*
X119357200Y-95816000D02*
X119357200Y-96716000D01*
G75*
G02*
X119031000Y-97042200I-326200J0D01*
G01*
X118506000Y-97042200D01*
G75*
G02*
X118179800Y-96716000I0J326200D01*
G01*
X118179800Y-95816000D01*
G75*
G02*
X118506000Y-95489800I326200J0D01*
G01*
X119031000Y-95489800D01*
G75*
G02*
X119357200Y-95816000I0J-326200D01*
G01*
G37*
G36*
G01*
X117532200Y-95816000D02*
X117532200Y-96716000D01*
G75*
G02*
X117206000Y-97042200I-326200J0D01*
G01*
X116681000Y-97042200D01*
G75*
G02*
X116354800Y-96716000I0J326200D01*
G01*
X116354800Y-95816000D01*
G75*
G02*
X116681000Y-95489800I326200J0D01*
G01*
X117206000Y-95489800D01*
G75*
G02*
X117532200Y-95816000I0J-326200D01*
G01*
G37*
G36*
G01*
X71091200Y-55477000D02*
X71091200Y-56727000D01*
G75*
G02*
X70865000Y-56953200I-226200J0D01*
G01*
X70565000Y-56953200D01*
G75*
G02*
X70338800Y-56727000I0J226200D01*
G01*
X70338800Y-55477000D01*
G75*
G02*
X70565000Y-55250800I226200J0D01*
G01*
X70865000Y-55250800D01*
G75*
G02*
X71091200Y-55477000I0J-226200D01*
G01*
G37*
G36*
G01*
X70091200Y-55477000D02*
X70091200Y-56727000D01*
G75*
G02*
X69865000Y-56953200I-226200J0D01*
G01*
X69565000Y-56953200D01*
G75*
G02*
X69338800Y-56727000I0J226200D01*
G01*
X69338800Y-55477000D01*
G75*
G02*
X69565000Y-55250800I226200J0D01*
G01*
X69865000Y-55250800D01*
G75*
G02*
X70091200Y-55477000I0J-226200D01*
G01*
G37*
G36*
G01*
X69091200Y-55477000D02*
X69091200Y-56727000D01*
G75*
G02*
X68865000Y-56953200I-226200J0D01*
G01*
X68565000Y-56953200D01*
G75*
G02*
X68338800Y-56727000I0J226200D01*
G01*
X68338800Y-55477000D01*
G75*
G02*
X68565000Y-55250800I226200J0D01*
G01*
X68865000Y-55250800D01*
G75*
G02*
X69091200Y-55477000I0J-226200D01*
G01*
G37*
G36*
G01*
X68091200Y-55477000D02*
X68091200Y-56727000D01*
G75*
G02*
X67865000Y-56953200I-226200J0D01*
G01*
X67565000Y-56953200D01*
G75*
G02*
X67338800Y-56727000I0J226200D01*
G01*
X67338800Y-55477000D01*
G75*
G02*
X67565000Y-55250800I226200J0D01*
G01*
X67865000Y-55250800D01*
G75*
G02*
X68091200Y-55477000I0J-226200D01*
G01*
G37*
G36*
G01*
X67091200Y-51577000D02*
X67091200Y-52877000D01*
G75*
G02*
X66765000Y-53203200I-326200J0D01*
G01*
X66065000Y-53203200D01*
G75*
G02*
X65738800Y-52877000I0J326200D01*
G01*
X65738800Y-51577000D01*
G75*
G02*
X66065000Y-51250800I326200J0D01*
G01*
X66765000Y-51250800D01*
G75*
G02*
X67091200Y-51577000I0J-326200D01*
G01*
G37*
G36*
G01*
X72691200Y-51577000D02*
X72691200Y-52877000D01*
G75*
G02*
X72365000Y-53203200I-326200J0D01*
G01*
X71665000Y-53203200D01*
G75*
G02*
X71338800Y-52877000I0J326200D01*
G01*
X71338800Y-51577000D01*
G75*
G02*
X71665000Y-51250800I326200J0D01*
G01*
X72365000Y-51250800D01*
G75*
G02*
X72691200Y-51577000I0J-326200D01*
G01*
G37*
G36*
G01*
X70507800Y-66617000D02*
X70507800Y-65717000D01*
G75*
G02*
X70834000Y-65390800I326200J0D01*
G01*
X71359000Y-65390800D01*
G75*
G02*
X71685200Y-65717000I0J-326200D01*
G01*
X71685200Y-66617000D01*
G75*
G02*
X71359000Y-66943200I-326200J0D01*
G01*
X70834000Y-66943200D01*
G75*
G02*
X70507800Y-66617000I0J326200D01*
G01*
G37*
G36*
G01*
X72332800Y-66617000D02*
X72332800Y-65717000D01*
G75*
G02*
X72659000Y-65390800I326200J0D01*
G01*
X73184000Y-65390800D01*
G75*
G02*
X73510200Y-65717000I0J-326200D01*
G01*
X73510200Y-66617000D01*
G75*
G02*
X73184000Y-66943200I-326200J0D01*
G01*
X72659000Y-66943200D01*
G75*
G02*
X72332800Y-66617000I0J326200D01*
G01*
G37*
G36*
G01*
X134847200Y-91158000D02*
X134847200Y-91458000D01*
G75*
G02*
X134621000Y-91684200I-226200J0D01*
G01*
X133446000Y-91684200D01*
G75*
G02*
X133219800Y-91458000I0J226200D01*
G01*
X133219800Y-91158000D01*
G75*
G02*
X133446000Y-90931800I226200J0D01*
G01*
X134621000Y-90931800D01*
G75*
G02*
X134847200Y-91158000I0J-226200D01*
G01*
G37*
G36*
G01*
X134847200Y-89258000D02*
X134847200Y-89558000D01*
G75*
G02*
X134621000Y-89784200I-226200J0D01*
G01*
X133446000Y-89784200D01*
G75*
G02*
X133219800Y-89558000I0J226200D01*
G01*
X133219800Y-89258000D01*
G75*
G02*
X133446000Y-89031800I226200J0D01*
G01*
X134621000Y-89031800D01*
G75*
G02*
X134847200Y-89258000I0J-226200D01*
G01*
G37*
G36*
G01*
X132972200Y-90208000D02*
X132972200Y-90508000D01*
G75*
G02*
X132746000Y-90734200I-226200J0D01*
G01*
X131571000Y-90734200D01*
G75*
G02*
X131344800Y-90508000I0J226200D01*
G01*
X131344800Y-90208000D01*
G75*
G02*
X131571000Y-89981800I226200J0D01*
G01*
X132746000Y-89981800D01*
G75*
G02*
X132972200Y-90208000I0J-226200D01*
G01*
G37*
G36*
G01*
X124331000Y-78517000D02*
X123227000Y-78517000D01*
G75*
G02*
X122987000Y-78277000I0J240000D01*
G01*
X122987000Y-76453000D01*
G75*
G02*
X123227000Y-76213000I240000J0D01*
G01*
X124331000Y-76213000D01*
G75*
G02*
X124571000Y-76453000I0J-240000D01*
G01*
X124571000Y-78277000D01*
G75*
G02*
X124331000Y-78517000I-240000J0D01*
G01*
G37*
G36*
G01*
X124331000Y-87617000D02*
X123227000Y-87617000D01*
G75*
G02*
X122987000Y-87377000I0J240000D01*
G01*
X122987000Y-85553000D01*
G75*
G02*
X123227000Y-85313000I240000J0D01*
G01*
X124331000Y-85313000D01*
G75*
G02*
X124571000Y-85553000I0J-240000D01*
G01*
X124571000Y-87377000D01*
G75*
G02*
X124331000Y-87617000I-240000J0D01*
G01*
G37*
G36*
G01*
X119851000Y-78517000D02*
X118747000Y-78517000D01*
G75*
G02*
X118507000Y-78277000I0J240000D01*
G01*
X118507000Y-76453000D01*
G75*
G02*
X118747000Y-76213000I240000J0D01*
G01*
X119851000Y-76213000D01*
G75*
G02*
X120091000Y-76453000I0J-240000D01*
G01*
X120091000Y-78277000D01*
G75*
G02*
X119851000Y-78517000I-240000J0D01*
G01*
G37*
G36*
G01*
X119851000Y-87617000D02*
X118747000Y-87617000D01*
G75*
G02*
X118507000Y-87377000I0J240000D01*
G01*
X118507000Y-85553000D01*
G75*
G02*
X118747000Y-85313000I240000J0D01*
G01*
X119851000Y-85313000D01*
G75*
G02*
X120091000Y-85553000I0J-240000D01*
G01*
X120091000Y-87377000D01*
G75*
G02*
X119851000Y-87617000I-240000J0D01*
G01*
G37*
G36*
G01*
X63297750Y-103527800D02*
X64210250Y-103527800D01*
G75*
G02*
X64530200Y-103847750I0J-319950D01*
G01*
X64530200Y-104335250D01*
G75*
G02*
X64210250Y-104655200I-319950J0D01*
G01*
X63297750Y-104655200D01*
G75*
G02*
X62977800Y-104335250I0J319950D01*
G01*
X62977800Y-103847750D01*
G75*
G02*
X63297750Y-103527800I319950J0D01*
G01*
G37*
G36*
G01*
X63297750Y-105402800D02*
X64210250Y-105402800D01*
G75*
G02*
X64530200Y-105722750I0J-319950D01*
G01*
X64530200Y-106210250D01*
G75*
G02*
X64210250Y-106530200I-319950J0D01*
G01*
X63297750Y-106530200D01*
G75*
G02*
X62977800Y-106210250I0J319950D01*
G01*
X62977800Y-105722750D01*
G75*
G02*
X63297750Y-105402800I319950J0D01*
G01*
G37*
G36*
G01*
X66164800Y-66642000D02*
X66164800Y-65692000D01*
G75*
G02*
X66491000Y-65365800I326200J0D01*
G01*
X66991000Y-65365800D01*
G75*
G02*
X67317200Y-65692000I0J-326200D01*
G01*
X67317200Y-66642000D01*
G75*
G02*
X66991000Y-66968200I-326200J0D01*
G01*
X66491000Y-66968200D01*
G75*
G02*
X66164800Y-66642000I0J326200D01*
G01*
G37*
G36*
G01*
X68064800Y-66642000D02*
X68064800Y-65692000D01*
G75*
G02*
X68391000Y-65365800I326200J0D01*
G01*
X68891000Y-65365800D01*
G75*
G02*
X69217200Y-65692000I0J-326200D01*
G01*
X69217200Y-66642000D01*
G75*
G02*
X68891000Y-66968200I-326200J0D01*
G01*
X68391000Y-66968200D01*
G75*
G02*
X68064800Y-66642000I0J326200D01*
G01*
G37*
G36*
G01*
X88877200Y-95816000D02*
X88877200Y-96716000D01*
G75*
G02*
X88551000Y-97042200I-326200J0D01*
G01*
X88026000Y-97042200D01*
G75*
G02*
X87699800Y-96716000I0J326200D01*
G01*
X87699800Y-95816000D01*
G75*
G02*
X88026000Y-95489800I326200J0D01*
G01*
X88551000Y-95489800D01*
G75*
G02*
X88877200Y-95816000I0J-326200D01*
G01*
G37*
G36*
G01*
X87052200Y-95816000D02*
X87052200Y-96716000D01*
G75*
G02*
X86726000Y-97042200I-326200J0D01*
G01*
X86201000Y-97042200D01*
G75*
G02*
X85874800Y-96716000I0J326200D01*
G01*
X85874800Y-95816000D01*
G75*
G02*
X86201000Y-95489800I326200J0D01*
G01*
X86726000Y-95489800D01*
G75*
G02*
X87052200Y-95816000I0J-326200D01*
G01*
G37*
G36*
G01*
X61617800Y-110051000D02*
X61617800Y-109151000D01*
G75*
G02*
X61944000Y-108824800I326200J0D01*
G01*
X62469000Y-108824800D01*
G75*
G02*
X62795200Y-109151000I0J-326200D01*
G01*
X62795200Y-110051000D01*
G75*
G02*
X62469000Y-110377200I-326200J0D01*
G01*
X61944000Y-110377200D01*
G75*
G02*
X61617800Y-110051000I0J326200D01*
G01*
G37*
G36*
G01*
X63442800Y-110051000D02*
X63442800Y-109151000D01*
G75*
G02*
X63769000Y-108824800I326200J0D01*
G01*
X64294000Y-108824800D01*
G75*
G02*
X64620200Y-109151000I0J-326200D01*
G01*
X64620200Y-110051000D01*
G75*
G02*
X64294000Y-110377200I-326200J0D01*
G01*
X63769000Y-110377200D01*
G75*
G02*
X63442800Y-110051000I0J326200D01*
G01*
G37*
G36*
G01*
X89332750Y-67332800D02*
X90245250Y-67332800D01*
G75*
G02*
X90565200Y-67652750I0J-319950D01*
G01*
X90565200Y-68140250D01*
G75*
G02*
X90245250Y-68460200I-319950J0D01*
G01*
X89332750Y-68460200D01*
G75*
G02*
X89012800Y-68140250I0J319950D01*
G01*
X89012800Y-67652750D01*
G75*
G02*
X89332750Y-67332800I319950J0D01*
G01*
G37*
G36*
G01*
X89332750Y-69207800D02*
X90245250Y-69207800D01*
G75*
G02*
X90565200Y-69527750I0J-319950D01*
G01*
X90565200Y-70015250D01*
G75*
G02*
X90245250Y-70335200I-319950J0D01*
G01*
X89332750Y-70335200D01*
G75*
G02*
X89012800Y-70015250I0J319950D01*
G01*
X89012800Y-69527750D01*
G75*
G02*
X89332750Y-69207800I319950J0D01*
G01*
G37*
G36*
G01*
X83086800Y-107083000D02*
X83086800Y-105833000D01*
G75*
G02*
X83313000Y-105606800I226200J0D01*
G01*
X83613000Y-105606800D01*
G75*
G02*
X83839200Y-105833000I0J-226200D01*
G01*
X83839200Y-107083000D01*
G75*
G02*
X83613000Y-107309200I-226200J0D01*
G01*
X83313000Y-107309200D01*
G75*
G02*
X83086800Y-107083000I0J226200D01*
G01*
G37*
G36*
G01*
X84086800Y-107083000D02*
X84086800Y-105833000D01*
G75*
G02*
X84313000Y-105606800I226200J0D01*
G01*
X84613000Y-105606800D01*
G75*
G02*
X84839200Y-105833000I0J-226200D01*
G01*
X84839200Y-107083000D01*
G75*
G02*
X84613000Y-107309200I-226200J0D01*
G01*
X84313000Y-107309200D01*
G75*
G02*
X84086800Y-107083000I0J226200D01*
G01*
G37*
G36*
G01*
X85086800Y-107083000D02*
X85086800Y-105833000D01*
G75*
G02*
X85313000Y-105606800I226200J0D01*
G01*
X85613000Y-105606800D01*
G75*
G02*
X85839200Y-105833000I0J-226200D01*
G01*
X85839200Y-107083000D01*
G75*
G02*
X85613000Y-107309200I-226200J0D01*
G01*
X85313000Y-107309200D01*
G75*
G02*
X85086800Y-107083000I0J226200D01*
G01*
G37*
G36*
G01*
X86086800Y-107083000D02*
X86086800Y-105833000D01*
G75*
G02*
X86313000Y-105606800I226200J0D01*
G01*
X86613000Y-105606800D01*
G75*
G02*
X86839200Y-105833000I0J-226200D01*
G01*
X86839200Y-107083000D01*
G75*
G02*
X86613000Y-107309200I-226200J0D01*
G01*
X86313000Y-107309200D01*
G75*
G02*
X86086800Y-107083000I0J226200D01*
G01*
G37*
G36*
G01*
X87086800Y-110983000D02*
X87086800Y-109683000D01*
G75*
G02*
X87413000Y-109356800I326200J0D01*
G01*
X88113000Y-109356800D01*
G75*
G02*
X88439200Y-109683000I0J-326200D01*
G01*
X88439200Y-110983000D01*
G75*
G02*
X88113000Y-111309200I-326200J0D01*
G01*
X87413000Y-111309200D01*
G75*
G02*
X87086800Y-110983000I0J326200D01*
G01*
G37*
G36*
G01*
X81486800Y-110983000D02*
X81486800Y-109683000D01*
G75*
G02*
X81813000Y-109356800I326200J0D01*
G01*
X82513000Y-109356800D01*
G75*
G02*
X82839200Y-109683000I0J-326200D01*
G01*
X82839200Y-110983000D01*
G75*
G02*
X82513000Y-111309200I-326200J0D01*
G01*
X81813000Y-111309200D01*
G75*
G02*
X81486800Y-110983000I0J326200D01*
G01*
G37*
G36*
G01*
X60675000Y-65911000D02*
X60675000Y-64807000D01*
G75*
G02*
X60915000Y-64567000I240000J0D01*
G01*
X62739000Y-64567000D01*
G75*
G02*
X62979000Y-64807000I0J-240000D01*
G01*
X62979000Y-65911000D01*
G75*
G02*
X62739000Y-66151000I-240000J0D01*
G01*
X60915000Y-66151000D01*
G75*
G02*
X60675000Y-65911000I0J240000D01*
G01*
G37*
G36*
G01*
X51575000Y-65911000D02*
X51575000Y-64807000D01*
G75*
G02*
X51815000Y-64567000I240000J0D01*
G01*
X53639000Y-64567000D01*
G75*
G02*
X53879000Y-64807000I0J-240000D01*
G01*
X53879000Y-65911000D01*
G75*
G02*
X53639000Y-66151000I-240000J0D01*
G01*
X51815000Y-66151000D01*
G75*
G02*
X51575000Y-65911000I0J240000D01*
G01*
G37*
G36*
G01*
X60675000Y-61431000D02*
X60675000Y-60327000D01*
G75*
G02*
X60915000Y-60087000I240000J0D01*
G01*
X62739000Y-60087000D01*
G75*
G02*
X62979000Y-60327000I0J-240000D01*
G01*
X62979000Y-61431000D01*
G75*
G02*
X62739000Y-61671000I-240000J0D01*
G01*
X60915000Y-61671000D01*
G75*
G02*
X60675000Y-61431000I0J240000D01*
G01*
G37*
G36*
G01*
X51575000Y-61431000D02*
X51575000Y-60327000D01*
G75*
G02*
X51815000Y-60087000I240000J0D01*
G01*
X53639000Y-60087000D01*
G75*
G02*
X53879000Y-60327000I0J-240000D01*
G01*
X53879000Y-61431000D01*
G75*
G02*
X53639000Y-61671000I-240000J0D01*
G01*
X51815000Y-61671000D01*
G75*
G02*
X51575000Y-61431000I0J240000D01*
G01*
G37*
G36*
G01*
X119382200Y-92108000D02*
X119382200Y-93058000D01*
G75*
G02*
X119056000Y-93384200I-326200J0D01*
G01*
X118556000Y-93384200D01*
G75*
G02*
X118229800Y-93058000I0J326200D01*
G01*
X118229800Y-92108000D01*
G75*
G02*
X118556000Y-91781800I326200J0D01*
G01*
X119056000Y-91781800D01*
G75*
G02*
X119382200Y-92108000I0J-326200D01*
G01*
G37*
G36*
G01*
X117482200Y-92108000D02*
X117482200Y-93058000D01*
G75*
G02*
X117156000Y-93384200I-326200J0D01*
G01*
X116656000Y-93384200D01*
G75*
G02*
X116329800Y-93058000I0J326200D01*
G01*
X116329800Y-92108000D01*
G75*
G02*
X116656000Y-91781800I326200J0D01*
G01*
X117156000Y-91781800D01*
G75*
G02*
X117482200Y-92108000I0J-326200D01*
G01*
G37*
G36*
G01*
X109222200Y-92108000D02*
X109222200Y-93058000D01*
G75*
G02*
X108896000Y-93384200I-326200J0D01*
G01*
X108396000Y-93384200D01*
G75*
G02*
X108069800Y-93058000I0J326200D01*
G01*
X108069800Y-92108000D01*
G75*
G02*
X108396000Y-91781800I326200J0D01*
G01*
X108896000Y-91781800D01*
G75*
G02*
X109222200Y-92108000I0J-326200D01*
G01*
G37*
G36*
G01*
X107322200Y-92108000D02*
X107322200Y-93058000D01*
G75*
G02*
X106996000Y-93384200I-326200J0D01*
G01*
X106496000Y-93384200D01*
G75*
G02*
X106169800Y-93058000I0J326200D01*
G01*
X106169800Y-92108000D01*
G75*
G02*
X106496000Y-91781800I326200J0D01*
G01*
X106996000Y-91781800D01*
G75*
G02*
X107322200Y-92108000I0J-326200D01*
G01*
G37*
G36*
G01*
X79060000Y-88759800D02*
X80960000Y-88759800D01*
G75*
G02*
X81036200Y-88836000I0J-76200D01*
G01*
X81036200Y-90236000D01*
G75*
G02*
X80960000Y-90312200I-76200J0D01*
G01*
X79060000Y-90312200D01*
G75*
G02*
X78983800Y-90236000I0J76200D01*
G01*
X78983800Y-88836000D01*
G75*
G02*
X79060000Y-88759800I76200J0D01*
G01*
G37*
G36*
G01*
X79060000Y-92059800D02*
X80960000Y-92059800D01*
G75*
G02*
X81036200Y-92136000I0J-76200D01*
G01*
X81036200Y-93536000D01*
G75*
G02*
X80960000Y-93612200I-76200J0D01*
G01*
X79060000Y-93612200D01*
G75*
G02*
X78983800Y-93536000I0J76200D01*
G01*
X78983800Y-92136000D01*
G75*
G02*
X79060000Y-92059800I76200J0D01*
G01*
G37*
G36*
G01*
X61280000Y-68439800D02*
X63180000Y-68439800D01*
G75*
G02*
X63256200Y-68516000I0J-76200D01*
G01*
X63256200Y-69916000D01*
G75*
G02*
X63180000Y-69992200I-76200J0D01*
G01*
X61280000Y-69992200D01*
G75*
G02*
X61203800Y-69916000I0J76200D01*
G01*
X61203800Y-68516000D01*
G75*
G02*
X61280000Y-68439800I76200J0D01*
G01*
G37*
G36*
G01*
X61280000Y-71739800D02*
X63180000Y-71739800D01*
G75*
G02*
X63256200Y-71816000I0J-76200D01*
G01*
X63256200Y-73216000D01*
G75*
G02*
X63180000Y-73292200I-76200J0D01*
G01*
X61280000Y-73292200D01*
G75*
G02*
X61203800Y-73216000I0J76200D01*
G01*
X61203800Y-71816000D01*
G75*
G02*
X61280000Y-71739800I76200J0D01*
G01*
G37*
G36*
G01*
X68900000Y-88759800D02*
X70800000Y-88759800D01*
G75*
G02*
X70876200Y-88836000I0J-76200D01*
G01*
X70876200Y-90236000D01*
G75*
G02*
X70800000Y-90312200I-76200J0D01*
G01*
X68900000Y-90312200D01*
G75*
G02*
X68823800Y-90236000I0J76200D01*
G01*
X68823800Y-88836000D01*
G75*
G02*
X68900000Y-88759800I76200J0D01*
G01*
G37*
G36*
G01*
X68900000Y-92059800D02*
X70800000Y-92059800D01*
G75*
G02*
X70876200Y-92136000I0J-76200D01*
G01*
X70876200Y-93536000D01*
G75*
G02*
X70800000Y-93612200I-76200J0D01*
G01*
X68900000Y-93612200D01*
G75*
G02*
X68823800Y-93536000I0J76200D01*
G01*
X68823800Y-92136000D01*
G75*
G02*
X68900000Y-92059800I76200J0D01*
G01*
G37*
G36*
G01*
X128281000Y-67133800D02*
X129231000Y-67133800D01*
G75*
G02*
X129557200Y-67460000I0J-326200D01*
G01*
X129557200Y-67960000D01*
G75*
G02*
X129231000Y-68286200I-326200J0D01*
G01*
X128281000Y-68286200D01*
G75*
G02*
X127954800Y-67960000I0J326200D01*
G01*
X127954800Y-67460000D01*
G75*
G02*
X128281000Y-67133800I326200J0D01*
G01*
G37*
G36*
G01*
X128281000Y-69033800D02*
X129231000Y-69033800D01*
G75*
G02*
X129557200Y-69360000I0J-326200D01*
G01*
X129557200Y-69860000D01*
G75*
G02*
X129231000Y-70186200I-326200J0D01*
G01*
X128281000Y-70186200D01*
G75*
G02*
X127954800Y-69860000I0J326200D01*
G01*
X127954800Y-69360000D01*
G75*
G02*
X128281000Y-69033800I326200J0D01*
G01*
G37*
G36*
G01*
X68478400Y-71920801D02*
X69291200Y-71920801D01*
G75*
G02*
X69367400Y-71997001I0J-76200D01*
G01*
X69367400Y-72251001D01*
G75*
G02*
X69291200Y-72327201I-76200J0D01*
G01*
X68478400Y-72327201D01*
G75*
G02*
X68402200Y-72251001I0J76200D01*
G01*
X68402200Y-71997001D01*
G75*
G02*
X68478400Y-71920801I76200J0D01*
G01*
G37*
G36*
G01*
X68478400Y-71420800D02*
X69291200Y-71420800D01*
G75*
G02*
X69367400Y-71497000I0J-76200D01*
G01*
X69367400Y-71751000D01*
G75*
G02*
X69291200Y-71827200I-76200J0D01*
G01*
X68478400Y-71827200D01*
G75*
G02*
X68402200Y-71751000I0J76200D01*
G01*
X68402200Y-71497000D01*
G75*
G02*
X68478400Y-71420800I76200J0D01*
G01*
G37*
G36*
G01*
X68478400Y-70920800D02*
X69291200Y-70920800D01*
G75*
G02*
X69367400Y-70997000I0J-76200D01*
G01*
X69367400Y-71251000D01*
G75*
G02*
X69291200Y-71327200I-76200J0D01*
G01*
X68478400Y-71327200D01*
G75*
G02*
X68402200Y-71251000I0J76200D01*
G01*
X68402200Y-70997000D01*
G75*
G02*
X68478400Y-70920800I76200J0D01*
G01*
G37*
G36*
G01*
X68478400Y-70420799D02*
X69291200Y-70420799D01*
G75*
G02*
X69367400Y-70496999I0J-76200D01*
G01*
X69367400Y-70750999D01*
G75*
G02*
X69291200Y-70827199I-76200J0D01*
G01*
X68478400Y-70827199D01*
G75*
G02*
X68402200Y-70750999I0J76200D01*
G01*
X68402200Y-70496999D01*
G75*
G02*
X68478400Y-70420799I76200J0D01*
G01*
G37*
G36*
G01*
X68390201Y-69519800D02*
X68390201Y-70332600D01*
G75*
G02*
X68314001Y-70408800I-76200J0D01*
G01*
X68060001Y-70408800D01*
G75*
G02*
X67983801Y-70332600I0J76200D01*
G01*
X67983801Y-69519800D01*
G75*
G02*
X68060001Y-69443600I76200J0D01*
G01*
X68314001Y-69443600D01*
G75*
G02*
X68390201Y-69519800I0J-76200D01*
G01*
G37*
G36*
G01*
X67890200Y-69519800D02*
X67890200Y-70332600D01*
G75*
G02*
X67814000Y-70408800I-76200J0D01*
G01*
X67560000Y-70408800D01*
G75*
G02*
X67483800Y-70332600I0J76200D01*
G01*
X67483800Y-69519800D01*
G75*
G02*
X67560000Y-69443600I76200J0D01*
G01*
X67814000Y-69443600D01*
G75*
G02*
X67890200Y-69519800I0J-76200D01*
G01*
G37*
G36*
G01*
X67390200Y-69519800D02*
X67390200Y-70332600D01*
G75*
G02*
X67314000Y-70408800I-76200J0D01*
G01*
X67060000Y-70408800D01*
G75*
G02*
X66983800Y-70332600I0J76200D01*
G01*
X66983800Y-69519800D01*
G75*
G02*
X67060000Y-69443600I76200J0D01*
G01*
X67314000Y-69443600D01*
G75*
G02*
X67390200Y-69519800I0J-76200D01*
G01*
G37*
G36*
G01*
X66890199Y-69519800D02*
X66890199Y-70332600D01*
G75*
G02*
X66813999Y-70408800I-76200J0D01*
G01*
X66559999Y-70408800D01*
G75*
G02*
X66483799Y-70332600I0J76200D01*
G01*
X66483799Y-69519800D01*
G75*
G02*
X66559999Y-69443600I76200J0D01*
G01*
X66813999Y-69443600D01*
G75*
G02*
X66890199Y-69519800I0J-76200D01*
G01*
G37*
G36*
G01*
X65582800Y-70420799D02*
X66395600Y-70420799D01*
G75*
G02*
X66471800Y-70496999I0J-76200D01*
G01*
X66471800Y-70750999D01*
G75*
G02*
X66395600Y-70827199I-76200J0D01*
G01*
X65582800Y-70827199D01*
G75*
G02*
X65506600Y-70750999I0J76200D01*
G01*
X65506600Y-70496999D01*
G75*
G02*
X65582800Y-70420799I76200J0D01*
G01*
G37*
G36*
G01*
X65582800Y-70920800D02*
X66395600Y-70920800D01*
G75*
G02*
X66471800Y-70997000I0J-76200D01*
G01*
X66471800Y-71251000D01*
G75*
G02*
X66395600Y-71327200I-76200J0D01*
G01*
X65582800Y-71327200D01*
G75*
G02*
X65506600Y-71251000I0J76200D01*
G01*
X65506600Y-70997000D01*
G75*
G02*
X65582800Y-70920800I76200J0D01*
G01*
G37*
G36*
G01*
X65582800Y-71420800D02*
X66395600Y-71420800D01*
G75*
G02*
X66471800Y-71497000I0J-76200D01*
G01*
X66471800Y-71751000D01*
G75*
G02*
X66395600Y-71827200I-76200J0D01*
G01*
X65582800Y-71827200D01*
G75*
G02*
X65506600Y-71751000I0J76200D01*
G01*
X65506600Y-71497000D01*
G75*
G02*
X65582800Y-71420800I76200J0D01*
G01*
G37*
G36*
G01*
X65582800Y-71920801D02*
X66395600Y-71920801D01*
G75*
G02*
X66471800Y-71997001I0J-76200D01*
G01*
X66471800Y-72251001D01*
G75*
G02*
X66395600Y-72327201I-76200J0D01*
G01*
X65582800Y-72327201D01*
G75*
G02*
X65506600Y-72251001I0J76200D01*
G01*
X65506600Y-71997001D01*
G75*
G02*
X65582800Y-71920801I76200J0D01*
G01*
G37*
G36*
G01*
X66890199Y-72415400D02*
X66890199Y-73228200D01*
G75*
G02*
X66813999Y-73304400I-76200J0D01*
G01*
X66559999Y-73304400D01*
G75*
G02*
X66483799Y-73228200I0J76200D01*
G01*
X66483799Y-72415400D01*
G75*
G02*
X66559999Y-72339200I76200J0D01*
G01*
X66813999Y-72339200D01*
G75*
G02*
X66890199Y-72415400I0J-76200D01*
G01*
G37*
G36*
G01*
X67390200Y-72415400D02*
X67390200Y-73228200D01*
G75*
G02*
X67314000Y-73304400I-76200J0D01*
G01*
X67060000Y-73304400D01*
G75*
G02*
X66983800Y-73228200I0J76200D01*
G01*
X66983800Y-72415400D01*
G75*
G02*
X67060000Y-72339200I76200J0D01*
G01*
X67314000Y-72339200D01*
G75*
G02*
X67390200Y-72415400I0J-76200D01*
G01*
G37*
G36*
G01*
X67890200Y-72415400D02*
X67890200Y-73228200D01*
G75*
G02*
X67814000Y-73304400I-76200J0D01*
G01*
X67560000Y-73304400D01*
G75*
G02*
X67483800Y-73228200I0J76200D01*
G01*
X67483800Y-72415400D01*
G75*
G02*
X67560000Y-72339200I76200J0D01*
G01*
X67814000Y-72339200D01*
G75*
G02*
X67890200Y-72415400I0J-76200D01*
G01*
G37*
G36*
G01*
X68390201Y-72415400D02*
X68390201Y-73228200D01*
G75*
G02*
X68314001Y-73304400I-76200J0D01*
G01*
X68060001Y-73304400D01*
G75*
G02*
X67983801Y-73228200I0J76200D01*
G01*
X67983801Y-72415400D01*
G75*
G02*
X68060001Y-72339200I76200J0D01*
G01*
X68314001Y-72339200D01*
G75*
G02*
X68390201Y-72415400I0J-76200D01*
G01*
G37*
G36*
G01*
X68135500Y-70751700D02*
X68135500Y-71996300D01*
G75*
G02*
X68059300Y-72072500I-76200J0D01*
G01*
X66814700Y-72072500D01*
G75*
G02*
X66738500Y-71996300I0J76200D01*
G01*
X66738500Y-70751700D01*
G75*
G02*
X66814700Y-70675500I76200J0D01*
G01*
X68059300Y-70675500D01*
G75*
G02*
X68135500Y-70751700I0J-76200D01*
G01*
G37*
M02*
