M48
INCH,TZ
T1C0.0120
T2C0.0394
T3C0.0512
T4C0.1260
%
G90
G05
T1
X23050Y-26750
X23050Y-27100
X23050Y-29300
X23050Y-29650
X23050Y-30000
X23200Y-20250
X23400Y-29300
X23400Y-29650
X23400Y-30000
X23450Y-26750
X23450Y-27100
X23750Y-29300
X23750Y-29650
X23750Y-30000
X24250Y-32900
X24250Y-33250
X24250Y-33600
X24250Y-33950
X24600Y-32900
X24600Y-33250
X24600Y-33600
X24600Y-33950
X25350Y-24700
X25350Y-25050
X25350Y-25400
X25350Y-25750
X25350Y-26100
X25500Y-28250
X25500Y-28550
X25550Y-20600
X25550Y-20950
X25700Y-24700
X25700Y-25050
X25700Y-25400
X25700Y-25750
X25700Y-26100
X25750Y-43150
X25850Y-34600
X25850Y-34950
X25850Y-35300
X26050Y-40700
X26200Y-34600
X26200Y-34950
X26200Y-35300
X26550Y-34600
X26550Y-34950
X26550Y-35300
X26650Y-22600
X26700Y-20650
X27050Y-22600
X27150Y-26650
X27150Y-26950
X27250Y-20650
X27500Y-26650
X27500Y-26950
X27600Y-27950
X27800Y-20650
X27800Y-32850
X27800Y-33200
X27800Y-33550
X27800Y-33900
X27800Y-34250
X27850Y-26650
X27850Y-26950
X27900Y-27950
X28150Y-32850
X28150Y-33200
X28150Y-33550
X28150Y-33900
X28150Y-34250
X28500Y-27600
X28950Y-20600
X28950Y-20950
X29600Y-20250
X29650Y-27600
X29650Y-30900
X29750Y-24450
X29750Y-24850
X29750Y-25250
X29750Y-25650
X29750Y-26050
X30000Y-30900
X30750Y-36400
X30750Y-36750
X30750Y-37100
X30800Y-42550
X30800Y-42900
X30800Y-43250
X30924Y-21974
X30950Y-21200
X31100Y-37100
X31150Y-42550
X31150Y-42900
X31150Y-43250
X31450Y-37100
X32100Y-41800
X32400Y-41800
X32450Y-23850
X32800Y-23850
X33000Y-22900
X33000Y-23250
X33000Y-23600
X33150Y-30300
X33150Y-30650
X33400Y-22900
X33500Y-30300
X33500Y-30650
X33750Y-23050
X33850Y-30300
X33850Y-30650
X33850Y-31000
X33900Y-37150
X34100Y-22900
X34200Y-30300
X34200Y-30650
X34200Y-31000
X34450Y-23050
X34550Y-26750
X34550Y-30300
X34550Y-30650
X34550Y-31000
X34800Y-22900
X35150Y-23050
X35500Y-22900
X36100Y-41800
X36400Y-41800
X37850Y-23650
X37850Y-23950
X37850Y-24350
X37900Y-37200
X40100Y-41800
X40350Y-25600
X40350Y-26150
X40350Y-26700
X40400Y-41800
X40850Y-25150
X40850Y-27200
X41400Y-25150
X41400Y-27200
X41900Y-37200
X41950Y-25150
X41950Y-27200
X42450Y-25600
X42450Y-26150
X42450Y-26700
X44100Y-41800
X44400Y-41800
X45900Y-37200
X46100Y-23100
X46400Y-23100
X48100Y-41800
X48400Y-41800
X48650Y-23600
X48732Y-31218
X48732Y-33268
X49000Y-23600
X49900Y-37200
X50500Y-29200
X50850Y-29200
X51200Y-29200
X51434Y-27466
X51550Y-23550
X51550Y-23900
X51550Y-24250
X51550Y-24600
X51550Y-24950
X51550Y-25300
X51550Y-29200
X51734Y-27466
X52100Y-41800
X52400Y-41800
X52800Y-23250
X52800Y-23550
X53100Y-22950
X53300Y-35200
X53450Y-23300
X53600Y-35200
X53900Y-37200
X55150Y-42550
X55150Y-42900
X55150Y-43250
X56700Y-40350
X56800Y-29750
X57150Y-29800
X57200Y-40200
X57500Y-29650
X57500Y-29950
X58000Y-36000
X58000Y-36350
X58000Y-36700
X58350Y-36000
X58350Y-36350
X58350Y-36700
T3
X24182Y-36716
X24182Y-38684
X56268Y-31266
X56268Y-33234
T4
X21700Y-21700
X21700Y-42300
X57300Y-21700
X57300Y-42300
T2
G00X28892Y-38491
M15
G01X27908Y-38491
M16
G05
G00X28794Y-40853
M15
G01X28006Y-40853
M16
G05
G00X30250Y-39278
M15
G01X30250Y-40066
M16
G05
T0
M30
