G04 #@! TF.GenerationSoftware,KiCad,Pcbnew,6.0.11-2627ca5db0~126~ubuntu22.04.1*
G04 #@! TF.CreationDate,2025-05-31T21:30:08-06:00*
G04 #@! TF.ProjectId,snd-defect,736e642d-6465-4666-9563-742e6b696361,rev?*
G04 #@! TF.SameCoordinates,Original*
G04 #@! TF.FileFunction,Copper,L1,Top*
G04 #@! TF.FilePolarity,Positive*
%FSLAX46Y46*%
G04 Gerber Fmt 4.6, Leading zero omitted, Abs format (unit mm)*
G04 Created by KiCad (PCBNEW 6.0.11-2627ca5db0~126~ubuntu22.04.1) date 2025-05-31 21:30:08*
%MOMM*%
%LPD*%
G01*
G04 APERTURE LIST*
G04 #@! TA.AperFunction,SMDPad,CuDef*
%ADD10R,2.108200X5.562600*%
G04 #@! TD*
G04 #@! TA.AperFunction,SMDPad,CuDef*
%ADD11R,1.500000X0.900000*%
G04 #@! TD*
G04 #@! TA.AperFunction,SMDPad,CuDef*
%ADD12R,2.660000X0.800000*%
G04 #@! TD*
G04 #@! TA.AperFunction,SMDPad,CuDef*
%ADD13R,1.400000X1.900000*%
G04 #@! TD*
G04 #@! TA.AperFunction,SMDPad,CuDef*
%ADD14R,0.900000X1.500000*%
G04 #@! TD*
G04 #@! TA.AperFunction,SMDPad,CuDef*
%ADD15R,0.900000X0.900000*%
G04 #@! TD*
G04 #@! TA.AperFunction,ComponentPad*
%ADD16R,2.500000X2.500000*%
G04 #@! TD*
G04 #@! TA.AperFunction,ComponentPad*
%ADD17C,2.500000*%
G04 #@! TD*
G04 #@! TA.AperFunction,SMDPad,CuDef*
%ADD18R,1.500000X2.000000*%
G04 #@! TD*
G04 #@! TA.AperFunction,SMDPad,CuDef*
%ADD19R,3.800000X2.000000*%
G04 #@! TD*
G04 #@! TA.AperFunction,SMDPad,CuDef*
%ADD20R,2.300000X0.500000*%
G04 #@! TD*
G04 #@! TA.AperFunction,SMDPad,CuDef*
%ADD21R,2.500000X2.000000*%
G04 #@! TD*
G04 #@! TA.AperFunction,ComponentPad*
%ADD22C,6.400000*%
G04 #@! TD*
G04 #@! TA.AperFunction,ComponentPad*
%ADD23O,5.000000X2.500000*%
G04 #@! TD*
G04 #@! TA.AperFunction,ComponentPad*
%ADD24O,4.500000X2.250000*%
G04 #@! TD*
G04 #@! TA.AperFunction,ComponentPad*
%ADD25O,2.250000X4.500000*%
G04 #@! TD*
G04 #@! TA.AperFunction,SMDPad,CuDef*
%ADD26R,1.200000X0.700000*%
G04 #@! TD*
G04 #@! TA.AperFunction,SMDPad,CuDef*
%ADD27R,0.800000X1.000000*%
G04 #@! TD*
G04 #@! TA.AperFunction,SMDPad,CuDef*
%ADD28R,1.200000X1.000000*%
G04 #@! TD*
G04 #@! TA.AperFunction,SMDPad,CuDef*
%ADD29R,2.800000X1.000000*%
G04 #@! TD*
G04 #@! TA.AperFunction,SMDPad,CuDef*
%ADD30R,1.900000X1.300000*%
G04 #@! TD*
G04 #@! TA.AperFunction,SMDPad,CuDef*
%ADD31R,1.900000X1.400000*%
G04 #@! TD*
G04 #@! TA.AperFunction,SMDPad,CuDef*
%ADD32R,0.812800X0.254000*%
G04 #@! TD*
G04 #@! TA.AperFunction,SMDPad,CuDef*
%ADD33R,0.254000X0.812800*%
G04 #@! TD*
G04 #@! TA.AperFunction,SMDPad,CuDef*
%ADD34R,1.244600X1.244600*%
G04 #@! TD*
G04 #@! TA.AperFunction,ViaPad*
%ADD35C,0.609600*%
G04 #@! TD*
G04 #@! TA.AperFunction,Conductor*
%ADD36C,0.635000*%
G04 #@! TD*
G04 #@! TA.AperFunction,Conductor*
%ADD37C,0.508000*%
G04 #@! TD*
G04 #@! TA.AperFunction,Conductor*
%ADD38C,1.905000*%
G04 #@! TD*
G04 #@! TA.AperFunction,Conductor*
%ADD39C,0.254000*%
G04 #@! TD*
G04 #@! TA.AperFunction,Conductor*
%ADD40C,0.203200*%
G04 #@! TD*
G04 #@! TA.AperFunction,Conductor*
%ADD41C,0.457200*%
G04 #@! TD*
G04 APERTURE END LIST*
D10*
X71386700Y-79121000D03*
X66789300Y-79121000D03*
D11*
X127037000Y-63245000D03*
X127037000Y-59945000D03*
X122137000Y-59945000D03*
X122137000Y-63245000D03*
G04 #@! TA.AperFunction,SMDPad,CuDef*
G36*
G01*
X63823000Y-57813000D02*
X62923000Y-57813000D01*
G75*
G02*
X62673000Y-57563000I0J250000D01*
G01*
X62673000Y-57038000D01*
G75*
G02*
X62923000Y-56788000I250000J0D01*
G01*
X63823000Y-56788000D01*
G75*
G02*
X64073000Y-57038000I0J-250000D01*
G01*
X64073000Y-57563000D01*
G75*
G02*
X63823000Y-57813000I-250000J0D01*
G01*
G37*
G04 #@! TD.AperFunction*
G04 #@! TA.AperFunction,SMDPad,CuDef*
G36*
G01*
X63823000Y-55988000D02*
X62923000Y-55988000D01*
G75*
G02*
X62673000Y-55738000I0J250000D01*
G01*
X62673000Y-55213000D01*
G75*
G02*
X62923000Y-54963000I250000J0D01*
G01*
X63823000Y-54963000D01*
G75*
G02*
X64073000Y-55213000I0J-250000D01*
G01*
X64073000Y-55738000D01*
G75*
G02*
X63823000Y-55988000I-250000J0D01*
G01*
G37*
G04 #@! TD.AperFunction*
G04 #@! TA.AperFunction,SMDPad,CuDef*
G36*
G01*
X78635000Y-81572000D02*
X78635000Y-81872000D01*
G75*
G02*
X78485000Y-82022000I-150000J0D01*
G01*
X77460000Y-82022000D01*
G75*
G02*
X77310000Y-81872000I0J150000D01*
G01*
X77310000Y-81572000D01*
G75*
G02*
X77460000Y-81422000I150000J0D01*
G01*
X78485000Y-81422000D01*
G75*
G02*
X78635000Y-81572000I0J-150000D01*
G01*
G37*
G04 #@! TD.AperFunction*
G04 #@! TA.AperFunction,SMDPad,CuDef*
G36*
G01*
X78635000Y-80622000D02*
X78635000Y-80922000D01*
G75*
G02*
X78485000Y-81072000I-150000J0D01*
G01*
X77460000Y-81072000D01*
G75*
G02*
X77310000Y-80922000I0J150000D01*
G01*
X77310000Y-80622000D01*
G75*
G02*
X77460000Y-80472000I150000J0D01*
G01*
X78485000Y-80472000D01*
G75*
G02*
X78635000Y-80622000I0J-150000D01*
G01*
G37*
G04 #@! TD.AperFunction*
G04 #@! TA.AperFunction,SMDPad,CuDef*
G36*
G01*
X78635000Y-79672000D02*
X78635000Y-79972000D01*
G75*
G02*
X78485000Y-80122000I-150000J0D01*
G01*
X77460000Y-80122000D01*
G75*
G02*
X77310000Y-79972000I0J150000D01*
G01*
X77310000Y-79672000D01*
G75*
G02*
X77460000Y-79522000I150000J0D01*
G01*
X78485000Y-79522000D01*
G75*
G02*
X78635000Y-79672000I0J-150000D01*
G01*
G37*
G04 #@! TD.AperFunction*
G04 #@! TA.AperFunction,SMDPad,CuDef*
G36*
G01*
X76360000Y-79672000D02*
X76360000Y-79972000D01*
G75*
G02*
X76210000Y-80122000I-150000J0D01*
G01*
X75185000Y-80122000D01*
G75*
G02*
X75035000Y-79972000I0J150000D01*
G01*
X75035000Y-79672000D01*
G75*
G02*
X75185000Y-79522000I150000J0D01*
G01*
X76210000Y-79522000D01*
G75*
G02*
X76360000Y-79672000I0J-150000D01*
G01*
G37*
G04 #@! TD.AperFunction*
G04 #@! TA.AperFunction,SMDPad,CuDef*
G36*
G01*
X76360000Y-80622000D02*
X76360000Y-80922000D01*
G75*
G02*
X76210000Y-81072000I-150000J0D01*
G01*
X75185000Y-81072000D01*
G75*
G02*
X75035000Y-80922000I0J150000D01*
G01*
X75035000Y-80622000D01*
G75*
G02*
X75185000Y-80472000I150000J0D01*
G01*
X76210000Y-80472000D01*
G75*
G02*
X76360000Y-80622000I0J-150000D01*
G01*
G37*
G04 #@! TD.AperFunction*
G04 #@! TA.AperFunction,SMDPad,CuDef*
G36*
G01*
X76360000Y-81572000D02*
X76360000Y-81872000D01*
G75*
G02*
X76210000Y-82022000I-150000J0D01*
G01*
X75185000Y-82022000D01*
G75*
G02*
X75035000Y-81872000I0J150000D01*
G01*
X75035000Y-81572000D01*
G75*
G02*
X75185000Y-81422000I150000J0D01*
G01*
X76210000Y-81422000D01*
G75*
G02*
X76360000Y-81572000I0J-150000D01*
G01*
G37*
G04 #@! TD.AperFunction*
G04 #@! TA.AperFunction,SMDPad,CuDef*
G36*
G01*
X98986000Y-92108000D02*
X98986000Y-93058000D01*
G75*
G02*
X98736000Y-93308000I-250000J0D01*
G01*
X98236000Y-93308000D01*
G75*
G02*
X97986000Y-93058000I0J250000D01*
G01*
X97986000Y-92108000D01*
G75*
G02*
X98236000Y-91858000I250000J0D01*
G01*
X98736000Y-91858000D01*
G75*
G02*
X98986000Y-92108000I0J-250000D01*
G01*
G37*
G04 #@! TD.AperFunction*
G04 #@! TA.AperFunction,SMDPad,CuDef*
G36*
G01*
X97086000Y-92108000D02*
X97086000Y-93058000D01*
G75*
G02*
X96836000Y-93308000I-250000J0D01*
G01*
X96336000Y-93308000D01*
G75*
G02*
X96086000Y-93058000I0J250000D01*
G01*
X96086000Y-92108000D01*
G75*
G02*
X96336000Y-91858000I250000J0D01*
G01*
X96836000Y-91858000D01*
G75*
G02*
X97086000Y-92108000I0J-250000D01*
G01*
G37*
G04 #@! TD.AperFunction*
D12*
X135166100Y-85864700D03*
X135166100Y-82664300D03*
X135166100Y-80454500D03*
X135166100Y-78244700D03*
X127977900Y-78244700D03*
X127977900Y-80454500D03*
X127977900Y-82664300D03*
X127977900Y-85864700D03*
G04 #@! TA.AperFunction,SMDPad,CuDef*
G36*
G01*
X93323000Y-107083000D02*
X93323000Y-105833000D01*
G75*
G02*
X93473000Y-105683000I150000J0D01*
G01*
X93773000Y-105683000D01*
G75*
G02*
X93923000Y-105833000I0J-150000D01*
G01*
X93923000Y-107083000D01*
G75*
G02*
X93773000Y-107233000I-150000J0D01*
G01*
X93473000Y-107233000D01*
G75*
G02*
X93323000Y-107083000I0J150000D01*
G01*
G37*
G04 #@! TD.AperFunction*
G04 #@! TA.AperFunction,SMDPad,CuDef*
G36*
G01*
X94323000Y-107083000D02*
X94323000Y-105833000D01*
G75*
G02*
X94473000Y-105683000I150000J0D01*
G01*
X94773000Y-105683000D01*
G75*
G02*
X94923000Y-105833000I0J-150000D01*
G01*
X94923000Y-107083000D01*
G75*
G02*
X94773000Y-107233000I-150000J0D01*
G01*
X94473000Y-107233000D01*
G75*
G02*
X94323000Y-107083000I0J150000D01*
G01*
G37*
G04 #@! TD.AperFunction*
G04 #@! TA.AperFunction,SMDPad,CuDef*
G36*
G01*
X95323000Y-107083000D02*
X95323000Y-105833000D01*
G75*
G02*
X95473000Y-105683000I150000J0D01*
G01*
X95773000Y-105683000D01*
G75*
G02*
X95923000Y-105833000I0J-150000D01*
G01*
X95923000Y-107083000D01*
G75*
G02*
X95773000Y-107233000I-150000J0D01*
G01*
X95473000Y-107233000D01*
G75*
G02*
X95323000Y-107083000I0J150000D01*
G01*
G37*
G04 #@! TD.AperFunction*
G04 #@! TA.AperFunction,SMDPad,CuDef*
G36*
G01*
X96323000Y-107083000D02*
X96323000Y-105833000D01*
G75*
G02*
X96473000Y-105683000I150000J0D01*
G01*
X96773000Y-105683000D01*
G75*
G02*
X96923000Y-105833000I0J-150000D01*
G01*
X96923000Y-107083000D01*
G75*
G02*
X96773000Y-107233000I-150000J0D01*
G01*
X96473000Y-107233000D01*
G75*
G02*
X96323000Y-107083000I0J150000D01*
G01*
G37*
G04 #@! TD.AperFunction*
G04 #@! TA.AperFunction,SMDPad,CuDef*
G36*
G01*
X91723000Y-110983000D02*
X91723000Y-109683000D01*
G75*
G02*
X91973000Y-109433000I250000J0D01*
G01*
X92673000Y-109433000D01*
G75*
G02*
X92923000Y-109683000I0J-250000D01*
G01*
X92923000Y-110983000D01*
G75*
G02*
X92673000Y-111233000I-250000J0D01*
G01*
X91973000Y-111233000D01*
G75*
G02*
X91723000Y-110983000I0J250000D01*
G01*
G37*
G04 #@! TD.AperFunction*
G04 #@! TA.AperFunction,SMDPad,CuDef*
G36*
G01*
X97323000Y-110983000D02*
X97323000Y-109683000D01*
G75*
G02*
X97573000Y-109433000I250000J0D01*
G01*
X98273000Y-109433000D01*
G75*
G02*
X98523000Y-109683000I0J-250000D01*
G01*
X98523000Y-110983000D01*
G75*
G02*
X98273000Y-111233000I-250000J0D01*
G01*
X97573000Y-111233000D01*
G75*
G02*
X97323000Y-110983000I0J250000D01*
G01*
G37*
G04 #@! TD.AperFunction*
G04 #@! TA.AperFunction,SMDPad,CuDef*
G36*
G01*
X66749000Y-86962000D02*
X66749000Y-86012000D01*
G75*
G02*
X66999000Y-85762000I250000J0D01*
G01*
X67499000Y-85762000D01*
G75*
G02*
X67749000Y-86012000I0J-250000D01*
G01*
X67749000Y-86962000D01*
G75*
G02*
X67499000Y-87212000I-250000J0D01*
G01*
X66999000Y-87212000D01*
G75*
G02*
X66749000Y-86962000I0J250000D01*
G01*
G37*
G04 #@! TD.AperFunction*
G04 #@! TA.AperFunction,SMDPad,CuDef*
G36*
G01*
X68649000Y-86962000D02*
X68649000Y-86012000D01*
G75*
G02*
X68899000Y-85762000I250000J0D01*
G01*
X69399000Y-85762000D01*
G75*
G02*
X69649000Y-86012000I0J-250000D01*
G01*
X69649000Y-86962000D01*
G75*
G02*
X69399000Y-87212000I-250000J0D01*
G01*
X68899000Y-87212000D01*
G75*
G02*
X68649000Y-86962000I0J250000D01*
G01*
G37*
G04 #@! TD.AperFunction*
D13*
X73280000Y-89535000D03*
X76580000Y-89535000D03*
G04 #@! TA.AperFunction,SMDPad,CuDef*
G36*
G01*
X95217000Y-60886000D02*
X94267000Y-60886000D01*
G75*
G02*
X94017000Y-60636000I0J250000D01*
G01*
X94017000Y-60136000D01*
G75*
G02*
X94267000Y-59886000I250000J0D01*
G01*
X95217000Y-59886000D01*
G75*
G02*
X95467000Y-60136000I0J-250000D01*
G01*
X95467000Y-60636000D01*
G75*
G02*
X95217000Y-60886000I-250000J0D01*
G01*
G37*
G04 #@! TD.AperFunction*
G04 #@! TA.AperFunction,SMDPad,CuDef*
G36*
G01*
X95217000Y-58986000D02*
X94267000Y-58986000D01*
G75*
G02*
X94017000Y-58736000I0J250000D01*
G01*
X94017000Y-58236000D01*
G75*
G02*
X94267000Y-57986000I250000J0D01*
G01*
X95217000Y-57986000D01*
G75*
G02*
X95467000Y-58236000I0J-250000D01*
G01*
X95467000Y-58736000D01*
G75*
G02*
X95217000Y-58986000I-250000J0D01*
G01*
G37*
G04 #@! TD.AperFunction*
G04 #@! TA.AperFunction,SMDPad,CuDef*
G36*
G01*
X133963000Y-107083000D02*
X133963000Y-105833000D01*
G75*
G02*
X134113000Y-105683000I150000J0D01*
G01*
X134413000Y-105683000D01*
G75*
G02*
X134563000Y-105833000I0J-150000D01*
G01*
X134563000Y-107083000D01*
G75*
G02*
X134413000Y-107233000I-150000J0D01*
G01*
X134113000Y-107233000D01*
G75*
G02*
X133963000Y-107083000I0J150000D01*
G01*
G37*
G04 #@! TD.AperFunction*
G04 #@! TA.AperFunction,SMDPad,CuDef*
G36*
G01*
X134963000Y-107083000D02*
X134963000Y-105833000D01*
G75*
G02*
X135113000Y-105683000I150000J0D01*
G01*
X135413000Y-105683000D01*
G75*
G02*
X135563000Y-105833000I0J-150000D01*
G01*
X135563000Y-107083000D01*
G75*
G02*
X135413000Y-107233000I-150000J0D01*
G01*
X135113000Y-107233000D01*
G75*
G02*
X134963000Y-107083000I0J150000D01*
G01*
G37*
G04 #@! TD.AperFunction*
G04 #@! TA.AperFunction,SMDPad,CuDef*
G36*
G01*
X135963000Y-107083000D02*
X135963000Y-105833000D01*
G75*
G02*
X136113000Y-105683000I150000J0D01*
G01*
X136413000Y-105683000D01*
G75*
G02*
X136563000Y-105833000I0J-150000D01*
G01*
X136563000Y-107083000D01*
G75*
G02*
X136413000Y-107233000I-150000J0D01*
G01*
X136113000Y-107233000D01*
G75*
G02*
X135963000Y-107083000I0J150000D01*
G01*
G37*
G04 #@! TD.AperFunction*
G04 #@! TA.AperFunction,SMDPad,CuDef*
G36*
G01*
X136963000Y-107083000D02*
X136963000Y-105833000D01*
G75*
G02*
X137113000Y-105683000I150000J0D01*
G01*
X137413000Y-105683000D01*
G75*
G02*
X137563000Y-105833000I0J-150000D01*
G01*
X137563000Y-107083000D01*
G75*
G02*
X137413000Y-107233000I-150000J0D01*
G01*
X137113000Y-107233000D01*
G75*
G02*
X136963000Y-107083000I0J150000D01*
G01*
G37*
G04 #@! TD.AperFunction*
G04 #@! TA.AperFunction,SMDPad,CuDef*
G36*
G01*
X137963000Y-110983000D02*
X137963000Y-109683000D01*
G75*
G02*
X138213000Y-109433000I250000J0D01*
G01*
X138913000Y-109433000D01*
G75*
G02*
X139163000Y-109683000I0J-250000D01*
G01*
X139163000Y-110983000D01*
G75*
G02*
X138913000Y-111233000I-250000J0D01*
G01*
X138213000Y-111233000D01*
G75*
G02*
X137963000Y-110983000I0J250000D01*
G01*
G37*
G04 #@! TD.AperFunction*
G04 #@! TA.AperFunction,SMDPad,CuDef*
G36*
G01*
X132363000Y-110983000D02*
X132363000Y-109683000D01*
G75*
G02*
X132613000Y-109433000I250000J0D01*
G01*
X133313000Y-109433000D01*
G75*
G02*
X133563000Y-109683000I0J-250000D01*
G01*
X133563000Y-110983000D01*
G75*
G02*
X133313000Y-111233000I-250000J0D01*
G01*
X132613000Y-111233000D01*
G75*
G02*
X132363000Y-110983000I0J250000D01*
G01*
G37*
G04 #@! TD.AperFunction*
G04 #@! TA.AperFunction,SMDPad,CuDef*
G36*
G01*
X80084000Y-59276000D02*
X80084000Y-58326000D01*
G75*
G02*
X80334000Y-58076000I250000J0D01*
G01*
X80834000Y-58076000D01*
G75*
G02*
X81084000Y-58326000I0J-250000D01*
G01*
X81084000Y-59276000D01*
G75*
G02*
X80834000Y-59526000I-250000J0D01*
G01*
X80334000Y-59526000D01*
G75*
G02*
X80084000Y-59276000I0J250000D01*
G01*
G37*
G04 #@! TD.AperFunction*
G04 #@! TA.AperFunction,SMDPad,CuDef*
G36*
G01*
X81984000Y-59276000D02*
X81984000Y-58326000D01*
G75*
G02*
X82234000Y-58076000I250000J0D01*
G01*
X82734000Y-58076000D01*
G75*
G02*
X82984000Y-58326000I0J-250000D01*
G01*
X82984000Y-59276000D01*
G75*
G02*
X82734000Y-59526000I-250000J0D01*
G01*
X82234000Y-59526000D01*
G75*
G02*
X81984000Y-59276000I0J250000D01*
G01*
G37*
G04 #@! TD.AperFunction*
G04 #@! TA.AperFunction,SMDPad,CuDef*
G36*
G01*
X113643000Y-107083000D02*
X113643000Y-105833000D01*
G75*
G02*
X113793000Y-105683000I150000J0D01*
G01*
X114093000Y-105683000D01*
G75*
G02*
X114243000Y-105833000I0J-150000D01*
G01*
X114243000Y-107083000D01*
G75*
G02*
X114093000Y-107233000I-150000J0D01*
G01*
X113793000Y-107233000D01*
G75*
G02*
X113643000Y-107083000I0J150000D01*
G01*
G37*
G04 #@! TD.AperFunction*
G04 #@! TA.AperFunction,SMDPad,CuDef*
G36*
G01*
X114643000Y-107083000D02*
X114643000Y-105833000D01*
G75*
G02*
X114793000Y-105683000I150000J0D01*
G01*
X115093000Y-105683000D01*
G75*
G02*
X115243000Y-105833000I0J-150000D01*
G01*
X115243000Y-107083000D01*
G75*
G02*
X115093000Y-107233000I-150000J0D01*
G01*
X114793000Y-107233000D01*
G75*
G02*
X114643000Y-107083000I0J150000D01*
G01*
G37*
G04 #@! TD.AperFunction*
G04 #@! TA.AperFunction,SMDPad,CuDef*
G36*
G01*
X115643000Y-107083000D02*
X115643000Y-105833000D01*
G75*
G02*
X115793000Y-105683000I150000J0D01*
G01*
X116093000Y-105683000D01*
G75*
G02*
X116243000Y-105833000I0J-150000D01*
G01*
X116243000Y-107083000D01*
G75*
G02*
X116093000Y-107233000I-150000J0D01*
G01*
X115793000Y-107233000D01*
G75*
G02*
X115643000Y-107083000I0J150000D01*
G01*
G37*
G04 #@! TD.AperFunction*
G04 #@! TA.AperFunction,SMDPad,CuDef*
G36*
G01*
X116643000Y-107083000D02*
X116643000Y-105833000D01*
G75*
G02*
X116793000Y-105683000I150000J0D01*
G01*
X117093000Y-105683000D01*
G75*
G02*
X117243000Y-105833000I0J-150000D01*
G01*
X117243000Y-107083000D01*
G75*
G02*
X117093000Y-107233000I-150000J0D01*
G01*
X116793000Y-107233000D01*
G75*
G02*
X116643000Y-107083000I0J150000D01*
G01*
G37*
G04 #@! TD.AperFunction*
G04 #@! TA.AperFunction,SMDPad,CuDef*
G36*
G01*
X117643000Y-110983000D02*
X117643000Y-109683000D01*
G75*
G02*
X117893000Y-109433000I250000J0D01*
G01*
X118593000Y-109433000D01*
G75*
G02*
X118843000Y-109683000I0J-250000D01*
G01*
X118843000Y-110983000D01*
G75*
G02*
X118593000Y-111233000I-250000J0D01*
G01*
X117893000Y-111233000D01*
G75*
G02*
X117643000Y-110983000I0J250000D01*
G01*
G37*
G04 #@! TD.AperFunction*
G04 #@! TA.AperFunction,SMDPad,CuDef*
G36*
G01*
X112043000Y-110983000D02*
X112043000Y-109683000D01*
G75*
G02*
X112293000Y-109433000I250000J0D01*
G01*
X112993000Y-109433000D01*
G75*
G02*
X113243000Y-109683000I0J-250000D01*
G01*
X113243000Y-110983000D01*
G75*
G02*
X112993000Y-111233000I-250000J0D01*
G01*
X112293000Y-111233000D01*
G75*
G02*
X112043000Y-110983000I0J250000D01*
G01*
G37*
G04 #@! TD.AperFunction*
G04 #@! TA.AperFunction,SMDPad,CuDef*
G36*
G01*
X77437000Y-56314000D02*
X76487000Y-56314000D01*
G75*
G02*
X76237000Y-56064000I0J250000D01*
G01*
X76237000Y-55564000D01*
G75*
G02*
X76487000Y-55314000I250000J0D01*
G01*
X77437000Y-55314000D01*
G75*
G02*
X77687000Y-55564000I0J-250000D01*
G01*
X77687000Y-56064000D01*
G75*
G02*
X77437000Y-56314000I-250000J0D01*
G01*
G37*
G04 #@! TD.AperFunction*
G04 #@! TA.AperFunction,SMDPad,CuDef*
G36*
G01*
X77437000Y-54414000D02*
X76487000Y-54414000D01*
G75*
G02*
X76237000Y-54164000I0J250000D01*
G01*
X76237000Y-53664000D01*
G75*
G02*
X76487000Y-53414000I250000J0D01*
G01*
X77437000Y-53414000D01*
G75*
G02*
X77687000Y-53664000I0J-250000D01*
G01*
X77687000Y-54164000D01*
G75*
G02*
X77437000Y-54414000I-250000J0D01*
G01*
G37*
G04 #@! TD.AperFunction*
G04 #@! TA.AperFunction,SMDPad,CuDef*
G36*
G01*
X143457000Y-92296000D02*
X143457000Y-91346000D01*
G75*
G02*
X143707000Y-91096000I250000J0D01*
G01*
X144207000Y-91096000D01*
G75*
G02*
X144457000Y-91346000I0J-250000D01*
G01*
X144457000Y-92296000D01*
G75*
G02*
X144207000Y-92546000I-250000J0D01*
G01*
X143707000Y-92546000D01*
G75*
G02*
X143457000Y-92296000I0J250000D01*
G01*
G37*
G04 #@! TD.AperFunction*
G04 #@! TA.AperFunction,SMDPad,CuDef*
G36*
G01*
X145357000Y-92296000D02*
X145357000Y-91346000D01*
G75*
G02*
X145607000Y-91096000I250000J0D01*
G01*
X146107000Y-91096000D01*
G75*
G02*
X146357000Y-91346000I0J-250000D01*
G01*
X146357000Y-92296000D01*
G75*
G02*
X146107000Y-92546000I-250000J0D01*
G01*
X145607000Y-92546000D01*
G75*
G02*
X145357000Y-92296000I0J250000D01*
G01*
G37*
G04 #@! TD.AperFunction*
G04 #@! TA.AperFunction,SMDPad,CuDef*
G36*
G01*
X85005000Y-87508000D02*
X83905000Y-87508000D01*
G75*
G02*
X83655000Y-87258000I0J250000D01*
G01*
X83655000Y-84258000D01*
G75*
G02*
X83905000Y-84008000I250000J0D01*
G01*
X85005000Y-84008000D01*
G75*
G02*
X85255000Y-84258000I0J-250000D01*
G01*
X85255000Y-87258000D01*
G75*
G02*
X85005000Y-87508000I-250000J0D01*
G01*
G37*
G04 #@! TD.AperFunction*
G04 #@! TA.AperFunction,SMDPad,CuDef*
G36*
G01*
X85005000Y-82108000D02*
X83905000Y-82108000D01*
G75*
G02*
X83655000Y-81858000I0J250000D01*
G01*
X83655000Y-78858000D01*
G75*
G02*
X83905000Y-78608000I250000J0D01*
G01*
X85005000Y-78608000D01*
G75*
G02*
X85255000Y-78858000I0J-250000D01*
G01*
X85255000Y-81858000D01*
G75*
G02*
X85005000Y-82108000I-250000J0D01*
G01*
G37*
G04 #@! TD.AperFunction*
G04 #@! TA.AperFunction,SMDPad,CuDef*
G36*
G01*
X129466000Y-92108000D02*
X129466000Y-93058000D01*
G75*
G02*
X129216000Y-93308000I-250000J0D01*
G01*
X128716000Y-93308000D01*
G75*
G02*
X128466000Y-93058000I0J250000D01*
G01*
X128466000Y-92108000D01*
G75*
G02*
X128716000Y-91858000I250000J0D01*
G01*
X129216000Y-91858000D01*
G75*
G02*
X129466000Y-92108000I0J-250000D01*
G01*
G37*
G04 #@! TD.AperFunction*
G04 #@! TA.AperFunction,SMDPad,CuDef*
G36*
G01*
X127566000Y-92108000D02*
X127566000Y-93058000D01*
G75*
G02*
X127316000Y-93308000I-250000J0D01*
G01*
X126816000Y-93308000D01*
G75*
G02*
X126566000Y-93058000I0J250000D01*
G01*
X126566000Y-92108000D01*
G75*
G02*
X126816000Y-91858000I250000J0D01*
G01*
X127316000Y-91858000D01*
G75*
G02*
X127566000Y-92108000I0J-250000D01*
G01*
G37*
G04 #@! TD.AperFunction*
D11*
X97930000Y-58752000D03*
X97930000Y-60022000D03*
X97930000Y-61292000D03*
X97930000Y-62562000D03*
X97930000Y-63832000D03*
X97930000Y-65102000D03*
X97930000Y-66372000D03*
X97930000Y-67642000D03*
X97930000Y-68912000D03*
X97930000Y-70182000D03*
X97930000Y-71452000D03*
X97930000Y-72722000D03*
X97930000Y-73992000D03*
X97930000Y-75262000D03*
D14*
X99695000Y-76512000D03*
X100965000Y-76512000D03*
X102235000Y-76512000D03*
X103505000Y-76512000D03*
X104775000Y-76512000D03*
X106045000Y-76512000D03*
X107315000Y-76512000D03*
X108585000Y-76512000D03*
X109855000Y-76512000D03*
X111125000Y-76512000D03*
X112395000Y-76512000D03*
X113665000Y-76512000D03*
D11*
X115430000Y-75262000D03*
X115430000Y-73992000D03*
X115430000Y-72722000D03*
X115430000Y-71452000D03*
X115430000Y-70182000D03*
X115430000Y-68912000D03*
X115430000Y-67642000D03*
X115430000Y-66372000D03*
X115430000Y-65102000D03*
X115430000Y-63832000D03*
X115430000Y-62562000D03*
X115430000Y-61292000D03*
X115430000Y-60022000D03*
X115430000Y-58752000D03*
D15*
X106580000Y-67872000D03*
X106580000Y-65072000D03*
X105180000Y-66472000D03*
X103780000Y-65072000D03*
X105180000Y-65072000D03*
X103780000Y-66472000D03*
X105180000Y-67872000D03*
X106580000Y-66472000D03*
X103780000Y-67872000D03*
G04 #@! TA.AperFunction,SMDPad,CuDef*
G36*
G01*
X88826000Y-92108000D02*
X88826000Y-93058000D01*
G75*
G02*
X88576000Y-93308000I-250000J0D01*
G01*
X88076000Y-93308000D01*
G75*
G02*
X87826000Y-93058000I0J250000D01*
G01*
X87826000Y-92108000D01*
G75*
G02*
X88076000Y-91858000I250000J0D01*
G01*
X88576000Y-91858000D01*
G75*
G02*
X88826000Y-92108000I0J-250000D01*
G01*
G37*
G04 #@! TD.AperFunction*
G04 #@! TA.AperFunction,SMDPad,CuDef*
G36*
G01*
X86926000Y-92108000D02*
X86926000Y-93058000D01*
G75*
G02*
X86676000Y-93308000I-250000J0D01*
G01*
X86176000Y-93308000D01*
G75*
G02*
X85926000Y-93058000I0J250000D01*
G01*
X85926000Y-92108000D01*
G75*
G02*
X86176000Y-91858000I250000J0D01*
G01*
X86676000Y-91858000D01*
G75*
G02*
X86926000Y-92108000I0J-250000D01*
G01*
G37*
G04 #@! TD.AperFunction*
D13*
X73280000Y-93599000D03*
X76580000Y-93599000D03*
G04 #@! TA.AperFunction,SMDPad,CuDef*
G36*
G01*
X144168000Y-100859000D02*
X143868000Y-100859000D01*
G75*
G02*
X143718000Y-100709000I0J150000D01*
G01*
X143718000Y-99259000D01*
G75*
G02*
X143868000Y-99109000I150000J0D01*
G01*
X144168000Y-99109000D01*
G75*
G02*
X144318000Y-99259000I0J-150000D01*
G01*
X144318000Y-100709000D01*
G75*
G02*
X144168000Y-100859000I-150000J0D01*
G01*
G37*
G04 #@! TD.AperFunction*
G04 #@! TA.AperFunction,SMDPad,CuDef*
G36*
G01*
X145438000Y-100859000D02*
X145138000Y-100859000D01*
G75*
G02*
X144988000Y-100709000I0J150000D01*
G01*
X144988000Y-99259000D01*
G75*
G02*
X145138000Y-99109000I150000J0D01*
G01*
X145438000Y-99109000D01*
G75*
G02*
X145588000Y-99259000I0J-150000D01*
G01*
X145588000Y-100709000D01*
G75*
G02*
X145438000Y-100859000I-150000J0D01*
G01*
G37*
G04 #@! TD.AperFunction*
G04 #@! TA.AperFunction,SMDPad,CuDef*
G36*
G01*
X146708000Y-100859000D02*
X146408000Y-100859000D01*
G75*
G02*
X146258000Y-100709000I0J150000D01*
G01*
X146258000Y-99259000D01*
G75*
G02*
X146408000Y-99109000I150000J0D01*
G01*
X146708000Y-99109000D01*
G75*
G02*
X146858000Y-99259000I0J-150000D01*
G01*
X146858000Y-100709000D01*
G75*
G02*
X146708000Y-100859000I-150000J0D01*
G01*
G37*
G04 #@! TD.AperFunction*
G04 #@! TA.AperFunction,SMDPad,CuDef*
G36*
G01*
X147978000Y-100859000D02*
X147678000Y-100859000D01*
G75*
G02*
X147528000Y-100709000I0J150000D01*
G01*
X147528000Y-99259000D01*
G75*
G02*
X147678000Y-99109000I150000J0D01*
G01*
X147978000Y-99109000D01*
G75*
G02*
X148128000Y-99259000I0J-150000D01*
G01*
X148128000Y-100709000D01*
G75*
G02*
X147978000Y-100859000I-150000J0D01*
G01*
G37*
G04 #@! TD.AperFunction*
G04 #@! TA.AperFunction,SMDPad,CuDef*
G36*
G01*
X147978000Y-95709000D02*
X147678000Y-95709000D01*
G75*
G02*
X147528000Y-95559000I0J150000D01*
G01*
X147528000Y-94109000D01*
G75*
G02*
X147678000Y-93959000I150000J0D01*
G01*
X147978000Y-93959000D01*
G75*
G02*
X148128000Y-94109000I0J-150000D01*
G01*
X148128000Y-95559000D01*
G75*
G02*
X147978000Y-95709000I-150000J0D01*
G01*
G37*
G04 #@! TD.AperFunction*
G04 #@! TA.AperFunction,SMDPad,CuDef*
G36*
G01*
X146708000Y-95709000D02*
X146408000Y-95709000D01*
G75*
G02*
X146258000Y-95559000I0J150000D01*
G01*
X146258000Y-94109000D01*
G75*
G02*
X146408000Y-93959000I150000J0D01*
G01*
X146708000Y-93959000D01*
G75*
G02*
X146858000Y-94109000I0J-150000D01*
G01*
X146858000Y-95559000D01*
G75*
G02*
X146708000Y-95709000I-150000J0D01*
G01*
G37*
G04 #@! TD.AperFunction*
G04 #@! TA.AperFunction,SMDPad,CuDef*
G36*
G01*
X145438000Y-95709000D02*
X145138000Y-95709000D01*
G75*
G02*
X144988000Y-95559000I0J150000D01*
G01*
X144988000Y-94109000D01*
G75*
G02*
X145138000Y-93959000I150000J0D01*
G01*
X145438000Y-93959000D01*
G75*
G02*
X145588000Y-94109000I0J-150000D01*
G01*
X145588000Y-95559000D01*
G75*
G02*
X145438000Y-95709000I-150000J0D01*
G01*
G37*
G04 #@! TD.AperFunction*
G04 #@! TA.AperFunction,SMDPad,CuDef*
G36*
G01*
X144168000Y-95709000D02*
X143868000Y-95709000D01*
G75*
G02*
X143718000Y-95559000I0J150000D01*
G01*
X143718000Y-94109000D01*
G75*
G02*
X143868000Y-93959000I150000J0D01*
G01*
X144168000Y-93959000D01*
G75*
G02*
X144318000Y-94109000I0J-150000D01*
G01*
X144318000Y-95559000D01*
G75*
G02*
X144168000Y-95709000I-150000J0D01*
G01*
G37*
G04 #@! TD.AperFunction*
G04 #@! TA.AperFunction,SMDPad,CuDef*
G36*
G01*
X78285000Y-76487000D02*
X78285000Y-77437000D01*
G75*
G02*
X78035000Y-77687000I-250000J0D01*
G01*
X77535000Y-77687000D01*
G75*
G02*
X77285000Y-77437000I0J250000D01*
G01*
X77285000Y-76487000D01*
G75*
G02*
X77535000Y-76237000I250000J0D01*
G01*
X78035000Y-76237000D01*
G75*
G02*
X78285000Y-76487000I0J-250000D01*
G01*
G37*
G04 #@! TD.AperFunction*
G04 #@! TA.AperFunction,SMDPad,CuDef*
G36*
G01*
X76385000Y-76487000D02*
X76385000Y-77437000D01*
G75*
G02*
X76135000Y-77687000I-250000J0D01*
G01*
X75635000Y-77687000D01*
G75*
G02*
X75385000Y-77437000I0J250000D01*
G01*
X75385000Y-76487000D01*
G75*
G02*
X75635000Y-76237000I250000J0D01*
G01*
X76135000Y-76237000D01*
G75*
G02*
X76385000Y-76487000I0J-250000D01*
G01*
G37*
G04 #@! TD.AperFunction*
G04 #@! TA.AperFunction,SMDPad,CuDef*
G36*
G01*
X60902000Y-57813000D02*
X60002000Y-57813000D01*
G75*
G02*
X59752000Y-57563000I0J250000D01*
G01*
X59752000Y-57038000D01*
G75*
G02*
X60002000Y-56788000I250000J0D01*
G01*
X60902000Y-56788000D01*
G75*
G02*
X61152000Y-57038000I0J-250000D01*
G01*
X61152000Y-57563000D01*
G75*
G02*
X60902000Y-57813000I-250000J0D01*
G01*
G37*
G04 #@! TD.AperFunction*
G04 #@! TA.AperFunction,SMDPad,CuDef*
G36*
G01*
X60902000Y-55988000D02*
X60002000Y-55988000D01*
G75*
G02*
X59752000Y-55738000I0J250000D01*
G01*
X59752000Y-55213000D01*
G75*
G02*
X60002000Y-54963000I250000J0D01*
G01*
X60902000Y-54963000D01*
G75*
G02*
X61152000Y-55213000I0J-250000D01*
G01*
X61152000Y-55738000D01*
G75*
G02*
X60902000Y-55988000I-250000J0D01*
G01*
G37*
G04 #@! TD.AperFunction*
G04 #@! TA.AperFunction,SMDPad,CuDef*
G36*
G01*
X73434000Y-62542000D02*
X73434000Y-63442000D01*
G75*
G02*
X73184000Y-63692000I-250000J0D01*
G01*
X72659000Y-63692000D01*
G75*
G02*
X72409000Y-63442000I0J250000D01*
G01*
X72409000Y-62542000D01*
G75*
G02*
X72659000Y-62292000I250000J0D01*
G01*
X73184000Y-62292000D01*
G75*
G02*
X73434000Y-62542000I0J-250000D01*
G01*
G37*
G04 #@! TD.AperFunction*
G04 #@! TA.AperFunction,SMDPad,CuDef*
G36*
G01*
X71609000Y-62542000D02*
X71609000Y-63442000D01*
G75*
G02*
X71359000Y-63692000I-250000J0D01*
G01*
X70834000Y-63692000D01*
G75*
G02*
X70584000Y-63442000I0J250000D01*
G01*
X70584000Y-62542000D01*
G75*
G02*
X70834000Y-62292000I250000J0D01*
G01*
X71359000Y-62292000D01*
G75*
G02*
X71609000Y-62542000I0J-250000D01*
G01*
G37*
G04 #@! TD.AperFunction*
G04 #@! TA.AperFunction,SMDPad,CuDef*
G36*
G01*
X98961000Y-95816000D02*
X98961000Y-96716000D01*
G75*
G02*
X98711000Y-96966000I-250000J0D01*
G01*
X98186000Y-96966000D01*
G75*
G02*
X97936000Y-96716000I0J250000D01*
G01*
X97936000Y-95816000D01*
G75*
G02*
X98186000Y-95566000I250000J0D01*
G01*
X98711000Y-95566000D01*
G75*
G02*
X98961000Y-95816000I0J-250000D01*
G01*
G37*
G04 #@! TD.AperFunction*
G04 #@! TA.AperFunction,SMDPad,CuDef*
G36*
G01*
X97136000Y-95816000D02*
X97136000Y-96716000D01*
G75*
G02*
X96886000Y-96966000I-250000J0D01*
G01*
X96361000Y-96966000D01*
G75*
G02*
X96111000Y-96716000I0J250000D01*
G01*
X96111000Y-95816000D01*
G75*
G02*
X96361000Y-95566000I250000J0D01*
G01*
X96886000Y-95566000D01*
G75*
G02*
X97136000Y-95816000I0J-250000D01*
G01*
G37*
G04 #@! TD.AperFunction*
G04 #@! TA.AperFunction,SMDPad,CuDef*
G36*
G01*
X66749000Y-84422000D02*
X66749000Y-83472000D01*
G75*
G02*
X66999000Y-83222000I250000J0D01*
G01*
X67499000Y-83222000D01*
G75*
G02*
X67749000Y-83472000I0J-250000D01*
G01*
X67749000Y-84422000D01*
G75*
G02*
X67499000Y-84672000I-250000J0D01*
G01*
X66999000Y-84672000D01*
G75*
G02*
X66749000Y-84422000I0J250000D01*
G01*
G37*
G04 #@! TD.AperFunction*
G04 #@! TA.AperFunction,SMDPad,CuDef*
G36*
G01*
X68649000Y-84422000D02*
X68649000Y-83472000D01*
G75*
G02*
X68899000Y-83222000I250000J0D01*
G01*
X69399000Y-83222000D01*
G75*
G02*
X69649000Y-83472000I0J-250000D01*
G01*
X69649000Y-84422000D01*
G75*
G02*
X69399000Y-84672000I-250000J0D01*
G01*
X68899000Y-84672000D01*
G75*
G02*
X68649000Y-84422000I0J250000D01*
G01*
G37*
G04 #@! TD.AperFunction*
G04 #@! TA.AperFunction,SMDPad,CuDef*
G36*
G01*
X55477000Y-69828000D02*
X56727000Y-69828000D01*
G75*
G02*
X56877000Y-69978000I0J-150000D01*
G01*
X56877000Y-70278000D01*
G75*
G02*
X56727000Y-70428000I-150000J0D01*
G01*
X55477000Y-70428000D01*
G75*
G02*
X55327000Y-70278000I0J150000D01*
G01*
X55327000Y-69978000D01*
G75*
G02*
X55477000Y-69828000I150000J0D01*
G01*
G37*
G04 #@! TD.AperFunction*
G04 #@! TA.AperFunction,SMDPad,CuDef*
G36*
G01*
X55477000Y-70828000D02*
X56727000Y-70828000D01*
G75*
G02*
X56877000Y-70978000I0J-150000D01*
G01*
X56877000Y-71278000D01*
G75*
G02*
X56727000Y-71428000I-150000J0D01*
G01*
X55477000Y-71428000D01*
G75*
G02*
X55327000Y-71278000I0J150000D01*
G01*
X55327000Y-70978000D01*
G75*
G02*
X55477000Y-70828000I150000J0D01*
G01*
G37*
G04 #@! TD.AperFunction*
G04 #@! TA.AperFunction,SMDPad,CuDef*
G36*
G01*
X55477000Y-71828000D02*
X56727000Y-71828000D01*
G75*
G02*
X56877000Y-71978000I0J-150000D01*
G01*
X56877000Y-72278000D01*
G75*
G02*
X56727000Y-72428000I-150000J0D01*
G01*
X55477000Y-72428000D01*
G75*
G02*
X55327000Y-72278000I0J150000D01*
G01*
X55327000Y-71978000D01*
G75*
G02*
X55477000Y-71828000I150000J0D01*
G01*
G37*
G04 #@! TD.AperFunction*
G04 #@! TA.AperFunction,SMDPad,CuDef*
G36*
G01*
X55477000Y-72828000D02*
X56727000Y-72828000D01*
G75*
G02*
X56877000Y-72978000I0J-150000D01*
G01*
X56877000Y-73278000D01*
G75*
G02*
X56727000Y-73428000I-150000J0D01*
G01*
X55477000Y-73428000D01*
G75*
G02*
X55327000Y-73278000I0J150000D01*
G01*
X55327000Y-72978000D01*
G75*
G02*
X55477000Y-72828000I150000J0D01*
G01*
G37*
G04 #@! TD.AperFunction*
G04 #@! TA.AperFunction,SMDPad,CuDef*
G36*
G01*
X51577000Y-73828000D02*
X52877000Y-73828000D01*
G75*
G02*
X53127000Y-74078000I0J-250000D01*
G01*
X53127000Y-74778000D01*
G75*
G02*
X52877000Y-75028000I-250000J0D01*
G01*
X51577000Y-75028000D01*
G75*
G02*
X51327000Y-74778000I0J250000D01*
G01*
X51327000Y-74078000D01*
G75*
G02*
X51577000Y-73828000I250000J0D01*
G01*
G37*
G04 #@! TD.AperFunction*
G04 #@! TA.AperFunction,SMDPad,CuDef*
G36*
G01*
X51577000Y-68228000D02*
X52877000Y-68228000D01*
G75*
G02*
X53127000Y-68478000I0J-250000D01*
G01*
X53127000Y-69178000D01*
G75*
G02*
X52877000Y-69428000I-250000J0D01*
G01*
X51577000Y-69428000D01*
G75*
G02*
X51327000Y-69178000I0J250000D01*
G01*
X51327000Y-68478000D01*
G75*
G02*
X51577000Y-68228000I250000J0D01*
G01*
G37*
G04 #@! TD.AperFunction*
G04 #@! TA.AperFunction,SMDPad,CuDef*
G36*
G01*
X92296000Y-60886000D02*
X91346000Y-60886000D01*
G75*
G02*
X91096000Y-60636000I0J250000D01*
G01*
X91096000Y-60136000D01*
G75*
G02*
X91346000Y-59886000I250000J0D01*
G01*
X92296000Y-59886000D01*
G75*
G02*
X92546000Y-60136000I0J-250000D01*
G01*
X92546000Y-60636000D01*
G75*
G02*
X92296000Y-60886000I-250000J0D01*
G01*
G37*
G04 #@! TD.AperFunction*
G04 #@! TA.AperFunction,SMDPad,CuDef*
G36*
G01*
X92296000Y-58986000D02*
X91346000Y-58986000D01*
G75*
G02*
X91096000Y-58736000I0J250000D01*
G01*
X91096000Y-58236000D01*
G75*
G02*
X91346000Y-57986000I250000J0D01*
G01*
X92296000Y-57986000D01*
G75*
G02*
X92546000Y-58236000I0J-250000D01*
G01*
X92546000Y-58736000D01*
G75*
G02*
X92296000Y-58986000I-250000J0D01*
G01*
G37*
G04 #@! TD.AperFunction*
D16*
X142920999Y-84414995D03*
D17*
X142920999Y-79414995D03*
G04 #@! TA.AperFunction,SMDPad,CuDef*
G36*
G01*
X66241000Y-63467000D02*
X66241000Y-62517000D01*
G75*
G02*
X66491000Y-62267000I250000J0D01*
G01*
X66991000Y-62267000D01*
G75*
G02*
X67241000Y-62517000I0J-250000D01*
G01*
X67241000Y-63467000D01*
G75*
G02*
X66991000Y-63717000I-250000J0D01*
G01*
X66491000Y-63717000D01*
G75*
G02*
X66241000Y-63467000I0J250000D01*
G01*
G37*
G04 #@! TD.AperFunction*
G04 #@! TA.AperFunction,SMDPad,CuDef*
G36*
G01*
X68141000Y-63467000D02*
X68141000Y-62517000D01*
G75*
G02*
X68391000Y-62267000I250000J0D01*
G01*
X68891000Y-62267000D01*
G75*
G02*
X69141000Y-62517000I0J-250000D01*
G01*
X69141000Y-63467000D01*
G75*
G02*
X68891000Y-63717000I-250000J0D01*
G01*
X68391000Y-63717000D01*
G75*
G02*
X68141000Y-63467000I0J250000D01*
G01*
G37*
G04 #@! TD.AperFunction*
D18*
X82818000Y-62382000D03*
X80518000Y-62382000D03*
D19*
X80518000Y-68682000D03*
D18*
X78218000Y-62382000D03*
G04 #@! TA.AperFunction,SMDPad,CuDef*
G36*
G01*
X139601000Y-95816000D02*
X139601000Y-96716000D01*
G75*
G02*
X139351000Y-96966000I-250000J0D01*
G01*
X138826000Y-96966000D01*
G75*
G02*
X138576000Y-96716000I0J250000D01*
G01*
X138576000Y-95816000D01*
G75*
G02*
X138826000Y-95566000I250000J0D01*
G01*
X139351000Y-95566000D01*
G75*
G02*
X139601000Y-95816000I0J-250000D01*
G01*
G37*
G04 #@! TD.AperFunction*
G04 #@! TA.AperFunction,SMDPad,CuDef*
G36*
G01*
X137776000Y-95816000D02*
X137776000Y-96716000D01*
G75*
G02*
X137526000Y-96966000I-250000J0D01*
G01*
X137001000Y-96966000D01*
G75*
G02*
X136751000Y-96716000I0J250000D01*
G01*
X136751000Y-95816000D01*
G75*
G02*
X137001000Y-95566000I250000J0D01*
G01*
X137526000Y-95566000D01*
G75*
G02*
X137776000Y-95816000I0J-250000D01*
G01*
G37*
G04 #@! TD.AperFunction*
D20*
X59546000Y-81077000D03*
X59546000Y-81877000D03*
X59546000Y-82677000D03*
X59546000Y-83477000D03*
X59546000Y-84277000D03*
D21*
X59446000Y-87127000D03*
X59446000Y-78227000D03*
X53946000Y-87127000D03*
X53946000Y-78227000D03*
D22*
X145542000Y-55118000D03*
D23*
X72136000Y-97767000D03*
D24*
X72136000Y-103767000D03*
D25*
X76836000Y-100767000D03*
G04 #@! TA.AperFunction,SMDPad,CuDef*
G36*
G01*
X73353000Y-84930000D02*
X73353000Y-83980000D01*
G75*
G02*
X73603000Y-83730000I250000J0D01*
G01*
X74103000Y-83730000D01*
G75*
G02*
X74353000Y-83980000I0J-250000D01*
G01*
X74353000Y-84930000D01*
G75*
G02*
X74103000Y-85180000I-250000J0D01*
G01*
X73603000Y-85180000D01*
G75*
G02*
X73353000Y-84930000I0J250000D01*
G01*
G37*
G04 #@! TD.AperFunction*
G04 #@! TA.AperFunction,SMDPad,CuDef*
G36*
G01*
X75253000Y-84930000D02*
X75253000Y-83980000D01*
G75*
G02*
X75503000Y-83730000I250000J0D01*
G01*
X76003000Y-83730000D01*
G75*
G02*
X76253000Y-83980000I0J-250000D01*
G01*
X76253000Y-84930000D01*
G75*
G02*
X76003000Y-85180000I-250000J0D01*
G01*
X75503000Y-85180000D01*
G75*
G02*
X75253000Y-84930000I0J250000D01*
G01*
G37*
G04 #@! TD.AperFunction*
G04 #@! TA.AperFunction,SMDPad,CuDef*
G36*
G01*
X139626000Y-92108000D02*
X139626000Y-93058000D01*
G75*
G02*
X139376000Y-93308000I-250000J0D01*
G01*
X138876000Y-93308000D01*
G75*
G02*
X138626000Y-93058000I0J250000D01*
G01*
X138626000Y-92108000D01*
G75*
G02*
X138876000Y-91858000I250000J0D01*
G01*
X139376000Y-91858000D01*
G75*
G02*
X139626000Y-92108000I0J-250000D01*
G01*
G37*
G04 #@! TD.AperFunction*
G04 #@! TA.AperFunction,SMDPad,CuDef*
G36*
G01*
X137726000Y-92108000D02*
X137726000Y-93058000D01*
G75*
G02*
X137476000Y-93308000I-250000J0D01*
G01*
X136976000Y-93308000D01*
G75*
G02*
X136726000Y-93058000I0J250000D01*
G01*
X136726000Y-92108000D01*
G75*
G02*
X136976000Y-91858000I250000J0D01*
G01*
X137476000Y-91858000D01*
G75*
G02*
X137726000Y-92108000I0J-250000D01*
G01*
G37*
G04 #@! TD.AperFunction*
G04 #@! TA.AperFunction,SMDPad,CuDef*
G36*
G01*
X129441000Y-95816000D02*
X129441000Y-96716000D01*
G75*
G02*
X129191000Y-96966000I-250000J0D01*
G01*
X128666000Y-96966000D01*
G75*
G02*
X128416000Y-96716000I0J250000D01*
G01*
X128416000Y-95816000D01*
G75*
G02*
X128666000Y-95566000I250000J0D01*
G01*
X129191000Y-95566000D01*
G75*
G02*
X129441000Y-95816000I0J-250000D01*
G01*
G37*
G04 #@! TD.AperFunction*
G04 #@! TA.AperFunction,SMDPad,CuDef*
G36*
G01*
X127616000Y-95816000D02*
X127616000Y-96716000D01*
G75*
G02*
X127366000Y-96966000I-250000J0D01*
G01*
X126841000Y-96966000D01*
G75*
G02*
X126591000Y-96716000I0J250000D01*
G01*
X126591000Y-95816000D01*
G75*
G02*
X126841000Y-95566000I250000J0D01*
G01*
X127366000Y-95566000D01*
G75*
G02*
X127616000Y-95816000I0J-250000D01*
G01*
G37*
G04 #@! TD.AperFunction*
D26*
X132737000Y-64264000D03*
X132737000Y-65364000D03*
X132737000Y-66464000D03*
X132737000Y-67564000D03*
X132737000Y-68664000D03*
X132737000Y-69764000D03*
X132737000Y-70864000D03*
X132737000Y-71964000D03*
X132737000Y-72914000D03*
D27*
X143237000Y-73864000D03*
D28*
X137037000Y-73864000D03*
D29*
X147387000Y-73864000D03*
D30*
X147837000Y-60364000D03*
D28*
X132737000Y-62714000D03*
G04 #@! TA.AperFunction,SMDPad,CuDef*
G36*
G01*
X86810000Y-70259000D02*
X85910000Y-70259000D01*
G75*
G02*
X85660000Y-70009000I0J250000D01*
G01*
X85660000Y-69484000D01*
G75*
G02*
X85910000Y-69234000I250000J0D01*
G01*
X86810000Y-69234000D01*
G75*
G02*
X87060000Y-69484000I0J-250000D01*
G01*
X87060000Y-70009000D01*
G75*
G02*
X86810000Y-70259000I-250000J0D01*
G01*
G37*
G04 #@! TD.AperFunction*
G04 #@! TA.AperFunction,SMDPad,CuDef*
G36*
G01*
X86810000Y-68434000D02*
X85910000Y-68434000D01*
G75*
G02*
X85660000Y-68184000I0J250000D01*
G01*
X85660000Y-67659000D01*
G75*
G02*
X85910000Y-67409000I250000J0D01*
G01*
X86810000Y-67409000D01*
G75*
G02*
X87060000Y-67659000I0J-250000D01*
G01*
X87060000Y-68184000D01*
G75*
G02*
X86810000Y-68434000I-250000J0D01*
G01*
G37*
G04 #@! TD.AperFunction*
G04 #@! TA.AperFunction,SMDPad,CuDef*
G36*
G01*
X80714000Y-56289000D02*
X79814000Y-56289000D01*
G75*
G02*
X79564000Y-56039000I0J250000D01*
G01*
X79564000Y-55514000D01*
G75*
G02*
X79814000Y-55264000I250000J0D01*
G01*
X80714000Y-55264000D01*
G75*
G02*
X80964000Y-55514000I0J-250000D01*
G01*
X80964000Y-56039000D01*
G75*
G02*
X80714000Y-56289000I-250000J0D01*
G01*
G37*
G04 #@! TD.AperFunction*
G04 #@! TA.AperFunction,SMDPad,CuDef*
G36*
G01*
X80714000Y-54464000D02*
X79814000Y-54464000D01*
G75*
G02*
X79564000Y-54214000I0J250000D01*
G01*
X79564000Y-53689000D01*
G75*
G02*
X79814000Y-53439000I250000J0D01*
G01*
X80714000Y-53439000D01*
G75*
G02*
X80964000Y-53689000I0J-250000D01*
G01*
X80964000Y-54214000D01*
G75*
G02*
X80714000Y-54464000I-250000J0D01*
G01*
G37*
G04 #@! TD.AperFunction*
G04 #@! TA.AperFunction,SMDPad,CuDef*
G36*
G01*
X103483000Y-107083000D02*
X103483000Y-105833000D01*
G75*
G02*
X103633000Y-105683000I150000J0D01*
G01*
X103933000Y-105683000D01*
G75*
G02*
X104083000Y-105833000I0J-150000D01*
G01*
X104083000Y-107083000D01*
G75*
G02*
X103933000Y-107233000I-150000J0D01*
G01*
X103633000Y-107233000D01*
G75*
G02*
X103483000Y-107083000I0J150000D01*
G01*
G37*
G04 #@! TD.AperFunction*
G04 #@! TA.AperFunction,SMDPad,CuDef*
G36*
G01*
X104483000Y-107083000D02*
X104483000Y-105833000D01*
G75*
G02*
X104633000Y-105683000I150000J0D01*
G01*
X104933000Y-105683000D01*
G75*
G02*
X105083000Y-105833000I0J-150000D01*
G01*
X105083000Y-107083000D01*
G75*
G02*
X104933000Y-107233000I-150000J0D01*
G01*
X104633000Y-107233000D01*
G75*
G02*
X104483000Y-107083000I0J150000D01*
G01*
G37*
G04 #@! TD.AperFunction*
G04 #@! TA.AperFunction,SMDPad,CuDef*
G36*
G01*
X105483000Y-107083000D02*
X105483000Y-105833000D01*
G75*
G02*
X105633000Y-105683000I150000J0D01*
G01*
X105933000Y-105683000D01*
G75*
G02*
X106083000Y-105833000I0J-150000D01*
G01*
X106083000Y-107083000D01*
G75*
G02*
X105933000Y-107233000I-150000J0D01*
G01*
X105633000Y-107233000D01*
G75*
G02*
X105483000Y-107083000I0J150000D01*
G01*
G37*
G04 #@! TD.AperFunction*
G04 #@! TA.AperFunction,SMDPad,CuDef*
G36*
G01*
X106483000Y-107083000D02*
X106483000Y-105833000D01*
G75*
G02*
X106633000Y-105683000I150000J0D01*
G01*
X106933000Y-105683000D01*
G75*
G02*
X107083000Y-105833000I0J-150000D01*
G01*
X107083000Y-107083000D01*
G75*
G02*
X106933000Y-107233000I-150000J0D01*
G01*
X106633000Y-107233000D01*
G75*
G02*
X106483000Y-107083000I0J150000D01*
G01*
G37*
G04 #@! TD.AperFunction*
G04 #@! TA.AperFunction,SMDPad,CuDef*
G36*
G01*
X101883000Y-110983000D02*
X101883000Y-109683000D01*
G75*
G02*
X102133000Y-109433000I250000J0D01*
G01*
X102833000Y-109433000D01*
G75*
G02*
X103083000Y-109683000I0J-250000D01*
G01*
X103083000Y-110983000D01*
G75*
G02*
X102833000Y-111233000I-250000J0D01*
G01*
X102133000Y-111233000D01*
G75*
G02*
X101883000Y-110983000I0J250000D01*
G01*
G37*
G04 #@! TD.AperFunction*
G04 #@! TA.AperFunction,SMDPad,CuDef*
G36*
G01*
X107483000Y-110983000D02*
X107483000Y-109683000D01*
G75*
G02*
X107733000Y-109433000I250000J0D01*
G01*
X108433000Y-109433000D01*
G75*
G02*
X108683000Y-109683000I0J-250000D01*
G01*
X108683000Y-110983000D01*
G75*
G02*
X108433000Y-111233000I-250000J0D01*
G01*
X107733000Y-111233000D01*
G75*
G02*
X107483000Y-110983000I0J250000D01*
G01*
G37*
G04 #@! TD.AperFunction*
D22*
X145542000Y-107442000D03*
D16*
X61422001Y-93258005D03*
D17*
X61422001Y-98258005D03*
G04 #@! TA.AperFunction,SMDPad,CuDef*
G36*
G01*
X123803000Y-107083000D02*
X123803000Y-105833000D01*
G75*
G02*
X123953000Y-105683000I150000J0D01*
G01*
X124253000Y-105683000D01*
G75*
G02*
X124403000Y-105833000I0J-150000D01*
G01*
X124403000Y-107083000D01*
G75*
G02*
X124253000Y-107233000I-150000J0D01*
G01*
X123953000Y-107233000D01*
G75*
G02*
X123803000Y-107083000I0J150000D01*
G01*
G37*
G04 #@! TD.AperFunction*
G04 #@! TA.AperFunction,SMDPad,CuDef*
G36*
G01*
X124803000Y-107083000D02*
X124803000Y-105833000D01*
G75*
G02*
X124953000Y-105683000I150000J0D01*
G01*
X125253000Y-105683000D01*
G75*
G02*
X125403000Y-105833000I0J-150000D01*
G01*
X125403000Y-107083000D01*
G75*
G02*
X125253000Y-107233000I-150000J0D01*
G01*
X124953000Y-107233000D01*
G75*
G02*
X124803000Y-107083000I0J150000D01*
G01*
G37*
G04 #@! TD.AperFunction*
G04 #@! TA.AperFunction,SMDPad,CuDef*
G36*
G01*
X125803000Y-107083000D02*
X125803000Y-105833000D01*
G75*
G02*
X125953000Y-105683000I150000J0D01*
G01*
X126253000Y-105683000D01*
G75*
G02*
X126403000Y-105833000I0J-150000D01*
G01*
X126403000Y-107083000D01*
G75*
G02*
X126253000Y-107233000I-150000J0D01*
G01*
X125953000Y-107233000D01*
G75*
G02*
X125803000Y-107083000I0J150000D01*
G01*
G37*
G04 #@! TD.AperFunction*
G04 #@! TA.AperFunction,SMDPad,CuDef*
G36*
G01*
X126803000Y-107083000D02*
X126803000Y-105833000D01*
G75*
G02*
X126953000Y-105683000I150000J0D01*
G01*
X127253000Y-105683000D01*
G75*
G02*
X127403000Y-105833000I0J-150000D01*
G01*
X127403000Y-107083000D01*
G75*
G02*
X127253000Y-107233000I-150000J0D01*
G01*
X126953000Y-107233000D01*
G75*
G02*
X126803000Y-107083000I0J150000D01*
G01*
G37*
G04 #@! TD.AperFunction*
G04 #@! TA.AperFunction,SMDPad,CuDef*
G36*
G01*
X127803000Y-110983000D02*
X127803000Y-109683000D01*
G75*
G02*
X128053000Y-109433000I250000J0D01*
G01*
X128753000Y-109433000D01*
G75*
G02*
X129003000Y-109683000I0J-250000D01*
G01*
X129003000Y-110983000D01*
G75*
G02*
X128753000Y-111233000I-250000J0D01*
G01*
X128053000Y-111233000D01*
G75*
G02*
X127803000Y-110983000I0J250000D01*
G01*
G37*
G04 #@! TD.AperFunction*
G04 #@! TA.AperFunction,SMDPad,CuDef*
G36*
G01*
X122203000Y-110983000D02*
X122203000Y-109683000D01*
G75*
G02*
X122453000Y-109433000I250000J0D01*
G01*
X123153000Y-109433000D01*
G75*
G02*
X123403000Y-109683000I0J-250000D01*
G01*
X123403000Y-110983000D01*
G75*
G02*
X123153000Y-111233000I-250000J0D01*
G01*
X122453000Y-111233000D01*
G75*
G02*
X122203000Y-110983000I0J250000D01*
G01*
G37*
G04 #@! TD.AperFunction*
G04 #@! TA.AperFunction,SMDPad,CuDef*
G36*
G01*
X109121000Y-95816000D02*
X109121000Y-96716000D01*
G75*
G02*
X108871000Y-96966000I-250000J0D01*
G01*
X108346000Y-96966000D01*
G75*
G02*
X108096000Y-96716000I0J250000D01*
G01*
X108096000Y-95816000D01*
G75*
G02*
X108346000Y-95566000I250000J0D01*
G01*
X108871000Y-95566000D01*
G75*
G02*
X109121000Y-95816000I0J-250000D01*
G01*
G37*
G04 #@! TD.AperFunction*
G04 #@! TA.AperFunction,SMDPad,CuDef*
G36*
G01*
X107296000Y-95816000D02*
X107296000Y-96716000D01*
G75*
G02*
X107046000Y-96966000I-250000J0D01*
G01*
X106521000Y-96966000D01*
G75*
G02*
X106271000Y-96716000I0J250000D01*
G01*
X106271000Y-95816000D01*
G75*
G02*
X106521000Y-95566000I250000J0D01*
G01*
X107046000Y-95566000D01*
G75*
G02*
X107296000Y-95816000I0J-250000D01*
G01*
G37*
G04 #@! TD.AperFunction*
D22*
X55118000Y-107442000D03*
X55118000Y-55118000D03*
G04 #@! TA.AperFunction,SMDPad,CuDef*
G36*
G01*
X119281000Y-95816000D02*
X119281000Y-96716000D01*
G75*
G02*
X119031000Y-96966000I-250000J0D01*
G01*
X118506000Y-96966000D01*
G75*
G02*
X118256000Y-96716000I0J250000D01*
G01*
X118256000Y-95816000D01*
G75*
G02*
X118506000Y-95566000I250000J0D01*
G01*
X119031000Y-95566000D01*
G75*
G02*
X119281000Y-95816000I0J-250000D01*
G01*
G37*
G04 #@! TD.AperFunction*
G04 #@! TA.AperFunction,SMDPad,CuDef*
G36*
G01*
X117456000Y-95816000D02*
X117456000Y-96716000D01*
G75*
G02*
X117206000Y-96966000I-250000J0D01*
G01*
X116681000Y-96966000D01*
G75*
G02*
X116431000Y-96716000I0J250000D01*
G01*
X116431000Y-95816000D01*
G75*
G02*
X116681000Y-95566000I250000J0D01*
G01*
X117206000Y-95566000D01*
G75*
G02*
X117456000Y-95816000I0J-250000D01*
G01*
G37*
G04 #@! TD.AperFunction*
G04 #@! TA.AperFunction,SMDPad,CuDef*
G36*
G01*
X71015000Y-55477000D02*
X71015000Y-56727000D01*
G75*
G02*
X70865000Y-56877000I-150000J0D01*
G01*
X70565000Y-56877000D01*
G75*
G02*
X70415000Y-56727000I0J150000D01*
G01*
X70415000Y-55477000D01*
G75*
G02*
X70565000Y-55327000I150000J0D01*
G01*
X70865000Y-55327000D01*
G75*
G02*
X71015000Y-55477000I0J-150000D01*
G01*
G37*
G04 #@! TD.AperFunction*
G04 #@! TA.AperFunction,SMDPad,CuDef*
G36*
G01*
X70015000Y-55477000D02*
X70015000Y-56727000D01*
G75*
G02*
X69865000Y-56877000I-150000J0D01*
G01*
X69565000Y-56877000D01*
G75*
G02*
X69415000Y-56727000I0J150000D01*
G01*
X69415000Y-55477000D01*
G75*
G02*
X69565000Y-55327000I150000J0D01*
G01*
X69865000Y-55327000D01*
G75*
G02*
X70015000Y-55477000I0J-150000D01*
G01*
G37*
G04 #@! TD.AperFunction*
G04 #@! TA.AperFunction,SMDPad,CuDef*
G36*
G01*
X69015000Y-55477000D02*
X69015000Y-56727000D01*
G75*
G02*
X68865000Y-56877000I-150000J0D01*
G01*
X68565000Y-56877000D01*
G75*
G02*
X68415000Y-56727000I0J150000D01*
G01*
X68415000Y-55477000D01*
G75*
G02*
X68565000Y-55327000I150000J0D01*
G01*
X68865000Y-55327000D01*
G75*
G02*
X69015000Y-55477000I0J-150000D01*
G01*
G37*
G04 #@! TD.AperFunction*
G04 #@! TA.AperFunction,SMDPad,CuDef*
G36*
G01*
X68015000Y-55477000D02*
X68015000Y-56727000D01*
G75*
G02*
X67865000Y-56877000I-150000J0D01*
G01*
X67565000Y-56877000D01*
G75*
G02*
X67415000Y-56727000I0J150000D01*
G01*
X67415000Y-55477000D01*
G75*
G02*
X67565000Y-55327000I150000J0D01*
G01*
X67865000Y-55327000D01*
G75*
G02*
X68015000Y-55477000I0J-150000D01*
G01*
G37*
G04 #@! TD.AperFunction*
G04 #@! TA.AperFunction,SMDPad,CuDef*
G36*
G01*
X67015000Y-51577000D02*
X67015000Y-52877000D01*
G75*
G02*
X66765000Y-53127000I-250000J0D01*
G01*
X66065000Y-53127000D01*
G75*
G02*
X65815000Y-52877000I0J250000D01*
G01*
X65815000Y-51577000D01*
G75*
G02*
X66065000Y-51327000I250000J0D01*
G01*
X66765000Y-51327000D01*
G75*
G02*
X67015000Y-51577000I0J-250000D01*
G01*
G37*
G04 #@! TD.AperFunction*
G04 #@! TA.AperFunction,SMDPad,CuDef*
G36*
G01*
X72615000Y-51577000D02*
X72615000Y-52877000D01*
G75*
G02*
X72365000Y-53127000I-250000J0D01*
G01*
X71665000Y-53127000D01*
G75*
G02*
X71415000Y-52877000I0J250000D01*
G01*
X71415000Y-51577000D01*
G75*
G02*
X71665000Y-51327000I250000J0D01*
G01*
X72365000Y-51327000D01*
G75*
G02*
X72615000Y-51577000I0J-250000D01*
G01*
G37*
G04 #@! TD.AperFunction*
G04 #@! TA.AperFunction,SMDPad,CuDef*
G36*
G01*
X70584000Y-66617000D02*
X70584000Y-65717000D01*
G75*
G02*
X70834000Y-65467000I250000J0D01*
G01*
X71359000Y-65467000D01*
G75*
G02*
X71609000Y-65717000I0J-250000D01*
G01*
X71609000Y-66617000D01*
G75*
G02*
X71359000Y-66867000I-250000J0D01*
G01*
X70834000Y-66867000D01*
G75*
G02*
X70584000Y-66617000I0J250000D01*
G01*
G37*
G04 #@! TD.AperFunction*
G04 #@! TA.AperFunction,SMDPad,CuDef*
G36*
G01*
X72409000Y-66617000D02*
X72409000Y-65717000D01*
G75*
G02*
X72659000Y-65467000I250000J0D01*
G01*
X73184000Y-65467000D01*
G75*
G02*
X73434000Y-65717000I0J-250000D01*
G01*
X73434000Y-66617000D01*
G75*
G02*
X73184000Y-66867000I-250000J0D01*
G01*
X72659000Y-66867000D01*
G75*
G02*
X72409000Y-66617000I0J250000D01*
G01*
G37*
G04 #@! TD.AperFunction*
G04 #@! TA.AperFunction,SMDPad,CuDef*
G36*
G01*
X134771000Y-91158000D02*
X134771000Y-91458000D01*
G75*
G02*
X134621000Y-91608000I-150000J0D01*
G01*
X133446000Y-91608000D01*
G75*
G02*
X133296000Y-91458000I0J150000D01*
G01*
X133296000Y-91158000D01*
G75*
G02*
X133446000Y-91008000I150000J0D01*
G01*
X134621000Y-91008000D01*
G75*
G02*
X134771000Y-91158000I0J-150000D01*
G01*
G37*
G04 #@! TD.AperFunction*
G04 #@! TA.AperFunction,SMDPad,CuDef*
G36*
G01*
X134771000Y-89258000D02*
X134771000Y-89558000D01*
G75*
G02*
X134621000Y-89708000I-150000J0D01*
G01*
X133446000Y-89708000D01*
G75*
G02*
X133296000Y-89558000I0J150000D01*
G01*
X133296000Y-89258000D01*
G75*
G02*
X133446000Y-89108000I150000J0D01*
G01*
X134621000Y-89108000D01*
G75*
G02*
X134771000Y-89258000I0J-150000D01*
G01*
G37*
G04 #@! TD.AperFunction*
G04 #@! TA.AperFunction,SMDPad,CuDef*
G36*
G01*
X132896000Y-90208000D02*
X132896000Y-90508000D01*
G75*
G02*
X132746000Y-90658000I-150000J0D01*
G01*
X131571000Y-90658000D01*
G75*
G02*
X131421000Y-90508000I0J150000D01*
G01*
X131421000Y-90208000D01*
G75*
G02*
X131571000Y-90058000I150000J0D01*
G01*
X132746000Y-90058000D01*
G75*
G02*
X132896000Y-90208000I0J-150000D01*
G01*
G37*
G04 #@! TD.AperFunction*
G04 #@! TA.AperFunction,SMDPad,CuDef*
G36*
G01*
X124331000Y-78415000D02*
X123227000Y-78415000D01*
G75*
G02*
X123089000Y-78277000I0J138000D01*
G01*
X123089000Y-76453000D01*
G75*
G02*
X123227000Y-76315000I138000J0D01*
G01*
X124331000Y-76315000D01*
G75*
G02*
X124469000Y-76453000I0J-138000D01*
G01*
X124469000Y-78277000D01*
G75*
G02*
X124331000Y-78415000I-138000J0D01*
G01*
G37*
G04 #@! TD.AperFunction*
G04 #@! TA.AperFunction,SMDPad,CuDef*
G36*
G01*
X124331000Y-87515000D02*
X123227000Y-87515000D01*
G75*
G02*
X123089000Y-87377000I0J138000D01*
G01*
X123089000Y-85553000D01*
G75*
G02*
X123227000Y-85415000I138000J0D01*
G01*
X124331000Y-85415000D01*
G75*
G02*
X124469000Y-85553000I0J-138000D01*
G01*
X124469000Y-87377000D01*
G75*
G02*
X124331000Y-87515000I-138000J0D01*
G01*
G37*
G04 #@! TD.AperFunction*
G04 #@! TA.AperFunction,SMDPad,CuDef*
G36*
G01*
X119851000Y-78415000D02*
X118747000Y-78415000D01*
G75*
G02*
X118609000Y-78277000I0J138000D01*
G01*
X118609000Y-76453000D01*
G75*
G02*
X118747000Y-76315000I138000J0D01*
G01*
X119851000Y-76315000D01*
G75*
G02*
X119989000Y-76453000I0J-138000D01*
G01*
X119989000Y-78277000D01*
G75*
G02*
X119851000Y-78415000I-138000J0D01*
G01*
G37*
G04 #@! TD.AperFunction*
G04 #@! TA.AperFunction,SMDPad,CuDef*
G36*
G01*
X119851000Y-87515000D02*
X118747000Y-87515000D01*
G75*
G02*
X118609000Y-87377000I0J138000D01*
G01*
X118609000Y-85553000D01*
G75*
G02*
X118747000Y-85415000I138000J0D01*
G01*
X119851000Y-85415000D01*
G75*
G02*
X119989000Y-85553000I0J-138000D01*
G01*
X119989000Y-87377000D01*
G75*
G02*
X119851000Y-87515000I-138000J0D01*
G01*
G37*
G04 #@! TD.AperFunction*
G04 #@! TA.AperFunction,SMDPad,CuDef*
G36*
G01*
X63297750Y-103604000D02*
X64210250Y-103604000D01*
G75*
G02*
X64454000Y-103847750I0J-243750D01*
G01*
X64454000Y-104335250D01*
G75*
G02*
X64210250Y-104579000I-243750J0D01*
G01*
X63297750Y-104579000D01*
G75*
G02*
X63054000Y-104335250I0J243750D01*
G01*
X63054000Y-103847750D01*
G75*
G02*
X63297750Y-103604000I243750J0D01*
G01*
G37*
G04 #@! TD.AperFunction*
G04 #@! TA.AperFunction,SMDPad,CuDef*
G36*
G01*
X63297750Y-105479000D02*
X64210250Y-105479000D01*
G75*
G02*
X64454000Y-105722750I0J-243750D01*
G01*
X64454000Y-106210250D01*
G75*
G02*
X64210250Y-106454000I-243750J0D01*
G01*
X63297750Y-106454000D01*
G75*
G02*
X63054000Y-106210250I0J243750D01*
G01*
X63054000Y-105722750D01*
G75*
G02*
X63297750Y-105479000I243750J0D01*
G01*
G37*
G04 #@! TD.AperFunction*
G04 #@! TA.AperFunction,SMDPad,CuDef*
G36*
G01*
X66241000Y-66642000D02*
X66241000Y-65692000D01*
G75*
G02*
X66491000Y-65442000I250000J0D01*
G01*
X66991000Y-65442000D01*
G75*
G02*
X67241000Y-65692000I0J-250000D01*
G01*
X67241000Y-66642000D01*
G75*
G02*
X66991000Y-66892000I-250000J0D01*
G01*
X66491000Y-66892000D01*
G75*
G02*
X66241000Y-66642000I0J250000D01*
G01*
G37*
G04 #@! TD.AperFunction*
G04 #@! TA.AperFunction,SMDPad,CuDef*
G36*
G01*
X68141000Y-66642000D02*
X68141000Y-65692000D01*
G75*
G02*
X68391000Y-65442000I250000J0D01*
G01*
X68891000Y-65442000D01*
G75*
G02*
X69141000Y-65692000I0J-250000D01*
G01*
X69141000Y-66642000D01*
G75*
G02*
X68891000Y-66892000I-250000J0D01*
G01*
X68391000Y-66892000D01*
G75*
G02*
X68141000Y-66642000I0J250000D01*
G01*
G37*
G04 #@! TD.AperFunction*
G04 #@! TA.AperFunction,SMDPad,CuDef*
G36*
G01*
X88801000Y-95816000D02*
X88801000Y-96716000D01*
G75*
G02*
X88551000Y-96966000I-250000J0D01*
G01*
X88026000Y-96966000D01*
G75*
G02*
X87776000Y-96716000I0J250000D01*
G01*
X87776000Y-95816000D01*
G75*
G02*
X88026000Y-95566000I250000J0D01*
G01*
X88551000Y-95566000D01*
G75*
G02*
X88801000Y-95816000I0J-250000D01*
G01*
G37*
G04 #@! TD.AperFunction*
G04 #@! TA.AperFunction,SMDPad,CuDef*
G36*
G01*
X86976000Y-95816000D02*
X86976000Y-96716000D01*
G75*
G02*
X86726000Y-96966000I-250000J0D01*
G01*
X86201000Y-96966000D01*
G75*
G02*
X85951000Y-96716000I0J250000D01*
G01*
X85951000Y-95816000D01*
G75*
G02*
X86201000Y-95566000I250000J0D01*
G01*
X86726000Y-95566000D01*
G75*
G02*
X86976000Y-95816000I0J-250000D01*
G01*
G37*
G04 #@! TD.AperFunction*
G04 #@! TA.AperFunction,SMDPad,CuDef*
G36*
G01*
X61694000Y-110051000D02*
X61694000Y-109151000D01*
G75*
G02*
X61944000Y-108901000I250000J0D01*
G01*
X62469000Y-108901000D01*
G75*
G02*
X62719000Y-109151000I0J-250000D01*
G01*
X62719000Y-110051000D01*
G75*
G02*
X62469000Y-110301000I-250000J0D01*
G01*
X61944000Y-110301000D01*
G75*
G02*
X61694000Y-110051000I0J250000D01*
G01*
G37*
G04 #@! TD.AperFunction*
G04 #@! TA.AperFunction,SMDPad,CuDef*
G36*
G01*
X63519000Y-110051000D02*
X63519000Y-109151000D01*
G75*
G02*
X63769000Y-108901000I250000J0D01*
G01*
X64294000Y-108901000D01*
G75*
G02*
X64544000Y-109151000I0J-250000D01*
G01*
X64544000Y-110051000D01*
G75*
G02*
X64294000Y-110301000I-250000J0D01*
G01*
X63769000Y-110301000D01*
G75*
G02*
X63519000Y-110051000I0J250000D01*
G01*
G37*
G04 #@! TD.AperFunction*
G04 #@! TA.AperFunction,SMDPad,CuDef*
G36*
G01*
X89332750Y-67409000D02*
X90245250Y-67409000D01*
G75*
G02*
X90489000Y-67652750I0J-243750D01*
G01*
X90489000Y-68140250D01*
G75*
G02*
X90245250Y-68384000I-243750J0D01*
G01*
X89332750Y-68384000D01*
G75*
G02*
X89089000Y-68140250I0J243750D01*
G01*
X89089000Y-67652750D01*
G75*
G02*
X89332750Y-67409000I243750J0D01*
G01*
G37*
G04 #@! TD.AperFunction*
G04 #@! TA.AperFunction,SMDPad,CuDef*
G36*
G01*
X89332750Y-69284000D02*
X90245250Y-69284000D01*
G75*
G02*
X90489000Y-69527750I0J-243750D01*
G01*
X90489000Y-70015250D01*
G75*
G02*
X90245250Y-70259000I-243750J0D01*
G01*
X89332750Y-70259000D01*
G75*
G02*
X89089000Y-70015250I0J243750D01*
G01*
X89089000Y-69527750D01*
G75*
G02*
X89332750Y-69284000I243750J0D01*
G01*
G37*
G04 #@! TD.AperFunction*
G04 #@! TA.AperFunction,SMDPad,CuDef*
G36*
G01*
X83163000Y-107083000D02*
X83163000Y-105833000D01*
G75*
G02*
X83313000Y-105683000I150000J0D01*
G01*
X83613000Y-105683000D01*
G75*
G02*
X83763000Y-105833000I0J-150000D01*
G01*
X83763000Y-107083000D01*
G75*
G02*
X83613000Y-107233000I-150000J0D01*
G01*
X83313000Y-107233000D01*
G75*
G02*
X83163000Y-107083000I0J150000D01*
G01*
G37*
G04 #@! TD.AperFunction*
G04 #@! TA.AperFunction,SMDPad,CuDef*
G36*
G01*
X84163000Y-107083000D02*
X84163000Y-105833000D01*
G75*
G02*
X84313000Y-105683000I150000J0D01*
G01*
X84613000Y-105683000D01*
G75*
G02*
X84763000Y-105833000I0J-150000D01*
G01*
X84763000Y-107083000D01*
G75*
G02*
X84613000Y-107233000I-150000J0D01*
G01*
X84313000Y-107233000D01*
G75*
G02*
X84163000Y-107083000I0J150000D01*
G01*
G37*
G04 #@! TD.AperFunction*
G04 #@! TA.AperFunction,SMDPad,CuDef*
G36*
G01*
X85163000Y-107083000D02*
X85163000Y-105833000D01*
G75*
G02*
X85313000Y-105683000I150000J0D01*
G01*
X85613000Y-105683000D01*
G75*
G02*
X85763000Y-105833000I0J-150000D01*
G01*
X85763000Y-107083000D01*
G75*
G02*
X85613000Y-107233000I-150000J0D01*
G01*
X85313000Y-107233000D01*
G75*
G02*
X85163000Y-107083000I0J150000D01*
G01*
G37*
G04 #@! TD.AperFunction*
G04 #@! TA.AperFunction,SMDPad,CuDef*
G36*
G01*
X86163000Y-107083000D02*
X86163000Y-105833000D01*
G75*
G02*
X86313000Y-105683000I150000J0D01*
G01*
X86613000Y-105683000D01*
G75*
G02*
X86763000Y-105833000I0J-150000D01*
G01*
X86763000Y-107083000D01*
G75*
G02*
X86613000Y-107233000I-150000J0D01*
G01*
X86313000Y-107233000D01*
G75*
G02*
X86163000Y-107083000I0J150000D01*
G01*
G37*
G04 #@! TD.AperFunction*
G04 #@! TA.AperFunction,SMDPad,CuDef*
G36*
G01*
X87163000Y-110983000D02*
X87163000Y-109683000D01*
G75*
G02*
X87413000Y-109433000I250000J0D01*
G01*
X88113000Y-109433000D01*
G75*
G02*
X88363000Y-109683000I0J-250000D01*
G01*
X88363000Y-110983000D01*
G75*
G02*
X88113000Y-111233000I-250000J0D01*
G01*
X87413000Y-111233000D01*
G75*
G02*
X87163000Y-110983000I0J250000D01*
G01*
G37*
G04 #@! TD.AperFunction*
G04 #@! TA.AperFunction,SMDPad,CuDef*
G36*
G01*
X81563000Y-110983000D02*
X81563000Y-109683000D01*
G75*
G02*
X81813000Y-109433000I250000J0D01*
G01*
X82513000Y-109433000D01*
G75*
G02*
X82763000Y-109683000I0J-250000D01*
G01*
X82763000Y-110983000D01*
G75*
G02*
X82513000Y-111233000I-250000J0D01*
G01*
X81813000Y-111233000D01*
G75*
G02*
X81563000Y-110983000I0J250000D01*
G01*
G37*
G04 #@! TD.AperFunction*
G04 #@! TA.AperFunction,SMDPad,CuDef*
G36*
G01*
X60777000Y-65911000D02*
X60777000Y-64807000D01*
G75*
G02*
X60915000Y-64669000I138000J0D01*
G01*
X62739000Y-64669000D01*
G75*
G02*
X62877000Y-64807000I0J-138000D01*
G01*
X62877000Y-65911000D01*
G75*
G02*
X62739000Y-66049000I-138000J0D01*
G01*
X60915000Y-66049000D01*
G75*
G02*
X60777000Y-65911000I0J138000D01*
G01*
G37*
G04 #@! TD.AperFunction*
G04 #@! TA.AperFunction,SMDPad,CuDef*
G36*
G01*
X51677000Y-65911000D02*
X51677000Y-64807000D01*
G75*
G02*
X51815000Y-64669000I138000J0D01*
G01*
X53639000Y-64669000D01*
G75*
G02*
X53777000Y-64807000I0J-138000D01*
G01*
X53777000Y-65911000D01*
G75*
G02*
X53639000Y-66049000I-138000J0D01*
G01*
X51815000Y-66049000D01*
G75*
G02*
X51677000Y-65911000I0J138000D01*
G01*
G37*
G04 #@! TD.AperFunction*
G04 #@! TA.AperFunction,SMDPad,CuDef*
G36*
G01*
X60777000Y-61431000D02*
X60777000Y-60327000D01*
G75*
G02*
X60915000Y-60189000I138000J0D01*
G01*
X62739000Y-60189000D01*
G75*
G02*
X62877000Y-60327000I0J-138000D01*
G01*
X62877000Y-61431000D01*
G75*
G02*
X62739000Y-61569000I-138000J0D01*
G01*
X60915000Y-61569000D01*
G75*
G02*
X60777000Y-61431000I0J138000D01*
G01*
G37*
G04 #@! TD.AperFunction*
G04 #@! TA.AperFunction,SMDPad,CuDef*
G36*
G01*
X51677000Y-61431000D02*
X51677000Y-60327000D01*
G75*
G02*
X51815000Y-60189000I138000J0D01*
G01*
X53639000Y-60189000D01*
G75*
G02*
X53777000Y-60327000I0J-138000D01*
G01*
X53777000Y-61431000D01*
G75*
G02*
X53639000Y-61569000I-138000J0D01*
G01*
X51815000Y-61569000D01*
G75*
G02*
X51677000Y-61431000I0J138000D01*
G01*
G37*
G04 #@! TD.AperFunction*
G04 #@! TA.AperFunction,SMDPad,CuDef*
G36*
G01*
X119306000Y-92108000D02*
X119306000Y-93058000D01*
G75*
G02*
X119056000Y-93308000I-250000J0D01*
G01*
X118556000Y-93308000D01*
G75*
G02*
X118306000Y-93058000I0J250000D01*
G01*
X118306000Y-92108000D01*
G75*
G02*
X118556000Y-91858000I250000J0D01*
G01*
X119056000Y-91858000D01*
G75*
G02*
X119306000Y-92108000I0J-250000D01*
G01*
G37*
G04 #@! TD.AperFunction*
G04 #@! TA.AperFunction,SMDPad,CuDef*
G36*
G01*
X117406000Y-92108000D02*
X117406000Y-93058000D01*
G75*
G02*
X117156000Y-93308000I-250000J0D01*
G01*
X116656000Y-93308000D01*
G75*
G02*
X116406000Y-93058000I0J250000D01*
G01*
X116406000Y-92108000D01*
G75*
G02*
X116656000Y-91858000I250000J0D01*
G01*
X117156000Y-91858000D01*
G75*
G02*
X117406000Y-92108000I0J-250000D01*
G01*
G37*
G04 #@! TD.AperFunction*
G04 #@! TA.AperFunction,SMDPad,CuDef*
G36*
G01*
X109146000Y-92108000D02*
X109146000Y-93058000D01*
G75*
G02*
X108896000Y-93308000I-250000J0D01*
G01*
X108396000Y-93308000D01*
G75*
G02*
X108146000Y-93058000I0J250000D01*
G01*
X108146000Y-92108000D01*
G75*
G02*
X108396000Y-91858000I250000J0D01*
G01*
X108896000Y-91858000D01*
G75*
G02*
X109146000Y-92108000I0J-250000D01*
G01*
G37*
G04 #@! TD.AperFunction*
G04 #@! TA.AperFunction,SMDPad,CuDef*
G36*
G01*
X107246000Y-92108000D02*
X107246000Y-93058000D01*
G75*
G02*
X106996000Y-93308000I-250000J0D01*
G01*
X106496000Y-93308000D01*
G75*
G02*
X106246000Y-93058000I0J250000D01*
G01*
X106246000Y-92108000D01*
G75*
G02*
X106496000Y-91858000I250000J0D01*
G01*
X106996000Y-91858000D01*
G75*
G02*
X107246000Y-92108000I0J-250000D01*
G01*
G37*
G04 #@! TD.AperFunction*
D31*
X80010000Y-89536000D03*
X80010000Y-92836000D03*
X62230000Y-69216000D03*
X62230000Y-72516000D03*
X69850000Y-89536000D03*
X69850000Y-92836000D03*
G04 #@! TA.AperFunction,SMDPad,CuDef*
G36*
G01*
X128281000Y-67210000D02*
X129231000Y-67210000D01*
G75*
G02*
X129481000Y-67460000I0J-250000D01*
G01*
X129481000Y-67960000D01*
G75*
G02*
X129231000Y-68210000I-250000J0D01*
G01*
X128281000Y-68210000D01*
G75*
G02*
X128031000Y-67960000I0J250000D01*
G01*
X128031000Y-67460000D01*
G75*
G02*
X128281000Y-67210000I250000J0D01*
G01*
G37*
G04 #@! TD.AperFunction*
G04 #@! TA.AperFunction,SMDPad,CuDef*
G36*
G01*
X128281000Y-69110000D02*
X129231000Y-69110000D01*
G75*
G02*
X129481000Y-69360000I0J-250000D01*
G01*
X129481000Y-69860000D01*
G75*
G02*
X129231000Y-70110000I-250000J0D01*
G01*
X128281000Y-70110000D01*
G75*
G02*
X128031000Y-69860000I0J250000D01*
G01*
X128031000Y-69360000D01*
G75*
G02*
X128281000Y-69110000I250000J0D01*
G01*
G37*
G04 #@! TD.AperFunction*
D32*
X68884800Y-72124001D03*
X68884800Y-71624000D03*
X68884800Y-71124000D03*
X68884800Y-70623999D03*
D33*
X68187001Y-69926200D03*
X67687000Y-69926200D03*
X67187000Y-69926200D03*
X66686999Y-69926200D03*
D32*
X65989200Y-70623999D03*
X65989200Y-71124000D03*
X65989200Y-71624000D03*
X65989200Y-72124001D03*
D33*
X66686999Y-72821800D03*
X67187000Y-72821800D03*
X67687000Y-72821800D03*
X68187001Y-72821800D03*
D34*
X67437000Y-71374000D03*
D35*
X59436000Y-76200000D03*
X85979000Y-78740000D03*
X89281000Y-58547000D03*
X147320000Y-92329000D03*
X130937000Y-74168000D03*
X58547000Y-68834000D03*
X103759000Y-69088000D03*
X123779000Y-84501000D03*
X62484000Y-85344000D03*
X68961000Y-68453000D03*
X59436000Y-75311000D03*
X103759000Y-63881000D03*
X70612000Y-86106000D03*
X85979000Y-77851000D03*
X59436000Y-74422000D03*
X73533000Y-53213000D03*
X70866000Y-70993000D03*
X70104000Y-70993000D03*
X85979000Y-76962000D03*
X117094000Y-58674000D03*
X86106000Y-94361000D03*
X58547000Y-75311000D03*
X78994000Y-94234000D03*
X86868000Y-76962000D03*
X78105000Y-94234000D03*
X122174000Y-106172000D03*
X71501000Y-86995000D03*
X116586000Y-94488000D03*
X61595000Y-84455000D03*
X79883000Y-94234000D03*
X82296000Y-106172000D03*
X123779000Y-79294000D03*
X69850000Y-68453000D03*
X71501000Y-84328000D03*
X130048000Y-74168000D03*
X112014000Y-106172000D03*
X59563000Y-68834000D03*
X68961000Y-67691000D03*
X71501000Y-86106000D03*
X78105000Y-93345000D03*
X69215000Y-52451000D03*
X87757000Y-78740000D03*
X61595000Y-85344000D03*
X130937000Y-59817000D03*
X83312000Y-60579000D03*
X107823000Y-66421000D03*
X70612000Y-83439000D03*
X86614000Y-58166000D03*
X62484000Y-84455000D03*
X61595000Y-86233000D03*
X67818000Y-52451000D03*
X130642000Y-69764000D03*
X102489000Y-65024000D03*
X81534000Y-106172000D03*
X85725000Y-58547000D03*
X148209000Y-92329000D03*
X148209000Y-93218000D03*
X92456000Y-106172000D03*
X131404000Y-69764000D03*
X59563000Y-67945000D03*
X126746000Y-94488000D03*
X64897000Y-52324000D03*
X83820000Y-59055000D03*
X96266000Y-94488000D03*
X62484000Y-83566000D03*
X86868000Y-78740000D03*
X102489000Y-66421000D03*
X106553000Y-69088000D03*
X85090000Y-77851000D03*
X130937000Y-62484000D03*
X102616000Y-106172000D03*
X129159000Y-74168000D03*
X90170000Y-58166000D03*
X88392000Y-58166000D03*
X83820000Y-58166000D03*
X85090000Y-76962000D03*
X107823000Y-65024000D03*
X91694000Y-106172000D03*
X60325000Y-76200000D03*
X136906000Y-94488000D03*
X87757000Y-77851000D03*
X58547000Y-67945000D03*
X130937000Y-61595000D03*
X82423000Y-60579000D03*
X107823000Y-67818000D03*
X64897000Y-53213000D03*
X70612000Y-84328000D03*
X75311000Y-78486000D03*
X58547000Y-74422000D03*
X70612000Y-85217000D03*
X70612000Y-52451000D03*
X86868000Y-77851000D03*
X64770000Y-71755000D03*
X123571000Y-59944000D03*
X76200000Y-78486000D03*
X133096000Y-106172000D03*
X58547000Y-76200000D03*
X117856000Y-58674000D03*
X60325000Y-75311000D03*
X112776000Y-106172000D03*
X66167000Y-103378000D03*
X69850000Y-67691000D03*
X147320000Y-93218000D03*
X71501000Y-85217000D03*
X87757000Y-67945000D03*
X122936000Y-106172000D03*
X135382000Y-89408000D03*
X87503000Y-58547000D03*
X130937000Y-60706000D03*
X136144000Y-89408000D03*
X106553000Y-63881000D03*
X62484000Y-86233000D03*
X61595000Y-83566000D03*
X70612000Y-86995000D03*
X130937000Y-64262000D03*
X73533000Y-52324000D03*
X106426000Y-94488000D03*
X148209000Y-91440000D03*
X132334000Y-106172000D03*
X105156000Y-63881000D03*
X84201000Y-76962000D03*
X64770000Y-72517000D03*
X60325000Y-74422000D03*
X147320000Y-91440000D03*
X128270000Y-74168000D03*
X83820000Y-59944000D03*
X87757000Y-76962000D03*
X84836000Y-58166000D03*
X124460000Y-59944000D03*
X84201000Y-77851000D03*
X70739000Y-68453000D03*
X105156000Y-69088000D03*
X70739000Y-67691000D03*
X101854000Y-106172000D03*
X71501000Y-83439000D03*
X130937000Y-63373000D03*
X78105000Y-92456000D03*
X78613000Y-53848000D03*
X102489000Y-67818000D03*
X145161000Y-75692000D03*
X65659000Y-87884000D03*
X64389000Y-62738000D03*
X64389000Y-63627000D03*
X65278000Y-65405000D03*
X66548000Y-87884000D03*
X65405000Y-109601000D03*
X65278000Y-64516000D03*
X79121000Y-109855000D03*
X140081000Y-108966000D03*
X75565000Y-66167000D03*
X66548000Y-88773000D03*
X65278000Y-63627000D03*
X78232000Y-108966000D03*
X65278000Y-62738000D03*
X65659000Y-89662000D03*
X75565000Y-65151000D03*
X67437000Y-87884000D03*
X78232000Y-108077000D03*
X140081000Y-109855000D03*
X79121000Y-108077000D03*
X75565000Y-64135000D03*
X79121000Y-108966000D03*
X78232000Y-109855000D03*
X67437000Y-89662000D03*
X64389000Y-65405000D03*
X140081000Y-108077000D03*
X134874000Y-58293000D03*
X75565000Y-63119000D03*
X64389000Y-66294000D03*
X65659000Y-88773000D03*
X64389000Y-64516000D03*
X66548000Y-89662000D03*
X67437000Y-88773000D03*
X65278000Y-66294000D03*
X75565000Y-62103000D03*
X134112000Y-59817000D03*
X146050000Y-75311000D03*
X146050000Y-76073000D03*
X96139000Y-60833000D03*
X96139000Y-60071000D03*
X134112000Y-59055000D03*
X75184000Y-51435000D03*
X96139000Y-61849000D03*
X78547000Y-55814000D03*
X58928000Y-51435000D03*
X144272000Y-75565000D03*
X135763000Y-59182000D03*
X72390000Y-70104000D03*
X75311000Y-70104000D03*
X68707000Y-57404000D03*
X144018000Y-102489000D03*
X145288000Y-102108000D03*
X67691000Y-57404000D03*
D36*
X75697500Y-80772000D02*
X73660000Y-80772000D01*
D37*
X73853000Y-84201000D02*
X73853000Y-80965000D01*
X75753000Y-84201000D02*
X75753000Y-81777500D01*
D38*
X69850000Y-89536000D02*
X69851000Y-89535000D01*
X69851000Y-89535000D02*
X72899000Y-89535000D01*
X75311000Y-87122000D02*
X82550000Y-87122000D01*
X73280000Y-89153000D02*
X75311000Y-87122000D01*
X73280000Y-89535000D02*
X73280000Y-89153000D01*
D37*
X123779000Y-84501000D02*
X123779000Y-79294000D01*
D39*
X116586000Y-94488000D02*
X116906000Y-94168000D01*
D36*
X97852000Y-58674000D02*
X94930000Y-58674000D01*
D39*
X64770000Y-71755000D02*
X64901000Y-71624000D01*
X67187000Y-71624000D02*
X67437000Y-71374000D01*
D37*
X131445000Y-69723000D02*
X131404000Y-69764000D01*
D36*
X101854000Y-106172000D02*
X103759000Y-106172000D01*
D39*
X127066000Y-94168000D02*
X127066000Y-92710000D01*
X96586000Y-94168000D02*
X96586000Y-92710000D01*
X106746000Y-94168000D02*
X106746000Y-92710000D01*
X67687000Y-71124000D02*
X67437000Y-71374000D01*
X67687000Y-71624000D02*
X67437000Y-71374000D01*
D37*
X131404000Y-69764000D02*
X130642000Y-69764000D01*
D36*
X64770000Y-71755000D02*
X64770000Y-72517000D01*
D39*
X96266000Y-94488000D02*
X96586000Y-94168000D01*
X63754000Y-104091500D02*
X65453500Y-104091500D01*
X137226000Y-94168000D02*
X137226000Y-92710000D01*
D37*
X130642000Y-69764000D02*
X128910000Y-69764000D01*
D36*
X91694000Y-106172000D02*
X93599000Y-106172000D01*
D39*
X67687000Y-72821800D02*
X67687000Y-71624000D01*
X68884800Y-71124000D02*
X69465000Y-71124000D01*
X69465000Y-71124000D02*
X69596000Y-70993000D01*
D36*
X132334000Y-106172000D02*
X134239000Y-106172000D01*
D37*
X122138000Y-59944000D02*
X122137000Y-59945000D01*
D39*
X136906000Y-94488000D02*
X137226000Y-94168000D01*
X65453500Y-104091500D02*
X66167000Y-103378000D01*
D37*
X70715000Y-56102000D02*
X70715000Y-53443000D01*
D36*
X122174000Y-106172000D02*
X124079000Y-106172000D01*
D37*
X132715000Y-69764000D02*
X131486000Y-69764000D01*
D39*
X68884800Y-71124000D02*
X67687000Y-71124000D01*
D36*
X94930000Y-58674000D02*
X94742000Y-58486000D01*
D39*
X126746000Y-94488000D02*
X127066000Y-94168000D01*
X64897000Y-72517000D02*
X64897000Y-72074179D01*
X78613000Y-53848000D02*
X76962000Y-53848000D01*
X116906000Y-94168000D02*
X116906000Y-92710000D01*
D36*
X97930000Y-58752000D02*
X97852000Y-58674000D01*
D37*
X123779000Y-79294000D02*
X123779000Y-77365000D01*
X131486000Y-69764000D02*
X131445000Y-69723000D01*
D39*
X65989200Y-71624000D02*
X67187000Y-71624000D01*
D37*
X134033500Y-89408000D02*
X136144000Y-89408000D01*
D39*
X86426000Y-94041000D02*
X86426000Y-92583000D01*
D36*
X112014000Y-106172000D02*
X113919000Y-106172000D01*
D39*
X106426000Y-94488000D02*
X106746000Y-94168000D01*
X87757000Y-67945000D02*
X89789000Y-67945000D01*
D37*
X123779000Y-86465000D02*
X123779000Y-84501000D01*
X124460000Y-59944000D02*
X122138000Y-59944000D01*
D36*
X81534000Y-106172000D02*
X83439000Y-106172000D01*
D39*
X69596000Y-70993000D02*
X70866000Y-70993000D01*
X86106000Y-94361000D02*
X86426000Y-94041000D01*
D36*
X117856000Y-58674000D02*
X115508000Y-58674000D01*
D39*
X64901000Y-71624000D02*
X65989200Y-71624000D01*
D37*
X129159000Y-59055000D02*
X129159000Y-62738000D01*
X125095000Y-106466000D02*
X125095000Y-108331000D01*
D39*
X70739000Y-61468000D02*
X67056000Y-61468000D01*
X77972500Y-84841500D02*
X77972500Y-81722000D01*
X74422000Y-85725000D02*
X77089000Y-85725000D01*
D37*
X135255000Y-106466000D02*
X135255000Y-108331000D01*
D39*
X67187000Y-69926200D02*
X67187000Y-68584000D01*
X66741000Y-61783000D02*
X66741000Y-62992000D01*
D37*
X128651000Y-63246000D02*
X128650000Y-63245000D01*
D39*
X72136000Y-88011000D02*
X74422000Y-85725000D01*
D37*
X84463000Y-106458000D02*
X84463000Y-108323000D01*
X129921000Y-58293000D02*
X129159000Y-59055000D01*
X145161000Y-75692000D02*
X145161000Y-87757000D01*
X94615000Y-106466000D02*
X94615000Y-108331000D01*
D39*
X67437000Y-88011000D02*
X72136000Y-88011000D01*
D37*
X104775000Y-106466000D02*
X104775000Y-108331000D01*
D39*
X67056000Y-61468000D02*
X66741000Y-61783000D01*
X66686999Y-69926200D02*
X66686999Y-68591999D01*
X71096500Y-61825500D02*
X70739000Y-61468000D01*
X64031500Y-109601000D02*
X65405000Y-109601000D01*
D37*
X128650000Y-63245000D02*
X127037000Y-63245000D01*
X145161000Y-87757000D02*
X144526000Y-88392000D01*
X134874000Y-58293000D02*
X129921000Y-58293000D01*
D39*
X77089000Y-85725000D02*
X77972500Y-84841500D01*
D37*
X129159000Y-62738000D02*
X128651000Y-63246000D01*
D39*
X71096500Y-62992000D02*
X71096500Y-61825500D01*
D37*
X114935000Y-106466000D02*
X114935000Y-108331000D01*
X144526000Y-88392000D02*
X141732000Y-88392000D01*
X134112000Y-59817000D02*
X134112000Y-59055000D01*
D36*
X69715000Y-54983000D02*
X68961000Y-54229000D01*
X69715000Y-57777000D02*
X70739000Y-58801000D01*
D38*
X80584000Y-68616000D02*
X80518000Y-68682000D01*
D39*
X81661000Y-56388000D02*
X80584000Y-57465000D01*
D37*
X134112000Y-67183000D02*
X133731000Y-67564000D01*
X134112000Y-59817000D02*
X134112000Y-67183000D01*
X133731000Y-67564000D02*
X128778000Y-67564000D01*
D36*
X97930000Y-60022000D02*
X95106000Y-60022000D01*
X70739000Y-58801000D02*
X80711000Y-58801000D01*
D37*
X146050000Y-88011000D02*
X144018000Y-90043000D01*
X146050000Y-75311000D02*
X146050000Y-88011000D01*
D36*
X68961000Y-54229000D02*
X66548000Y-54229000D01*
X65301500Y-55475500D02*
X60452000Y-55475500D01*
D37*
X144018000Y-90043000D02*
X144018000Y-94834000D01*
D36*
X69715000Y-56102000D02*
X69715000Y-54983000D01*
D39*
X80584000Y-57465000D02*
X80584000Y-58801000D01*
X80264000Y-53951500D02*
X81383500Y-53951500D01*
D38*
X80584000Y-58801000D02*
X80584000Y-68616000D01*
D36*
X66548000Y-54229000D02*
X65301500Y-55475500D01*
D39*
X81661000Y-54229000D02*
X81661000Y-56388000D01*
X81383500Y-53951500D02*
X81661000Y-54229000D01*
D36*
X69715000Y-56102000D02*
X69715000Y-57777000D01*
D39*
X106045000Y-86741000D02*
X106045000Y-76512000D01*
X108646000Y-92583000D02*
X108646000Y-89342000D01*
X108608500Y-96393000D02*
X108608500Y-92747500D01*
X108646000Y-89342000D02*
X106045000Y-86741000D01*
X88326000Y-92583000D02*
X90932000Y-92583000D01*
X88288500Y-96266000D02*
X88288500Y-92620500D01*
X102235000Y-81280000D02*
X102235000Y-76512000D01*
X90932000Y-92583000D02*
X102235000Y-81280000D01*
X104775000Y-83185000D02*
X104775000Y-76512000D01*
X98448500Y-96393000D02*
X98448500Y-92747500D01*
X98486000Y-92583000D02*
X98486000Y-89474000D01*
X98486000Y-89474000D02*
X104775000Y-83185000D01*
X128966000Y-92583000D02*
X128966000Y-89850000D01*
X111125000Y-84582000D02*
X111125000Y-76512000D01*
X115443000Y-88900000D02*
X111125000Y-84582000D01*
X128966000Y-89850000D02*
X128016000Y-88900000D01*
X128016000Y-88900000D02*
X115443000Y-88900000D01*
X128928500Y-96393000D02*
X128928500Y-92747500D01*
X136144000Y-90932000D02*
X135763000Y-91313000D01*
X138684000Y-90932000D02*
X136144000Y-90932000D01*
X130683000Y-92710000D02*
X130048000Y-92075000D01*
X116713000Y-88392000D02*
X112395000Y-84074000D01*
X135763000Y-91313000D02*
X135763000Y-92329000D01*
X129286000Y-88392000D02*
X116713000Y-88392000D01*
X135763000Y-92329000D02*
X135382000Y-92710000D01*
X130048000Y-89154000D02*
X129286000Y-88392000D01*
X135382000Y-92710000D02*
X130683000Y-92710000D01*
X130048000Y-92075000D02*
X130048000Y-89154000D01*
X139126000Y-91374000D02*
X138684000Y-90932000D01*
X112395000Y-84074000D02*
X112395000Y-76512000D01*
X139088500Y-96393000D02*
X139088500Y-92747500D01*
X139126000Y-92583000D02*
X139126000Y-91374000D01*
D40*
X97930000Y-61292000D02*
X96696000Y-61292000D01*
D39*
X75184000Y-51435000D02*
X75184000Y-55372000D01*
X75626000Y-55814000D02*
X76962000Y-55814000D01*
X75184000Y-55372000D02*
X75626000Y-55814000D01*
X53154000Y-60452000D02*
X52727000Y-60879000D01*
X80226500Y-55814000D02*
X80264000Y-55776500D01*
X78547000Y-55814000D02*
X80226500Y-55814000D01*
X76962000Y-55814000D02*
X78547000Y-55814000D01*
X58928000Y-51435000D02*
X58928000Y-60833000D01*
D40*
X96696000Y-61292000D02*
X96139000Y-61849000D01*
D41*
X62103000Y-80391000D02*
X62103000Y-72643000D01*
X62103000Y-72643000D02*
X62230000Y-72516000D01*
X59546000Y-81077000D02*
X61417000Y-81077000D01*
X61417000Y-81077000D02*
X62103000Y-80391000D01*
D39*
X57531000Y-70358000D02*
X57531000Y-71882000D01*
X57285000Y-72128000D02*
X56102000Y-72128000D01*
X56102000Y-70128000D02*
X57301000Y-70128000D01*
X57531000Y-71882000D02*
X57285000Y-72128000D01*
X57301000Y-70128000D02*
X57531000Y-70358000D01*
X65989200Y-70623999D02*
X57531000Y-70623999D01*
X54864000Y-71374000D02*
X54864000Y-72898000D01*
X55094000Y-73128000D02*
X56102000Y-73128000D01*
X58543000Y-71124000D02*
X58166000Y-71501000D01*
X58166000Y-71501000D02*
X58166000Y-72644000D01*
X54864000Y-72898000D02*
X55094000Y-73128000D01*
X56102000Y-71128000D02*
X55110000Y-71128000D01*
X65989200Y-71124000D02*
X58543000Y-71124000D01*
X57682000Y-73128000D02*
X56102000Y-73128000D01*
X58166000Y-72644000D02*
X57682000Y-73128000D01*
X55110000Y-71128000D02*
X54864000Y-71374000D01*
X105783000Y-99195000D02*
X105783000Y-106458000D01*
X106783500Y-98194500D02*
X105783000Y-99195000D01*
X106783500Y-96266000D02*
X106783500Y-98194500D01*
X85463000Y-106458000D02*
X85463000Y-91448000D01*
X85463000Y-91448000D02*
X87884000Y-89027000D01*
X87884000Y-89027000D02*
X92075000Y-89027000D01*
X99695000Y-81407000D02*
X99695000Y-76512000D01*
X92075000Y-89027000D02*
X99695000Y-81407000D01*
X86463000Y-106458000D02*
X86463000Y-96266500D01*
X86463000Y-96266500D02*
X86463500Y-96266000D01*
X103505000Y-81915000D02*
X103505000Y-76512000D01*
X95623000Y-106458000D02*
X95623000Y-89797000D01*
X95623000Y-89797000D02*
X103505000Y-81915000D01*
X96623500Y-106457500D02*
X96623000Y-106458000D01*
X96623500Y-96266000D02*
X96623500Y-106457500D01*
X111760000Y-90424000D02*
X107315000Y-85979000D01*
X115943000Y-91575000D02*
X114792000Y-90424000D01*
X114792000Y-90424000D02*
X111760000Y-90424000D01*
X115943000Y-106585000D02*
X115943000Y-91575000D01*
X107315000Y-85979000D02*
X107315000Y-76512000D01*
X116943000Y-106585000D02*
X116943000Y-96393500D01*
X109855000Y-85598000D02*
X109855000Y-76512000D01*
X126103000Y-90289000D02*
X125222000Y-89408000D01*
X113665000Y-89408000D02*
X109855000Y-85598000D01*
X125222000Y-89408000D02*
X113665000Y-89408000D01*
X126103000Y-106585000D02*
X126103000Y-90289000D01*
X127103000Y-106458000D02*
X127103000Y-96266500D01*
X127103000Y-96266500D02*
X127103500Y-96266000D01*
X137263500Y-98194500D02*
X136263000Y-99195000D01*
X137263500Y-96266000D02*
X137263500Y-98194500D01*
X136263000Y-99195000D02*
X136263000Y-106458000D01*
D38*
X127350698Y-80454500D02*
X138960504Y-80454500D01*
X138960504Y-80454500D02*
X142920999Y-84414995D01*
X141263995Y-79414995D02*
X142920999Y-79414995D01*
X140093700Y-78244700D02*
X141263995Y-79414995D01*
X127350698Y-78244700D02*
X140093700Y-78244700D01*
D39*
X117016000Y-68912000D02*
X120564000Y-65364000D01*
X115430000Y-68912000D02*
X117016000Y-68912000D01*
X120564000Y-65364000D02*
X132737000Y-65364000D01*
X117016000Y-70182000D02*
X120734000Y-66464000D01*
X115430000Y-70182000D02*
X117016000Y-70182000D01*
X120734000Y-66464000D02*
X132737000Y-66464000D01*
X117524000Y-71452000D02*
X120312000Y-68664000D01*
X120312000Y-68664000D02*
X132737000Y-68664000D01*
X115430000Y-71452000D02*
X117524000Y-71452000D01*
X118413000Y-72722000D02*
X120271000Y-70864000D01*
X115430000Y-72722000D02*
X118413000Y-72722000D01*
X120271000Y-70864000D02*
X132737000Y-70864000D01*
X120380000Y-72914000D02*
X132737000Y-72914000D01*
X115430000Y-73992000D02*
X119302000Y-73992000D01*
X119302000Y-73992000D02*
X120380000Y-72914000D01*
D40*
X59546000Y-81877000D02*
X59546051Y-81876949D01*
X64999671Y-74226950D02*
X96570049Y-74226950D01*
X63099950Y-81114292D02*
X63099950Y-76126671D01*
X96570049Y-74226950D02*
X96804999Y-73992000D01*
X59546051Y-81876949D02*
X62337293Y-81876949D01*
X96804999Y-73992000D02*
X97930000Y-73992000D01*
X63099950Y-76126671D02*
X64999671Y-74226950D01*
X62337293Y-81876949D02*
X63099950Y-81114292D01*
X63900050Y-81445708D02*
X63900050Y-76434950D01*
X65307950Y-75027050D02*
X96570049Y-75027050D01*
X96570049Y-75027050D02*
X96804999Y-75262000D01*
X59546051Y-82677051D02*
X62668707Y-82677051D01*
X59546000Y-82677000D02*
X59546051Y-82677051D01*
X62668707Y-82677051D02*
X63900050Y-81445708D01*
X96804999Y-75262000D02*
X97930000Y-75262000D01*
X63900050Y-76434950D02*
X65307950Y-75027050D01*
D37*
X130822700Y-85864700D02*
X132158500Y-87200500D01*
X132158500Y-87200500D02*
X132158500Y-90358000D01*
X127977900Y-85864700D02*
X130822700Y-85864700D01*
D39*
X118492000Y-63245000D02*
X122137000Y-63245000D01*
X117905000Y-63832000D02*
X118492000Y-63245000D01*
X115430000Y-63832000D02*
X117905000Y-63832000D01*
X135763000Y-58039000D02*
X135255000Y-57531000D01*
X135763000Y-59182000D02*
X135763000Y-58039000D01*
X135255000Y-57531000D02*
X120777000Y-57531000D01*
X129794000Y-87757000D02*
X130810000Y-88773000D01*
X125603000Y-86741000D02*
X126619000Y-87757000D01*
X130810000Y-90932000D02*
X131186000Y-91308000D01*
X120777000Y-57531000D02*
X118286000Y-60022000D01*
X125603000Y-76708000D02*
X125603000Y-86741000D01*
X126746000Y-75565000D02*
X125603000Y-76708000D01*
X131186000Y-91308000D02*
X134033500Y-91308000D01*
X130810000Y-88773000D02*
X130810000Y-90932000D01*
X126619000Y-87757000D02*
X129794000Y-87757000D01*
X118286000Y-60022000D02*
X115430000Y-60022000D01*
X144272000Y-75565000D02*
X126746000Y-75565000D01*
D40*
X73152000Y-70644092D02*
X73152000Y-63222500D01*
X72172092Y-71624000D02*
X73152000Y-70644092D01*
X68884800Y-71624000D02*
X72172092Y-71624000D01*
X73152000Y-63222500D02*
X72921500Y-62992000D01*
D39*
X117553000Y-75262000D02*
X118745000Y-76454000D01*
X115430000Y-75262000D02*
X117553000Y-75262000D01*
D40*
X68884800Y-72124001D02*
X94372999Y-72124001D01*
X94372999Y-72124001D02*
X96315000Y-70182000D01*
X96315000Y-70182000D02*
X97930000Y-70182000D01*
X91440000Y-68834000D02*
X93902000Y-66372000D01*
X69723000Y-70104000D02*
X69203001Y-70623999D01*
X75311000Y-70104000D02*
X84159079Y-70104000D01*
X72390000Y-70104000D02*
X69723000Y-70104000D01*
X93902000Y-66372000D02*
X97930000Y-66372000D01*
X85429079Y-68834000D02*
X91440000Y-68834000D01*
X84159079Y-70104000D02*
X85429079Y-68834000D01*
X69203001Y-70623999D02*
X68884800Y-70623999D01*
X67288600Y-73533000D02*
X95313500Y-73533000D01*
X67187000Y-73431400D02*
X67288600Y-73533000D01*
X95313500Y-73533000D02*
X96124500Y-72722000D01*
X67187000Y-72821800D02*
X67187000Y-73431400D01*
X96124500Y-72722000D02*
X97930000Y-72722000D01*
X68187001Y-72821800D02*
X94818200Y-72821800D01*
X96188000Y-71452000D02*
X97930000Y-71452000D01*
X94818200Y-72821800D02*
X96188000Y-71452000D01*
X73660000Y-59563000D02*
X74549000Y-60452000D01*
X74803000Y-70739000D02*
X92202000Y-70739000D01*
X74549000Y-60452000D02*
X74549000Y-70485000D01*
D39*
X144018000Y-102489000D02*
X144018000Y-99984000D01*
D40*
X68707000Y-57404000D02*
X68707000Y-58928000D01*
D39*
X64746500Y-57300500D02*
X63373000Y-57300500D01*
X68707000Y-56110000D02*
X68715000Y-56102000D01*
X67183000Y-54864000D02*
X64746500Y-57300500D01*
D40*
X68707000Y-58928000D02*
X69342000Y-59563000D01*
X92202000Y-70739000D02*
X95299000Y-67642000D01*
X95299000Y-67642000D02*
X97930000Y-67642000D01*
X74549000Y-70485000D02*
X74803000Y-70739000D01*
D39*
X68715000Y-56102000D02*
X68715000Y-55126000D01*
X68453000Y-54864000D02*
X67183000Y-54864000D01*
X68707000Y-57404000D02*
X68707000Y-56110000D01*
D40*
X69342000Y-59563000D02*
X73660000Y-59563000D01*
D39*
X68715000Y-55126000D02*
X68453000Y-54864000D01*
X67691000Y-57404000D02*
X67691000Y-56126000D01*
X67691000Y-56126000D02*
X67715000Y-56102000D01*
X67715000Y-56102000D02*
X66834000Y-56102000D01*
D40*
X95172000Y-68912000D02*
X97930000Y-68912000D01*
X74041000Y-70739000D02*
X74549000Y-71247000D01*
D39*
X61595000Y-58293000D02*
X60706000Y-57404000D01*
X145288000Y-102108000D02*
X145288000Y-99984000D01*
X66834000Y-56102000D02*
X64643000Y-58293000D01*
D40*
X92837000Y-71247000D02*
X95172000Y-68912000D01*
X74041000Y-60706000D02*
X74041000Y-70739000D01*
X68834000Y-60071000D02*
X73406000Y-60071000D01*
X73406000Y-60071000D02*
X74041000Y-60706000D01*
X67691000Y-58928000D02*
X68834000Y-60071000D01*
X74549000Y-71247000D02*
X92837000Y-71247000D01*
D39*
X64643000Y-58293000D02*
X61595000Y-58293000D01*
D40*
X67691000Y-57404000D02*
X67691000Y-58928000D01*
D39*
X118806000Y-90866000D02*
X118806000Y-92583000D01*
X117856000Y-89916000D02*
X118806000Y-90866000D01*
X118768500Y-96393000D02*
X118768500Y-92747500D01*
X108585000Y-76512000D02*
X108585000Y-85725000D01*
X112776000Y-89916000D02*
X117856000Y-89916000D01*
X108585000Y-85725000D02*
X112776000Y-89916000D01*
X86614000Y-69746500D02*
X89764000Y-69746500D01*
X63754000Y-105966500D02*
X63754000Y-106934000D01*
X62206500Y-108481500D02*
X62206500Y-109601000D01*
X63754000Y-106934000D02*
X62206500Y-108481500D01*
D38*
X66842000Y-98258000D02*
X61422000Y-98258000D01*
X75080000Y-97767000D02*
X75819000Y-97028000D01*
X82550000Y-94742000D02*
X82550000Y-90932000D01*
X75819000Y-97028000D02*
X80264000Y-97028000D01*
X72136000Y-97767000D02*
X75080000Y-97767000D01*
X80264000Y-97028000D02*
X82550000Y-94742000D01*
X67333000Y-97767000D02*
X66842000Y-98258000D01*
X81153000Y-89535000D02*
X76580000Y-89535000D01*
X67333000Y-97767000D02*
X72136000Y-97767000D01*
X82550000Y-90932000D02*
X81153000Y-89535000D01*
X59817000Y-101473000D02*
X66929000Y-101473000D01*
X61422001Y-93258005D02*
X71287005Y-93258005D01*
X71628000Y-93599000D02*
X73280000Y-93599000D01*
X71287005Y-93258005D02*
X71628000Y-93599000D01*
X61422001Y-93258005D02*
X59268995Y-93258005D01*
X59268995Y-93258005D02*
X58293000Y-94234000D01*
X58293000Y-99949000D02*
X59817000Y-101473000D01*
X66929000Y-101473000D02*
X69223000Y-103767000D01*
X69223000Y-103767000D02*
X72136000Y-103767000D01*
X58293000Y-94234000D02*
X58293000Y-99949000D01*
G04 #@! TA.AperFunction,Conductor*
G36*
X67887121Y-76347002D02*
G01*
X67933614Y-76400658D01*
X67945000Y-76453000D01*
X67945000Y-90044000D01*
X67924998Y-90112121D01*
X67871342Y-90158614D01*
X67819000Y-90170000D01*
X65277000Y-90170000D01*
X65208879Y-90149998D01*
X65162386Y-90096342D01*
X65151000Y-90044000D01*
X65151000Y-76453000D01*
X65171002Y-76384879D01*
X65224658Y-76338386D01*
X65277000Y-76327000D01*
X67819000Y-76327000D01*
X67887121Y-76347002D01*
G37*
G04 #@! TD.AperFunction*
G04 #@! TA.AperFunction,Conductor*
G36*
X63061121Y-59837002D02*
G01*
X63107614Y-59890658D01*
X63119000Y-59943000D01*
X63119000Y-62739000D01*
X63098998Y-62807121D01*
X63045342Y-62853614D01*
X62993000Y-62865000D01*
X51180500Y-62865000D01*
X51112379Y-62844998D01*
X51065886Y-62791342D01*
X51054500Y-62739000D01*
X51054500Y-59943000D01*
X51074502Y-59874879D01*
X51128158Y-59828386D01*
X51180500Y-59817000D01*
X62993000Y-59817000D01*
X63061121Y-59837002D01*
G37*
G04 #@! TD.AperFunction*
G04 #@! TA.AperFunction,Conductor*
G36*
X63061121Y-63393002D02*
G01*
X63107614Y-63446658D01*
X63119000Y-63499000D01*
X63119000Y-66797500D01*
X63098998Y-66865621D01*
X63045342Y-66912114D01*
X62993000Y-66923500D01*
X60959000Y-66923500D01*
X60955654Y-66923860D01*
X60955649Y-66923860D01*
X60907205Y-66929068D01*
X60907199Y-66929069D01*
X60903841Y-66929430D01*
X60851499Y-66940816D01*
X60824709Y-66948166D01*
X60817858Y-66952067D01*
X60817856Y-66952068D01*
X60742101Y-66995206D01*
X60736722Y-66998269D01*
X60683066Y-67044762D01*
X60650944Y-67078051D01*
X60604013Y-67167770D01*
X60584011Y-67235891D01*
X60573500Y-67309000D01*
X60573500Y-69851000D01*
X60573860Y-69854346D01*
X60573860Y-69854351D01*
X60578394Y-69896520D01*
X60579430Y-69906159D01*
X60590816Y-69958501D01*
X60598166Y-69985291D01*
X60602067Y-69992142D01*
X60602068Y-69992144D01*
X60637377Y-70054150D01*
X60653704Y-70123244D01*
X60630085Y-70190196D01*
X60574017Y-70233750D01*
X60527885Y-70242499D01*
X57978041Y-70242499D01*
X57909920Y-70222497D01*
X57864458Y-70171041D01*
X57850875Y-70142754D01*
X57850872Y-70142750D01*
X57847440Y-70135602D01*
X57843830Y-70131308D01*
X57841898Y-70129376D01*
X57840111Y-70127427D01*
X57840082Y-70127374D01*
X57840212Y-70127254D01*
X57839710Y-70126685D01*
X57836612Y-70120943D01*
X57796794Y-70084135D01*
X57793229Y-70080706D01*
X57609043Y-69896520D01*
X57593684Y-69877504D01*
X57592720Y-69876444D01*
X57587071Y-69867696D01*
X57578896Y-69861252D01*
X57578894Y-69861249D01*
X57560528Y-69846771D01*
X57556053Y-69842794D01*
X57555992Y-69842865D01*
X57552035Y-69839512D01*
X57548352Y-69835829D01*
X57532561Y-69824545D01*
X57527815Y-69820982D01*
X57495507Y-69795512D01*
X57495506Y-69795511D01*
X57487330Y-69789066D01*
X57478643Y-69786015D01*
X57471157Y-69780666D01*
X57461181Y-69777683D01*
X57461180Y-69777682D01*
X57421789Y-69765902D01*
X57416157Y-69764072D01*
X57367498Y-69746984D01*
X57361909Y-69746500D01*
X57359198Y-69746500D01*
X57356531Y-69746385D01*
X57356468Y-69746366D01*
X57356475Y-69746192D01*
X57355729Y-69746145D01*
X57349476Y-69744275D01*
X57302779Y-69746110D01*
X57295322Y-69746403D01*
X57290375Y-69746500D01*
X57119739Y-69746500D01*
X57051618Y-69726498D01*
X57030644Y-69709595D01*
X56967723Y-69646674D01*
X56853555Y-69588502D01*
X56758834Y-69573500D01*
X55445166Y-69573500D01*
X55350445Y-69588502D01*
X55236277Y-69646674D01*
X55145674Y-69737277D01*
X55087502Y-69851445D01*
X55072500Y-69946166D01*
X55072500Y-70309834D01*
X55087502Y-70404555D01*
X55145674Y-70518723D01*
X55159047Y-70532096D01*
X55193073Y-70594408D01*
X55188008Y-70665223D01*
X55145461Y-70722059D01*
X55081019Y-70746500D01*
X55078308Y-70746500D01*
X55073177Y-70747354D01*
X55073178Y-70747354D01*
X55059165Y-70749686D01*
X55053286Y-70750523D01*
X55012433Y-70755358D01*
X55012432Y-70755358D01*
X55002093Y-70756582D01*
X54993794Y-70760567D01*
X54984717Y-70762078D01*
X54939376Y-70786543D01*
X54934083Y-70789240D01*
X54894749Y-70808127D01*
X54894745Y-70808129D01*
X54887603Y-70811559D01*
X54883308Y-70815169D01*
X54881381Y-70817096D01*
X54879424Y-70818891D01*
X54879366Y-70818922D01*
X54879248Y-70818793D01*
X54878684Y-70819290D01*
X54872943Y-70822388D01*
X54865874Y-70830035D01*
X54865873Y-70830036D01*
X54836146Y-70862195D01*
X54832716Y-70865761D01*
X54632521Y-71065956D01*
X54613505Y-71081315D01*
X54612444Y-71082281D01*
X54603696Y-71087929D01*
X54597250Y-71096106D01*
X54582771Y-71114472D01*
X54578794Y-71118947D01*
X54578865Y-71119008D01*
X54575512Y-71122965D01*
X54571829Y-71126648D01*
X54568803Y-71130883D01*
X54568801Y-71130885D01*
X54560547Y-71142436D01*
X54556984Y-71147182D01*
X54525066Y-71187670D01*
X54522015Y-71196357D01*
X54516666Y-71203843D01*
X54513683Y-71213819D01*
X54513682Y-71213820D01*
X54501902Y-71253211D01*
X54500072Y-71258843D01*
X54482984Y-71307502D01*
X54482500Y-71313091D01*
X54482500Y-71315802D01*
X54482385Y-71318469D01*
X54482366Y-71318532D01*
X54482192Y-71318525D01*
X54482145Y-71319271D01*
X54480275Y-71325524D01*
X54482234Y-71375383D01*
X54482403Y-71379678D01*
X54482500Y-71384625D01*
X54482500Y-72843865D01*
X54479914Y-72868164D01*
X54479846Y-72869602D01*
X54477655Y-72879780D01*
X54479936Y-72899050D01*
X54481627Y-72913342D01*
X54481979Y-72919320D01*
X54482072Y-72919312D01*
X54482500Y-72924490D01*
X54482500Y-72929692D01*
X54483354Y-72934822D01*
X54485686Y-72948832D01*
X54486522Y-72954704D01*
X54492582Y-73005907D01*
X54496567Y-73014206D01*
X54498078Y-73023283D01*
X54522558Y-73068651D01*
X54525239Y-73073914D01*
X54544127Y-73113250D01*
X54544130Y-73113254D01*
X54547560Y-73120398D01*
X54551170Y-73124692D01*
X54553102Y-73126624D01*
X54554889Y-73128573D01*
X54554918Y-73128626D01*
X54554788Y-73128746D01*
X54555290Y-73129315D01*
X54558388Y-73135057D01*
X54566032Y-73142123D01*
X54598206Y-73171865D01*
X54601771Y-73175294D01*
X54785957Y-73359480D01*
X54801316Y-73378496D01*
X54802280Y-73379556D01*
X54807929Y-73388304D01*
X54816104Y-73394748D01*
X54816106Y-73394751D01*
X54834472Y-73409229D01*
X54838950Y-73413208D01*
X54839010Y-73413137D01*
X54842967Y-73416490D01*
X54846648Y-73420171D01*
X54850880Y-73423195D01*
X54850882Y-73423197D01*
X54862457Y-73431469D01*
X54867202Y-73435032D01*
X54907670Y-73466934D01*
X54916355Y-73469984D01*
X54923842Y-73475334D01*
X54973247Y-73490109D01*
X54978842Y-73491927D01*
X55027502Y-73509016D01*
X55033091Y-73509500D01*
X55035804Y-73509500D01*
X55038469Y-73509615D01*
X55038532Y-73509634D01*
X55038525Y-73509808D01*
X55039271Y-73509855D01*
X55045524Y-73511725D01*
X55076851Y-73510494D01*
X55080084Y-73510367D01*
X55148937Y-73527679D01*
X55174126Y-73547175D01*
X55236277Y-73609326D01*
X55350445Y-73667498D01*
X55445166Y-73682500D01*
X56758834Y-73682500D01*
X56853555Y-73667498D01*
X56967723Y-73609326D01*
X57030644Y-73546405D01*
X57092956Y-73512379D01*
X57119739Y-73509500D01*
X57627865Y-73509500D01*
X57652164Y-73512086D01*
X57653602Y-73512154D01*
X57663780Y-73514345D01*
X57697341Y-73510373D01*
X57703320Y-73510021D01*
X57703312Y-73509928D01*
X57708490Y-73509500D01*
X57713692Y-73509500D01*
X57732846Y-73506312D01*
X57738704Y-73505478D01*
X57755318Y-73503512D01*
X57779567Y-73500642D01*
X57779568Y-73500642D01*
X57789907Y-73499418D01*
X57798206Y-73495433D01*
X57807283Y-73493922D01*
X57852651Y-73469442D01*
X57857914Y-73466761D01*
X57897250Y-73447873D01*
X57897254Y-73447870D01*
X57904398Y-73444440D01*
X57908692Y-73440830D01*
X57910624Y-73438898D01*
X57912573Y-73437111D01*
X57912626Y-73437082D01*
X57912746Y-73437212D01*
X57913315Y-73436710D01*
X57919057Y-73433612D01*
X57955866Y-73393793D01*
X57959295Y-73390228D01*
X58397480Y-72952043D01*
X58416496Y-72936684D01*
X58417556Y-72935720D01*
X58426304Y-72930071D01*
X58432748Y-72921896D01*
X58432751Y-72921894D01*
X58447229Y-72903528D01*
X58451208Y-72899050D01*
X58451137Y-72898990D01*
X58454490Y-72895033D01*
X58458171Y-72891352D01*
X58469469Y-72875543D01*
X58473032Y-72870798D01*
X58498485Y-72838510D01*
X58504934Y-72830330D01*
X58507984Y-72821645D01*
X58513334Y-72814158D01*
X58528109Y-72764753D01*
X58529930Y-72759150D01*
X58544388Y-72717981D01*
X58547016Y-72710498D01*
X58547500Y-72704909D01*
X58547500Y-72702196D01*
X58547615Y-72699531D01*
X58547634Y-72699468D01*
X58547808Y-72699475D01*
X58547855Y-72698729D01*
X58549725Y-72692476D01*
X58547597Y-72638322D01*
X58547500Y-72633375D01*
X58547500Y-71711212D01*
X58567502Y-71643091D01*
X58584405Y-71622117D01*
X58664117Y-71542405D01*
X58726429Y-71508379D01*
X58753212Y-71505500D01*
X60945655Y-71505500D01*
X61013776Y-71525502D01*
X61060269Y-71579158D01*
X61070373Y-71649432D01*
X61050421Y-71701500D01*
X61047162Y-71706377D01*
X61047160Y-71706381D01*
X61040266Y-71716699D01*
X61025500Y-71790933D01*
X61025501Y-73241066D01*
X61040266Y-73315301D01*
X61096516Y-73399484D01*
X61106832Y-73406377D01*
X61147592Y-73433612D01*
X61180699Y-73455734D01*
X61254933Y-73470500D01*
X61493900Y-73470500D01*
X61562021Y-73490502D01*
X61608514Y-73544158D01*
X61619900Y-73596500D01*
X61619900Y-80138704D01*
X61599898Y-80206825D01*
X61582995Y-80227799D01*
X61253799Y-80556995D01*
X61191487Y-80591021D01*
X61164704Y-80593900D01*
X60830053Y-80593900D01*
X60781831Y-80584307D01*
X60773778Y-80580971D01*
X60718498Y-80536421D01*
X60696000Y-80464564D01*
X60696000Y-79227000D01*
X51696000Y-79227000D01*
X51696000Y-86127000D01*
X60696000Y-86127000D01*
X60696000Y-84527000D01*
X58522000Y-84527000D01*
X58453879Y-84506998D01*
X58407386Y-84453342D01*
X58396000Y-84401000D01*
X58396000Y-84107500D01*
X58416002Y-84039379D01*
X58469658Y-83992886D01*
X58522000Y-83981500D01*
X60612208Y-83981499D01*
X60721066Y-83981499D01*
X60756818Y-83974388D01*
X60783126Y-83969156D01*
X60783128Y-83969155D01*
X60795301Y-83966734D01*
X60805621Y-83959839D01*
X60805622Y-83959838D01*
X60869168Y-83917377D01*
X60879484Y-83910484D01*
X60935734Y-83826301D01*
X60950500Y-83752067D01*
X60950499Y-83201934D01*
X60946878Y-83183730D01*
X60953206Y-83113018D01*
X60996760Y-83056951D01*
X61070457Y-83033151D01*
X62617279Y-83033151D01*
X62637328Y-83035285D01*
X62641518Y-83035483D01*
X62651700Y-83037675D01*
X62682547Y-83034024D01*
X62687922Y-83033707D01*
X62687911Y-83033579D01*
X62693089Y-83033151D01*
X62698291Y-83033151D01*
X62709626Y-83031264D01*
X62715950Y-83030212D01*
X62721822Y-83029377D01*
X62759081Y-83024967D01*
X62759088Y-83024965D01*
X62769429Y-83023741D01*
X62777175Y-83020021D01*
X62785649Y-83018611D01*
X62827816Y-82995859D01*
X62833103Y-82993166D01*
X62869149Y-82975856D01*
X62869152Y-82975854D01*
X62876297Y-82972423D01*
X62880307Y-82969052D01*
X62882245Y-82967114D01*
X62883896Y-82965599D01*
X62884306Y-82965378D01*
X62884344Y-82965420D01*
X62884527Y-82965259D01*
X62889981Y-82962316D01*
X62897054Y-82954665D01*
X62900477Y-82950963D01*
X62961406Y-82914518D01*
X63032366Y-82916800D01*
X63090827Y-82957084D01*
X63118229Y-83022579D01*
X63119000Y-83036493D01*
X63119000Y-90044000D01*
X63098998Y-90112121D01*
X63045342Y-90158614D01*
X62993000Y-90170000D01*
X51180500Y-90170000D01*
X51112379Y-90149998D01*
X51065886Y-90096342D01*
X51054500Y-90044000D01*
X51054500Y-63499000D01*
X51074502Y-63430879D01*
X51128158Y-63384386D01*
X51180500Y-63373000D01*
X62993000Y-63373000D01*
X63061121Y-63393002D01*
G37*
G04 #@! TD.AperFunction*
G04 #@! TA.AperFunction,Conductor*
G36*
X71951121Y-82951002D02*
G01*
X71997614Y-83004658D01*
X72009000Y-83057000D01*
X72009000Y-87377000D01*
X71988998Y-87445121D01*
X71935342Y-87491614D01*
X71883000Y-87503000D01*
X68579000Y-87503000D01*
X68510879Y-87482998D01*
X68464386Y-87429342D01*
X68453000Y-87377000D01*
X68453000Y-83057000D01*
X68473002Y-82988879D01*
X68526658Y-82942386D01*
X68579000Y-82931000D01*
X71883000Y-82931000D01*
X71951121Y-82951002D01*
G37*
G04 #@! TD.AperFunction*
G04 #@! TA.AperFunction,Conductor*
G36*
X135142073Y-59075002D02*
G01*
X135188566Y-59128658D01*
X135199362Y-59178290D01*
X135198874Y-59182000D01*
X135199952Y-59190188D01*
X135212947Y-59288893D01*
X135218096Y-59328007D01*
X135274453Y-59464063D01*
X135364103Y-59580897D01*
X135480937Y-59670547D01*
X135616993Y-59726904D01*
X135625177Y-59727981D01*
X135625179Y-59727982D01*
X135754812Y-59745048D01*
X135763000Y-59746126D01*
X135771188Y-59745048D01*
X135900821Y-59727982D01*
X135900823Y-59727981D01*
X135909007Y-59726904D01*
X136045063Y-59670547D01*
X136161897Y-59580897D01*
X136251547Y-59464063D01*
X136307904Y-59328007D01*
X136313054Y-59288893D01*
X136326048Y-59190188D01*
X136327126Y-59182000D01*
X136326701Y-59178775D01*
X136346050Y-59112879D01*
X136399706Y-59066386D01*
X136452048Y-59055000D01*
X149226000Y-59055000D01*
X149294121Y-59075002D01*
X149340614Y-59128658D01*
X149352000Y-59181000D01*
X149352000Y-74804000D01*
X149331998Y-74872121D01*
X149278342Y-74918614D01*
X149226000Y-74930000D01*
X146514991Y-74930000D01*
X146446870Y-74909998D01*
X146438287Y-74903962D01*
X146396792Y-74872121D01*
X146332063Y-74822453D01*
X146196007Y-74766096D01*
X146187823Y-74765019D01*
X146187821Y-74765018D01*
X146058188Y-74747952D01*
X146050000Y-74746874D01*
X146041812Y-74747952D01*
X145912179Y-74765018D01*
X145912177Y-74765019D01*
X145903993Y-74766096D01*
X145767937Y-74822453D01*
X145703209Y-74872121D01*
X145661713Y-74903962D01*
X145595493Y-74929563D01*
X145585009Y-74930000D01*
X127761000Y-74930000D01*
X127692879Y-74909998D01*
X127646386Y-74856342D01*
X127635000Y-74804000D01*
X127635000Y-73532000D01*
X127655002Y-73463879D01*
X127708658Y-73417386D01*
X127761000Y-73406000D01*
X130175000Y-73406000D01*
X130175000Y-73393815D01*
X130208531Y-73332406D01*
X130270843Y-73298380D01*
X130297628Y-73295500D01*
X131787612Y-73295500D01*
X131855733Y-73315502D01*
X131896248Y-73363981D01*
X131897266Y-73363301D01*
X131953516Y-73447484D01*
X132037699Y-73503734D01*
X132111933Y-73518500D01*
X132162251Y-73518500D01*
X133061000Y-73518499D01*
X133129121Y-73538501D01*
X133175614Y-73592157D01*
X133187000Y-73644499D01*
X133187000Y-74264000D01*
X136437000Y-74264000D01*
X137637000Y-74264000D01*
X141237000Y-74264000D01*
X141237000Y-73514000D01*
X137637000Y-73514000D01*
X137637000Y-74264000D01*
X136437000Y-74264000D01*
X136437000Y-73514000D01*
X133700264Y-73514000D01*
X133632143Y-73493998D01*
X133585650Y-73440342D01*
X133575546Y-73370068D01*
X133577371Y-73363428D01*
X133576734Y-73363301D01*
X133590293Y-73295135D01*
X133591500Y-73289067D01*
X133591499Y-72538934D01*
X133576734Y-72464699D01*
X133580250Y-72464000D01*
X137737000Y-72464000D01*
X138911000Y-72464000D01*
X138979121Y-72484002D01*
X139025614Y-72537658D01*
X139037000Y-72590000D01*
X139037000Y-73164000D01*
X146637000Y-73164000D01*
X146637000Y-72464000D01*
X139463000Y-72464000D01*
X139394879Y-72443998D01*
X139348386Y-72390342D01*
X139337000Y-72338000D01*
X139337000Y-64114000D01*
X147437000Y-64114000D01*
X148787000Y-64114000D01*
X148787000Y-61564000D01*
X147437000Y-61564000D01*
X147437000Y-64114000D01*
X139337000Y-64114000D01*
X139337000Y-63764000D01*
X137737000Y-63764000D01*
X137737000Y-72464000D01*
X133580250Y-72464000D01*
X133580934Y-72463864D01*
X133575843Y-72416676D01*
X133576828Y-72413320D01*
X133576734Y-72413301D01*
X133590293Y-72345135D01*
X133591500Y-72339067D01*
X133591499Y-71588934D01*
X133576734Y-71514699D01*
X133556223Y-71484002D01*
X133535008Y-71416249D01*
X133556223Y-71343998D01*
X133569839Y-71323621D01*
X133569840Y-71323618D01*
X133576734Y-71313301D01*
X133591500Y-71239067D01*
X133591499Y-70488934D01*
X133576734Y-70414699D01*
X133520484Y-70330516D01*
X133436301Y-70274266D01*
X133362067Y-70259500D01*
X132737102Y-70259500D01*
X132111934Y-70259501D01*
X132076182Y-70266612D01*
X132049874Y-70271844D01*
X132049872Y-70271845D01*
X132037699Y-70274266D01*
X132027379Y-70281161D01*
X132027378Y-70281162D01*
X131966985Y-70321516D01*
X131953516Y-70330516D01*
X131897266Y-70414699D01*
X131896429Y-70414139D01*
X131859472Y-70459999D01*
X131787612Y-70482500D01*
X130301000Y-70482500D01*
X130232879Y-70462498D01*
X130186386Y-70408842D01*
X130175000Y-70356500D01*
X130175000Y-69171500D01*
X130195002Y-69103379D01*
X130248658Y-69056886D01*
X130301000Y-69045500D01*
X131787612Y-69045500D01*
X131855733Y-69065502D01*
X131896248Y-69113981D01*
X131897266Y-69113301D01*
X131953516Y-69197484D01*
X132037699Y-69253734D01*
X132111933Y-69268500D01*
X132736898Y-69268500D01*
X133362066Y-69268499D01*
X133397818Y-69261388D01*
X133424126Y-69256156D01*
X133424128Y-69256155D01*
X133436301Y-69253734D01*
X133446621Y-69246839D01*
X133446622Y-69246838D01*
X133510168Y-69204377D01*
X133520484Y-69197484D01*
X133576734Y-69113301D01*
X133591500Y-69039067D01*
X133591499Y-68288934D01*
X133579002Y-68226102D01*
X133585331Y-68155388D01*
X133628886Y-68099322D01*
X133694779Y-68075765D01*
X133743508Y-68072742D01*
X133751310Y-68072500D01*
X133767513Y-68072500D01*
X133776429Y-68071223D01*
X133777878Y-68071016D01*
X133787928Y-68069987D01*
X133826216Y-68067611D01*
X133835177Y-68067055D01*
X133843623Y-68064006D01*
X133846514Y-68063407D01*
X133863480Y-68059178D01*
X133866305Y-68058352D01*
X133875187Y-68057080D01*
X133918298Y-68037478D01*
X133927649Y-68033672D01*
X133963735Y-68020645D01*
X133972181Y-68017596D01*
X133979429Y-68012301D01*
X133982027Y-68010920D01*
X133997145Y-68002085D01*
X133999614Y-68000506D01*
X134007782Y-67996792D01*
X134043653Y-67965884D01*
X134051569Y-67959599D01*
X134058615Y-67954452D01*
X134058620Y-67954447D01*
X134062552Y-67951575D01*
X134073527Y-67940600D01*
X134080375Y-67934242D01*
X134111323Y-67907576D01*
X134111324Y-67907575D01*
X134118127Y-67901713D01*
X134123011Y-67894178D01*
X134128458Y-67887934D01*
X134138058Y-67876069D01*
X134421304Y-67592823D01*
X134430844Y-67585200D01*
X134430530Y-67584832D01*
X134437366Y-67579014D01*
X134444958Y-67574224D01*
X134480593Y-67533875D01*
X134485939Y-67528188D01*
X134497382Y-67516745D01*
X134503659Y-67508370D01*
X134510033Y-67500541D01*
X134541378Y-67465049D01*
X134545192Y-67456926D01*
X134546826Y-67454438D01*
X134555814Y-67439477D01*
X134557230Y-67436891D01*
X134562616Y-67429705D01*
X134579244Y-67385350D01*
X134583164Y-67376048D01*
X134599467Y-67341323D01*
X134603281Y-67333200D01*
X134604662Y-67324334D01*
X134605518Y-67321533D01*
X134609962Y-67304596D01*
X134610595Y-67301716D01*
X134613744Y-67293316D01*
X134617252Y-67246111D01*
X134618406Y-67236063D01*
X134619750Y-67227429D01*
X134620500Y-67222614D01*
X134620500Y-67207077D01*
X134620847Y-67197739D01*
X134623874Y-67157010D01*
X134623874Y-67157009D01*
X134624539Y-67148059D01*
X134622666Y-67139284D01*
X134622103Y-67131027D01*
X134620500Y-67115838D01*
X134620500Y-60075958D01*
X134630091Y-60027740D01*
X134653744Y-59970636D01*
X134656904Y-59963007D01*
X134676126Y-59817000D01*
X134666795Y-59746126D01*
X134657982Y-59679179D01*
X134657981Y-59679177D01*
X134656904Y-59670993D01*
X134653744Y-59663364D01*
X134630091Y-59606260D01*
X134620500Y-59558042D01*
X134620500Y-59313958D01*
X134630091Y-59265740D01*
X134653744Y-59208636D01*
X134656904Y-59201007D01*
X134658329Y-59190188D01*
X134661703Y-59164554D01*
X134690425Y-59099627D01*
X134749690Y-59060535D01*
X134786625Y-59055000D01*
X135073952Y-59055000D01*
X135142073Y-59075002D01*
G37*
G04 #@! TD.AperFunction*
G04 #@! TA.AperFunction,Conductor*
G36*
X133505496Y-59075002D02*
G01*
X133551989Y-59128658D01*
X133562297Y-59164554D01*
X133565672Y-59190188D01*
X133567096Y-59201007D01*
X133570256Y-59208636D01*
X133593909Y-59265740D01*
X133603500Y-59313958D01*
X133603500Y-59558042D01*
X133593909Y-59606260D01*
X133570256Y-59663364D01*
X133567096Y-59670993D01*
X133566019Y-59679177D01*
X133566018Y-59679179D01*
X133557205Y-59746126D01*
X133547874Y-59817000D01*
X133567096Y-59963007D01*
X133570256Y-59970636D01*
X133593909Y-60027740D01*
X133603500Y-60075958D01*
X133603500Y-63557570D01*
X133583498Y-63625691D01*
X133529842Y-63672184D01*
X133459568Y-63682288D01*
X133440463Y-63677047D01*
X133436301Y-63674266D01*
X133362067Y-63659500D01*
X132737102Y-63659500D01*
X132111934Y-63659501D01*
X132076182Y-63666612D01*
X132049874Y-63671844D01*
X132049872Y-63671845D01*
X132037699Y-63674266D01*
X132027379Y-63681161D01*
X132027378Y-63681162D01*
X132025693Y-63682288D01*
X131953516Y-63730516D01*
X131897266Y-63814699D01*
X131882500Y-63888933D01*
X131882501Y-64639066D01*
X131897266Y-64713301D01*
X131904161Y-64723621D01*
X131904162Y-64723622D01*
X131917777Y-64743998D01*
X131938992Y-64811751D01*
X131917777Y-64884002D01*
X131903519Y-64905340D01*
X131903518Y-64905342D01*
X131897640Y-64914139D01*
X131897266Y-64914699D01*
X131896429Y-64914139D01*
X131859472Y-64959999D01*
X131787612Y-64982500D01*
X130301000Y-64982500D01*
X130232879Y-64962498D01*
X130186386Y-64908842D01*
X130175000Y-64856500D01*
X130175000Y-59181000D01*
X130195002Y-59112879D01*
X130248658Y-59066386D01*
X130301000Y-59055000D01*
X133437375Y-59055000D01*
X133505496Y-59075002D01*
G37*
G04 #@! TD.AperFunction*
G04 #@! TA.AperFunction,Conductor*
G36*
X96081121Y-57297002D02*
G01*
X96127614Y-57350658D01*
X96139000Y-57403000D01*
X96139000Y-59177500D01*
X96118998Y-59245621D01*
X96065342Y-59292114D01*
X96013000Y-59303500D01*
X85089000Y-59303500D01*
X85085654Y-59303860D01*
X85085649Y-59303860D01*
X85037205Y-59309068D01*
X85037199Y-59309069D01*
X85033841Y-59309430D01*
X84981499Y-59320816D01*
X84954709Y-59328166D01*
X84947858Y-59332067D01*
X84947856Y-59332068D01*
X84872101Y-59375206D01*
X84866722Y-59378269D01*
X84813066Y-59424762D01*
X84780944Y-59458051D01*
X84734013Y-59547770D01*
X84714011Y-59615891D01*
X84703500Y-59689000D01*
X84703500Y-63628000D01*
X84683498Y-63696121D01*
X84629842Y-63742614D01*
X84577500Y-63754000D01*
X82041000Y-63754000D01*
X81972879Y-63733998D01*
X81926386Y-63680342D01*
X81915000Y-63628000D01*
X81915000Y-57403000D01*
X81935002Y-57334879D01*
X81988658Y-57288386D01*
X82041000Y-57277000D01*
X96013000Y-57277000D01*
X96081121Y-57297002D01*
G37*
G04 #@! TD.AperFunction*
G04 #@! TA.AperFunction,Conductor*
G36*
X79063121Y-61107002D02*
G01*
X79109614Y-61160658D01*
X79121000Y-61213000D01*
X79121000Y-67057000D01*
X79100998Y-67125121D01*
X79047342Y-67171614D01*
X78995000Y-67183000D01*
X75056000Y-67183000D01*
X74987879Y-67162998D01*
X74941386Y-67109342D01*
X74930000Y-67057000D01*
X74930000Y-61213000D01*
X74950002Y-61144879D01*
X75003658Y-61098386D01*
X75056000Y-61087000D01*
X78995000Y-61087000D01*
X79063121Y-61107002D01*
G37*
G04 #@! TD.AperFunction*
G04 #@! TA.AperFunction,Conductor*
G36*
X88461121Y-76220002D02*
G01*
X88507614Y-76273658D01*
X88519000Y-76326000D01*
X88519000Y-82297000D01*
X88498998Y-82365121D01*
X88445342Y-82411614D01*
X88393000Y-82423000D01*
X83565000Y-82423000D01*
X83496879Y-82402998D01*
X83450386Y-82349342D01*
X83439000Y-82297000D01*
X83439000Y-76326000D01*
X83459002Y-76257879D01*
X83512658Y-76211386D01*
X83565000Y-76200000D01*
X88393000Y-76200000D01*
X88461121Y-76220002D01*
G37*
G04 #@! TD.AperFunction*
G04 #@! TA.AperFunction,Conductor*
G36*
X74237121Y-76347002D02*
G01*
X74283614Y-76400658D01*
X74295000Y-76453000D01*
X74295000Y-81789000D01*
X74274998Y-81857121D01*
X74221342Y-81903614D01*
X74169000Y-81915000D01*
X70230000Y-81915000D01*
X70161879Y-81894998D01*
X70115386Y-81841342D01*
X70104000Y-81789000D01*
X70104000Y-76453000D01*
X70124002Y-76384879D01*
X70177658Y-76338386D01*
X70230000Y-76327000D01*
X74169000Y-76327000D01*
X74237121Y-76347002D01*
G37*
G04 #@! TD.AperFunction*
G04 #@! TA.AperFunction,Conductor*
G36*
X74491121Y-51074502D02*
G01*
X74537614Y-51128158D01*
X74549000Y-51180500D01*
X74549000Y-53976000D01*
X74528998Y-54044121D01*
X74475342Y-54090614D01*
X74423000Y-54102000D01*
X69695120Y-54102000D01*
X69626999Y-54081998D01*
X69606025Y-54065095D01*
X69397816Y-53856886D01*
X69386949Y-53844495D01*
X69373981Y-53827595D01*
X69368955Y-53821045D01*
X69249468Y-53729359D01*
X69110322Y-53671723D01*
X69079625Y-53667682D01*
X68998503Y-53657001D01*
X68998494Y-53657000D01*
X68998491Y-53657000D01*
X68998479Y-53656999D01*
X68969189Y-53653143D01*
X68969188Y-53653143D01*
X68961000Y-53652065D01*
X68952812Y-53653143D01*
X68952811Y-53653143D01*
X68931702Y-53655922D01*
X68915256Y-53657000D01*
X66593744Y-53657000D01*
X66577298Y-53655922D01*
X66556189Y-53653143D01*
X66556188Y-53653143D01*
X66548000Y-53652065D01*
X66539812Y-53653143D01*
X66539811Y-53653143D01*
X66510521Y-53656999D01*
X66510509Y-53657000D01*
X66510506Y-53657000D01*
X66510497Y-53657001D01*
X66429375Y-53667682D01*
X66398678Y-53671723D01*
X66259532Y-53729359D01*
X66140045Y-53821045D01*
X66135019Y-53827595D01*
X66122051Y-53844495D01*
X66111184Y-53856886D01*
X65902975Y-54065095D01*
X65840663Y-54099121D01*
X65813880Y-54102000D01*
X60832000Y-54102000D01*
X60763879Y-54081998D01*
X60717386Y-54028342D01*
X60706000Y-53976000D01*
X60706000Y-51180500D01*
X60726002Y-51112379D01*
X60779658Y-51065886D01*
X60832000Y-51054500D01*
X74423000Y-51054500D01*
X74491121Y-51074502D01*
G37*
G04 #@! TD.AperFunction*
G04 #@! TA.AperFunction,Conductor*
G36*
X83121621Y-76220002D02*
G01*
X83168114Y-76273658D01*
X83179500Y-76326000D01*
X83179500Y-82297000D01*
X83185430Y-82352159D01*
X83196816Y-82404501D01*
X83204166Y-82431291D01*
X83254269Y-82519278D01*
X83300762Y-82572934D01*
X83334051Y-82605056D01*
X83423770Y-82651987D01*
X83429706Y-82653730D01*
X83487568Y-82670720D01*
X83487572Y-82670721D01*
X83491891Y-82671989D01*
X83496339Y-82672629D01*
X83496346Y-82672630D01*
X83560552Y-82681861D01*
X83560559Y-82681861D01*
X83565000Y-82682500D01*
X85472000Y-82682500D01*
X85540121Y-82702502D01*
X85586614Y-82756158D01*
X85598000Y-82808500D01*
X85598000Y-88012000D01*
X85577998Y-88080121D01*
X85524342Y-88126614D01*
X85472000Y-88138000D01*
X79374000Y-88138000D01*
X79305879Y-88117998D01*
X79259386Y-88064342D01*
X79248000Y-88012000D01*
X79248000Y-81153000D01*
X77088000Y-81153000D01*
X77019879Y-81132998D01*
X76973386Y-81079342D01*
X76962000Y-81027000D01*
X76962000Y-76326000D01*
X76982002Y-76257879D01*
X77035658Y-76211386D01*
X77088000Y-76200000D01*
X83053500Y-76200000D01*
X83121621Y-76220002D01*
G37*
G04 #@! TD.AperFunction*
G04 #@! TA.AperFunction,Conductor*
G36*
X96462121Y-59583002D02*
G01*
X96508614Y-59636658D01*
X96520000Y-59689000D01*
X96520000Y-60912054D01*
X96499998Y-60980175D01*
X96476632Y-61005706D01*
X96474726Y-61006735D01*
X96467657Y-61014382D01*
X96467656Y-61014383D01*
X96440481Y-61043781D01*
X96437051Y-61047348D01*
X96235350Y-61249048D01*
X96173038Y-61283073D01*
X96146769Y-61285897D01*
X96139000Y-61284874D01*
X96130812Y-61285952D01*
X96001179Y-61303018D01*
X96001177Y-61303019D01*
X95992993Y-61304096D01*
X95856937Y-61360453D01*
X95740103Y-61450103D01*
X95650453Y-61566937D01*
X95594096Y-61702993D01*
X95574874Y-61849000D01*
X95594096Y-61995007D01*
X95650453Y-62131063D01*
X95740103Y-62247897D01*
X95856937Y-62337547D01*
X95992993Y-62393904D01*
X96001177Y-62394981D01*
X96001179Y-62394982D01*
X96130812Y-62412048D01*
X96139000Y-62413126D01*
X96147188Y-62412048D01*
X96276821Y-62394982D01*
X96276823Y-62394981D01*
X96285007Y-62393904D01*
X96292635Y-62390744D01*
X96292640Y-62390743D01*
X96345781Y-62368731D01*
X96416371Y-62361141D01*
X96479858Y-62392920D01*
X96516086Y-62453977D01*
X96520000Y-62485139D01*
X96520000Y-65889900D01*
X96499998Y-65958021D01*
X96446342Y-66004514D01*
X96394000Y-66015900D01*
X93953432Y-66015900D01*
X93933371Y-66013765D01*
X93929187Y-66013568D01*
X93919007Y-66011376D01*
X93888160Y-66015027D01*
X93882785Y-66015344D01*
X93882796Y-66015472D01*
X93877618Y-66015900D01*
X93872416Y-66015900D01*
X93861081Y-66017787D01*
X93854757Y-66018839D01*
X93848885Y-66019674D01*
X93811626Y-66024084D01*
X93811619Y-66024086D01*
X93801278Y-66025310D01*
X93793532Y-66029030D01*
X93785058Y-66030440D01*
X93746452Y-66051270D01*
X93742891Y-66053192D01*
X93737604Y-66055885D01*
X93701558Y-66073195D01*
X93701555Y-66073197D01*
X93694410Y-66076628D01*
X93690400Y-66079999D01*
X93688462Y-66081937D01*
X93686811Y-66083452D01*
X93686401Y-66083673D01*
X93686363Y-66083631D01*
X93686180Y-66083792D01*
X93680726Y-66086735D01*
X93673658Y-66094382D01*
X93673657Y-66094382D01*
X93646469Y-66123794D01*
X93643039Y-66127360D01*
X91329403Y-68440995D01*
X91267091Y-68475021D01*
X91240308Y-68477900D01*
X90832622Y-68477900D01*
X90764501Y-68457898D01*
X90718008Y-68404242D01*
X90707904Y-68333968D01*
X90714637Y-68307679D01*
X90736881Y-68248342D01*
X90743500Y-68187415D01*
X90743499Y-67605586D01*
X90738928Y-67563500D01*
X90737735Y-67552517D01*
X90737734Y-67552514D01*
X90736881Y-67544658D01*
X90705700Y-67461479D01*
X90689935Y-67419426D01*
X90686783Y-67411018D01*
X90678598Y-67400096D01*
X90606571Y-67303992D01*
X90601189Y-67296811D01*
X90577795Y-67279278D01*
X90494166Y-67216601D01*
X90494165Y-67216601D01*
X90486982Y-67211217D01*
X90466957Y-67203710D01*
X90360740Y-67163892D01*
X90360738Y-67163891D01*
X90353342Y-67161119D01*
X90292415Y-67154500D01*
X89789074Y-67154500D01*
X89285586Y-67154501D01*
X89282192Y-67154870D01*
X89282186Y-67154870D01*
X89232517Y-67160265D01*
X89232514Y-67160266D01*
X89224658Y-67161119D01*
X89217256Y-67163894D01*
X89217255Y-67163894D01*
X89111043Y-67203710D01*
X89091018Y-67211217D01*
X89083835Y-67216601D01*
X89083834Y-67216601D01*
X89000205Y-67279278D01*
X88976811Y-67296811D01*
X88971429Y-67303992D01*
X88899403Y-67400096D01*
X88891217Y-67411018D01*
X88864708Y-67481731D01*
X88822070Y-67538493D01*
X88755508Y-67563194D01*
X88746728Y-67563500D01*
X88221340Y-67563500D01*
X88153219Y-67543498D01*
X88144650Y-67537473D01*
X88039063Y-67456453D01*
X87903007Y-67400096D01*
X87894823Y-67399019D01*
X87894821Y-67399018D01*
X87765188Y-67381952D01*
X87757000Y-67380874D01*
X87748812Y-67381952D01*
X87619179Y-67399018D01*
X87619177Y-67399019D01*
X87610993Y-67400096D01*
X87474937Y-67456453D01*
X87358103Y-67546103D01*
X87268453Y-67662937D01*
X87212096Y-67798993D01*
X87192874Y-67945000D01*
X87212096Y-68091007D01*
X87268453Y-68227063D01*
X87273479Y-68233613D01*
X87305387Y-68275196D01*
X87330988Y-68341416D01*
X87316723Y-68410965D01*
X87267122Y-68461761D01*
X87205425Y-68477900D01*
X85480506Y-68477900D01*
X85460457Y-68475766D01*
X85456267Y-68475568D01*
X85446085Y-68473376D01*
X85435744Y-68474600D01*
X85415240Y-68477027D01*
X85409862Y-68477344D01*
X85409873Y-68477472D01*
X85404695Y-68477900D01*
X85399495Y-68477900D01*
X85394367Y-68478754D01*
X85394363Y-68478754D01*
X85381818Y-68480842D01*
X85375940Y-68481679D01*
X85357661Y-68483843D01*
X85328356Y-68487311D01*
X85320613Y-68491029D01*
X85312137Y-68492440D01*
X85302976Y-68497383D01*
X85269965Y-68515194D01*
X85264679Y-68517887D01*
X85228637Y-68535195D01*
X85228634Y-68535197D01*
X85221489Y-68538628D01*
X85217479Y-68541999D01*
X85215541Y-68543937D01*
X85213890Y-68545452D01*
X85213480Y-68545673D01*
X85213442Y-68545631D01*
X85213259Y-68545792D01*
X85207805Y-68548735D01*
X85200737Y-68556382D01*
X85200736Y-68556382D01*
X85173548Y-68585794D01*
X85170118Y-68589360D01*
X84073382Y-69686095D01*
X84011070Y-69720121D01*
X83984287Y-69723000D01*
X78485000Y-69723000D01*
X78416879Y-69702998D01*
X78370386Y-69649342D01*
X78359000Y-69597000D01*
X78359000Y-67568500D01*
X78379002Y-67500379D01*
X78432658Y-67453886D01*
X78485000Y-67442500D01*
X78995000Y-67442500D01*
X78998346Y-67442140D01*
X78998351Y-67442140D01*
X79046795Y-67436932D01*
X79046801Y-67436931D01*
X79050159Y-67436570D01*
X79102501Y-67425184D01*
X79129291Y-67417834D01*
X79136142Y-67413933D01*
X79136144Y-67413932D01*
X79211899Y-67370794D01*
X79217278Y-67367731D01*
X79257436Y-67332934D01*
X79268811Y-67323078D01*
X79268816Y-67323073D01*
X79270934Y-67321238D01*
X79303056Y-67287949D01*
X79349987Y-67198230D01*
X79351730Y-67192294D01*
X79368720Y-67134432D01*
X79368721Y-67134428D01*
X79369989Y-67130109D01*
X79380500Y-67057000D01*
X79380500Y-64388000D01*
X79400502Y-64319879D01*
X79454158Y-64273386D01*
X79506500Y-64262000D01*
X84963000Y-64262000D01*
X84963000Y-59689000D01*
X84983002Y-59620879D01*
X85036658Y-59574386D01*
X85089000Y-59563000D01*
X96394000Y-59563000D01*
X96462121Y-59583002D01*
G37*
G04 #@! TD.AperFunction*
G04 #@! TA.AperFunction,Conductor*
G36*
X108400121Y-63266002D02*
G01*
X108446614Y-63319658D01*
X108458000Y-63372000D01*
X108458000Y-69597000D01*
X108437998Y-69665121D01*
X108384342Y-69711614D01*
X108332000Y-69723000D01*
X101980000Y-69723000D01*
X101911879Y-69702998D01*
X101865386Y-69649342D01*
X101854000Y-69597000D01*
X101854000Y-63372000D01*
X101874002Y-63303879D01*
X101927658Y-63257386D01*
X101980000Y-63246000D01*
X108332000Y-63246000D01*
X108400121Y-63266002D01*
G37*
G04 #@! TD.AperFunction*
G04 #@! TA.AperFunction,Conductor*
G36*
X67379121Y-61996002D02*
G01*
X67425614Y-62049658D01*
X67437000Y-62102000D01*
X67437000Y-68962000D01*
X67416998Y-69030121D01*
X67363342Y-69076614D01*
X67311000Y-69088000D01*
X66294000Y-69088000D01*
X66294000Y-69851000D01*
X66273998Y-69919121D01*
X66220342Y-69965614D01*
X66168000Y-69977000D01*
X60959000Y-69977000D01*
X60890879Y-69956998D01*
X60844386Y-69903342D01*
X60833000Y-69851000D01*
X60833000Y-67309000D01*
X60853002Y-67240879D01*
X60906658Y-67194386D01*
X60959000Y-67183000D01*
X63627000Y-67183000D01*
X63627000Y-62102000D01*
X63647002Y-62033879D01*
X63700658Y-61987386D01*
X63753000Y-61976000D01*
X67311000Y-61976000D01*
X67379121Y-61996002D01*
G37*
G04 #@! TD.AperFunction*
G04 #@! TA.AperFunction,Conductor*
G36*
X121227121Y-75966002D02*
G01*
X121273614Y-76019658D01*
X121285000Y-76072000D01*
X121285000Y-87758000D01*
X121264998Y-87826121D01*
X121211342Y-87872614D01*
X121159000Y-87884000D01*
X118363000Y-87884000D01*
X118294879Y-87863998D01*
X118248386Y-87810342D01*
X118237000Y-87758000D01*
X118237000Y-76072000D01*
X118257002Y-76003879D01*
X118310658Y-75957386D01*
X118363000Y-75946000D01*
X121159000Y-75946000D01*
X121227121Y-75966002D01*
G37*
G04 #@! TD.AperFunction*
G04 #@! TA.AperFunction,Conductor*
G36*
X148659121Y-90825002D02*
G01*
X148705614Y-90878658D01*
X148717000Y-90931000D01*
X148717000Y-101093000D01*
X148696998Y-101161121D01*
X148643342Y-101207614D01*
X148591000Y-101219000D01*
X147446000Y-101219000D01*
X147377879Y-101198998D01*
X147331386Y-101145342D01*
X147320000Y-101093000D01*
X147320000Y-97409000D01*
X145033000Y-97409000D01*
X144964879Y-97388998D01*
X144918386Y-97335342D01*
X144907000Y-97283000D01*
X144907000Y-90931000D01*
X144927002Y-90862879D01*
X144980658Y-90816386D01*
X145033000Y-90805000D01*
X148591000Y-90805000D01*
X148659121Y-90825002D01*
G37*
G04 #@! TD.AperFunction*
G04 #@! TA.AperFunction,Conductor*
G36*
X76650121Y-76220002D02*
G01*
X76696614Y-76273658D01*
X76708000Y-76326000D01*
X76708000Y-80011000D01*
X76687998Y-80079121D01*
X76634342Y-80125614D01*
X76582000Y-80137000D01*
X74929000Y-80137000D01*
X74860879Y-80116998D01*
X74814386Y-80063342D01*
X74803000Y-80011000D01*
X74803000Y-76326000D01*
X74823002Y-76257879D01*
X74876658Y-76211386D01*
X74929000Y-76200000D01*
X76582000Y-76200000D01*
X76650121Y-76220002D01*
G37*
G04 #@! TD.AperFunction*
G04 #@! TA.AperFunction,Conductor*
G36*
X140350931Y-85237002D02*
G01*
X140371905Y-85253905D01*
X143092095Y-87974095D01*
X143126121Y-88036407D01*
X143129000Y-88063190D01*
X143129000Y-104914812D01*
X143108998Y-104982933D01*
X143089413Y-105006511D01*
X143036674Y-105056210D01*
X142793664Y-105340738D01*
X142791736Y-105343565D01*
X142791734Y-105343567D01*
X142622076Y-105592277D01*
X142582804Y-105649847D01*
X142581197Y-105652857D01*
X142581195Y-105652860D01*
X142521828Y-105764045D01*
X142406561Y-105979921D01*
X142266997Y-106327098D01*
X142165744Y-106687317D01*
X142103986Y-107056365D01*
X142082447Y-107429924D01*
X142101378Y-107803624D01*
X142160557Y-108173094D01*
X142259293Y-108534011D01*
X142396430Y-108882154D01*
X142570365Y-109213450D01*
X142779061Y-109524024D01*
X142781256Y-109526630D01*
X142781260Y-109526636D01*
X142803328Y-109552842D01*
X143020079Y-109810241D01*
X143074623Y-109862365D01*
X143090051Y-109877108D01*
X143125481Y-109938633D01*
X143129000Y-109968202D01*
X143129000Y-111379500D01*
X143108998Y-111447621D01*
X143055342Y-111494114D01*
X143003000Y-111505500D01*
X77723000Y-111505500D01*
X77654879Y-111485498D01*
X77608386Y-111431842D01*
X77597000Y-111379500D01*
X77597000Y-107695000D01*
X77617002Y-107626879D01*
X77670658Y-107580386D01*
X77723000Y-107569000D01*
X139954000Y-107569000D01*
X139954000Y-88519000D01*
X137922000Y-86487000D01*
X133730000Y-86487000D01*
X133661879Y-86466998D01*
X133615386Y-86413342D01*
X133604000Y-86361000D01*
X133604000Y-85343000D01*
X133624002Y-85274879D01*
X133677658Y-85228386D01*
X133730000Y-85217000D01*
X140282810Y-85217000D01*
X140350931Y-85237002D01*
G37*
G04 #@! TD.AperFunction*
G04 #@! TA.AperFunction,Conductor*
G36*
X70073860Y-62123502D02*
G01*
X70120353Y-62177158D01*
X70130457Y-62247432D01*
X70125332Y-62269167D01*
X70086203Y-62387139D01*
X70075500Y-62491600D01*
X70075500Y-63492400D01*
X70086474Y-63598166D01*
X70142450Y-63765946D01*
X70235522Y-63916348D01*
X70360697Y-64041305D01*
X70366927Y-64045145D01*
X70366928Y-64045146D01*
X70504095Y-64129697D01*
X70511262Y-64134115D01*
X70591005Y-64160564D01*
X70672611Y-64187632D01*
X70672613Y-64187632D01*
X70679139Y-64189797D01*
X70685975Y-64190497D01*
X70685978Y-64190498D01*
X70729031Y-64194909D01*
X70783600Y-64200500D01*
X71409400Y-64200500D01*
X71412646Y-64200163D01*
X71412650Y-64200163D01*
X71508308Y-64190238D01*
X71508312Y-64190237D01*
X71515166Y-64189526D01*
X71521702Y-64187345D01*
X71521704Y-64187345D01*
X71653806Y-64143272D01*
X71682946Y-64133550D01*
X71689695Y-64129373D01*
X71690099Y-64129262D01*
X71695797Y-64126593D01*
X71696254Y-64127568D01*
X71758144Y-64110534D01*
X71825915Y-64131693D01*
X71871488Y-64186132D01*
X71882000Y-64236516D01*
X71882000Y-68835000D01*
X71861998Y-68903121D01*
X71808342Y-68949614D01*
X71756000Y-68961000D01*
X68071000Y-68961000D01*
X68002879Y-68940998D01*
X67956386Y-68887342D01*
X67945000Y-68835000D01*
X67945000Y-62229500D01*
X67965002Y-62161379D01*
X68018658Y-62114886D01*
X68071000Y-62103500D01*
X70005739Y-62103500D01*
X70073860Y-62123502D01*
G37*
G04 #@! TD.AperFunction*
G04 #@! TA.AperFunction,Conductor*
G36*
X80968121Y-91968002D02*
G01*
X81014614Y-92021658D01*
X81026000Y-92074000D01*
X81026000Y-94147644D01*
X81005998Y-94215765D01*
X80989095Y-94236739D01*
X80393739Y-94832095D01*
X80331427Y-94866121D01*
X80304644Y-94869000D01*
X75818000Y-94869000D01*
X75749879Y-94848998D01*
X75703386Y-94795342D01*
X75692000Y-94743000D01*
X75692000Y-92074000D01*
X75712002Y-92005879D01*
X75765658Y-91959386D01*
X75818000Y-91948000D01*
X80900000Y-91948000D01*
X80968121Y-91968002D01*
G37*
G04 #@! TD.AperFunction*
G04 #@! TA.AperFunction,Conductor*
G36*
X124783121Y-75966002D02*
G01*
X124829614Y-76019658D01*
X124841000Y-76072000D01*
X124841000Y-87758000D01*
X124820998Y-87826121D01*
X124767342Y-87872614D01*
X124715000Y-87884000D01*
X121919000Y-87884000D01*
X121850879Y-87863998D01*
X121804386Y-87810342D01*
X121793000Y-87758000D01*
X121793000Y-76072000D01*
X121813002Y-76003879D01*
X121866658Y-75957386D01*
X121919000Y-75946000D01*
X124715000Y-75946000D01*
X124783121Y-75966002D01*
G37*
G04 #@! TD.AperFunction*
M02*
