G04 #@! TF.GenerationSoftware,KiCad,Pcbnew,6.0.11-2627ca5db0~126~ubuntu22.04.1*
G04 #@! TF.CreationDate,2025-05-31T21:30:08-06:00*
G04 #@! TF.ProjectId,snd-defect,736e642d-6465-4666-9563-742e6b696361,rev?*
G04 #@! TF.SameCoordinates,Original*
G04 #@! TF.FileFunction,Paste,Top*
G04 #@! TF.FilePolarity,Positive*
%FSLAX46Y46*%
G04 Gerber Fmt 4.6, Leading zero omitted, Abs format (unit mm)*
G04 Created by KiCad (PCBNEW 6.0.11-2627ca5db0~126~ubuntu22.04.1) date 2025-05-31 21:30:08*
%MOMM*%
%LPD*%
G01*
G04 APERTURE LIST*
%ADD10R,2.108200X5.562600*%
%ADD11R,1.500000X0.900000*%
%ADD12R,2.660000X0.800000*%
%ADD13R,1.400000X1.900000*%
%ADD14R,0.900000X1.500000*%
%ADD15R,0.900000X0.900000*%
%ADD16R,1.500000X2.000000*%
%ADD17R,3.800000X2.000000*%
%ADD18R,2.300000X0.500000*%
%ADD19R,2.500000X2.000000*%
%ADD20R,1.200000X0.700000*%
%ADD21R,0.800000X1.000000*%
%ADD22R,1.200000X1.000000*%
%ADD23R,2.800000X1.000000*%
%ADD24R,1.900000X1.300000*%
%ADD25R,1.900000X1.400000*%
%ADD26R,0.812800X0.254000*%
%ADD27R,0.254000X0.812800*%
%ADD28R,1.244600X1.244600*%
G04 APERTURE END LIST*
D10*
X71386700Y-79121000D03*
X66789300Y-79121000D03*
D11*
X127037000Y-63245000D03*
X127037000Y-59945000D03*
X122137000Y-59945000D03*
X122137000Y-63245000D03*
G36*
G01*
X63823000Y-57813000D02*
X62923000Y-57813000D01*
G75*
G02*
X62673000Y-57563000I0J250000D01*
G01*
X62673000Y-57038000D01*
G75*
G02*
X62923000Y-56788000I250000J0D01*
G01*
X63823000Y-56788000D01*
G75*
G02*
X64073000Y-57038000I0J-250000D01*
G01*
X64073000Y-57563000D01*
G75*
G02*
X63823000Y-57813000I-250000J0D01*
G01*
G37*
G36*
G01*
X63823000Y-55988000D02*
X62923000Y-55988000D01*
G75*
G02*
X62673000Y-55738000I0J250000D01*
G01*
X62673000Y-55213000D01*
G75*
G02*
X62923000Y-54963000I250000J0D01*
G01*
X63823000Y-54963000D01*
G75*
G02*
X64073000Y-55213000I0J-250000D01*
G01*
X64073000Y-55738000D01*
G75*
G02*
X63823000Y-55988000I-250000J0D01*
G01*
G37*
G36*
G01*
X78635000Y-81572000D02*
X78635000Y-81872000D01*
G75*
G02*
X78485000Y-82022000I-150000J0D01*
G01*
X77460000Y-82022000D01*
G75*
G02*
X77310000Y-81872000I0J150000D01*
G01*
X77310000Y-81572000D01*
G75*
G02*
X77460000Y-81422000I150000J0D01*
G01*
X78485000Y-81422000D01*
G75*
G02*
X78635000Y-81572000I0J-150000D01*
G01*
G37*
G36*
G01*
X78635000Y-80622000D02*
X78635000Y-80922000D01*
G75*
G02*
X78485000Y-81072000I-150000J0D01*
G01*
X77460000Y-81072000D01*
G75*
G02*
X77310000Y-80922000I0J150000D01*
G01*
X77310000Y-80622000D01*
G75*
G02*
X77460000Y-80472000I150000J0D01*
G01*
X78485000Y-80472000D01*
G75*
G02*
X78635000Y-80622000I0J-150000D01*
G01*
G37*
G36*
G01*
X78635000Y-79672000D02*
X78635000Y-79972000D01*
G75*
G02*
X78485000Y-80122000I-150000J0D01*
G01*
X77460000Y-80122000D01*
G75*
G02*
X77310000Y-79972000I0J150000D01*
G01*
X77310000Y-79672000D01*
G75*
G02*
X77460000Y-79522000I150000J0D01*
G01*
X78485000Y-79522000D01*
G75*
G02*
X78635000Y-79672000I0J-150000D01*
G01*
G37*
G36*
G01*
X76360000Y-79672000D02*
X76360000Y-79972000D01*
G75*
G02*
X76210000Y-80122000I-150000J0D01*
G01*
X75185000Y-80122000D01*
G75*
G02*
X75035000Y-79972000I0J150000D01*
G01*
X75035000Y-79672000D01*
G75*
G02*
X75185000Y-79522000I150000J0D01*
G01*
X76210000Y-79522000D01*
G75*
G02*
X76360000Y-79672000I0J-150000D01*
G01*
G37*
G36*
G01*
X76360000Y-80622000D02*
X76360000Y-80922000D01*
G75*
G02*
X76210000Y-81072000I-150000J0D01*
G01*
X75185000Y-81072000D01*
G75*
G02*
X75035000Y-80922000I0J150000D01*
G01*
X75035000Y-80622000D01*
G75*
G02*
X75185000Y-80472000I150000J0D01*
G01*
X76210000Y-80472000D01*
G75*
G02*
X76360000Y-80622000I0J-150000D01*
G01*
G37*
G36*
G01*
X76360000Y-81572000D02*
X76360000Y-81872000D01*
G75*
G02*
X76210000Y-82022000I-150000J0D01*
G01*
X75185000Y-82022000D01*
G75*
G02*
X75035000Y-81872000I0J150000D01*
G01*
X75035000Y-81572000D01*
G75*
G02*
X75185000Y-81422000I150000J0D01*
G01*
X76210000Y-81422000D01*
G75*
G02*
X76360000Y-81572000I0J-150000D01*
G01*
G37*
G36*
G01*
X98986000Y-92108000D02*
X98986000Y-93058000D01*
G75*
G02*
X98736000Y-93308000I-250000J0D01*
G01*
X98236000Y-93308000D01*
G75*
G02*
X97986000Y-93058000I0J250000D01*
G01*
X97986000Y-92108000D01*
G75*
G02*
X98236000Y-91858000I250000J0D01*
G01*
X98736000Y-91858000D01*
G75*
G02*
X98986000Y-92108000I0J-250000D01*
G01*
G37*
G36*
G01*
X97086000Y-92108000D02*
X97086000Y-93058000D01*
G75*
G02*
X96836000Y-93308000I-250000J0D01*
G01*
X96336000Y-93308000D01*
G75*
G02*
X96086000Y-93058000I0J250000D01*
G01*
X96086000Y-92108000D01*
G75*
G02*
X96336000Y-91858000I250000J0D01*
G01*
X96836000Y-91858000D01*
G75*
G02*
X97086000Y-92108000I0J-250000D01*
G01*
G37*
D12*
X135166100Y-85864700D03*
X135166100Y-82664300D03*
X135166100Y-80454500D03*
X135166100Y-78244700D03*
X127977900Y-78244700D03*
X127977900Y-80454500D03*
X127977900Y-82664300D03*
X127977900Y-85864700D03*
G36*
G01*
X93323000Y-107083000D02*
X93323000Y-105833000D01*
G75*
G02*
X93473000Y-105683000I150000J0D01*
G01*
X93773000Y-105683000D01*
G75*
G02*
X93923000Y-105833000I0J-150000D01*
G01*
X93923000Y-107083000D01*
G75*
G02*
X93773000Y-107233000I-150000J0D01*
G01*
X93473000Y-107233000D01*
G75*
G02*
X93323000Y-107083000I0J150000D01*
G01*
G37*
G36*
G01*
X94323000Y-107083000D02*
X94323000Y-105833000D01*
G75*
G02*
X94473000Y-105683000I150000J0D01*
G01*
X94773000Y-105683000D01*
G75*
G02*
X94923000Y-105833000I0J-150000D01*
G01*
X94923000Y-107083000D01*
G75*
G02*
X94773000Y-107233000I-150000J0D01*
G01*
X94473000Y-107233000D01*
G75*
G02*
X94323000Y-107083000I0J150000D01*
G01*
G37*
G36*
G01*
X95323000Y-107083000D02*
X95323000Y-105833000D01*
G75*
G02*
X95473000Y-105683000I150000J0D01*
G01*
X95773000Y-105683000D01*
G75*
G02*
X95923000Y-105833000I0J-150000D01*
G01*
X95923000Y-107083000D01*
G75*
G02*
X95773000Y-107233000I-150000J0D01*
G01*
X95473000Y-107233000D01*
G75*
G02*
X95323000Y-107083000I0J150000D01*
G01*
G37*
G36*
G01*
X96323000Y-107083000D02*
X96323000Y-105833000D01*
G75*
G02*
X96473000Y-105683000I150000J0D01*
G01*
X96773000Y-105683000D01*
G75*
G02*
X96923000Y-105833000I0J-150000D01*
G01*
X96923000Y-107083000D01*
G75*
G02*
X96773000Y-107233000I-150000J0D01*
G01*
X96473000Y-107233000D01*
G75*
G02*
X96323000Y-107083000I0J150000D01*
G01*
G37*
G36*
G01*
X91723000Y-110983000D02*
X91723000Y-109683000D01*
G75*
G02*
X91973000Y-109433000I250000J0D01*
G01*
X92673000Y-109433000D01*
G75*
G02*
X92923000Y-109683000I0J-250000D01*
G01*
X92923000Y-110983000D01*
G75*
G02*
X92673000Y-111233000I-250000J0D01*
G01*
X91973000Y-111233000D01*
G75*
G02*
X91723000Y-110983000I0J250000D01*
G01*
G37*
G36*
G01*
X97323000Y-110983000D02*
X97323000Y-109683000D01*
G75*
G02*
X97573000Y-109433000I250000J0D01*
G01*
X98273000Y-109433000D01*
G75*
G02*
X98523000Y-109683000I0J-250000D01*
G01*
X98523000Y-110983000D01*
G75*
G02*
X98273000Y-111233000I-250000J0D01*
G01*
X97573000Y-111233000D01*
G75*
G02*
X97323000Y-110983000I0J250000D01*
G01*
G37*
G36*
G01*
X66749000Y-86962000D02*
X66749000Y-86012000D01*
G75*
G02*
X66999000Y-85762000I250000J0D01*
G01*
X67499000Y-85762000D01*
G75*
G02*
X67749000Y-86012000I0J-250000D01*
G01*
X67749000Y-86962000D01*
G75*
G02*
X67499000Y-87212000I-250000J0D01*
G01*
X66999000Y-87212000D01*
G75*
G02*
X66749000Y-86962000I0J250000D01*
G01*
G37*
G36*
G01*
X68649000Y-86962000D02*
X68649000Y-86012000D01*
G75*
G02*
X68899000Y-85762000I250000J0D01*
G01*
X69399000Y-85762000D01*
G75*
G02*
X69649000Y-86012000I0J-250000D01*
G01*
X69649000Y-86962000D01*
G75*
G02*
X69399000Y-87212000I-250000J0D01*
G01*
X68899000Y-87212000D01*
G75*
G02*
X68649000Y-86962000I0J250000D01*
G01*
G37*
D13*
X73280000Y-89535000D03*
X76580000Y-89535000D03*
G36*
G01*
X95217000Y-60886000D02*
X94267000Y-60886000D01*
G75*
G02*
X94017000Y-60636000I0J250000D01*
G01*
X94017000Y-60136000D01*
G75*
G02*
X94267000Y-59886000I250000J0D01*
G01*
X95217000Y-59886000D01*
G75*
G02*
X95467000Y-60136000I0J-250000D01*
G01*
X95467000Y-60636000D01*
G75*
G02*
X95217000Y-60886000I-250000J0D01*
G01*
G37*
G36*
G01*
X95217000Y-58986000D02*
X94267000Y-58986000D01*
G75*
G02*
X94017000Y-58736000I0J250000D01*
G01*
X94017000Y-58236000D01*
G75*
G02*
X94267000Y-57986000I250000J0D01*
G01*
X95217000Y-57986000D01*
G75*
G02*
X95467000Y-58236000I0J-250000D01*
G01*
X95467000Y-58736000D01*
G75*
G02*
X95217000Y-58986000I-250000J0D01*
G01*
G37*
G36*
G01*
X133963000Y-107083000D02*
X133963000Y-105833000D01*
G75*
G02*
X134113000Y-105683000I150000J0D01*
G01*
X134413000Y-105683000D01*
G75*
G02*
X134563000Y-105833000I0J-150000D01*
G01*
X134563000Y-107083000D01*
G75*
G02*
X134413000Y-107233000I-150000J0D01*
G01*
X134113000Y-107233000D01*
G75*
G02*
X133963000Y-107083000I0J150000D01*
G01*
G37*
G36*
G01*
X134963000Y-107083000D02*
X134963000Y-105833000D01*
G75*
G02*
X135113000Y-105683000I150000J0D01*
G01*
X135413000Y-105683000D01*
G75*
G02*
X135563000Y-105833000I0J-150000D01*
G01*
X135563000Y-107083000D01*
G75*
G02*
X135413000Y-107233000I-150000J0D01*
G01*
X135113000Y-107233000D01*
G75*
G02*
X134963000Y-107083000I0J150000D01*
G01*
G37*
G36*
G01*
X135963000Y-107083000D02*
X135963000Y-105833000D01*
G75*
G02*
X136113000Y-105683000I150000J0D01*
G01*
X136413000Y-105683000D01*
G75*
G02*
X136563000Y-105833000I0J-150000D01*
G01*
X136563000Y-107083000D01*
G75*
G02*
X136413000Y-107233000I-150000J0D01*
G01*
X136113000Y-107233000D01*
G75*
G02*
X135963000Y-107083000I0J150000D01*
G01*
G37*
G36*
G01*
X136963000Y-107083000D02*
X136963000Y-105833000D01*
G75*
G02*
X137113000Y-105683000I150000J0D01*
G01*
X137413000Y-105683000D01*
G75*
G02*
X137563000Y-105833000I0J-150000D01*
G01*
X137563000Y-107083000D01*
G75*
G02*
X137413000Y-107233000I-150000J0D01*
G01*
X137113000Y-107233000D01*
G75*
G02*
X136963000Y-107083000I0J150000D01*
G01*
G37*
G36*
G01*
X137963000Y-110983000D02*
X137963000Y-109683000D01*
G75*
G02*
X138213000Y-109433000I250000J0D01*
G01*
X138913000Y-109433000D01*
G75*
G02*
X139163000Y-109683000I0J-250000D01*
G01*
X139163000Y-110983000D01*
G75*
G02*
X138913000Y-111233000I-250000J0D01*
G01*
X138213000Y-111233000D01*
G75*
G02*
X137963000Y-110983000I0J250000D01*
G01*
G37*
G36*
G01*
X132363000Y-110983000D02*
X132363000Y-109683000D01*
G75*
G02*
X132613000Y-109433000I250000J0D01*
G01*
X133313000Y-109433000D01*
G75*
G02*
X133563000Y-109683000I0J-250000D01*
G01*
X133563000Y-110983000D01*
G75*
G02*
X133313000Y-111233000I-250000J0D01*
G01*
X132613000Y-111233000D01*
G75*
G02*
X132363000Y-110983000I0J250000D01*
G01*
G37*
G36*
G01*
X80084000Y-59276000D02*
X80084000Y-58326000D01*
G75*
G02*
X80334000Y-58076000I250000J0D01*
G01*
X80834000Y-58076000D01*
G75*
G02*
X81084000Y-58326000I0J-250000D01*
G01*
X81084000Y-59276000D01*
G75*
G02*
X80834000Y-59526000I-250000J0D01*
G01*
X80334000Y-59526000D01*
G75*
G02*
X80084000Y-59276000I0J250000D01*
G01*
G37*
G36*
G01*
X81984000Y-59276000D02*
X81984000Y-58326000D01*
G75*
G02*
X82234000Y-58076000I250000J0D01*
G01*
X82734000Y-58076000D01*
G75*
G02*
X82984000Y-58326000I0J-250000D01*
G01*
X82984000Y-59276000D01*
G75*
G02*
X82734000Y-59526000I-250000J0D01*
G01*
X82234000Y-59526000D01*
G75*
G02*
X81984000Y-59276000I0J250000D01*
G01*
G37*
G36*
G01*
X113643000Y-107083000D02*
X113643000Y-105833000D01*
G75*
G02*
X113793000Y-105683000I150000J0D01*
G01*
X114093000Y-105683000D01*
G75*
G02*
X114243000Y-105833000I0J-150000D01*
G01*
X114243000Y-107083000D01*
G75*
G02*
X114093000Y-107233000I-150000J0D01*
G01*
X113793000Y-107233000D01*
G75*
G02*
X113643000Y-107083000I0J150000D01*
G01*
G37*
G36*
G01*
X114643000Y-107083000D02*
X114643000Y-105833000D01*
G75*
G02*
X114793000Y-105683000I150000J0D01*
G01*
X115093000Y-105683000D01*
G75*
G02*
X115243000Y-105833000I0J-150000D01*
G01*
X115243000Y-107083000D01*
G75*
G02*
X115093000Y-107233000I-150000J0D01*
G01*
X114793000Y-107233000D01*
G75*
G02*
X114643000Y-107083000I0J150000D01*
G01*
G37*
G36*
G01*
X115643000Y-107083000D02*
X115643000Y-105833000D01*
G75*
G02*
X115793000Y-105683000I150000J0D01*
G01*
X116093000Y-105683000D01*
G75*
G02*
X116243000Y-105833000I0J-150000D01*
G01*
X116243000Y-107083000D01*
G75*
G02*
X116093000Y-107233000I-150000J0D01*
G01*
X115793000Y-107233000D01*
G75*
G02*
X115643000Y-107083000I0J150000D01*
G01*
G37*
G36*
G01*
X116643000Y-107083000D02*
X116643000Y-105833000D01*
G75*
G02*
X116793000Y-105683000I150000J0D01*
G01*
X117093000Y-105683000D01*
G75*
G02*
X117243000Y-105833000I0J-150000D01*
G01*
X117243000Y-107083000D01*
G75*
G02*
X117093000Y-107233000I-150000J0D01*
G01*
X116793000Y-107233000D01*
G75*
G02*
X116643000Y-107083000I0J150000D01*
G01*
G37*
G36*
G01*
X117643000Y-110983000D02*
X117643000Y-109683000D01*
G75*
G02*
X117893000Y-109433000I250000J0D01*
G01*
X118593000Y-109433000D01*
G75*
G02*
X118843000Y-109683000I0J-250000D01*
G01*
X118843000Y-110983000D01*
G75*
G02*
X118593000Y-111233000I-250000J0D01*
G01*
X117893000Y-111233000D01*
G75*
G02*
X117643000Y-110983000I0J250000D01*
G01*
G37*
G36*
G01*
X112043000Y-110983000D02*
X112043000Y-109683000D01*
G75*
G02*
X112293000Y-109433000I250000J0D01*
G01*
X112993000Y-109433000D01*
G75*
G02*
X113243000Y-109683000I0J-250000D01*
G01*
X113243000Y-110983000D01*
G75*
G02*
X112993000Y-111233000I-250000J0D01*
G01*
X112293000Y-111233000D01*
G75*
G02*
X112043000Y-110983000I0J250000D01*
G01*
G37*
G36*
G01*
X77437000Y-56314000D02*
X76487000Y-56314000D01*
G75*
G02*
X76237000Y-56064000I0J250000D01*
G01*
X76237000Y-55564000D01*
G75*
G02*
X76487000Y-55314000I250000J0D01*
G01*
X77437000Y-55314000D01*
G75*
G02*
X77687000Y-55564000I0J-250000D01*
G01*
X77687000Y-56064000D01*
G75*
G02*
X77437000Y-56314000I-250000J0D01*
G01*
G37*
G36*
G01*
X77437000Y-54414000D02*
X76487000Y-54414000D01*
G75*
G02*
X76237000Y-54164000I0J250000D01*
G01*
X76237000Y-53664000D01*
G75*
G02*
X76487000Y-53414000I250000J0D01*
G01*
X77437000Y-53414000D01*
G75*
G02*
X77687000Y-53664000I0J-250000D01*
G01*
X77687000Y-54164000D01*
G75*
G02*
X77437000Y-54414000I-250000J0D01*
G01*
G37*
G36*
G01*
X143457000Y-92296000D02*
X143457000Y-91346000D01*
G75*
G02*
X143707000Y-91096000I250000J0D01*
G01*
X144207000Y-91096000D01*
G75*
G02*
X144457000Y-91346000I0J-250000D01*
G01*
X144457000Y-92296000D01*
G75*
G02*
X144207000Y-92546000I-250000J0D01*
G01*
X143707000Y-92546000D01*
G75*
G02*
X143457000Y-92296000I0J250000D01*
G01*
G37*
G36*
G01*
X145357000Y-92296000D02*
X145357000Y-91346000D01*
G75*
G02*
X145607000Y-91096000I250000J0D01*
G01*
X146107000Y-91096000D01*
G75*
G02*
X146357000Y-91346000I0J-250000D01*
G01*
X146357000Y-92296000D01*
G75*
G02*
X146107000Y-92546000I-250000J0D01*
G01*
X145607000Y-92546000D01*
G75*
G02*
X145357000Y-92296000I0J250000D01*
G01*
G37*
G36*
G01*
X85005000Y-87508000D02*
X83905000Y-87508000D01*
G75*
G02*
X83655000Y-87258000I0J250000D01*
G01*
X83655000Y-84258000D01*
G75*
G02*
X83905000Y-84008000I250000J0D01*
G01*
X85005000Y-84008000D01*
G75*
G02*
X85255000Y-84258000I0J-250000D01*
G01*
X85255000Y-87258000D01*
G75*
G02*
X85005000Y-87508000I-250000J0D01*
G01*
G37*
G36*
G01*
X85005000Y-82108000D02*
X83905000Y-82108000D01*
G75*
G02*
X83655000Y-81858000I0J250000D01*
G01*
X83655000Y-78858000D01*
G75*
G02*
X83905000Y-78608000I250000J0D01*
G01*
X85005000Y-78608000D01*
G75*
G02*
X85255000Y-78858000I0J-250000D01*
G01*
X85255000Y-81858000D01*
G75*
G02*
X85005000Y-82108000I-250000J0D01*
G01*
G37*
G36*
G01*
X129466000Y-92108000D02*
X129466000Y-93058000D01*
G75*
G02*
X129216000Y-93308000I-250000J0D01*
G01*
X128716000Y-93308000D01*
G75*
G02*
X128466000Y-93058000I0J250000D01*
G01*
X128466000Y-92108000D01*
G75*
G02*
X128716000Y-91858000I250000J0D01*
G01*
X129216000Y-91858000D01*
G75*
G02*
X129466000Y-92108000I0J-250000D01*
G01*
G37*
G36*
G01*
X127566000Y-92108000D02*
X127566000Y-93058000D01*
G75*
G02*
X127316000Y-93308000I-250000J0D01*
G01*
X126816000Y-93308000D01*
G75*
G02*
X126566000Y-93058000I0J250000D01*
G01*
X126566000Y-92108000D01*
G75*
G02*
X126816000Y-91858000I250000J0D01*
G01*
X127316000Y-91858000D01*
G75*
G02*
X127566000Y-92108000I0J-250000D01*
G01*
G37*
D11*
X97930000Y-58752000D03*
X97930000Y-60022000D03*
X97930000Y-61292000D03*
X97930000Y-62562000D03*
X97930000Y-63832000D03*
X97930000Y-65102000D03*
X97930000Y-66372000D03*
X97930000Y-67642000D03*
X97930000Y-68912000D03*
X97930000Y-70182000D03*
X97930000Y-71452000D03*
X97930000Y-72722000D03*
X97930000Y-73992000D03*
X97930000Y-75262000D03*
D14*
X99695000Y-76512000D03*
X100965000Y-76512000D03*
X102235000Y-76512000D03*
X103505000Y-76512000D03*
X104775000Y-76512000D03*
X106045000Y-76512000D03*
X107315000Y-76512000D03*
X108585000Y-76512000D03*
X109855000Y-76512000D03*
X111125000Y-76512000D03*
X112395000Y-76512000D03*
X113665000Y-76512000D03*
D11*
X115430000Y-75262000D03*
X115430000Y-73992000D03*
X115430000Y-72722000D03*
X115430000Y-71452000D03*
X115430000Y-70182000D03*
X115430000Y-68912000D03*
X115430000Y-67642000D03*
X115430000Y-66372000D03*
X115430000Y-65102000D03*
X115430000Y-63832000D03*
X115430000Y-62562000D03*
X115430000Y-61292000D03*
X115430000Y-60022000D03*
X115430000Y-58752000D03*
D15*
X106580000Y-67872000D03*
X106580000Y-65072000D03*
X105180000Y-66472000D03*
X103780000Y-65072000D03*
X105180000Y-65072000D03*
X103780000Y-66472000D03*
X105180000Y-67872000D03*
X106580000Y-66472000D03*
X103780000Y-67872000D03*
G36*
G01*
X88826000Y-92108000D02*
X88826000Y-93058000D01*
G75*
G02*
X88576000Y-93308000I-250000J0D01*
G01*
X88076000Y-93308000D01*
G75*
G02*
X87826000Y-93058000I0J250000D01*
G01*
X87826000Y-92108000D01*
G75*
G02*
X88076000Y-91858000I250000J0D01*
G01*
X88576000Y-91858000D01*
G75*
G02*
X88826000Y-92108000I0J-250000D01*
G01*
G37*
G36*
G01*
X86926000Y-92108000D02*
X86926000Y-93058000D01*
G75*
G02*
X86676000Y-93308000I-250000J0D01*
G01*
X86176000Y-93308000D01*
G75*
G02*
X85926000Y-93058000I0J250000D01*
G01*
X85926000Y-92108000D01*
G75*
G02*
X86176000Y-91858000I250000J0D01*
G01*
X86676000Y-91858000D01*
G75*
G02*
X86926000Y-92108000I0J-250000D01*
G01*
G37*
D13*
X73280000Y-93599000D03*
X76580000Y-93599000D03*
G36*
G01*
X144168000Y-100859000D02*
X143868000Y-100859000D01*
G75*
G02*
X143718000Y-100709000I0J150000D01*
G01*
X143718000Y-99259000D01*
G75*
G02*
X143868000Y-99109000I150000J0D01*
G01*
X144168000Y-99109000D01*
G75*
G02*
X144318000Y-99259000I0J-150000D01*
G01*
X144318000Y-100709000D01*
G75*
G02*
X144168000Y-100859000I-150000J0D01*
G01*
G37*
G36*
G01*
X145438000Y-100859000D02*
X145138000Y-100859000D01*
G75*
G02*
X144988000Y-100709000I0J150000D01*
G01*
X144988000Y-99259000D01*
G75*
G02*
X145138000Y-99109000I150000J0D01*
G01*
X145438000Y-99109000D01*
G75*
G02*
X145588000Y-99259000I0J-150000D01*
G01*
X145588000Y-100709000D01*
G75*
G02*
X145438000Y-100859000I-150000J0D01*
G01*
G37*
G36*
G01*
X146708000Y-100859000D02*
X146408000Y-100859000D01*
G75*
G02*
X146258000Y-100709000I0J150000D01*
G01*
X146258000Y-99259000D01*
G75*
G02*
X146408000Y-99109000I150000J0D01*
G01*
X146708000Y-99109000D01*
G75*
G02*
X146858000Y-99259000I0J-150000D01*
G01*
X146858000Y-100709000D01*
G75*
G02*
X146708000Y-100859000I-150000J0D01*
G01*
G37*
G36*
G01*
X147978000Y-100859000D02*
X147678000Y-100859000D01*
G75*
G02*
X147528000Y-100709000I0J150000D01*
G01*
X147528000Y-99259000D01*
G75*
G02*
X147678000Y-99109000I150000J0D01*
G01*
X147978000Y-99109000D01*
G75*
G02*
X148128000Y-99259000I0J-150000D01*
G01*
X148128000Y-100709000D01*
G75*
G02*
X147978000Y-100859000I-150000J0D01*
G01*
G37*
G36*
G01*
X147978000Y-95709000D02*
X147678000Y-95709000D01*
G75*
G02*
X147528000Y-95559000I0J150000D01*
G01*
X147528000Y-94109000D01*
G75*
G02*
X147678000Y-93959000I150000J0D01*
G01*
X147978000Y-93959000D01*
G75*
G02*
X148128000Y-94109000I0J-150000D01*
G01*
X148128000Y-95559000D01*
G75*
G02*
X147978000Y-95709000I-150000J0D01*
G01*
G37*
G36*
G01*
X146708000Y-95709000D02*
X146408000Y-95709000D01*
G75*
G02*
X146258000Y-95559000I0J150000D01*
G01*
X146258000Y-94109000D01*
G75*
G02*
X146408000Y-93959000I150000J0D01*
G01*
X146708000Y-93959000D01*
G75*
G02*
X146858000Y-94109000I0J-150000D01*
G01*
X146858000Y-95559000D01*
G75*
G02*
X146708000Y-95709000I-150000J0D01*
G01*
G37*
G36*
G01*
X145438000Y-95709000D02*
X145138000Y-95709000D01*
G75*
G02*
X144988000Y-95559000I0J150000D01*
G01*
X144988000Y-94109000D01*
G75*
G02*
X145138000Y-93959000I150000J0D01*
G01*
X145438000Y-93959000D01*
G75*
G02*
X145588000Y-94109000I0J-150000D01*
G01*
X145588000Y-95559000D01*
G75*
G02*
X145438000Y-95709000I-150000J0D01*
G01*
G37*
G36*
G01*
X144168000Y-95709000D02*
X143868000Y-95709000D01*
G75*
G02*
X143718000Y-95559000I0J150000D01*
G01*
X143718000Y-94109000D01*
G75*
G02*
X143868000Y-93959000I150000J0D01*
G01*
X144168000Y-93959000D01*
G75*
G02*
X144318000Y-94109000I0J-150000D01*
G01*
X144318000Y-95559000D01*
G75*
G02*
X144168000Y-95709000I-150000J0D01*
G01*
G37*
G36*
G01*
X78285000Y-76487000D02*
X78285000Y-77437000D01*
G75*
G02*
X78035000Y-77687000I-250000J0D01*
G01*
X77535000Y-77687000D01*
G75*
G02*
X77285000Y-77437000I0J250000D01*
G01*
X77285000Y-76487000D01*
G75*
G02*
X77535000Y-76237000I250000J0D01*
G01*
X78035000Y-76237000D01*
G75*
G02*
X78285000Y-76487000I0J-250000D01*
G01*
G37*
G36*
G01*
X76385000Y-76487000D02*
X76385000Y-77437000D01*
G75*
G02*
X76135000Y-77687000I-250000J0D01*
G01*
X75635000Y-77687000D01*
G75*
G02*
X75385000Y-77437000I0J250000D01*
G01*
X75385000Y-76487000D01*
G75*
G02*
X75635000Y-76237000I250000J0D01*
G01*
X76135000Y-76237000D01*
G75*
G02*
X76385000Y-76487000I0J-250000D01*
G01*
G37*
G36*
G01*
X60902000Y-57813000D02*
X60002000Y-57813000D01*
G75*
G02*
X59752000Y-57563000I0J250000D01*
G01*
X59752000Y-57038000D01*
G75*
G02*
X60002000Y-56788000I250000J0D01*
G01*
X60902000Y-56788000D01*
G75*
G02*
X61152000Y-57038000I0J-250000D01*
G01*
X61152000Y-57563000D01*
G75*
G02*
X60902000Y-57813000I-250000J0D01*
G01*
G37*
G36*
G01*
X60902000Y-55988000D02*
X60002000Y-55988000D01*
G75*
G02*
X59752000Y-55738000I0J250000D01*
G01*
X59752000Y-55213000D01*
G75*
G02*
X60002000Y-54963000I250000J0D01*
G01*
X60902000Y-54963000D01*
G75*
G02*
X61152000Y-55213000I0J-250000D01*
G01*
X61152000Y-55738000D01*
G75*
G02*
X60902000Y-55988000I-250000J0D01*
G01*
G37*
G36*
G01*
X73434000Y-62542000D02*
X73434000Y-63442000D01*
G75*
G02*
X73184000Y-63692000I-250000J0D01*
G01*
X72659000Y-63692000D01*
G75*
G02*
X72409000Y-63442000I0J250000D01*
G01*
X72409000Y-62542000D01*
G75*
G02*
X72659000Y-62292000I250000J0D01*
G01*
X73184000Y-62292000D01*
G75*
G02*
X73434000Y-62542000I0J-250000D01*
G01*
G37*
G36*
G01*
X71609000Y-62542000D02*
X71609000Y-63442000D01*
G75*
G02*
X71359000Y-63692000I-250000J0D01*
G01*
X70834000Y-63692000D01*
G75*
G02*
X70584000Y-63442000I0J250000D01*
G01*
X70584000Y-62542000D01*
G75*
G02*
X70834000Y-62292000I250000J0D01*
G01*
X71359000Y-62292000D01*
G75*
G02*
X71609000Y-62542000I0J-250000D01*
G01*
G37*
G36*
G01*
X98961000Y-95816000D02*
X98961000Y-96716000D01*
G75*
G02*
X98711000Y-96966000I-250000J0D01*
G01*
X98186000Y-96966000D01*
G75*
G02*
X97936000Y-96716000I0J250000D01*
G01*
X97936000Y-95816000D01*
G75*
G02*
X98186000Y-95566000I250000J0D01*
G01*
X98711000Y-95566000D01*
G75*
G02*
X98961000Y-95816000I0J-250000D01*
G01*
G37*
G36*
G01*
X97136000Y-95816000D02*
X97136000Y-96716000D01*
G75*
G02*
X96886000Y-96966000I-250000J0D01*
G01*
X96361000Y-96966000D01*
G75*
G02*
X96111000Y-96716000I0J250000D01*
G01*
X96111000Y-95816000D01*
G75*
G02*
X96361000Y-95566000I250000J0D01*
G01*
X96886000Y-95566000D01*
G75*
G02*
X97136000Y-95816000I0J-250000D01*
G01*
G37*
G36*
G01*
X66749000Y-84422000D02*
X66749000Y-83472000D01*
G75*
G02*
X66999000Y-83222000I250000J0D01*
G01*
X67499000Y-83222000D01*
G75*
G02*
X67749000Y-83472000I0J-250000D01*
G01*
X67749000Y-84422000D01*
G75*
G02*
X67499000Y-84672000I-250000J0D01*
G01*
X66999000Y-84672000D01*
G75*
G02*
X66749000Y-84422000I0J250000D01*
G01*
G37*
G36*
G01*
X68649000Y-84422000D02*
X68649000Y-83472000D01*
G75*
G02*
X68899000Y-83222000I250000J0D01*
G01*
X69399000Y-83222000D01*
G75*
G02*
X69649000Y-83472000I0J-250000D01*
G01*
X69649000Y-84422000D01*
G75*
G02*
X69399000Y-84672000I-250000J0D01*
G01*
X68899000Y-84672000D01*
G75*
G02*
X68649000Y-84422000I0J250000D01*
G01*
G37*
G36*
G01*
X55477000Y-69828000D02*
X56727000Y-69828000D01*
G75*
G02*
X56877000Y-69978000I0J-150000D01*
G01*
X56877000Y-70278000D01*
G75*
G02*
X56727000Y-70428000I-150000J0D01*
G01*
X55477000Y-70428000D01*
G75*
G02*
X55327000Y-70278000I0J150000D01*
G01*
X55327000Y-69978000D01*
G75*
G02*
X55477000Y-69828000I150000J0D01*
G01*
G37*
G36*
G01*
X55477000Y-70828000D02*
X56727000Y-70828000D01*
G75*
G02*
X56877000Y-70978000I0J-150000D01*
G01*
X56877000Y-71278000D01*
G75*
G02*
X56727000Y-71428000I-150000J0D01*
G01*
X55477000Y-71428000D01*
G75*
G02*
X55327000Y-71278000I0J150000D01*
G01*
X55327000Y-70978000D01*
G75*
G02*
X55477000Y-70828000I150000J0D01*
G01*
G37*
G36*
G01*
X55477000Y-71828000D02*
X56727000Y-71828000D01*
G75*
G02*
X56877000Y-71978000I0J-150000D01*
G01*
X56877000Y-72278000D01*
G75*
G02*
X56727000Y-72428000I-150000J0D01*
G01*
X55477000Y-72428000D01*
G75*
G02*
X55327000Y-72278000I0J150000D01*
G01*
X55327000Y-71978000D01*
G75*
G02*
X55477000Y-71828000I150000J0D01*
G01*
G37*
G36*
G01*
X55477000Y-72828000D02*
X56727000Y-72828000D01*
G75*
G02*
X56877000Y-72978000I0J-150000D01*
G01*
X56877000Y-73278000D01*
G75*
G02*
X56727000Y-73428000I-150000J0D01*
G01*
X55477000Y-73428000D01*
G75*
G02*
X55327000Y-73278000I0J150000D01*
G01*
X55327000Y-72978000D01*
G75*
G02*
X55477000Y-72828000I150000J0D01*
G01*
G37*
G36*
G01*
X51577000Y-73828000D02*
X52877000Y-73828000D01*
G75*
G02*
X53127000Y-74078000I0J-250000D01*
G01*
X53127000Y-74778000D01*
G75*
G02*
X52877000Y-75028000I-250000J0D01*
G01*
X51577000Y-75028000D01*
G75*
G02*
X51327000Y-74778000I0J250000D01*
G01*
X51327000Y-74078000D01*
G75*
G02*
X51577000Y-73828000I250000J0D01*
G01*
G37*
G36*
G01*
X51577000Y-68228000D02*
X52877000Y-68228000D01*
G75*
G02*
X53127000Y-68478000I0J-250000D01*
G01*
X53127000Y-69178000D01*
G75*
G02*
X52877000Y-69428000I-250000J0D01*
G01*
X51577000Y-69428000D01*
G75*
G02*
X51327000Y-69178000I0J250000D01*
G01*
X51327000Y-68478000D01*
G75*
G02*
X51577000Y-68228000I250000J0D01*
G01*
G37*
G36*
G01*
X92296000Y-60886000D02*
X91346000Y-60886000D01*
G75*
G02*
X91096000Y-60636000I0J250000D01*
G01*
X91096000Y-60136000D01*
G75*
G02*
X91346000Y-59886000I250000J0D01*
G01*
X92296000Y-59886000D01*
G75*
G02*
X92546000Y-60136000I0J-250000D01*
G01*
X92546000Y-60636000D01*
G75*
G02*
X92296000Y-60886000I-250000J0D01*
G01*
G37*
G36*
G01*
X92296000Y-58986000D02*
X91346000Y-58986000D01*
G75*
G02*
X91096000Y-58736000I0J250000D01*
G01*
X91096000Y-58236000D01*
G75*
G02*
X91346000Y-57986000I250000J0D01*
G01*
X92296000Y-57986000D01*
G75*
G02*
X92546000Y-58236000I0J-250000D01*
G01*
X92546000Y-58736000D01*
G75*
G02*
X92296000Y-58986000I-250000J0D01*
G01*
G37*
G36*
G01*
X66241000Y-63467000D02*
X66241000Y-62517000D01*
G75*
G02*
X66491000Y-62267000I250000J0D01*
G01*
X66991000Y-62267000D01*
G75*
G02*
X67241000Y-62517000I0J-250000D01*
G01*
X67241000Y-63467000D01*
G75*
G02*
X66991000Y-63717000I-250000J0D01*
G01*
X66491000Y-63717000D01*
G75*
G02*
X66241000Y-63467000I0J250000D01*
G01*
G37*
G36*
G01*
X68141000Y-63467000D02*
X68141000Y-62517000D01*
G75*
G02*
X68391000Y-62267000I250000J0D01*
G01*
X68891000Y-62267000D01*
G75*
G02*
X69141000Y-62517000I0J-250000D01*
G01*
X69141000Y-63467000D01*
G75*
G02*
X68891000Y-63717000I-250000J0D01*
G01*
X68391000Y-63717000D01*
G75*
G02*
X68141000Y-63467000I0J250000D01*
G01*
G37*
D16*
X82818000Y-62382000D03*
X80518000Y-62382000D03*
D17*
X80518000Y-68682000D03*
D16*
X78218000Y-62382000D03*
G36*
G01*
X139601000Y-95816000D02*
X139601000Y-96716000D01*
G75*
G02*
X139351000Y-96966000I-250000J0D01*
G01*
X138826000Y-96966000D01*
G75*
G02*
X138576000Y-96716000I0J250000D01*
G01*
X138576000Y-95816000D01*
G75*
G02*
X138826000Y-95566000I250000J0D01*
G01*
X139351000Y-95566000D01*
G75*
G02*
X139601000Y-95816000I0J-250000D01*
G01*
G37*
G36*
G01*
X137776000Y-95816000D02*
X137776000Y-96716000D01*
G75*
G02*
X137526000Y-96966000I-250000J0D01*
G01*
X137001000Y-96966000D01*
G75*
G02*
X136751000Y-96716000I0J250000D01*
G01*
X136751000Y-95816000D01*
G75*
G02*
X137001000Y-95566000I250000J0D01*
G01*
X137526000Y-95566000D01*
G75*
G02*
X137776000Y-95816000I0J-250000D01*
G01*
G37*
D18*
X59546000Y-81077000D03*
X59546000Y-81877000D03*
X59546000Y-82677000D03*
X59546000Y-83477000D03*
X59546000Y-84277000D03*
D19*
X59446000Y-87127000D03*
X59446000Y-78227000D03*
X53946000Y-87127000D03*
X53946000Y-78227000D03*
G36*
G01*
X73353000Y-84930000D02*
X73353000Y-83980000D01*
G75*
G02*
X73603000Y-83730000I250000J0D01*
G01*
X74103000Y-83730000D01*
G75*
G02*
X74353000Y-83980000I0J-250000D01*
G01*
X74353000Y-84930000D01*
G75*
G02*
X74103000Y-85180000I-250000J0D01*
G01*
X73603000Y-85180000D01*
G75*
G02*
X73353000Y-84930000I0J250000D01*
G01*
G37*
G36*
G01*
X75253000Y-84930000D02*
X75253000Y-83980000D01*
G75*
G02*
X75503000Y-83730000I250000J0D01*
G01*
X76003000Y-83730000D01*
G75*
G02*
X76253000Y-83980000I0J-250000D01*
G01*
X76253000Y-84930000D01*
G75*
G02*
X76003000Y-85180000I-250000J0D01*
G01*
X75503000Y-85180000D01*
G75*
G02*
X75253000Y-84930000I0J250000D01*
G01*
G37*
G36*
G01*
X139626000Y-92108000D02*
X139626000Y-93058000D01*
G75*
G02*
X139376000Y-93308000I-250000J0D01*
G01*
X138876000Y-93308000D01*
G75*
G02*
X138626000Y-93058000I0J250000D01*
G01*
X138626000Y-92108000D01*
G75*
G02*
X138876000Y-91858000I250000J0D01*
G01*
X139376000Y-91858000D01*
G75*
G02*
X139626000Y-92108000I0J-250000D01*
G01*
G37*
G36*
G01*
X137726000Y-92108000D02*
X137726000Y-93058000D01*
G75*
G02*
X137476000Y-93308000I-250000J0D01*
G01*
X136976000Y-93308000D01*
G75*
G02*
X136726000Y-93058000I0J250000D01*
G01*
X136726000Y-92108000D01*
G75*
G02*
X136976000Y-91858000I250000J0D01*
G01*
X137476000Y-91858000D01*
G75*
G02*
X137726000Y-92108000I0J-250000D01*
G01*
G37*
G36*
G01*
X129441000Y-95816000D02*
X129441000Y-96716000D01*
G75*
G02*
X129191000Y-96966000I-250000J0D01*
G01*
X128666000Y-96966000D01*
G75*
G02*
X128416000Y-96716000I0J250000D01*
G01*
X128416000Y-95816000D01*
G75*
G02*
X128666000Y-95566000I250000J0D01*
G01*
X129191000Y-95566000D01*
G75*
G02*
X129441000Y-95816000I0J-250000D01*
G01*
G37*
G36*
G01*
X127616000Y-95816000D02*
X127616000Y-96716000D01*
G75*
G02*
X127366000Y-96966000I-250000J0D01*
G01*
X126841000Y-96966000D01*
G75*
G02*
X126591000Y-96716000I0J250000D01*
G01*
X126591000Y-95816000D01*
G75*
G02*
X126841000Y-95566000I250000J0D01*
G01*
X127366000Y-95566000D01*
G75*
G02*
X127616000Y-95816000I0J-250000D01*
G01*
G37*
D20*
X132737000Y-64264000D03*
X132737000Y-65364000D03*
X132737000Y-66464000D03*
X132737000Y-67564000D03*
X132737000Y-68664000D03*
X132737000Y-69764000D03*
X132737000Y-70864000D03*
X132737000Y-71964000D03*
X132737000Y-72914000D03*
D21*
X143237000Y-73864000D03*
D22*
X137037000Y-73864000D03*
D23*
X147387000Y-73864000D03*
D24*
X147837000Y-60364000D03*
D22*
X132737000Y-62714000D03*
G36*
G01*
X86810000Y-70259000D02*
X85910000Y-70259000D01*
G75*
G02*
X85660000Y-70009000I0J250000D01*
G01*
X85660000Y-69484000D01*
G75*
G02*
X85910000Y-69234000I250000J0D01*
G01*
X86810000Y-69234000D01*
G75*
G02*
X87060000Y-69484000I0J-250000D01*
G01*
X87060000Y-70009000D01*
G75*
G02*
X86810000Y-70259000I-250000J0D01*
G01*
G37*
G36*
G01*
X86810000Y-68434000D02*
X85910000Y-68434000D01*
G75*
G02*
X85660000Y-68184000I0J250000D01*
G01*
X85660000Y-67659000D01*
G75*
G02*
X85910000Y-67409000I250000J0D01*
G01*
X86810000Y-67409000D01*
G75*
G02*
X87060000Y-67659000I0J-250000D01*
G01*
X87060000Y-68184000D01*
G75*
G02*
X86810000Y-68434000I-250000J0D01*
G01*
G37*
G36*
G01*
X80714000Y-56289000D02*
X79814000Y-56289000D01*
G75*
G02*
X79564000Y-56039000I0J250000D01*
G01*
X79564000Y-55514000D01*
G75*
G02*
X79814000Y-55264000I250000J0D01*
G01*
X80714000Y-55264000D01*
G75*
G02*
X80964000Y-55514000I0J-250000D01*
G01*
X80964000Y-56039000D01*
G75*
G02*
X80714000Y-56289000I-250000J0D01*
G01*
G37*
G36*
G01*
X80714000Y-54464000D02*
X79814000Y-54464000D01*
G75*
G02*
X79564000Y-54214000I0J250000D01*
G01*
X79564000Y-53689000D01*
G75*
G02*
X79814000Y-53439000I250000J0D01*
G01*
X80714000Y-53439000D01*
G75*
G02*
X80964000Y-53689000I0J-250000D01*
G01*
X80964000Y-54214000D01*
G75*
G02*
X80714000Y-54464000I-250000J0D01*
G01*
G37*
G36*
G01*
X103483000Y-107083000D02*
X103483000Y-105833000D01*
G75*
G02*
X103633000Y-105683000I150000J0D01*
G01*
X103933000Y-105683000D01*
G75*
G02*
X104083000Y-105833000I0J-150000D01*
G01*
X104083000Y-107083000D01*
G75*
G02*
X103933000Y-107233000I-150000J0D01*
G01*
X103633000Y-107233000D01*
G75*
G02*
X103483000Y-107083000I0J150000D01*
G01*
G37*
G36*
G01*
X104483000Y-107083000D02*
X104483000Y-105833000D01*
G75*
G02*
X104633000Y-105683000I150000J0D01*
G01*
X104933000Y-105683000D01*
G75*
G02*
X105083000Y-105833000I0J-150000D01*
G01*
X105083000Y-107083000D01*
G75*
G02*
X104933000Y-107233000I-150000J0D01*
G01*
X104633000Y-107233000D01*
G75*
G02*
X104483000Y-107083000I0J150000D01*
G01*
G37*
G36*
G01*
X105483000Y-107083000D02*
X105483000Y-105833000D01*
G75*
G02*
X105633000Y-105683000I150000J0D01*
G01*
X105933000Y-105683000D01*
G75*
G02*
X106083000Y-105833000I0J-150000D01*
G01*
X106083000Y-107083000D01*
G75*
G02*
X105933000Y-107233000I-150000J0D01*
G01*
X105633000Y-107233000D01*
G75*
G02*
X105483000Y-107083000I0J150000D01*
G01*
G37*
G36*
G01*
X106483000Y-107083000D02*
X106483000Y-105833000D01*
G75*
G02*
X106633000Y-105683000I150000J0D01*
G01*
X106933000Y-105683000D01*
G75*
G02*
X107083000Y-105833000I0J-150000D01*
G01*
X107083000Y-107083000D01*
G75*
G02*
X106933000Y-107233000I-150000J0D01*
G01*
X106633000Y-107233000D01*
G75*
G02*
X106483000Y-107083000I0J150000D01*
G01*
G37*
G36*
G01*
X101883000Y-110983000D02*
X101883000Y-109683000D01*
G75*
G02*
X102133000Y-109433000I250000J0D01*
G01*
X102833000Y-109433000D01*
G75*
G02*
X103083000Y-109683000I0J-250000D01*
G01*
X103083000Y-110983000D01*
G75*
G02*
X102833000Y-111233000I-250000J0D01*
G01*
X102133000Y-111233000D01*
G75*
G02*
X101883000Y-110983000I0J250000D01*
G01*
G37*
G36*
G01*
X107483000Y-110983000D02*
X107483000Y-109683000D01*
G75*
G02*
X107733000Y-109433000I250000J0D01*
G01*
X108433000Y-109433000D01*
G75*
G02*
X108683000Y-109683000I0J-250000D01*
G01*
X108683000Y-110983000D01*
G75*
G02*
X108433000Y-111233000I-250000J0D01*
G01*
X107733000Y-111233000D01*
G75*
G02*
X107483000Y-110983000I0J250000D01*
G01*
G37*
G36*
G01*
X123803000Y-107083000D02*
X123803000Y-105833000D01*
G75*
G02*
X123953000Y-105683000I150000J0D01*
G01*
X124253000Y-105683000D01*
G75*
G02*
X124403000Y-105833000I0J-150000D01*
G01*
X124403000Y-107083000D01*
G75*
G02*
X124253000Y-107233000I-150000J0D01*
G01*
X123953000Y-107233000D01*
G75*
G02*
X123803000Y-107083000I0J150000D01*
G01*
G37*
G36*
G01*
X124803000Y-107083000D02*
X124803000Y-105833000D01*
G75*
G02*
X124953000Y-105683000I150000J0D01*
G01*
X125253000Y-105683000D01*
G75*
G02*
X125403000Y-105833000I0J-150000D01*
G01*
X125403000Y-107083000D01*
G75*
G02*
X125253000Y-107233000I-150000J0D01*
G01*
X124953000Y-107233000D01*
G75*
G02*
X124803000Y-107083000I0J150000D01*
G01*
G37*
G36*
G01*
X125803000Y-107083000D02*
X125803000Y-105833000D01*
G75*
G02*
X125953000Y-105683000I150000J0D01*
G01*
X126253000Y-105683000D01*
G75*
G02*
X126403000Y-105833000I0J-150000D01*
G01*
X126403000Y-107083000D01*
G75*
G02*
X126253000Y-107233000I-150000J0D01*
G01*
X125953000Y-107233000D01*
G75*
G02*
X125803000Y-107083000I0J150000D01*
G01*
G37*
G36*
G01*
X126803000Y-107083000D02*
X126803000Y-105833000D01*
G75*
G02*
X126953000Y-105683000I150000J0D01*
G01*
X127253000Y-105683000D01*
G75*
G02*
X127403000Y-105833000I0J-150000D01*
G01*
X127403000Y-107083000D01*
G75*
G02*
X127253000Y-107233000I-150000J0D01*
G01*
X126953000Y-107233000D01*
G75*
G02*
X126803000Y-107083000I0J150000D01*
G01*
G37*
G36*
G01*
X127803000Y-110983000D02*
X127803000Y-109683000D01*
G75*
G02*
X128053000Y-109433000I250000J0D01*
G01*
X128753000Y-109433000D01*
G75*
G02*
X129003000Y-109683000I0J-250000D01*
G01*
X129003000Y-110983000D01*
G75*
G02*
X128753000Y-111233000I-250000J0D01*
G01*
X128053000Y-111233000D01*
G75*
G02*
X127803000Y-110983000I0J250000D01*
G01*
G37*
G36*
G01*
X122203000Y-110983000D02*
X122203000Y-109683000D01*
G75*
G02*
X122453000Y-109433000I250000J0D01*
G01*
X123153000Y-109433000D01*
G75*
G02*
X123403000Y-109683000I0J-250000D01*
G01*
X123403000Y-110983000D01*
G75*
G02*
X123153000Y-111233000I-250000J0D01*
G01*
X122453000Y-111233000D01*
G75*
G02*
X122203000Y-110983000I0J250000D01*
G01*
G37*
G36*
G01*
X109121000Y-95816000D02*
X109121000Y-96716000D01*
G75*
G02*
X108871000Y-96966000I-250000J0D01*
G01*
X108346000Y-96966000D01*
G75*
G02*
X108096000Y-96716000I0J250000D01*
G01*
X108096000Y-95816000D01*
G75*
G02*
X108346000Y-95566000I250000J0D01*
G01*
X108871000Y-95566000D01*
G75*
G02*
X109121000Y-95816000I0J-250000D01*
G01*
G37*
G36*
G01*
X107296000Y-95816000D02*
X107296000Y-96716000D01*
G75*
G02*
X107046000Y-96966000I-250000J0D01*
G01*
X106521000Y-96966000D01*
G75*
G02*
X106271000Y-96716000I0J250000D01*
G01*
X106271000Y-95816000D01*
G75*
G02*
X106521000Y-95566000I250000J0D01*
G01*
X107046000Y-95566000D01*
G75*
G02*
X107296000Y-95816000I0J-250000D01*
G01*
G37*
G36*
G01*
X119281000Y-95816000D02*
X119281000Y-96716000D01*
G75*
G02*
X119031000Y-96966000I-250000J0D01*
G01*
X118506000Y-96966000D01*
G75*
G02*
X118256000Y-96716000I0J250000D01*
G01*
X118256000Y-95816000D01*
G75*
G02*
X118506000Y-95566000I250000J0D01*
G01*
X119031000Y-95566000D01*
G75*
G02*
X119281000Y-95816000I0J-250000D01*
G01*
G37*
G36*
G01*
X117456000Y-95816000D02*
X117456000Y-96716000D01*
G75*
G02*
X117206000Y-96966000I-250000J0D01*
G01*
X116681000Y-96966000D01*
G75*
G02*
X116431000Y-96716000I0J250000D01*
G01*
X116431000Y-95816000D01*
G75*
G02*
X116681000Y-95566000I250000J0D01*
G01*
X117206000Y-95566000D01*
G75*
G02*
X117456000Y-95816000I0J-250000D01*
G01*
G37*
G36*
G01*
X71015000Y-55477000D02*
X71015000Y-56727000D01*
G75*
G02*
X70865000Y-56877000I-150000J0D01*
G01*
X70565000Y-56877000D01*
G75*
G02*
X70415000Y-56727000I0J150000D01*
G01*
X70415000Y-55477000D01*
G75*
G02*
X70565000Y-55327000I150000J0D01*
G01*
X70865000Y-55327000D01*
G75*
G02*
X71015000Y-55477000I0J-150000D01*
G01*
G37*
G36*
G01*
X70015000Y-55477000D02*
X70015000Y-56727000D01*
G75*
G02*
X69865000Y-56877000I-150000J0D01*
G01*
X69565000Y-56877000D01*
G75*
G02*
X69415000Y-56727000I0J150000D01*
G01*
X69415000Y-55477000D01*
G75*
G02*
X69565000Y-55327000I150000J0D01*
G01*
X69865000Y-55327000D01*
G75*
G02*
X70015000Y-55477000I0J-150000D01*
G01*
G37*
G36*
G01*
X69015000Y-55477000D02*
X69015000Y-56727000D01*
G75*
G02*
X68865000Y-56877000I-150000J0D01*
G01*
X68565000Y-56877000D01*
G75*
G02*
X68415000Y-56727000I0J150000D01*
G01*
X68415000Y-55477000D01*
G75*
G02*
X68565000Y-55327000I150000J0D01*
G01*
X68865000Y-55327000D01*
G75*
G02*
X69015000Y-55477000I0J-150000D01*
G01*
G37*
G36*
G01*
X68015000Y-55477000D02*
X68015000Y-56727000D01*
G75*
G02*
X67865000Y-56877000I-150000J0D01*
G01*
X67565000Y-56877000D01*
G75*
G02*
X67415000Y-56727000I0J150000D01*
G01*
X67415000Y-55477000D01*
G75*
G02*
X67565000Y-55327000I150000J0D01*
G01*
X67865000Y-55327000D01*
G75*
G02*
X68015000Y-55477000I0J-150000D01*
G01*
G37*
G36*
G01*
X67015000Y-51577000D02*
X67015000Y-52877000D01*
G75*
G02*
X66765000Y-53127000I-250000J0D01*
G01*
X66065000Y-53127000D01*
G75*
G02*
X65815000Y-52877000I0J250000D01*
G01*
X65815000Y-51577000D01*
G75*
G02*
X66065000Y-51327000I250000J0D01*
G01*
X66765000Y-51327000D01*
G75*
G02*
X67015000Y-51577000I0J-250000D01*
G01*
G37*
G36*
G01*
X72615000Y-51577000D02*
X72615000Y-52877000D01*
G75*
G02*
X72365000Y-53127000I-250000J0D01*
G01*
X71665000Y-53127000D01*
G75*
G02*
X71415000Y-52877000I0J250000D01*
G01*
X71415000Y-51577000D01*
G75*
G02*
X71665000Y-51327000I250000J0D01*
G01*
X72365000Y-51327000D01*
G75*
G02*
X72615000Y-51577000I0J-250000D01*
G01*
G37*
G36*
G01*
X70584000Y-66617000D02*
X70584000Y-65717000D01*
G75*
G02*
X70834000Y-65467000I250000J0D01*
G01*
X71359000Y-65467000D01*
G75*
G02*
X71609000Y-65717000I0J-250000D01*
G01*
X71609000Y-66617000D01*
G75*
G02*
X71359000Y-66867000I-250000J0D01*
G01*
X70834000Y-66867000D01*
G75*
G02*
X70584000Y-66617000I0J250000D01*
G01*
G37*
G36*
G01*
X72409000Y-66617000D02*
X72409000Y-65717000D01*
G75*
G02*
X72659000Y-65467000I250000J0D01*
G01*
X73184000Y-65467000D01*
G75*
G02*
X73434000Y-65717000I0J-250000D01*
G01*
X73434000Y-66617000D01*
G75*
G02*
X73184000Y-66867000I-250000J0D01*
G01*
X72659000Y-66867000D01*
G75*
G02*
X72409000Y-66617000I0J250000D01*
G01*
G37*
G36*
G01*
X134771000Y-91158000D02*
X134771000Y-91458000D01*
G75*
G02*
X134621000Y-91608000I-150000J0D01*
G01*
X133446000Y-91608000D01*
G75*
G02*
X133296000Y-91458000I0J150000D01*
G01*
X133296000Y-91158000D01*
G75*
G02*
X133446000Y-91008000I150000J0D01*
G01*
X134621000Y-91008000D01*
G75*
G02*
X134771000Y-91158000I0J-150000D01*
G01*
G37*
G36*
G01*
X134771000Y-89258000D02*
X134771000Y-89558000D01*
G75*
G02*
X134621000Y-89708000I-150000J0D01*
G01*
X133446000Y-89708000D01*
G75*
G02*
X133296000Y-89558000I0J150000D01*
G01*
X133296000Y-89258000D01*
G75*
G02*
X133446000Y-89108000I150000J0D01*
G01*
X134621000Y-89108000D01*
G75*
G02*
X134771000Y-89258000I0J-150000D01*
G01*
G37*
G36*
G01*
X132896000Y-90208000D02*
X132896000Y-90508000D01*
G75*
G02*
X132746000Y-90658000I-150000J0D01*
G01*
X131571000Y-90658000D01*
G75*
G02*
X131421000Y-90508000I0J150000D01*
G01*
X131421000Y-90208000D01*
G75*
G02*
X131571000Y-90058000I150000J0D01*
G01*
X132746000Y-90058000D01*
G75*
G02*
X132896000Y-90208000I0J-150000D01*
G01*
G37*
G36*
G01*
X124331000Y-78415000D02*
X123227000Y-78415000D01*
G75*
G02*
X123089000Y-78277000I0J138000D01*
G01*
X123089000Y-76453000D01*
G75*
G02*
X123227000Y-76315000I138000J0D01*
G01*
X124331000Y-76315000D01*
G75*
G02*
X124469000Y-76453000I0J-138000D01*
G01*
X124469000Y-78277000D01*
G75*
G02*
X124331000Y-78415000I-138000J0D01*
G01*
G37*
G36*
G01*
X124331000Y-87515000D02*
X123227000Y-87515000D01*
G75*
G02*
X123089000Y-87377000I0J138000D01*
G01*
X123089000Y-85553000D01*
G75*
G02*
X123227000Y-85415000I138000J0D01*
G01*
X124331000Y-85415000D01*
G75*
G02*
X124469000Y-85553000I0J-138000D01*
G01*
X124469000Y-87377000D01*
G75*
G02*
X124331000Y-87515000I-138000J0D01*
G01*
G37*
G36*
G01*
X119851000Y-78415000D02*
X118747000Y-78415000D01*
G75*
G02*
X118609000Y-78277000I0J138000D01*
G01*
X118609000Y-76453000D01*
G75*
G02*
X118747000Y-76315000I138000J0D01*
G01*
X119851000Y-76315000D01*
G75*
G02*
X119989000Y-76453000I0J-138000D01*
G01*
X119989000Y-78277000D01*
G75*
G02*
X119851000Y-78415000I-138000J0D01*
G01*
G37*
G36*
G01*
X119851000Y-87515000D02*
X118747000Y-87515000D01*
G75*
G02*
X118609000Y-87377000I0J138000D01*
G01*
X118609000Y-85553000D01*
G75*
G02*
X118747000Y-85415000I138000J0D01*
G01*
X119851000Y-85415000D01*
G75*
G02*
X119989000Y-85553000I0J-138000D01*
G01*
X119989000Y-87377000D01*
G75*
G02*
X119851000Y-87515000I-138000J0D01*
G01*
G37*
G36*
G01*
X63297750Y-103604000D02*
X64210250Y-103604000D01*
G75*
G02*
X64454000Y-103847750I0J-243750D01*
G01*
X64454000Y-104335250D01*
G75*
G02*
X64210250Y-104579000I-243750J0D01*
G01*
X63297750Y-104579000D01*
G75*
G02*
X63054000Y-104335250I0J243750D01*
G01*
X63054000Y-103847750D01*
G75*
G02*
X63297750Y-103604000I243750J0D01*
G01*
G37*
G36*
G01*
X63297750Y-105479000D02*
X64210250Y-105479000D01*
G75*
G02*
X64454000Y-105722750I0J-243750D01*
G01*
X64454000Y-106210250D01*
G75*
G02*
X64210250Y-106454000I-243750J0D01*
G01*
X63297750Y-106454000D01*
G75*
G02*
X63054000Y-106210250I0J243750D01*
G01*
X63054000Y-105722750D01*
G75*
G02*
X63297750Y-105479000I243750J0D01*
G01*
G37*
G36*
G01*
X66241000Y-66642000D02*
X66241000Y-65692000D01*
G75*
G02*
X66491000Y-65442000I250000J0D01*
G01*
X66991000Y-65442000D01*
G75*
G02*
X67241000Y-65692000I0J-250000D01*
G01*
X67241000Y-66642000D01*
G75*
G02*
X66991000Y-66892000I-250000J0D01*
G01*
X66491000Y-66892000D01*
G75*
G02*
X66241000Y-66642000I0J250000D01*
G01*
G37*
G36*
G01*
X68141000Y-66642000D02*
X68141000Y-65692000D01*
G75*
G02*
X68391000Y-65442000I250000J0D01*
G01*
X68891000Y-65442000D01*
G75*
G02*
X69141000Y-65692000I0J-250000D01*
G01*
X69141000Y-66642000D01*
G75*
G02*
X68891000Y-66892000I-250000J0D01*
G01*
X68391000Y-66892000D01*
G75*
G02*
X68141000Y-66642000I0J250000D01*
G01*
G37*
G36*
G01*
X88801000Y-95816000D02*
X88801000Y-96716000D01*
G75*
G02*
X88551000Y-96966000I-250000J0D01*
G01*
X88026000Y-96966000D01*
G75*
G02*
X87776000Y-96716000I0J250000D01*
G01*
X87776000Y-95816000D01*
G75*
G02*
X88026000Y-95566000I250000J0D01*
G01*
X88551000Y-95566000D01*
G75*
G02*
X88801000Y-95816000I0J-250000D01*
G01*
G37*
G36*
G01*
X86976000Y-95816000D02*
X86976000Y-96716000D01*
G75*
G02*
X86726000Y-96966000I-250000J0D01*
G01*
X86201000Y-96966000D01*
G75*
G02*
X85951000Y-96716000I0J250000D01*
G01*
X85951000Y-95816000D01*
G75*
G02*
X86201000Y-95566000I250000J0D01*
G01*
X86726000Y-95566000D01*
G75*
G02*
X86976000Y-95816000I0J-250000D01*
G01*
G37*
G36*
G01*
X61694000Y-110051000D02*
X61694000Y-109151000D01*
G75*
G02*
X61944000Y-108901000I250000J0D01*
G01*
X62469000Y-108901000D01*
G75*
G02*
X62719000Y-109151000I0J-250000D01*
G01*
X62719000Y-110051000D01*
G75*
G02*
X62469000Y-110301000I-250000J0D01*
G01*
X61944000Y-110301000D01*
G75*
G02*
X61694000Y-110051000I0J250000D01*
G01*
G37*
G36*
G01*
X63519000Y-110051000D02*
X63519000Y-109151000D01*
G75*
G02*
X63769000Y-108901000I250000J0D01*
G01*
X64294000Y-108901000D01*
G75*
G02*
X64544000Y-109151000I0J-250000D01*
G01*
X64544000Y-110051000D01*
G75*
G02*
X64294000Y-110301000I-250000J0D01*
G01*
X63769000Y-110301000D01*
G75*
G02*
X63519000Y-110051000I0J250000D01*
G01*
G37*
G36*
G01*
X89332750Y-67409000D02*
X90245250Y-67409000D01*
G75*
G02*
X90489000Y-67652750I0J-243750D01*
G01*
X90489000Y-68140250D01*
G75*
G02*
X90245250Y-68384000I-243750J0D01*
G01*
X89332750Y-68384000D01*
G75*
G02*
X89089000Y-68140250I0J243750D01*
G01*
X89089000Y-67652750D01*
G75*
G02*
X89332750Y-67409000I243750J0D01*
G01*
G37*
G36*
G01*
X89332750Y-69284000D02*
X90245250Y-69284000D01*
G75*
G02*
X90489000Y-69527750I0J-243750D01*
G01*
X90489000Y-70015250D01*
G75*
G02*
X90245250Y-70259000I-243750J0D01*
G01*
X89332750Y-70259000D01*
G75*
G02*
X89089000Y-70015250I0J243750D01*
G01*
X89089000Y-69527750D01*
G75*
G02*
X89332750Y-69284000I243750J0D01*
G01*
G37*
G36*
G01*
X83163000Y-107083000D02*
X83163000Y-105833000D01*
G75*
G02*
X83313000Y-105683000I150000J0D01*
G01*
X83613000Y-105683000D01*
G75*
G02*
X83763000Y-105833000I0J-150000D01*
G01*
X83763000Y-107083000D01*
G75*
G02*
X83613000Y-107233000I-150000J0D01*
G01*
X83313000Y-107233000D01*
G75*
G02*
X83163000Y-107083000I0J150000D01*
G01*
G37*
G36*
G01*
X84163000Y-107083000D02*
X84163000Y-105833000D01*
G75*
G02*
X84313000Y-105683000I150000J0D01*
G01*
X84613000Y-105683000D01*
G75*
G02*
X84763000Y-105833000I0J-150000D01*
G01*
X84763000Y-107083000D01*
G75*
G02*
X84613000Y-107233000I-150000J0D01*
G01*
X84313000Y-107233000D01*
G75*
G02*
X84163000Y-107083000I0J150000D01*
G01*
G37*
G36*
G01*
X85163000Y-107083000D02*
X85163000Y-105833000D01*
G75*
G02*
X85313000Y-105683000I150000J0D01*
G01*
X85613000Y-105683000D01*
G75*
G02*
X85763000Y-105833000I0J-150000D01*
G01*
X85763000Y-107083000D01*
G75*
G02*
X85613000Y-107233000I-150000J0D01*
G01*
X85313000Y-107233000D01*
G75*
G02*
X85163000Y-107083000I0J150000D01*
G01*
G37*
G36*
G01*
X86163000Y-107083000D02*
X86163000Y-105833000D01*
G75*
G02*
X86313000Y-105683000I150000J0D01*
G01*
X86613000Y-105683000D01*
G75*
G02*
X86763000Y-105833000I0J-150000D01*
G01*
X86763000Y-107083000D01*
G75*
G02*
X86613000Y-107233000I-150000J0D01*
G01*
X86313000Y-107233000D01*
G75*
G02*
X86163000Y-107083000I0J150000D01*
G01*
G37*
G36*
G01*
X87163000Y-110983000D02*
X87163000Y-109683000D01*
G75*
G02*
X87413000Y-109433000I250000J0D01*
G01*
X88113000Y-109433000D01*
G75*
G02*
X88363000Y-109683000I0J-250000D01*
G01*
X88363000Y-110983000D01*
G75*
G02*
X88113000Y-111233000I-250000J0D01*
G01*
X87413000Y-111233000D01*
G75*
G02*
X87163000Y-110983000I0J250000D01*
G01*
G37*
G36*
G01*
X81563000Y-110983000D02*
X81563000Y-109683000D01*
G75*
G02*
X81813000Y-109433000I250000J0D01*
G01*
X82513000Y-109433000D01*
G75*
G02*
X82763000Y-109683000I0J-250000D01*
G01*
X82763000Y-110983000D01*
G75*
G02*
X82513000Y-111233000I-250000J0D01*
G01*
X81813000Y-111233000D01*
G75*
G02*
X81563000Y-110983000I0J250000D01*
G01*
G37*
G36*
G01*
X60777000Y-65911000D02*
X60777000Y-64807000D01*
G75*
G02*
X60915000Y-64669000I138000J0D01*
G01*
X62739000Y-64669000D01*
G75*
G02*
X62877000Y-64807000I0J-138000D01*
G01*
X62877000Y-65911000D01*
G75*
G02*
X62739000Y-66049000I-138000J0D01*
G01*
X60915000Y-66049000D01*
G75*
G02*
X60777000Y-65911000I0J138000D01*
G01*
G37*
G36*
G01*
X51677000Y-65911000D02*
X51677000Y-64807000D01*
G75*
G02*
X51815000Y-64669000I138000J0D01*
G01*
X53639000Y-64669000D01*
G75*
G02*
X53777000Y-64807000I0J-138000D01*
G01*
X53777000Y-65911000D01*
G75*
G02*
X53639000Y-66049000I-138000J0D01*
G01*
X51815000Y-66049000D01*
G75*
G02*
X51677000Y-65911000I0J138000D01*
G01*
G37*
G36*
G01*
X60777000Y-61431000D02*
X60777000Y-60327000D01*
G75*
G02*
X60915000Y-60189000I138000J0D01*
G01*
X62739000Y-60189000D01*
G75*
G02*
X62877000Y-60327000I0J-138000D01*
G01*
X62877000Y-61431000D01*
G75*
G02*
X62739000Y-61569000I-138000J0D01*
G01*
X60915000Y-61569000D01*
G75*
G02*
X60777000Y-61431000I0J138000D01*
G01*
G37*
G36*
G01*
X51677000Y-61431000D02*
X51677000Y-60327000D01*
G75*
G02*
X51815000Y-60189000I138000J0D01*
G01*
X53639000Y-60189000D01*
G75*
G02*
X53777000Y-60327000I0J-138000D01*
G01*
X53777000Y-61431000D01*
G75*
G02*
X53639000Y-61569000I-138000J0D01*
G01*
X51815000Y-61569000D01*
G75*
G02*
X51677000Y-61431000I0J138000D01*
G01*
G37*
G36*
G01*
X119306000Y-92108000D02*
X119306000Y-93058000D01*
G75*
G02*
X119056000Y-93308000I-250000J0D01*
G01*
X118556000Y-93308000D01*
G75*
G02*
X118306000Y-93058000I0J250000D01*
G01*
X118306000Y-92108000D01*
G75*
G02*
X118556000Y-91858000I250000J0D01*
G01*
X119056000Y-91858000D01*
G75*
G02*
X119306000Y-92108000I0J-250000D01*
G01*
G37*
G36*
G01*
X117406000Y-92108000D02*
X117406000Y-93058000D01*
G75*
G02*
X117156000Y-93308000I-250000J0D01*
G01*
X116656000Y-93308000D01*
G75*
G02*
X116406000Y-93058000I0J250000D01*
G01*
X116406000Y-92108000D01*
G75*
G02*
X116656000Y-91858000I250000J0D01*
G01*
X117156000Y-91858000D01*
G75*
G02*
X117406000Y-92108000I0J-250000D01*
G01*
G37*
G36*
G01*
X109146000Y-92108000D02*
X109146000Y-93058000D01*
G75*
G02*
X108896000Y-93308000I-250000J0D01*
G01*
X108396000Y-93308000D01*
G75*
G02*
X108146000Y-93058000I0J250000D01*
G01*
X108146000Y-92108000D01*
G75*
G02*
X108396000Y-91858000I250000J0D01*
G01*
X108896000Y-91858000D01*
G75*
G02*
X109146000Y-92108000I0J-250000D01*
G01*
G37*
G36*
G01*
X107246000Y-92108000D02*
X107246000Y-93058000D01*
G75*
G02*
X106996000Y-93308000I-250000J0D01*
G01*
X106496000Y-93308000D01*
G75*
G02*
X106246000Y-93058000I0J250000D01*
G01*
X106246000Y-92108000D01*
G75*
G02*
X106496000Y-91858000I250000J0D01*
G01*
X106996000Y-91858000D01*
G75*
G02*
X107246000Y-92108000I0J-250000D01*
G01*
G37*
D25*
X80010000Y-89536000D03*
X80010000Y-92836000D03*
X62230000Y-69216000D03*
X62230000Y-72516000D03*
X69850000Y-89536000D03*
X69850000Y-92836000D03*
G36*
G01*
X128281000Y-67210000D02*
X129231000Y-67210000D01*
G75*
G02*
X129481000Y-67460000I0J-250000D01*
G01*
X129481000Y-67960000D01*
G75*
G02*
X129231000Y-68210000I-250000J0D01*
G01*
X128281000Y-68210000D01*
G75*
G02*
X128031000Y-67960000I0J250000D01*
G01*
X128031000Y-67460000D01*
G75*
G02*
X128281000Y-67210000I250000J0D01*
G01*
G37*
G36*
G01*
X128281000Y-69110000D02*
X129231000Y-69110000D01*
G75*
G02*
X129481000Y-69360000I0J-250000D01*
G01*
X129481000Y-69860000D01*
G75*
G02*
X129231000Y-70110000I-250000J0D01*
G01*
X128281000Y-70110000D01*
G75*
G02*
X128031000Y-69860000I0J250000D01*
G01*
X128031000Y-69360000D01*
G75*
G02*
X128281000Y-69110000I250000J0D01*
G01*
G37*
D26*
X68884800Y-72124001D03*
X68884800Y-71624000D03*
X68884800Y-71124000D03*
X68884800Y-70623999D03*
D27*
X68187001Y-69926200D03*
X67687000Y-69926200D03*
X67187000Y-69926200D03*
X66686999Y-69926200D03*
D26*
X65989200Y-70623999D03*
X65989200Y-71124000D03*
X65989200Y-71624000D03*
X65989200Y-72124001D03*
D27*
X66686999Y-72821800D03*
X67187000Y-72821800D03*
X67687000Y-72821800D03*
X68187001Y-72821800D03*
D28*
X67437000Y-71374000D03*
M02*
