G04 #@! TF.GenerationSoftware,KiCad,Pcbnew,6.0.11-2627ca5db0~126~ubuntu22.04.1*
G04 #@! TF.CreationDate,2025-05-31T21:30:08-06:00*
G04 #@! TF.ProjectId,snd-defect,736e642d-6465-4666-9563-742e6b696361,rev?*
G04 #@! TF.SameCoordinates,Original*
G04 #@! TF.FileFunction,Copper,L2,Bot*
G04 #@! TF.FilePolarity,Positive*
%FSLAX46Y46*%
G04 Gerber Fmt 4.6, Leading zero omitted, Abs format (unit mm)*
G04 Created by KiCad (PCBNEW 6.0.11-2627ca5db0~126~ubuntu22.04.1) date 2025-05-31 21:30:08*
%MOMM*%
%LPD*%
G01*
G04 APERTURE LIST*
G04 #@! TA.AperFunction,ComponentPad*
%ADD10R,2.500000X2.500000*%
G04 #@! TD*
G04 #@! TA.AperFunction,ComponentPad*
%ADD11C,2.500000*%
G04 #@! TD*
G04 #@! TA.AperFunction,ComponentPad*
%ADD12C,6.400000*%
G04 #@! TD*
G04 #@! TA.AperFunction,ComponentPad*
%ADD13O,5.000000X2.500000*%
G04 #@! TD*
G04 #@! TA.AperFunction,ComponentPad*
%ADD14O,4.500000X2.250000*%
G04 #@! TD*
G04 #@! TA.AperFunction,ComponentPad*
%ADD15O,2.250000X4.500000*%
G04 #@! TD*
G04 #@! TA.AperFunction,ViaPad*
%ADD16C,0.609600*%
G04 #@! TD*
G04 #@! TA.AperFunction,Conductor*
%ADD17C,0.508000*%
G04 #@! TD*
G04 #@! TA.AperFunction,Conductor*
%ADD18C,0.203200*%
G04 #@! TD*
G04 #@! TA.AperFunction,Conductor*
%ADD19C,0.254000*%
G04 #@! TD*
G04 APERTURE END LIST*
D10*
X142920999Y-84414995D03*
D11*
X142920999Y-79414995D03*
D12*
X145542000Y-55118000D03*
D13*
X72136000Y-97767000D03*
D14*
X72136000Y-103767000D03*
D15*
X76836000Y-100767000D03*
D12*
X145542000Y-107442000D03*
D10*
X61422001Y-93258005D03*
D11*
X61422001Y-98258005D03*
D12*
X55118000Y-107442000D03*
X55118000Y-55118000D03*
D16*
X59436000Y-76200000D03*
X85979000Y-78740000D03*
X89281000Y-58547000D03*
X147320000Y-92329000D03*
X130937000Y-74168000D03*
X58547000Y-68834000D03*
X103759000Y-69088000D03*
X123779000Y-84501000D03*
X62484000Y-85344000D03*
X68961000Y-68453000D03*
X59436000Y-75311000D03*
X103759000Y-63881000D03*
X70612000Y-86106000D03*
X85979000Y-77851000D03*
X59436000Y-74422000D03*
X73533000Y-53213000D03*
X70866000Y-70993000D03*
X70104000Y-70993000D03*
X85979000Y-76962000D03*
X117094000Y-58674000D03*
X86106000Y-94361000D03*
X58547000Y-75311000D03*
X78994000Y-94234000D03*
X86868000Y-76962000D03*
X78105000Y-94234000D03*
X122174000Y-106172000D03*
X71501000Y-86995000D03*
X116586000Y-94488000D03*
X61595000Y-84455000D03*
X79883000Y-94234000D03*
X82296000Y-106172000D03*
X123779000Y-79294000D03*
X69850000Y-68453000D03*
X71501000Y-84328000D03*
X130048000Y-74168000D03*
X112014000Y-106172000D03*
X59563000Y-68834000D03*
X68961000Y-67691000D03*
X71501000Y-86106000D03*
X78105000Y-93345000D03*
X69215000Y-52451000D03*
X87757000Y-78740000D03*
X61595000Y-85344000D03*
X130937000Y-59817000D03*
X83312000Y-60579000D03*
X107823000Y-66421000D03*
X70612000Y-83439000D03*
X86614000Y-58166000D03*
X62484000Y-84455000D03*
X61595000Y-86233000D03*
X67818000Y-52451000D03*
X130642000Y-69764000D03*
X102489000Y-65024000D03*
X81534000Y-106172000D03*
X85725000Y-58547000D03*
X148209000Y-92329000D03*
X148209000Y-93218000D03*
X92456000Y-106172000D03*
X131404000Y-69764000D03*
X59563000Y-67945000D03*
X126746000Y-94488000D03*
X64897000Y-52324000D03*
X83820000Y-59055000D03*
X96266000Y-94488000D03*
X62484000Y-83566000D03*
X86868000Y-78740000D03*
X102489000Y-66421000D03*
X106553000Y-69088000D03*
X85090000Y-77851000D03*
X130937000Y-62484000D03*
X102616000Y-106172000D03*
X129159000Y-74168000D03*
X90170000Y-58166000D03*
X88392000Y-58166000D03*
X83820000Y-58166000D03*
X85090000Y-76962000D03*
X107823000Y-65024000D03*
X91694000Y-106172000D03*
X60325000Y-76200000D03*
X136906000Y-94488000D03*
X87757000Y-77851000D03*
X58547000Y-67945000D03*
X130937000Y-61595000D03*
X82423000Y-60579000D03*
X107823000Y-67818000D03*
X64897000Y-53213000D03*
X70612000Y-84328000D03*
X75311000Y-78486000D03*
X58547000Y-74422000D03*
X70612000Y-85217000D03*
X70612000Y-52451000D03*
X86868000Y-77851000D03*
X64770000Y-71755000D03*
X123571000Y-59944000D03*
X76200000Y-78486000D03*
X133096000Y-106172000D03*
X58547000Y-76200000D03*
X117856000Y-58674000D03*
X60325000Y-75311000D03*
X112776000Y-106172000D03*
X66167000Y-103378000D03*
X69850000Y-67691000D03*
X147320000Y-93218000D03*
X71501000Y-85217000D03*
X87757000Y-67945000D03*
X122936000Y-106172000D03*
X135382000Y-89408000D03*
X87503000Y-58547000D03*
X130937000Y-60706000D03*
X136144000Y-89408000D03*
X106553000Y-63881000D03*
X62484000Y-86233000D03*
X61595000Y-83566000D03*
X70612000Y-86995000D03*
X130937000Y-64262000D03*
X73533000Y-52324000D03*
X106426000Y-94488000D03*
X148209000Y-91440000D03*
X132334000Y-106172000D03*
X105156000Y-63881000D03*
X84201000Y-76962000D03*
X64770000Y-72517000D03*
X60325000Y-74422000D03*
X147320000Y-91440000D03*
X128270000Y-74168000D03*
X83820000Y-59944000D03*
X87757000Y-76962000D03*
X84836000Y-58166000D03*
X124460000Y-59944000D03*
X84201000Y-77851000D03*
X70739000Y-68453000D03*
X105156000Y-69088000D03*
X70739000Y-67691000D03*
X101854000Y-106172000D03*
X71501000Y-83439000D03*
X130937000Y-63373000D03*
X78105000Y-92456000D03*
X78613000Y-53848000D03*
X102489000Y-67818000D03*
X145161000Y-75692000D03*
X65659000Y-87884000D03*
X64389000Y-62738000D03*
X64389000Y-63627000D03*
X65278000Y-65405000D03*
X66548000Y-87884000D03*
X65405000Y-109601000D03*
X65278000Y-64516000D03*
X79121000Y-109855000D03*
X140081000Y-108966000D03*
X75565000Y-66167000D03*
X66548000Y-88773000D03*
X65278000Y-63627000D03*
X78232000Y-108966000D03*
X65278000Y-62738000D03*
X65659000Y-89662000D03*
X75565000Y-65151000D03*
X67437000Y-87884000D03*
X78232000Y-108077000D03*
X140081000Y-109855000D03*
X79121000Y-108077000D03*
X75565000Y-64135000D03*
X79121000Y-108966000D03*
X78232000Y-109855000D03*
X67437000Y-89662000D03*
X64389000Y-65405000D03*
X140081000Y-108077000D03*
X134874000Y-58293000D03*
X75565000Y-63119000D03*
X64389000Y-66294000D03*
X65659000Y-88773000D03*
X64389000Y-64516000D03*
X66548000Y-89662000D03*
X67437000Y-88773000D03*
X65278000Y-66294000D03*
X75565000Y-62103000D03*
X134112000Y-59817000D03*
X146050000Y-75311000D03*
X146050000Y-76073000D03*
X96139000Y-60833000D03*
X96139000Y-60071000D03*
X134112000Y-59055000D03*
X75184000Y-51435000D03*
X96139000Y-61849000D03*
X78547000Y-55814000D03*
X58928000Y-51435000D03*
X144272000Y-75565000D03*
X135763000Y-59182000D03*
X72390000Y-70104000D03*
X75311000Y-70104000D03*
X68707000Y-57404000D03*
X144018000Y-102489000D03*
X145288000Y-102108000D03*
X67691000Y-57404000D03*
D17*
X145161000Y-75692000D02*
X145161000Y-61849000D01*
X141605000Y-58293000D02*
X134874000Y-58293000D01*
X145161000Y-61849000D02*
X141605000Y-58293000D01*
X96901000Y-57531000D02*
X96139000Y-58293000D01*
X146050000Y-61722000D02*
X141859000Y-57531000D01*
X96139000Y-58293000D02*
X96139000Y-60833000D01*
X141859000Y-57531000D02*
X96901000Y-57531000D01*
X146050000Y-76073000D02*
X146050000Y-61722000D01*
X134112000Y-59817000D02*
X134112000Y-57531000D01*
D18*
X95504000Y-61214000D02*
X95504000Y-57785000D01*
X95047289Y-57328289D02*
X80061289Y-57328289D01*
X96139000Y-61849000D02*
X95504000Y-61214000D01*
X80061289Y-57328289D02*
X78547000Y-55814000D01*
X95504000Y-57785000D02*
X95047289Y-57328289D01*
D19*
X58928000Y-51435000D02*
X75184000Y-51435000D01*
X144272000Y-61849000D02*
X141605000Y-59182000D01*
X141605000Y-59182000D02*
X135763000Y-59182000D01*
X144272000Y-75565000D02*
X144272000Y-61849000D01*
D18*
X72390000Y-70104000D02*
X75311000Y-70104000D01*
D19*
X59817000Y-110744000D02*
X59436000Y-110363000D01*
X59436000Y-105473500D02*
X57086500Y-103124000D01*
X140843000Y-110744000D02*
X59817000Y-110744000D01*
X57086500Y-103124000D02*
X52197000Y-103124000D01*
X52197000Y-103124000D02*
X51816000Y-102743000D01*
X51816000Y-61087000D02*
X52197000Y-60706000D01*
X52197000Y-60706000D02*
X67564000Y-60706000D01*
X51816000Y-102743000D02*
X51816000Y-61087000D01*
X59436000Y-110363000D02*
X59436000Y-105473500D01*
X141224000Y-110363000D02*
X140843000Y-110744000D01*
X141224000Y-105283000D02*
X141224000Y-110363000D01*
X67564000Y-60706000D02*
X68707000Y-59563000D01*
X68707000Y-59563000D02*
X68707000Y-57404000D01*
X144018000Y-102489000D02*
X141224000Y-105283000D01*
X58928000Y-105664000D02*
X56896000Y-103632000D01*
X51308000Y-102997000D02*
X51308000Y-60833000D01*
X67691000Y-59690000D02*
X67691000Y-57404000D01*
X67183000Y-60198000D02*
X67691000Y-59690000D01*
X51943000Y-103632000D02*
X51308000Y-102997000D01*
X51943000Y-60198000D02*
X67183000Y-60198000D01*
X58928000Y-110617000D02*
X58928000Y-105664000D01*
X141732000Y-105664000D02*
X141732000Y-110617000D01*
X51308000Y-60833000D02*
X51943000Y-60198000D01*
X56896000Y-103632000D02*
X51943000Y-103632000D01*
X59563000Y-111252000D02*
X58928000Y-110617000D01*
X141732000Y-110617000D02*
X141097000Y-111252000D01*
X145288000Y-102108000D02*
X141732000Y-105664000D01*
X141097000Y-111252000D02*
X59563000Y-111252000D01*
G04 #@! TA.AperFunction,Conductor*
G36*
X76142121Y-61107002D02*
G01*
X76188614Y-61160658D01*
X76200000Y-61213000D01*
X76200000Y-66803000D01*
X76179998Y-66871121D01*
X76126342Y-66917614D01*
X76074000Y-66929000D01*
X56134000Y-66929000D01*
X56134000Y-87376000D01*
X67819000Y-87376000D01*
X67887121Y-87396002D01*
X67933614Y-87449658D01*
X67945000Y-87502000D01*
X67945000Y-90044000D01*
X67924998Y-90112121D01*
X67871342Y-90158614D01*
X67819000Y-90170000D01*
X56134000Y-90170000D01*
X56134000Y-99822000D01*
X59383810Y-99822000D01*
X59451931Y-99842002D01*
X59472905Y-99858905D01*
X66929000Y-107315000D01*
X140716500Y-107315000D01*
X140784621Y-107335002D01*
X140831114Y-107388658D01*
X140842500Y-107441000D01*
X140842500Y-110152787D01*
X140822498Y-110220908D01*
X140805595Y-110241883D01*
X140721881Y-110325596D01*
X140659568Y-110359621D01*
X140632786Y-110362500D01*
X60027213Y-110362500D01*
X59959092Y-110342498D01*
X59938117Y-110325595D01*
X59854404Y-110241881D01*
X59820379Y-110179568D01*
X59817500Y-110152786D01*
X59817500Y-105527640D01*
X59820087Y-105503324D01*
X59820154Y-105501901D01*
X59822346Y-105491720D01*
X59818373Y-105458152D01*
X59818021Y-105452178D01*
X59817928Y-105452186D01*
X59817500Y-105447008D01*
X59817500Y-105441808D01*
X59816646Y-105436676D01*
X59814314Y-105422665D01*
X59813477Y-105416786D01*
X59808642Y-105375933D01*
X59808642Y-105375932D01*
X59807418Y-105365593D01*
X59803433Y-105357294D01*
X59801922Y-105348217D01*
X59777442Y-105302849D01*
X59774761Y-105297586D01*
X59755869Y-105258243D01*
X59752440Y-105251102D01*
X59748831Y-105246808D01*
X59746905Y-105244882D01*
X59745109Y-105242924D01*
X59745079Y-105242867D01*
X59745208Y-105242749D01*
X59744710Y-105242184D01*
X59741612Y-105236443D01*
X59731488Y-105227084D01*
X59701805Y-105199646D01*
X59698239Y-105196216D01*
X57394544Y-102892521D01*
X57379185Y-102873505D01*
X57378219Y-102872444D01*
X57372571Y-102863696D01*
X57346028Y-102842771D01*
X57341553Y-102838794D01*
X57341492Y-102838865D01*
X57337535Y-102835512D01*
X57333852Y-102831829D01*
X57318061Y-102820545D01*
X57313315Y-102816982D01*
X57281007Y-102791512D01*
X57281006Y-102791511D01*
X57272830Y-102785066D01*
X57264143Y-102782015D01*
X57256657Y-102776666D01*
X57246681Y-102773683D01*
X57246680Y-102773682D01*
X57207289Y-102761902D01*
X57201657Y-102760072D01*
X57152998Y-102742984D01*
X57147409Y-102742500D01*
X57144698Y-102742500D01*
X57142031Y-102742385D01*
X57141968Y-102742366D01*
X57141975Y-102742192D01*
X57141229Y-102742145D01*
X57134976Y-102740275D01*
X57086192Y-102742192D01*
X57080822Y-102742403D01*
X57075875Y-102742500D01*
X52407213Y-102742500D01*
X52339092Y-102722498D01*
X52318117Y-102705595D01*
X52234404Y-102621881D01*
X52200379Y-102559568D01*
X52197500Y-102532786D01*
X52197500Y-61297213D01*
X52217502Y-61229092D01*
X52234405Y-61208117D01*
X52318119Y-61124404D01*
X52380432Y-61090379D01*
X52407214Y-61087500D01*
X67509865Y-61087500D01*
X67534164Y-61090086D01*
X67535602Y-61090154D01*
X67545780Y-61092345D01*
X67579341Y-61088373D01*
X67585320Y-61088021D01*
X67585312Y-61087928D01*
X67590490Y-61087500D01*
X67595692Y-61087500D01*
X67597693Y-61087167D01*
X67601741Y-61087000D01*
X76074000Y-61087000D01*
X76142121Y-61107002D01*
G37*
G04 #@! TD.AperFunction*
G04 #@! TA.AperFunction,Conductor*
G36*
X58359775Y-51074502D02*
G01*
X58406268Y-51128158D01*
X58416372Y-51198432D01*
X58408062Y-51228719D01*
X58386257Y-51281360D01*
X58386256Y-51281365D01*
X58383096Y-51288993D01*
X58363874Y-51435000D01*
X58383096Y-51581007D01*
X58439453Y-51717063D01*
X58529103Y-51833897D01*
X58645937Y-51923547D01*
X58781993Y-51979904D01*
X58790177Y-51980981D01*
X58790179Y-51980982D01*
X58919812Y-51998048D01*
X58928000Y-51999126D01*
X58936188Y-51998048D01*
X59065821Y-51980982D01*
X59065823Y-51980981D01*
X59074007Y-51979904D01*
X59210063Y-51923547D01*
X59315638Y-51842536D01*
X59381856Y-51816937D01*
X59392340Y-51816500D01*
X74719660Y-51816500D01*
X74787781Y-51836502D01*
X74796350Y-51842527D01*
X74901937Y-51923547D01*
X75037993Y-51979904D01*
X75046177Y-51980981D01*
X75046179Y-51980982D01*
X75175812Y-51998048D01*
X75184000Y-51999126D01*
X75192188Y-51998048D01*
X75321821Y-51980982D01*
X75321823Y-51980981D01*
X75330007Y-51979904D01*
X75466063Y-51923547D01*
X75582897Y-51833897D01*
X75672547Y-51717063D01*
X75728904Y-51581007D01*
X75748126Y-51435000D01*
X75728904Y-51288993D01*
X75725744Y-51281365D01*
X75725743Y-51281360D01*
X75703938Y-51228719D01*
X75696348Y-51158130D01*
X75728126Y-51094642D01*
X75789184Y-51058414D01*
X75820346Y-51054500D01*
X79122000Y-51054500D01*
X79190121Y-51074502D01*
X79236614Y-51128158D01*
X79248000Y-51180500D01*
X79248000Y-55437628D01*
X79227998Y-55505749D01*
X79174342Y-55552242D01*
X79104068Y-55562346D01*
X79039488Y-55532852D01*
X79022043Y-55514339D01*
X78945897Y-55415103D01*
X78829063Y-55325453D01*
X78693007Y-55269096D01*
X78684823Y-55268019D01*
X78684821Y-55268018D01*
X78555188Y-55250952D01*
X78547000Y-55249874D01*
X78538812Y-55250952D01*
X78409179Y-55268018D01*
X78409177Y-55268019D01*
X78400993Y-55269096D01*
X78264937Y-55325453D01*
X78148103Y-55415103D01*
X78058453Y-55531937D01*
X78002096Y-55667993D01*
X77982874Y-55814000D01*
X77983952Y-55822188D01*
X77992151Y-55884463D01*
X78002096Y-55960007D01*
X78058453Y-56096063D01*
X78148103Y-56212897D01*
X78264937Y-56302547D01*
X78400993Y-56358904D01*
X78409177Y-56359981D01*
X78409179Y-56359982D01*
X78523768Y-56375067D01*
X78547000Y-56378126D01*
X78554545Y-56377133D01*
X78622377Y-56397050D01*
X78643352Y-56413953D01*
X79211096Y-56981698D01*
X79245121Y-57044010D01*
X79248000Y-57070793D01*
X79248000Y-57277000D01*
X79454208Y-57277000D01*
X79522329Y-57297002D01*
X79543303Y-57313905D01*
X79773122Y-57543724D01*
X79785794Y-57559414D01*
X79788616Y-57562515D01*
X79794264Y-57571263D01*
X79802442Y-57577710D01*
X79818656Y-57590492D01*
X79822686Y-57594073D01*
X79822769Y-57593975D01*
X79826726Y-57597328D01*
X79830407Y-57601009D01*
X79834639Y-57604033D01*
X79834641Y-57604035D01*
X79845000Y-57611438D01*
X79849745Y-57615001D01*
X79879184Y-57638209D01*
X79879186Y-57638210D01*
X79887364Y-57644657D01*
X79895469Y-57647503D01*
X79902460Y-57652499D01*
X79941770Y-57664255D01*
X79948351Y-57666223D01*
X79953996Y-57668057D01*
X79991736Y-57681310D01*
X79991739Y-57681311D01*
X79999218Y-57683937D01*
X80004437Y-57684389D01*
X80007148Y-57684389D01*
X80009425Y-57684487D01*
X80009874Y-57684622D01*
X80009872Y-57684676D01*
X80010105Y-57684691D01*
X80016041Y-57686466D01*
X80066439Y-57684486D01*
X80071385Y-57684389D01*
X94847597Y-57684389D01*
X94915718Y-57704391D01*
X94936693Y-57721294D01*
X95110996Y-57895598D01*
X95145021Y-57957910D01*
X95147900Y-57984693D01*
X95147900Y-61162572D01*
X95145766Y-61182621D01*
X95145568Y-61186811D01*
X95143376Y-61196993D01*
X95144600Y-61207334D01*
X95147027Y-61227840D01*
X95147344Y-61233215D01*
X95147472Y-61233204D01*
X95147900Y-61238382D01*
X95147900Y-61243584D01*
X95148754Y-61248714D01*
X95150839Y-61261243D01*
X95151674Y-61267115D01*
X95156084Y-61304374D01*
X95156086Y-61304381D01*
X95157310Y-61314722D01*
X95161030Y-61322468D01*
X95162440Y-61330942D01*
X95183270Y-61369548D01*
X95185192Y-61373109D01*
X95187885Y-61378396D01*
X95205195Y-61414442D01*
X95205197Y-61414445D01*
X95208628Y-61421590D01*
X95211999Y-61425600D01*
X95213937Y-61427538D01*
X95215452Y-61429189D01*
X95215673Y-61429599D01*
X95215631Y-61429637D01*
X95215792Y-61429820D01*
X95218735Y-61435274D01*
X95226382Y-61442342D01*
X95226382Y-61442343D01*
X95255795Y-61469532D01*
X95259361Y-61472962D01*
X95539047Y-61752648D01*
X95573073Y-61814960D01*
X95575897Y-61841230D01*
X95574874Y-61849000D01*
X95594096Y-61995007D01*
X95650453Y-62131063D01*
X95740103Y-62247897D01*
X95856937Y-62337547D01*
X95992993Y-62393904D01*
X96001177Y-62394981D01*
X96001179Y-62394982D01*
X96130812Y-62412048D01*
X96139000Y-62413126D01*
X96147188Y-62412048D01*
X96276821Y-62394982D01*
X96276823Y-62394981D01*
X96285007Y-62393904D01*
X96421063Y-62337547D01*
X96537897Y-62247897D01*
X96627547Y-62131063D01*
X96683904Y-61995007D01*
X96703126Y-61849000D01*
X96683904Y-61702993D01*
X96627547Y-61566937D01*
X96537897Y-61450103D01*
X96525984Y-61440962D01*
X96484117Y-61383626D01*
X96479895Y-61312755D01*
X96514658Y-61250851D01*
X96525981Y-61241041D01*
X96537897Y-61231897D01*
X96627547Y-61115063D01*
X96683904Y-60979007D01*
X96693655Y-60904944D01*
X96702048Y-60841188D01*
X96703126Y-60833000D01*
X96683904Y-60686993D01*
X96680744Y-60679364D01*
X96657091Y-60622260D01*
X96647500Y-60574042D01*
X96647500Y-60329958D01*
X96657091Y-60281740D01*
X96680744Y-60224636D01*
X96683904Y-60217007D01*
X96703126Y-60071000D01*
X96683904Y-59924993D01*
X96680744Y-59917364D01*
X96657091Y-59860260D01*
X96647500Y-59812042D01*
X96647500Y-58555818D01*
X96667502Y-58487697D01*
X96684405Y-58466722D01*
X97074724Y-58076404D01*
X97137036Y-58042379D01*
X97163819Y-58039500D01*
X133477500Y-58039500D01*
X133545621Y-58059502D01*
X133592114Y-58113158D01*
X133603500Y-58165500D01*
X133603500Y-58796042D01*
X133593909Y-58844260D01*
X133571032Y-58899491D01*
X133567096Y-58908993D01*
X133547874Y-59055000D01*
X133548952Y-59063188D01*
X133565672Y-59190188D01*
X133567096Y-59201007D01*
X133570256Y-59208636D01*
X133593909Y-59265740D01*
X133603500Y-59313958D01*
X133603500Y-59558042D01*
X133593909Y-59606260D01*
X133588667Y-59618916D01*
X133567096Y-59670993D01*
X133566019Y-59679177D01*
X133566018Y-59679179D01*
X133557339Y-59745106D01*
X133547874Y-59817000D01*
X133550510Y-59837023D01*
X133563040Y-59932195D01*
X133567096Y-59963007D01*
X133623453Y-60099063D01*
X133713103Y-60215897D01*
X133829937Y-60305547D01*
X133965993Y-60361904D01*
X133974177Y-60362981D01*
X133974179Y-60362982D01*
X134103812Y-60380048D01*
X134112000Y-60381126D01*
X134120188Y-60380048D01*
X134249821Y-60362982D01*
X134249823Y-60362981D01*
X134258007Y-60361904D01*
X134394063Y-60305547D01*
X134510897Y-60215897D01*
X134600547Y-60099063D01*
X134656904Y-59963007D01*
X134660961Y-59932195D01*
X134673490Y-59837023D01*
X134676126Y-59817000D01*
X134666661Y-59745106D01*
X134657982Y-59679179D01*
X134657981Y-59679177D01*
X134656904Y-59670993D01*
X134635333Y-59618916D01*
X134630091Y-59606260D01*
X134620500Y-59558042D01*
X134620500Y-59313958D01*
X134630091Y-59265740D01*
X134653744Y-59208636D01*
X134656904Y-59201007D01*
X134658329Y-59190188D01*
X134675048Y-59063188D01*
X134676126Y-59055000D01*
X134667559Y-58989927D01*
X134678498Y-58919779D01*
X134725626Y-58866680D01*
X134793980Y-58847490D01*
X134808926Y-58848559D01*
X134874000Y-58857126D01*
X134882188Y-58856048D01*
X135011821Y-58838982D01*
X135011823Y-58838981D01*
X135020007Y-58837904D01*
X135077129Y-58814243D01*
X135147719Y-58806654D01*
X135211206Y-58838433D01*
X135247434Y-58899491D01*
X135244900Y-58970442D01*
X135241757Y-58978871D01*
X135218096Y-59035993D01*
X135217019Y-59044177D01*
X135217018Y-59044179D01*
X135201933Y-59158768D01*
X135198874Y-59182000D01*
X135199952Y-59190188D01*
X135212947Y-59288893D01*
X135218096Y-59328007D01*
X135274453Y-59464063D01*
X135364103Y-59580897D01*
X135480937Y-59670547D01*
X135616993Y-59726904D01*
X135625177Y-59727981D01*
X135625179Y-59727982D01*
X135754812Y-59745048D01*
X135763000Y-59746126D01*
X135771188Y-59745048D01*
X135900821Y-59727982D01*
X135900823Y-59727981D01*
X135909007Y-59726904D01*
X136045063Y-59670547D01*
X136150638Y-59589536D01*
X136216856Y-59563937D01*
X136227340Y-59563500D01*
X141394788Y-59563500D01*
X141462909Y-59583502D01*
X141483883Y-59600405D01*
X143853595Y-61970117D01*
X143887621Y-62032429D01*
X143890500Y-62059212D01*
X143890500Y-75100660D01*
X143870498Y-75168781D01*
X143864473Y-75177350D01*
X143783453Y-75282937D01*
X143727096Y-75418993D01*
X143707874Y-75565000D01*
X143727096Y-75711007D01*
X143783453Y-75847063D01*
X143873103Y-75963897D01*
X143989937Y-76053547D01*
X144125993Y-76109904D01*
X144134177Y-76110981D01*
X144134179Y-76110982D01*
X144263812Y-76128048D01*
X144272000Y-76129126D01*
X144280188Y-76128048D01*
X144409821Y-76110982D01*
X144409823Y-76110981D01*
X144418007Y-76109904D01*
X144554063Y-76053547D01*
X144567004Y-76043617D01*
X144633224Y-76018016D01*
X144702773Y-76032281D01*
X144743669Y-76066873D01*
X144762103Y-76090897D01*
X144878937Y-76180547D01*
X145014993Y-76236904D01*
X145023177Y-76237981D01*
X145023179Y-76237982D01*
X145152812Y-76255048D01*
X145161000Y-76256126D01*
X145169188Y-76255048D01*
X145298821Y-76237982D01*
X145298823Y-76237981D01*
X145307007Y-76236904D01*
X145314635Y-76233744D01*
X145314640Y-76233743D01*
X145366004Y-76212467D01*
X145436594Y-76204877D01*
X145500081Y-76236655D01*
X145530631Y-76280656D01*
X145558291Y-76347432D01*
X145558295Y-76347439D01*
X145561453Y-76355063D01*
X145651103Y-76471897D01*
X145767937Y-76561547D01*
X145903993Y-76617904D01*
X145912177Y-76618981D01*
X145912179Y-76618982D01*
X146041812Y-76636048D01*
X146050000Y-76637126D01*
X146058188Y-76636048D01*
X146187821Y-76618982D01*
X146187823Y-76618981D01*
X146196007Y-76617904D01*
X146332063Y-76561547D01*
X146448897Y-76471897D01*
X146538547Y-76355063D01*
X146594904Y-76219007D01*
X146596765Y-76204877D01*
X146613048Y-76081188D01*
X146614126Y-76073000D01*
X146599966Y-75965443D01*
X146595982Y-75935179D01*
X146595981Y-75935177D01*
X146594904Y-75926993D01*
X146591744Y-75919364D01*
X146568091Y-75862260D01*
X146558500Y-75814042D01*
X146558500Y-75569958D01*
X146568091Y-75521740D01*
X146591744Y-75464636D01*
X146594904Y-75457007D01*
X146614126Y-75311000D01*
X146594904Y-75164993D01*
X146589834Y-75152754D01*
X146568091Y-75100260D01*
X146558500Y-75052042D01*
X146558500Y-61793073D01*
X146559855Y-61780944D01*
X146559373Y-61780905D01*
X146560093Y-61771954D01*
X146562074Y-61763200D01*
X146558742Y-61709492D01*
X146558500Y-61701690D01*
X146558500Y-61685487D01*
X146557016Y-61675122D01*
X146555987Y-61665072D01*
X146553611Y-61626784D01*
X146553055Y-61617823D01*
X146550006Y-61609377D01*
X146549407Y-61606486D01*
X146545178Y-61589520D01*
X146544352Y-61586695D01*
X146543080Y-61577813D01*
X146523478Y-61534702D01*
X146519672Y-61525351D01*
X146506645Y-61489265D01*
X146503596Y-61480819D01*
X146498301Y-61473571D01*
X146496920Y-61470973D01*
X146488085Y-61455855D01*
X146486506Y-61453386D01*
X146482792Y-61445218D01*
X146451884Y-61409347D01*
X146445599Y-61401431D01*
X146440452Y-61394385D01*
X146440447Y-61394380D01*
X146437575Y-61390448D01*
X146426600Y-61379473D01*
X146420242Y-61372625D01*
X146393576Y-61341677D01*
X146393575Y-61341676D01*
X146387713Y-61334873D01*
X146380178Y-61329989D01*
X146373934Y-61324542D01*
X146362069Y-61314942D01*
X142268823Y-57221696D01*
X142261200Y-57212156D01*
X142260832Y-57212470D01*
X142255014Y-57205634D01*
X142250224Y-57198042D01*
X142209875Y-57162407D01*
X142204188Y-57157061D01*
X142192745Y-57145618D01*
X142184370Y-57139341D01*
X142176541Y-57132967D01*
X142141049Y-57101622D01*
X142132926Y-57097808D01*
X142130438Y-57096174D01*
X142115477Y-57087186D01*
X142112892Y-57085771D01*
X142105705Y-57080384D01*
X142061357Y-57063759D01*
X142052040Y-57059832D01*
X142017326Y-57043534D01*
X142009200Y-57039719D01*
X142000331Y-57038338D01*
X141997498Y-57037472D01*
X141980611Y-57033042D01*
X141977726Y-57032408D01*
X141969316Y-57029255D01*
X141940158Y-57027088D01*
X141922094Y-57025746D01*
X141912048Y-57024592D01*
X141903425Y-57023249D01*
X141903422Y-57023249D01*
X141898614Y-57022500D01*
X141883094Y-57022500D01*
X141873757Y-57022154D01*
X141856854Y-57020898D01*
X141824059Y-57018461D01*
X141815280Y-57020335D01*
X141807022Y-57020898D01*
X141791839Y-57022500D01*
X134120623Y-57022500D01*
X134119853Y-57022498D01*
X134046215Y-57022048D01*
X134046214Y-57022048D01*
X134042279Y-57022024D01*
X134040935Y-57022408D01*
X134039590Y-57022500D01*
X130809000Y-57022500D01*
X130740879Y-57002498D01*
X130694386Y-56948842D01*
X130683000Y-56896500D01*
X130683000Y-55105924D01*
X142082447Y-55105924D01*
X142101378Y-55479624D01*
X142101915Y-55482979D01*
X142101916Y-55482985D01*
X142132861Y-55676179D01*
X142160557Y-55849094D01*
X142259293Y-56210011D01*
X142396430Y-56558154D01*
X142570365Y-56889450D01*
X142572262Y-56892274D01*
X142572265Y-56892278D01*
X142716931Y-57107564D01*
X142779061Y-57200024D01*
X142781256Y-57202630D01*
X142781260Y-57202636D01*
X142834769Y-57266179D01*
X143020079Y-57486241D01*
X143290598Y-57744755D01*
X143587455Y-57972541D01*
X143907176Y-58166935D01*
X144246021Y-58325661D01*
X144249239Y-58326763D01*
X144249242Y-58326764D01*
X144596803Y-58445761D01*
X144596811Y-58445763D01*
X144600026Y-58446864D01*
X144965051Y-58529126D01*
X145052200Y-58539056D01*
X145333442Y-58571100D01*
X145333450Y-58571100D01*
X145336825Y-58571485D01*
X145340229Y-58571503D01*
X145340232Y-58571503D01*
X145543556Y-58572567D01*
X145710999Y-58573444D01*
X145714385Y-58573094D01*
X145714387Y-58573094D01*
X146079805Y-58535332D01*
X146079814Y-58535331D01*
X146083197Y-58534981D01*
X146086530Y-58534267D01*
X146086533Y-58534266D01*
X146401596Y-58466722D01*
X146449063Y-58456546D01*
X146804318Y-58339056D01*
X147144807Y-58183887D01*
X147354295Y-58059502D01*
X147463601Y-57994601D01*
X147463606Y-57994598D01*
X147466546Y-57992852D01*
X147496354Y-57970472D01*
X147653113Y-57852773D01*
X147765771Y-57768187D01*
X148038983Y-57512521D01*
X148282985Y-57228842D01*
X148324182Y-57168900D01*
X148492992Y-56923280D01*
X148492997Y-56923273D01*
X148494922Y-56920471D01*
X148496534Y-56917477D01*
X148496539Y-56917469D01*
X148670694Y-56594027D01*
X148672316Y-56591015D01*
X148788168Y-56305705D01*
X148811811Y-56247480D01*
X148811813Y-56247475D01*
X148813091Y-56244327D01*
X148820613Y-56217923D01*
X148894082Y-55960007D01*
X148915601Y-55884463D01*
X148916174Y-55881111D01*
X148978075Y-55518981D01*
X148978075Y-55518979D01*
X148978647Y-55515634D01*
X148980850Y-55479624D01*
X149001380Y-55143948D01*
X149001490Y-55142152D01*
X149001574Y-55118000D01*
X148981339Y-54744368D01*
X148920870Y-54375107D01*
X148820875Y-54014537D01*
X148817627Y-54006373D01*
X148683783Y-53670039D01*
X148683779Y-53670031D01*
X148682523Y-53666874D01*
X148507434Y-53336188D01*
X148505534Y-53333382D01*
X148505530Y-53333375D01*
X148299561Y-53029162D01*
X148297654Y-53026345D01*
X148055639Y-52740970D01*
X147784219Y-52483402D01*
X147781512Y-52481340D01*
X147781504Y-52481333D01*
X147489281Y-52258720D01*
X147486569Y-52256654D01*
X147166172Y-52063377D01*
X147163082Y-52061943D01*
X147163077Y-52061940D01*
X146829871Y-51907272D01*
X146829869Y-51907271D01*
X146826775Y-51905835D01*
X146823540Y-51904740D01*
X146823535Y-51904738D01*
X146475583Y-51786963D01*
X146472348Y-51785868D01*
X146107038Y-51704881D01*
X145974294Y-51690226D01*
X145738500Y-51664193D01*
X145738495Y-51664193D01*
X145735119Y-51663820D01*
X145731720Y-51663814D01*
X145731719Y-51663814D01*
X145554987Y-51663506D01*
X145360940Y-51663167D01*
X145222079Y-51678007D01*
X144992263Y-51702567D01*
X144992257Y-51702568D01*
X144988879Y-51702929D01*
X144623289Y-51782641D01*
X144268446Y-51901369D01*
X144265353Y-51902791D01*
X144265352Y-51902792D01*
X144220228Y-51923547D01*
X143928501Y-52057727D01*
X143925567Y-52059483D01*
X143925565Y-52059484D01*
X143916110Y-52065143D01*
X143607431Y-52249883D01*
X143308991Y-52475591D01*
X143306509Y-52477930D01*
X143306503Y-52477935D01*
X143300702Y-52483402D01*
X143036674Y-52732210D01*
X142793664Y-53016738D01*
X142791736Y-53019565D01*
X142791734Y-53019567D01*
X142787111Y-53026345D01*
X142582804Y-53325847D01*
X142406561Y-53655921D01*
X142405288Y-53659089D01*
X142405287Y-53659090D01*
X142403368Y-53663865D01*
X142266997Y-54003098D01*
X142165744Y-54363317D01*
X142103986Y-54732365D01*
X142082447Y-55105924D01*
X130683000Y-55105924D01*
X130683000Y-51180500D01*
X130703002Y-51112379D01*
X130756658Y-51065886D01*
X130809000Y-51054500D01*
X149479500Y-51054500D01*
X149547621Y-51074502D01*
X149594114Y-51128158D01*
X149605500Y-51180500D01*
X149605500Y-111379500D01*
X149585498Y-111447621D01*
X149531842Y-111494114D01*
X149479500Y-111505500D01*
X141687212Y-111505500D01*
X141619091Y-111485498D01*
X141572598Y-111431842D01*
X141562494Y-111361568D01*
X141591988Y-111296988D01*
X141598117Y-111290405D01*
X141963476Y-110925046D01*
X141982499Y-110909682D01*
X141983558Y-110908718D01*
X141992304Y-110903071D01*
X141998752Y-110894892D01*
X141998754Y-110894890D01*
X142013234Y-110876523D01*
X142017209Y-110872050D01*
X142017137Y-110871989D01*
X142020490Y-110868032D01*
X142024171Y-110864351D01*
X142035455Y-110848560D01*
X142039019Y-110843814D01*
X142064487Y-110811508D01*
X142070934Y-110803330D01*
X142073984Y-110794645D01*
X142079335Y-110787157D01*
X142094110Y-110737750D01*
X142095926Y-110732163D01*
X142113016Y-110683498D01*
X142113500Y-110677909D01*
X142113500Y-110675198D01*
X142113615Y-110672529D01*
X142113634Y-110672468D01*
X142113808Y-110672475D01*
X142113855Y-110671728D01*
X142115725Y-110665475D01*
X142113597Y-110611311D01*
X142113500Y-110606365D01*
X142113500Y-108827556D01*
X142133502Y-108759435D01*
X142187158Y-108712942D01*
X142257432Y-108702838D01*
X142322012Y-108732332D01*
X142356733Y-108781377D01*
X142396430Y-108882154D01*
X142570365Y-109213450D01*
X142572262Y-109216274D01*
X142572265Y-109216278D01*
X142768014Y-109507585D01*
X142779061Y-109524024D01*
X142781256Y-109526630D01*
X142781260Y-109526636D01*
X142800961Y-109550031D01*
X143020079Y-109810241D01*
X143290598Y-110068755D01*
X143587455Y-110296541D01*
X143907176Y-110490935D01*
X144246021Y-110649661D01*
X144249239Y-110650763D01*
X144249242Y-110650764D01*
X144596803Y-110769761D01*
X144596811Y-110769763D01*
X144600026Y-110770864D01*
X144965051Y-110853126D01*
X145052200Y-110863056D01*
X145333442Y-110895100D01*
X145333450Y-110895100D01*
X145336825Y-110895485D01*
X145340229Y-110895503D01*
X145340232Y-110895503D01*
X145543556Y-110896567D01*
X145710999Y-110897444D01*
X145714385Y-110897094D01*
X145714387Y-110897094D01*
X146079805Y-110859332D01*
X146079814Y-110859331D01*
X146083197Y-110858981D01*
X146086530Y-110858267D01*
X146086533Y-110858266D01*
X146342785Y-110803330D01*
X146449063Y-110780546D01*
X146804318Y-110663056D01*
X147144807Y-110507887D01*
X147242707Y-110449758D01*
X147463601Y-110318601D01*
X147463606Y-110318598D01*
X147466546Y-110316852D01*
X147496354Y-110294472D01*
X147568828Y-110240056D01*
X147765771Y-110092187D01*
X148038983Y-109836521D01*
X148282985Y-109552842D01*
X148304737Y-109521192D01*
X148492992Y-109247280D01*
X148492997Y-109247273D01*
X148494922Y-109244471D01*
X148496534Y-109241477D01*
X148496539Y-109241469D01*
X148670694Y-108918027D01*
X148672316Y-108915015D01*
X148813091Y-108568327D01*
X148915601Y-108208463D01*
X148978647Y-107839634D01*
X148980850Y-107803624D01*
X149001380Y-107467948D01*
X149001490Y-107466152D01*
X149001574Y-107442000D01*
X148981339Y-107068368D01*
X148920870Y-106699107D01*
X148820875Y-106338537D01*
X148817627Y-106330373D01*
X148683783Y-105994039D01*
X148683779Y-105994031D01*
X148682523Y-105990874D01*
X148507434Y-105660188D01*
X148505534Y-105657382D01*
X148505530Y-105657375D01*
X148299561Y-105353162D01*
X148297654Y-105350345D01*
X148055639Y-105064970D01*
X147784219Y-104807402D01*
X147781512Y-104805340D01*
X147781504Y-104805333D01*
X147489281Y-104582720D01*
X147486569Y-104580654D01*
X147242344Y-104433327D01*
X147169100Y-104389143D01*
X147169096Y-104389141D01*
X147166172Y-104387377D01*
X147163082Y-104385943D01*
X147163077Y-104385940D01*
X146829871Y-104231272D01*
X146829869Y-104231271D01*
X146826775Y-104229835D01*
X146823540Y-104228740D01*
X146823535Y-104228738D01*
X146475583Y-104110963D01*
X146472348Y-104109868D01*
X146107038Y-104028881D01*
X145939552Y-104010390D01*
X145738500Y-103988193D01*
X145738495Y-103988193D01*
X145735119Y-103987820D01*
X145731720Y-103987814D01*
X145731719Y-103987814D01*
X145554987Y-103987506D01*
X145360940Y-103987167D01*
X145222079Y-104002007D01*
X144992263Y-104026567D01*
X144992257Y-104026568D01*
X144988879Y-104026929D01*
X144623289Y-104106641D01*
X144268446Y-104225369D01*
X143928501Y-104381727D01*
X143869489Y-104417045D01*
X143800768Y-104434864D01*
X143733319Y-104412700D01*
X143688561Y-104357589D01*
X143680703Y-104287029D01*
X143715690Y-104219833D01*
X145229423Y-102706100D01*
X145291735Y-102672074D01*
X145302063Y-102670275D01*
X145372776Y-102660965D01*
X145425821Y-102653982D01*
X145425823Y-102653981D01*
X145434007Y-102652904D01*
X145570063Y-102596547D01*
X145686897Y-102506897D01*
X145776547Y-102390063D01*
X145832904Y-102254007D01*
X145837345Y-102220279D01*
X145849852Y-102125272D01*
X145852126Y-102108000D01*
X145841380Y-102026376D01*
X145833982Y-101970179D01*
X145833981Y-101970177D01*
X145832904Y-101961993D01*
X145776547Y-101825937D01*
X145686897Y-101709103D01*
X145570063Y-101619453D01*
X145434007Y-101563096D01*
X145425823Y-101562019D01*
X145425821Y-101562018D01*
X145296188Y-101544952D01*
X145288000Y-101543874D01*
X145279812Y-101544952D01*
X145150179Y-101562018D01*
X145150177Y-101562019D01*
X145141993Y-101563096D01*
X145005937Y-101619453D01*
X144889103Y-101709103D01*
X144799453Y-101825937D01*
X144743096Y-101961993D01*
X144742019Y-101970177D01*
X144742018Y-101970179D01*
X144725726Y-102093930D01*
X144697003Y-102158858D01*
X144689899Y-102166579D01*
X144670225Y-102186253D01*
X144607913Y-102220279D01*
X144537098Y-102215214D01*
X144481168Y-102173862D01*
X144421923Y-102096653D01*
X144416897Y-102090103D01*
X144300063Y-102000453D01*
X144164007Y-101944096D01*
X144155823Y-101943019D01*
X144155821Y-101943018D01*
X144026188Y-101925952D01*
X144018000Y-101924874D01*
X144009812Y-101925952D01*
X143880179Y-101943018D01*
X143880177Y-101943019D01*
X143871993Y-101944096D01*
X143735937Y-102000453D01*
X143619103Y-102090103D01*
X143529453Y-102206937D01*
X143473096Y-102342993D01*
X143472019Y-102351177D01*
X143472018Y-102351179D01*
X143465111Y-102403646D01*
X143456017Y-102472726D01*
X143455727Y-102474928D01*
X143427005Y-102539855D01*
X143419900Y-102547577D01*
X140992521Y-104974956D01*
X140973505Y-104990315D01*
X140972444Y-104991281D01*
X140963696Y-104996929D01*
X140957250Y-105005106D01*
X140942771Y-105023472D01*
X140938794Y-105027947D01*
X140938865Y-105028008D01*
X140935512Y-105031965D01*
X140931829Y-105035648D01*
X140928803Y-105039883D01*
X140928801Y-105039885D01*
X140920547Y-105051436D01*
X140916984Y-105056182D01*
X140885066Y-105096670D01*
X140882015Y-105105357D01*
X140876666Y-105112843D01*
X140873683Y-105122819D01*
X140873682Y-105122820D01*
X140861902Y-105162211D01*
X140860072Y-105167843D01*
X140842984Y-105216502D01*
X140842500Y-105222091D01*
X140842500Y-105224802D01*
X140842385Y-105227469D01*
X140842366Y-105227532D01*
X140842192Y-105227525D01*
X140842145Y-105228271D01*
X140840275Y-105234524D01*
X140840684Y-105244928D01*
X140842403Y-105288678D01*
X140842500Y-105293625D01*
X140842500Y-106929500D01*
X140822498Y-106997621D01*
X140768842Y-107044114D01*
X140716500Y-107055500D01*
X67088678Y-107055500D01*
X67020557Y-107035498D01*
X66999583Y-107018595D01*
X63682770Y-103701782D01*
X69628049Y-103701782D01*
X69636832Y-103935727D01*
X69684906Y-104164847D01*
X69686863Y-104169803D01*
X69686865Y-104169809D01*
X69758690Y-104351680D01*
X69770898Y-104382592D01*
X69773665Y-104387151D01*
X69773666Y-104387154D01*
X69791804Y-104417044D01*
X69892348Y-104582735D01*
X69895845Y-104586765D01*
X69983759Y-104688077D01*
X70045783Y-104759554D01*
X70049914Y-104762941D01*
X70222689Y-104904609D01*
X70222695Y-104904613D01*
X70226817Y-104907993D01*
X70430274Y-105023807D01*
X70650335Y-105103685D01*
X70655584Y-105104634D01*
X70655587Y-105104635D01*
X70876624Y-105144606D01*
X70876632Y-105144607D01*
X70880708Y-105145344D01*
X70898115Y-105146165D01*
X70903734Y-105146430D01*
X70903743Y-105146430D01*
X70905223Y-105146500D01*
X73319786Y-105146500D01*
X73494272Y-105131695D01*
X73499436Y-105130355D01*
X73499440Y-105130354D01*
X73715708Y-105074221D01*
X73715712Y-105074219D01*
X73720873Y-105072880D01*
X73817613Y-105029302D01*
X73929464Y-104978917D01*
X73929467Y-104978916D01*
X73934325Y-104976727D01*
X74128525Y-104845984D01*
X74171139Y-104805333D01*
X74294055Y-104688077D01*
X74297920Y-104684390D01*
X74375102Y-104580654D01*
X74434483Y-104500842D01*
X74437666Y-104496564D01*
X74543768Y-104287878D01*
X74613191Y-104064298D01*
X74613892Y-104059010D01*
X74643251Y-103837502D01*
X74643251Y-103837498D01*
X74643951Y-103832218D01*
X74635168Y-103598273D01*
X74587094Y-103369153D01*
X74585137Y-103364197D01*
X74585135Y-103364191D01*
X74503063Y-103156373D01*
X74503062Y-103156371D01*
X74501102Y-103151408D01*
X74379652Y-102951265D01*
X74291441Y-102849610D01*
X74229717Y-102778479D01*
X74229715Y-102778477D01*
X74226217Y-102774446D01*
X74183563Y-102739472D01*
X74049311Y-102629391D01*
X74049305Y-102629387D01*
X74045183Y-102626007D01*
X73841726Y-102510193D01*
X73621665Y-102430315D01*
X73616416Y-102429366D01*
X73616413Y-102429365D01*
X73395376Y-102389394D01*
X73395368Y-102389393D01*
X73391292Y-102388656D01*
X73373885Y-102387835D01*
X73368266Y-102387570D01*
X73368257Y-102387570D01*
X73366777Y-102387500D01*
X70952214Y-102387500D01*
X70777728Y-102402305D01*
X70772564Y-102403645D01*
X70772560Y-102403646D01*
X70556292Y-102459779D01*
X70556288Y-102459781D01*
X70551127Y-102461120D01*
X70546261Y-102463312D01*
X70342536Y-102555083D01*
X70342533Y-102555084D01*
X70337675Y-102557273D01*
X70143475Y-102688016D01*
X70139618Y-102691695D01*
X70139616Y-102691697D01*
X70048645Y-102778479D01*
X69974080Y-102849610D01*
X69970895Y-102853890D01*
X69970893Y-102853893D01*
X69915072Y-102928920D01*
X69834334Y-103037436D01*
X69831918Y-103042188D01*
X69741926Y-103219189D01*
X69728232Y-103246122D01*
X69658809Y-103469702D01*
X69658108Y-103474989D01*
X69658108Y-103474990D01*
X69641062Y-103603604D01*
X69628049Y-103701782D01*
X63682770Y-103701782D01*
X61931774Y-101950786D01*
X75456500Y-101950786D01*
X75471305Y-102125272D01*
X75472645Y-102130436D01*
X75472646Y-102130440D01*
X75525836Y-102335367D01*
X75530120Y-102351873D01*
X75532312Y-102356739D01*
X75614800Y-102539855D01*
X75626273Y-102565325D01*
X75757016Y-102759525D01*
X75918610Y-102928920D01*
X75922890Y-102932105D01*
X75922893Y-102932107D01*
X76023762Y-103007155D01*
X76106436Y-103068666D01*
X76111188Y-103071082D01*
X76269177Y-103151408D01*
X76315122Y-103174768D01*
X76538702Y-103244191D01*
X76543989Y-103244892D01*
X76543990Y-103244892D01*
X76765498Y-103274251D01*
X76765502Y-103274251D01*
X76770782Y-103274951D01*
X76776111Y-103274751D01*
X76776113Y-103274751D01*
X76887755Y-103270559D01*
X77004727Y-103266168D01*
X77233847Y-103218094D01*
X77238803Y-103216137D01*
X77238809Y-103216135D01*
X77446627Y-103134063D01*
X77446629Y-103134062D01*
X77451592Y-103132102D01*
X77561377Y-103065483D01*
X77647175Y-103013419D01*
X77647174Y-103013419D01*
X77651735Y-103010652D01*
X77745923Y-102928920D01*
X77824521Y-102860717D01*
X77824523Y-102860715D01*
X77828554Y-102857217D01*
X77863528Y-102814563D01*
X77973609Y-102680311D01*
X77973613Y-102680305D01*
X77976993Y-102676183D01*
X78092807Y-102472726D01*
X78172685Y-102252665D01*
X78173923Y-102245821D01*
X78213606Y-102026376D01*
X78213607Y-102026368D01*
X78214344Y-102022292D01*
X78215500Y-101997777D01*
X78215500Y-99583214D01*
X78200695Y-99408728D01*
X78178999Y-99325137D01*
X78143221Y-99187292D01*
X78143219Y-99187288D01*
X78141880Y-99182127D01*
X78075941Y-99035747D01*
X78047917Y-98973536D01*
X78047916Y-98973533D01*
X78045727Y-98968675D01*
X78025461Y-98938572D01*
X77917962Y-98778899D01*
X77914984Y-98774475D01*
X77871539Y-98728932D01*
X77757077Y-98608945D01*
X77753390Y-98605080D01*
X77565564Y-98465334D01*
X77356878Y-98359232D01*
X77133298Y-98289809D01*
X77128011Y-98289108D01*
X77128010Y-98289108D01*
X76906502Y-98259749D01*
X76906498Y-98259749D01*
X76901218Y-98259049D01*
X76895889Y-98259249D01*
X76895887Y-98259249D01*
X76797710Y-98262935D01*
X76667273Y-98267832D01*
X76438153Y-98315906D01*
X76433197Y-98317863D01*
X76433191Y-98317865D01*
X76225373Y-98399937D01*
X76225371Y-98399938D01*
X76220408Y-98401898D01*
X76215849Y-98404665D01*
X76215846Y-98404666D01*
X76076615Y-98489154D01*
X76020265Y-98523348D01*
X76016235Y-98526845D01*
X75904200Y-98624064D01*
X75843446Y-98676783D01*
X75840059Y-98680914D01*
X75698391Y-98853689D01*
X75698387Y-98853695D01*
X75695007Y-98857817D01*
X75579193Y-99061274D01*
X75499315Y-99281335D01*
X75498366Y-99286584D01*
X75498365Y-99286587D01*
X75458394Y-99507624D01*
X75458393Y-99507632D01*
X75457656Y-99511708D01*
X75456500Y-99536223D01*
X75456500Y-101950786D01*
X61931774Y-101950786D01*
X59656399Y-99675411D01*
X59635740Y-99656853D01*
X59614766Y-99639950D01*
X59543499Y-99602669D01*
X59530523Y-99595881D01*
X59530521Y-99595880D01*
X59525040Y-99593013D01*
X59500727Y-99585874D01*
X59461242Y-99574280D01*
X59461238Y-99574279D01*
X59456919Y-99573011D01*
X59452471Y-99572371D01*
X59452464Y-99572370D01*
X59388258Y-99563139D01*
X59388251Y-99563139D01*
X59383810Y-99562500D01*
X56519500Y-99562500D01*
X56451379Y-99542498D01*
X56404886Y-99488842D01*
X56393500Y-99436500D01*
X56393500Y-98258005D01*
X59912849Y-98258005D01*
X59931429Y-98494088D01*
X59932583Y-98498895D01*
X59932584Y-98498901D01*
X59958076Y-98605080D01*
X59986712Y-98724359D01*
X59988605Y-98728930D01*
X59988606Y-98728932D01*
X60040283Y-98853689D01*
X60077337Y-98943146D01*
X60201071Y-99145062D01*
X60354869Y-99325137D01*
X60534944Y-99478935D01*
X60736860Y-99602669D01*
X60741430Y-99604562D01*
X60741434Y-99604564D01*
X60951074Y-99691400D01*
X60951076Y-99691401D01*
X60955647Y-99693294D01*
X61035500Y-99712465D01*
X61181105Y-99747422D01*
X61181111Y-99747423D01*
X61185918Y-99748577D01*
X61422001Y-99767157D01*
X61658084Y-99748577D01*
X61662891Y-99747423D01*
X61662897Y-99747422D01*
X61808502Y-99712465D01*
X61888355Y-99693294D01*
X61892926Y-99691401D01*
X61892928Y-99691400D01*
X62102568Y-99604564D01*
X62102572Y-99604562D01*
X62107142Y-99602669D01*
X62309058Y-99478935D01*
X62489133Y-99325137D01*
X62642931Y-99145062D01*
X62766665Y-98943146D01*
X62803720Y-98853689D01*
X62855396Y-98728932D01*
X62855397Y-98728930D01*
X62857290Y-98724359D01*
X62885926Y-98605080D01*
X62911418Y-98498901D01*
X62911419Y-98498895D01*
X62912573Y-98494088D01*
X62931153Y-98258005D01*
X62912573Y-98021922D01*
X62897979Y-97961131D01*
X62876461Y-97871504D01*
X62864018Y-97819677D01*
X69377524Y-97819677D01*
X69405351Y-98060176D01*
X69406730Y-98065050D01*
X69406731Y-98065054D01*
X69464421Y-98268927D01*
X69471271Y-98293133D01*
X69573589Y-98512553D01*
X69576430Y-98516733D01*
X69576432Y-98516737D01*
X69654997Y-98632342D01*
X69709671Y-98712793D01*
X69713148Y-98716470D01*
X69713153Y-98716476D01*
X69803114Y-98811606D01*
X69876018Y-98888699D01*
X70068348Y-99035747D01*
X70072806Y-99038137D01*
X70072807Y-99038138D01*
X70115956Y-99061274D01*
X70281715Y-99150153D01*
X70286496Y-99151799D01*
X70286500Y-99151801D01*
X70418502Y-99197253D01*
X70510629Y-99228975D01*
X70610763Y-99246271D01*
X70745290Y-99269508D01*
X70745296Y-99269509D01*
X70749200Y-99270183D01*
X70753161Y-99270363D01*
X70753162Y-99270363D01*
X70776784Y-99271436D01*
X70776803Y-99271436D01*
X70778203Y-99271500D01*
X73446841Y-99271500D01*
X73449349Y-99271298D01*
X73449354Y-99271298D01*
X73622283Y-99257385D01*
X73622288Y-99257384D01*
X73627324Y-99256979D01*
X73632232Y-99255774D01*
X73632235Y-99255773D01*
X73857525Y-99200436D01*
X73862439Y-99199229D01*
X73867091Y-99197254D01*
X73867095Y-99197253D01*
X74080642Y-99106607D01*
X74080643Y-99106607D01*
X74085297Y-99104631D01*
X74290163Y-98975620D01*
X74471768Y-98815514D01*
X74625439Y-98628432D01*
X74718512Y-98468517D01*
X74744680Y-98423556D01*
X74744681Y-98423554D01*
X74747222Y-98419188D01*
X74787289Y-98314811D01*
X74832169Y-98197894D01*
X74832170Y-98197891D01*
X74833984Y-98193165D01*
X74883493Y-97956177D01*
X74894476Y-97714323D01*
X74866649Y-97473824D01*
X74838732Y-97375165D01*
X74802107Y-97245736D01*
X74802106Y-97245734D01*
X74800729Y-97240867D01*
X74698411Y-97021447D01*
X74619661Y-96905568D01*
X74565178Y-96825399D01*
X74565177Y-96825398D01*
X74562329Y-96821207D01*
X74558852Y-96817530D01*
X74558847Y-96817524D01*
X74399461Y-96648980D01*
X74399462Y-96648980D01*
X74395982Y-96645301D01*
X74203652Y-96498253D01*
X73990285Y-96383847D01*
X73985504Y-96382201D01*
X73985500Y-96382199D01*
X73766160Y-96306674D01*
X73761371Y-96305025D01*
X73661237Y-96287729D01*
X73526710Y-96264492D01*
X73526704Y-96264491D01*
X73522800Y-96263817D01*
X73518839Y-96263637D01*
X73518838Y-96263637D01*
X73495216Y-96262564D01*
X73495197Y-96262564D01*
X73493797Y-96262500D01*
X70825159Y-96262500D01*
X70822651Y-96262702D01*
X70822646Y-96262702D01*
X70649717Y-96276615D01*
X70649712Y-96276616D01*
X70644676Y-96277021D01*
X70639768Y-96278226D01*
X70639765Y-96278227D01*
X70523951Y-96306674D01*
X70409561Y-96334771D01*
X70404909Y-96336746D01*
X70404905Y-96336747D01*
X70288310Y-96386239D01*
X70186703Y-96429369D01*
X69981837Y-96558380D01*
X69800232Y-96718486D01*
X69646561Y-96905568D01*
X69524778Y-97114812D01*
X69522965Y-97119535D01*
X69478149Y-97236286D01*
X69438016Y-97340835D01*
X69388507Y-97577823D01*
X69377524Y-97819677D01*
X62864018Y-97819677D01*
X62857290Y-97791651D01*
X62766665Y-97572864D01*
X62642931Y-97370948D01*
X62489133Y-97190873D01*
X62309058Y-97037075D01*
X62107142Y-96913341D01*
X62102572Y-96911448D01*
X62102568Y-96911446D01*
X61892928Y-96824610D01*
X61892926Y-96824609D01*
X61888355Y-96822716D01*
X61808502Y-96803545D01*
X61662897Y-96768588D01*
X61662891Y-96768587D01*
X61658084Y-96767433D01*
X61422001Y-96748853D01*
X61185918Y-96767433D01*
X61181111Y-96768587D01*
X61181105Y-96768588D01*
X61035500Y-96803545D01*
X60955647Y-96822716D01*
X60951076Y-96824609D01*
X60951074Y-96824610D01*
X60741434Y-96911446D01*
X60741430Y-96911448D01*
X60736860Y-96913341D01*
X60534944Y-97037075D01*
X60354869Y-97190873D01*
X60201071Y-97370948D01*
X60077337Y-97572864D01*
X59986712Y-97791651D01*
X59967541Y-97871504D01*
X59946024Y-97961131D01*
X59931429Y-98021922D01*
X59912849Y-98258005D01*
X56393500Y-98258005D01*
X56393500Y-91982938D01*
X59917501Y-91982938D01*
X59917502Y-94533071D01*
X59932267Y-94607306D01*
X59988517Y-94691489D01*
X60072700Y-94747739D01*
X60146934Y-94762505D01*
X61421794Y-94762505D01*
X62697067Y-94762504D01*
X62732819Y-94755393D01*
X62759127Y-94750161D01*
X62759129Y-94750160D01*
X62771302Y-94747739D01*
X62781622Y-94740844D01*
X62781623Y-94740843D01*
X62845169Y-94698382D01*
X62855485Y-94691489D01*
X62911735Y-94607306D01*
X62926501Y-94533072D01*
X62926500Y-91982939D01*
X62911735Y-91908704D01*
X62855485Y-91824521D01*
X62771302Y-91768271D01*
X62697068Y-91753505D01*
X61422208Y-91753505D01*
X60146935Y-91753506D01*
X60111183Y-91760617D01*
X60084875Y-91765849D01*
X60084873Y-91765850D01*
X60072700Y-91768271D01*
X60062380Y-91775166D01*
X60062379Y-91775167D01*
X60001986Y-91815521D01*
X59988517Y-91824521D01*
X59932267Y-91908704D01*
X59917501Y-91982938D01*
X56393500Y-91982938D01*
X56393500Y-90555500D01*
X56413502Y-90487379D01*
X56467158Y-90440886D01*
X56519500Y-90429500D01*
X67819000Y-90429500D01*
X67822346Y-90429140D01*
X67822351Y-90429140D01*
X67870795Y-90423932D01*
X67870801Y-90423931D01*
X67874159Y-90423570D01*
X67926501Y-90412184D01*
X67953291Y-90404834D01*
X67960142Y-90400933D01*
X67960144Y-90400932D01*
X68035899Y-90357794D01*
X68041278Y-90354731D01*
X68094934Y-90308238D01*
X68127056Y-90274949D01*
X68173987Y-90185230D01*
X68193989Y-90117109D01*
X68204500Y-90044000D01*
X68204500Y-87502000D01*
X68198570Y-87446841D01*
X68187184Y-87394499D01*
X68179834Y-87367709D01*
X68129731Y-87279722D01*
X68083238Y-87226066D01*
X68049949Y-87193944D01*
X67960230Y-87147013D01*
X67954294Y-87145270D01*
X67896432Y-87128280D01*
X67896428Y-87128279D01*
X67892109Y-87127011D01*
X67887661Y-87126371D01*
X67887654Y-87126370D01*
X67823448Y-87117139D01*
X67823441Y-87117139D01*
X67819000Y-87116500D01*
X56519500Y-87116500D01*
X56451379Y-87096498D01*
X56404886Y-87042842D01*
X56393500Y-86990500D01*
X56393500Y-85621635D01*
X56413502Y-85553514D01*
X56467158Y-85507021D01*
X56537432Y-85496917D01*
X56565270Y-85504242D01*
X56712431Y-85561618D01*
X56712434Y-85561619D01*
X56719511Y-85564378D01*
X56727044Y-85565370D01*
X56727045Y-85565370D01*
X56845477Y-85580962D01*
X56845478Y-85580962D01*
X56849564Y-85581500D01*
X56938756Y-85581500D01*
X57065281Y-85566189D01*
X57224789Y-85505916D01*
X57365316Y-85409334D01*
X57397945Y-85372712D01*
X57473695Y-85287693D01*
X57473697Y-85287690D01*
X57478748Y-85282021D01*
X57558538Y-85131324D01*
X57600078Y-84965946D01*
X57600971Y-84795432D01*
X57561165Y-84629627D01*
X57482958Y-84478104D01*
X57370865Y-84349609D01*
X57231357Y-84251562D01*
X57135488Y-84214184D01*
X57079569Y-84192382D01*
X57079566Y-84192381D01*
X57072489Y-84189622D01*
X57064956Y-84188630D01*
X57064955Y-84188630D01*
X56946523Y-84173038D01*
X56946522Y-84173038D01*
X56942436Y-84172500D01*
X56853244Y-84172500D01*
X56726719Y-84187811D01*
X56567211Y-84248084D01*
X56566358Y-84245826D01*
X56508246Y-84257373D01*
X56442184Y-84231367D01*
X56400669Y-84173773D01*
X56393500Y-84131877D01*
X56393500Y-83139928D01*
X141416499Y-83139928D01*
X141416500Y-85690061D01*
X141431265Y-85764296D01*
X141487515Y-85848479D01*
X141571698Y-85904729D01*
X141645932Y-85919495D01*
X142920792Y-85919495D01*
X144196065Y-85919494D01*
X144231817Y-85912383D01*
X144258125Y-85907151D01*
X144258127Y-85907150D01*
X144270300Y-85904729D01*
X144280620Y-85897834D01*
X144280621Y-85897833D01*
X144344167Y-85855372D01*
X144354483Y-85848479D01*
X144410733Y-85764296D01*
X144425499Y-85690062D01*
X144425498Y-83139929D01*
X144410733Y-83065694D01*
X144354483Y-82981511D01*
X144270300Y-82925261D01*
X144196066Y-82910495D01*
X142921206Y-82910495D01*
X141645933Y-82910496D01*
X141610181Y-82917607D01*
X141583873Y-82922839D01*
X141583871Y-82922840D01*
X141571698Y-82925261D01*
X141561378Y-82932156D01*
X141561377Y-82932157D01*
X141500984Y-82972511D01*
X141487515Y-82981511D01*
X141431265Y-83065694D01*
X141416499Y-83139928D01*
X56393500Y-83139928D01*
X56393500Y-81221635D01*
X56413502Y-81153514D01*
X56467158Y-81107021D01*
X56537432Y-81096917D01*
X56565270Y-81104242D01*
X56712431Y-81161618D01*
X56712434Y-81161619D01*
X56719511Y-81164378D01*
X56727044Y-81165370D01*
X56727045Y-81165370D01*
X56845477Y-81180962D01*
X56845478Y-81180962D01*
X56849564Y-81181500D01*
X56938756Y-81181500D01*
X57065281Y-81166189D01*
X57224789Y-81105916D01*
X57365316Y-81009334D01*
X57397945Y-80972712D01*
X57473695Y-80887693D01*
X57473697Y-80887690D01*
X57478748Y-80882021D01*
X57482303Y-80875307D01*
X57554984Y-80738037D01*
X57554985Y-80738035D01*
X57558538Y-80731324D01*
X57560388Y-80723959D01*
X57598227Y-80573317D01*
X57598227Y-80573313D01*
X57600078Y-80565946D01*
X57600971Y-80395432D01*
X57599199Y-80388050D01*
X57562937Y-80237006D01*
X57562936Y-80237002D01*
X57561165Y-80229627D01*
X57482958Y-80078104D01*
X57370865Y-79949609D01*
X57231357Y-79851562D01*
X57135488Y-79814184D01*
X57079569Y-79792382D01*
X57079566Y-79792381D01*
X57072489Y-79789622D01*
X57064956Y-79788630D01*
X57064955Y-79788630D01*
X56946523Y-79773038D01*
X56946522Y-79773038D01*
X56942436Y-79772500D01*
X56853244Y-79772500D01*
X56726719Y-79787811D01*
X56567211Y-79848084D01*
X56566358Y-79845826D01*
X56508246Y-79857373D01*
X56442184Y-79831367D01*
X56400669Y-79773773D01*
X56393500Y-79731877D01*
X56393500Y-79414995D01*
X141411847Y-79414995D01*
X141430427Y-79651078D01*
X141485710Y-79881349D01*
X141487603Y-79885920D01*
X141487604Y-79885922D01*
X141516357Y-79955336D01*
X141576335Y-80100136D01*
X141700069Y-80302052D01*
X141853867Y-80482127D01*
X142033942Y-80635925D01*
X142235858Y-80759659D01*
X142240428Y-80761552D01*
X142240432Y-80761554D01*
X142450072Y-80848390D01*
X142450074Y-80848391D01*
X142454645Y-80850284D01*
X142534498Y-80869455D01*
X142680103Y-80904412D01*
X142680109Y-80904413D01*
X142684916Y-80905567D01*
X142920999Y-80924147D01*
X143157082Y-80905567D01*
X143161889Y-80904413D01*
X143161895Y-80904412D01*
X143307500Y-80869455D01*
X143387353Y-80850284D01*
X143391924Y-80848391D01*
X143391926Y-80848390D01*
X143601566Y-80761554D01*
X143601570Y-80761552D01*
X143606140Y-80759659D01*
X143808056Y-80635925D01*
X143988131Y-80482127D01*
X144141929Y-80302052D01*
X144265663Y-80100136D01*
X144325642Y-79955336D01*
X144354394Y-79885922D01*
X144354395Y-79885920D01*
X144356288Y-79881349D01*
X144411571Y-79651078D01*
X144430151Y-79414995D01*
X144411571Y-79178912D01*
X144356288Y-78948641D01*
X144265663Y-78729854D01*
X144141929Y-78527938D01*
X143988131Y-78347863D01*
X143808056Y-78194065D01*
X143606140Y-78070331D01*
X143601570Y-78068438D01*
X143601566Y-78068436D01*
X143391926Y-77981600D01*
X143391924Y-77981599D01*
X143387353Y-77979706D01*
X143307500Y-77960535D01*
X143161895Y-77925578D01*
X143161889Y-77925577D01*
X143157082Y-77924423D01*
X142920999Y-77905843D01*
X142684916Y-77924423D01*
X142680109Y-77925577D01*
X142680103Y-77925578D01*
X142534498Y-77960535D01*
X142454645Y-77979706D01*
X142450074Y-77981599D01*
X142450072Y-77981600D01*
X142240432Y-78068436D01*
X142240428Y-78068438D01*
X142235858Y-78070331D01*
X142033942Y-78194065D01*
X141853867Y-78347863D01*
X141700069Y-78527938D01*
X141576335Y-78729854D01*
X141485710Y-78948641D01*
X141430427Y-79178912D01*
X141411847Y-79414995D01*
X56393500Y-79414995D01*
X56393500Y-70104000D01*
X71825874Y-70104000D01*
X71845096Y-70250007D01*
X71901453Y-70386063D01*
X71991103Y-70502897D01*
X72107937Y-70592547D01*
X72243993Y-70648904D01*
X72252177Y-70649981D01*
X72252179Y-70649982D01*
X72381812Y-70667048D01*
X72390000Y-70668126D01*
X72398188Y-70667048D01*
X72527821Y-70649982D01*
X72527823Y-70649981D01*
X72536007Y-70648904D01*
X72672063Y-70592547D01*
X72788897Y-70502897D01*
X72793530Y-70496859D01*
X72855581Y-70462979D01*
X72882361Y-70460100D01*
X74818639Y-70460100D01*
X74886760Y-70480102D01*
X74907333Y-70496680D01*
X74912103Y-70502897D01*
X75028937Y-70592547D01*
X75164993Y-70648904D01*
X75173177Y-70649981D01*
X75173179Y-70649982D01*
X75302812Y-70667048D01*
X75311000Y-70668126D01*
X75319188Y-70667048D01*
X75448821Y-70649982D01*
X75448823Y-70649981D01*
X75457007Y-70648904D01*
X75593063Y-70592547D01*
X75709897Y-70502897D01*
X75799547Y-70386063D01*
X75855904Y-70250007D01*
X75875126Y-70104000D01*
X75855904Y-69957993D01*
X75799547Y-69821937D01*
X75709897Y-69705103D01*
X75593063Y-69615453D01*
X75457007Y-69559096D01*
X75448823Y-69558019D01*
X75448821Y-69558018D01*
X75319188Y-69540952D01*
X75311000Y-69539874D01*
X75302812Y-69540952D01*
X75173179Y-69558018D01*
X75173177Y-69558019D01*
X75164993Y-69559096D01*
X75028937Y-69615453D01*
X74912103Y-69705103D01*
X74907470Y-69711141D01*
X74845419Y-69745021D01*
X74818639Y-69747900D01*
X72882361Y-69747900D01*
X72814240Y-69727898D01*
X72793667Y-69711320D01*
X72788897Y-69705103D01*
X72672063Y-69615453D01*
X72536007Y-69559096D01*
X72527823Y-69558019D01*
X72527821Y-69558018D01*
X72398188Y-69540952D01*
X72390000Y-69539874D01*
X72381812Y-69540952D01*
X72252179Y-69558018D01*
X72252177Y-69558019D01*
X72243993Y-69559096D01*
X72107937Y-69615453D01*
X71991103Y-69705103D01*
X71901453Y-69821937D01*
X71845096Y-69957993D01*
X71825874Y-70104000D01*
X56393500Y-70104000D01*
X56393500Y-67314500D01*
X56413502Y-67246379D01*
X56467158Y-67199886D01*
X56519500Y-67188500D01*
X76074000Y-67188500D01*
X76077346Y-67188140D01*
X76077351Y-67188140D01*
X76125795Y-67182932D01*
X76125801Y-67182931D01*
X76129159Y-67182570D01*
X76181501Y-67171184D01*
X76208291Y-67163834D01*
X76215142Y-67159933D01*
X76215144Y-67159932D01*
X76290899Y-67116794D01*
X76296278Y-67113731D01*
X76349934Y-67067238D01*
X76382056Y-67033949D01*
X76428987Y-66944230D01*
X76448989Y-66876109D01*
X76459500Y-66803000D01*
X76459500Y-61213000D01*
X76456234Y-61182621D01*
X76453932Y-61161205D01*
X76453931Y-61161199D01*
X76453570Y-61157841D01*
X76442184Y-61105499D01*
X76434834Y-61078709D01*
X76384731Y-60990722D01*
X76338238Y-60937066D01*
X76304949Y-60904944D01*
X76215230Y-60858013D01*
X76209294Y-60856270D01*
X76151432Y-60839280D01*
X76151428Y-60839279D01*
X76147109Y-60838011D01*
X76142661Y-60837371D01*
X76142654Y-60837370D01*
X76078448Y-60828139D01*
X76078441Y-60828139D01*
X76074000Y-60827500D01*
X68286212Y-60827500D01*
X68218091Y-60807498D01*
X68171598Y-60753842D01*
X68161494Y-60683568D01*
X68190988Y-60618988D01*
X68197117Y-60612405D01*
X68938480Y-59871042D01*
X68957489Y-59855689D01*
X68958552Y-59854722D01*
X68967304Y-59849071D01*
X68988229Y-59822528D01*
X68992208Y-59818050D01*
X68992137Y-59817990D01*
X68995490Y-59814033D01*
X68999171Y-59810352D01*
X69010469Y-59794543D01*
X69014032Y-59789798D01*
X69039485Y-59757510D01*
X69045934Y-59749330D01*
X69048984Y-59740645D01*
X69054334Y-59733158D01*
X69069109Y-59683753D01*
X69070930Y-59678150D01*
X69073444Y-59670993D01*
X69088016Y-59629498D01*
X69088500Y-59623909D01*
X69088500Y-59621196D01*
X69088615Y-59618531D01*
X69088634Y-59618468D01*
X69088808Y-59618475D01*
X69088855Y-59617729D01*
X69090725Y-59611476D01*
X69088597Y-59557322D01*
X69088500Y-59552375D01*
X69088500Y-57868340D01*
X69108502Y-57800219D01*
X69114527Y-57791650D01*
X69195547Y-57686063D01*
X69251904Y-57550007D01*
X69255058Y-57526054D01*
X69270048Y-57412188D01*
X69271126Y-57404000D01*
X69268067Y-57380768D01*
X69252982Y-57266179D01*
X69252981Y-57266177D01*
X69251904Y-57257993D01*
X69195547Y-57121937D01*
X69105897Y-57005103D01*
X68989063Y-56915453D01*
X68853007Y-56859096D01*
X68844823Y-56858019D01*
X68844821Y-56858018D01*
X68715188Y-56840952D01*
X68707000Y-56839874D01*
X68698812Y-56840952D01*
X68569179Y-56858018D01*
X68569177Y-56858019D01*
X68560993Y-56859096D01*
X68424937Y-56915453D01*
X68308103Y-57005103D01*
X68302872Y-57011921D01*
X68298963Y-57017015D01*
X68241626Y-57058883D01*
X68170755Y-57063105D01*
X68108851Y-57028342D01*
X68099037Y-57017015D01*
X68095129Y-57011921D01*
X68089897Y-57005103D01*
X67973063Y-56915453D01*
X67837007Y-56859096D01*
X67828823Y-56858019D01*
X67828821Y-56858018D01*
X67699188Y-56840952D01*
X67691000Y-56839874D01*
X67682812Y-56840952D01*
X67553179Y-56858018D01*
X67553177Y-56858019D01*
X67544993Y-56859096D01*
X67408937Y-56915453D01*
X67292103Y-57005103D01*
X67202453Y-57121937D01*
X67146096Y-57257993D01*
X67145019Y-57266177D01*
X67145018Y-57266179D01*
X67129933Y-57380768D01*
X67126874Y-57404000D01*
X67127952Y-57412188D01*
X67142943Y-57526054D01*
X67146096Y-57550007D01*
X67202453Y-57686063D01*
X67283464Y-57791638D01*
X67309063Y-57857856D01*
X67309500Y-57868340D01*
X67309500Y-59479787D01*
X67289498Y-59547908D01*
X67272595Y-59568883D01*
X67061881Y-59779596D01*
X66999569Y-59813621D01*
X66972786Y-59816500D01*
X51997140Y-59816500D01*
X51972824Y-59813913D01*
X51971401Y-59813846D01*
X51961220Y-59811654D01*
X51927681Y-59815624D01*
X51927652Y-59815627D01*
X51921678Y-59815979D01*
X51921686Y-59816072D01*
X51916508Y-59816500D01*
X51911308Y-59816500D01*
X51906179Y-59817354D01*
X51906176Y-59817354D01*
X51892165Y-59819686D01*
X51886286Y-59820523D01*
X51845433Y-59825358D01*
X51845432Y-59825358D01*
X51835093Y-59826582D01*
X51826794Y-59830567D01*
X51817717Y-59832078D01*
X51772349Y-59856558D01*
X51767086Y-59859239D01*
X51720602Y-59881560D01*
X51716308Y-59885169D01*
X51714382Y-59887095D01*
X51712424Y-59888891D01*
X51712367Y-59888921D01*
X51712249Y-59888792D01*
X51711684Y-59889290D01*
X51705943Y-59892388D01*
X51698874Y-59900035D01*
X51698873Y-59900036D01*
X51669146Y-59932195D01*
X51665716Y-59935761D01*
X51269595Y-60331882D01*
X51207283Y-60365908D01*
X51136468Y-60360843D01*
X51079632Y-60318296D01*
X51054821Y-60251776D01*
X51054500Y-60242787D01*
X51054500Y-55105924D01*
X51658447Y-55105924D01*
X51677378Y-55479624D01*
X51677915Y-55482979D01*
X51677916Y-55482985D01*
X51708861Y-55676179D01*
X51736557Y-55849094D01*
X51835293Y-56210011D01*
X51972430Y-56558154D01*
X52146365Y-56889450D01*
X52148262Y-56892274D01*
X52148265Y-56892278D01*
X52292931Y-57107564D01*
X52355061Y-57200024D01*
X52357256Y-57202630D01*
X52357260Y-57202636D01*
X52410769Y-57266179D01*
X52596079Y-57486241D01*
X52866598Y-57744755D01*
X53163455Y-57972541D01*
X53483176Y-58166935D01*
X53822021Y-58325661D01*
X53825239Y-58326763D01*
X53825242Y-58326764D01*
X54172803Y-58445761D01*
X54172811Y-58445763D01*
X54176026Y-58446864D01*
X54541051Y-58529126D01*
X54628200Y-58539056D01*
X54909442Y-58571100D01*
X54909450Y-58571100D01*
X54912825Y-58571485D01*
X54916229Y-58571503D01*
X54916232Y-58571503D01*
X55119556Y-58572567D01*
X55286999Y-58573444D01*
X55290385Y-58573094D01*
X55290387Y-58573094D01*
X55655805Y-58535332D01*
X55655814Y-58535331D01*
X55659197Y-58534981D01*
X55662530Y-58534267D01*
X55662533Y-58534266D01*
X55977596Y-58466722D01*
X56025063Y-58456546D01*
X56380318Y-58339056D01*
X56720807Y-58183887D01*
X56930295Y-58059502D01*
X57039601Y-57994601D01*
X57039606Y-57994598D01*
X57042546Y-57992852D01*
X57072354Y-57970472D01*
X57229113Y-57852773D01*
X57341771Y-57768187D01*
X57614983Y-57512521D01*
X57858985Y-57228842D01*
X57900182Y-57168900D01*
X58068992Y-56923280D01*
X58068997Y-56923273D01*
X58070922Y-56920471D01*
X58072534Y-56917477D01*
X58072539Y-56917469D01*
X58246694Y-56594027D01*
X58248316Y-56591015D01*
X58364168Y-56305705D01*
X58387811Y-56247480D01*
X58387813Y-56247475D01*
X58389091Y-56244327D01*
X58396613Y-56217923D01*
X58470082Y-55960007D01*
X58491601Y-55884463D01*
X58492174Y-55881111D01*
X58554075Y-55518981D01*
X58554075Y-55518979D01*
X58554647Y-55515634D01*
X58556850Y-55479624D01*
X58577380Y-55143948D01*
X58577490Y-55142152D01*
X58577574Y-55118000D01*
X58557339Y-54744368D01*
X58496870Y-54375107D01*
X58396875Y-54014537D01*
X58393627Y-54006373D01*
X58259783Y-53670039D01*
X58259779Y-53670031D01*
X58258523Y-53666874D01*
X58083434Y-53336188D01*
X58081534Y-53333382D01*
X58081530Y-53333375D01*
X57875561Y-53029162D01*
X57873654Y-53026345D01*
X57631639Y-52740970D01*
X57360219Y-52483402D01*
X57357512Y-52481340D01*
X57357504Y-52481333D01*
X57065281Y-52258720D01*
X57062569Y-52256654D01*
X56742172Y-52063377D01*
X56739082Y-52061943D01*
X56739077Y-52061940D01*
X56405871Y-51907272D01*
X56405869Y-51907271D01*
X56402775Y-51905835D01*
X56399540Y-51904740D01*
X56399535Y-51904738D01*
X56051583Y-51786963D01*
X56048348Y-51785868D01*
X55683038Y-51704881D01*
X55550294Y-51690226D01*
X55314500Y-51664193D01*
X55314495Y-51664193D01*
X55311119Y-51663820D01*
X55307720Y-51663814D01*
X55307719Y-51663814D01*
X55130987Y-51663506D01*
X54936940Y-51663167D01*
X54798079Y-51678007D01*
X54568263Y-51702567D01*
X54568257Y-51702568D01*
X54564879Y-51702929D01*
X54199289Y-51782641D01*
X53844446Y-51901369D01*
X53841353Y-51902791D01*
X53841352Y-51902792D01*
X53796228Y-51923547D01*
X53504501Y-52057727D01*
X53501567Y-52059483D01*
X53501565Y-52059484D01*
X53492110Y-52065143D01*
X53183431Y-52249883D01*
X52884991Y-52475591D01*
X52882509Y-52477930D01*
X52882503Y-52477935D01*
X52876702Y-52483402D01*
X52612674Y-52732210D01*
X52369664Y-53016738D01*
X52367736Y-53019565D01*
X52367734Y-53019567D01*
X52363111Y-53026345D01*
X52158804Y-53325847D01*
X51982561Y-53655921D01*
X51981288Y-53659089D01*
X51981287Y-53659090D01*
X51979368Y-53663865D01*
X51842997Y-54003098D01*
X51741744Y-54363317D01*
X51679986Y-54732365D01*
X51658447Y-55105924D01*
X51054500Y-55105924D01*
X51054500Y-51180500D01*
X51074502Y-51112379D01*
X51128158Y-51065886D01*
X51180500Y-51054500D01*
X58291654Y-51054500D01*
X58359775Y-51074502D01*
G37*
G04 #@! TD.AperFunction*
M02*
